M48
; DRILL file {KiCad 8.0.4} date 2024-08-23T21:57:53-0400
; FORMAT={-:-/ absolute / inch / decimal}
; #@! TF.CreationDate,2024-08-23T21:57:53-04:00
; #@! TF.GenerationSoftware,Kicad,Pcbnew,8.0.4
; #@! TF.FileFunction,NonPlated,1,2,NPTH
FMAT,2
INCH
; #@! TA.AperFunction,NonPlated,NPTH,ComponentDrill
T1C0.0295
; #@! TA.AperFunction,NonPlated,NPTH,ComponentDrill
T2C0.0354
; #@! TA.AperFunction,NonPlated,NPTH,ComponentDrill
T3C0.0670
; #@! TA.AperFunction,NonPlated,NPTH,ComponentDrill
T4C0.1181
; #@! TA.AperFunction,NonPlated,NPTH,ComponentDrill
T5C0.1350
%
G90
G05
T1
X6.8102Y-6.6419
X6.9125Y-6.6771
T2
X6.9285Y-6.3558
X6.9669Y-6.2441
T3
X1.752Y-4.8819
X1.752Y-5.6299
X1.752Y-6.378
X1.752Y-7.126
X1.752Y-7.874
X2.185Y-4.8819
X2.185Y-5.6299
X2.185Y-6.378
X2.185Y-7.126
X2.185Y-7.874
X2.5Y-7.6734
X2.5131Y-6.9255
X2.5261Y-6.1776
X2.5392Y-5.4296
X2.5523Y-4.6817
X2.933Y-7.6809
X2.9461Y-6.933
X2.9591Y-6.1851
X2.9722Y-5.4372
X2.9853Y-4.6893
X3.2508Y-7.5252
X3.2769Y-6.7776
X3.303Y-6.0301
X3.3291Y-5.2825
X3.3552Y-4.5349
X3.6836Y-7.5403
X3.7097Y-6.7927
X3.7358Y-6.0452
X3.7619Y-5.2976
X3.788Y-4.55
X3.9944Y-7.6656
X4.0336Y-6.9186
X4.0727Y-6.1716
X4.1119Y-5.4246
X4.151Y-4.6776
X4.4269Y-7.6882
X4.466Y-6.9412
X4.5052Y-6.1942
X4.5443Y-5.4472
X4.5835Y-4.7002
X4.7835Y-7.1513
X4.8357Y-6.4051
X4.8879Y-5.6589
X4.9401Y-4.9127
X5.0486Y-7.9819
X5.2155Y-7.1815
X5.2677Y-6.4353
X5.3199Y-5.6891
X5.3721Y-4.9429
X5.4581Y-8.1229
X5.5297Y-7.2035
X5.5819Y-6.4573
X5.6341Y-5.7111
X5.6863Y-4.9649
X5.7559Y-8.2255
X5.9618Y-7.2337
X6.0139Y-6.4875
X6.0661Y-5.7413
X6.1183Y-4.9951
X6.1653Y-8.3665
T4
X1.7717Y-5.0295
X1.7717Y-5.7776
X1.7717Y-6.5256
X1.7717Y-7.2736
X1.7717Y-8.0217
X1.9685Y-5.1161
X1.9685Y-5.8642
X1.9685Y-6.6122
X1.9685Y-7.3602
X1.9685Y-8.1083
X2.5171Y-7.8213
X2.5302Y-7.0734
X2.5432Y-6.3255
X2.5563Y-5.5776
X2.5694Y-4.8297
X2.7124Y-7.9114
X2.7255Y-7.1635
X2.7386Y-6.4155
X2.7516Y-5.6676
X2.7647Y-4.9197
X3.2653Y-7.6734
X3.2914Y-6.9259
X3.3175Y-6.1783
X3.3436Y-5.4307
X3.3697Y-4.6831
X3.459Y-7.7669
X3.4851Y-7.0193
X3.5112Y-6.2717
X3.5373Y-5.5241
X3.5634Y-4.7766
X4.0063Y-7.814
X4.0455Y-7.067
X4.0846Y-6.32
X4.1238Y-5.573
X4.1629Y-4.826
X4.1984Y-7.9108
X4.2375Y-7.1638
X4.2767Y-6.4168
X4.3158Y-5.6698
X4.355Y-4.9228
X4.7929Y-7.3
X4.845Y-6.5538
X4.8972Y-5.8076
X4.9494Y-5.0613
X4.9832Y-7.4001
X5.0191Y-8.1279
X5.0354Y-6.6539
X5.0876Y-5.9077
X5.1397Y-5.1615
X5.177Y-8.2739
X5.5391Y-7.3522
X5.5913Y-6.6059
X5.6434Y-5.8597
X5.6956Y-5.1135
X5.7264Y-8.3715
X5.7294Y-7.4523
X5.7816Y-6.7061
X5.8338Y-5.9599
X5.8843Y-8.5175
X5.8859Y-5.2137
T5
X1.9685Y-4.8819
X1.9685Y-5.6299
X1.9685Y-6.378
X1.9685Y-7.126
X1.9685Y-7.874
X2.7165Y-7.6772
X2.7296Y-6.9292
X2.7426Y-6.1813
X2.7557Y-5.4334
X2.7688Y-4.6855
X3.4672Y-7.5328
X3.4933Y-6.7852
X3.5194Y-6.0376
X3.5455Y-5.29
X3.5716Y-4.5425
X4.2107Y-7.6769
X4.2498Y-6.9299
X4.289Y-6.1829
X4.3281Y-5.4359
X4.3673Y-4.6889
X4.9995Y-7.1664
X5.0517Y-6.4202
X5.1039Y-5.674
X5.1561Y-4.9278
X5.2533Y-8.0524
X5.7457Y-7.2186
X5.7979Y-6.4724
X5.8501Y-5.7262
X5.9023Y-4.98
X5.9606Y-8.296
M30
