M48
; DRILL file {KiCad 8.0.4} date 2024-08-23T21:57:53-0400
; FORMAT={-:-/ absolute / inch / decimal}
; #@! TF.CreationDate,2024-08-23T21:57:53-04:00
; #@! TF.GenerationSoftware,Kicad,Pcbnew,8.0.4
; #@! TF.FileFunction,Plated,1,2,PTH
FMAT,2
INCH
; #@! TA.AperFunction,Plated,PTH,ComponentDrill
T1C0.0157
; #@! TA.AperFunction,Plated,PTH,ComponentDrill
T2C0.0295
; #@! TA.AperFunction,Plated,PTH,ComponentDrill
T3C0.0390
; #@! TA.AperFunction,Plated,PTH,ComponentDrill
T4C0.0430
; #@! TA.AperFunction,Plated,PTH,ComponentDrill
T5C0.0866
%
G90
G05
T1
X2.2579Y-5.2165
X2.2579Y-7.4724
X2.2769Y-5.1706
X2.2769Y-5.2625
X2.2769Y-7.4265
X2.2769Y-7.5184
X2.3228Y-5.1516
X2.3228Y-5.2815
X2.3228Y-7.4075
X2.3228Y-7.5374
X2.3688Y-5.1706
X2.3688Y-5.2625
X2.3688Y-7.4265
X2.3688Y-7.5184
X2.3878Y-5.2165
X2.3878Y-7.4724
X3.8527Y-6.4951
X3.8693Y-6.542
X3.8741Y-6.4503
X3.9142Y-6.5634
X3.921Y-6.4337
X3.9611Y-6.5468
X3.9659Y-6.4551
X3.9825Y-6.5019
X5.4607Y-5.2846
X5.4765Y-5.3317
X5.4829Y-5.2401
X5.5209Y-5.3539
X5.53Y-5.2243
X5.5681Y-5.3381
X5.5745Y-5.2465
X5.5903Y-5.2936
X6.0735Y-7.7686
X6.0765Y-7.8182
X6.1064Y-7.7313
X6.1138Y-7.8511
X6.1561Y-7.7283
X6.1634Y-7.8481
X6.1933Y-7.7612
X6.1963Y-7.8109
T2
X6.6015Y-6.4347
X6.6271Y-6.3603
T3
X1.8185Y-4.685
X1.8185Y-5.4331
X1.8185Y-6.1811
X1.8185Y-6.9291
X1.8185Y-7.6772
X2.1185Y-4.685
X2.1185Y-5.4331
X2.1185Y-6.1811
X2.1185Y-6.9291
X2.1185Y-7.6772
X2.57Y-7.4777
X2.583Y-6.7298
X2.5961Y-5.9819
X2.6092Y-5.234
X2.6222Y-4.4861
X2.8699Y-7.483
X2.883Y-6.735
X2.8961Y-5.9871
X2.9091Y-5.2392
X2.9222Y-4.4913
X3.3242Y-7.3308
X3.3503Y-6.5832
X3.3764Y-5.8356
X3.4025Y-5.0881
X3.4286Y-4.3405
X3.624Y-7.3413
X3.6501Y-6.5937
X3.6762Y-5.8461
X3.7023Y-5.0985
X3.7284Y-4.351
X4.0712Y-7.4725
X4.1103Y-6.7255
X4.1495Y-5.9785
X4.1886Y-5.2315
X4.2278Y-4.4845
X4.3708Y-7.4882
X4.4099Y-6.7412
X4.449Y-5.9942
X4.4882Y-5.2472
X4.5273Y-4.5002
X4.8636Y-6.9596
X4.9158Y-6.2134
X4.968Y-5.4672
X5.0202Y-4.721
X5.1629Y-6.9805
X5.1756Y-7.8175
X5.2151Y-6.2343
X5.2673Y-5.4881
X5.3194Y-4.7419
X5.4592Y-7.9151
X5.6098Y-7.0118
X5.662Y-6.2656
X5.7142Y-5.5194
X5.7664Y-4.7731
X5.8829Y-8.061
X5.9091Y-7.0327
X5.9613Y-6.2865
X6.0135Y-5.5403
X6.0657Y-4.7941
X6.1665Y-8.1587
T4
X6.4045Y-5.9137
X6.4115Y-5.814
X6.4185Y-5.7142
X6.4254Y-5.6145
X6.4324Y-5.5147
X6.4394Y-5.415
X6.4464Y-5.3152
X6.4533Y-5.2155
X6.4603Y-5.1157
X6.4673Y-5.0159
X6.4743Y-4.9162
X6.4812Y-4.8164
X6.5182Y-5.7212
X6.618Y-5.7282
X6.7177Y-5.7352
X7.0031Y-5.9556
X7.01Y-5.8558
X7.017Y-5.7561
X7.024Y-5.6563
X7.031Y-5.5566
X7.0379Y-5.4568
X7.0449Y-5.3571
X7.0519Y-5.2573
X7.0589Y-5.1575
X7.0658Y-5.0578
X7.0728Y-4.958
X7.0798Y-4.8583
T5
X2.3228Y-5.2165
X2.3228Y-7.4724
X3.9176Y-6.4985
X5.5255Y-5.2891
X6.1349Y-7.7897
M30
