%TF.GenerationSoftware,KiCad,Pcbnew,8.0.4*%
%TF.CreationDate,2024-08-23T21:57:30-04:00*%
%TF.ProjectId,left,6c656674-2e6b-4696-9361-645f70636258,v1.0.0*%
%TF.SameCoordinates,Original*%
%TF.FileFunction,Paste,Top*%
%TF.FilePolarity,Positive*%
%FSLAX46Y46*%
G04 Gerber Fmt 4.6, Leading zero omitted, Abs format (unit mm)*
G04 Created by KiCad (PCBNEW 8.0.4) date 2024-08-23 21:57:30*
%MOMM*%
%LPD*%
G01*
G04 APERTURE LIST*
G04 Aperture macros list*
%AMRotRect*
0 Rectangle, with rotation*
0 The origin of the aperture is its center*
0 $1 length*
0 $2 width*
0 $3 Rotation angle, in degrees counterclockwise*
0 Add horizontal line*
21,1,$1,$2,0,0,$3*%
G04 Aperture macros list end*
%ADD10RotRect,0.900000X1.200000X359.000000*%
%ADD11RotRect,0.900000X1.200000X357.000000*%
%ADD12RotRect,0.900000X1.200000X358.000000*%
%ADD13RotRect,0.900000X1.200000X356.000000*%
%ADD14R,0.900000X1.200000*%
%ADD15RotRect,0.900000X1.200000X341.000000*%
G04 APERTURE END LIST*
D10*
%TO.C,D8*%
X68100704Y-151977753D03*
X71400202Y-152035345D03*
%TD*%
D11*
%TO.C,D18*%
X107553350Y-151966044D03*
X110848828Y-152138752D03*
%TD*%
D12*
%TO.C,D15*%
X89244780Y-110323964D03*
X92542770Y-110439132D03*
%TD*%
D11*
%TO.C,D17*%
X106558967Y-170940005D03*
X109854445Y-171112713D03*
%TD*%
D10*
%TO.C,D9*%
X68432300Y-132980647D03*
X71731798Y-133038239D03*
%TD*%
D13*
%TO.C,D26*%
X145970189Y-159296019D03*
X149262151Y-159526215D03*
%TD*%
%TO.C,D24*%
X129667218Y-120063212D03*
X132959180Y-120293408D03*
%TD*%
D12*
%TO.C,D11*%
X86592418Y-186277667D03*
X89890408Y-186392835D03*
%TD*%
D13*
%TO.C,D28*%
X148620935Y-121388585D03*
X151912897Y-121618781D03*
%TD*%
D14*
%TO.C,D5*%
X48350000Y-119000000D03*
X51650000Y-119000000D03*
%TD*%
D10*
%TO.C,D7*%
X67769109Y-170974859D03*
X71068607Y-171032451D03*
%TD*%
D12*
%TO.C,D14*%
X88581690Y-129312390D03*
X91879680Y-129427558D03*
%TD*%
D14*
%TO.C,D2*%
X48350000Y-176000000D03*
X51650000Y-176000000D03*
%TD*%
%TO.C,D4*%
X48350000Y-138000000D03*
X51650000Y-138000000D03*
%TD*%
D13*
%TO.C,D25*%
X144644816Y-178249736D03*
X147936778Y-178479932D03*
%TD*%
%TO.C,D22*%
X127016472Y-157970646D03*
X130308434Y-158200842D03*
%TD*%
D10*
%TO.C,D10*%
X68763896Y-113983541D03*
X72063394Y-114041133D03*
%TD*%
D14*
%TO.C,D1*%
X48350000Y-195000000D03*
X51650000Y-195000000D03*
%TD*%
D13*
%TO.C,D23*%
X128341845Y-139016929D03*
X131633807Y-139247125D03*
%TD*%
%TO.C,D21*%
X125691099Y-176924363D03*
X128983061Y-177154559D03*
%TD*%
D15*
%TO.C,D30*%
X151466755Y-205452758D03*
X154586967Y-206527132D03*
%TD*%
D13*
%TO.C,D27*%
X147295562Y-140342302D03*
X150587524Y-140572498D03*
%TD*%
D14*
%TO.C,D3*%
X48350000Y-157000000D03*
X51650000Y-157000000D03*
%TD*%
D11*
%TO.C,D16*%
X105564584Y-189913966D03*
X108860062Y-190086674D03*
%TD*%
%TO.C,D19*%
X108547733Y-132992083D03*
X111843211Y-133164791D03*
%TD*%
D15*
%TO.C,D29*%
X133501902Y-199266963D03*
X136622114Y-200341337D03*
%TD*%
D11*
%TO.C,D20*%
X109542117Y-114018121D03*
X112837595Y-114190829D03*
%TD*%
D12*
%TO.C,D13*%
X87918599Y-148300815D03*
X91216589Y-148415983D03*
%TD*%
%TO.C,D12*%
X87255509Y-167289241D03*
X90553499Y-167404409D03*
%TD*%
D10*
%TO.C,D6*%
X67437513Y-189971966D03*
X70737011Y-190029558D03*
%TD*%
M02*
