%TF.GenerationSoftware,KiCad,Pcbnew,8.0.4*%
%TF.CreationDate,2024-08-23T21:57:30-04:00*%
%TF.ProjectId,left,6c656674-2e6b-4696-9361-645f70636258,v1.0.0*%
%TF.SameCoordinates,Original*%
%TF.FileFunction,Soldermask,Bot*%
%TF.FilePolarity,Negative*%
%FSLAX46Y46*%
G04 Gerber Fmt 4.6, Leading zero omitted, Abs format (unit mm)*
G04 Created by KiCad (PCBNEW 8.0.4) date 2024-08-23 21:57:30*
%MOMM*%
%LPD*%
G01*
G04 APERTURE LIST*
G04 Aperture macros list*
%AMRoundRect*
0 Rectangle with rounded corners*
0 $1 Rounding radius*
0 $2 $3 $4 $5 $6 $7 $8 $9 X,Y pos of 4 corners*
0 Add a 4 corners polygon primitive as box body*
4,1,4,$2,$3,$4,$5,$6,$7,$8,$9,$2,$3,0*
0 Add four circle primitives for the rounded corners*
1,1,$1+$1,$2,$3*
1,1,$1+$1,$4,$5*
1,1,$1+$1,$6,$7*
1,1,$1+$1,$8,$9*
0 Add four rect primitives between the rounded corners*
20,1,$1+$1,$2,$3,$4,$5,0*
20,1,$1+$1,$4,$5,$6,$7,0*
20,1,$1+$1,$6,$7,$8,$9,0*
20,1,$1+$1,$8,$9,$2,$3,0*%
%AMHorizOval*
0 Thick line with rounded ends*
0 $1 width*
0 $2 $3 position (X,Y) of the first rounded end (center of the circle)*
0 $4 $5 position (X,Y) of the second rounded end (center of the circle)*
0 Add line between two ends*
20,1,$1,$2,$3,$4,$5,0*
0 Add two circle primitives to create the rounded ends*
1,1,$1,$2,$3*
1,1,$1,$4,$5*%
G04 Aperture macros list end*
%ADD10RoundRect,0.050000X-0.278978X0.571989X-0.571989X-0.278978X0.278978X-0.571989X0.571989X0.278978X0*%
%ADD11C,1.100000*%
%ADD12RoundRect,0.050000X-0.444443X0.628963X-0.737455X-0.222003X0.444443X-0.628963X0.737455X0.222003X0*%
%ADD13RoundRect,0.050000X-0.904380X-0.873349X0.873349X-0.904380X0.904380X0.873349X-0.873349X0.904380X0*%
%ADD14RoundRect,0.050000X-0.460403X-0.592055X0.439460X-0.607762X0.460403X0.592055X-0.439460X0.607762X0*%
%ADD15C,2.005000*%
%ADD16RoundRect,0.050000X-0.934308X-0.841255X0.841255X-0.934308X0.934308X0.841255X-0.841255X0.934308X0*%
%ADD17RoundRect,0.050000X-0.480785X-0.575627X0.417982X-0.622729X0.480785X0.575627X-0.417982X0.622729X0*%
%ADD18C,1.801800*%
%ADD19C,3.100000*%
%ADD20C,3.529000*%
%ADD21RoundRect,0.050000X1.387517X1.206150X-1.206150X1.387517X-1.387517X-1.206150X1.206150X-1.387517X0*%
%ADD22RoundRect,0.050000X-0.608350X0.844044X-0.999032X-0.290578X0.608350X-0.844044X0.999032X0.290578X0*%
%ADD23HorizOval,1.300000X-0.236380X0.081392X0.236380X-0.081392X0*%
%ADD24RoundRect,0.050000X-0.919484X-0.857433X0.857433X-0.919484X0.919484X0.857433X-0.857433X0.919484X0*%
%ADD25RoundRect,0.050000X-0.470666X-0.583930X0.428786X-0.615339X0.470666X0.583930X-0.428786X0.615339X0*%
%ADD26C,0.850000*%
%ADD27RoundRect,0.050000X-0.220444X0.895561X-0.725075X-0.569993X0.220444X-0.895561X0.725075X0.569993X0*%
%ADD28RoundRect,0.050000X-0.948848X-0.824821X0.824821X-0.948848X0.948848X0.824821X-0.824821X0.948848X0*%
%ADD29RoundRect,0.050000X-0.490758X-0.567148X0.407050X-0.629929X0.490758X0.567148X-0.407050X0.629929X0*%
%ADD30RoundRect,0.050000X1.344577X1.253839X-1.253839X1.344577X-1.344577X-1.253839X1.253839X-1.344577X0*%
%ADD31RoundRect,0.050000X1.300000X1.300000X-1.300000X1.300000X-1.300000X-1.300000X1.300000X-1.300000X0*%
%ADD32RoundRect,0.050000X-0.889000X-0.889000X0.889000X-0.889000X0.889000X0.889000X-0.889000X0.889000X0*%
%ADD33RoundRect,0.050000X-0.450000X-0.600000X0.450000X-0.600000X0.450000X0.600000X-0.450000X0.600000X0*%
%ADD34RoundRect,0.050000X1.366255X1.230182X-1.230182X1.366255X-1.366255X-1.230182X1.230182X-1.366255X0*%
%ADD35C,0.800000*%
%ADD36C,4.500000*%
%ADD37RoundRect,0.050000X1.322490X1.277114X-1.277114X1.322490X-1.322490X-1.277114X1.277114X-1.322490X0*%
%ADD38RoundRect,0.050000X-1.129996X-0.551136X0.551136X-1.129996X1.129996X0.551136X-0.551136X1.129996X0*%
%ADD39RoundRect,0.050000X-0.620824X-0.420805X0.230142X-0.713817X0.620824X0.420805X-0.230142X0.713817X0*%
%ADD40C,1.852600*%
%ADD41RoundRect,0.050000X1.652413X0.805936X-0.805936X1.652413X-1.652413X-0.805936X0.805936X-1.652413X0*%
G04 APERTURE END LIST*
D10*
%TO.C,T1*%
X178715801Y-156877742D03*
X176635660Y-156161492D03*
D11*
X176959480Y-158599758D03*
X175982776Y-161436314D03*
D10*
X176306596Y-163874580D03*
X174226455Y-163158330D03*
D12*
X175241705Y-157215065D03*
X174265001Y-160051621D03*
X173776649Y-161469899D03*
%TD*%
D13*
%TO.C,D8*%
X65941033Y-151940055D03*
D14*
X68100704Y-151977753D03*
X71400202Y-152035345D03*
D15*
X73559873Y-152073043D03*
%TD*%
D16*
%TO.C,D18*%
X105396310Y-151852998D03*
D17*
X107553350Y-151966044D03*
X110848828Y-152138752D03*
D15*
X113005868Y-152251798D03*
%TD*%
D18*
%TO.C,S24*%
X136451018Y-125549792D03*
D19*
X130549365Y-131101637D03*
D20*
X130964416Y-125166131D03*
D19*
X125715009Y-128558214D03*
D18*
X125477814Y-124782470D03*
D21*
X133816387Y-131330090D03*
X122447987Y-128329761D03*
%TD*%
D22*
%TO.C,JST1*%
X168328564Y-161550571D03*
D23*
X167677428Y-163441609D03*
%TD*%
D24*
%TO.C,D15*%
X87086096Y-110248581D03*
D25*
X89244780Y-110323964D03*
X92542770Y-110439132D03*
D15*
X94701454Y-110514515D03*
%TD*%
D26*
%TO.C,B1*%
X175578120Y-169599302D03*
X172977944Y-168703990D03*
D27*
X175936339Y-166946393D03*
X174227106Y-171910365D03*
X174328958Y-166392927D03*
X172619725Y-171356899D03*
%TD*%
D16*
%TO.C,D17*%
X104401927Y-170826959D03*
D17*
X106558967Y-170940005D03*
X109854445Y-171112713D03*
D15*
X112011485Y-171225759D03*
%TD*%
D13*
%TO.C,D9*%
X66272629Y-132942949D03*
D14*
X68432300Y-132980647D03*
X71731798Y-133038239D03*
D15*
X73891469Y-133075937D03*
%TD*%
D18*
%TO.C,S23*%
X135125645Y-144503509D03*
D19*
X129223992Y-150055354D03*
D20*
X129639043Y-144119848D03*
D19*
X124389636Y-147511931D03*
D18*
X124152441Y-143736187D03*
D21*
X132491014Y-150283807D03*
X121122614Y-147283478D03*
%TD*%
D28*
%TO.C,D26*%
X143815451Y-159145345D03*
D29*
X145970189Y-159296019D03*
X149262151Y-159526215D03*
D15*
X151416889Y-159676889D03*
%TD*%
D18*
%TO.C,S11*%
X93563566Y-191524152D03*
D19*
X87859264Y-197278580D03*
D20*
X88066916Y-191332205D03*
D19*
X82939089Y-194905423D03*
D18*
X82570266Y-191140258D03*
D30*
X91132269Y-197392876D03*
X79666084Y-194791127D03*
%TD*%
D28*
%TO.C,D24*%
X127512480Y-119912538D03*
D29*
X129667218Y-120063212D03*
X132959180Y-120293408D03*
D15*
X135113918Y-120444082D03*
%TD*%
D18*
%TO.C,S2*%
X55500000Y-181000000D03*
D19*
X50000000Y-186950000D03*
D20*
X50000000Y-181000000D03*
D19*
X45000000Y-184750000D03*
D18*
X44500000Y-181000000D03*
D31*
X53275000Y-186950000D03*
X41725000Y-184750000D03*
%TD*%
D18*
%TO.C,S4*%
X55500000Y-143000000D03*
D19*
X50000000Y-148950000D03*
D20*
X50000000Y-143000000D03*
D19*
X45000000Y-146750000D03*
D18*
X44500000Y-143000000D03*
D31*
X53275000Y-148950000D03*
X41725000Y-146750000D03*
%TD*%
D24*
%TO.C,D11*%
X84433734Y-186202284D03*
D25*
X86592418Y-186277667D03*
X89890408Y-186392835D03*
D15*
X92049092Y-186468218D03*
%TD*%
D28*
%TO.C,D28*%
X146466197Y-121237911D03*
D29*
X148620935Y-121388585D03*
X151912897Y-121618781D03*
D15*
X154067635Y-121769455D03*
%TD*%
D32*
%TO.C,D5*%
X46190000Y-119000000D03*
D33*
X48350000Y-119000000D03*
X51650000Y-119000000D03*
D15*
X53810000Y-119000000D03*
%TD*%
D13*
%TO.C,D7*%
X65609438Y-170937161D03*
D14*
X67769109Y-170974859D03*
X71068607Y-171032451D03*
D15*
X73228278Y-171070149D03*
%TD*%
D24*
%TO.C,D14*%
X86423006Y-129237007D03*
D25*
X88581690Y-129312390D03*
X91879680Y-129427558D03*
D15*
X94038364Y-129502941D03*
%TD*%
D18*
%TO.C,S18*%
X114431871Y-157333393D03*
D19*
X108628010Y-162987391D03*
D20*
X108939409Y-157045545D03*
D19*
X103750001Y-160528726D03*
D18*
X103446947Y-156757697D03*
D34*
X111898522Y-163158791D03*
X100479490Y-160357326D03*
%TD*%
D32*
%TO.C,D2*%
X46190000Y-176000000D03*
D33*
X48350000Y-176000000D03*
X51650000Y-176000000D03*
D15*
X53810000Y-176000000D03*
%TD*%
D18*
%TO.C,S28*%
X155404735Y-126875165D03*
D19*
X149503082Y-132427010D03*
D20*
X149918133Y-126491504D03*
D19*
X144668726Y-129883587D03*
D18*
X144431531Y-126107843D03*
D21*
X152770104Y-132655463D03*
X141401704Y-129655134D03*
%TD*%
D32*
%TO.C,D4*%
X46190000Y-138000000D03*
D33*
X48350000Y-138000000D03*
X51650000Y-138000000D03*
D15*
X53810000Y-138000000D03*
%TD*%
D18*
%TO.C,S19*%
X115426255Y-138359432D03*
D19*
X109622394Y-144013430D03*
D20*
X109933793Y-138071584D03*
D19*
X104744385Y-141554765D03*
D18*
X104441331Y-137783736D03*
D34*
X112892906Y-144184830D03*
X101473874Y-141383365D03*
%TD*%
D18*
%TO.C,S27*%
X154079362Y-145828882D03*
D19*
X148177709Y-151380727D03*
D20*
X148592760Y-145445221D03*
D19*
X143343353Y-148837304D03*
D18*
X143106158Y-145061560D03*
D21*
X151444731Y-151609180D03*
X140076331Y-148608851D03*
%TD*%
D28*
%TO.C,D25*%
X142490078Y-178099062D03*
D29*
X144644816Y-178249736D03*
X147936778Y-178479932D03*
D15*
X150091516Y-178630606D03*
%TD*%
D28*
%TO.C,D22*%
X124861734Y-157819972D03*
D29*
X127016472Y-157970646D03*
X130308434Y-158200842D03*
D15*
X132463172Y-158351516D03*
%TD*%
D18*
%TO.C,S17*%
X113437488Y-176307355D03*
D19*
X107633627Y-181961353D03*
D20*
X107945026Y-176019507D03*
D19*
X102755618Y-179502688D03*
D18*
X102452564Y-175731659D03*
D34*
X110904139Y-182132753D03*
X99485107Y-179331288D03*
%TD*%
D13*
%TO.C,D10*%
X66604225Y-113945843D03*
D14*
X68763896Y-113983541D03*
X72063394Y-114041133D03*
D15*
X74223065Y-114078831D03*
%TD*%
D18*
%TO.C,S1*%
X55500000Y-200000000D03*
D19*
X50000000Y-205950000D03*
D20*
X50000000Y-200000000D03*
D19*
X45000000Y-203750000D03*
D18*
X44500000Y-200000000D03*
D31*
X53275000Y-205950000D03*
X41725000Y-203750000D03*
%TD*%
D18*
%TO.C,S16*%
X112443105Y-195281316D03*
D19*
X106639244Y-200935314D03*
D20*
X106950643Y-194993468D03*
D19*
X101761235Y-198476649D03*
D18*
X101458181Y-194705620D03*
D34*
X109909756Y-201106714D03*
X98490724Y-198305249D03*
%TD*%
D32*
%TO.C,D1*%
X46190000Y-195000000D03*
D33*
X48350000Y-195000000D03*
X51650000Y-195000000D03*
D15*
X53810000Y-195000000D03*
%TD*%
D28*
%TO.C,D23*%
X126187107Y-138866255D03*
D29*
X128341845Y-139016929D03*
X131633807Y-139247125D03*
D15*
X133788545Y-139397799D03*
%TD*%
D35*
%TO.C,_4*%
X138701146Y-134227892D03*
X139264630Y-133097719D03*
X139101856Y-135425487D03*
X140462225Y-132697009D03*
D36*
X140347127Y-134342990D03*
D35*
X140232029Y-135988971D03*
X141592398Y-133260493D03*
X141429624Y-135588261D03*
X141993108Y-134458088D03*
%TD*%
%TO.C,_2*%
X57350000Y-189800000D03*
X57833274Y-188633274D03*
X57833274Y-190966726D03*
X59000000Y-188150000D03*
D36*
X59000000Y-189800000D03*
D35*
X59000000Y-191450000D03*
X60166726Y-188633274D03*
X60166726Y-190966726D03*
X60650000Y-189800000D03*
%TD*%
D28*
%TO.C,D21*%
X123536361Y-176773689D03*
D29*
X125691099Y-176924363D03*
X128983061Y-177154559D03*
D15*
X131137799Y-177305233D03*
%TD*%
D18*
%TO.C,S13*%
X94889747Y-153547301D03*
D19*
X89185445Y-159301729D03*
D20*
X89393097Y-153355354D03*
D19*
X84265270Y-156928572D03*
D18*
X83896447Y-153163407D03*
D30*
X92458450Y-159416025D03*
X80992265Y-156814276D03*
%TD*%
D18*
%TO.C,S22*%
X133800272Y-163457226D03*
D19*
X127898619Y-169009071D03*
D20*
X128313670Y-163073565D03*
D19*
X123064263Y-166465648D03*
D18*
X122827068Y-162689904D03*
D21*
X131165641Y-169237524D03*
X119797241Y-166237195D03*
%TD*%
D18*
%TO.C,S9*%
X75493949Y-138104669D03*
D19*
X69890945Y-143957775D03*
D20*
X69994787Y-138008681D03*
D19*
X64930102Y-141670848D03*
D18*
X64495625Y-137912693D03*
D37*
X73165446Y-144014931D03*
X61655601Y-141613691D03*
%TD*%
D38*
%TO.C,D30*%
X149424435Y-204749530D03*
D39*
X151466755Y-205452758D03*
X154586967Y-206527132D03*
D15*
X156629287Y-207230360D03*
%TD*%
D28*
%TO.C,D27*%
X145140824Y-140191628D03*
D29*
X147295562Y-140342302D03*
X150587524Y-140572498D03*
D15*
X152742262Y-140723172D03*
%TD*%
D35*
%TO.C,_3*%
X97859149Y-164976519D03*
X98402823Y-163836684D03*
X98280699Y-166166938D03*
X99593242Y-163415134D03*
D36*
X99506888Y-165062873D03*
D35*
X99420534Y-166710612D03*
X100733077Y-163958808D03*
X100610953Y-166289062D03*
X101154627Y-165149227D03*
%TD*%
D18*
%TO.C,S15*%
X96215927Y-115570449D03*
D19*
X90511625Y-121324877D03*
D20*
X90719277Y-115378502D03*
D19*
X85591450Y-118951720D03*
D18*
X85222627Y-115186555D03*
D30*
X93784630Y-121439173D03*
X82318445Y-118837424D03*
%TD*%
D35*
%TO.C,_1*%
X57350000Y-132500000D03*
X57833274Y-131333274D03*
X57833274Y-133666726D03*
X59000000Y-130850000D03*
D36*
X59000000Y-132500000D03*
D35*
X59000000Y-134150000D03*
X60166726Y-131333274D03*
X60166726Y-133666726D03*
X60650000Y-132500000D03*
%TD*%
D18*
%TO.C,S6*%
X74499162Y-195095988D03*
D19*
X68896158Y-200949094D03*
D20*
X69000000Y-195000000D03*
D19*
X63935315Y-198662167D03*
D18*
X63500838Y-194904012D03*
D37*
X72170659Y-201006250D03*
X60660814Y-198605010D03*
%TD*%
D32*
%TO.C,D3*%
X46190000Y-157000000D03*
D33*
X48350000Y-157000000D03*
X51650000Y-157000000D03*
D15*
X53810000Y-157000000D03*
%TD*%
D18*
%TO.C,S5*%
X55500000Y-124000000D03*
D19*
X50000000Y-129950000D03*
D20*
X50000000Y-124000000D03*
D19*
X45000000Y-127750000D03*
D18*
X44500000Y-124000000D03*
D31*
X53275000Y-129950000D03*
X41725000Y-127750000D03*
%TD*%
D35*
%TO.C,_5*%
X154266641Y-197321298D03*
X155103435Y-196375475D03*
X154343737Y-198581797D03*
X156363934Y-196298379D03*
D36*
X155826747Y-197858485D03*
D35*
X155289560Y-199418591D03*
X157309757Y-197135173D03*
X156550059Y-199341495D03*
X157386853Y-198395672D03*
%TD*%
D18*
%TO.C,S8*%
X75162353Y-157101776D03*
D19*
X69559349Y-162954882D03*
D20*
X69663191Y-157005788D03*
D19*
X64598506Y-160667955D03*
D18*
X64164029Y-156909800D03*
D37*
X72833850Y-163012038D03*
X61324005Y-160610798D03*
%TD*%
D40*
%TO.C,MCU1*%
X164623746Y-122337196D03*
X164446564Y-124871009D03*
X164269383Y-127404821D03*
X164092202Y-129938634D03*
X163915020Y-132472447D03*
X163737839Y-135006259D03*
X163560657Y-137540072D03*
X163383476Y-140073885D03*
X163206294Y-142607697D03*
X163029113Y-145141510D03*
X162851931Y-147675323D03*
X162674750Y-150209135D03*
X177877626Y-151272224D03*
X178054808Y-148738411D03*
X178231989Y-146204599D03*
X178409170Y-143670786D03*
X178586352Y-141136973D03*
X178763533Y-138603161D03*
X178940715Y-136069348D03*
X179117896Y-133535535D03*
X179295078Y-131001723D03*
X179472259Y-128467910D03*
X179649441Y-125934097D03*
X179826622Y-123400285D03*
X165562926Y-145318692D03*
X168096738Y-145495873D03*
X170630551Y-145673054D03*
%TD*%
D16*
%TO.C,D16*%
X103407544Y-189800920D03*
D17*
X105564584Y-189913966D03*
X108860062Y-190086674D03*
D15*
X111017102Y-190199720D03*
%TD*%
D16*
%TO.C,D19*%
X106390693Y-132879037D03*
D17*
X108547733Y-132992083D03*
X111843211Y-133164791D03*
D15*
X114000251Y-133277837D03*
%TD*%
D18*
%TO.C,S29*%
X138634519Y-206322368D03*
D19*
X131497036Y-210157579D03*
D20*
X133434167Y-204531743D03*
D19*
X127485694Y-206449597D03*
D18*
X128233815Y-202741118D03*
D41*
X134593610Y-211223814D03*
X124389120Y-205383361D03*
%TD*%
D18*
%TO.C,S26*%
X152753989Y-164782599D03*
D19*
X146852336Y-170334444D03*
D20*
X147267387Y-164398938D03*
D19*
X142017980Y-167791021D03*
D18*
X141780785Y-164015277D03*
D21*
X150119358Y-170562897D03*
X138750958Y-167562568D03*
%TD*%
D18*
%TO.C,S3*%
X55500000Y-162000000D03*
D19*
X50000000Y-167950000D03*
D20*
X50000000Y-162000000D03*
D19*
X45000000Y-165750000D03*
D18*
X44500000Y-162000000D03*
D31*
X53275000Y-167950000D03*
X41725000Y-165750000D03*
%TD*%
D38*
%TO.C,D29*%
X131459582Y-198563735D03*
D39*
X133501902Y-199266963D03*
X136622114Y-200341337D03*
D15*
X138664434Y-201044565D03*
%TD*%
D18*
%TO.C,S20*%
X116420638Y-119385471D03*
D19*
X110616777Y-125039469D03*
D20*
X110928176Y-119097623D03*
D19*
X105738768Y-122580804D03*
D18*
X105435714Y-118809775D03*
D34*
X113887289Y-125210869D03*
X102468257Y-122409404D03*
%TD*%
D16*
%TO.C,D20*%
X107385077Y-113905075D03*
D17*
X109542117Y-114018121D03*
X112837595Y-114190829D03*
D15*
X114994635Y-114303875D03*
%TD*%
D18*
%TO.C,S10*%
X75825545Y-119107563D03*
D19*
X70222541Y-124960669D03*
D20*
X70326383Y-119011575D03*
D19*
X65261698Y-122673742D03*
D18*
X64827221Y-118915587D03*
D37*
X73497042Y-125017825D03*
X61987197Y-122616585D03*
%TD*%
D18*
%TO.C,S14*%
X95552837Y-134558875D03*
D19*
X89848535Y-140313303D03*
D20*
X90056187Y-134366928D03*
D19*
X84928360Y-137940146D03*
D18*
X84559537Y-134174981D03*
D30*
X93121540Y-140427599D03*
X81655355Y-137825850D03*
%TD*%
D24*
%TO.C,D13*%
X85759915Y-148225432D03*
D25*
X87918599Y-148300815D03*
X91216589Y-148415983D03*
D15*
X93375273Y-148491366D03*
%TD*%
D18*
%TO.C,S7*%
X74830758Y-176098882D03*
D19*
X69227754Y-181951988D03*
D20*
X69331596Y-176002894D03*
D19*
X64266911Y-179665061D03*
D18*
X63832434Y-175906906D03*
D37*
X72502255Y-182009144D03*
X60992410Y-179607904D03*
%TD*%
D24*
%TO.C,D12*%
X85096825Y-167213858D03*
D25*
X87255509Y-167289241D03*
X90553499Y-167404409D03*
D15*
X92712183Y-167479792D03*
%TD*%
D18*
%TO.C,S12*%
X94226656Y-172535726D03*
D19*
X88522354Y-178290154D03*
D20*
X88730006Y-172343779D03*
D19*
X83602179Y-175916997D03*
D18*
X83233356Y-172151832D03*
D30*
X91795359Y-178404450D03*
X80329174Y-175802701D03*
%TD*%
D18*
%TO.C,S21*%
X132474899Y-182410943D03*
D19*
X126573246Y-187962788D03*
D20*
X126988297Y-182027282D03*
D19*
X121738890Y-185419365D03*
D18*
X121501695Y-181643621D03*
D21*
X129840268Y-188191241D03*
X118471868Y-185190912D03*
%TD*%
D13*
%TO.C,D6*%
X65277842Y-189934268D03*
D14*
X67437513Y-189971966D03*
X70737011Y-190029558D03*
D15*
X72896682Y-190067256D03*
%TD*%
D18*
%TO.C,S30*%
X156599372Y-212508162D03*
D19*
X149461889Y-216343373D03*
D20*
X151399020Y-210717537D03*
D19*
X145450547Y-212635391D03*
D18*
X146198668Y-208926912D03*
D41*
X152558463Y-217409608D03*
X142353973Y-211569155D03*
%TD*%
D18*
%TO.C,S25*%
X151428616Y-183736316D03*
D19*
X145526963Y-189288161D03*
D20*
X145942014Y-183352655D03*
D19*
X140692607Y-186744738D03*
D18*
X140455412Y-182968994D03*
D21*
X148793985Y-189516614D03*
X137425585Y-186516285D03*
%TD*%
M02*
