%TF.GenerationSoftware,KiCad,Pcbnew,8.0.4*%
%TF.CreationDate,2024-08-23T21:57:30-04:00*%
%TF.ProjectId,left,6c656674-2e6b-4696-9361-645f70636258,v1.0.0*%
%TF.SameCoordinates,Original*%
%TF.FileFunction,Legend,Bot*%
%TF.FilePolarity,Positive*%
%FSLAX46Y46*%
G04 Gerber Fmt 4.6, Leading zero omitted, Abs format (unit mm)*
G04 Created by KiCad (PCBNEW 8.0.4) date 2024-08-23 21:57:30*
%MOMM*%
%LPD*%
G01*
G04 APERTURE LIST*
%ADD10C,0.150000*%
%ADD11C,0.100000*%
%ADD12C,0.120000*%
%ADD13C,0.381000*%
%ADD14C,1.752600*%
G04 APERTURE END LIST*
D10*
X166639275Y-134840544D02*
X166563270Y-134835229D01*
X166563270Y-134835229D02*
X166484608Y-134867917D01*
X166484608Y-134867917D02*
X166443948Y-134903262D01*
X166443948Y-134903262D02*
X166400631Y-134976610D01*
X166400631Y-134976610D02*
X166351999Y-135125962D01*
X166351999Y-135125962D02*
X166338712Y-135315974D01*
X166338712Y-135315974D02*
X166366085Y-135470641D01*
X166366085Y-135470641D02*
X166398773Y-135549304D01*
X166398773Y-135549304D02*
X166434118Y-135589963D01*
X166434118Y-135589963D02*
X166507465Y-135633281D01*
X166507465Y-135633281D02*
X166583470Y-135638595D01*
X166583470Y-135638595D02*
X166662132Y-135605908D01*
X166662132Y-135605908D02*
X166702792Y-135570563D01*
X166702792Y-135570563D02*
X166746109Y-135497215D01*
X166746109Y-135497215D02*
X166794741Y-135347863D01*
X166794741Y-135347863D02*
X166808028Y-135157851D01*
X166808028Y-135157851D02*
X166780656Y-135003183D01*
X166780656Y-135003183D02*
X166747968Y-134924521D01*
X166747968Y-134924521D02*
X166712623Y-134883861D01*
X166712623Y-134883861D02*
X166639275Y-134840544D01*
X166063924Y-134876688D02*
X166028579Y-134836028D01*
X166028579Y-134836028D02*
X165955231Y-134792711D01*
X165955231Y-134792711D02*
X165765219Y-134779424D01*
X165765219Y-134779424D02*
X165686557Y-134812112D01*
X165686557Y-134812112D02*
X165645897Y-134847457D01*
X165645897Y-134847457D02*
X165602580Y-134920804D01*
X165602580Y-134920804D02*
X165597265Y-134996809D01*
X165597265Y-134996809D02*
X165627295Y-135113474D01*
X165627295Y-135113474D02*
X166051436Y-135601392D01*
X166051436Y-135601392D02*
X165557404Y-135566846D01*
X165119177Y-134734249D02*
X165043172Y-134728934D01*
X165043172Y-134728934D02*
X164964510Y-134761621D01*
X164964510Y-134761621D02*
X164923850Y-134796966D01*
X164923850Y-134796966D02*
X164880533Y-134870314D01*
X164880533Y-134870314D02*
X164831901Y-135019666D01*
X164831901Y-135019666D02*
X164818614Y-135209679D01*
X164818614Y-135209679D02*
X164845987Y-135364346D01*
X164845987Y-135364346D02*
X164878675Y-135443008D01*
X164878675Y-135443008D02*
X164914020Y-135483668D01*
X164914020Y-135483668D02*
X164987367Y-135526985D01*
X164987367Y-135526985D02*
X165063372Y-135532300D01*
X165063372Y-135532300D02*
X165142034Y-135499612D01*
X165142034Y-135499612D02*
X165182694Y-135464267D01*
X165182694Y-135464267D02*
X165226011Y-135390920D01*
X165226011Y-135390920D02*
X165274643Y-135241567D01*
X165274643Y-135241567D02*
X165287930Y-135051555D01*
X165287930Y-135051555D02*
X165260557Y-134896888D01*
X165260557Y-134896888D02*
X165227870Y-134818226D01*
X165227870Y-134818226D02*
X165192525Y-134777566D01*
X165192525Y-134777566D02*
X165119177Y-134734249D01*
X166881855Y-129733120D02*
X166960518Y-129700432D01*
X166960518Y-129700432D02*
X167074525Y-129708404D01*
X167074525Y-129708404D02*
X167185875Y-129754379D01*
X167185875Y-129754379D02*
X167256565Y-129835698D01*
X167256565Y-129835698D02*
X167289253Y-129914361D01*
X167289253Y-129914361D02*
X167316625Y-130069028D01*
X167316625Y-130069028D02*
X167308653Y-130183035D01*
X167308653Y-130183035D02*
X167260021Y-130332387D01*
X167260021Y-130332387D02*
X167216704Y-130405735D01*
X167216704Y-130405735D02*
X167135384Y-130476425D01*
X167135384Y-130476425D02*
X167018720Y-130506455D01*
X167018720Y-130506455D02*
X166942715Y-130501141D01*
X166942715Y-130501141D02*
X166831365Y-130455166D01*
X166831365Y-130455166D02*
X166796020Y-130414506D01*
X166796020Y-130414506D02*
X166814622Y-130148489D01*
X166814622Y-130148489D02*
X166966631Y-130159119D01*
X166448683Y-130466594D02*
X166504488Y-129668543D01*
X166504488Y-129668543D02*
X165992654Y-130434706D01*
X165992654Y-130434706D02*
X166048459Y-129636655D01*
X165612630Y-130408132D02*
X165668435Y-129610081D01*
X165668435Y-129610081D02*
X165478423Y-129596794D01*
X165478423Y-129596794D02*
X165361758Y-129626824D01*
X165361758Y-129626824D02*
X165280438Y-129697514D01*
X165280438Y-129697514D02*
X165237121Y-129770862D01*
X165237121Y-129770862D02*
X165188489Y-129920214D01*
X165188489Y-129920214D02*
X165180517Y-130034221D01*
X165180517Y-130034221D02*
X165207890Y-130188888D01*
X165207890Y-130188888D02*
X165240577Y-130267551D01*
X165240577Y-130267551D02*
X165311268Y-130348870D01*
X165311268Y-130348870D02*
X165422617Y-130394845D01*
X165422617Y-130394845D02*
X165612630Y-130408132D01*
X177691562Y-135543225D02*
X177615557Y-135537910D01*
X177615557Y-135537910D02*
X177536895Y-135570598D01*
X177536895Y-135570598D02*
X177496235Y-135605943D01*
X177496235Y-135605943D02*
X177452918Y-135679291D01*
X177452918Y-135679291D02*
X177404286Y-135828643D01*
X177404286Y-135828643D02*
X177390999Y-136018655D01*
X177390999Y-136018655D02*
X177418372Y-136173322D01*
X177418372Y-136173322D02*
X177451060Y-136251985D01*
X177451060Y-136251985D02*
X177486405Y-136292644D01*
X177486405Y-136292644D02*
X177559752Y-136335962D01*
X177559752Y-136335962D02*
X177635757Y-136341276D01*
X177635757Y-136341276D02*
X177714419Y-136308589D01*
X177714419Y-136308589D02*
X177755079Y-136273244D01*
X177755079Y-136273244D02*
X177798396Y-136199896D01*
X177798396Y-136199896D02*
X177847028Y-136050544D01*
X177847028Y-136050544D02*
X177860315Y-135860532D01*
X177860315Y-135860532D02*
X177832943Y-135705864D01*
X177832943Y-135705864D02*
X177800255Y-135627202D01*
X177800255Y-135627202D02*
X177764910Y-135586542D01*
X177764910Y-135586542D02*
X177691562Y-135543225D01*
X177116211Y-135579369D02*
X177080866Y-135538709D01*
X177080866Y-135538709D02*
X177007518Y-135495392D01*
X177007518Y-135495392D02*
X176817506Y-135482105D01*
X176817506Y-135482105D02*
X176738844Y-135514793D01*
X176738844Y-135514793D02*
X176698184Y-135550138D01*
X176698184Y-135550138D02*
X176654867Y-135623485D01*
X176654867Y-135623485D02*
X176649552Y-135699490D01*
X176649552Y-135699490D02*
X176679582Y-135816155D01*
X176679582Y-135816155D02*
X177103723Y-136304073D01*
X177103723Y-136304073D02*
X176609691Y-136269527D01*
X176229666Y-136242953D02*
X176077657Y-136232323D01*
X176077657Y-136232323D02*
X176004309Y-136189006D01*
X176004309Y-136189006D02*
X175968964Y-136148346D01*
X175968964Y-136148346D02*
X175900931Y-136029024D01*
X175900931Y-136029024D02*
X175873559Y-135874357D01*
X175873559Y-135874357D02*
X175894818Y-135570338D01*
X175894818Y-135570338D02*
X175938135Y-135496990D01*
X175938135Y-135496990D02*
X175978795Y-135461645D01*
X175978795Y-135461645D02*
X176057457Y-135428957D01*
X176057457Y-135428957D02*
X176209467Y-135439587D01*
X176209467Y-135439587D02*
X176282814Y-135482904D01*
X176282814Y-135482904D02*
X176318159Y-135523564D01*
X176318159Y-135523564D02*
X176350847Y-135602226D01*
X176350847Y-135602226D02*
X176337560Y-135792238D01*
X176337560Y-135792238D02*
X176294243Y-135865586D01*
X176294243Y-135865586D02*
X176253583Y-135900931D01*
X176253583Y-135900931D02*
X176174921Y-135933619D01*
X176174921Y-135933619D02*
X176022911Y-135922989D01*
X176022911Y-135922989D02*
X175949563Y-135879672D01*
X175949563Y-135879672D02*
X175914218Y-135839012D01*
X175914218Y-135839012D02*
X175881531Y-135760350D01*
X165790792Y-143151603D02*
X166246821Y-143183491D01*
X166018807Y-143167547D02*
X166074612Y-142369496D01*
X166074612Y-142369496D02*
X166142645Y-142488818D01*
X166142645Y-142488818D02*
X166213335Y-142570138D01*
X166213335Y-142570138D02*
X166286682Y-142613455D01*
X165352565Y-142319005D02*
X165276560Y-142313691D01*
X165276560Y-142313691D02*
X165197898Y-142346378D01*
X165197898Y-142346378D02*
X165157238Y-142381723D01*
X165157238Y-142381723D02*
X165113921Y-142455071D01*
X165113921Y-142455071D02*
X165065289Y-142604423D01*
X165065289Y-142604423D02*
X165052002Y-142794435D01*
X165052002Y-142794435D02*
X165079375Y-142949102D01*
X165079375Y-142949102D02*
X165112063Y-143027765D01*
X165112063Y-143027765D02*
X165147408Y-143068425D01*
X165147408Y-143068425D02*
X165220755Y-143111742D01*
X165220755Y-143111742D02*
X165296760Y-143117057D01*
X165296760Y-143117057D02*
X165375422Y-143084369D01*
X165375422Y-143084369D02*
X165416082Y-143049024D01*
X165416082Y-143049024D02*
X165459399Y-142975676D01*
X165459399Y-142975676D02*
X165508031Y-142826324D01*
X165508031Y-142826324D02*
X165521318Y-142636312D01*
X165521318Y-142636312D02*
X165493946Y-142481645D01*
X165493946Y-142481645D02*
X165461258Y-142402982D01*
X165461258Y-142402982D02*
X165425913Y-142362323D01*
X165425913Y-142362323D02*
X165352565Y-142319005D01*
X164592516Y-142265858D02*
X164516511Y-142260543D01*
X164516511Y-142260543D02*
X164437849Y-142293230D01*
X164437849Y-142293230D02*
X164397189Y-142328575D01*
X164397189Y-142328575D02*
X164353872Y-142401923D01*
X164353872Y-142401923D02*
X164305240Y-142551275D01*
X164305240Y-142551275D02*
X164291953Y-142741288D01*
X164291953Y-142741288D02*
X164319326Y-142895955D01*
X164319326Y-142895955D02*
X164352014Y-142974617D01*
X164352014Y-142974617D02*
X164387359Y-143015277D01*
X164387359Y-143015277D02*
X164460706Y-143058594D01*
X164460706Y-143058594D02*
X164536711Y-143063909D01*
X164536711Y-143063909D02*
X164615373Y-143031221D01*
X164615373Y-143031221D02*
X164656033Y-142995876D01*
X164656033Y-142995876D02*
X164699350Y-142922529D01*
X164699350Y-142922529D02*
X164747982Y-142773176D01*
X164747982Y-142773176D02*
X164761269Y-142583164D01*
X164761269Y-142583164D02*
X164733896Y-142428497D01*
X164733896Y-142428497D02*
X164701209Y-142349835D01*
X164701209Y-142349835D02*
X164665864Y-142309175D01*
X164665864Y-142309175D02*
X164592516Y-142265858D01*
X177015378Y-141390300D02*
X177471407Y-141422188D01*
X177243393Y-141406244D02*
X177299198Y-140608193D01*
X177299198Y-140608193D02*
X177367231Y-140727515D01*
X177367231Y-140727515D02*
X177437921Y-140808835D01*
X177437921Y-140808835D02*
X177511268Y-140852152D01*
X176255329Y-141337152D02*
X176711358Y-141369041D01*
X176483344Y-141353096D02*
X176539149Y-140555045D01*
X176539149Y-140555045D02*
X176607182Y-140674367D01*
X176607182Y-140674367D02*
X176677872Y-140755687D01*
X176677872Y-140755687D02*
X176751219Y-140799004D01*
X175589088Y-140488610D02*
X175969112Y-140515184D01*
X175969112Y-140515184D02*
X175980541Y-140897866D01*
X175980541Y-140897866D02*
X175945196Y-140857206D01*
X175945196Y-140857206D02*
X175871848Y-140813889D01*
X175871848Y-140813889D02*
X175681836Y-140800602D01*
X175681836Y-140800602D02*
X175603174Y-140833290D01*
X175603174Y-140833290D02*
X175562514Y-140868635D01*
X175562514Y-140868635D02*
X175519197Y-140941982D01*
X175519197Y-140941982D02*
X175505910Y-141131994D01*
X175505910Y-141131994D02*
X175538597Y-141210657D01*
X175538597Y-141210657D02*
X175573942Y-141251316D01*
X175573942Y-141251316D02*
X175647290Y-141294634D01*
X175647290Y-141294634D02*
X175837302Y-141307921D01*
X175837302Y-141307921D02*
X175915964Y-141275233D01*
X175915964Y-141275233D02*
X175956624Y-141239888D01*
X178125295Y-125426933D02*
X178203958Y-125394245D01*
X178203958Y-125394245D02*
X178317965Y-125402217D01*
X178317965Y-125402217D02*
X178429315Y-125448192D01*
X178429315Y-125448192D02*
X178500005Y-125529511D01*
X178500005Y-125529511D02*
X178532693Y-125608174D01*
X178532693Y-125608174D02*
X178560065Y-125762841D01*
X178560065Y-125762841D02*
X178552093Y-125876848D01*
X178552093Y-125876848D02*
X178503461Y-126026200D01*
X178503461Y-126026200D02*
X178460144Y-126099548D01*
X178460144Y-126099548D02*
X178378824Y-126170238D01*
X178378824Y-126170238D02*
X178262160Y-126200268D01*
X178262160Y-126200268D02*
X178186155Y-126194954D01*
X178186155Y-126194954D02*
X178074805Y-126148979D01*
X178074805Y-126148979D02*
X178039460Y-126108319D01*
X178039460Y-126108319D02*
X178058062Y-125842302D01*
X178058062Y-125842302D02*
X178210071Y-125852932D01*
X177692123Y-126160407D02*
X177747928Y-125362356D01*
X177747928Y-125362356D02*
X177236094Y-126128519D01*
X177236094Y-126128519D02*
X177291899Y-125330468D01*
X176856070Y-126101945D02*
X176911875Y-125303894D01*
X176911875Y-125303894D02*
X176721863Y-125290607D01*
X176721863Y-125290607D02*
X176605198Y-125320637D01*
X176605198Y-125320637D02*
X176523878Y-125391327D01*
X176523878Y-125391327D02*
X176480561Y-125464675D01*
X176480561Y-125464675D02*
X176431929Y-125614027D01*
X176431929Y-125614027D02*
X176423957Y-125728034D01*
X176423957Y-125728034D02*
X176451330Y-125882701D01*
X176451330Y-125882701D02*
X176484017Y-125961364D01*
X176484017Y-125961364D02*
X176554708Y-126042683D01*
X176554708Y-126042683D02*
X176666057Y-126088658D01*
X176666057Y-126088658D02*
X176856070Y-126101945D01*
X176838196Y-143924113D02*
X177294225Y-143956001D01*
X177066211Y-143940057D02*
X177122016Y-143142006D01*
X177122016Y-143142006D02*
X177190049Y-143261328D01*
X177190049Y-143261328D02*
X177260739Y-143342648D01*
X177260739Y-143342648D02*
X177334086Y-143385965D01*
X176078147Y-143870965D02*
X176534176Y-143902854D01*
X176306162Y-143886909D02*
X176361967Y-143088858D01*
X176361967Y-143088858D02*
X176430000Y-143208180D01*
X176430000Y-143208180D02*
X176500690Y-143289500D01*
X176500690Y-143289500D02*
X176574037Y-143332817D01*
X175867935Y-143054312D02*
X175373903Y-143019766D01*
X175373903Y-143019766D02*
X175618661Y-143342387D01*
X175618661Y-143342387D02*
X175504654Y-143334415D01*
X175504654Y-143334415D02*
X175425992Y-143367103D01*
X175425992Y-143367103D02*
X175385332Y-143402448D01*
X175385332Y-143402448D02*
X175342015Y-143475795D01*
X175342015Y-143475795D02*
X175328728Y-143665807D01*
X175328728Y-143665807D02*
X175361415Y-143744470D01*
X175361415Y-143744470D02*
X175396760Y-143785129D01*
X175396760Y-143785129D02*
X175470108Y-143828447D01*
X175470108Y-143828447D02*
X175698122Y-143844391D01*
X175698122Y-143844391D02*
X175776785Y-143811703D01*
X175776785Y-143811703D02*
X175817445Y-143776358D01*
X177514381Y-138077037D02*
X177438376Y-138071722D01*
X177438376Y-138071722D02*
X177359714Y-138104410D01*
X177359714Y-138104410D02*
X177319054Y-138139755D01*
X177319054Y-138139755D02*
X177275737Y-138213103D01*
X177275737Y-138213103D02*
X177227105Y-138362455D01*
X177227105Y-138362455D02*
X177213818Y-138552467D01*
X177213818Y-138552467D02*
X177241191Y-138707134D01*
X177241191Y-138707134D02*
X177273879Y-138785797D01*
X177273879Y-138785797D02*
X177309224Y-138826456D01*
X177309224Y-138826456D02*
X177382571Y-138869774D01*
X177382571Y-138869774D02*
X177458576Y-138875088D01*
X177458576Y-138875088D02*
X177537238Y-138842401D01*
X177537238Y-138842401D02*
X177577898Y-138807056D01*
X177577898Y-138807056D02*
X177621215Y-138733708D01*
X177621215Y-138733708D02*
X177669847Y-138584356D01*
X177669847Y-138584356D02*
X177683134Y-138394344D01*
X177683134Y-138394344D02*
X177655762Y-138239676D01*
X177655762Y-138239676D02*
X177623074Y-138161014D01*
X177623074Y-138161014D02*
X177587729Y-138120354D01*
X177587729Y-138120354D02*
X177514381Y-138077037D01*
X176754332Y-138023889D02*
X176678327Y-138018575D01*
X176678327Y-138018575D02*
X176599665Y-138051262D01*
X176599665Y-138051262D02*
X176559005Y-138086607D01*
X176559005Y-138086607D02*
X176515688Y-138159955D01*
X176515688Y-138159955D02*
X176467056Y-138309307D01*
X176467056Y-138309307D02*
X176453769Y-138499319D01*
X176453769Y-138499319D02*
X176481142Y-138653986D01*
X176481142Y-138653986D02*
X176513830Y-138732649D01*
X176513830Y-138732649D02*
X176549175Y-138773309D01*
X176549175Y-138773309D02*
X176622522Y-138816626D01*
X176622522Y-138816626D02*
X176698527Y-138821941D01*
X176698527Y-138821941D02*
X176777189Y-138789253D01*
X176777189Y-138789253D02*
X176817849Y-138753908D01*
X176817849Y-138753908D02*
X176861166Y-138680560D01*
X176861166Y-138680560D02*
X176909798Y-138531208D01*
X176909798Y-138531208D02*
X176923085Y-138341196D01*
X176923085Y-138341196D02*
X176895713Y-138186529D01*
X176895713Y-138186529D02*
X176863025Y-138107866D01*
X176863025Y-138107866D02*
X176827680Y-138067207D01*
X176827680Y-138067207D02*
X176754332Y-138023889D01*
X176178981Y-138060033D02*
X176143636Y-138019374D01*
X176143636Y-138019374D02*
X176070288Y-137976056D01*
X176070288Y-137976056D02*
X175880276Y-137962769D01*
X175880276Y-137962769D02*
X175801614Y-137995457D01*
X175801614Y-137995457D02*
X175760954Y-138030802D01*
X175760954Y-138030802D02*
X175717637Y-138104150D01*
X175717637Y-138104150D02*
X175712322Y-138180154D01*
X175712322Y-138180154D02*
X175742352Y-138296819D01*
X175742352Y-138296819D02*
X176166493Y-138784737D01*
X176166493Y-138784737D02*
X175672461Y-138750191D01*
X166820642Y-132246878D02*
X166744637Y-132241563D01*
X166744637Y-132241563D02*
X166665975Y-132274251D01*
X166665975Y-132274251D02*
X166625315Y-132309596D01*
X166625315Y-132309596D02*
X166581998Y-132382944D01*
X166581998Y-132382944D02*
X166533366Y-132532296D01*
X166533366Y-132532296D02*
X166520079Y-132722308D01*
X166520079Y-132722308D02*
X166547452Y-132876975D01*
X166547452Y-132876975D02*
X166580140Y-132955638D01*
X166580140Y-132955638D02*
X166615485Y-132996297D01*
X166615485Y-132996297D02*
X166688832Y-133039615D01*
X166688832Y-133039615D02*
X166764837Y-133044929D01*
X166764837Y-133044929D02*
X166843499Y-133012242D01*
X166843499Y-133012242D02*
X166884159Y-132976897D01*
X166884159Y-132976897D02*
X166927476Y-132903549D01*
X166927476Y-132903549D02*
X166976108Y-132754197D01*
X166976108Y-132754197D02*
X166989395Y-132564185D01*
X166989395Y-132564185D02*
X166962023Y-132409517D01*
X166962023Y-132409517D02*
X166929335Y-132330855D01*
X166929335Y-132330855D02*
X166893990Y-132290195D01*
X166893990Y-132290195D02*
X166820642Y-132246878D01*
X165738771Y-132973180D02*
X166194800Y-133005069D01*
X165966786Y-132989124D02*
X166022591Y-132191073D01*
X166022591Y-132191073D02*
X166090624Y-132310395D01*
X166090624Y-132310395D02*
X166161314Y-132391715D01*
X166161314Y-132391715D02*
X166234661Y-132435032D01*
X165528559Y-132156527D02*
X164996525Y-132119323D01*
X164996525Y-132119323D02*
X165282742Y-132941291D01*
X177856964Y-128718137D02*
X178149555Y-128356714D01*
X178312993Y-128750026D02*
X178368798Y-127951975D01*
X178368798Y-127951975D02*
X178064779Y-127930715D01*
X178064779Y-127930715D02*
X177986117Y-127963403D01*
X177986117Y-127963403D02*
X177945457Y-127998748D01*
X177945457Y-127998748D02*
X177902139Y-128072096D01*
X177902139Y-128072096D02*
X177894167Y-128186103D01*
X177894167Y-128186103D02*
X177926855Y-128264765D01*
X177926855Y-128264765D02*
X177962200Y-128305425D01*
X177962200Y-128305425D02*
X178035547Y-128348742D01*
X178035547Y-128348742D02*
X178339567Y-128370001D01*
X177555602Y-128658876D02*
X177438937Y-128688906D01*
X177438937Y-128688906D02*
X177248925Y-128675619D01*
X177248925Y-128675619D02*
X177175577Y-128632302D01*
X177175577Y-128632302D02*
X177140232Y-128591642D01*
X177140232Y-128591642D02*
X177107545Y-128512980D01*
X177107545Y-128512980D02*
X177112859Y-128436975D01*
X177112859Y-128436975D02*
X177156177Y-128363627D01*
X177156177Y-128363627D02*
X177196836Y-128328282D01*
X177196836Y-128328282D02*
X177275499Y-128295595D01*
X177275499Y-128295595D02*
X177430166Y-128268222D01*
X177430166Y-128268222D02*
X177508828Y-128235534D01*
X177508828Y-128235534D02*
X177549488Y-128200189D01*
X177549488Y-128200189D02*
X177592805Y-128126841D01*
X177592805Y-128126841D02*
X177598120Y-128050837D01*
X177598120Y-128050837D02*
X177565432Y-127972174D01*
X177565432Y-127972174D02*
X177530087Y-127931514D01*
X177530087Y-127931514D02*
X177456740Y-127888197D01*
X177456740Y-127888197D02*
X177266728Y-127874910D01*
X177266728Y-127874910D02*
X177150063Y-127904941D01*
X176924705Y-127850994D02*
X176468676Y-127819105D01*
X176640886Y-128633101D02*
X176696691Y-127835049D01*
X167530065Y-122101651D02*
X167454060Y-122096336D01*
X167454060Y-122096336D02*
X167375398Y-122129024D01*
X167375398Y-122129024D02*
X167334738Y-122164369D01*
X167334738Y-122164369D02*
X167291421Y-122237717D01*
X167291421Y-122237717D02*
X167242789Y-122387069D01*
X167242789Y-122387069D02*
X167229502Y-122577081D01*
X167229502Y-122577081D02*
X167256875Y-122731748D01*
X167256875Y-122731748D02*
X167289563Y-122810411D01*
X167289563Y-122810411D02*
X167324908Y-122851070D01*
X167324908Y-122851070D02*
X167398255Y-122894388D01*
X167398255Y-122894388D02*
X167474260Y-122899702D01*
X167474260Y-122899702D02*
X167552922Y-122867015D01*
X167552922Y-122867015D02*
X167593582Y-122831670D01*
X167593582Y-122831670D02*
X167636899Y-122758322D01*
X167636899Y-122758322D02*
X167685531Y-122608970D01*
X167685531Y-122608970D02*
X167698818Y-122418958D01*
X167698818Y-122418958D02*
X167671446Y-122264290D01*
X167671446Y-122264290D02*
X167638758Y-122185628D01*
X167638758Y-122185628D02*
X167603413Y-122144968D01*
X167603413Y-122144968D02*
X167530065Y-122101651D01*
X166770016Y-122048503D02*
X166694011Y-122043189D01*
X166694011Y-122043189D02*
X166615349Y-122075876D01*
X166615349Y-122075876D02*
X166574689Y-122111221D01*
X166574689Y-122111221D02*
X166531372Y-122184569D01*
X166531372Y-122184569D02*
X166482740Y-122333921D01*
X166482740Y-122333921D02*
X166469453Y-122523933D01*
X166469453Y-122523933D02*
X166496826Y-122678600D01*
X166496826Y-122678600D02*
X166529514Y-122757263D01*
X166529514Y-122757263D02*
X166564859Y-122797923D01*
X166564859Y-122797923D02*
X166638206Y-122841240D01*
X166638206Y-122841240D02*
X166714211Y-122846555D01*
X166714211Y-122846555D02*
X166792873Y-122813867D01*
X166792873Y-122813867D02*
X166833533Y-122778522D01*
X166833533Y-122778522D02*
X166876850Y-122705174D01*
X166876850Y-122705174D02*
X166925482Y-122555822D01*
X166925482Y-122555822D02*
X166938769Y-122365810D01*
X166938769Y-122365810D02*
X166911397Y-122211143D01*
X166911397Y-122211143D02*
X166878709Y-122132480D01*
X166878709Y-122132480D02*
X166843364Y-122091821D01*
X166843364Y-122091821D02*
X166770016Y-122048503D01*
X165819955Y-121982069D02*
X165971965Y-121992698D01*
X165971965Y-121992698D02*
X166045312Y-122036015D01*
X166045312Y-122036015D02*
X166080657Y-122076675D01*
X166080657Y-122076675D02*
X166148690Y-122195997D01*
X166148690Y-122195997D02*
X166176063Y-122350664D01*
X166176063Y-122350664D02*
X166154804Y-122654684D01*
X166154804Y-122654684D02*
X166111487Y-122728031D01*
X166111487Y-122728031D02*
X166070827Y-122763376D01*
X166070827Y-122763376D02*
X165992165Y-122796064D01*
X165992165Y-122796064D02*
X165840155Y-122785435D01*
X165840155Y-122785435D02*
X165766807Y-122742117D01*
X165766807Y-122742117D02*
X165731462Y-122701458D01*
X165731462Y-122701458D02*
X165698775Y-122622795D01*
X165698775Y-122622795D02*
X165712062Y-122432783D01*
X165712062Y-122432783D02*
X165755379Y-122359436D01*
X165755379Y-122359436D02*
X165796039Y-122324091D01*
X165796039Y-122324091D02*
X165874701Y-122291403D01*
X165874701Y-122291403D02*
X166026711Y-122302032D01*
X166026711Y-122302032D02*
X166100058Y-122345350D01*
X166100058Y-122345350D02*
X166135403Y-122386009D01*
X166135403Y-122386009D02*
X166168091Y-122464672D01*
X166289795Y-139838340D02*
X166213790Y-139833025D01*
X166213790Y-139833025D02*
X166135128Y-139865713D01*
X166135128Y-139865713D02*
X166094468Y-139901058D01*
X166094468Y-139901058D02*
X166051151Y-139974406D01*
X166051151Y-139974406D02*
X166002519Y-140123758D01*
X166002519Y-140123758D02*
X165989232Y-140313770D01*
X165989232Y-140313770D02*
X166016605Y-140468437D01*
X166016605Y-140468437D02*
X166049293Y-140547100D01*
X166049293Y-140547100D02*
X166084638Y-140587759D01*
X166084638Y-140587759D02*
X166157985Y-140631077D01*
X166157985Y-140631077D02*
X166233990Y-140636391D01*
X166233990Y-140636391D02*
X166312652Y-140603704D01*
X166312652Y-140603704D02*
X166353312Y-140568359D01*
X166353312Y-140568359D02*
X166396629Y-140495011D01*
X166396629Y-140495011D02*
X166445261Y-140345659D01*
X166445261Y-140345659D02*
X166458548Y-140155647D01*
X166458548Y-140155647D02*
X166431176Y-140000979D01*
X166431176Y-140000979D02*
X166398488Y-139922317D01*
X166398488Y-139922317D02*
X166363143Y-139881657D01*
X166363143Y-139881657D02*
X166289795Y-139838340D01*
X165714444Y-139874484D02*
X165679099Y-139833824D01*
X165679099Y-139833824D02*
X165605751Y-139790507D01*
X165605751Y-139790507D02*
X165415739Y-139777220D01*
X165415739Y-139777220D02*
X165337077Y-139809908D01*
X165337077Y-139809908D02*
X165296417Y-139845253D01*
X165296417Y-139845253D02*
X165253100Y-139918600D01*
X165253100Y-139918600D02*
X165247785Y-139994605D01*
X165247785Y-139994605D02*
X165277815Y-140111270D01*
X165277815Y-140111270D02*
X165701956Y-140599188D01*
X165701956Y-140599188D02*
X165207924Y-140564642D01*
X164561083Y-139984775D02*
X164523880Y-140516809D01*
X164772355Y-139694042D02*
X164922506Y-140277366D01*
X164922506Y-140277366D02*
X164428474Y-140242820D01*
X178211327Y-123650511D02*
X178503918Y-123289089D01*
X178667357Y-123682400D02*
X178723162Y-122884349D01*
X178723162Y-122884349D02*
X178419142Y-122863090D01*
X178419142Y-122863090D02*
X178340480Y-122895777D01*
X178340480Y-122895777D02*
X178299820Y-122931122D01*
X178299820Y-122931122D02*
X178256503Y-123004470D01*
X178256503Y-123004470D02*
X178248531Y-123118477D01*
X178248531Y-123118477D02*
X178281219Y-123197139D01*
X178281219Y-123197139D02*
X178316564Y-123237799D01*
X178316564Y-123237799D02*
X178389911Y-123281117D01*
X178389911Y-123281117D02*
X178693931Y-123302376D01*
X177923252Y-123401238D02*
X177543228Y-123374664D01*
X177983313Y-123634567D02*
X177773101Y-122817914D01*
X177773101Y-122817914D02*
X177451279Y-123597364D01*
X177317072Y-122786025D02*
X177071255Y-123570790D01*
X177071255Y-123570790D02*
X176959106Y-122990124D01*
X176959106Y-122990124D02*
X176767235Y-123549531D01*
X176767235Y-123549531D02*
X176633028Y-122738192D01*
X177868744Y-133009412D02*
X177792739Y-133004097D01*
X177792739Y-133004097D02*
X177714077Y-133036785D01*
X177714077Y-133036785D02*
X177673417Y-133072130D01*
X177673417Y-133072130D02*
X177630100Y-133145478D01*
X177630100Y-133145478D02*
X177581468Y-133294830D01*
X177581468Y-133294830D02*
X177568181Y-133484842D01*
X177568181Y-133484842D02*
X177595554Y-133639509D01*
X177595554Y-133639509D02*
X177628242Y-133718172D01*
X177628242Y-133718172D02*
X177663587Y-133758831D01*
X177663587Y-133758831D02*
X177736934Y-133802149D01*
X177736934Y-133802149D02*
X177812939Y-133807463D01*
X177812939Y-133807463D02*
X177891601Y-133774776D01*
X177891601Y-133774776D02*
X177932261Y-133739431D01*
X177932261Y-133739431D02*
X177975578Y-133666083D01*
X177975578Y-133666083D02*
X178024210Y-133516731D01*
X178024210Y-133516731D02*
X178037497Y-133326719D01*
X178037497Y-133326719D02*
X178010125Y-133172051D01*
X178010125Y-133172051D02*
X177977437Y-133093389D01*
X177977437Y-133093389D02*
X177942092Y-133052729D01*
X177942092Y-133052729D02*
X177868744Y-133009412D01*
X177336710Y-132972209D02*
X176842678Y-132937663D01*
X176842678Y-132937663D02*
X177087436Y-133260284D01*
X177087436Y-133260284D02*
X176973429Y-133252312D01*
X176973429Y-133252312D02*
X176894767Y-133284999D01*
X176894767Y-133284999D02*
X176854107Y-133320344D01*
X176854107Y-133320344D02*
X176810790Y-133393692D01*
X176810790Y-133393692D02*
X176797503Y-133583704D01*
X176797503Y-133583704D02*
X176830190Y-133662366D01*
X176830190Y-133662366D02*
X176865535Y-133703026D01*
X176865535Y-133703026D02*
X176938883Y-133746343D01*
X176938883Y-133746343D02*
X177166897Y-133762288D01*
X177166897Y-133762288D02*
X177245560Y-133729600D01*
X177245560Y-133729600D02*
X177286220Y-133694255D01*
X176026824Y-133682566D02*
X176482853Y-133714455D01*
X176254839Y-133698510D02*
X176310644Y-132900459D01*
X176310644Y-132900459D02*
X176378677Y-133019781D01*
X176378677Y-133019781D02*
X176449367Y-133101101D01*
X176449367Y-133101101D02*
X176522714Y-133144418D01*
X166464884Y-137334454D02*
X166388879Y-137329139D01*
X166388879Y-137329139D02*
X166310217Y-137361827D01*
X166310217Y-137361827D02*
X166269557Y-137397172D01*
X166269557Y-137397172D02*
X166226240Y-137470520D01*
X166226240Y-137470520D02*
X166177608Y-137619872D01*
X166177608Y-137619872D02*
X166164321Y-137809884D01*
X166164321Y-137809884D02*
X166191694Y-137964551D01*
X166191694Y-137964551D02*
X166224382Y-138043214D01*
X166224382Y-138043214D02*
X166259727Y-138083873D01*
X166259727Y-138083873D02*
X166333074Y-138127191D01*
X166333074Y-138127191D02*
X166409079Y-138132505D01*
X166409079Y-138132505D02*
X166487741Y-138099818D01*
X166487741Y-138099818D02*
X166528401Y-138064473D01*
X166528401Y-138064473D02*
X166571718Y-137991125D01*
X166571718Y-137991125D02*
X166620350Y-137841773D01*
X166620350Y-137841773D02*
X166633637Y-137651761D01*
X166633637Y-137651761D02*
X166606265Y-137497093D01*
X166606265Y-137497093D02*
X166573577Y-137418431D01*
X166573577Y-137418431D02*
X166538232Y-137377771D01*
X166538232Y-137377771D02*
X166464884Y-137334454D01*
X165889533Y-137370598D02*
X165854188Y-137329938D01*
X165854188Y-137329938D02*
X165780840Y-137286621D01*
X165780840Y-137286621D02*
X165590828Y-137273334D01*
X165590828Y-137273334D02*
X165512166Y-137306022D01*
X165512166Y-137306022D02*
X165471506Y-137341367D01*
X165471506Y-137341367D02*
X165428189Y-137414714D01*
X165428189Y-137414714D02*
X165422874Y-137490719D01*
X165422874Y-137490719D02*
X165452904Y-137607384D01*
X165452904Y-137607384D02*
X165877045Y-138095302D01*
X165877045Y-138095302D02*
X165383013Y-138060756D01*
X165129484Y-137317450D02*
X165094139Y-137276791D01*
X165094139Y-137276791D02*
X165020791Y-137233473D01*
X165020791Y-137233473D02*
X164830779Y-137220186D01*
X164830779Y-137220186D02*
X164752117Y-137252874D01*
X164752117Y-137252874D02*
X164711457Y-137288219D01*
X164711457Y-137288219D02*
X164668140Y-137361567D01*
X164668140Y-137361567D02*
X164662825Y-137437571D01*
X164662825Y-137437571D02*
X164692855Y-137554236D01*
X164692855Y-137554236D02*
X165116996Y-138042154D01*
X165116996Y-138042154D02*
X164622964Y-138007608D01*
X167059037Y-127199306D02*
X167137700Y-127166618D01*
X167137700Y-127166618D02*
X167251707Y-127174590D01*
X167251707Y-127174590D02*
X167363057Y-127220565D01*
X167363057Y-127220565D02*
X167433747Y-127301884D01*
X167433747Y-127301884D02*
X167466435Y-127380547D01*
X167466435Y-127380547D02*
X167493807Y-127535214D01*
X167493807Y-127535214D02*
X167485835Y-127649221D01*
X167485835Y-127649221D02*
X167437203Y-127798573D01*
X167437203Y-127798573D02*
X167393886Y-127871921D01*
X167393886Y-127871921D02*
X167312566Y-127942611D01*
X167312566Y-127942611D02*
X167195902Y-127972641D01*
X167195902Y-127972641D02*
X167119897Y-127967327D01*
X167119897Y-127967327D02*
X167008547Y-127921352D01*
X167008547Y-127921352D02*
X166973202Y-127880692D01*
X166973202Y-127880692D02*
X166991804Y-127614675D01*
X166991804Y-127614675D02*
X167143813Y-127625305D01*
X166625865Y-127932780D02*
X166681670Y-127134729D01*
X166681670Y-127134729D02*
X166169836Y-127900892D01*
X166169836Y-127900892D02*
X166225641Y-127102841D01*
X165789812Y-127874318D02*
X165845617Y-127076267D01*
X165845617Y-127076267D02*
X165655605Y-127062980D01*
X165655605Y-127062980D02*
X165538940Y-127093010D01*
X165538940Y-127093010D02*
X165457620Y-127163700D01*
X165457620Y-127163700D02*
X165414303Y-127237048D01*
X165414303Y-127237048D02*
X165365671Y-127386400D01*
X165365671Y-127386400D02*
X165357699Y-127500407D01*
X165357699Y-127500407D02*
X165385072Y-127655074D01*
X165385072Y-127655074D02*
X165417759Y-127733737D01*
X165417759Y-127733737D02*
X165488450Y-127815056D01*
X165488450Y-127815056D02*
X165599799Y-127861031D01*
X165599799Y-127861031D02*
X165789812Y-127874318D01*
X165436429Y-148219228D02*
X165892458Y-148251116D01*
X165664444Y-148235172D02*
X165720249Y-147437121D01*
X165720249Y-147437121D02*
X165788282Y-147556443D01*
X165788282Y-147556443D02*
X165858972Y-147637763D01*
X165858972Y-147637763D02*
X165932319Y-147681080D01*
X164998202Y-147386630D02*
X164922197Y-147381316D01*
X164922197Y-147381316D02*
X164843535Y-147414003D01*
X164843535Y-147414003D02*
X164802875Y-147449348D01*
X164802875Y-147449348D02*
X164759558Y-147522696D01*
X164759558Y-147522696D02*
X164710926Y-147672048D01*
X164710926Y-147672048D02*
X164697639Y-147862060D01*
X164697639Y-147862060D02*
X164725012Y-148016727D01*
X164725012Y-148016727D02*
X164757700Y-148095390D01*
X164757700Y-148095390D02*
X164793045Y-148136050D01*
X164793045Y-148136050D02*
X164866392Y-148179367D01*
X164866392Y-148179367D02*
X164942397Y-148184682D01*
X164942397Y-148184682D02*
X165021059Y-148151994D01*
X165021059Y-148151994D02*
X165061719Y-148116649D01*
X165061719Y-148116649D02*
X165105036Y-148043301D01*
X165105036Y-148043301D02*
X165153668Y-147893949D01*
X165153668Y-147893949D02*
X165166955Y-147703937D01*
X165166955Y-147703937D02*
X165139583Y-147549270D01*
X165139583Y-147549270D02*
X165106895Y-147470607D01*
X165106895Y-147470607D02*
X165071550Y-147429948D01*
X165071550Y-147429948D02*
X164998202Y-147386630D01*
X164029539Y-147586213D02*
X163992336Y-148118247D01*
X164240811Y-147295480D02*
X164390962Y-147878804D01*
X164390962Y-147878804D02*
X163896930Y-147844258D01*
X176661015Y-146457925D02*
X177117044Y-146489813D01*
X176889030Y-146473869D02*
X176944835Y-145675818D01*
X176944835Y-145675818D02*
X177012868Y-145795140D01*
X177012868Y-145795140D02*
X177083558Y-145876460D01*
X177083558Y-145876460D02*
X177156905Y-145919777D01*
X175900966Y-146404777D02*
X176356995Y-146436666D01*
X176128981Y-146420721D02*
X176184786Y-145622670D01*
X176184786Y-145622670D02*
X176252819Y-145741992D01*
X176252819Y-145741992D02*
X176323509Y-145823312D01*
X176323509Y-145823312D02*
X176396856Y-145866629D01*
X175140917Y-146351629D02*
X175596946Y-146383518D01*
X175368932Y-146367573D02*
X175424737Y-145569522D01*
X175424737Y-145569522D02*
X175492770Y-145688844D01*
X175492770Y-145688844D02*
X175563460Y-145770164D01*
X175563460Y-145770164D02*
X175636807Y-145813481D01*
X176805655Y-148212288D02*
X176729650Y-148206973D01*
X176729650Y-148206973D02*
X176650988Y-148239661D01*
X176650988Y-148239661D02*
X176610328Y-148275006D01*
X176610328Y-148275006D02*
X176567011Y-148348354D01*
X176567011Y-148348354D02*
X176518379Y-148497706D01*
X176518379Y-148497706D02*
X176505092Y-148687718D01*
X176505092Y-148687718D02*
X176532465Y-148842385D01*
X176532465Y-148842385D02*
X176565153Y-148921048D01*
X176565153Y-148921048D02*
X176600498Y-148961707D01*
X176600498Y-148961707D02*
X176673845Y-149005025D01*
X176673845Y-149005025D02*
X176749850Y-149010339D01*
X176749850Y-149010339D02*
X176828512Y-148977652D01*
X176828512Y-148977652D02*
X176869172Y-148942307D01*
X176869172Y-148942307D02*
X176912489Y-148868959D01*
X176912489Y-148868959D02*
X176961121Y-148719607D01*
X176961121Y-148719607D02*
X176974408Y-148529595D01*
X176974408Y-148529595D02*
X176947036Y-148374927D01*
X176947036Y-148374927D02*
X176914348Y-148296265D01*
X176914348Y-148296265D02*
X176879003Y-148255605D01*
X176879003Y-148255605D02*
X176805655Y-148212288D01*
X175723784Y-148938590D02*
X176179813Y-148970479D01*
X175951799Y-148954534D02*
X176007604Y-148156483D01*
X176007604Y-148156483D02*
X176075637Y-148275805D01*
X176075637Y-148275805D02*
X176146327Y-148357125D01*
X176146327Y-148357125D02*
X176219674Y-148400442D01*
X175285557Y-148105993D02*
X175209552Y-148100678D01*
X175209552Y-148100678D02*
X175130890Y-148133365D01*
X175130890Y-148133365D02*
X175090230Y-148168710D01*
X175090230Y-148168710D02*
X175046913Y-148242058D01*
X175046913Y-148242058D02*
X174998281Y-148391410D01*
X174998281Y-148391410D02*
X174984994Y-148581423D01*
X174984994Y-148581423D02*
X175012367Y-148736090D01*
X175012367Y-148736090D02*
X175045055Y-148814752D01*
X175045055Y-148814752D02*
X175080400Y-148855412D01*
X175080400Y-148855412D02*
X175153747Y-148898729D01*
X175153747Y-148898729D02*
X175229752Y-148904044D01*
X175229752Y-148904044D02*
X175308414Y-148871356D01*
X175308414Y-148871356D02*
X175349074Y-148836011D01*
X175349074Y-148836011D02*
X175392391Y-148762664D01*
X175392391Y-148762664D02*
X175441023Y-148613311D01*
X175441023Y-148613311D02*
X175454310Y-148423299D01*
X175454310Y-148423299D02*
X175426937Y-148268632D01*
X175426937Y-148268632D02*
X175394250Y-148189970D01*
X175394250Y-148189970D02*
X175358905Y-148149310D01*
X175358905Y-148149310D02*
X175285557Y-148105993D01*
X167357767Y-124565635D02*
X167281762Y-124560320D01*
X167281762Y-124560320D02*
X167203100Y-124593008D01*
X167203100Y-124593008D02*
X167162440Y-124628353D01*
X167162440Y-124628353D02*
X167119123Y-124701701D01*
X167119123Y-124701701D02*
X167070491Y-124851053D01*
X167070491Y-124851053D02*
X167057204Y-125041065D01*
X167057204Y-125041065D02*
X167084577Y-125195732D01*
X167084577Y-125195732D02*
X167117265Y-125274395D01*
X167117265Y-125274395D02*
X167152610Y-125315054D01*
X167152610Y-125315054D02*
X167225957Y-125358372D01*
X167225957Y-125358372D02*
X167301962Y-125363686D01*
X167301962Y-125363686D02*
X167380624Y-125330999D01*
X167380624Y-125330999D02*
X167421284Y-125295654D01*
X167421284Y-125295654D02*
X167464601Y-125222306D01*
X167464601Y-125222306D02*
X167513233Y-125072954D01*
X167513233Y-125072954D02*
X167526520Y-124882942D01*
X167526520Y-124882942D02*
X167499148Y-124728274D01*
X167499148Y-124728274D02*
X167466460Y-124649612D01*
X167466460Y-124649612D02*
X167431115Y-124608952D01*
X167431115Y-124608952D02*
X167357767Y-124565635D01*
X166597718Y-124512487D02*
X166521713Y-124507173D01*
X166521713Y-124507173D02*
X166443051Y-124539860D01*
X166443051Y-124539860D02*
X166402391Y-124575205D01*
X166402391Y-124575205D02*
X166359074Y-124648553D01*
X166359074Y-124648553D02*
X166310442Y-124797905D01*
X166310442Y-124797905D02*
X166297155Y-124987917D01*
X166297155Y-124987917D02*
X166324528Y-125142584D01*
X166324528Y-125142584D02*
X166357216Y-125221247D01*
X166357216Y-125221247D02*
X166392561Y-125261907D01*
X166392561Y-125261907D02*
X166465908Y-125305224D01*
X166465908Y-125305224D02*
X166541913Y-125310539D01*
X166541913Y-125310539D02*
X166620575Y-125277851D01*
X166620575Y-125277851D02*
X166661235Y-125242506D01*
X166661235Y-125242506D02*
X166704552Y-125169158D01*
X166704552Y-125169158D02*
X166753184Y-125019806D01*
X166753184Y-125019806D02*
X166766471Y-124829794D01*
X166766471Y-124829794D02*
X166739099Y-124675127D01*
X166739099Y-124675127D02*
X166706411Y-124596464D01*
X166706411Y-124596464D02*
X166671066Y-124555805D01*
X166671066Y-124555805D02*
X166597718Y-124512487D01*
X165851755Y-124804019D02*
X165930417Y-124771331D01*
X165930417Y-124771331D02*
X165971077Y-124735986D01*
X165971077Y-124735986D02*
X166014395Y-124662639D01*
X166014395Y-124662639D02*
X166017052Y-124624636D01*
X166017052Y-124624636D02*
X165984364Y-124545974D01*
X165984364Y-124545974D02*
X165949019Y-124505314D01*
X165949019Y-124505314D02*
X165875672Y-124461997D01*
X165875672Y-124461997D02*
X165723662Y-124451367D01*
X165723662Y-124451367D02*
X165645000Y-124484055D01*
X165645000Y-124484055D02*
X165604340Y-124519400D01*
X165604340Y-124519400D02*
X165561023Y-124592748D01*
X165561023Y-124592748D02*
X165558365Y-124630750D01*
X165558365Y-124630750D02*
X165591053Y-124709412D01*
X165591053Y-124709412D02*
X165626398Y-124750072D01*
X165626398Y-124750072D02*
X165699745Y-124793389D01*
X165699745Y-124793389D02*
X165851755Y-124804019D01*
X165851755Y-124804019D02*
X165925103Y-124847336D01*
X165925103Y-124847336D02*
X165960448Y-124887996D01*
X165960448Y-124887996D02*
X165993135Y-124966658D01*
X165993135Y-124966658D02*
X165982506Y-125118668D01*
X165982506Y-125118668D02*
X165939189Y-125192015D01*
X165939189Y-125192015D02*
X165898529Y-125227360D01*
X165898529Y-125227360D02*
X165819867Y-125260048D01*
X165819867Y-125260048D02*
X165667857Y-125249419D01*
X165667857Y-125249419D02*
X165594509Y-125206101D01*
X165594509Y-125206101D02*
X165559164Y-125165442D01*
X165559164Y-125165442D02*
X165526477Y-125086779D01*
X165526477Y-125086779D02*
X165537106Y-124934770D01*
X165537106Y-124934770D02*
X165580423Y-124861422D01*
X165580423Y-124861422D02*
X165621083Y-124826077D01*
X165621083Y-124826077D02*
X165699745Y-124793389D01*
X178311942Y-130494201D02*
X177990120Y-131273650D01*
X177990120Y-131273650D02*
X177779908Y-130456997D01*
X177007372Y-131128553D02*
X177042717Y-131169213D01*
X177042717Y-131169213D02*
X177154067Y-131215188D01*
X177154067Y-131215188D02*
X177230072Y-131220503D01*
X177230072Y-131220503D02*
X177346736Y-131190472D01*
X177346736Y-131190472D02*
X177428056Y-131119782D01*
X177428056Y-131119782D02*
X177471373Y-131046435D01*
X177471373Y-131046435D02*
X177520005Y-130897082D01*
X177520005Y-130897082D02*
X177527977Y-130783075D01*
X177527977Y-130783075D02*
X177500605Y-130628408D01*
X177500605Y-130628408D02*
X177467917Y-130549746D01*
X177467917Y-130549746D02*
X177397227Y-130468426D01*
X177397227Y-130468426D02*
X177285877Y-130422451D01*
X177285877Y-130422451D02*
X177209872Y-130417137D01*
X177209872Y-130417137D02*
X177093207Y-130447167D01*
X177093207Y-130447167D02*
X177052547Y-130482512D01*
X176209321Y-131072748D02*
X176244666Y-131113408D01*
X176244666Y-131113408D02*
X176356016Y-131159383D01*
X176356016Y-131159383D02*
X176432020Y-131164697D01*
X176432020Y-131164697D02*
X176548685Y-131134667D01*
X176548685Y-131134667D02*
X176630005Y-131063977D01*
X176630005Y-131063977D02*
X176673322Y-130990630D01*
X176673322Y-130990630D02*
X176721954Y-130841277D01*
X176721954Y-130841277D02*
X176729926Y-130727270D01*
X176729926Y-130727270D02*
X176702553Y-130572603D01*
X176702553Y-130572603D02*
X176669866Y-130493940D01*
X176669866Y-130493940D02*
X176599176Y-130412621D01*
X176599176Y-130412621D02*
X176487826Y-130366646D01*
X176487826Y-130366646D02*
X176411821Y-130361331D01*
X176411821Y-130361331D02*
X176295156Y-130391362D01*
X176295156Y-130391362D02*
X176254496Y-130426707D01*
%TO.C,T1*%
X173978475Y-162649895D02*
X176673203Y-163577764D01*
X176127225Y-156409472D02*
X173978475Y-162649895D01*
X177112720Y-162301314D02*
X178382436Y-158613792D01*
X177747578Y-160457553D02*
X176673203Y-163577764D01*
X177747578Y-160457553D02*
X178821953Y-157337342D01*
X178821953Y-157337342D02*
X176127225Y-156409472D01*
D11*
%TO.C,D8*%
X69000567Y-151993460D02*
X69400506Y-152000441D01*
X69400506Y-152000441D02*
X69390907Y-152550357D01*
X69400506Y-152000441D02*
X69410105Y-151450524D01*
X69400506Y-152000441D02*
X70007396Y-151610973D01*
X69993434Y-152410851D02*
X69400506Y-152000441D01*
X70000415Y-152010912D02*
X70500339Y-152019638D01*
X70007396Y-151610973D02*
X69993434Y-152410851D01*
%TO.C,D18*%
X108452117Y-152013146D02*
X108851569Y-152034080D01*
X108851569Y-152034080D02*
X108822784Y-152583327D01*
X108851569Y-152034080D02*
X108880353Y-151484834D01*
X108851569Y-152034080D02*
X109471681Y-151666030D01*
X109429812Y-152464934D02*
X108851569Y-152034080D01*
X109450746Y-152065482D02*
X109950061Y-152091650D01*
X109471681Y-151666030D02*
X109429812Y-152464934D01*
D10*
%TO.C,JST1*%
X161133079Y-163250569D02*
X168319020Y-165724887D01*
X163053931Y-157672009D02*
X161133079Y-163250569D01*
X166755299Y-160744448D02*
X166592515Y-161217207D01*
X166910286Y-161062219D02*
X166437527Y-160899435D01*
X167034088Y-164542115D02*
X168499145Y-160287281D01*
X168319020Y-165724887D02*
X168546918Y-165063024D01*
X168499145Y-160287281D02*
X170011974Y-160808190D01*
X168546918Y-165063024D02*
X167034088Y-164542115D01*
X170011974Y-160808190D02*
X170239872Y-160146327D01*
X170239872Y-160146327D02*
X163053931Y-157672009D01*
D11*
%TO.C,D15*%
X90144232Y-110355373D02*
X90543988Y-110369333D01*
X90543988Y-110369333D02*
X90524793Y-110918998D01*
X90543988Y-110369333D02*
X90563183Y-109819668D01*
X90543988Y-110369333D02*
X91157584Y-109990517D01*
X91129663Y-110790029D02*
X90543988Y-110369333D01*
X91143623Y-110390273D02*
X91643318Y-110407723D01*
X91157584Y-109990517D02*
X91129663Y-110790029D01*
D12*
%TO.C,B1*%
X171763737Y-170771315D02*
X173293908Y-166327376D01*
X173220372Y-171378635D02*
X173740408Y-171557698D01*
X174815656Y-166745594D02*
X175335692Y-166924657D01*
X175262156Y-171975916D02*
X175563307Y-171101311D01*
X176491176Y-168406583D02*
X176792327Y-167531977D01*
D11*
%TO.C,D17*%
X107457734Y-170987107D02*
X107857186Y-171008041D01*
X107857186Y-171008041D02*
X107828401Y-171557288D01*
X107857186Y-171008041D02*
X107885970Y-170458795D01*
X107857186Y-171008041D02*
X108477298Y-170639991D01*
X108435429Y-171438895D02*
X107857186Y-171008041D01*
X108456363Y-171039443D02*
X108955678Y-171065611D01*
X108477298Y-170639991D02*
X108435429Y-171438895D01*
%TO.C,D9*%
X69332163Y-132996354D02*
X69732102Y-133003335D01*
X69732102Y-133003335D02*
X69722503Y-133553251D01*
X69732102Y-133003335D02*
X69741701Y-132453418D01*
X69732102Y-133003335D02*
X70338992Y-132613867D01*
X70325030Y-133413745D02*
X69732102Y-133003335D01*
X70332011Y-133013806D02*
X70831935Y-133022532D01*
X70338992Y-132613867D02*
X70325030Y-133413745D01*
%TO.C,D26*%
X146867997Y-159358800D02*
X147267023Y-159386702D01*
X147267023Y-159386702D02*
X147228657Y-159935362D01*
X147267023Y-159386702D02*
X147305389Y-158838042D01*
X147267023Y-159386702D02*
X147893464Y-159029530D01*
X147837658Y-159827582D02*
X147267023Y-159386702D01*
X147865561Y-159428556D02*
X148364343Y-159463434D01*
X147893464Y-159029530D02*
X147837658Y-159827582D01*
%TO.C,D24*%
X130565026Y-120125993D02*
X130964052Y-120153895D01*
X130964052Y-120153895D02*
X130925686Y-120702555D01*
X130964052Y-120153895D02*
X131002418Y-119605235D01*
X130964052Y-120153895D02*
X131590493Y-119796723D01*
X131534687Y-120594775D02*
X130964052Y-120153895D01*
X131562590Y-120195749D02*
X132061372Y-120230627D01*
X131590493Y-119796723D02*
X131534687Y-120594775D01*
%TO.C,D11*%
X87491870Y-186309076D02*
X87891626Y-186323036D01*
X87891626Y-186323036D02*
X87872431Y-186872701D01*
X87891626Y-186323036D02*
X87910821Y-185773371D01*
X87891626Y-186323036D02*
X88505222Y-185944220D01*
X88477301Y-186743732D02*
X87891626Y-186323036D01*
X88491261Y-186343976D02*
X88990956Y-186361426D01*
X88505222Y-185944220D02*
X88477301Y-186743732D01*
%TO.C,D28*%
X149518743Y-121451366D02*
X149917769Y-121479268D01*
X149917769Y-121479268D02*
X149879403Y-122027928D01*
X149917769Y-121479268D02*
X149956135Y-120930608D01*
X149917769Y-121479268D02*
X150544210Y-121122096D01*
X150488404Y-121920148D02*
X149917769Y-121479268D01*
X150516307Y-121521122D02*
X151015089Y-121556000D01*
X150544210Y-121122096D02*
X150488404Y-121920148D01*
%TO.C,D5*%
X49250000Y-119000000D02*
X49650000Y-119000000D01*
X49650000Y-119000000D02*
X49650000Y-118450000D01*
X49650000Y-119000000D02*
X49650000Y-119550000D01*
X49650000Y-119000000D02*
X50250000Y-118600000D01*
X50250000Y-118600000D02*
X50250000Y-119400000D01*
X50250000Y-119000000D02*
X50750000Y-119000000D01*
X50250000Y-119400000D02*
X49650000Y-119000000D01*
%TO.C,D7*%
X68668972Y-170990566D02*
X69068911Y-170997547D01*
X69068911Y-170997547D02*
X69059312Y-171547463D01*
X69068911Y-170997547D02*
X69078510Y-170447630D01*
X69068911Y-170997547D02*
X69675801Y-170608079D01*
X69661839Y-171407957D02*
X69068911Y-170997547D01*
X69668820Y-171008018D02*
X70168744Y-171016744D01*
X69675801Y-170608079D02*
X69661839Y-171407957D01*
%TO.C,D14*%
X89481142Y-129343799D02*
X89880898Y-129357759D01*
X89880898Y-129357759D02*
X89861703Y-129907424D01*
X89880898Y-129357759D02*
X89900093Y-128808094D01*
X89880898Y-129357759D02*
X90494494Y-128978943D01*
X90466573Y-129778455D02*
X89880898Y-129357759D01*
X90480533Y-129378699D02*
X90980228Y-129396149D01*
X90494494Y-128978943D02*
X90466573Y-129778455D01*
%TO.C,D2*%
X49250000Y-176000000D02*
X49650000Y-176000000D01*
X49650000Y-176000000D02*
X49650000Y-175450000D01*
X49650000Y-176000000D02*
X49650000Y-176550000D01*
X49650000Y-176000000D02*
X50250000Y-175600000D01*
X50250000Y-175600000D02*
X50250000Y-176400000D01*
X50250000Y-176000000D02*
X50750000Y-176000000D01*
X50250000Y-176400000D02*
X49650000Y-176000000D01*
%TO.C,D4*%
X49250000Y-138000000D02*
X49650000Y-138000000D01*
X49650000Y-138000000D02*
X49650000Y-137450000D01*
X49650000Y-138000000D02*
X49650000Y-138550000D01*
X49650000Y-138000000D02*
X50250000Y-137600000D01*
X50250000Y-137600000D02*
X50250000Y-138400000D01*
X50250000Y-138000000D02*
X50750000Y-138000000D01*
X50250000Y-138400000D02*
X49650000Y-138000000D01*
%TO.C,D25*%
X145542624Y-178312517D02*
X145941650Y-178340419D01*
X145941650Y-178340419D02*
X145903284Y-178889079D01*
X145941650Y-178340419D02*
X145980016Y-177791759D01*
X145941650Y-178340419D02*
X146568091Y-177983247D01*
X146512285Y-178781299D02*
X145941650Y-178340419D01*
X146540188Y-178382273D02*
X147038970Y-178417151D01*
X146568091Y-177983247D02*
X146512285Y-178781299D01*
%TO.C,D22*%
X127914280Y-158033427D02*
X128313306Y-158061329D01*
X128313306Y-158061329D02*
X128274940Y-158609989D01*
X128313306Y-158061329D02*
X128351672Y-157512669D01*
X128313306Y-158061329D02*
X128939747Y-157704157D01*
X128883941Y-158502209D02*
X128313306Y-158061329D01*
X128911844Y-158103183D02*
X129410626Y-158138061D01*
X128939747Y-157704157D02*
X128883941Y-158502209D01*
%TO.C,D10*%
X69663759Y-113999248D02*
X70063698Y-114006229D01*
X70063698Y-114006229D02*
X70054099Y-114556145D01*
X70063698Y-114006229D02*
X70073297Y-113456312D01*
X70063698Y-114006229D02*
X70670588Y-113616761D01*
X70656626Y-114416639D02*
X70063698Y-114006229D01*
X70663607Y-114016700D02*
X71163531Y-114025426D01*
X70670588Y-113616761D02*
X70656626Y-114416639D01*
%TO.C,D1*%
X49250000Y-195000000D02*
X49650000Y-195000000D01*
X49650000Y-195000000D02*
X49650000Y-194450000D01*
X49650000Y-195000000D02*
X49650000Y-195550000D01*
X49650000Y-195000000D02*
X50250000Y-194600000D01*
X50250000Y-194600000D02*
X50250000Y-195400000D01*
X50250000Y-195000000D02*
X50750000Y-195000000D01*
X50250000Y-195400000D02*
X49650000Y-195000000D01*
%TO.C,D23*%
X129239653Y-139079710D02*
X129638679Y-139107612D01*
X129638679Y-139107612D02*
X129600313Y-139656272D01*
X129638679Y-139107612D02*
X129677045Y-138558952D01*
X129638679Y-139107612D02*
X130265120Y-138750440D01*
X130209314Y-139548492D02*
X129638679Y-139107612D01*
X130237217Y-139149466D02*
X130735999Y-139184344D01*
X130265120Y-138750440D02*
X130209314Y-139548492D01*
%TO.C,D21*%
X126588907Y-176987144D02*
X126987933Y-177015046D01*
X126987933Y-177015046D02*
X126949567Y-177563706D01*
X126987933Y-177015046D02*
X127026299Y-176466386D01*
X126987933Y-177015046D02*
X127614374Y-176657874D01*
X127558568Y-177455926D02*
X126987933Y-177015046D01*
X127586471Y-177056900D02*
X128085253Y-177091778D01*
X127614374Y-176657874D02*
X127558568Y-177455926D01*
%TO.C,D30*%
X152317722Y-205745769D02*
X152695929Y-205875996D01*
X152695929Y-205875996D02*
X152516867Y-206396031D01*
X152695929Y-205875996D02*
X152874992Y-205355961D01*
X152695929Y-205875996D02*
X153393468Y-205693130D01*
X153133012Y-206449544D02*
X152695929Y-205875996D01*
X153263241Y-206071337D02*
X153736000Y-206234121D01*
X153393468Y-205693130D02*
X153133012Y-206449544D01*
%TO.C,D27*%
X148193370Y-140405083D02*
X148592396Y-140432985D01*
X148592396Y-140432985D02*
X148554030Y-140981645D01*
X148592396Y-140432985D02*
X148630762Y-139884325D01*
X148592396Y-140432985D02*
X149218837Y-140075813D01*
X149163031Y-140873865D02*
X148592396Y-140432985D01*
X149190934Y-140474839D02*
X149689716Y-140509717D01*
X149218837Y-140075813D02*
X149163031Y-140873865D01*
%TO.C,D3*%
X49250000Y-157000000D02*
X49650000Y-157000000D01*
X49650000Y-157000000D02*
X49650000Y-156450000D01*
X49650000Y-157000000D02*
X49650000Y-157550000D01*
X49650000Y-157000000D02*
X50250000Y-156600000D01*
X50250000Y-156600000D02*
X50250000Y-157400000D01*
X50250000Y-157000000D02*
X50750000Y-157000000D01*
X50250000Y-157400000D02*
X49650000Y-157000000D01*
D13*
%TO.C,MCU1*%
X161319253Y-151387451D02*
X179055942Y-152627721D01*
X163622612Y-118447886D02*
X161319253Y-151387451D01*
X179055942Y-152627721D02*
X181359301Y-119688156D01*
X181359301Y-119688156D02*
X163622612Y-118447886D01*
D11*
%TO.C,D16*%
X106463351Y-189961068D02*
X106862803Y-189982002D01*
X106862803Y-189982002D02*
X106834018Y-190531249D01*
X106862803Y-189982002D02*
X106891587Y-189432756D01*
X106862803Y-189982002D02*
X107482915Y-189613952D01*
X107441046Y-190412856D02*
X106862803Y-189982002D01*
X107461980Y-190013404D02*
X107961295Y-190039572D01*
X107482915Y-189613952D02*
X107441046Y-190412856D01*
%TO.C,D19*%
X109446500Y-133039185D02*
X109845952Y-133060119D01*
X109845952Y-133060119D02*
X109817167Y-133609366D01*
X109845952Y-133060119D02*
X109874736Y-132510873D01*
X109845952Y-133060119D02*
X110466064Y-132692069D01*
X110424195Y-133490973D02*
X109845952Y-133060119D01*
X110445129Y-133091521D02*
X110944444Y-133117689D01*
X110466064Y-132692069D02*
X110424195Y-133490973D01*
%TO.C,D29*%
X134352869Y-199559974D02*
X134731076Y-199690201D01*
X134731076Y-199690201D02*
X134552014Y-200210236D01*
X134731076Y-199690201D02*
X134910139Y-199170166D01*
X134731076Y-199690201D02*
X135428615Y-199507335D01*
X135168159Y-200263749D02*
X134731076Y-199690201D01*
X135298388Y-199885542D02*
X135771147Y-200048326D01*
X135428615Y-199507335D02*
X135168159Y-200263749D01*
%TO.C,D20*%
X110440884Y-114065223D02*
X110840336Y-114086157D01*
X110840336Y-114086157D02*
X110811551Y-114635404D01*
X110840336Y-114086157D02*
X110869120Y-113536911D01*
X110840336Y-114086157D02*
X111460448Y-113718107D01*
X111418579Y-114517011D02*
X110840336Y-114086157D01*
X111439513Y-114117559D02*
X111938828Y-114143727D01*
X111460448Y-113718107D02*
X111418579Y-114517011D01*
%TO.C,D13*%
X88818051Y-148332224D02*
X89217807Y-148346184D01*
X89217807Y-148346184D02*
X89198612Y-148895849D01*
X89217807Y-148346184D02*
X89237002Y-147796519D01*
X89217807Y-148346184D02*
X89831403Y-147967368D01*
X89803482Y-148766880D02*
X89217807Y-148346184D01*
X89817442Y-148367124D02*
X90317137Y-148384574D01*
X89831403Y-147967368D02*
X89803482Y-148766880D01*
%TO.C,D12*%
X88154961Y-167320650D02*
X88554717Y-167334610D01*
X88554717Y-167334610D02*
X88535522Y-167884275D01*
X88554717Y-167334610D02*
X88573912Y-166784945D01*
X88554717Y-167334610D02*
X89168313Y-166955794D01*
X89140392Y-167755306D02*
X88554717Y-167334610D01*
X89154352Y-167355550D02*
X89654047Y-167373000D01*
X89168313Y-166955794D02*
X89140392Y-167755306D01*
%TO.C,D6*%
X68337376Y-189987673D02*
X68737315Y-189994654D01*
X68737315Y-189994654D02*
X68727716Y-190544570D01*
X68737315Y-189994654D02*
X68746914Y-189444737D01*
X68737315Y-189994654D02*
X69344205Y-189605186D01*
X69330243Y-190405064D02*
X68737315Y-189994654D01*
X69337224Y-190005125D02*
X69837148Y-190013851D01*
X69344205Y-189605186D02*
X69330243Y-190405064D01*
%TD*%
D14*
%TO.C,MCU1*%
X164623746Y-122337196D03*
X164446564Y-124871009D03*
X164269383Y-127404821D03*
X164092202Y-129938634D03*
X163915020Y-132472447D03*
X163737839Y-135006259D03*
X163560657Y-137540072D03*
X163383476Y-140073885D03*
X163206294Y-142607697D03*
X163029113Y-145141510D03*
X162851931Y-147675323D03*
X162674750Y-150209135D03*
X177877626Y-151272224D03*
X178054808Y-148738411D03*
X178231989Y-146204599D03*
X178409170Y-143670786D03*
X178586352Y-141136973D03*
X178763533Y-138603161D03*
X178940715Y-136069348D03*
X179117896Y-133535535D03*
X179295078Y-131001723D03*
X179472259Y-128467910D03*
X179649441Y-125934097D03*
X179826622Y-123400285D03*
X165562926Y-145318692D03*
X168096738Y-145495873D03*
X170630551Y-145673054D03*
%TD*%
M02*
