%TF.GenerationSoftware,KiCad,Pcbnew,8.0.4*%
%TF.CreationDate,2024-08-23T21:57:30-04:00*%
%TF.ProjectId,left,6c656674-2e6b-4696-9361-645f70636258,v1.0.0*%
%TF.SameCoordinates,Original*%
%TF.FileFunction,Copper,L1,Top*%
%TF.FilePolarity,Positive*%
%FSLAX46Y46*%
G04 Gerber Fmt 4.6, Leading zero omitted, Abs format (unit mm)*
G04 Created by KiCad (PCBNEW 8.0.4) date 2024-08-23 21:57:30*
%MOMM*%
%LPD*%
G01*
G04 APERTURE LIST*
G04 Aperture macros list*
%AMHorizOval*
0 Thick line with rounded ends*
0 $1 width*
0 $2 $3 position (X,Y) of the first rounded end (center of the circle)*
0 $4 $5 position (X,Y) of the second rounded end (center of the circle)*
0 Add line between two ends*
20,1,$1,$2,$3,$4,$5,0*
0 Add two circle primitives to create the rounded ends*
1,1,$1,$2,$3*
1,1,$1,$4,$5*%
%AMRotRect*
0 Rectangle, with rotation*
0 The origin of the aperture is its center*
0 $1 length*
0 $2 width*
0 $3 Rotation angle, in degrees counterclockwise*
0 Add horizontal line*
21,1,$1,$2,0,0,$3*%
G04 Aperture macros list end*
%TA.AperFunction,WasherPad*%
%ADD10C,1.000000*%
%TD*%
%TA.AperFunction,ComponentPad*%
%ADD11RotRect,1.778000X1.778000X359.000000*%
%TD*%
%TA.AperFunction,SMDPad,CuDef*%
%ADD12RotRect,0.900000X1.200000X359.000000*%
%TD*%
%TA.AperFunction,ComponentPad*%
%ADD13C,1.905000*%
%TD*%
%TA.AperFunction,ComponentPad*%
%ADD14RotRect,1.778000X1.778000X357.000000*%
%TD*%
%TA.AperFunction,SMDPad,CuDef*%
%ADD15RotRect,0.900000X1.200000X357.000000*%
%TD*%
%TA.AperFunction,ComponentPad*%
%ADD16RotRect,1.200000X1.700000X251.000000*%
%TD*%
%TA.AperFunction,ComponentPad*%
%ADD17HorizOval,1.200000X-0.236380X0.081392X0.236380X-0.081392X0*%
%TD*%
%TA.AperFunction,ComponentPad*%
%ADD18RotRect,1.778000X1.778000X358.000000*%
%TD*%
%TA.AperFunction,SMDPad,CuDef*%
%ADD19RotRect,0.900000X1.200000X358.000000*%
%TD*%
%TA.AperFunction,ComponentPad*%
%ADD20RotRect,1.778000X1.778000X356.000000*%
%TD*%
%TA.AperFunction,SMDPad,CuDef*%
%ADD21RotRect,0.900000X1.200000X356.000000*%
%TD*%
%TA.AperFunction,ComponentPad*%
%ADD22R,1.778000X1.778000*%
%TD*%
%TA.AperFunction,SMDPad,CuDef*%
%ADD23R,0.900000X1.200000*%
%TD*%
%TA.AperFunction,ComponentPad*%
%ADD24C,0.700000*%
%TD*%
%TA.AperFunction,ComponentPad*%
%ADD25C,4.400000*%
%TD*%
%TA.AperFunction,ComponentPad*%
%ADD26RotRect,1.778000X1.778000X341.000000*%
%TD*%
%TA.AperFunction,SMDPad,CuDef*%
%ADD27RotRect,0.900000X1.200000X341.000000*%
%TD*%
%TA.AperFunction,ComponentPad*%
%ADD28C,1.752600*%
%TD*%
%TA.AperFunction,Conductor*%
%ADD29C,0.250000*%
%TD*%
G04 APERTURE END LIST*
D10*
%TO.P,T1,*%
%TO.N,*%
X176959480Y-158599758D03*
X175982776Y-161436314D03*
%TD*%
D11*
%TO.P,D8,1*%
%TO.N,P017*%
X65941033Y-151940055D03*
D12*
X68100704Y-151977753D03*
%TO.P,D8,2*%
%TO.N,pinky_home*%
X71400202Y-152035345D03*
D13*
X73559873Y-152073043D03*
%TD*%
D14*
%TO.P,D18,1*%
%TO.N,P017*%
X105396310Y-151852998D03*
D15*
X107553350Y-151966044D03*
%TO.P,D18,2*%
%TO.N,middle_home*%
X110848828Y-152138752D03*
D13*
X113005868Y-152251798D03*
%TD*%
D16*
%TO.P,JST1,1*%
%TO.N,pos*%
X168328564Y-161550571D03*
D17*
%TO.P,JST1,2*%
%TO.N,GND*%
X167677428Y-163441609D03*
%TD*%
D18*
%TO.P,D15,1*%
%TO.N,P006*%
X87086096Y-110248581D03*
D19*
X89244780Y-110323964D03*
%TO.P,D15,2*%
%TO.N,ring_num*%
X92542770Y-110439132D03*
D13*
X94701454Y-110514515D03*
%TD*%
D14*
%TO.P,D17,1*%
%TO.N,P020*%
X104401927Y-170826959D03*
D15*
X106558967Y-170940005D03*
%TO.P,D17,2*%
%TO.N,middle_bottom*%
X109854445Y-171112713D03*
D13*
X112011485Y-171225759D03*
%TD*%
D11*
%TO.P,D9,1*%
%TO.N,P008*%
X66272629Y-132942949D03*
D12*
X68432300Y-132980647D03*
%TO.P,D9,2*%
%TO.N,pinky_top*%
X71731798Y-133038239D03*
D13*
X73891469Y-133075937D03*
%TD*%
D20*
%TO.P,D26,1*%
%TO.N,P017*%
X143815451Y-159145345D03*
D21*
X145970189Y-159296019D03*
%TO.P,D26,2*%
%TO.N,inner_home*%
X149262151Y-159526215D03*
D13*
X151416889Y-159676889D03*
%TD*%
D20*
%TO.P,D24,1*%
%TO.N,P006*%
X127512480Y-119912538D03*
D21*
X129667218Y-120063212D03*
%TO.P,D24,2*%
%TO.N,index_num*%
X132959180Y-120293408D03*
D13*
X135113918Y-120444082D03*
%TD*%
D18*
%TO.P,D11,1*%
%TO.N,P022*%
X84433734Y-186202284D03*
D19*
X86592418Y-186277667D03*
%TO.P,D11,2*%
%TO.N,ring_mod*%
X89890408Y-186392835D03*
D13*
X92049092Y-186468218D03*
%TD*%
D20*
%TO.P,D28,1*%
%TO.N,P006*%
X146466197Y-121237911D03*
D21*
X148620935Y-121388585D03*
%TO.P,D28,2*%
%TO.N,inner_num*%
X151912897Y-121618781D03*
D13*
X154067635Y-121769455D03*
%TD*%
D22*
%TO.P,D5,1*%
%TO.N,P006*%
X46190000Y-119000000D03*
D23*
X48350000Y-119000000D03*
%TO.P,D5,2*%
%TO.N,outer_num*%
X51650000Y-119000000D03*
D13*
X53810000Y-119000000D03*
%TD*%
D11*
%TO.P,D7,1*%
%TO.N,P020*%
X65609438Y-170937161D03*
D12*
X67769109Y-170974859D03*
%TO.P,D7,2*%
%TO.N,pinky_bottom*%
X71068607Y-171032451D03*
D13*
X73228278Y-171070149D03*
%TD*%
D18*
%TO.P,D14,1*%
%TO.N,P008*%
X86423006Y-129237007D03*
D19*
X88581690Y-129312390D03*
%TO.P,D14,2*%
%TO.N,ring_top*%
X91879680Y-129427558D03*
D13*
X94038364Y-129502941D03*
%TD*%
D22*
%TO.P,D2,1*%
%TO.N,P020*%
X46190000Y-176000000D03*
D23*
X48350000Y-176000000D03*
%TO.P,D2,2*%
%TO.N,outer_bottom*%
X51650000Y-176000000D03*
D13*
X53810000Y-176000000D03*
%TD*%
D22*
%TO.P,D4,1*%
%TO.N,P008*%
X46190000Y-138000000D03*
D23*
X48350000Y-138000000D03*
%TO.P,D4,2*%
%TO.N,outer_top*%
X51650000Y-138000000D03*
D13*
X53810000Y-138000000D03*
%TD*%
D20*
%TO.P,D25,1*%
%TO.N,P020*%
X142490078Y-178099062D03*
D21*
X144644816Y-178249736D03*
%TO.P,D25,2*%
%TO.N,inner_bottom*%
X147936778Y-178479932D03*
D13*
X150091516Y-178630606D03*
%TD*%
D20*
%TO.P,D22,1*%
%TO.N,P017*%
X124861734Y-157819972D03*
D21*
X127016472Y-157970646D03*
%TO.P,D22,2*%
%TO.N,index_home*%
X130308434Y-158200842D03*
D13*
X132463172Y-158351516D03*
%TD*%
D11*
%TO.P,D10,1*%
%TO.N,P006*%
X66604225Y-113945843D03*
D12*
X68763896Y-113983541D03*
%TO.P,D10,2*%
%TO.N,pinky_num*%
X72063394Y-114041133D03*
D13*
X74223065Y-114078831D03*
%TD*%
D22*
%TO.P,D1,1*%
%TO.N,P022*%
X46190000Y-195000000D03*
D23*
X48350000Y-195000000D03*
%TO.P,D1,2*%
%TO.N,outer_mod*%
X51650000Y-195000000D03*
D13*
X53810000Y-195000000D03*
%TD*%
D20*
%TO.P,D23,1*%
%TO.N,P008*%
X126187107Y-138866255D03*
D21*
X128341845Y-139016929D03*
%TO.P,D23,2*%
%TO.N,index_top*%
X131633807Y-139247125D03*
D13*
X133788545Y-139397799D03*
%TD*%
D24*
%TO.P,_4,1*%
%TO.N,N/C*%
X138701146Y-134227892D03*
X139264630Y-133097719D03*
X139101856Y-135425487D03*
X140462225Y-132697009D03*
D25*
X140347127Y-134342990D03*
D24*
X140232029Y-135988971D03*
X141592398Y-133260493D03*
X141429624Y-135588261D03*
X141993108Y-134458088D03*
%TD*%
%TO.P,_2,1*%
%TO.N,N/C*%
X57350000Y-189800000D03*
X57833274Y-188633274D03*
X57833274Y-190966726D03*
X59000000Y-188150000D03*
D25*
X59000000Y-189800000D03*
D24*
X59000000Y-191450000D03*
X60166726Y-188633274D03*
X60166726Y-190966726D03*
X60650000Y-189800000D03*
%TD*%
D20*
%TO.P,D21,1*%
%TO.N,P020*%
X123536361Y-176773689D03*
D21*
X125691099Y-176924363D03*
%TO.P,D21,2*%
%TO.N,index_bottom*%
X128983061Y-177154559D03*
D13*
X131137799Y-177305233D03*
%TD*%
D26*
%TO.P,D30,1*%
%TO.N,P022*%
X149424435Y-204749530D03*
D27*
X151466755Y-205452758D03*
%TO.P,D30,2*%
%TO.N,mod_thumb*%
X154586967Y-206527132D03*
D13*
X156629287Y-207230360D03*
%TD*%
D20*
%TO.P,D27,1*%
%TO.N,P008*%
X145140824Y-140191628D03*
D21*
X147295562Y-140342302D03*
%TO.P,D27,2*%
%TO.N,inner_top*%
X150587524Y-140572498D03*
D13*
X152742262Y-140723172D03*
%TD*%
D24*
%TO.P,_3,1*%
%TO.N,N/C*%
X97859149Y-164976519D03*
X98402823Y-163836684D03*
X98280699Y-166166938D03*
X99593242Y-163415134D03*
D25*
X99506888Y-165062873D03*
D24*
X99420534Y-166710612D03*
X100733077Y-163958808D03*
X100610953Y-166289062D03*
X101154627Y-165149227D03*
%TD*%
%TO.P,_1,1*%
%TO.N,N/C*%
X57350000Y-132500000D03*
X57833274Y-131333274D03*
X57833274Y-133666726D03*
X59000000Y-130850000D03*
D25*
X59000000Y-132500000D03*
D24*
X59000000Y-134150000D03*
X60166726Y-131333274D03*
X60166726Y-133666726D03*
X60650000Y-132500000D03*
%TD*%
D22*
%TO.P,D3,1*%
%TO.N,P017*%
X46190000Y-157000000D03*
D23*
X48350000Y-157000000D03*
%TO.P,D3,2*%
%TO.N,outer_home*%
X51650000Y-157000000D03*
D13*
X53810000Y-157000000D03*
%TD*%
D24*
%TO.P,_5,1*%
%TO.N,N/C*%
X154266641Y-197321298D03*
X155103435Y-196375475D03*
X154343737Y-198581797D03*
X156363934Y-196298379D03*
D25*
X155826747Y-197858485D03*
D24*
X155289560Y-199418591D03*
X157309757Y-197135173D03*
X156550059Y-199341495D03*
X157386853Y-198395672D03*
%TD*%
D28*
%TO.P,MCU1,1*%
%TO.N,P006*%
X164623746Y-122337196D03*
%TO.P,MCU1,2*%
%TO.N,P008*%
X164446564Y-124871009D03*
%TO.P,MCU1,3*%
%TO.N,GND*%
X164269383Y-127404821D03*
%TO.P,MCU1,4*%
X164092202Y-129938634D03*
%TO.P,MCU1,5*%
%TO.N,P017*%
X163915020Y-132472447D03*
%TO.P,MCU1,6*%
%TO.N,P020*%
X163737839Y-135006259D03*
%TO.P,MCU1,7*%
%TO.N,P022*%
X163560657Y-137540072D03*
%TO.P,MCU1,8*%
%TO.N,P024*%
X163383476Y-140073885D03*
%TO.P,MCU1,9*%
%TO.N,P100*%
X163206294Y-142607697D03*
%TO.P,MCU1,10*%
%TO.N,P011*%
X163029113Y-145141510D03*
%TO.P,MCU1,11*%
%TO.N,P104*%
X162851931Y-147675323D03*
%TO.P,MCU1,12*%
%TO.N,P106*%
X162674750Y-150209135D03*
%TO.P,MCU1,13*%
%TO.N,P009*%
X177877626Y-151272224D03*
%TO.P,MCU1,14*%
%TO.N,P010*%
X178054808Y-148738411D03*
%TO.P,MCU1,15*%
%TO.N,P111*%
X178231989Y-146204599D03*
%TO.P,MCU1,16*%
%TO.N,P113*%
X178409170Y-143670786D03*
%TO.P,MCU1,17*%
%TO.N,P115*%
X178586352Y-141136973D03*
%TO.P,MCU1,18*%
%TO.N,P002*%
X178763533Y-138603161D03*
%TO.P,MCU1,19*%
%TO.N,P029*%
X178940715Y-136069348D03*
%TO.P,MCU1,20*%
%TO.N,P031*%
X179117896Y-133535535D03*
%TO.P,MCU1,21*%
%TO.N,VCC*%
X179295078Y-131001723D03*
%TO.P,MCU1,22*%
%TO.N,RST*%
X179472259Y-128467910D03*
%TO.P,MCU1,23*%
%TO.N,GND*%
X179649441Y-125934097D03*
%TO.P,MCU1,24*%
%TO.N,RAW*%
X179826622Y-123400285D03*
%TO.P,MCU1,31*%
%TO.N,P101*%
X165562926Y-145318692D03*
%TO.P,MCU1,32*%
%TO.N,P102*%
X168096738Y-145495873D03*
%TO.P,MCU1,33*%
%TO.N,P107*%
X170630551Y-145673054D03*
%TD*%
D14*
%TO.P,D16,1*%
%TO.N,P022*%
X103407544Y-189800920D03*
D15*
X105564584Y-189913966D03*
%TO.P,D16,2*%
%TO.N,middle_mod*%
X108860062Y-190086674D03*
D13*
X111017102Y-190199720D03*
%TD*%
D14*
%TO.P,D19,1*%
%TO.N,P008*%
X106390693Y-132879037D03*
D15*
X108547733Y-132992083D03*
%TO.P,D19,2*%
%TO.N,middle_top*%
X111843211Y-133164791D03*
D13*
X114000251Y-133277837D03*
%TD*%
D26*
%TO.P,D29,1*%
%TO.N,P022*%
X131459582Y-198563735D03*
D27*
X133501902Y-199266963D03*
%TO.P,D29,2*%
%TO.N,space_thumb*%
X136622114Y-200341337D03*
D13*
X138664434Y-201044565D03*
%TD*%
D14*
%TO.P,D20,1*%
%TO.N,P006*%
X107385077Y-113905075D03*
D15*
X109542117Y-114018121D03*
%TO.P,D20,2*%
%TO.N,middle_num*%
X112837595Y-114190829D03*
D13*
X114994635Y-114303875D03*
%TD*%
D18*
%TO.P,D13,1*%
%TO.N,P017*%
X85759915Y-148225432D03*
D19*
X87918599Y-148300815D03*
%TO.P,D13,2*%
%TO.N,ring_home*%
X91216589Y-148415983D03*
D13*
X93375273Y-148491366D03*
%TD*%
D18*
%TO.P,D12,1*%
%TO.N,P020*%
X85096825Y-167213858D03*
D19*
X87255509Y-167289241D03*
%TO.P,D12,2*%
%TO.N,ring_bottom*%
X90553499Y-167404409D03*
D13*
X92712183Y-167479792D03*
%TD*%
D11*
%TO.P,D6,1*%
%TO.N,P022*%
X65277842Y-189934268D03*
D12*
X67437513Y-189971966D03*
%TO.P,D6,2*%
%TO.N,pinky_mod*%
X70737011Y-190029558D03*
D13*
X72896682Y-190067256D03*
%TD*%
D29*
%TO.N,outer_mod*%
X51650000Y-195000000D02*
X53810000Y-195000000D01*
%TO.N,outer_bottom*%
X51650000Y-176000000D02*
X53810000Y-176000000D01*
%TO.N,outer_home*%
X53810000Y-157000000D02*
X51650000Y-157000000D01*
%TO.N,outer_top*%
X51650000Y-138000000D02*
X53810000Y-138000000D01*
%TO.N,outer_num*%
X53810000Y-119000000D02*
X51650000Y-119000000D01*
%TO.N,pinky_mod*%
X72858984Y-190029558D02*
X72896682Y-190067256D01*
X70737011Y-190029558D02*
X72858984Y-190029558D01*
%TO.N,pinky_bottom*%
X73190580Y-171032451D02*
X73228278Y-171070149D01*
X71068607Y-171032451D02*
X73190580Y-171032451D01*
%TO.N,pinky_home*%
X71437900Y-152073043D02*
X71400202Y-152035345D01*
X73559873Y-152073043D02*
X71437900Y-152073043D01*
%TO.N,pinky_top*%
X71731798Y-133038239D02*
X73853771Y-133038239D01*
X73853771Y-133038239D02*
X73891469Y-133075937D01*
%TO.N,pinky_num*%
X72101092Y-114078831D02*
X72063394Y-114041133D01*
X74223065Y-114078831D02*
X72101092Y-114078831D01*
%TO.N,ring_mod*%
X89890408Y-186392835D02*
X91973709Y-186392835D01*
X91973709Y-186392835D02*
X92049092Y-186468218D01*
%TO.N,ring_bottom*%
X90553499Y-167404409D02*
X92636800Y-167404409D01*
X92636800Y-167404409D02*
X92712183Y-167479792D01*
%TO.N,ring_home*%
X91291972Y-148491366D02*
X91216589Y-148415983D01*
X93375273Y-148491366D02*
X91291972Y-148491366D01*
%TO.N,ring_top*%
X91879680Y-129427558D02*
X93962981Y-129427558D01*
X93962981Y-129427558D02*
X94038364Y-129502941D01*
%TO.N,ring_num*%
X92618153Y-110514515D02*
X92542770Y-110439132D01*
X94701454Y-110514515D02*
X92618153Y-110514515D01*
%TO.N,middle_mod*%
X110904056Y-190086674D02*
X111017102Y-190199720D01*
X108860062Y-190086674D02*
X110904056Y-190086674D01*
%TO.N,middle_bottom*%
X109854445Y-171112713D02*
X111898439Y-171112713D01*
X111898439Y-171112713D02*
X112011485Y-171225759D01*
%TO.N,middle_home*%
X113005868Y-152251798D02*
X110961874Y-152251798D01*
X110961874Y-152251798D02*
X110848828Y-152138752D01*
%TO.N,middle_top*%
X111843211Y-133164791D02*
X113887205Y-133164791D01*
X113887205Y-133164791D02*
X114000251Y-133277837D01*
%TO.N,middle_num*%
X114994635Y-114303875D02*
X112950641Y-114303875D01*
X112950641Y-114303875D02*
X112837595Y-114190829D01*
%TO.N,index_bottom*%
X130987125Y-177154559D02*
X131137799Y-177305233D01*
X128983061Y-177154559D02*
X130987125Y-177154559D01*
%TO.N,index_home*%
X130459108Y-158351516D02*
X130308434Y-158200842D01*
X132463172Y-158351516D02*
X130459108Y-158351516D01*
%TO.N,index_top*%
X131633807Y-139247125D02*
X133637871Y-139247125D01*
X133637871Y-139247125D02*
X133788545Y-139397799D01*
%TO.N,index_num*%
X135113918Y-120444082D02*
X133109854Y-120444082D01*
X133109854Y-120444082D02*
X132959180Y-120293408D01*
%TO.N,inner_bottom*%
X147936778Y-178479932D02*
X149940842Y-178479932D01*
X149940842Y-178479932D02*
X150091516Y-178630606D01*
%TO.N,inner_home*%
X149412825Y-159676889D02*
X149262151Y-159526215D01*
X151416889Y-159676889D02*
X149412825Y-159676889D01*
%TO.N,inner_top*%
X150587524Y-140572498D02*
X152591588Y-140572498D01*
X152591588Y-140572498D02*
X152742262Y-140723172D01*
%TO.N,inner_num*%
X154067635Y-121769455D02*
X152063571Y-121769455D01*
X152063571Y-121769455D02*
X151912897Y-121618781D01*
%TO.N,space_thumb*%
X137961206Y-200341337D02*
X138664434Y-201044565D01*
X136622114Y-200341337D02*
X137961206Y-200341337D01*
%TO.N,mod_thumb*%
X154586967Y-206527132D02*
X155926059Y-206527132D01*
X155926059Y-206527132D02*
X156629287Y-207230360D01*
%TO.N,P006*%
X129667218Y-120063212D02*
X127663154Y-120063212D01*
X145982526Y-121721582D02*
X146466197Y-121237911D01*
X148620935Y-121388585D02*
X146616871Y-121388585D01*
X107385077Y-113905075D02*
X108690627Y-113905075D01*
X87086096Y-110248581D02*
X88544355Y-110248581D01*
X108690627Y-113905075D02*
X112785552Y-118000000D01*
X163913987Y-123046955D02*
X164623746Y-122337196D01*
X125599942Y-118000000D02*
X127512480Y-119912538D01*
X66604225Y-113945843D02*
X70301487Y-110248581D01*
X92200849Y-113905075D02*
X107385077Y-113905075D01*
X112785552Y-118000000D02*
X125599942Y-118000000D01*
X51244157Y-113945843D02*
X66604225Y-113945843D01*
X109542117Y-114018121D02*
X107498123Y-114018121D01*
X70301487Y-110248581D02*
X87086096Y-110248581D01*
X48350000Y-119000000D02*
X46190000Y-119000000D01*
X148620935Y-121388585D02*
X150279305Y-123046955D01*
X89244780Y-110323964D02*
X87161479Y-110323964D01*
X68763896Y-113983541D02*
X66641923Y-113983541D01*
X88544355Y-110248581D02*
X92200849Y-113905075D01*
X87161479Y-110323964D02*
X87086096Y-110248581D01*
X127663154Y-120063212D02*
X127512480Y-119912538D01*
X146616871Y-121388585D02*
X146466197Y-121237911D01*
X129321524Y-121721582D02*
X145982526Y-121721582D01*
X66641923Y-113983541D02*
X66604225Y-113945843D01*
X150279305Y-123046955D02*
X163913987Y-123046955D01*
X127512480Y-119912538D02*
X129321524Y-121721582D01*
X46190000Y-119000000D02*
X51244157Y-113945843D01*
X107498123Y-114018121D02*
X107385077Y-113905075D01*
%TO.N,P008*%
X69978571Y-129237007D02*
X86423006Y-129237007D01*
X86423006Y-129237007D02*
X88506307Y-129237007D01*
X66272629Y-132942949D02*
X69978571Y-129237007D01*
X46190000Y-138000000D02*
X48350000Y-138000000D01*
X155279709Y-134037864D02*
X164446564Y-124871009D01*
X147295562Y-140342302D02*
X153600000Y-134037864D01*
X126187107Y-138866255D02*
X126761166Y-138292196D01*
X64190578Y-135025000D02*
X66272629Y-132942949D01*
X68394602Y-132942949D02*
X68432300Y-132980647D01*
X106390693Y-132879037D02*
X108434687Y-132879037D01*
X126761166Y-138292196D02*
X132692196Y-138292196D01*
X153600000Y-134037864D02*
X155279709Y-134037864D01*
X132864093Y-138120299D02*
X143069495Y-138120299D01*
X88506307Y-129237007D02*
X88581690Y-129312390D01*
X66272629Y-132942949D02*
X68394602Y-132942949D01*
X128191171Y-138866255D02*
X128341845Y-139016929D01*
X132692196Y-138292196D02*
X132864093Y-138120299D01*
X106390693Y-132879037D02*
X108982584Y-135470928D01*
X46190000Y-138000000D02*
X49165000Y-135025000D01*
X108982584Y-135470928D02*
X122791780Y-135470928D01*
X105711656Y-132200000D02*
X106390693Y-132879037D01*
X147144888Y-140191628D02*
X147295562Y-140342302D01*
X126187107Y-138866255D02*
X128191171Y-138866255D01*
X49165000Y-135025000D02*
X64190578Y-135025000D01*
X145140824Y-140191628D02*
X147144888Y-140191628D01*
X86423006Y-129237007D02*
X89385999Y-132200000D01*
X89385999Y-132200000D02*
X105711656Y-132200000D01*
X143069495Y-138120299D02*
X145140824Y-140191628D01*
X108434687Y-132879037D02*
X108547733Y-132992083D01*
X122791780Y-135470928D02*
X126187107Y-138866255D01*
%TO.N,P017*%
X145970189Y-159296019D02*
X157800000Y-147466208D01*
X143331780Y-159629016D02*
X143815451Y-159145345D01*
X124861734Y-157819972D02*
X126670778Y-159629016D01*
X85759915Y-148225432D02*
X87134483Y-149600000D01*
X106701861Y-151852998D02*
X110848863Y-156000000D01*
X107553350Y-151966044D02*
X105509356Y-151966044D01*
X125012408Y-157970646D02*
X124861734Y-157819972D01*
X46190000Y-157000000D02*
X51249945Y-151940055D01*
X145970189Y-159296019D02*
X143966125Y-159296019D01*
X143966125Y-159296019D02*
X143815451Y-159145345D01*
X126670778Y-159629016D02*
X143331780Y-159629016D01*
X94652998Y-151852998D02*
X105396310Y-151852998D01*
X105509356Y-151966044D02*
X105396310Y-151852998D01*
X69655656Y-148225432D02*
X85759915Y-148225432D01*
X157800000Y-138587467D02*
X163915020Y-132472447D01*
X65941033Y-151940055D02*
X69655656Y-148225432D01*
X68100704Y-151977753D02*
X65978731Y-151977753D01*
X65978731Y-151977753D02*
X65941033Y-151940055D01*
X123041762Y-156000000D02*
X124861734Y-157819972D01*
X48350000Y-157000000D02*
X46190000Y-157000000D01*
X110848863Y-156000000D02*
X123041762Y-156000000D01*
X127016472Y-157970646D02*
X125012408Y-157970646D01*
X105396310Y-151852998D02*
X106701861Y-151852998D01*
X92400000Y-149600000D02*
X94652998Y-151852998D01*
X157800000Y-147466208D02*
X157800000Y-138587467D01*
X87918599Y-148300815D02*
X85835298Y-148300815D01*
X85835298Y-148300815D02*
X85759915Y-148225432D01*
X87134483Y-149600000D02*
X92400000Y-149600000D01*
X51249945Y-151940055D02*
X65941033Y-151940055D01*
%TO.N,P020*%
X123536361Y-176773689D02*
X125540425Y-176773689D01*
X123536361Y-176773689D02*
X125345405Y-178582733D01*
X69332741Y-167213858D02*
X85096825Y-167213858D01*
X142490078Y-178099062D02*
X144494142Y-178099062D01*
X125540425Y-176773689D02*
X125691099Y-176924363D01*
X104401927Y-170826959D02*
X107374968Y-173800000D01*
X46190000Y-176000000D02*
X51252839Y-170937161D01*
X104401927Y-170826959D02*
X106445921Y-170826959D01*
X120562672Y-173800000D02*
X123536361Y-176773689D01*
X51252839Y-170937161D02*
X65609438Y-170937161D01*
X67731411Y-170937161D02*
X67769109Y-170974859D01*
X85096825Y-167213858D02*
X86482967Y-168600000D01*
X106445921Y-170826959D02*
X106558967Y-170940005D01*
X46190000Y-176000000D02*
X48350000Y-176000000D01*
X91800000Y-168600000D02*
X94026959Y-170826959D01*
X142006407Y-178582733D02*
X142490078Y-178099062D01*
X144494142Y-178099062D02*
X144644816Y-178249736D01*
X65609438Y-170937161D02*
X69332741Y-167213858D01*
X87180126Y-167213858D02*
X87255509Y-167289241D01*
X65609438Y-170937161D02*
X67731411Y-170937161D01*
X158400000Y-140344098D02*
X163737839Y-135006259D01*
X125345405Y-178582733D02*
X142006407Y-178582733D01*
X85096825Y-167213858D02*
X87180126Y-167213858D01*
X144644816Y-178249736D02*
X158400000Y-164494552D01*
X158400000Y-164494552D02*
X158400000Y-140344098D01*
X107374968Y-173800000D02*
X120562672Y-173800000D01*
X94026959Y-170826959D02*
X104401927Y-170826959D01*
X86482967Y-168600000D02*
X91800000Y-168600000D01*
%TO.N,P022*%
X48350000Y-195000000D02*
X51025000Y-192325000D01*
X132798674Y-198563735D02*
X133501902Y-199266963D01*
X62887110Y-192325000D02*
X65277842Y-189934268D01*
X69009826Y-186202284D02*
X84433734Y-186202284D01*
X159200000Y-165720111D02*
X159200000Y-140400000D01*
X65277842Y-189934268D02*
X67399815Y-189934268D01*
X162059928Y-137540072D02*
X163560657Y-137540072D01*
X124373067Y-191477220D02*
X131459582Y-198563735D01*
X103407544Y-189800920D02*
X105083844Y-191477220D01*
X143236265Y-181683846D02*
X159200000Y-165720111D01*
X103407544Y-189800920D02*
X105451538Y-189800920D01*
X89490630Y-189800920D02*
X103407544Y-189800920D01*
X46190000Y-195000000D02*
X48350000Y-195000000D01*
X84433734Y-186202284D02*
X86517035Y-186202284D01*
X159200000Y-140400000D02*
X162059928Y-137540072D01*
X85891994Y-186202284D02*
X89490630Y-189800920D01*
X84433734Y-186202284D02*
X85891994Y-186202284D01*
X105451538Y-189800920D02*
X105564584Y-189913966D01*
X150763527Y-204749530D02*
X151466755Y-205452758D01*
X67399815Y-189934268D02*
X67437513Y-189971966D01*
X143236265Y-198563735D02*
X143236265Y-181683846D01*
X149424435Y-204749530D02*
X150763527Y-204749530D01*
X131459582Y-198563735D02*
X143236265Y-198563735D01*
X131459582Y-198563735D02*
X132798674Y-198563735D01*
X143236265Y-198563735D02*
X143238640Y-198563735D01*
X143238640Y-198563735D02*
X149424435Y-204749530D01*
X51025000Y-192325000D02*
X62887110Y-192325000D01*
X86517035Y-186202284D02*
X86592418Y-186277667D01*
X105083844Y-191477220D02*
X124373067Y-191477220D01*
X65277842Y-189934268D02*
X69009826Y-186202284D01*
%TD*%
M02*
