%TF.GenerationSoftware,KiCad,Pcbnew,8.0.4*%
%TF.CreationDate,2024-08-23T23:48:41-04:00*%
%TF.ProjectId,right,72696768-742e-46b6-9963-61645f706362,v1.0.0*%
%TF.SameCoordinates,Original*%
%TF.FileFunction,Legend,Bot*%
%TF.FilePolarity,Positive*%
%FSLAX46Y46*%
G04 Gerber Fmt 4.6, Leading zero omitted, Abs format (unit mm)*
G04 Created by KiCad (PCBNEW 8.0.4) date 2024-08-23 23:48:41*
%MOMM*%
%LPD*%
G01*
G04 APERTURE LIST*
%ADD10C,0.150000*%
%ADD11C,0.381000*%
%ADD12C,0.120000*%
%ADD13C,0.100000*%
%ADD14C,1.752600*%
G04 APERTURE END LIST*
D10*
X233647771Y-122809793D02*
X233887215Y-122411167D01*
X234103801Y-122777904D02*
X234047995Y-121979853D01*
X234047995Y-121979853D02*
X233743976Y-122001112D01*
X233743976Y-122001112D02*
X233670628Y-122044429D01*
X233670628Y-122044429D02*
X233635283Y-122085089D01*
X233635283Y-122085089D02*
X233602596Y-122163752D01*
X233602596Y-122163752D02*
X233610568Y-122277759D01*
X233610568Y-122277759D02*
X233653885Y-122351106D01*
X233653885Y-122351106D02*
X233694545Y-122386451D01*
X233694545Y-122386451D02*
X233773207Y-122419139D01*
X233773207Y-122419139D02*
X234077227Y-122397880D01*
X233327807Y-122603038D02*
X232947783Y-122629611D01*
X233419757Y-122825737D02*
X233097934Y-122046288D01*
X233097934Y-122046288D02*
X232887723Y-122862941D01*
X232641905Y-122078177D02*
X232507698Y-122889515D01*
X232507698Y-122889515D02*
X232315828Y-122330108D01*
X232315828Y-122330108D02*
X232203679Y-122910774D01*
X232203679Y-122910774D02*
X231957862Y-122126010D01*
X233809807Y-124580900D02*
X233883154Y-124537583D01*
X233883154Y-124537583D02*
X233997161Y-124529611D01*
X233997161Y-124529611D02*
X234113826Y-124559641D01*
X234113826Y-124559641D02*
X234195146Y-124630331D01*
X234195146Y-124630331D02*
X234238463Y-124703679D01*
X234238463Y-124703679D02*
X234287095Y-124853031D01*
X234287095Y-124853031D02*
X234295067Y-124967038D01*
X234295067Y-124967038D02*
X234267694Y-125121706D01*
X234267694Y-125121706D02*
X234235007Y-125200368D01*
X234235007Y-125200368D02*
X234164316Y-125281687D01*
X234164316Y-125281687D02*
X234052967Y-125327662D01*
X234052967Y-125327662D02*
X233976962Y-125332977D01*
X233976962Y-125332977D02*
X233860297Y-125302947D01*
X233860297Y-125302947D02*
X233819637Y-125267602D01*
X233819637Y-125267602D02*
X233801035Y-125001584D01*
X233801035Y-125001584D02*
X233953045Y-124990955D01*
X233482930Y-125367523D02*
X233427125Y-124569472D01*
X233427125Y-124569472D02*
X233026901Y-125399412D01*
X233026901Y-125399412D02*
X232971096Y-124601360D01*
X232646877Y-125425985D02*
X232591071Y-124627934D01*
X232591071Y-124627934D02*
X232401059Y-124641221D01*
X232401059Y-124641221D02*
X232289709Y-124687196D01*
X232289709Y-124687196D02*
X232219019Y-124768515D01*
X232219019Y-124768515D02*
X232186331Y-124847178D01*
X232186331Y-124847178D02*
X232158959Y-125001845D01*
X232158959Y-125001845D02*
X232166931Y-125115852D01*
X232166931Y-125115852D02*
X232215563Y-125265205D01*
X232215563Y-125265205D02*
X232258880Y-125338552D01*
X232258880Y-125338552D02*
X232340200Y-125409242D01*
X232340200Y-125409242D02*
X232456864Y-125439272D01*
X232456864Y-125439272D02*
X232646877Y-125425985D01*
X234002134Y-127877418D02*
X234241577Y-127478792D01*
X234458163Y-127845530D02*
X234402358Y-127047478D01*
X234402358Y-127047478D02*
X234098338Y-127068737D01*
X234098338Y-127068737D02*
X234024991Y-127112055D01*
X234024991Y-127112055D02*
X233989646Y-127152714D01*
X233989646Y-127152714D02*
X233956958Y-127231377D01*
X233956958Y-127231377D02*
X233964930Y-127345384D01*
X233964930Y-127345384D02*
X234008247Y-127418732D01*
X234008247Y-127418732D02*
X234048907Y-127454077D01*
X234048907Y-127454077D02*
X234127570Y-127486764D01*
X234127570Y-127486764D02*
X234431589Y-127465505D01*
X233695457Y-127860675D02*
X233584107Y-127906650D01*
X233584107Y-127906650D02*
X233394095Y-127919936D01*
X233394095Y-127919936D02*
X233315432Y-127887249D01*
X233315432Y-127887249D02*
X233274773Y-127851904D01*
X233274773Y-127851904D02*
X233231455Y-127778556D01*
X233231455Y-127778556D02*
X233226141Y-127702551D01*
X233226141Y-127702551D02*
X233258828Y-127623889D01*
X233258828Y-127623889D02*
X233294173Y-127583229D01*
X233294173Y-127583229D02*
X233367521Y-127539912D01*
X233367521Y-127539912D02*
X233516873Y-127491280D01*
X233516873Y-127491280D02*
X233590221Y-127447963D01*
X233590221Y-127447963D02*
X233625566Y-127407303D01*
X233625566Y-127407303D02*
X233658253Y-127328641D01*
X233658253Y-127328641D02*
X233652939Y-127252636D01*
X233652939Y-127252636D02*
X233609621Y-127179288D01*
X233609621Y-127179288D02*
X233568962Y-127143943D01*
X233568962Y-127143943D02*
X233490299Y-127111256D01*
X233490299Y-127111256D02*
X233300287Y-127124543D01*
X233300287Y-127124543D02*
X233188937Y-127170517D01*
X232958265Y-127148459D02*
X232502236Y-127180348D01*
X232786055Y-127962455D02*
X232730250Y-127164403D01*
X234699865Y-129572877D02*
X234489653Y-130389530D01*
X234489653Y-130389530D02*
X234167831Y-129610081D01*
X233496275Y-130382617D02*
X233536935Y-130417962D01*
X233536935Y-130417962D02*
X233653600Y-130447993D01*
X233653600Y-130447993D02*
X233729605Y-130442678D01*
X233729605Y-130442678D02*
X233840954Y-130396703D01*
X233840954Y-130396703D02*
X233911645Y-130315384D01*
X233911645Y-130315384D02*
X233944332Y-130236721D01*
X233944332Y-130236721D02*
X233971705Y-130082054D01*
X233971705Y-130082054D02*
X233963733Y-129968047D01*
X233963733Y-129968047D02*
X233915101Y-129818694D01*
X233915101Y-129818694D02*
X233871784Y-129745347D01*
X233871784Y-129745347D02*
X233790464Y-129674657D01*
X233790464Y-129674657D02*
X233673799Y-129644627D01*
X233673799Y-129644627D02*
X233597794Y-129649941D01*
X233597794Y-129649941D02*
X233486445Y-129695916D01*
X233486445Y-129695916D02*
X233451099Y-129736576D01*
X232698224Y-130438422D02*
X232738884Y-130473767D01*
X232738884Y-130473767D02*
X232855548Y-130503798D01*
X232855548Y-130503798D02*
X232931553Y-130498483D01*
X232931553Y-130498483D02*
X233042903Y-130452508D01*
X233042903Y-130452508D02*
X233113593Y-130371189D01*
X233113593Y-130371189D02*
X233146281Y-130292526D01*
X233146281Y-130292526D02*
X233173654Y-130137859D01*
X233173654Y-130137859D02*
X233165682Y-130023852D01*
X233165682Y-130023852D02*
X233117050Y-129874500D01*
X233117050Y-129874500D02*
X233073732Y-129801152D01*
X233073732Y-129801152D02*
X232992413Y-129730462D01*
X232992413Y-129730462D02*
X232875748Y-129700432D01*
X232875748Y-129700432D02*
X232799743Y-129705747D01*
X232799743Y-129705747D02*
X232688393Y-129751721D01*
X232688393Y-129751721D02*
X232653048Y-129792381D01*
X234611030Y-132125292D02*
X234535025Y-132130607D01*
X234535025Y-132130607D02*
X234461677Y-132173924D01*
X234461677Y-132173924D02*
X234426332Y-132214584D01*
X234426332Y-132214584D02*
X234393645Y-132293246D01*
X234393645Y-132293246D02*
X234366272Y-132447913D01*
X234366272Y-132447913D02*
X234379559Y-132637925D01*
X234379559Y-132637925D02*
X234428191Y-132787278D01*
X234428191Y-132787278D02*
X234471508Y-132860625D01*
X234471508Y-132860625D02*
X234512168Y-132895970D01*
X234512168Y-132895970D02*
X234590830Y-132928658D01*
X234590830Y-132928658D02*
X234666835Y-132923343D01*
X234666835Y-132923343D02*
X234740183Y-132880026D01*
X234740183Y-132880026D02*
X234775528Y-132839366D01*
X234775528Y-132839366D02*
X234808215Y-132760704D01*
X234808215Y-132760704D02*
X234835588Y-132606037D01*
X234835588Y-132606037D02*
X234822301Y-132416024D01*
X234822301Y-132416024D02*
X234773669Y-132266672D01*
X234773669Y-132266672D02*
X234730352Y-132193325D01*
X234730352Y-132193325D02*
X234689692Y-132157979D01*
X234689692Y-132157979D02*
X234611030Y-132125292D01*
X234078995Y-132162495D02*
X233584964Y-132197041D01*
X233584964Y-132197041D02*
X233872240Y-132482459D01*
X233872240Y-132482459D02*
X233758233Y-132490431D01*
X233758233Y-132490431D02*
X233684885Y-132533749D01*
X233684885Y-132533749D02*
X233649540Y-132574408D01*
X233649540Y-132574408D02*
X233616852Y-132653071D01*
X233616852Y-132653071D02*
X233630139Y-132843083D01*
X233630139Y-132843083D02*
X233673457Y-132916430D01*
X233673457Y-132916430D02*
X233714116Y-132951775D01*
X233714116Y-132951775D02*
X233792779Y-132984463D01*
X233792779Y-132984463D02*
X234020793Y-132968519D01*
X234020793Y-132968519D02*
X234094141Y-132925201D01*
X234094141Y-132925201D02*
X234129486Y-132884542D01*
X232880720Y-133048240D02*
X233336749Y-133016352D01*
X233108735Y-133032296D02*
X233052929Y-132234245D01*
X233052929Y-132234245D02*
X233136906Y-132342937D01*
X233136906Y-132342937D02*
X233218226Y-132413627D01*
X233218226Y-132413627D02*
X233296888Y-132446315D01*
X234788211Y-134659105D02*
X234712206Y-134664420D01*
X234712206Y-134664420D02*
X234638858Y-134707737D01*
X234638858Y-134707737D02*
X234603513Y-134748397D01*
X234603513Y-134748397D02*
X234570826Y-134827059D01*
X234570826Y-134827059D02*
X234543453Y-134981726D01*
X234543453Y-134981726D02*
X234556740Y-135171738D01*
X234556740Y-135171738D02*
X234605372Y-135321091D01*
X234605372Y-135321091D02*
X234648689Y-135394438D01*
X234648689Y-135394438D02*
X234689349Y-135429783D01*
X234689349Y-135429783D02*
X234768011Y-135462471D01*
X234768011Y-135462471D02*
X234844016Y-135457156D01*
X234844016Y-135457156D02*
X234917364Y-135413839D01*
X234917364Y-135413839D02*
X234952709Y-135373179D01*
X234952709Y-135373179D02*
X234985396Y-135294517D01*
X234985396Y-135294517D02*
X235012769Y-135139850D01*
X235012769Y-135139850D02*
X234999482Y-134949837D01*
X234999482Y-134949837D02*
X234950850Y-134800485D01*
X234950850Y-134800485D02*
X234907533Y-134727138D01*
X234907533Y-134727138D02*
X234866873Y-134691792D01*
X234866873Y-134691792D02*
X234788211Y-134659105D01*
X234223489Y-134774971D02*
X234182829Y-134739625D01*
X234182829Y-134739625D02*
X234104167Y-134706938D01*
X234104167Y-134706938D02*
X233914154Y-134720225D01*
X233914154Y-134720225D02*
X233840807Y-134763542D01*
X233840807Y-134763542D02*
X233805462Y-134804202D01*
X233805462Y-134804202D02*
X233772774Y-134882864D01*
X233772774Y-134882864D02*
X233778089Y-134958869D01*
X233778089Y-134958869D02*
X233824064Y-135070219D01*
X233824064Y-135070219D02*
X234311982Y-135494360D01*
X234311982Y-135494360D02*
X233817950Y-135528906D01*
X233437925Y-135555479D02*
X233285916Y-135566109D01*
X233285916Y-135566109D02*
X233207253Y-135533421D01*
X233207253Y-135533421D02*
X233166593Y-135498076D01*
X233166593Y-135498076D02*
X233082616Y-135389384D01*
X233082616Y-135389384D02*
X233033984Y-135240031D01*
X233033984Y-135240031D02*
X233012725Y-134936012D01*
X233012725Y-134936012D02*
X233045413Y-134857350D01*
X233045413Y-134857350D02*
X233080758Y-134816690D01*
X233080758Y-134816690D02*
X233154105Y-134773373D01*
X233154105Y-134773373D02*
X233306115Y-134762743D01*
X233306115Y-134762743D02*
X233384777Y-134795431D01*
X233384777Y-134795431D02*
X233425437Y-134830776D01*
X233425437Y-134830776D02*
X233468755Y-134904123D01*
X233468755Y-134904123D02*
X233482041Y-135094135D01*
X233482041Y-135094135D02*
X233449354Y-135172798D01*
X233449354Y-135172798D02*
X233414009Y-135213458D01*
X233414009Y-135213458D02*
X233340661Y-135256775D01*
X233340661Y-135256775D02*
X233188652Y-135267404D01*
X233188652Y-135267404D02*
X233109989Y-135234717D01*
X233109989Y-135234717D02*
X233069329Y-135199372D01*
X233069329Y-135199372D02*
X233026012Y-135126024D01*
X234965392Y-137192917D02*
X234889387Y-137198232D01*
X234889387Y-137198232D02*
X234816039Y-137241549D01*
X234816039Y-137241549D02*
X234780694Y-137282209D01*
X234780694Y-137282209D02*
X234748007Y-137360871D01*
X234748007Y-137360871D02*
X234720634Y-137515538D01*
X234720634Y-137515538D02*
X234733921Y-137705550D01*
X234733921Y-137705550D02*
X234782553Y-137854903D01*
X234782553Y-137854903D02*
X234825870Y-137928250D01*
X234825870Y-137928250D02*
X234866530Y-137963595D01*
X234866530Y-137963595D02*
X234945192Y-137996283D01*
X234945192Y-137996283D02*
X235021197Y-137990968D01*
X235021197Y-137990968D02*
X235094545Y-137947651D01*
X235094545Y-137947651D02*
X235129890Y-137906991D01*
X235129890Y-137906991D02*
X235162577Y-137828329D01*
X235162577Y-137828329D02*
X235189950Y-137673662D01*
X235189950Y-137673662D02*
X235176663Y-137483649D01*
X235176663Y-137483649D02*
X235128031Y-137334297D01*
X235128031Y-137334297D02*
X235084714Y-137260950D01*
X235084714Y-137260950D02*
X235044054Y-137225604D01*
X235044054Y-137225604D02*
X234965392Y-137192917D01*
X234205343Y-137246065D02*
X234129338Y-137251379D01*
X234129338Y-137251379D02*
X234055990Y-137294697D01*
X234055990Y-137294697D02*
X234020645Y-137335356D01*
X234020645Y-137335356D02*
X233987958Y-137414019D01*
X233987958Y-137414019D02*
X233960585Y-137568686D01*
X233960585Y-137568686D02*
X233973872Y-137758698D01*
X233973872Y-137758698D02*
X234022504Y-137908050D01*
X234022504Y-137908050D02*
X234065821Y-137981398D01*
X234065821Y-137981398D02*
X234106481Y-138016743D01*
X234106481Y-138016743D02*
X234185143Y-138049431D01*
X234185143Y-138049431D02*
X234261148Y-138044116D01*
X234261148Y-138044116D02*
X234334495Y-138000799D01*
X234334495Y-138000799D02*
X234369841Y-137960139D01*
X234369841Y-137960139D02*
X234402528Y-137881477D01*
X234402528Y-137881477D02*
X234429901Y-137726809D01*
X234429901Y-137726809D02*
X234416614Y-137536797D01*
X234416614Y-137536797D02*
X234367982Y-137387445D01*
X234367982Y-137387445D02*
X234324665Y-137314097D01*
X234324665Y-137314097D02*
X234284005Y-137278752D01*
X234284005Y-137278752D02*
X234205343Y-137246065D01*
X233640621Y-137361930D02*
X233599961Y-137326585D01*
X233599961Y-137326585D02*
X233521299Y-137293898D01*
X233521299Y-137293898D02*
X233331286Y-137307185D01*
X233331286Y-137307185D02*
X233257939Y-137350502D01*
X233257939Y-137350502D02*
X233222594Y-137391162D01*
X233222594Y-137391162D02*
X233189906Y-137469824D01*
X233189906Y-137469824D02*
X233195221Y-137545829D01*
X233195221Y-137545829D02*
X233241196Y-137657179D01*
X233241196Y-137657179D02*
X233729114Y-138081319D01*
X233729114Y-138081319D02*
X233235082Y-138115865D01*
X234932362Y-140543383D02*
X235388391Y-140511494D01*
X235160377Y-140527438D02*
X235104571Y-139729387D01*
X235104571Y-139729387D02*
X235188548Y-139838080D01*
X235188548Y-139838080D02*
X235269868Y-139908770D01*
X235269868Y-139908770D02*
X235348530Y-139941457D01*
X234172313Y-140596531D02*
X234628342Y-140564642D01*
X234400328Y-140580586D02*
X234344522Y-139782535D01*
X234344522Y-139782535D02*
X234428499Y-139891228D01*
X234428499Y-139891228D02*
X234509819Y-139961918D01*
X234509819Y-139961918D02*
X234588481Y-139994605D01*
X233394461Y-139848970D02*
X233774486Y-139822396D01*
X233774486Y-139822396D02*
X233839062Y-140199763D01*
X233839062Y-140199763D02*
X233798402Y-140164418D01*
X233798402Y-140164418D02*
X233719740Y-140131730D01*
X233719740Y-140131730D02*
X233529728Y-140145017D01*
X233529728Y-140145017D02*
X233456380Y-140188334D01*
X233456380Y-140188334D02*
X233421035Y-140228994D01*
X233421035Y-140228994D02*
X233388347Y-140307656D01*
X233388347Y-140307656D02*
X233401634Y-140497669D01*
X233401634Y-140497669D02*
X233444952Y-140571016D01*
X233444952Y-140571016D02*
X233485611Y-140606361D01*
X233485611Y-140606361D02*
X233564274Y-140639049D01*
X233564274Y-140639049D02*
X233754286Y-140625762D01*
X233754286Y-140625762D02*
X233827633Y-140582445D01*
X233827633Y-140582445D02*
X233862978Y-140541785D01*
X235109543Y-143077196D02*
X235565572Y-143045307D01*
X235337558Y-143061251D02*
X235281752Y-142263200D01*
X235281752Y-142263200D02*
X235365729Y-142371893D01*
X235365729Y-142371893D02*
X235447049Y-142442583D01*
X235447049Y-142442583D02*
X235525711Y-142475270D01*
X234349494Y-143130344D02*
X234805523Y-143098455D01*
X234577509Y-143114399D02*
X234521703Y-142316348D01*
X234521703Y-142316348D02*
X234605680Y-142425041D01*
X234605680Y-142425041D02*
X234687000Y-142495731D01*
X234687000Y-142495731D02*
X234765662Y-142528418D01*
X234027671Y-142350894D02*
X233533640Y-142385440D01*
X233533640Y-142385440D02*
X233820916Y-142670858D01*
X233820916Y-142670858D02*
X233706909Y-142678830D01*
X233706909Y-142678830D02*
X233633561Y-142722147D01*
X233633561Y-142722147D02*
X233598216Y-142762807D01*
X233598216Y-142762807D02*
X233565528Y-142841469D01*
X233565528Y-142841469D02*
X233578815Y-143031482D01*
X233578815Y-143031482D02*
X233622133Y-143104829D01*
X233622133Y-143104829D02*
X233662792Y-143140174D01*
X233662792Y-143140174D02*
X233741455Y-143172862D01*
X233741455Y-143172862D02*
X233969469Y-143156917D01*
X233969469Y-143156917D02*
X234042817Y-143113600D01*
X234042817Y-143113600D02*
X234078162Y-143072940D01*
X235286725Y-145611008D02*
X235742754Y-145579119D01*
X235514740Y-145595063D02*
X235458934Y-144797012D01*
X235458934Y-144797012D02*
X235542911Y-144905705D01*
X235542911Y-144905705D02*
X235624231Y-144976395D01*
X235624231Y-144976395D02*
X235702893Y-145009082D01*
X234526676Y-145664156D02*
X234982705Y-145632267D01*
X234754691Y-145648211D02*
X234698885Y-144850160D01*
X234698885Y-144850160D02*
X234782862Y-144958853D01*
X234782862Y-144958853D02*
X234864182Y-145029543D01*
X234864182Y-145029543D02*
X234942844Y-145062230D01*
X233766627Y-145717303D02*
X234222656Y-145685415D01*
X233994642Y-145701359D02*
X233938836Y-144903308D01*
X233938836Y-144903308D02*
X234022813Y-145012000D01*
X234022813Y-145012000D02*
X234104133Y-145082690D01*
X234104133Y-145082690D02*
X234182795Y-145115378D01*
X235674118Y-147328168D02*
X235598113Y-147333483D01*
X235598113Y-147333483D02*
X235524765Y-147376800D01*
X235524765Y-147376800D02*
X235489420Y-147417460D01*
X235489420Y-147417460D02*
X235456733Y-147496122D01*
X235456733Y-147496122D02*
X235429360Y-147650789D01*
X235429360Y-147650789D02*
X235442647Y-147840801D01*
X235442647Y-147840801D02*
X235491279Y-147990154D01*
X235491279Y-147990154D02*
X235534596Y-148063501D01*
X235534596Y-148063501D02*
X235575256Y-148098846D01*
X235575256Y-148098846D02*
X235653918Y-148131534D01*
X235653918Y-148131534D02*
X235729923Y-148126219D01*
X235729923Y-148126219D02*
X235803271Y-148082902D01*
X235803271Y-148082902D02*
X235838616Y-148042242D01*
X235838616Y-148042242D02*
X235871303Y-147963580D01*
X235871303Y-147963580D02*
X235898676Y-147808913D01*
X235898676Y-147808913D02*
X235885389Y-147618900D01*
X235885389Y-147618900D02*
X235836757Y-147469548D01*
X235836757Y-147469548D02*
X235793440Y-147396201D01*
X235793440Y-147396201D02*
X235752780Y-147360855D01*
X235752780Y-147360855D02*
X235674118Y-147328168D01*
X234703857Y-148197969D02*
X235159886Y-148166080D01*
X234931872Y-148182024D02*
X234876066Y-147383973D01*
X234876066Y-147383973D02*
X234960043Y-147492666D01*
X234960043Y-147492666D02*
X235041363Y-147563356D01*
X235041363Y-147563356D02*
X235120025Y-147596043D01*
X234154020Y-147434463D02*
X234078015Y-147439778D01*
X234078015Y-147439778D02*
X234004667Y-147483095D01*
X234004667Y-147483095D02*
X233969322Y-147523755D01*
X233969322Y-147523755D02*
X233936635Y-147602418D01*
X233936635Y-147602418D02*
X233909262Y-147757085D01*
X233909262Y-147757085D02*
X233922549Y-147947097D01*
X233922549Y-147947097D02*
X233971181Y-148096449D01*
X233971181Y-148096449D02*
X234014498Y-148169797D01*
X234014498Y-148169797D02*
X234055158Y-148205142D01*
X234055158Y-148205142D02*
X234133820Y-148237829D01*
X234133820Y-148237829D02*
X234209825Y-148232515D01*
X234209825Y-148232515D02*
X234283172Y-148189197D01*
X234283172Y-148189197D02*
X234318518Y-148148538D01*
X234318518Y-148148538D02*
X234351205Y-148069875D01*
X234351205Y-148069875D02*
X234378578Y-147915208D01*
X234378578Y-147915208D02*
X234365291Y-147725196D01*
X234365291Y-147725196D02*
X234316659Y-147575844D01*
X234316659Y-147575844D02*
X234273342Y-147502496D01*
X234273342Y-147502496D02*
X234232682Y-147467151D01*
X234232682Y-147467151D02*
X234154020Y-147434463D01*
X222854899Y-122762551D02*
X222778894Y-122767866D01*
X222778894Y-122767866D02*
X222705546Y-122811183D01*
X222705546Y-122811183D02*
X222670201Y-122851843D01*
X222670201Y-122851843D02*
X222637514Y-122930505D01*
X222637514Y-122930505D02*
X222610141Y-123085172D01*
X222610141Y-123085172D02*
X222623428Y-123275184D01*
X222623428Y-123275184D02*
X222672060Y-123424537D01*
X222672060Y-123424537D02*
X222715377Y-123497884D01*
X222715377Y-123497884D02*
X222756037Y-123533229D01*
X222756037Y-123533229D02*
X222834699Y-123565917D01*
X222834699Y-123565917D02*
X222910704Y-123560602D01*
X222910704Y-123560602D02*
X222984052Y-123517285D01*
X222984052Y-123517285D02*
X223019397Y-123476625D01*
X223019397Y-123476625D02*
X223052084Y-123397963D01*
X223052084Y-123397963D02*
X223079457Y-123243296D01*
X223079457Y-123243296D02*
X223066170Y-123053283D01*
X223066170Y-123053283D02*
X223017538Y-122903931D01*
X223017538Y-122903931D02*
X222974221Y-122830584D01*
X222974221Y-122830584D02*
X222933561Y-122795238D01*
X222933561Y-122795238D02*
X222854899Y-122762551D01*
X222094850Y-122815699D02*
X222018845Y-122821013D01*
X222018845Y-122821013D02*
X221945497Y-122864331D01*
X221945497Y-122864331D02*
X221910152Y-122904990D01*
X221910152Y-122904990D02*
X221877465Y-122983653D01*
X221877465Y-122983653D02*
X221850092Y-123138320D01*
X221850092Y-123138320D02*
X221863379Y-123328332D01*
X221863379Y-123328332D02*
X221912011Y-123477684D01*
X221912011Y-123477684D02*
X221955328Y-123551032D01*
X221955328Y-123551032D02*
X221995988Y-123586377D01*
X221995988Y-123586377D02*
X222074650Y-123619065D01*
X222074650Y-123619065D02*
X222150655Y-123613750D01*
X222150655Y-123613750D02*
X222224002Y-123570433D01*
X222224002Y-123570433D02*
X222259348Y-123529773D01*
X222259348Y-123529773D02*
X222292035Y-123451111D01*
X222292035Y-123451111D02*
X222319408Y-123296443D01*
X222319408Y-123296443D02*
X222306121Y-123106431D01*
X222306121Y-123106431D02*
X222257489Y-122957079D01*
X222257489Y-122957079D02*
X222214172Y-122883731D01*
X222214172Y-122883731D02*
X222173512Y-122848386D01*
X222173512Y-122848386D02*
X222094850Y-122815699D01*
X221144789Y-122882133D02*
X221296798Y-122871504D01*
X221296798Y-122871504D02*
X221375461Y-122904191D01*
X221375461Y-122904191D02*
X221416120Y-122939537D01*
X221416120Y-122939537D02*
X221500097Y-123048229D01*
X221500097Y-123048229D02*
X221548729Y-123197581D01*
X221548729Y-123197581D02*
X221569989Y-123501601D01*
X221569989Y-123501601D02*
X221537301Y-123580263D01*
X221537301Y-123580263D02*
X221501956Y-123620923D01*
X221501956Y-123620923D02*
X221428608Y-123664240D01*
X221428608Y-123664240D02*
X221276599Y-123674870D01*
X221276599Y-123674870D02*
X221197936Y-123642182D01*
X221197936Y-123642182D02*
X221157277Y-123606837D01*
X221157277Y-123606837D02*
X221113959Y-123533490D01*
X221113959Y-123533490D02*
X221100672Y-123343477D01*
X221100672Y-123343477D02*
X221133360Y-123264815D01*
X221133360Y-123264815D02*
X221168705Y-123224155D01*
X221168705Y-123224155D02*
X221242053Y-123180838D01*
X221242053Y-123180838D02*
X221394062Y-123170209D01*
X221394062Y-123170209D02*
X221472725Y-123202896D01*
X221472725Y-123202896D02*
X221513384Y-123238241D01*
X221513384Y-123238241D02*
X221556702Y-123311589D01*
X223027198Y-125226534D02*
X222951193Y-125231849D01*
X222951193Y-125231849D02*
X222877845Y-125275166D01*
X222877845Y-125275166D02*
X222842500Y-125315826D01*
X222842500Y-125315826D02*
X222809813Y-125394488D01*
X222809813Y-125394488D02*
X222782440Y-125549155D01*
X222782440Y-125549155D02*
X222795727Y-125739167D01*
X222795727Y-125739167D02*
X222844359Y-125888520D01*
X222844359Y-125888520D02*
X222887676Y-125961867D01*
X222887676Y-125961867D02*
X222928336Y-125997212D01*
X222928336Y-125997212D02*
X223006998Y-126029900D01*
X223006998Y-126029900D02*
X223083003Y-126024585D01*
X223083003Y-126024585D02*
X223156351Y-125981268D01*
X223156351Y-125981268D02*
X223191696Y-125940608D01*
X223191696Y-125940608D02*
X223224383Y-125861946D01*
X223224383Y-125861946D02*
X223251756Y-125707279D01*
X223251756Y-125707279D02*
X223238469Y-125517266D01*
X223238469Y-125517266D02*
X223189837Y-125367914D01*
X223189837Y-125367914D02*
X223146520Y-125294567D01*
X223146520Y-125294567D02*
X223105860Y-125259221D01*
X223105860Y-125259221D02*
X223027198Y-125226534D01*
X222267149Y-125279682D02*
X222191144Y-125284996D01*
X222191144Y-125284996D02*
X222117796Y-125328314D01*
X222117796Y-125328314D02*
X222082451Y-125368973D01*
X222082451Y-125368973D02*
X222049764Y-125447636D01*
X222049764Y-125447636D02*
X222022391Y-125602303D01*
X222022391Y-125602303D02*
X222035678Y-125792315D01*
X222035678Y-125792315D02*
X222084310Y-125941667D01*
X222084310Y-125941667D02*
X222127627Y-126015015D01*
X222127627Y-126015015D02*
X222168287Y-126050360D01*
X222168287Y-126050360D02*
X222246949Y-126083048D01*
X222246949Y-126083048D02*
X222322954Y-126077733D01*
X222322954Y-126077733D02*
X222396301Y-126034416D01*
X222396301Y-126034416D02*
X222431647Y-125993756D01*
X222431647Y-125993756D02*
X222464334Y-125915094D01*
X222464334Y-125915094D02*
X222491707Y-125760426D01*
X222491707Y-125760426D02*
X222478420Y-125570414D01*
X222478420Y-125570414D02*
X222429788Y-125421062D01*
X222429788Y-125421062D02*
X222386471Y-125347714D01*
X222386471Y-125347714D02*
X222345811Y-125312369D01*
X222345811Y-125312369D02*
X222267149Y-125279682D01*
X221569019Y-125672194D02*
X221642366Y-125628877D01*
X221642366Y-125628877D02*
X221677711Y-125588217D01*
X221677711Y-125588217D02*
X221710399Y-125509555D01*
X221710399Y-125509555D02*
X221707742Y-125471552D01*
X221707742Y-125471552D02*
X221664424Y-125398205D01*
X221664424Y-125398205D02*
X221623764Y-125362860D01*
X221623764Y-125362860D02*
X221545102Y-125330172D01*
X221545102Y-125330172D02*
X221393092Y-125340802D01*
X221393092Y-125340802D02*
X221319745Y-125384119D01*
X221319745Y-125384119D02*
X221284400Y-125424779D01*
X221284400Y-125424779D02*
X221251712Y-125503441D01*
X221251712Y-125503441D02*
X221254370Y-125541443D01*
X221254370Y-125541443D02*
X221297687Y-125614791D01*
X221297687Y-125614791D02*
X221338347Y-125650136D01*
X221338347Y-125650136D02*
X221417009Y-125682824D01*
X221417009Y-125682824D02*
X221569019Y-125672194D01*
X221569019Y-125672194D02*
X221647681Y-125704882D01*
X221647681Y-125704882D02*
X221688341Y-125740227D01*
X221688341Y-125740227D02*
X221731658Y-125813574D01*
X221731658Y-125813574D02*
X221742288Y-125965584D01*
X221742288Y-125965584D02*
X221709600Y-126044246D01*
X221709600Y-126044246D02*
X221674255Y-126084906D01*
X221674255Y-126084906D02*
X221600907Y-126128223D01*
X221600907Y-126128223D02*
X221448898Y-126138853D01*
X221448898Y-126138853D02*
X221370235Y-126106165D01*
X221370235Y-126106165D02*
X221329576Y-126070820D01*
X221329576Y-126070820D02*
X221286258Y-125997473D01*
X221286258Y-125997473D02*
X221275629Y-125845463D01*
X221275629Y-125845463D02*
X221308316Y-125766801D01*
X221308316Y-125766801D02*
X221343661Y-125726141D01*
X221343661Y-125726141D02*
X221417009Y-125682824D01*
X223097912Y-127876151D02*
X223171259Y-127832834D01*
X223171259Y-127832834D02*
X223285266Y-127824862D01*
X223285266Y-127824862D02*
X223401931Y-127854892D01*
X223401931Y-127854892D02*
X223483251Y-127925582D01*
X223483251Y-127925582D02*
X223526568Y-127998930D01*
X223526568Y-127998930D02*
X223575200Y-128148282D01*
X223575200Y-128148282D02*
X223583172Y-128262289D01*
X223583172Y-128262289D02*
X223555799Y-128416957D01*
X223555799Y-128416957D02*
X223523112Y-128495619D01*
X223523112Y-128495619D02*
X223452421Y-128576938D01*
X223452421Y-128576938D02*
X223341072Y-128622913D01*
X223341072Y-128622913D02*
X223265067Y-128628228D01*
X223265067Y-128628228D02*
X223148402Y-128598198D01*
X223148402Y-128598198D02*
X223107742Y-128562853D01*
X223107742Y-128562853D02*
X223089140Y-128296835D01*
X223089140Y-128296835D02*
X223241150Y-128286206D01*
X222771035Y-128662774D02*
X222715230Y-127864723D01*
X222715230Y-127864723D02*
X222315006Y-128694663D01*
X222315006Y-128694663D02*
X222259201Y-127896611D01*
X221934982Y-128721236D02*
X221879176Y-127923185D01*
X221879176Y-127923185D02*
X221689164Y-127936472D01*
X221689164Y-127936472D02*
X221577814Y-127982447D01*
X221577814Y-127982447D02*
X221507124Y-128063766D01*
X221507124Y-128063766D02*
X221474436Y-128142429D01*
X221474436Y-128142429D02*
X221447064Y-128297096D01*
X221447064Y-128297096D02*
X221455036Y-128411103D01*
X221455036Y-128411103D02*
X221503668Y-128560456D01*
X221503668Y-128560456D02*
X221546985Y-128633803D01*
X221546985Y-128633803D02*
X221628305Y-128704493D01*
X221628305Y-128704493D02*
X221744969Y-128734523D01*
X221744969Y-128734523D02*
X221934982Y-128721236D01*
X223275093Y-130409963D02*
X223348440Y-130366646D01*
X223348440Y-130366646D02*
X223462447Y-130358674D01*
X223462447Y-130358674D02*
X223579112Y-130388704D01*
X223579112Y-130388704D02*
X223660432Y-130459394D01*
X223660432Y-130459394D02*
X223703749Y-130532742D01*
X223703749Y-130532742D02*
X223752381Y-130682094D01*
X223752381Y-130682094D02*
X223760353Y-130796101D01*
X223760353Y-130796101D02*
X223732980Y-130950769D01*
X223732980Y-130950769D02*
X223700293Y-131029431D01*
X223700293Y-131029431D02*
X223629602Y-131110750D01*
X223629602Y-131110750D02*
X223518253Y-131156725D01*
X223518253Y-131156725D02*
X223442248Y-131162040D01*
X223442248Y-131162040D02*
X223325583Y-131132010D01*
X223325583Y-131132010D02*
X223284923Y-131096665D01*
X223284923Y-131096665D02*
X223266321Y-130830647D01*
X223266321Y-130830647D02*
X223418331Y-130820018D01*
X222948216Y-131196586D02*
X222892411Y-130398535D01*
X222892411Y-130398535D02*
X222492187Y-131228475D01*
X222492187Y-131228475D02*
X222436382Y-130430423D01*
X222112163Y-131255048D02*
X222056357Y-130456997D01*
X222056357Y-130456997D02*
X221866345Y-130470284D01*
X221866345Y-130470284D02*
X221754995Y-130516259D01*
X221754995Y-130516259D02*
X221684305Y-130597578D01*
X221684305Y-130597578D02*
X221651617Y-130676241D01*
X221651617Y-130676241D02*
X221624245Y-130830908D01*
X221624245Y-130830908D02*
X221632217Y-130944915D01*
X221632217Y-130944915D02*
X221680849Y-131094268D01*
X221680849Y-131094268D02*
X221724166Y-131167615D01*
X221724166Y-131167615D02*
X221805486Y-131238305D01*
X221805486Y-131238305D02*
X221922150Y-131268335D01*
X221922150Y-131268335D02*
X222112163Y-131255048D01*
X223564323Y-132907777D02*
X223488318Y-132913092D01*
X223488318Y-132913092D02*
X223414970Y-132956409D01*
X223414970Y-132956409D02*
X223379625Y-132997069D01*
X223379625Y-132997069D02*
X223346938Y-133075731D01*
X223346938Y-133075731D02*
X223319565Y-133230398D01*
X223319565Y-133230398D02*
X223332852Y-133420410D01*
X223332852Y-133420410D02*
X223381484Y-133569763D01*
X223381484Y-133569763D02*
X223424801Y-133643110D01*
X223424801Y-133643110D02*
X223465461Y-133678455D01*
X223465461Y-133678455D02*
X223544123Y-133711143D01*
X223544123Y-133711143D02*
X223620128Y-133705828D01*
X223620128Y-133705828D02*
X223693476Y-133662511D01*
X223693476Y-133662511D02*
X223728821Y-133621851D01*
X223728821Y-133621851D02*
X223761508Y-133543189D01*
X223761508Y-133543189D02*
X223788881Y-133388522D01*
X223788881Y-133388522D02*
X223775594Y-133198509D01*
X223775594Y-133198509D02*
X223726962Y-133049157D01*
X223726962Y-133049157D02*
X223683645Y-132975810D01*
X223683645Y-132975810D02*
X223642985Y-132940464D01*
X223642985Y-132940464D02*
X223564323Y-132907777D01*
X222594062Y-133777578D02*
X223050091Y-133745689D01*
X222822077Y-133761633D02*
X222766271Y-132963582D01*
X222766271Y-132963582D02*
X222850248Y-133072275D01*
X222850248Y-133072275D02*
X222931568Y-133142965D01*
X222931568Y-133142965D02*
X223010230Y-133175652D01*
X222272239Y-132998128D02*
X221740205Y-133035332D01*
X221740205Y-133035332D02*
X222138032Y-133809466D01*
X223745690Y-135501444D02*
X223669685Y-135506759D01*
X223669685Y-135506759D02*
X223596337Y-135550076D01*
X223596337Y-135550076D02*
X223560992Y-135590736D01*
X223560992Y-135590736D02*
X223528305Y-135669398D01*
X223528305Y-135669398D02*
X223500932Y-135824065D01*
X223500932Y-135824065D02*
X223514219Y-136014077D01*
X223514219Y-136014077D02*
X223562851Y-136163430D01*
X223562851Y-136163430D02*
X223606168Y-136236777D01*
X223606168Y-136236777D02*
X223646828Y-136272122D01*
X223646828Y-136272122D02*
X223725490Y-136304810D01*
X223725490Y-136304810D02*
X223801495Y-136299495D01*
X223801495Y-136299495D02*
X223874843Y-136256178D01*
X223874843Y-136256178D02*
X223910188Y-136215518D01*
X223910188Y-136215518D02*
X223942875Y-136136856D01*
X223942875Y-136136856D02*
X223970248Y-135982189D01*
X223970248Y-135982189D02*
X223956961Y-135792176D01*
X223956961Y-135792176D02*
X223908329Y-135642824D01*
X223908329Y-135642824D02*
X223865012Y-135569477D01*
X223865012Y-135569477D02*
X223824352Y-135534131D01*
X223824352Y-135534131D02*
X223745690Y-135501444D01*
X223180968Y-135617310D02*
X223140308Y-135581964D01*
X223140308Y-135581964D02*
X223061646Y-135549277D01*
X223061646Y-135549277D02*
X222871633Y-135562564D01*
X222871633Y-135562564D02*
X222798286Y-135605881D01*
X222798286Y-135605881D02*
X222762941Y-135646541D01*
X222762941Y-135646541D02*
X222730253Y-135725203D01*
X222730253Y-135725203D02*
X222735568Y-135801208D01*
X222735568Y-135801208D02*
X222781543Y-135912558D01*
X222781543Y-135912558D02*
X223269461Y-136336699D01*
X223269461Y-136336699D02*
X222775429Y-136371245D01*
X222225592Y-135607739D02*
X222149587Y-135613054D01*
X222149587Y-135613054D02*
X222076239Y-135656371D01*
X222076239Y-135656371D02*
X222040894Y-135697031D01*
X222040894Y-135697031D02*
X222008207Y-135775694D01*
X222008207Y-135775694D02*
X221980834Y-135930361D01*
X221980834Y-135930361D02*
X221994121Y-136120373D01*
X221994121Y-136120373D02*
X222042753Y-136269725D01*
X222042753Y-136269725D02*
X222086070Y-136343073D01*
X222086070Y-136343073D02*
X222126730Y-136378418D01*
X222126730Y-136378418D02*
X222205392Y-136411105D01*
X222205392Y-136411105D02*
X222281397Y-136405791D01*
X222281397Y-136405791D02*
X222354744Y-136362473D01*
X222354744Y-136362473D02*
X222390090Y-136321814D01*
X222390090Y-136321814D02*
X222422777Y-136243151D01*
X222422777Y-136243151D02*
X222450150Y-136088484D01*
X222450150Y-136088484D02*
X222436863Y-135898472D01*
X222436863Y-135898472D02*
X222388231Y-135749120D01*
X222388231Y-135749120D02*
X222344914Y-135675772D01*
X222344914Y-135675772D02*
X222304254Y-135640427D01*
X222304254Y-135640427D02*
X222225592Y-135607739D01*
X223920081Y-137995354D02*
X223844076Y-138000669D01*
X223844076Y-138000669D02*
X223770728Y-138043986D01*
X223770728Y-138043986D02*
X223735383Y-138084646D01*
X223735383Y-138084646D02*
X223702696Y-138163308D01*
X223702696Y-138163308D02*
X223675323Y-138317975D01*
X223675323Y-138317975D02*
X223688610Y-138507987D01*
X223688610Y-138507987D02*
X223737242Y-138657340D01*
X223737242Y-138657340D02*
X223780559Y-138730687D01*
X223780559Y-138730687D02*
X223821219Y-138766032D01*
X223821219Y-138766032D02*
X223899881Y-138798720D01*
X223899881Y-138798720D02*
X223975886Y-138793405D01*
X223975886Y-138793405D02*
X224049234Y-138750088D01*
X224049234Y-138750088D02*
X224084579Y-138709428D01*
X224084579Y-138709428D02*
X224117266Y-138630766D01*
X224117266Y-138630766D02*
X224144639Y-138476099D01*
X224144639Y-138476099D02*
X224131352Y-138286086D01*
X224131352Y-138286086D02*
X224082720Y-138136734D01*
X224082720Y-138136734D02*
X224039403Y-138063387D01*
X224039403Y-138063387D02*
X223998743Y-138028041D01*
X223998743Y-138028041D02*
X223920081Y-137995354D01*
X223355359Y-138111220D02*
X223314699Y-138075874D01*
X223314699Y-138075874D02*
X223236037Y-138043187D01*
X223236037Y-138043187D02*
X223046024Y-138056474D01*
X223046024Y-138056474D02*
X222972677Y-138099791D01*
X222972677Y-138099791D02*
X222937332Y-138140451D01*
X222937332Y-138140451D02*
X222904644Y-138219113D01*
X222904644Y-138219113D02*
X222909959Y-138295118D01*
X222909959Y-138295118D02*
X222955934Y-138406468D01*
X222955934Y-138406468D02*
X223443852Y-138830609D01*
X223443852Y-138830609D02*
X222949820Y-138865155D01*
X222595310Y-138164367D02*
X222554650Y-138129022D01*
X222554650Y-138129022D02*
X222475988Y-138096335D01*
X222475988Y-138096335D02*
X222285975Y-138109622D01*
X222285975Y-138109622D02*
X222212628Y-138152939D01*
X222212628Y-138152939D02*
X222177283Y-138193599D01*
X222177283Y-138193599D02*
X222144595Y-138272261D01*
X222144595Y-138272261D02*
X222149910Y-138348266D01*
X222149910Y-138348266D02*
X222195885Y-138459616D01*
X222195885Y-138459616D02*
X222683803Y-138883756D01*
X222683803Y-138883756D02*
X222189771Y-138918302D01*
X224095169Y-140499240D02*
X224019164Y-140504555D01*
X224019164Y-140504555D02*
X223945816Y-140547872D01*
X223945816Y-140547872D02*
X223910471Y-140588532D01*
X223910471Y-140588532D02*
X223877784Y-140667194D01*
X223877784Y-140667194D02*
X223850411Y-140821861D01*
X223850411Y-140821861D02*
X223863698Y-141011873D01*
X223863698Y-141011873D02*
X223912330Y-141161226D01*
X223912330Y-141161226D02*
X223955647Y-141234573D01*
X223955647Y-141234573D02*
X223996307Y-141269918D01*
X223996307Y-141269918D02*
X224074969Y-141302606D01*
X224074969Y-141302606D02*
X224150974Y-141297291D01*
X224150974Y-141297291D02*
X224224322Y-141253974D01*
X224224322Y-141253974D02*
X224259667Y-141213314D01*
X224259667Y-141213314D02*
X224292354Y-141134652D01*
X224292354Y-141134652D02*
X224319727Y-140979985D01*
X224319727Y-140979985D02*
X224306440Y-140789972D01*
X224306440Y-140789972D02*
X224257808Y-140640620D01*
X224257808Y-140640620D02*
X224214491Y-140567273D01*
X224214491Y-140567273D02*
X224173831Y-140531927D01*
X224173831Y-140531927D02*
X224095169Y-140499240D01*
X223530447Y-140615106D02*
X223489787Y-140579760D01*
X223489787Y-140579760D02*
X223411125Y-140547073D01*
X223411125Y-140547073D02*
X223221112Y-140560360D01*
X223221112Y-140560360D02*
X223147765Y-140603677D01*
X223147765Y-140603677D02*
X223112420Y-140644337D01*
X223112420Y-140644337D02*
X223079732Y-140722999D01*
X223079732Y-140722999D02*
X223085047Y-140799004D01*
X223085047Y-140799004D02*
X223131022Y-140910354D01*
X223131022Y-140910354D02*
X223618940Y-141334495D01*
X223618940Y-141334495D02*
X223124908Y-141369041D01*
X222403660Y-140884839D02*
X222440864Y-141416874D01*
X222572413Y-140567533D02*
X222802286Y-141124283D01*
X222802286Y-141124283D02*
X222308255Y-141158829D01*
X224062139Y-143849706D02*
X224518168Y-143817817D01*
X224290154Y-143833761D02*
X224234348Y-143035710D01*
X224234348Y-143035710D02*
X224318325Y-143144403D01*
X224318325Y-143144403D02*
X224399645Y-143215093D01*
X224399645Y-143215093D02*
X224478307Y-143247780D01*
X223512302Y-143086201D02*
X223436297Y-143091515D01*
X223436297Y-143091515D02*
X223362949Y-143134833D01*
X223362949Y-143134833D02*
X223327604Y-143175492D01*
X223327604Y-143175492D02*
X223294917Y-143254155D01*
X223294917Y-143254155D02*
X223267544Y-143408822D01*
X223267544Y-143408822D02*
X223280831Y-143598834D01*
X223280831Y-143598834D02*
X223329463Y-143748186D01*
X223329463Y-143748186D02*
X223372780Y-143821534D01*
X223372780Y-143821534D02*
X223413440Y-143856879D01*
X223413440Y-143856879D02*
X223492102Y-143889567D01*
X223492102Y-143889567D02*
X223568107Y-143884252D01*
X223568107Y-143884252D02*
X223641454Y-143840935D01*
X223641454Y-143840935D02*
X223676800Y-143800275D01*
X223676800Y-143800275D02*
X223709487Y-143721613D01*
X223709487Y-143721613D02*
X223736860Y-143566945D01*
X223736860Y-143566945D02*
X223723573Y-143376933D01*
X223723573Y-143376933D02*
X223674941Y-143227581D01*
X223674941Y-143227581D02*
X223631624Y-143154233D01*
X223631624Y-143154233D02*
X223590964Y-143118888D01*
X223590964Y-143118888D02*
X223512302Y-143086201D01*
X222752253Y-143139348D02*
X222676248Y-143144663D01*
X222676248Y-143144663D02*
X222602900Y-143187980D01*
X222602900Y-143187980D02*
X222567555Y-143228640D01*
X222567555Y-143228640D02*
X222534868Y-143307303D01*
X222534868Y-143307303D02*
X222507495Y-143461970D01*
X222507495Y-143461970D02*
X222520782Y-143651982D01*
X222520782Y-143651982D02*
X222569414Y-143801334D01*
X222569414Y-143801334D02*
X222612731Y-143874682D01*
X222612731Y-143874682D02*
X222653391Y-143910027D01*
X222653391Y-143910027D02*
X222732053Y-143942714D01*
X222732053Y-143942714D02*
X222808058Y-143937400D01*
X222808058Y-143937400D02*
X222881405Y-143894082D01*
X222881405Y-143894082D02*
X222916751Y-143853423D01*
X222916751Y-143853423D02*
X222949438Y-143774760D01*
X222949438Y-143774760D02*
X222976811Y-143620093D01*
X222976811Y-143620093D02*
X222963524Y-143430081D01*
X222963524Y-143430081D02*
X222914892Y-143280729D01*
X222914892Y-143280729D02*
X222871575Y-143207381D01*
X222871575Y-143207381D02*
X222830915Y-143172036D01*
X222830915Y-143172036D02*
X222752253Y-143139348D01*
X224416502Y-148917331D02*
X224872531Y-148885442D01*
X224644517Y-148901386D02*
X224588711Y-148103335D01*
X224588711Y-148103335D02*
X224672688Y-148212028D01*
X224672688Y-148212028D02*
X224754008Y-148282718D01*
X224754008Y-148282718D02*
X224832670Y-148315405D01*
X223866665Y-148153826D02*
X223790660Y-148159140D01*
X223790660Y-148159140D02*
X223717312Y-148202458D01*
X223717312Y-148202458D02*
X223681967Y-148243117D01*
X223681967Y-148243117D02*
X223649280Y-148321780D01*
X223649280Y-148321780D02*
X223621907Y-148476447D01*
X223621907Y-148476447D02*
X223635194Y-148666459D01*
X223635194Y-148666459D02*
X223683826Y-148815811D01*
X223683826Y-148815811D02*
X223727143Y-148889159D01*
X223727143Y-148889159D02*
X223767803Y-148924504D01*
X223767803Y-148924504D02*
X223846465Y-148957192D01*
X223846465Y-148957192D02*
X223922470Y-148951877D01*
X223922470Y-148951877D02*
X223995817Y-148908560D01*
X223995817Y-148908560D02*
X224031163Y-148867900D01*
X224031163Y-148867900D02*
X224063850Y-148789238D01*
X224063850Y-148789238D02*
X224091223Y-148634570D01*
X224091223Y-148634570D02*
X224077936Y-148444558D01*
X224077936Y-148444558D02*
X224029304Y-148295206D01*
X224029304Y-148295206D02*
X223985987Y-148221858D01*
X223985987Y-148221858D02*
X223945327Y-148186513D01*
X223945327Y-148186513D02*
X223866665Y-148153826D01*
X222935205Y-148486277D02*
X222972409Y-149018312D01*
X223103958Y-148168971D02*
X223333831Y-148725721D01*
X223333831Y-148725721D02*
X222839800Y-148760267D01*
D11*
%TO.C,MCU1*%
X238517014Y-151387451D02*
X236213655Y-118447886D01*
X220780325Y-152627721D02*
X238517014Y-151387451D01*
X218476966Y-119688156D02*
X220780325Y-152627721D01*
X236213655Y-118447886D02*
X218476966Y-119688156D01*
D10*
%TO.C,JST1*%
X232802179Y-164542115D02*
X231289349Y-165063024D01*
X231289349Y-165063024D02*
X231517247Y-165724887D01*
X231517247Y-165724887D02*
X238703188Y-163250569D01*
X238703188Y-163250569D02*
X236782336Y-157672009D01*
X236782336Y-157672009D02*
X229596395Y-160146327D01*
X229596395Y-160146327D02*
X229824293Y-160808190D01*
X229824293Y-160808190D02*
X231337122Y-160287281D01*
X231337122Y-160287281D02*
X232802179Y-164542115D01*
X233577117Y-162953256D02*
X234049876Y-162790472D01*
X233894889Y-163108244D02*
X233732105Y-162635485D01*
D12*
%TO.C,B1*%
X226615895Y-171378635D02*
X226095859Y-171557698D01*
X224272960Y-171101311D02*
X224574111Y-171975916D01*
X223043940Y-167531978D02*
X223345091Y-168406583D01*
X226542359Y-166327376D02*
X228072530Y-170771314D01*
X225020611Y-166745594D02*
X224500575Y-166924657D01*
D10*
%TO.C,T1*%
X221453831Y-158613792D02*
X222723547Y-162301314D01*
X222088689Y-160457553D02*
X223163064Y-163577764D01*
X223163064Y-163577764D02*
X225857792Y-162649895D01*
X225857792Y-162649895D02*
X223709042Y-156409472D01*
X223709042Y-156409472D02*
X221014314Y-157337342D01*
X222088689Y-160457553D02*
X221014314Y-157337342D01*
D13*
%TO.C,D1*%
X350086267Y-195000000D02*
X350586267Y-195000000D01*
X350086267Y-195400000D02*
X349486267Y-195000000D01*
X350086267Y-194600000D02*
X350086267Y-195400000D01*
X349486267Y-195000000D02*
X350086267Y-194600000D01*
X349486267Y-195000000D02*
X349486267Y-195550000D01*
X349486267Y-195000000D02*
X349486267Y-194450000D01*
X349086267Y-195000000D02*
X349486267Y-195000000D01*
%TO.C,D2*%
X350086267Y-176000000D02*
X350586267Y-176000000D01*
X350086267Y-176400000D02*
X349486267Y-176000000D01*
X350086267Y-175600000D02*
X350086267Y-176400000D01*
X349486267Y-176000000D02*
X350086267Y-175600000D01*
X349486267Y-176000000D02*
X349486267Y-176550000D01*
X349486267Y-176000000D02*
X349486267Y-175450000D01*
X349086267Y-176000000D02*
X349486267Y-176000000D01*
%TO.C,D3*%
X350086267Y-157000000D02*
X350586267Y-157000000D01*
X350086267Y-157400000D02*
X349486267Y-157000000D01*
X350086267Y-156600000D02*
X350086267Y-157400000D01*
X349486267Y-157000000D02*
X350086267Y-156600000D01*
X349486267Y-157000000D02*
X349486267Y-157550000D01*
X349486267Y-157000000D02*
X349486267Y-156450000D01*
X349086267Y-157000000D02*
X349486267Y-157000000D01*
%TO.C,D4*%
X350086267Y-138000000D02*
X350586267Y-138000000D01*
X350086267Y-138400000D02*
X349486267Y-138000000D01*
X350086267Y-137600000D02*
X350086267Y-138400000D01*
X349486267Y-138000000D02*
X350086267Y-137600000D01*
X349486267Y-138000000D02*
X349486267Y-138550000D01*
X349486267Y-138000000D02*
X349486267Y-137450000D01*
X349086267Y-138000000D02*
X349486267Y-138000000D01*
%TO.C,D5*%
X350086267Y-119000000D02*
X350586267Y-119000000D01*
X350086267Y-119400000D02*
X349486267Y-119000000D01*
X350086267Y-118600000D02*
X350086267Y-119400000D01*
X349486267Y-119000000D02*
X350086267Y-118600000D01*
X349486267Y-119000000D02*
X349486267Y-119550000D01*
X349486267Y-119000000D02*
X349486267Y-118450000D01*
X349086267Y-119000000D02*
X349486267Y-119000000D01*
%TO.C,D6*%
X330998967Y-189996399D02*
X331498891Y-189987673D01*
X331005948Y-190396338D02*
X330399058Y-190006870D01*
X330991986Y-189596460D02*
X331005948Y-190396338D01*
X330399058Y-190006870D02*
X330991986Y-189596460D01*
X330399058Y-190006870D02*
X330408657Y-190556787D01*
X330399058Y-190006870D02*
X330389459Y-189456954D01*
X329999119Y-190013851D02*
X330399058Y-190006870D01*
%TO.C,D7*%
X330667371Y-170999292D02*
X331167295Y-170990566D01*
X330674352Y-171399231D02*
X330067462Y-171009763D01*
X330660390Y-170599353D02*
X330674352Y-171399231D01*
X330067462Y-171009763D02*
X330660390Y-170599353D01*
X330067462Y-171009763D02*
X330077061Y-171559680D01*
X330067462Y-171009763D02*
X330057863Y-170459847D01*
X329667523Y-171016744D02*
X330067462Y-171009763D01*
%TO.C,D8*%
X330335775Y-152002186D02*
X330835699Y-151993460D01*
X330342756Y-152402125D02*
X329735866Y-152012657D01*
X330328794Y-151602247D02*
X330342756Y-152402125D01*
X329735866Y-152012657D02*
X330328794Y-151602247D01*
X329735866Y-152012657D02*
X329745465Y-152562574D01*
X329735866Y-152012657D02*
X329726267Y-151462741D01*
X329335927Y-152019638D02*
X329735866Y-152012657D01*
%TO.C,D9*%
X330004180Y-133005080D02*
X330504104Y-132996354D01*
X330011161Y-133405019D02*
X329404271Y-133015551D01*
X329997199Y-132605141D02*
X330011161Y-133405019D01*
X329404271Y-133015551D02*
X329997199Y-132605141D01*
X329404271Y-133015551D02*
X329413870Y-133565468D01*
X329404271Y-133015551D02*
X329394672Y-132465635D01*
X329004332Y-133022532D02*
X329404271Y-133015551D01*
%TO.C,D10*%
X329672584Y-114007974D02*
X330172508Y-113999248D01*
X329679565Y-114407913D02*
X329072675Y-114018445D01*
X329665603Y-113608035D02*
X329679565Y-114407913D01*
X329072675Y-114018445D02*
X329665603Y-113608035D01*
X329072675Y-114018445D02*
X329082274Y-114568362D01*
X329072675Y-114018445D02*
X329063076Y-113468529D01*
X328672736Y-114025426D02*
X329072675Y-114018445D01*
%TO.C,D11*%
X311844702Y-186326526D02*
X312344397Y-186309076D01*
X311858662Y-186726282D02*
X311245067Y-186347466D01*
X311830742Y-185926770D02*
X311858662Y-186726282D01*
X311245067Y-186347466D02*
X311830742Y-185926770D01*
X311245067Y-186347466D02*
X311264262Y-186897131D01*
X311245067Y-186347466D02*
X311225872Y-185797801D01*
X310845311Y-186361426D02*
X311245067Y-186347466D01*
%TO.C,D12*%
X311181611Y-167338100D02*
X311681306Y-167320650D01*
X311195571Y-167737856D02*
X310581976Y-167359040D01*
X311167651Y-166938344D02*
X311195571Y-167737856D01*
X310581976Y-167359040D02*
X311167651Y-166938344D01*
X310581976Y-167359040D02*
X310601171Y-167908705D01*
X310581976Y-167359040D02*
X310562781Y-166809375D01*
X310182220Y-167373000D02*
X310581976Y-167359040D01*
%TO.C,D13*%
X310518521Y-148349674D02*
X311018216Y-148332224D01*
X310532481Y-148749430D02*
X309918886Y-148370614D01*
X310504561Y-147949918D02*
X310532481Y-148749430D01*
X309918886Y-148370614D02*
X310504561Y-147949918D01*
X309918886Y-148370614D02*
X309938081Y-148920279D01*
X309918886Y-148370614D02*
X309899691Y-147820949D01*
X309519130Y-148384574D02*
X309918886Y-148370614D01*
%TO.C,D14*%
X309855430Y-129361249D02*
X310355125Y-129343799D01*
X309869390Y-129761005D02*
X309255795Y-129382189D01*
X309841470Y-128961493D02*
X309869390Y-129761005D01*
X309255795Y-129382189D02*
X309841470Y-128961493D01*
X309255795Y-129382189D02*
X309274990Y-129931854D01*
X309255795Y-129382189D02*
X309236600Y-128832524D01*
X308856039Y-129396149D02*
X309255795Y-129382189D01*
%TO.C,D15*%
X309192340Y-110372823D02*
X309692035Y-110355373D01*
X309206300Y-110772579D02*
X308592705Y-110393763D01*
X309178380Y-109973067D02*
X309206300Y-110772579D01*
X308592705Y-110393763D02*
X309178380Y-109973067D01*
X308592705Y-110393763D02*
X308611900Y-110943428D01*
X308592705Y-110393763D02*
X308573510Y-109844098D01*
X308192949Y-110407723D02*
X308592705Y-110393763D01*
%TO.C,D16*%
X292873601Y-189987236D02*
X293372916Y-189961068D01*
X292894536Y-190386688D02*
X292274424Y-190018638D01*
X292852667Y-189587784D02*
X292894536Y-190386688D01*
X292274424Y-190018638D02*
X292852667Y-189587784D01*
X292274424Y-190018638D02*
X292303208Y-190567884D01*
X292274424Y-190018638D02*
X292245639Y-189469391D01*
X291874972Y-190039572D02*
X292274424Y-190018638D01*
%TO.C,D17*%
X291879218Y-171013275D02*
X292378533Y-170987107D01*
X291900153Y-171412727D02*
X291280041Y-171044677D01*
X291858284Y-170613823D02*
X291900153Y-171412727D01*
X291280041Y-171044677D02*
X291858284Y-170613823D01*
X291280041Y-171044677D02*
X291308825Y-171593923D01*
X291280041Y-171044677D02*
X291251256Y-170495430D01*
X290880589Y-171065611D02*
X291280041Y-171044677D01*
%TO.C,D18*%
X290884835Y-152039314D02*
X291384150Y-152013146D01*
X290905770Y-152438766D02*
X290285658Y-152070716D01*
X290863901Y-151639862D02*
X290905770Y-152438766D01*
X290285658Y-152070716D02*
X290863901Y-151639862D01*
X290285658Y-152070716D02*
X290314442Y-152619962D01*
X290285658Y-152070716D02*
X290256873Y-151521469D01*
X289886206Y-152091650D02*
X290285658Y-152070716D01*
%TO.C,D19*%
X289890451Y-133065353D02*
X290389766Y-133039185D01*
X289911386Y-133464805D02*
X289291274Y-133096755D01*
X289869517Y-132665901D02*
X289911386Y-133464805D01*
X289291274Y-133096755D02*
X289869517Y-132665901D01*
X289291274Y-133096755D02*
X289320058Y-133646001D01*
X289291274Y-133096755D02*
X289262489Y-132547508D01*
X288891822Y-133117689D02*
X289291274Y-133096755D01*
%TO.C,D20*%
X288896068Y-114091391D02*
X289395383Y-114065223D01*
X288917003Y-114490843D02*
X288296891Y-114122793D01*
X288875134Y-113691939D02*
X288917003Y-114490843D01*
X288296891Y-114122793D02*
X288875134Y-113691939D01*
X288296891Y-114122793D02*
X288325675Y-114672039D01*
X288296891Y-114122793D02*
X288268106Y-113573546D01*
X287897439Y-114143727D02*
X288296891Y-114122793D01*
%TO.C,D21*%
X272748578Y-177022022D02*
X273247360Y-176987144D01*
X272776481Y-177421048D02*
X272150040Y-177063876D01*
X272720675Y-176622996D02*
X272776481Y-177421048D01*
X272150040Y-177063876D02*
X272720675Y-176622996D01*
X272150040Y-177063876D02*
X272188406Y-177612536D01*
X272150040Y-177063876D02*
X272111674Y-176515216D01*
X271751014Y-177091778D02*
X272150040Y-177063876D01*
%TO.C,D22*%
X271423205Y-158068305D02*
X271921987Y-158033427D01*
X271451108Y-158467331D02*
X270824667Y-158110159D01*
X271395302Y-157669279D02*
X271451108Y-158467331D01*
X270824667Y-158110159D02*
X271395302Y-157669279D01*
X270824667Y-158110159D02*
X270863033Y-158658819D01*
X270824667Y-158110159D02*
X270786301Y-157561499D01*
X270425641Y-158138061D02*
X270824667Y-158110159D01*
%TO.C,D23*%
X270097832Y-139114588D02*
X270596614Y-139079710D01*
X270125735Y-139513614D02*
X269499294Y-139156442D01*
X270069929Y-138715562D02*
X270125735Y-139513614D01*
X269499294Y-139156442D02*
X270069929Y-138715562D01*
X269499294Y-139156442D02*
X269537660Y-139705102D01*
X269499294Y-139156442D02*
X269460928Y-138607782D01*
X269100268Y-139184344D02*
X269499294Y-139156442D01*
%TO.C,D24*%
X268772459Y-120160871D02*
X269271241Y-120125993D01*
X268800362Y-120559897D02*
X268173921Y-120202725D01*
X268744556Y-119761845D02*
X268800362Y-120559897D01*
X268173921Y-120202725D02*
X268744556Y-119761845D01*
X268173921Y-120202725D02*
X268212287Y-120751385D01*
X268173921Y-120202725D02*
X268135555Y-119654065D01*
X267774895Y-120230627D02*
X268173921Y-120202725D01*
%TO.C,D25*%
X253794861Y-178347395D02*
X254293643Y-178312517D01*
X253822764Y-178746421D02*
X253196323Y-178389249D01*
X253766958Y-177948369D02*
X253822764Y-178746421D01*
X253196323Y-178389249D02*
X253766958Y-177948369D01*
X253196323Y-178389249D02*
X253234689Y-178937909D01*
X253196323Y-178389249D02*
X253157957Y-177840589D01*
X252797297Y-178417151D02*
X253196323Y-178389249D01*
%TO.C,D26*%
X252469488Y-159393678D02*
X252968270Y-159358800D01*
X252497391Y-159792704D02*
X251870950Y-159435532D01*
X252441585Y-158994652D02*
X252497391Y-159792704D01*
X251870950Y-159435532D02*
X252441585Y-158994652D01*
X251870950Y-159435532D02*
X251909316Y-159984192D01*
X251870950Y-159435532D02*
X251832584Y-158886872D01*
X251471924Y-159463434D02*
X251870950Y-159435532D01*
%TO.C,D27*%
X251144115Y-140439961D02*
X251642897Y-140405083D01*
X251172018Y-140838987D02*
X250545577Y-140481815D01*
X251116212Y-140040935D02*
X251172018Y-140838987D01*
X250545577Y-140481815D02*
X251116212Y-140040935D01*
X250545577Y-140481815D02*
X250583943Y-141030475D01*
X250545577Y-140481815D02*
X250507211Y-139933155D01*
X250146551Y-140509717D02*
X250545577Y-140481815D01*
%TO.C,D28*%
X249818742Y-121486244D02*
X250317524Y-121451366D01*
X249846645Y-121885270D02*
X249220204Y-121528098D01*
X249790839Y-121087218D02*
X249846645Y-121885270D01*
X249220204Y-121528098D02*
X249790839Y-121087218D01*
X249220204Y-121528098D02*
X249258570Y-122076758D01*
X249220204Y-121528098D02*
X249181838Y-120979438D01*
X248821178Y-121556000D02*
X249220204Y-121528098D01*
%TO.C,D29*%
X265010639Y-199722758D02*
X265483398Y-199559974D01*
X265140866Y-200100965D02*
X264443327Y-199918099D01*
X264880411Y-199344551D02*
X265140866Y-200100965D01*
X264443327Y-199918099D02*
X264880411Y-199344551D01*
X264443327Y-199918099D02*
X264622390Y-200438134D01*
X264443327Y-199918099D02*
X264264265Y-199398064D01*
X264065120Y-200048326D02*
X264443327Y-199918099D01*
%TO.C,D30*%
X247045786Y-205908553D02*
X247518545Y-205745769D01*
X247176013Y-206286760D02*
X246478474Y-206103894D01*
X246915558Y-205530346D02*
X247176013Y-206286760D01*
X246478474Y-206103894D02*
X246915558Y-205530346D01*
X246478474Y-206103894D02*
X246657537Y-206623929D01*
X246478474Y-206103894D02*
X246299412Y-205583859D01*
X246100267Y-206234121D02*
X246478474Y-206103894D01*
%TD*%
D14*
%TO.C,MCU1*%
X220009645Y-123400285D03*
X220186826Y-125934097D03*
X220364008Y-128467910D03*
X220541189Y-131001723D03*
X220718371Y-133535535D03*
X220895552Y-136069348D03*
X221072734Y-138603161D03*
X221249915Y-141136973D03*
X221427097Y-143670786D03*
X221604278Y-146204599D03*
X221781459Y-148738411D03*
X221958641Y-151272224D03*
X237161517Y-150209135D03*
X236984336Y-147675323D03*
X236807154Y-145141510D03*
X236629973Y-142607697D03*
X236452791Y-140073885D03*
X236275610Y-137540072D03*
X236098428Y-135006259D03*
X235921247Y-132472447D03*
X235744065Y-129938634D03*
X235566884Y-127404821D03*
X235389703Y-124871009D03*
X235212521Y-122337196D03*
X224138091Y-146027417D03*
X226671903Y-145850236D03*
X229205716Y-145673054D03*
%TD*%
M02*
