M48
; DRILL file {KiCad 8.0.4} date 2024-08-23T23:48:48-0400
; FORMAT={-:-/ absolute / inch / decimal}
; #@! TF.CreationDate,2024-08-23T23:48:48-04:00
; #@! TF.GenerationSoftware,Kicad,Pcbnew,8.0.4
; #@! TF.FileFunction,Plated,1,2,PTH
FMAT,2
INCH
; #@! TA.AperFunction,Plated,PTH,ComponentDrill
T1C0.0157
; #@! TA.AperFunction,Plated,PTH,ComponentDrill
T2C0.0295
; #@! TA.AperFunction,Plated,PTH,ComponentDrill
T3C0.0390
; #@! TA.AperFunction,Plated,PTH,ComponentDrill
T4C0.0430
; #@! TA.AperFunction,Plated,PTH,ComponentDrill
T5C0.0866
%
G90
G05
T1
X9.5453Y-7.8109
X9.5483Y-7.7612
X9.5782Y-7.8481
X9.5855Y-7.7283
X9.6278Y-7.8511
X9.6352Y-7.7313
X9.6651Y-7.8182
X9.6681Y-7.7686
X10.1513Y-5.2936
X10.1671Y-5.2465
X10.1735Y-5.3381
X10.2116Y-5.2243
X10.2206Y-5.3539
X10.2587Y-5.2401
X10.2651Y-5.3317
X10.2809Y-5.2846
X11.0514Y-6.539
X11.068Y-6.4922
X11.0728Y-6.5839
X11.1129Y-6.4708
X11.1197Y-6.6005
X11.1598Y-6.4874
X11.1646Y-6.5791
X11.1812Y-6.5322
X13.3538Y-5.2165
X13.3538Y-7.4606
X13.3728Y-5.1706
X13.3728Y-5.2625
X13.3728Y-7.4147
X13.3728Y-7.5066
X13.4188Y-5.1516
X13.4188Y-5.2815
X13.4188Y-7.3957
X13.4188Y-7.5256
X13.4647Y-5.1706
X13.4647Y-5.2625
X13.4647Y-7.4147
X13.4647Y-7.5066
X13.4837Y-5.2165
X13.4837Y-7.4606
T2
X9.1145Y-6.3603
X9.1401Y-6.4347
T3
X9.5751Y-8.1587
X9.6759Y-4.7941
X9.7281Y-5.5403
X9.7803Y-6.2865
X9.8325Y-7.0327
X9.8587Y-8.061
X9.9752Y-4.7731
X10.0274Y-5.5194
X10.0796Y-6.2656
X10.1317Y-7.0118
X10.2824Y-7.9151
X10.4221Y-4.7419
X10.4743Y-5.4881
X10.5265Y-6.2343
X10.566Y-7.8175
X10.5787Y-6.9805
X10.7214Y-4.721
X10.7736Y-5.4672
X10.8258Y-6.2134
X10.8779Y-6.9596
X11.2142Y-4.5002
X11.2534Y-5.2472
X11.2925Y-5.9942
X11.3317Y-6.7412
X11.3708Y-7.4882
X11.5138Y-4.4845
X11.553Y-5.2315
X11.5921Y-5.9785
X11.6313Y-6.7255
X11.6704Y-7.4725
X12.0132Y-4.351
X12.0393Y-5.0985
X12.0654Y-5.8461
X12.0915Y-6.5937
X12.1176Y-7.3413
X12.313Y-4.3405
X12.3391Y-5.0881
X12.3652Y-5.8356
X12.3913Y-6.5832
X12.4174Y-7.3308
X12.8194Y-4.4913
X12.8325Y-5.2392
X12.8455Y-5.9871
X12.8586Y-6.735
X12.8716Y-7.483
X13.1194Y-4.4861
X13.1324Y-5.234
X13.1455Y-5.9819
X13.1585Y-6.7298
X13.1716Y-7.4777
X13.6231Y-4.685
X13.6231Y-5.4331
X13.6231Y-6.1811
X13.6231Y-6.9291
X13.6231Y-7.6772
X13.9231Y-4.685
X13.9231Y-5.4331
X13.9231Y-6.1811
X13.9231Y-6.9291
X13.9231Y-7.6772
T4
X8.6618Y-4.8583
X8.6688Y-4.958
X8.6757Y-5.0578
X8.6827Y-5.1575
X8.6897Y-5.2573
X8.6967Y-5.3571
X8.7037Y-5.4568
X8.7106Y-5.5566
X8.7176Y-5.6563
X8.7246Y-5.7561
X8.7316Y-5.8558
X8.7385Y-5.9556
X8.8243Y-5.7491
X8.9241Y-5.7421
X9.0238Y-5.7352
X9.2603Y-4.8164
X9.2673Y-4.9162
X9.2743Y-5.0159
X9.2813Y-5.1157
X9.2882Y-5.2155
X9.2952Y-5.3152
X9.3022Y-5.415
X9.3092Y-5.5147
X9.3161Y-5.6145
X9.3231Y-5.7142
X9.3301Y-5.814
X9.3371Y-5.9137
T5
X9.6067Y-7.7897
X10.2161Y-5.2891
X11.1163Y-6.5356
X13.4188Y-5.2165
X13.4188Y-7.4606
M30
