M48
; DRILL file {KiCad 8.0.4} date 2024-08-23T23:48:48-0400
; FORMAT={-:-/ absolute / inch / decimal}
; #@! TF.CreationDate,2024-08-23T23:48:48-04:00
; #@! TF.GenerationSoftware,Kicad,Pcbnew,8.0.4
; #@! TF.FileFunction,NonPlated,1,2,NPTH
FMAT,2
INCH
; #@! TA.AperFunction,NonPlated,NPTH,ComponentDrill
T1C0.0295
; #@! TA.AperFunction,NonPlated,NPTH,ComponentDrill
T2C0.0354
; #@! TA.AperFunction,NonPlated,NPTH,ComponentDrill
T3C0.0670
; #@! TA.AperFunction,NonPlated,NPTH,ComponentDrill
T4C0.1181
; #@! TA.AperFunction,NonPlated,NPTH,ComponentDrill
T5C0.1350
%
G90
G05
T1
X8.8291Y-6.6771
X8.9314Y-6.6419
T2
X8.7747Y-6.2441
X8.8131Y-6.3558
T3
X9.5763Y-8.3665
X9.6233Y-4.9951
X9.6755Y-5.7413
X9.7276Y-6.4875
X9.7798Y-7.2337
X9.9857Y-8.2255
X10.0553Y-4.9649
X10.1075Y-5.7111
X10.1597Y-6.4573
X10.2118Y-7.2035
X10.2835Y-8.1229
X10.3695Y-4.9429
X10.4217Y-5.6891
X10.4739Y-6.4353
X10.526Y-7.1815
X10.693Y-7.9819
X10.8015Y-4.9127
X10.8537Y-5.6589
X10.9059Y-6.4051
X10.9581Y-7.1513
X11.1581Y-4.7002
X11.1972Y-5.4472
X11.2364Y-6.1942
X11.2755Y-6.9412
X11.3147Y-7.6882
X11.5906Y-4.6776
X11.6297Y-5.4246
X11.6689Y-6.1716
X11.708Y-6.9186
X11.7472Y-7.6656
X11.9536Y-4.55
X11.9797Y-5.2976
X12.0058Y-6.0452
X12.0319Y-6.7927
X12.058Y-7.5403
X12.3864Y-4.5349
X12.4125Y-5.2825
X12.4386Y-6.0301
X12.4647Y-6.7776
X12.4908Y-7.5252
X12.7563Y-4.6893
X12.7694Y-5.4372
X12.7824Y-6.1851
X12.7955Y-6.933
X12.8085Y-7.6809
X13.1893Y-4.6817
X13.2024Y-5.4296
X13.2154Y-6.1776
X13.2285Y-6.9255
X13.2416Y-7.6734
X13.5565Y-4.8819
X13.5565Y-5.6299
X13.5565Y-6.378
X13.5565Y-7.126
X13.5565Y-7.874
X13.9896Y-4.8819
X13.9896Y-5.6299
X13.9896Y-6.378
X13.9896Y-7.126
X13.9896Y-7.874
T4
X9.6429Y-8.4996
X9.6532Y-5.141
X9.7054Y-5.8872
X9.7576Y-6.6334
X9.8098Y-7.3796
X9.8556Y-5.2137
X9.8573Y-8.5175
X9.9078Y-5.9599
X9.96Y-6.7061
X10.0122Y-7.4523
X10.3502Y-8.2561
X10.3994Y-5.0888
X10.4516Y-5.835
X10.5038Y-6.5812
X10.556Y-7.3274
X10.5645Y-8.2739
X10.6018Y-5.1615
X10.654Y-5.9077
X10.7062Y-6.6539
X10.7584Y-7.4001
X11.1855Y-4.8466
X11.2246Y-5.5936
X11.2638Y-6.3406
X11.3029Y-7.0876
X11.3421Y-7.8346
X11.3866Y-4.9228
X11.4257Y-5.6698
X11.4649Y-6.4168
X11.504Y-7.1638
X11.5432Y-7.9108
X11.9784Y-4.6969
X12.0045Y-5.4445
X12.0306Y-6.192
X12.0567Y-6.9396
X12.0828Y-7.6872
X12.1781Y-4.7766
X12.2042Y-5.5241
X12.2303Y-6.2717
X12.2565Y-7.0193
X12.2826Y-7.7669
X12.7786Y-4.8365
X12.7916Y-5.5845
X12.8047Y-6.3324
X12.8178Y-7.0803
X12.8308Y-7.8282
X12.9769Y-4.9197
X12.99Y-5.6676
X13.003Y-6.4155
X13.0161Y-7.1635
X13.0291Y-7.9114
X13.5762Y-5.0295
X13.5762Y-5.7776
X13.5762Y-6.5256
X13.5762Y-7.2736
X13.5762Y-8.0217
X13.7731Y-5.1161
X13.7731Y-5.8642
X13.7731Y-6.6122
X13.7731Y-7.3602
X13.7731Y-8.1083
T5
X9.781Y-8.296
X9.8393Y-4.98
X9.8915Y-5.7262
X9.9437Y-6.4724
X9.9958Y-7.2186
X10.4883Y-8.0524
X10.5855Y-4.9278
X10.6377Y-5.674
X10.6899Y-6.4202
X10.742Y-7.1664
X11.3743Y-4.6889
X11.4135Y-5.4359
X11.4526Y-6.1829
X11.4918Y-6.9299
X11.5309Y-7.6769
X12.17Y-4.5425
X12.1961Y-5.29
X12.2222Y-6.0376
X12.2483Y-6.7852
X12.2744Y-7.5328
X12.9728Y-4.6855
X12.9859Y-5.4334
X12.9989Y-6.1813
X13.012Y-6.9292
X13.025Y-7.6772
X13.7731Y-4.8819
X13.7731Y-5.6299
X13.7731Y-6.378
X13.7731Y-7.126
X13.7731Y-7.874
M30
