%TF.GenerationSoftware,KiCad,Pcbnew,8.0.4*%
%TF.CreationDate,2024-08-23T21:58:39-04:00*%
%TF.ProjectId,right,72696768-742e-46b6-9963-61645f706362,v1.0.0*%
%TF.SameCoordinates,Original*%
%TF.FileFunction,Profile,NP*%
%FSLAX46Y46*%
G04 Gerber Fmt 4.6, Leading zero omitted, Abs format (unit mm)*
G04 Created by KiCad (PCBNEW 8.0.4) date 2024-08-23 21:58:39*
%MOMM*%
%LPD*%
G01*
G04 APERTURE LIST*
%TA.AperFunction,Profile*%
%ADD10C,0.150000*%
%TD*%
G04 APERTURE END LIST*
D10*
X279756001Y-211038643D02*
G75*
G02*
X280713337Y-210875263I976699J-2836557D01*
G01*
X234621196Y-204379903D02*
G75*
G02*
X234615021Y-204361781I2824504J972503D01*
G01*
X319220135Y-102418012D02*
G75*
G02*
X320105712Y-102519605I104665J-2998188D01*
G01*
X219179425Y-158586635D02*
X234615021Y-204361781D01*
X319220135Y-102418012D02*
X297969851Y-103160088D01*
X358617148Y-112901755D02*
G75*
G02*
X360836249Y-115798344I-780848J-2896545D01*
G01*
X244291564Y-223250028D02*
G75*
G02*
X240478369Y-221390154I-976664J2836528D01*
G01*
X216475346Y-121311737D02*
X219029464Y-157837322D01*
X238439918Y-116732339D02*
G75*
G02*
X237979739Y-116800672I-669418J2924439D01*
G01*
X360836267Y-207500000D02*
G75*
G02*
X357836267Y-210499967I-2999967J0D01*
G01*
X237979739Y-116800678D02*
X219258769Y-118109775D01*
X338845955Y-210500000D02*
X357836267Y-210500000D01*
X358617148Y-112901756D02*
X320105714Y-102519596D01*
X216475345Y-121311737D02*
G75*
G02*
X219258774Y-118109844I2992655J209237D01*
G01*
X244291564Y-223250028D02*
X279756001Y-211038643D01*
X280713337Y-210875261D02*
X338826586Y-210500062D01*
X338826586Y-210500063D02*
G75*
G02*
X338845955Y-210500000I19514J-3025137D01*
G01*
X297405101Y-103233908D02*
X238439919Y-116732338D01*
X297405101Y-103233908D02*
G75*
G02*
X297969851Y-103160096I669399J-2924292D01*
G01*
X219179425Y-158586635D02*
G75*
G02*
X219029473Y-157837321I2842675J958535D01*
G01*
X360836267Y-207500000D02*
X360836267Y-115798344D01*
X234621196Y-204379903D02*
X240478303Y-221390177D01*
M02*
