%TF.GenerationSoftware,KiCad,Pcbnew,8.0.4*%
%TF.CreationDate,2024-08-23T21:58:39-04:00*%
%TF.ProjectId,right,72696768-742e-46b6-9963-61645f706362,v1.0.0*%
%TF.SameCoordinates,Original*%
%TF.FileFunction,Legend,Top*%
%TF.FilePolarity,Positive*%
%FSLAX46Y46*%
G04 Gerber Fmt 4.6, Leading zero omitted, Abs format (unit mm)*
G04 Created by KiCad (PCBNEW 8.0.4) date 2024-08-23 21:58:39*
%MOMM*%
%LPD*%
G01*
G04 APERTURE LIST*
%ADD10C,0.400000*%
%ADD11C,0.150000*%
%ADD12C,0.300000*%
%ADD13C,0.381000*%
%ADD14C,0.100000*%
%ADD15C,1.752600*%
G04 APERTURE END LIST*
D10*
X228520446Y-173660326D02*
X230411483Y-173009190D01*
X229871187Y-173195229D02*
X230187845Y-173237283D01*
X230187845Y-173237283D02*
X230369428Y-173325848D01*
X230369428Y-173325848D02*
X230597522Y-173549486D01*
X230597522Y-173549486D02*
X230690541Y-173819634D01*
X230205665Y-175044211D02*
X230949821Y-177205397D01*
X230334326Y-178928216D02*
X233170881Y-177951511D01*
X232090289Y-178323589D02*
X232318382Y-178547227D01*
X232318382Y-178547227D02*
X232504421Y-179087524D01*
X232504421Y-179087524D02*
X232462367Y-179404182D01*
X232462367Y-179404182D02*
X232373802Y-179585766D01*
X232373802Y-179585766D02*
X232150164Y-179813859D01*
X232150164Y-179813859D02*
X231339719Y-180092918D01*
X231339719Y-180092918D02*
X231023061Y-180050863D01*
X231023061Y-180050863D02*
X230841478Y-179962299D01*
X230841478Y-179962299D02*
X230613384Y-179738660D01*
X230613384Y-179738660D02*
X230427345Y-179198364D01*
X230427345Y-179198364D02*
X230469400Y-178881706D01*
X231636598Y-182710290D02*
X233122413Y-182198683D01*
X233122413Y-182198683D02*
X233346052Y-181970590D01*
X233346052Y-181970590D02*
X233388106Y-181653932D01*
X233388106Y-181653932D02*
X233202067Y-181113635D01*
X233202067Y-181113635D02*
X232973974Y-180889997D01*
X231771672Y-182663780D02*
X231543579Y-182440142D01*
X231543579Y-182440142D02*
X231311030Y-181764772D01*
X231311030Y-181764772D02*
X231353085Y-181448114D01*
X231353085Y-181448114D02*
X231576723Y-181220020D01*
X231576723Y-181220020D02*
X231846871Y-181127001D01*
X231846871Y-181127001D02*
X232163529Y-181169055D01*
X232163529Y-181169055D02*
X232391623Y-181392694D01*
X232391623Y-181392694D02*
X232624172Y-182068064D01*
X232624172Y-182068064D02*
X232852265Y-182291703D01*
X232101696Y-184061031D02*
X233992733Y-183409895D01*
X233452437Y-183595934D02*
X233769095Y-183637989D01*
X233769095Y-183637989D02*
X233950678Y-183726553D01*
X233950678Y-183726553D02*
X234178772Y-183950191D01*
X234178772Y-183950191D02*
X234271791Y-184220339D01*
X233786915Y-185444917D02*
X234531071Y-187606102D01*
X233915576Y-189328921D02*
X236752131Y-188352216D01*
X235671539Y-188724294D02*
X235899632Y-188947933D01*
X235899632Y-188947933D02*
X236085671Y-189488229D01*
X236085671Y-189488229D02*
X236043617Y-189804887D01*
X236043617Y-189804887D02*
X235955052Y-189986471D01*
X235955052Y-189986471D02*
X235731414Y-190214564D01*
X235731414Y-190214564D02*
X234920969Y-190493623D01*
X234920969Y-190493623D02*
X234604311Y-190451568D01*
X234604311Y-190451568D02*
X234422728Y-190363004D01*
X234422728Y-190363004D02*
X234194634Y-190139365D01*
X234194634Y-190139365D02*
X234008595Y-189599069D01*
X234008595Y-189599069D02*
X234050650Y-189282411D01*
X234938790Y-192300551D02*
X234980845Y-191983893D01*
X234980845Y-191983893D02*
X235069409Y-191802309D01*
X235069409Y-191802309D02*
X235293047Y-191574216D01*
X235293047Y-191574216D02*
X236103492Y-191295157D01*
X236103492Y-191295157D02*
X236420150Y-191337212D01*
X236420150Y-191337212D02*
X236601734Y-191425776D01*
X236601734Y-191425776D02*
X236829827Y-191649415D01*
X236829827Y-191649415D02*
X236969356Y-192054637D01*
X236969356Y-192054637D02*
X236927302Y-192371295D01*
X236927302Y-192371295D02*
X236838737Y-192552879D01*
X236838737Y-192552879D02*
X236615099Y-192780972D01*
X236615099Y-192780972D02*
X235804654Y-193060031D01*
X235804654Y-193060031D02*
X235487997Y-193017976D01*
X235487997Y-193017976D02*
X235306413Y-192929412D01*
X235306413Y-192929412D02*
X235078319Y-192705773D01*
X235078319Y-192705773D02*
X234938790Y-192300551D01*
X236101533Y-195677403D02*
X237587348Y-195165796D01*
X237587348Y-195165796D02*
X237810987Y-194937703D01*
X237810987Y-194937703D02*
X237853041Y-194621045D01*
X237853041Y-194621045D02*
X237667002Y-194080748D01*
X237667002Y-194080748D02*
X237438909Y-193857110D01*
X236236608Y-195630894D02*
X236008514Y-195407255D01*
X236008514Y-195407255D02*
X235775965Y-194731885D01*
X235775965Y-194731885D02*
X235818020Y-194415227D01*
X235818020Y-194415227D02*
X236041658Y-194187133D01*
X236041658Y-194187133D02*
X236311807Y-194094114D01*
X236311807Y-194094114D02*
X236628464Y-194136168D01*
X236628464Y-194136168D02*
X236856558Y-194359807D01*
X236856558Y-194359807D02*
X237089107Y-195035177D01*
X237089107Y-195035177D02*
X237317200Y-195258816D01*
X236566631Y-197028144D02*
X238457668Y-196377008D01*
X237917372Y-196563047D02*
X238234030Y-196605102D01*
X238234030Y-196605102D02*
X238415613Y-196693666D01*
X238415613Y-196693666D02*
X238643707Y-196917304D01*
X238643707Y-196917304D02*
X238736727Y-197187453D01*
X237589845Y-199999774D02*
X240426401Y-199023070D01*
X237724919Y-199953265D02*
X237496826Y-199729626D01*
X237496826Y-199729626D02*
X237310787Y-199189330D01*
X237310787Y-199189330D02*
X237352841Y-198872672D01*
X237352841Y-198872672D02*
X237441406Y-198691088D01*
X237441406Y-198691088D02*
X237665044Y-198462995D01*
X237665044Y-198462995D02*
X238475489Y-198183936D01*
X238475489Y-198183936D02*
X238792147Y-198225991D01*
X238792147Y-198225991D02*
X238973730Y-198314555D01*
X238973730Y-198314555D02*
X239201824Y-198538194D01*
X239201824Y-198538194D02*
X239387863Y-199078490D01*
X239387863Y-199078490D02*
X239345808Y-199395148D01*
D11*
X222323979Y-138106964D02*
X222399984Y-138101649D01*
X222399984Y-138101649D02*
X222478646Y-138134337D01*
X222478646Y-138134337D02*
X222519306Y-138169682D01*
X222519306Y-138169682D02*
X222562623Y-138243030D01*
X222562623Y-138243030D02*
X222611255Y-138392382D01*
X222611255Y-138392382D02*
X222624542Y-138582394D01*
X222624542Y-138582394D02*
X222597169Y-138737061D01*
X222597169Y-138737061D02*
X222564481Y-138815724D01*
X222564481Y-138815724D02*
X222529136Y-138856383D01*
X222529136Y-138856383D02*
X222455789Y-138899701D01*
X222455789Y-138899701D02*
X222379784Y-138905015D01*
X222379784Y-138905015D02*
X222301122Y-138872328D01*
X222301122Y-138872328D02*
X222260462Y-138836983D01*
X222260462Y-138836983D02*
X222217145Y-138763635D01*
X222217145Y-138763635D02*
X222168513Y-138614283D01*
X222168513Y-138614283D02*
X222155226Y-138424271D01*
X222155226Y-138424271D02*
X222182598Y-138269603D01*
X222182598Y-138269603D02*
X222215286Y-138190941D01*
X222215286Y-138190941D02*
X222250631Y-138150281D01*
X222250631Y-138150281D02*
X222323979Y-138106964D01*
X222899330Y-138143108D02*
X222934675Y-138102448D01*
X222934675Y-138102448D02*
X223008023Y-138059131D01*
X223008023Y-138059131D02*
X223198035Y-138045844D01*
X223198035Y-138045844D02*
X223276697Y-138078532D01*
X223276697Y-138078532D02*
X223317357Y-138113877D01*
X223317357Y-138113877D02*
X223360674Y-138187224D01*
X223360674Y-138187224D02*
X223365989Y-138263229D01*
X223365989Y-138263229D02*
X223335959Y-138379894D01*
X223335959Y-138379894D02*
X222911818Y-138867812D01*
X222911818Y-138867812D02*
X223405850Y-138833266D01*
X223659379Y-138089960D02*
X223694724Y-138049301D01*
X223694724Y-138049301D02*
X223768072Y-138005983D01*
X223768072Y-138005983D02*
X223958084Y-137992696D01*
X223958084Y-137992696D02*
X224036746Y-138025384D01*
X224036746Y-138025384D02*
X224077406Y-138060729D01*
X224077406Y-138060729D02*
X224120723Y-138134077D01*
X224120723Y-138134077D02*
X224126038Y-138210081D01*
X224126038Y-138210081D02*
X224096008Y-138326746D01*
X224096008Y-138326746D02*
X223671867Y-138814664D01*
X223671867Y-138814664D02*
X224165899Y-138780118D01*
X222149588Y-135613054D02*
X222225593Y-135607739D01*
X222225593Y-135607739D02*
X222304255Y-135640427D01*
X222304255Y-135640427D02*
X222344915Y-135675772D01*
X222344915Y-135675772D02*
X222388232Y-135749120D01*
X222388232Y-135749120D02*
X222436864Y-135898472D01*
X222436864Y-135898472D02*
X222450151Y-136088484D01*
X222450151Y-136088484D02*
X222422778Y-136243151D01*
X222422778Y-136243151D02*
X222390090Y-136321814D01*
X222390090Y-136321814D02*
X222354745Y-136362473D01*
X222354745Y-136362473D02*
X222281398Y-136405791D01*
X222281398Y-136405791D02*
X222205393Y-136411105D01*
X222205393Y-136411105D02*
X222126731Y-136378418D01*
X222126731Y-136378418D02*
X222086071Y-136343073D01*
X222086071Y-136343073D02*
X222042754Y-136269725D01*
X222042754Y-136269725D02*
X221994122Y-136120373D01*
X221994122Y-136120373D02*
X221980835Y-135930361D01*
X221980835Y-135930361D02*
X222008207Y-135775693D01*
X222008207Y-135775693D02*
X222040895Y-135697031D01*
X222040895Y-135697031D02*
X222076240Y-135656371D01*
X222076240Y-135656371D02*
X222149588Y-135613054D01*
X222724939Y-135649198D02*
X222760284Y-135608538D01*
X222760284Y-135608538D02*
X222833632Y-135565221D01*
X222833632Y-135565221D02*
X223023644Y-135551934D01*
X223023644Y-135551934D02*
X223102306Y-135584622D01*
X223102306Y-135584622D02*
X223142966Y-135619967D01*
X223142966Y-135619967D02*
X223186283Y-135693314D01*
X223186283Y-135693314D02*
X223191598Y-135769319D01*
X223191598Y-135769319D02*
X223161568Y-135885984D01*
X223161568Y-135885984D02*
X222737427Y-136373902D01*
X222737427Y-136373902D02*
X223231459Y-136339356D01*
X223669686Y-135506759D02*
X223745691Y-135501444D01*
X223745691Y-135501444D02*
X223824353Y-135534131D01*
X223824353Y-135534131D02*
X223865013Y-135569476D01*
X223865013Y-135569476D02*
X223908330Y-135642824D01*
X223908330Y-135642824D02*
X223956962Y-135792176D01*
X223956962Y-135792176D02*
X223970249Y-135982189D01*
X223970249Y-135982189D02*
X223942876Y-136136856D01*
X223942876Y-136136856D02*
X223910188Y-136215518D01*
X223910188Y-136215518D02*
X223874843Y-136256178D01*
X223874843Y-136256178D02*
X223801496Y-136299495D01*
X223801496Y-136299495D02*
X223725491Y-136304810D01*
X223725491Y-136304810D02*
X223646829Y-136272122D01*
X223646829Y-136272122D02*
X223606169Y-136236777D01*
X223606169Y-136236777D02*
X223562852Y-136163430D01*
X223562852Y-136163430D02*
X223514220Y-136014077D01*
X223514220Y-136014077D02*
X223500933Y-135824065D01*
X223500933Y-135824065D02*
X223528306Y-135669398D01*
X223528306Y-135669398D02*
X223560993Y-135590736D01*
X223560993Y-135590736D02*
X223596338Y-135550076D01*
X223596338Y-135550076D02*
X223669686Y-135506759D01*
X221431096Y-125338144D02*
X221507101Y-125332829D01*
X221507101Y-125332829D02*
X221585763Y-125365517D01*
X221585763Y-125365517D02*
X221626423Y-125400862D01*
X221626423Y-125400862D02*
X221669740Y-125474210D01*
X221669740Y-125474210D02*
X221718372Y-125623562D01*
X221718372Y-125623562D02*
X221731659Y-125813574D01*
X221731659Y-125813574D02*
X221704286Y-125968241D01*
X221704286Y-125968241D02*
X221671598Y-126046904D01*
X221671598Y-126046904D02*
X221636253Y-126087563D01*
X221636253Y-126087563D02*
X221562906Y-126130881D01*
X221562906Y-126130881D02*
X221486901Y-126136195D01*
X221486901Y-126136195D02*
X221408239Y-126103508D01*
X221408239Y-126103508D02*
X221367579Y-126068163D01*
X221367579Y-126068163D02*
X221324262Y-125994815D01*
X221324262Y-125994815D02*
X221275630Y-125845463D01*
X221275630Y-125845463D02*
X221262343Y-125655451D01*
X221262343Y-125655451D02*
X221289715Y-125500783D01*
X221289715Y-125500783D02*
X221322403Y-125422121D01*
X221322403Y-125422121D02*
X221357748Y-125381461D01*
X221357748Y-125381461D02*
X221431096Y-125338144D01*
X222191145Y-125284996D02*
X222267150Y-125279682D01*
X222267150Y-125279682D02*
X222345812Y-125312369D01*
X222345812Y-125312369D02*
X222386472Y-125347714D01*
X222386472Y-125347714D02*
X222429789Y-125421062D01*
X222429789Y-125421062D02*
X222478421Y-125570414D01*
X222478421Y-125570414D02*
X222491708Y-125760426D01*
X222491708Y-125760426D02*
X222464335Y-125915093D01*
X222464335Y-125915093D02*
X222431647Y-125993756D01*
X222431647Y-125993756D02*
X222396302Y-126034416D01*
X222396302Y-126034416D02*
X222322955Y-126077733D01*
X222322955Y-126077733D02*
X222246950Y-126083048D01*
X222246950Y-126083048D02*
X222168288Y-126050360D01*
X222168288Y-126050360D02*
X222127628Y-126015015D01*
X222127628Y-126015015D02*
X222084311Y-125941667D01*
X222084311Y-125941667D02*
X222035679Y-125792315D01*
X222035679Y-125792315D02*
X222022392Y-125602303D01*
X222022392Y-125602303D02*
X222049764Y-125447636D01*
X222049764Y-125447636D02*
X222082452Y-125368973D01*
X222082452Y-125368973D02*
X222117797Y-125328314D01*
X222117797Y-125328314D02*
X222191145Y-125284996D01*
X222937108Y-125576528D02*
X222858446Y-125543840D01*
X222858446Y-125543840D02*
X222817786Y-125508495D01*
X222817786Y-125508495D02*
X222774468Y-125435148D01*
X222774468Y-125435148D02*
X222771811Y-125397145D01*
X222771811Y-125397145D02*
X222804499Y-125318483D01*
X222804499Y-125318483D02*
X222839844Y-125277823D01*
X222839844Y-125277823D02*
X222913191Y-125234506D01*
X222913191Y-125234506D02*
X223065201Y-125223876D01*
X223065201Y-125223876D02*
X223143863Y-125256564D01*
X223143863Y-125256564D02*
X223184523Y-125291909D01*
X223184523Y-125291909D02*
X223227840Y-125365257D01*
X223227840Y-125365257D02*
X223230498Y-125403259D01*
X223230498Y-125403259D02*
X223197810Y-125481921D01*
X223197810Y-125481921D02*
X223162465Y-125522581D01*
X223162465Y-125522581D02*
X223089118Y-125565898D01*
X223089118Y-125565898D02*
X222937108Y-125576528D01*
X222937108Y-125576528D02*
X222863760Y-125619845D01*
X222863760Y-125619845D02*
X222828415Y-125660505D01*
X222828415Y-125660505D02*
X222795728Y-125739167D01*
X222795728Y-125739167D02*
X222806357Y-125891177D01*
X222806357Y-125891177D02*
X222849674Y-125964524D01*
X222849674Y-125964524D02*
X222890334Y-125999869D01*
X222890334Y-125999869D02*
X222968996Y-126032557D01*
X222968996Y-126032557D02*
X223121006Y-126021928D01*
X223121006Y-126021928D02*
X223194354Y-125978610D01*
X223194354Y-125978610D02*
X223229699Y-125937951D01*
X223229699Y-125937951D02*
X223262386Y-125859288D01*
X223262386Y-125859288D02*
X223251757Y-125707279D01*
X223251757Y-125707279D02*
X223208440Y-125633931D01*
X223208440Y-125633931D02*
X223167780Y-125598586D01*
X223167780Y-125598586D02*
X223089118Y-125565898D01*
X233369290Y-137304527D02*
X233445295Y-137299212D01*
X233445295Y-137299212D02*
X233523957Y-137331900D01*
X233523957Y-137331900D02*
X233564617Y-137367245D01*
X233564617Y-137367245D02*
X233607934Y-137440593D01*
X233607934Y-137440593D02*
X233656566Y-137589945D01*
X233656566Y-137589945D02*
X233669853Y-137779957D01*
X233669853Y-137779957D02*
X233642480Y-137934624D01*
X233642480Y-137934624D02*
X233609792Y-138013287D01*
X233609792Y-138013287D02*
X233574447Y-138053946D01*
X233574447Y-138053946D02*
X233501100Y-138097264D01*
X233501100Y-138097264D02*
X233425095Y-138102578D01*
X233425095Y-138102578D02*
X233346433Y-138069891D01*
X233346433Y-138069891D02*
X233305773Y-138034546D01*
X233305773Y-138034546D02*
X233262456Y-137961198D01*
X233262456Y-137961198D02*
X233213824Y-137811846D01*
X233213824Y-137811846D02*
X233200537Y-137621834D01*
X233200537Y-137621834D02*
X233227909Y-137467166D01*
X233227909Y-137467166D02*
X233260597Y-137388504D01*
X233260597Y-137388504D02*
X233295942Y-137347844D01*
X233295942Y-137347844D02*
X233369290Y-137304527D01*
X234129339Y-137251379D02*
X234205344Y-137246065D01*
X234205344Y-137246065D02*
X234284006Y-137278752D01*
X234284006Y-137278752D02*
X234324666Y-137314097D01*
X234324666Y-137314097D02*
X234367983Y-137387445D01*
X234367983Y-137387445D02*
X234416615Y-137536797D01*
X234416615Y-137536797D02*
X234429902Y-137726809D01*
X234429902Y-137726809D02*
X234402529Y-137881476D01*
X234402529Y-137881476D02*
X234369841Y-137960139D01*
X234369841Y-137960139D02*
X234334496Y-138000799D01*
X234334496Y-138000799D02*
X234261149Y-138044116D01*
X234261149Y-138044116D02*
X234185144Y-138049431D01*
X234185144Y-138049431D02*
X234106482Y-138016743D01*
X234106482Y-138016743D02*
X234065822Y-137981398D01*
X234065822Y-137981398D02*
X234022505Y-137908050D01*
X234022505Y-137908050D02*
X233973873Y-137758698D01*
X233973873Y-137758698D02*
X233960586Y-137568686D01*
X233960586Y-137568686D02*
X233987958Y-137414019D01*
X233987958Y-137414019D02*
X234020646Y-137335356D01*
X234020646Y-137335356D02*
X234055991Y-137294697D01*
X234055991Y-137294697D02*
X234129339Y-137251379D01*
X234704690Y-137287523D02*
X234740035Y-137246864D01*
X234740035Y-137246864D02*
X234813383Y-137203546D01*
X234813383Y-137203546D02*
X235003395Y-137190259D01*
X235003395Y-137190259D02*
X235082057Y-137222947D01*
X235082057Y-137222947D02*
X235122717Y-137258292D01*
X235122717Y-137258292D02*
X235166034Y-137331640D01*
X235166034Y-137331640D02*
X235171349Y-137407644D01*
X235171349Y-137407644D02*
X235141319Y-137524309D01*
X235141319Y-137524309D02*
X234717178Y-138012227D01*
X234717178Y-138012227D02*
X235211210Y-137977681D01*
X221968221Y-133019387D02*
X222044226Y-133014072D01*
X222044226Y-133014072D02*
X222122888Y-133046760D01*
X222122888Y-133046760D02*
X222163548Y-133082105D01*
X222163548Y-133082105D02*
X222206865Y-133155453D01*
X222206865Y-133155453D02*
X222255497Y-133304805D01*
X222255497Y-133304805D02*
X222268784Y-133494817D01*
X222268784Y-133494817D02*
X222241411Y-133649484D01*
X222241411Y-133649484D02*
X222208723Y-133728147D01*
X222208723Y-133728147D02*
X222173378Y-133768806D01*
X222173378Y-133768806D02*
X222100031Y-133812124D01*
X222100031Y-133812124D02*
X222024026Y-133817438D01*
X222024026Y-133817438D02*
X221945364Y-133784751D01*
X221945364Y-133784751D02*
X221904704Y-133749406D01*
X221904704Y-133749406D02*
X221861387Y-133676058D01*
X221861387Y-133676058D02*
X221812755Y-133526706D01*
X221812755Y-133526706D02*
X221799468Y-133336694D01*
X221799468Y-133336694D02*
X221826840Y-133182026D01*
X221826840Y-133182026D02*
X221859528Y-133103364D01*
X221859528Y-133103364D02*
X221894873Y-133062704D01*
X221894873Y-133062704D02*
X221968221Y-133019387D01*
X223050092Y-133745689D02*
X222594063Y-133777578D01*
X222822077Y-133761633D02*
X222766272Y-132963582D01*
X222766272Y-132963582D02*
X222698239Y-133082904D01*
X222698239Y-133082904D02*
X222627549Y-133164224D01*
X222627549Y-133164224D02*
X222554202Y-133207541D01*
X223260304Y-132929036D02*
X223792338Y-132891832D01*
X223792338Y-132891832D02*
X223506121Y-133713800D01*
X233014928Y-132236902D02*
X233090933Y-132231587D01*
X233090933Y-132231587D02*
X233169595Y-132264275D01*
X233169595Y-132264275D02*
X233210255Y-132299620D01*
X233210255Y-132299620D02*
X233253572Y-132372968D01*
X233253572Y-132372968D02*
X233302204Y-132522320D01*
X233302204Y-132522320D02*
X233315491Y-132712332D01*
X233315491Y-132712332D02*
X233288118Y-132866999D01*
X233288118Y-132866999D02*
X233255430Y-132945662D01*
X233255430Y-132945662D02*
X233220085Y-132986321D01*
X233220085Y-132986321D02*
X233146738Y-133029639D01*
X233146738Y-133029639D02*
X233070733Y-133034953D01*
X233070733Y-133034953D02*
X232992071Y-133002266D01*
X232992071Y-133002266D02*
X232951411Y-132966921D01*
X232951411Y-132966921D02*
X232908094Y-132893573D01*
X232908094Y-132893573D02*
X232859462Y-132744221D01*
X232859462Y-132744221D02*
X232846175Y-132554209D01*
X232846175Y-132554209D02*
X232873547Y-132399541D01*
X232873547Y-132399541D02*
X232906235Y-132320879D01*
X232906235Y-132320879D02*
X232941580Y-132280219D01*
X232941580Y-132280219D02*
X233014928Y-132236902D01*
X233546962Y-132199699D02*
X234040994Y-132165153D01*
X234040994Y-132165153D02*
X233796236Y-132487774D01*
X233796236Y-132487774D02*
X233910243Y-132479802D01*
X233910243Y-132479802D02*
X233988905Y-132512489D01*
X233988905Y-132512489D02*
X234029565Y-132547834D01*
X234029565Y-132547834D02*
X234072882Y-132621182D01*
X234072882Y-132621182D02*
X234086169Y-132811194D01*
X234086169Y-132811194D02*
X234053482Y-132889856D01*
X234053482Y-132889856D02*
X234018137Y-132930516D01*
X234018137Y-132930516D02*
X233944789Y-132973833D01*
X233944789Y-132973833D02*
X233716775Y-132989778D01*
X233716775Y-132989778D02*
X233638112Y-132957090D01*
X233638112Y-132957090D02*
X233597452Y-132921745D01*
X234856848Y-132910056D02*
X234400819Y-132941945D01*
X234628833Y-132926000D02*
X234573028Y-132127949D01*
X234573028Y-132127949D02*
X234504995Y-132247271D01*
X234504995Y-132247271D02*
X234434305Y-132328591D01*
X234434305Y-132328591D02*
X234360958Y-132371908D01*
X234045475Y-143151603D02*
X233589446Y-143183491D01*
X233817460Y-143167547D02*
X233761655Y-142369496D01*
X233761655Y-142369496D02*
X233693622Y-142488818D01*
X233693622Y-142488818D02*
X233622932Y-142570138D01*
X233622932Y-142570138D02*
X233549585Y-142613455D01*
X234805524Y-143098455D02*
X234349495Y-143130344D01*
X234577509Y-143114399D02*
X234521704Y-142316348D01*
X234521704Y-142316348D02*
X234453671Y-142435670D01*
X234453671Y-142435670D02*
X234382981Y-142516990D01*
X234382981Y-142516990D02*
X234309634Y-142560307D01*
X235015736Y-142281802D02*
X235509768Y-142247256D01*
X235509768Y-142247256D02*
X235265010Y-142569877D01*
X235265010Y-142569877D02*
X235379017Y-142561905D01*
X235379017Y-142561905D02*
X235457679Y-142594593D01*
X235457679Y-142594593D02*
X235498339Y-142629938D01*
X235498339Y-142629938D02*
X235541656Y-142703285D01*
X235541656Y-142703285D02*
X235554943Y-142893297D01*
X235554943Y-142893297D02*
X235522256Y-142971960D01*
X235522256Y-142971960D02*
X235486911Y-143012619D01*
X235486911Y-143012619D02*
X235413563Y-143055937D01*
X235413563Y-143055937D02*
X235185549Y-143071881D01*
X235185549Y-143071881D02*
X235106886Y-143039193D01*
X235106886Y-143039193D02*
X235066226Y-143003848D01*
X233192109Y-134770715D02*
X233268114Y-134765400D01*
X233268114Y-134765400D02*
X233346776Y-134798088D01*
X233346776Y-134798088D02*
X233387436Y-134833433D01*
X233387436Y-134833433D02*
X233430753Y-134906781D01*
X233430753Y-134906781D02*
X233479385Y-135056133D01*
X233479385Y-135056133D02*
X233492672Y-135246145D01*
X233492672Y-135246145D02*
X233465299Y-135400812D01*
X233465299Y-135400812D02*
X233432611Y-135479475D01*
X233432611Y-135479475D02*
X233397266Y-135520134D01*
X233397266Y-135520134D02*
X233323919Y-135563452D01*
X233323919Y-135563452D02*
X233247914Y-135568766D01*
X233247914Y-135568766D02*
X233169252Y-135536079D01*
X233169252Y-135536079D02*
X233128592Y-135500734D01*
X233128592Y-135500734D02*
X233085275Y-135427386D01*
X233085275Y-135427386D02*
X233036643Y-135278034D01*
X233036643Y-135278034D02*
X233023356Y-135088022D01*
X233023356Y-135088022D02*
X233050728Y-134933354D01*
X233050728Y-134933354D02*
X233083416Y-134854692D01*
X233083416Y-134854692D02*
X233118761Y-134814032D01*
X233118761Y-134814032D02*
X233192109Y-134770715D01*
X233767460Y-134806859D02*
X233802805Y-134766199D01*
X233802805Y-134766199D02*
X233876153Y-134722882D01*
X233876153Y-134722882D02*
X234066165Y-134709595D01*
X234066165Y-134709595D02*
X234144827Y-134742283D01*
X234144827Y-134742283D02*
X234185487Y-134777628D01*
X234185487Y-134777628D02*
X234228804Y-134850975D01*
X234228804Y-134850975D02*
X234234119Y-134926980D01*
X234234119Y-134926980D02*
X234204089Y-135043645D01*
X234204089Y-135043645D02*
X233779948Y-135531563D01*
X233779948Y-135531563D02*
X234273980Y-135497017D01*
X234654005Y-135470443D02*
X234806014Y-135459813D01*
X234806014Y-135459813D02*
X234879362Y-135416496D01*
X234879362Y-135416496D02*
X234914707Y-135375836D01*
X234914707Y-135375836D02*
X234982740Y-135256514D01*
X234982740Y-135256514D02*
X235010112Y-135101847D01*
X235010112Y-135101847D02*
X234988853Y-134797828D01*
X234988853Y-134797828D02*
X234945536Y-134724480D01*
X234945536Y-134724480D02*
X234904876Y-134689135D01*
X234904876Y-134689135D02*
X234826214Y-134656447D01*
X234826214Y-134656447D02*
X234674204Y-134667077D01*
X234674204Y-134667077D02*
X234600857Y-134710394D01*
X234600857Y-134710394D02*
X234565512Y-134751054D01*
X234565512Y-134751054D02*
X234532824Y-134829716D01*
X234532824Y-134829716D02*
X234546111Y-135019728D01*
X234546111Y-135019728D02*
X234589428Y-135093076D01*
X234589428Y-135093076D02*
X234630088Y-135128421D01*
X234630088Y-135128421D02*
X234708750Y-135161109D01*
X234708750Y-135161109D02*
X234860760Y-135150479D01*
X234860760Y-135150479D02*
X234934108Y-135107162D01*
X234934108Y-135107162D02*
X234969453Y-135066502D01*
X234969453Y-135066502D02*
X235002140Y-134987840D01*
X233128078Y-127938538D02*
X232835487Y-127577115D01*
X232672049Y-127970427D02*
X232616244Y-127172376D01*
X232616244Y-127172376D02*
X232920263Y-127151116D01*
X232920263Y-127151116D02*
X232998925Y-127183804D01*
X232998925Y-127183804D02*
X233039585Y-127219149D01*
X233039585Y-127219149D02*
X233082903Y-127292497D01*
X233082903Y-127292497D02*
X233090875Y-127406504D01*
X233090875Y-127406504D02*
X233058187Y-127485166D01*
X233058187Y-127485166D02*
X233022842Y-127525826D01*
X233022842Y-127525826D02*
X232949495Y-127569143D01*
X232949495Y-127569143D02*
X232645475Y-127590402D01*
X233429440Y-127879277D02*
X233546105Y-127909307D01*
X233546105Y-127909307D02*
X233736117Y-127896020D01*
X233736117Y-127896020D02*
X233809465Y-127852703D01*
X233809465Y-127852703D02*
X233844810Y-127812043D01*
X233844810Y-127812043D02*
X233877497Y-127733381D01*
X233877497Y-127733381D02*
X233872183Y-127657376D01*
X233872183Y-127657376D02*
X233828865Y-127584028D01*
X233828865Y-127584028D02*
X233788206Y-127548683D01*
X233788206Y-127548683D02*
X233709543Y-127515996D01*
X233709543Y-127515996D02*
X233554876Y-127488623D01*
X233554876Y-127488623D02*
X233476214Y-127455935D01*
X233476214Y-127455935D02*
X233435554Y-127420590D01*
X233435554Y-127420590D02*
X233392237Y-127347242D01*
X233392237Y-127347242D02*
X233386922Y-127271238D01*
X233386922Y-127271238D02*
X233419610Y-127192575D01*
X233419610Y-127192575D02*
X233454955Y-127151915D01*
X233454955Y-127151915D02*
X233528302Y-127108598D01*
X233528302Y-127108598D02*
X233718314Y-127095311D01*
X233718314Y-127095311D02*
X233834979Y-127125342D01*
X234060337Y-127071395D02*
X234516366Y-127039506D01*
X234344156Y-127853502D02*
X234288351Y-127055450D01*
X222499067Y-140610850D02*
X222575072Y-140605535D01*
X222575072Y-140605535D02*
X222653734Y-140638223D01*
X222653734Y-140638223D02*
X222694394Y-140673568D01*
X222694394Y-140673568D02*
X222737711Y-140746916D01*
X222737711Y-140746916D02*
X222786343Y-140896268D01*
X222786343Y-140896268D02*
X222799630Y-141086280D01*
X222799630Y-141086280D02*
X222772257Y-141240947D01*
X222772257Y-141240947D02*
X222739569Y-141319610D01*
X222739569Y-141319610D02*
X222704224Y-141360269D01*
X222704224Y-141360269D02*
X222630877Y-141403587D01*
X222630877Y-141403587D02*
X222554872Y-141408901D01*
X222554872Y-141408901D02*
X222476210Y-141376214D01*
X222476210Y-141376214D02*
X222435550Y-141340869D01*
X222435550Y-141340869D02*
X222392233Y-141267521D01*
X222392233Y-141267521D02*
X222343601Y-141118169D01*
X222343601Y-141118169D02*
X222330314Y-140928157D01*
X222330314Y-140928157D02*
X222357686Y-140773489D01*
X222357686Y-140773489D02*
X222390374Y-140694827D01*
X222390374Y-140694827D02*
X222425719Y-140654167D01*
X222425719Y-140654167D02*
X222499067Y-140610850D01*
X223074418Y-140646994D02*
X223109763Y-140606334D01*
X223109763Y-140606334D02*
X223183111Y-140563017D01*
X223183111Y-140563017D02*
X223373123Y-140549730D01*
X223373123Y-140549730D02*
X223451785Y-140582418D01*
X223451785Y-140582418D02*
X223492445Y-140617763D01*
X223492445Y-140617763D02*
X223535762Y-140691110D01*
X223535762Y-140691110D02*
X223541077Y-140767115D01*
X223541077Y-140767115D02*
X223511047Y-140883780D01*
X223511047Y-140883780D02*
X223086906Y-141371698D01*
X223086906Y-141371698D02*
X223580938Y-141337152D01*
X224227779Y-140757285D02*
X224264982Y-141289319D01*
X224016507Y-140466552D02*
X223866356Y-141049876D01*
X223866356Y-141049876D02*
X224360388Y-141015330D01*
X232545701Y-122886857D02*
X232253110Y-122525435D01*
X232089671Y-122918746D02*
X232033866Y-122120695D01*
X232033866Y-122120695D02*
X232337886Y-122099436D01*
X232337886Y-122099436D02*
X232416548Y-122132123D01*
X232416548Y-122132123D02*
X232457208Y-122167468D01*
X232457208Y-122167468D02*
X232500525Y-122240816D01*
X232500525Y-122240816D02*
X232508497Y-122354823D01*
X232508497Y-122354823D02*
X232475809Y-122433485D01*
X232475809Y-122433485D02*
X232440464Y-122474145D01*
X232440464Y-122474145D02*
X232367117Y-122517463D01*
X232367117Y-122517463D02*
X232063097Y-122538722D01*
X232833776Y-122637584D02*
X233213800Y-122611010D01*
X232773715Y-122870913D02*
X232983927Y-122054260D01*
X232983927Y-122054260D02*
X233305749Y-122833710D01*
X233439956Y-122022371D02*
X233685773Y-122807136D01*
X233685773Y-122807136D02*
X233797922Y-122226470D01*
X233797922Y-122226470D02*
X233989793Y-122785877D01*
X233989793Y-122785877D02*
X234124000Y-121974538D01*
X221258797Y-122874161D02*
X221334802Y-122868846D01*
X221334802Y-122868846D02*
X221413464Y-122901534D01*
X221413464Y-122901534D02*
X221454124Y-122936879D01*
X221454124Y-122936879D02*
X221497441Y-123010227D01*
X221497441Y-123010227D02*
X221546073Y-123159579D01*
X221546073Y-123159579D02*
X221559360Y-123349591D01*
X221559360Y-123349591D02*
X221531987Y-123504258D01*
X221531987Y-123504258D02*
X221499299Y-123582921D01*
X221499299Y-123582921D02*
X221463954Y-123623580D01*
X221463954Y-123623580D02*
X221390607Y-123666898D01*
X221390607Y-123666898D02*
X221314602Y-123672212D01*
X221314602Y-123672212D02*
X221235940Y-123639525D01*
X221235940Y-123639525D02*
X221195280Y-123604180D01*
X221195280Y-123604180D02*
X221151963Y-123530832D01*
X221151963Y-123530832D02*
X221103331Y-123381480D01*
X221103331Y-123381480D02*
X221090044Y-123191468D01*
X221090044Y-123191468D02*
X221117416Y-123036800D01*
X221117416Y-123036800D02*
X221150104Y-122958138D01*
X221150104Y-122958138D02*
X221185449Y-122917478D01*
X221185449Y-122917478D02*
X221258797Y-122874161D01*
X222018846Y-122821013D02*
X222094851Y-122815699D01*
X222094851Y-122815699D02*
X222173513Y-122848386D01*
X222173513Y-122848386D02*
X222214173Y-122883731D01*
X222214173Y-122883731D02*
X222257490Y-122957079D01*
X222257490Y-122957079D02*
X222306122Y-123106431D01*
X222306122Y-123106431D02*
X222319409Y-123296443D01*
X222319409Y-123296443D02*
X222292036Y-123451110D01*
X222292036Y-123451110D02*
X222259348Y-123529773D01*
X222259348Y-123529773D02*
X222224003Y-123570433D01*
X222224003Y-123570433D02*
X222150656Y-123613750D01*
X222150656Y-123613750D02*
X222074651Y-123619065D01*
X222074651Y-123619065D02*
X221995989Y-123586377D01*
X221995989Y-123586377D02*
X221955329Y-123551032D01*
X221955329Y-123551032D02*
X221912012Y-123477684D01*
X221912012Y-123477684D02*
X221863380Y-123328332D01*
X221863380Y-123328332D02*
X221850093Y-123138320D01*
X221850093Y-123138320D02*
X221877465Y-122983653D01*
X221877465Y-122983653D02*
X221910153Y-122904990D01*
X221910153Y-122904990D02*
X221945498Y-122864331D01*
X221945498Y-122864331D02*
X222018846Y-122821013D01*
X222968907Y-122754579D02*
X222816897Y-122765208D01*
X222816897Y-122765208D02*
X222743550Y-122808525D01*
X222743550Y-122808525D02*
X222708205Y-122849185D01*
X222708205Y-122849185D02*
X222640172Y-122968507D01*
X222640172Y-122968507D02*
X222612799Y-123123174D01*
X222612799Y-123123174D02*
X222634058Y-123427194D01*
X222634058Y-123427194D02*
X222677375Y-123500541D01*
X222677375Y-123500541D02*
X222718035Y-123535886D01*
X222718035Y-123535886D02*
X222796697Y-123568574D01*
X222796697Y-123568574D02*
X222948707Y-123557945D01*
X222948707Y-123557945D02*
X223022055Y-123514627D01*
X223022055Y-123514627D02*
X223057400Y-123473968D01*
X223057400Y-123473968D02*
X223090087Y-123395305D01*
X223090087Y-123395305D02*
X223076800Y-123205293D01*
X223076800Y-123205293D02*
X223033483Y-123131946D01*
X223033483Y-123131946D02*
X222992823Y-123096601D01*
X222992823Y-123096601D02*
X222914161Y-123063913D01*
X222914161Y-123063913D02*
X222762151Y-123074542D01*
X222762151Y-123074542D02*
X222688804Y-123117860D01*
X222688804Y-123117860D02*
X222653459Y-123158519D01*
X222653459Y-123158519D02*
X222620771Y-123237182D01*
X234222657Y-145685415D02*
X233766628Y-145717303D01*
X233994642Y-145701359D02*
X233938837Y-144903308D01*
X233938837Y-144903308D02*
X233870804Y-145022630D01*
X233870804Y-145022630D02*
X233800114Y-145103950D01*
X233800114Y-145103950D02*
X233726767Y-145147267D01*
X234982706Y-145632267D02*
X234526677Y-145664156D01*
X234754691Y-145648211D02*
X234698886Y-144850160D01*
X234698886Y-144850160D02*
X234630853Y-144969482D01*
X234630853Y-144969482D02*
X234560163Y-145050802D01*
X234560163Y-145050802D02*
X234486816Y-145094119D01*
X235742755Y-145579119D02*
X235286726Y-145611008D01*
X235514740Y-145595063D02*
X235458935Y-144797012D01*
X235458935Y-144797012D02*
X235390902Y-144916334D01*
X235390902Y-144916334D02*
X235320212Y-144997654D01*
X235320212Y-144997654D02*
X235246865Y-145040971D01*
X223352434Y-148991738D02*
X222896405Y-149023626D01*
X223124419Y-149007682D02*
X223068614Y-148209631D01*
X223068614Y-148209631D02*
X223000581Y-148328953D01*
X223000581Y-148328953D02*
X222929891Y-148410273D01*
X222929891Y-148410273D02*
X222856544Y-148453590D01*
X223790661Y-148159140D02*
X223866666Y-148153826D01*
X223866666Y-148153826D02*
X223945328Y-148186513D01*
X223945328Y-148186513D02*
X223985988Y-148221858D01*
X223985988Y-148221858D02*
X224029305Y-148295206D01*
X224029305Y-148295206D02*
X224077937Y-148444558D01*
X224077937Y-148444558D02*
X224091224Y-148634570D01*
X224091224Y-148634570D02*
X224063851Y-148789237D01*
X224063851Y-148789237D02*
X224031163Y-148867900D01*
X224031163Y-148867900D02*
X223995818Y-148908560D01*
X223995818Y-148908560D02*
X223922471Y-148951877D01*
X223922471Y-148951877D02*
X223846466Y-148957192D01*
X223846466Y-148957192D02*
X223767804Y-148924504D01*
X223767804Y-148924504D02*
X223727144Y-148889159D01*
X223727144Y-148889159D02*
X223683827Y-148815811D01*
X223683827Y-148815811D02*
X223635195Y-148666459D01*
X223635195Y-148666459D02*
X223621908Y-148476447D01*
X223621908Y-148476447D02*
X223649280Y-148321780D01*
X223649280Y-148321780D02*
X223681968Y-148243117D01*
X223681968Y-148243117D02*
X223717313Y-148202458D01*
X223717313Y-148202458D02*
X223790661Y-148159140D01*
X224759324Y-148358723D02*
X224796527Y-148890757D01*
X224548052Y-148067990D02*
X224397901Y-148651314D01*
X224397901Y-148651314D02*
X224891933Y-148616768D01*
X222998071Y-143924113D02*
X222542042Y-143956001D01*
X222770056Y-143940057D02*
X222714251Y-143142006D01*
X222714251Y-143142006D02*
X222646218Y-143261328D01*
X222646218Y-143261328D02*
X222575528Y-143342648D01*
X222575528Y-143342648D02*
X222502181Y-143385965D01*
X223436298Y-143091515D02*
X223512303Y-143086201D01*
X223512303Y-143086201D02*
X223590965Y-143118888D01*
X223590965Y-143118888D02*
X223631625Y-143154233D01*
X223631625Y-143154233D02*
X223674942Y-143227581D01*
X223674942Y-143227581D02*
X223723574Y-143376933D01*
X223723574Y-143376933D02*
X223736861Y-143566945D01*
X223736861Y-143566945D02*
X223709488Y-143721612D01*
X223709488Y-143721612D02*
X223676800Y-143800275D01*
X223676800Y-143800275D02*
X223641455Y-143840935D01*
X223641455Y-143840935D02*
X223568108Y-143884252D01*
X223568108Y-143884252D02*
X223492103Y-143889567D01*
X223492103Y-143889567D02*
X223413441Y-143856879D01*
X223413441Y-143856879D02*
X223372781Y-143821534D01*
X223372781Y-143821534D02*
X223329464Y-143748186D01*
X223329464Y-143748186D02*
X223280832Y-143598834D01*
X223280832Y-143598834D02*
X223267545Y-143408822D01*
X223267545Y-143408822D02*
X223294917Y-143254155D01*
X223294917Y-143254155D02*
X223327605Y-143175492D01*
X223327605Y-143175492D02*
X223362950Y-143134833D01*
X223362950Y-143134833D02*
X223436298Y-143091515D01*
X224196347Y-143038368D02*
X224272352Y-143033053D01*
X224272352Y-143033053D02*
X224351014Y-143065740D01*
X224351014Y-143065740D02*
X224391674Y-143101085D01*
X224391674Y-143101085D02*
X224434991Y-143174433D01*
X224434991Y-143174433D02*
X224483623Y-143323785D01*
X224483623Y-143323785D02*
X224496910Y-143513798D01*
X224496910Y-143513798D02*
X224469537Y-143668465D01*
X224469537Y-143668465D02*
X224436849Y-143747127D01*
X224436849Y-143747127D02*
X224401504Y-143787787D01*
X224401504Y-143787787D02*
X224328157Y-143831104D01*
X224328157Y-143831104D02*
X224252152Y-143836419D01*
X224252152Y-143836419D02*
X224173490Y-143803731D01*
X224173490Y-143803731D02*
X224132830Y-143768386D01*
X224132830Y-143768386D02*
X224089513Y-143695039D01*
X224089513Y-143695039D02*
X224040881Y-143545686D01*
X224040881Y-143545686D02*
X224027594Y-143355674D01*
X224027594Y-143355674D02*
X224054967Y-143201007D01*
X224054967Y-143201007D02*
X224087654Y-143122345D01*
X224087654Y-143122345D02*
X224122999Y-143081685D01*
X224122999Y-143081685D02*
X224196347Y-143038368D01*
X234078016Y-147439778D02*
X234154021Y-147434463D01*
X234154021Y-147434463D02*
X234232683Y-147467151D01*
X234232683Y-147467151D02*
X234273343Y-147502496D01*
X234273343Y-147502496D02*
X234316660Y-147575844D01*
X234316660Y-147575844D02*
X234365292Y-147725196D01*
X234365292Y-147725196D02*
X234378579Y-147915208D01*
X234378579Y-147915208D02*
X234351206Y-148069875D01*
X234351206Y-148069875D02*
X234318518Y-148148538D01*
X234318518Y-148148538D02*
X234283173Y-148189197D01*
X234283173Y-148189197D02*
X234209826Y-148232515D01*
X234209826Y-148232515D02*
X234133821Y-148237829D01*
X234133821Y-148237829D02*
X234055159Y-148205142D01*
X234055159Y-148205142D02*
X234014499Y-148169797D01*
X234014499Y-148169797D02*
X233971182Y-148096449D01*
X233971182Y-148096449D02*
X233922550Y-147947097D01*
X233922550Y-147947097D02*
X233909263Y-147757085D01*
X233909263Y-147757085D02*
X233936635Y-147602417D01*
X233936635Y-147602417D02*
X233969323Y-147523755D01*
X233969323Y-147523755D02*
X234004668Y-147483095D01*
X234004668Y-147483095D02*
X234078016Y-147439778D01*
X235159887Y-148166080D02*
X234703858Y-148197969D01*
X234931872Y-148182024D02*
X234876067Y-147383973D01*
X234876067Y-147383973D02*
X234808034Y-147503295D01*
X234808034Y-147503295D02*
X234737344Y-147584615D01*
X234737344Y-147584615D02*
X234663997Y-147627932D01*
X235598114Y-147333483D02*
X235674119Y-147328168D01*
X235674119Y-147328168D02*
X235752781Y-147360855D01*
X235752781Y-147360855D02*
X235793441Y-147396200D01*
X235793441Y-147396200D02*
X235836758Y-147469548D01*
X235836758Y-147469548D02*
X235885390Y-147618900D01*
X235885390Y-147618900D02*
X235898677Y-147808913D01*
X235898677Y-147808913D02*
X235871304Y-147963580D01*
X235871304Y-147963580D02*
X235838616Y-148042242D01*
X235838616Y-148042242D02*
X235803271Y-148082902D01*
X235803271Y-148082902D02*
X235729924Y-148126219D01*
X235729924Y-148126219D02*
X235653919Y-148131534D01*
X235653919Y-148131534D02*
X235575257Y-148098846D01*
X235575257Y-148098846D02*
X235534597Y-148063501D01*
X235534597Y-148063501D02*
X235491280Y-147990154D01*
X235491280Y-147990154D02*
X235442648Y-147840801D01*
X235442648Y-147840801D02*
X235429361Y-147650789D01*
X235429361Y-147650789D02*
X235456734Y-147496122D01*
X235456734Y-147496122D02*
X235489421Y-147417460D01*
X235489421Y-147417460D02*
X235524766Y-147376800D01*
X235524766Y-147376800D02*
X235598114Y-147333483D01*
X221881835Y-127961188D02*
X221803172Y-127928500D01*
X221803172Y-127928500D02*
X221689165Y-127936472D01*
X221689165Y-127936472D02*
X221577815Y-127982447D01*
X221577815Y-127982447D02*
X221507125Y-128063766D01*
X221507125Y-128063766D02*
X221474437Y-128142429D01*
X221474437Y-128142429D02*
X221447065Y-128297096D01*
X221447065Y-128297096D02*
X221455037Y-128411103D01*
X221455037Y-128411103D02*
X221503669Y-128560455D01*
X221503669Y-128560455D02*
X221546986Y-128633803D01*
X221546986Y-128633803D02*
X221628306Y-128704493D01*
X221628306Y-128704493D02*
X221744970Y-128734523D01*
X221744970Y-128734523D02*
X221820975Y-128729209D01*
X221820975Y-128729209D02*
X221932325Y-128683234D01*
X221932325Y-128683234D02*
X221967670Y-128642574D01*
X221967670Y-128642574D02*
X221949068Y-128376557D01*
X221949068Y-128376557D02*
X221797059Y-128387187D01*
X222315007Y-128694662D02*
X222259202Y-127896611D01*
X222259202Y-127896611D02*
X222771036Y-128662774D01*
X222771036Y-128662774D02*
X222715231Y-127864723D01*
X223151060Y-128636200D02*
X223095255Y-127838149D01*
X223095255Y-127838149D02*
X223285267Y-127824862D01*
X223285267Y-127824862D02*
X223401932Y-127854892D01*
X223401932Y-127854892D02*
X223483252Y-127925582D01*
X223483252Y-127925582D02*
X223526569Y-127998930D01*
X223526569Y-127998930D02*
X223575201Y-128148282D01*
X223575201Y-128148282D02*
X223583173Y-128262289D01*
X223583173Y-128262289D02*
X223555800Y-128416956D01*
X223555800Y-128416956D02*
X223523113Y-128495619D01*
X223523113Y-128495619D02*
X223452422Y-128576938D01*
X223452422Y-128576938D02*
X223341073Y-128622913D01*
X223341073Y-128622913D02*
X223151060Y-128636200D01*
X222059016Y-130495000D02*
X221980353Y-130462312D01*
X221980353Y-130462312D02*
X221866346Y-130470284D01*
X221866346Y-130470284D02*
X221754996Y-130516259D01*
X221754996Y-130516259D02*
X221684306Y-130597578D01*
X221684306Y-130597578D02*
X221651618Y-130676241D01*
X221651618Y-130676241D02*
X221624246Y-130830908D01*
X221624246Y-130830908D02*
X221632218Y-130944915D01*
X221632218Y-130944915D02*
X221680850Y-131094267D01*
X221680850Y-131094267D02*
X221724167Y-131167615D01*
X221724167Y-131167615D02*
X221805487Y-131238305D01*
X221805487Y-131238305D02*
X221922151Y-131268335D01*
X221922151Y-131268335D02*
X221998156Y-131263021D01*
X221998156Y-131263021D02*
X222109506Y-131217046D01*
X222109506Y-131217046D02*
X222144851Y-131176386D01*
X222144851Y-131176386D02*
X222126249Y-130910369D01*
X222126249Y-130910369D02*
X221974240Y-130920999D01*
X222492188Y-131228474D02*
X222436383Y-130430423D01*
X222436383Y-130430423D02*
X222948217Y-131196586D01*
X222948217Y-131196586D02*
X222892412Y-130398535D01*
X223328241Y-131170012D02*
X223272436Y-130371961D01*
X223272436Y-130371961D02*
X223462448Y-130358674D01*
X223462448Y-130358674D02*
X223579113Y-130388704D01*
X223579113Y-130388704D02*
X223660433Y-130459394D01*
X223660433Y-130459394D02*
X223703750Y-130532742D01*
X223703750Y-130532742D02*
X223752382Y-130682094D01*
X223752382Y-130682094D02*
X223760354Y-130796101D01*
X223760354Y-130796101D02*
X223732981Y-130950768D01*
X223732981Y-130950768D02*
X223700294Y-131029431D01*
X223700294Y-131029431D02*
X223629603Y-131110750D01*
X223629603Y-131110750D02*
X223518254Y-131156725D01*
X223518254Y-131156725D02*
X223328241Y-131170012D01*
X232593730Y-124665937D02*
X232515067Y-124633249D01*
X232515067Y-124633249D02*
X232401060Y-124641221D01*
X232401060Y-124641221D02*
X232289710Y-124687196D01*
X232289710Y-124687196D02*
X232219020Y-124768515D01*
X232219020Y-124768515D02*
X232186332Y-124847178D01*
X232186332Y-124847178D02*
X232158960Y-125001845D01*
X232158960Y-125001845D02*
X232166932Y-125115852D01*
X232166932Y-125115852D02*
X232215564Y-125265204D01*
X232215564Y-125265204D02*
X232258881Y-125338552D01*
X232258881Y-125338552D02*
X232340201Y-125409242D01*
X232340201Y-125409242D02*
X232456865Y-125439272D01*
X232456865Y-125439272D02*
X232532870Y-125433958D01*
X232532870Y-125433958D02*
X232644220Y-125387983D01*
X232644220Y-125387983D02*
X232679565Y-125347323D01*
X232679565Y-125347323D02*
X232660963Y-125081306D01*
X232660963Y-125081306D02*
X232508954Y-125091936D01*
X233026902Y-125399411D02*
X232971097Y-124601360D01*
X232971097Y-124601360D02*
X233482931Y-125367523D01*
X233482931Y-125367523D02*
X233427126Y-124569472D01*
X233862955Y-125340949D02*
X233807150Y-124542898D01*
X233807150Y-124542898D02*
X233997162Y-124529611D01*
X233997162Y-124529611D02*
X234113827Y-124559641D01*
X234113827Y-124559641D02*
X234195147Y-124630331D01*
X234195147Y-124630331D02*
X234238464Y-124703679D01*
X234238464Y-124703679D02*
X234287096Y-124853031D01*
X234287096Y-124853031D02*
X234295068Y-124967038D01*
X234295068Y-124967038D02*
X234267695Y-125121705D01*
X234267695Y-125121705D02*
X234235008Y-125200368D01*
X234235008Y-125200368D02*
X234164317Y-125281687D01*
X234164317Y-125281687D02*
X234052968Y-125327662D01*
X234052968Y-125327662D02*
X233862955Y-125340949D01*
D12*
X224732137Y-150246584D02*
X224801894Y-151244148D01*
X224742103Y-150389093D02*
X224808375Y-150312856D01*
X224808375Y-150312856D02*
X224945901Y-150231636D01*
X224945901Y-150231636D02*
X225159665Y-150216689D01*
X225159665Y-150216689D02*
X225307157Y-150277978D01*
X225307157Y-150277978D02*
X225388376Y-150415505D01*
X225388376Y-150415505D02*
X225443185Y-151199305D01*
X226155731Y-151149479D02*
X226085975Y-150151915D01*
X226051096Y-149653133D02*
X225984824Y-149729370D01*
X225984824Y-149729370D02*
X226061061Y-149795642D01*
X226061061Y-149795642D02*
X226127333Y-149719405D01*
X226127333Y-149719405D02*
X226051096Y-149653133D01*
X226051096Y-149653133D02*
X226061061Y-149795642D01*
X227504586Y-150983555D02*
X227367059Y-151064775D01*
X227367059Y-151064775D02*
X227082041Y-151084705D01*
X227082041Y-151084705D02*
X226934549Y-151023416D01*
X226934549Y-151023416D02*
X226858312Y-150957144D01*
X226858312Y-150957144D02*
X226777092Y-150819617D01*
X226777092Y-150819617D02*
X226747196Y-150392090D01*
X226747196Y-150392090D02*
X226808486Y-150244598D01*
X226808486Y-150244598D02*
X226874758Y-150168361D01*
X226874758Y-150168361D02*
X227012284Y-150087141D01*
X227012284Y-150087141D02*
X227297303Y-150067210D01*
X227297303Y-150067210D02*
X227444794Y-150128500D01*
X228715913Y-150898850D02*
X228578387Y-150980070D01*
X228578387Y-150980070D02*
X228293368Y-151000001D01*
X228293368Y-151000001D02*
X228145876Y-150938711D01*
X228145876Y-150938711D02*
X228064657Y-150801185D01*
X228064657Y-150801185D02*
X228024796Y-150231148D01*
X228024796Y-150231148D02*
X228086085Y-150083656D01*
X228086085Y-150083656D02*
X228223612Y-150002437D01*
X228223612Y-150002437D02*
X228508630Y-149982506D01*
X228508630Y-149982506D02*
X228656122Y-150043796D01*
X228656122Y-150043796D02*
X228737342Y-150181322D01*
X228737342Y-150181322D02*
X228747307Y-150323831D01*
X228747307Y-150323831D02*
X228044726Y-150516166D01*
X229423476Y-150777770D02*
X229499713Y-150844042D01*
X229499713Y-150844042D02*
X229433441Y-150920279D01*
X229433441Y-150920279D02*
X229357204Y-150854007D01*
X229357204Y-150854007D02*
X229423476Y-150777770D01*
X229423476Y-150777770D02*
X229433441Y-150920279D01*
X229393580Y-150350242D02*
X229262534Y-149500170D01*
X229262534Y-149500170D02*
X229328806Y-149423933D01*
X229328806Y-149423933D02*
X229405044Y-149490205D01*
X229405044Y-149490205D02*
X229393580Y-150350242D01*
X229393580Y-150350242D02*
X229328806Y-149423933D01*
X230076231Y-149872889D02*
X230145987Y-150870453D01*
X230086196Y-150015398D02*
X230152468Y-149939161D01*
X230152468Y-149939161D02*
X230289994Y-149857941D01*
X230289994Y-149857941D02*
X230503758Y-149842993D01*
X230503758Y-149842993D02*
X230651250Y-149904283D01*
X230651250Y-149904283D02*
X230732470Y-150041809D01*
X230732470Y-150041809D02*
X230787278Y-150825610D01*
X232141115Y-150730940D02*
X232086307Y-149947140D01*
X232086307Y-149947140D02*
X232005087Y-149809613D01*
X232005087Y-149809613D02*
X231857595Y-149748324D01*
X231857595Y-149748324D02*
X231572577Y-149768254D01*
X231572577Y-149768254D02*
X231435050Y-149849474D01*
X232136133Y-150659685D02*
X231998606Y-150740905D01*
X231998606Y-150740905D02*
X231642333Y-150765818D01*
X231642333Y-150765818D02*
X231494842Y-150704529D01*
X231494842Y-150704529D02*
X231413622Y-150567002D01*
X231413622Y-150567002D02*
X231403657Y-150424493D01*
X231403657Y-150424493D02*
X231464946Y-150277001D01*
X231464946Y-150277001D02*
X231602473Y-150195782D01*
X231602473Y-150195782D02*
X231958745Y-150170869D01*
X231958745Y-150170869D02*
X232096272Y-150089649D01*
X232783905Y-149683550D02*
X232853661Y-150681114D01*
X232793870Y-149826059D02*
X232860142Y-149749822D01*
X232860142Y-149749822D02*
X232997669Y-149668602D01*
X232997669Y-149668602D02*
X233211432Y-149653654D01*
X233211432Y-149653654D02*
X233358924Y-149714944D01*
X233358924Y-149714944D02*
X233440144Y-149852470D01*
X233440144Y-149852470D02*
X233494952Y-150636270D01*
X234421262Y-150571497D02*
X234273770Y-150510207D01*
X234273770Y-150510207D02*
X234197533Y-150443935D01*
X234197533Y-150443935D02*
X234116313Y-150306409D01*
X234116313Y-150306409D02*
X234086418Y-149878881D01*
X234086418Y-149878881D02*
X234147707Y-149731390D01*
X234147707Y-149731390D02*
X234213979Y-149655152D01*
X234213979Y-149655152D02*
X234351506Y-149573933D01*
X234351506Y-149573933D02*
X234565269Y-149558985D01*
X234565269Y-149558985D02*
X234712761Y-149620274D01*
X234712761Y-149620274D02*
X234788998Y-149686546D01*
X234788998Y-149686546D02*
X234870218Y-149824073D01*
X234870218Y-149824073D02*
X234900114Y-150251600D01*
X234900114Y-150251600D02*
X234838824Y-150399092D01*
X234838824Y-150399092D02*
X234772552Y-150475329D01*
X234772552Y-150475329D02*
X234635026Y-150556549D01*
X234635026Y-150556549D02*
X234421262Y-150571497D01*
D11*
X232571729Y-129721691D02*
X232893551Y-130501140D01*
X232893551Y-130501140D02*
X233103763Y-129684487D01*
X233876299Y-130356043D02*
X233840954Y-130396703D01*
X233840954Y-130396703D02*
X233729604Y-130442678D01*
X233729604Y-130442678D02*
X233653599Y-130447993D01*
X233653599Y-130447993D02*
X233536935Y-130417962D01*
X233536935Y-130417962D02*
X233455615Y-130347272D01*
X233455615Y-130347272D02*
X233412298Y-130273925D01*
X233412298Y-130273925D02*
X233363666Y-130124572D01*
X233363666Y-130124572D02*
X233355694Y-130010565D01*
X233355694Y-130010565D02*
X233383066Y-129855898D01*
X233383066Y-129855898D02*
X233415754Y-129777236D01*
X233415754Y-129777236D02*
X233486444Y-129695916D01*
X233486444Y-129695916D02*
X233597794Y-129649941D01*
X233597794Y-129649941D02*
X233673799Y-129644627D01*
X233673799Y-129644627D02*
X233790464Y-129674657D01*
X233790464Y-129674657D02*
X233831124Y-129710002D01*
X234674350Y-130300238D02*
X234639005Y-130340898D01*
X234639005Y-130340898D02*
X234527655Y-130386873D01*
X234527655Y-130386873D02*
X234451651Y-130392187D01*
X234451651Y-130392187D02*
X234334986Y-130362157D01*
X234334986Y-130362157D02*
X234253666Y-130291467D01*
X234253666Y-130291467D02*
X234210349Y-130218120D01*
X234210349Y-130218120D02*
X234161717Y-130068767D01*
X234161717Y-130068767D02*
X234153745Y-129954760D01*
X234153745Y-129954760D02*
X234181118Y-129800093D01*
X234181118Y-129800093D02*
X234213805Y-129721430D01*
X234213805Y-129721430D02*
X234284495Y-129640111D01*
X234284495Y-129640111D02*
X234395845Y-129594136D01*
X234395845Y-129594136D02*
X234471850Y-129588821D01*
X234471850Y-129588821D02*
X234588515Y-129618852D01*
X234588515Y-129618852D02*
X234629175Y-129654197D01*
X233868294Y-140617790D02*
X233412265Y-140649678D01*
X233640279Y-140633734D02*
X233584474Y-139835683D01*
X233584474Y-139835683D02*
X233516441Y-139955005D01*
X233516441Y-139955005D02*
X233445751Y-140036325D01*
X233445751Y-140036325D02*
X233372404Y-140079642D01*
X234628343Y-140564642D02*
X234172314Y-140596531D01*
X234400328Y-140580586D02*
X234344523Y-139782535D01*
X234344523Y-139782535D02*
X234276490Y-139901857D01*
X234276490Y-139901857D02*
X234205800Y-139983177D01*
X234205800Y-139983177D02*
X234132453Y-140026494D01*
X235294584Y-139716100D02*
X234914560Y-139742674D01*
X234914560Y-139742674D02*
X234903131Y-140125356D01*
X234903131Y-140125356D02*
X234938476Y-140084696D01*
X234938476Y-140084696D02*
X235011824Y-140041379D01*
X235011824Y-140041379D02*
X235201836Y-140028092D01*
X235201836Y-140028092D02*
X235280498Y-140060780D01*
X235280498Y-140060780D02*
X235321158Y-140096125D01*
X235321158Y-140096125D02*
X235364475Y-140169472D01*
X235364475Y-140169472D02*
X235377762Y-140359484D01*
X235377762Y-140359484D02*
X235345075Y-140438147D01*
X235345075Y-140438147D02*
X235309730Y-140478806D01*
X235309730Y-140478806D02*
X235236382Y-140522124D01*
X235236382Y-140522124D02*
X235046370Y-140535411D01*
X235046370Y-140535411D02*
X234967708Y-140502723D01*
X234967708Y-140502723D02*
X234927048Y-140467378D01*
D13*
%TO.C,MCU1*%
X218476966Y-119688156D02*
X220780325Y-152627721D01*
X220780325Y-152627721D02*
X238517014Y-151387451D01*
X236213655Y-118447886D02*
X218476966Y-119688156D01*
X238517014Y-151387451D02*
X236213655Y-118447886D01*
D14*
%TO.C,D10*%
X328672736Y-114025426D02*
X329072675Y-114018445D01*
X329072675Y-114018445D02*
X329063076Y-113468529D01*
X329072675Y-114018445D02*
X329082274Y-114568362D01*
X329072675Y-114018445D02*
X329665603Y-113608035D01*
X329665603Y-113608035D02*
X329679565Y-114407913D01*
X329672584Y-114007974D02*
X330172508Y-113999248D01*
X329679565Y-114407913D02*
X329072675Y-114018445D01*
%TO.C,D16*%
X291874972Y-190039572D02*
X292274424Y-190018638D01*
X292274424Y-190018638D02*
X292245639Y-189469391D01*
X292274424Y-190018638D02*
X292303208Y-190567884D01*
X292274424Y-190018638D02*
X292852667Y-189587784D01*
X292852667Y-189587784D02*
X292894536Y-190386688D01*
X292873601Y-189987236D02*
X293372916Y-189961068D01*
X292894536Y-190386688D02*
X292274424Y-190018638D01*
%TO.C,D21*%
X271751014Y-177091778D02*
X272150040Y-177063876D01*
X272150040Y-177063876D02*
X272111674Y-176515216D01*
X272150040Y-177063876D02*
X272188406Y-177612536D01*
X272150040Y-177063876D02*
X272720675Y-176622996D01*
X272720675Y-176622996D02*
X272776481Y-177421048D01*
X272748578Y-177022022D02*
X273247360Y-176987144D01*
X272776481Y-177421048D02*
X272150040Y-177063876D01*
%TO.C,D25*%
X252797297Y-178417151D02*
X253196323Y-178389249D01*
X253196323Y-178389249D02*
X253157957Y-177840589D01*
X253196323Y-178389249D02*
X253234689Y-178937909D01*
X253196323Y-178389249D02*
X253766958Y-177948369D01*
X253766958Y-177948369D02*
X253822764Y-178746421D01*
X253794861Y-178347395D02*
X254293643Y-178312517D01*
X253822764Y-178746421D02*
X253196323Y-178389249D01*
%TO.C,D17*%
X290880589Y-171065611D02*
X291280041Y-171044677D01*
X291280041Y-171044677D02*
X291251256Y-170495430D01*
X291280041Y-171044677D02*
X291308825Y-171593923D01*
X291280041Y-171044677D02*
X291858284Y-170613823D01*
X291858284Y-170613823D02*
X291900153Y-171412727D01*
X291879218Y-171013275D02*
X292378533Y-170987107D01*
X291900153Y-171412727D02*
X291280041Y-171044677D01*
%TO.C,D6*%
X329999119Y-190013851D02*
X330399058Y-190006870D01*
X330399058Y-190006870D02*
X330389459Y-189456954D01*
X330399058Y-190006870D02*
X330408657Y-190556787D01*
X330399058Y-190006870D02*
X330991986Y-189596460D01*
X330991986Y-189596460D02*
X331005948Y-190396338D01*
X330998967Y-189996399D02*
X331498891Y-189987673D01*
X331005948Y-190396338D02*
X330399058Y-190006870D01*
%TO.C,D4*%
X349086267Y-138000000D02*
X349486267Y-138000000D01*
X349486267Y-138000000D02*
X349486267Y-137450000D01*
X349486267Y-138000000D02*
X349486267Y-138550000D01*
X349486267Y-138000000D02*
X350086267Y-137600000D01*
X350086267Y-137600000D02*
X350086267Y-138400000D01*
X350086267Y-138000000D02*
X350586267Y-138000000D01*
X350086267Y-138400000D02*
X349486267Y-138000000D01*
%TO.C,D15*%
X308192949Y-110407723D02*
X308592705Y-110393763D01*
X308592705Y-110393763D02*
X308573510Y-109844098D01*
X308592705Y-110393763D02*
X308611900Y-110943428D01*
X308592705Y-110393763D02*
X309178380Y-109973067D01*
X309178380Y-109973067D02*
X309206301Y-110772579D01*
X309192340Y-110372823D02*
X309692035Y-110355373D01*
X309206301Y-110772579D02*
X308592705Y-110393763D01*
%TO.C,D29*%
X264065120Y-200048326D02*
X264443327Y-199918099D01*
X264443327Y-199918099D02*
X264264265Y-199398064D01*
X264443327Y-199918099D02*
X264622390Y-200438134D01*
X264443327Y-199918099D02*
X264880410Y-199344551D01*
X264880410Y-199344551D02*
X265140866Y-200100965D01*
X265010639Y-199722758D02*
X265483398Y-199559974D01*
X265140866Y-200100965D02*
X264443327Y-199918099D01*
%TO.C,D30*%
X246100267Y-206234121D02*
X246478474Y-206103894D01*
X246478474Y-206103894D02*
X246299412Y-205583859D01*
X246478474Y-206103894D02*
X246657537Y-206623929D01*
X246478474Y-206103894D02*
X246915557Y-205530346D01*
X246915557Y-205530346D02*
X247176013Y-206286760D01*
X247045786Y-205908553D02*
X247518545Y-205745769D01*
X247176013Y-206286760D02*
X246478474Y-206103894D01*
%TO.C,D20*%
X287897439Y-114143727D02*
X288296891Y-114122793D01*
X288296891Y-114122793D02*
X288268106Y-113573546D01*
X288296891Y-114122793D02*
X288325675Y-114672039D01*
X288296891Y-114122793D02*
X288875134Y-113691939D01*
X288875134Y-113691939D02*
X288917003Y-114490843D01*
X288896068Y-114091391D02*
X289395383Y-114065223D01*
X288917003Y-114490843D02*
X288296891Y-114122793D01*
%TO.C,D18*%
X289886206Y-152091650D02*
X290285658Y-152070716D01*
X290285658Y-152070716D02*
X290256873Y-151521469D01*
X290285658Y-152070716D02*
X290314442Y-152619962D01*
X290285658Y-152070716D02*
X290863901Y-151639862D01*
X290863901Y-151639862D02*
X290905770Y-152438766D01*
X290884835Y-152039314D02*
X291384150Y-152013146D01*
X290905770Y-152438766D02*
X290285658Y-152070716D01*
%TO.C,D27*%
X250146551Y-140509717D02*
X250545577Y-140481815D01*
X250545577Y-140481815D02*
X250507211Y-139933155D01*
X250545577Y-140481815D02*
X250583943Y-141030475D01*
X250545577Y-140481815D02*
X251116212Y-140040935D01*
X251116212Y-140040935D02*
X251172018Y-140838987D01*
X251144115Y-140439961D02*
X251642897Y-140405083D01*
X251172018Y-140838987D02*
X250545577Y-140481815D01*
%TO.C,D24*%
X267774895Y-120230627D02*
X268173921Y-120202725D01*
X268173921Y-120202725D02*
X268135555Y-119654065D01*
X268173921Y-120202725D02*
X268212287Y-120751385D01*
X268173921Y-120202725D02*
X268744556Y-119761845D01*
X268744556Y-119761845D02*
X268800362Y-120559897D01*
X268772459Y-120160871D02*
X269271241Y-120125993D01*
X268800362Y-120559897D02*
X268173921Y-120202725D01*
%TO.C,D11*%
X310845311Y-186361426D02*
X311245067Y-186347466D01*
X311245067Y-186347466D02*
X311225872Y-185797801D01*
X311245067Y-186347466D02*
X311264262Y-186897131D01*
X311245067Y-186347466D02*
X311830742Y-185926770D01*
X311830742Y-185926770D02*
X311858663Y-186726282D01*
X311844702Y-186326526D02*
X312344397Y-186309076D01*
X311858663Y-186726282D02*
X311245067Y-186347466D01*
%TO.C,D14*%
X308856039Y-129396149D02*
X309255795Y-129382189D01*
X309255795Y-129382189D02*
X309236600Y-128832524D01*
X309255795Y-129382189D02*
X309274990Y-129931854D01*
X309255795Y-129382189D02*
X309841470Y-128961493D01*
X309841470Y-128961493D02*
X309869391Y-129761005D01*
X309855430Y-129361249D02*
X310355125Y-129343799D01*
X309869391Y-129761005D02*
X309255795Y-129382189D01*
%TO.C,D8*%
X329335927Y-152019638D02*
X329735866Y-152012657D01*
X329735866Y-152012657D02*
X329726267Y-151462741D01*
X329735866Y-152012657D02*
X329745465Y-152562574D01*
X329735866Y-152012657D02*
X330328794Y-151602247D01*
X330328794Y-151602247D02*
X330342756Y-152402125D01*
X330335775Y-152002186D02*
X330835699Y-151993460D01*
X330342756Y-152402125D02*
X329735866Y-152012657D01*
%TO.C,D5*%
X349086267Y-119000000D02*
X349486267Y-119000000D01*
X349486267Y-119000000D02*
X349486267Y-118450000D01*
X349486267Y-119000000D02*
X349486267Y-119550000D01*
X349486267Y-119000000D02*
X350086267Y-118600000D01*
X350086267Y-118600000D02*
X350086267Y-119400000D01*
X350086267Y-119000000D02*
X350586267Y-119000000D01*
X350086267Y-119400000D02*
X349486267Y-119000000D01*
%TO.C,D1*%
X349086267Y-195000000D02*
X349486267Y-195000000D01*
X349486267Y-195000000D02*
X349486267Y-194450000D01*
X349486267Y-195000000D02*
X349486267Y-195550000D01*
X349486267Y-195000000D02*
X350086267Y-194600000D01*
X350086267Y-194600000D02*
X350086267Y-195400000D01*
X350086267Y-195000000D02*
X350586267Y-195000000D01*
X350086267Y-195400000D02*
X349486267Y-195000000D01*
%TO.C,D7*%
X329667523Y-171016744D02*
X330067462Y-171009763D01*
X330067462Y-171009763D02*
X330057863Y-170459847D01*
X330067462Y-171009763D02*
X330077061Y-171559680D01*
X330067462Y-171009763D02*
X330660390Y-170599353D01*
X330660390Y-170599353D02*
X330674352Y-171399231D01*
X330667371Y-170999292D02*
X331167295Y-170990566D01*
X330674352Y-171399231D02*
X330067462Y-171009763D01*
%TO.C,D2*%
X349086267Y-176000000D02*
X349486267Y-176000000D01*
X349486267Y-176000000D02*
X349486267Y-175450000D01*
X349486267Y-176000000D02*
X349486267Y-176550000D01*
X349486267Y-176000000D02*
X350086267Y-175600000D01*
X350086267Y-175600000D02*
X350086267Y-176400000D01*
X350086267Y-176000000D02*
X350586267Y-176000000D01*
X350086267Y-176400000D02*
X349486267Y-176000000D01*
%TO.C,D12*%
X310182220Y-167373000D02*
X310581976Y-167359040D01*
X310581976Y-167359040D02*
X310562781Y-166809375D01*
X310581976Y-167359040D02*
X310601171Y-167908705D01*
X310581976Y-167359040D02*
X311167651Y-166938344D01*
X311167651Y-166938344D02*
X311195572Y-167737856D01*
X311181611Y-167338100D02*
X311681306Y-167320650D01*
X311195572Y-167737856D02*
X310581976Y-167359040D01*
%TO.C,D26*%
X251471924Y-159463434D02*
X251870950Y-159435532D01*
X251870950Y-159435532D02*
X251832584Y-158886872D01*
X251870950Y-159435532D02*
X251909316Y-159984192D01*
X251870950Y-159435532D02*
X252441585Y-158994652D01*
X252441585Y-158994652D02*
X252497391Y-159792704D01*
X252469488Y-159393678D02*
X252968270Y-159358800D01*
X252497391Y-159792704D02*
X251870950Y-159435532D01*
%TO.C,D3*%
X349086267Y-157000000D02*
X349486267Y-157000000D01*
X349486267Y-157000000D02*
X349486267Y-156450000D01*
X349486267Y-157000000D02*
X349486267Y-157550000D01*
X349486267Y-157000000D02*
X350086267Y-156600000D01*
X350086267Y-156600000D02*
X350086267Y-157400000D01*
X350086267Y-157000000D02*
X350586267Y-157000000D01*
X350086267Y-157400000D02*
X349486267Y-157000000D01*
%TO.C,D13*%
X309519130Y-148384574D02*
X309918886Y-148370614D01*
X309918886Y-148370614D02*
X309899691Y-147820949D01*
X309918886Y-148370614D02*
X309938081Y-148920279D01*
X309918886Y-148370614D02*
X310504561Y-147949918D01*
X310504561Y-147949918D02*
X310532482Y-148749430D01*
X310518521Y-148349674D02*
X311018216Y-148332224D01*
X310532482Y-148749430D02*
X309918886Y-148370614D01*
%TO.C,D22*%
X270425641Y-158138061D02*
X270824667Y-158110159D01*
X270824667Y-158110159D02*
X270786301Y-157561499D01*
X270824667Y-158110159D02*
X270863033Y-158658819D01*
X270824667Y-158110159D02*
X271395302Y-157669279D01*
X271395302Y-157669279D02*
X271451108Y-158467331D01*
X271423205Y-158068305D02*
X271921987Y-158033427D01*
X271451108Y-158467331D02*
X270824667Y-158110159D01*
%TO.C,D28*%
X248821178Y-121556000D02*
X249220204Y-121528098D01*
X249220204Y-121528098D02*
X249181838Y-120979438D01*
X249220204Y-121528098D02*
X249258570Y-122076758D01*
X249220204Y-121528098D02*
X249790839Y-121087218D01*
X249790839Y-121087218D02*
X249846645Y-121885270D01*
X249818742Y-121486244D02*
X250317524Y-121451366D01*
X249846645Y-121885270D02*
X249220204Y-121528098D01*
%TO.C,D9*%
X329004332Y-133022532D02*
X329404271Y-133015551D01*
X329404271Y-133015551D02*
X329394672Y-132465635D01*
X329404271Y-133015551D02*
X329413870Y-133565468D01*
X329404271Y-133015551D02*
X329997199Y-132605141D01*
X329997199Y-132605141D02*
X330011161Y-133405019D01*
X330004180Y-133005080D02*
X330504104Y-132996354D01*
X330011161Y-133405019D02*
X329404271Y-133015551D01*
%TO.C,D23*%
X269100268Y-139184344D02*
X269499294Y-139156442D01*
X269499294Y-139156442D02*
X269460928Y-138607782D01*
X269499294Y-139156442D02*
X269537660Y-139705102D01*
X269499294Y-139156442D02*
X270069929Y-138715562D01*
X270069929Y-138715562D02*
X270125735Y-139513614D01*
X270097832Y-139114588D02*
X270596614Y-139079710D01*
X270125735Y-139513614D02*
X269499294Y-139156442D01*
%TO.C,D19*%
X288891822Y-133117689D02*
X289291274Y-133096755D01*
X289291274Y-133096755D02*
X289262489Y-132547508D01*
X289291274Y-133096755D02*
X289320058Y-133646001D01*
X289291274Y-133096755D02*
X289869517Y-132665901D01*
X289869517Y-132665901D02*
X289911386Y-133464805D01*
X289890451Y-133065353D02*
X290389766Y-133039185D01*
X289911386Y-133464805D02*
X289291274Y-133096755D01*
%TD*%
D15*
%TO.C,MCU1*%
X220009645Y-123400285D03*
X220186826Y-125934097D03*
X220364008Y-128467910D03*
X220541189Y-131001723D03*
X220718371Y-133535535D03*
X220895552Y-136069348D03*
X221072734Y-138603161D03*
X221249915Y-141136973D03*
X221427097Y-143670786D03*
X221604278Y-146204599D03*
X221781459Y-148738411D03*
X221958641Y-151272224D03*
X237161517Y-150209135D03*
X236984336Y-147675323D03*
X236807154Y-145141510D03*
X236629973Y-142607697D03*
X236452791Y-140073885D03*
X236275610Y-137540072D03*
X236098428Y-135006259D03*
X235921247Y-132472447D03*
X235744065Y-129938634D03*
X235566884Y-127404821D03*
X235389703Y-124871009D03*
X235212521Y-122337196D03*
X224138091Y-146027417D03*
X226671903Y-145850236D03*
X229205716Y-145673054D03*
%TD*%
M02*
