%TF.GenerationSoftware,KiCad,Pcbnew,8.0.4*%
%TF.CreationDate,2024-08-23T21:58:54-04:00*%
%TF.ProjectId,right,72696768-742e-46b6-9963-61645f706362,v1.0.0*%
%TF.SameCoordinates,Original*%
%TF.FileFunction,Drillmap*%
%TF.FilePolarity,Positive*%
%FSLAX45Y45*%
G04 Gerber Fmt 4.5, Leading zero omitted, Abs format (unit mm)*
G04 Created by KiCad (PCBNEW 8.0.4) date 2024-08-23 21:58:54*
%MOMM*%
%LPD*%
G01*
G04 APERTURE LIST*
%ADD10C,0.150000*%
%ADD11C,0.200000*%
%ADD12C,0.100000*%
%ADD13C,0.109220*%
%ADD14C,0.220000*%
G04 APERTURE END LIST*
D10*
X27975600Y-21103864D02*
G75*
G02*
X28071334Y-21087526I97670J-283656D01*
G01*
X23462120Y-20437990D02*
G75*
G02*
X23461502Y-20436178I282450J97250D01*
G01*
X31922013Y-10241801D02*
G75*
G02*
X32010571Y-10251961I10467J-299819D01*
G01*
X21917943Y-15858663D02*
X23461502Y-20436178D01*
X31922013Y-10241801D02*
X29796985Y-10316009D01*
X35861715Y-11290175D02*
G75*
G02*
X36083625Y-11579834I-78085J-289655D01*
G01*
X24429156Y-22325003D02*
G75*
G02*
X24047837Y-22139015I-97666J283653D01*
G01*
X21647535Y-12131174D02*
X21902946Y-15783732D01*
X23843992Y-11673234D02*
G75*
G02*
X23797974Y-11680067I-66942J292444D01*
G01*
X36083627Y-20750000D02*
G75*
G02*
X35783627Y-21049997I-299997J0D01*
G01*
X23797974Y-11680068D02*
X21925877Y-11810977D01*
X33884596Y-21050000D02*
X35783627Y-21050000D01*
X35861715Y-11290176D02*
X32010571Y-10251960D01*
X21647535Y-12131174D02*
G75*
G02*
X21925877Y-11810984I299266J20924D01*
G01*
X24429156Y-22325003D02*
X27975600Y-21103864D01*
X28071334Y-21087526D02*
X33882659Y-21050006D01*
X33882659Y-21050006D02*
G75*
G02*
X33884596Y-21050000I1951J-302514D01*
G01*
X29740510Y-10323391D02*
X23843992Y-11673234D01*
X29740510Y-10323391D02*
G75*
G02*
X29796985Y-10316010I66940J-292429D01*
G01*
X21917943Y-15858663D02*
G75*
G02*
X21902947Y-15783732I284268J95854D01*
G01*
X36083627Y-20750000D02*
X36083627Y-11579834D01*
X23462120Y-20437990D02*
X24047830Y-22139018D01*
D11*
D12*
X24224941Y-19819567D02*
X24264941Y-19859567D01*
X24264941Y-19819567D02*
X24224941Y-19859567D01*
X24232651Y-19693517D02*
X24272651Y-19733517D01*
X24272651Y-19693517D02*
X24232651Y-19733517D01*
X24308621Y-19914150D02*
X24348621Y-19954150D01*
X24348621Y-19914150D02*
X24308621Y-19954150D01*
X24327233Y-19609838D02*
X24367233Y-19649838D01*
X24367233Y-19609838D02*
X24327233Y-19649838D01*
X24434671Y-19921859D02*
X24474671Y-19961859D01*
X24474671Y-19921859D02*
X24434671Y-19961859D01*
X24453283Y-19617548D02*
X24493283Y-19657548D01*
X24493283Y-19617548D02*
X24453283Y-19657548D01*
X24529253Y-19838180D02*
X24569253Y-19878180D01*
X24569253Y-19838180D02*
X24529253Y-19878180D01*
X24536963Y-19712130D02*
X24576963Y-19752130D01*
X24576963Y-19712130D02*
X24536963Y-19752130D01*
X25764316Y-13425809D02*
X25804316Y-13465809D01*
X25804316Y-13425809D02*
X25764316Y-13465809D01*
X25804387Y-13306049D02*
X25844387Y-13346049D01*
X25844387Y-13306049D02*
X25804387Y-13346049D01*
X25820664Y-13538826D02*
X25860664Y-13578826D01*
X25860664Y-13538826D02*
X25820664Y-13578826D01*
X25917404Y-13249701D02*
X25957404Y-13289701D01*
X25957404Y-13249701D02*
X25917404Y-13289701D01*
X25940424Y-13578897D02*
X25980424Y-13618897D01*
X25980424Y-13578897D02*
X25940424Y-13618897D01*
X26037164Y-13289772D02*
X26077164Y-13329772D01*
X26077164Y-13289772D02*
X26037164Y-13329772D01*
X26053441Y-13522549D02*
X26093441Y-13562549D01*
X26093441Y-13522549D02*
X26053441Y-13562549D01*
X26093512Y-13402789D02*
X26133512Y-13442789D01*
X26133512Y-13402789D02*
X26093512Y-13442789D01*
X28050631Y-16589127D02*
X28090631Y-16629127D01*
X28090631Y-16589127D02*
X28050631Y-16629127D01*
X28092786Y-16470085D02*
X28132786Y-16510085D01*
X28132786Y-16470085D02*
X28092786Y-16510085D01*
X28104998Y-16703111D02*
X28144998Y-16743111D01*
X28144998Y-16703111D02*
X28104998Y-16743111D01*
X28206769Y-16415718D02*
X28246769Y-16455718D01*
X28246769Y-16415718D02*
X28206769Y-16455718D01*
X28224040Y-16745266D02*
X28264040Y-16785266D01*
X28264040Y-16745266D02*
X28224040Y-16785266D01*
X28325811Y-16457873D02*
X28365811Y-16497873D01*
X28365811Y-16457873D02*
X28325811Y-16497873D01*
X28338024Y-16690898D02*
X28378024Y-16730898D01*
X28378024Y-16690898D02*
X28338024Y-16730898D01*
X28380179Y-16571857D02*
X28420179Y-16611857D01*
X28420179Y-16571857D02*
X28380179Y-16611857D01*
X33898627Y-13230000D02*
X33938627Y-13270000D01*
X33938627Y-13230000D02*
X33898627Y-13270000D01*
X33898627Y-18930000D02*
X33938627Y-18970000D01*
X33938627Y-18930000D02*
X33898627Y-18970000D01*
X33946954Y-13113327D02*
X33986954Y-13153327D01*
X33986954Y-13113327D02*
X33946954Y-13153327D01*
X33946954Y-13346673D02*
X33986954Y-13386673D01*
X33986954Y-13346673D02*
X33946954Y-13386673D01*
X33946954Y-18813327D02*
X33986954Y-18853327D01*
X33986954Y-18813327D02*
X33946954Y-18853327D01*
X33946954Y-19046673D02*
X33986954Y-19086673D01*
X33986954Y-19046673D02*
X33946954Y-19086673D01*
X34063627Y-13065000D02*
X34103627Y-13105000D01*
X34103627Y-13065000D02*
X34063627Y-13105000D01*
X34063627Y-13395000D02*
X34103627Y-13435000D01*
X34103627Y-13395000D02*
X34063627Y-13435000D01*
X34063627Y-18765000D02*
X34103627Y-18805000D01*
X34103627Y-18765000D02*
X34063627Y-18805000D01*
X34063627Y-19095000D02*
X34103627Y-19135000D01*
X34103627Y-19095000D02*
X34063627Y-19135000D01*
X34180299Y-13113327D02*
X34220299Y-13153327D01*
X34220299Y-13113327D02*
X34180299Y-13153327D01*
X34180299Y-13346673D02*
X34220299Y-13386673D01*
X34220299Y-13346673D02*
X34180299Y-13386673D01*
X34180299Y-18813327D02*
X34220299Y-18853327D01*
X34220299Y-18813327D02*
X34180299Y-18853327D01*
X34180299Y-19046673D02*
X34220299Y-19086673D01*
X34220299Y-19046673D02*
X34180299Y-19086673D01*
X34228627Y-13230000D02*
X34268627Y-13270000D01*
X34268627Y-13230000D02*
X34228627Y-13270000D01*
X34228627Y-18930000D02*
X34268627Y-18970000D01*
X34268627Y-18930000D02*
X34228627Y-18970000D01*
X23188270Y-16155057D02*
G75*
G02*
X23113270Y-16155057I-37500J0D01*
G01*
X23113270Y-16155057D02*
G75*
G02*
X23188270Y-16155057I37500J0D01*
G01*
X23253384Y-16344161D02*
G75*
G02*
X23178384Y-16344161I-37500J0D01*
G01*
X23178384Y-16344161D02*
G75*
G02*
X23253384Y-16344161I37500J0D01*
G01*
X24320698Y-20673506D02*
X24320698Y-20772566D01*
X24271168Y-20723036D02*
X24370228Y-20723036D01*
X24576863Y-12127415D02*
X24576863Y-12226475D01*
X24527333Y-12176945D02*
X24626393Y-12176945D01*
X24709400Y-14022787D02*
X24709400Y-14121847D01*
X24659870Y-14072317D02*
X24758930Y-14072317D01*
X24841938Y-15918159D02*
X24841938Y-16017219D01*
X24792408Y-15967689D02*
X24891468Y-15967689D01*
X24974475Y-17813531D02*
X24974475Y-17912591D01*
X24924945Y-17863061D02*
X25024005Y-17863061D01*
X25041183Y-20425423D02*
X25041183Y-20524483D01*
X24991653Y-20474953D02*
X25090713Y-20474953D01*
X25337007Y-12074261D02*
X25337007Y-12173321D01*
X25287477Y-12123791D02*
X25386537Y-12123791D01*
X25469544Y-13969633D02*
X25469544Y-14068693D01*
X25420014Y-14019163D02*
X25519074Y-14019163D01*
X25602082Y-15865004D02*
X25602082Y-15964064D01*
X25552552Y-15914534D02*
X25651612Y-15914534D01*
X25734619Y-17760376D02*
X25734619Y-17859436D01*
X25685089Y-17809906D02*
X25784149Y-17809906D01*
X26117183Y-20054927D02*
X26117183Y-20153987D01*
X26067653Y-20104457D02*
X26166713Y-20104457D01*
X26472235Y-11994878D02*
X26472235Y-12093938D01*
X26422705Y-12044408D02*
X26521765Y-12044408D01*
X26604772Y-13890250D02*
X26604772Y-13989310D01*
X26555242Y-13939780D02*
X26654302Y-13939780D01*
X26737309Y-15785622D02*
X26737309Y-15884682D01*
X26687779Y-15835152D02*
X26786839Y-15835152D01*
X26837668Y-19806844D02*
X26837668Y-19905904D01*
X26788138Y-19856374D02*
X26887198Y-19856374D01*
X26869847Y-17680993D02*
X26869847Y-17780053D01*
X26820317Y-17730523D02*
X26919377Y-17730523D01*
X27232379Y-11941724D02*
X27232379Y-12040784D01*
X27182849Y-11991254D02*
X27281909Y-11991254D01*
X27364916Y-13837095D02*
X27364916Y-13936155D01*
X27315386Y-13886625D02*
X27414446Y-13886625D01*
X27497453Y-15732467D02*
X27497453Y-15831527D01*
X27447923Y-15781997D02*
X27546983Y-15781997D01*
X27629991Y-17627839D02*
X27629991Y-17726899D01*
X27580461Y-17677369D02*
X27679521Y-17677369D01*
X28484163Y-11380857D02*
X28484163Y-11479917D01*
X28434633Y-11430387D02*
X28533693Y-11430387D01*
X28583601Y-13278254D02*
X28583601Y-13377314D01*
X28534071Y-13327784D02*
X28633131Y-13327784D01*
X28683040Y-15175650D02*
X28683040Y-15274710D01*
X28633510Y-15225180D02*
X28732570Y-15225180D01*
X28782478Y-17073046D02*
X28782478Y-17172106D01*
X28732948Y-17122576D02*
X28832008Y-17122576D01*
X28881916Y-18970442D02*
X28881916Y-19069502D01*
X28832386Y-19019972D02*
X28931446Y-19019972D01*
X29245119Y-11340977D02*
X29245119Y-11440037D01*
X29195589Y-11390507D02*
X29294649Y-11390507D01*
X29344557Y-13238374D02*
X29344557Y-13337434D01*
X29295027Y-13287904D02*
X29394087Y-13287904D01*
X29443996Y-15135770D02*
X29443996Y-15234830D01*
X29394466Y-15185300D02*
X29493526Y-15185300D01*
X29543434Y-17033166D02*
X29543434Y-17132226D01*
X29493904Y-17082696D02*
X29592964Y-17082696D01*
X29642872Y-18930562D02*
X29642872Y-19029622D01*
X29593342Y-18980092D02*
X29692402Y-18980092D01*
X30513481Y-11001922D02*
X30513481Y-11100982D01*
X30463951Y-11051452D02*
X30563011Y-11051452D01*
X30579790Y-12900764D02*
X30579790Y-12999824D01*
X30530260Y-12950294D02*
X30629320Y-12950294D01*
X30646099Y-14799607D02*
X30646099Y-14898667D01*
X30596569Y-14849137D02*
X30695629Y-14849137D01*
X30712408Y-16698449D02*
X30712408Y-16797509D01*
X30662878Y-16747979D02*
X30761938Y-16747979D01*
X30778717Y-18597292D02*
X30778717Y-18696352D01*
X30729187Y-18646822D02*
X30828247Y-18646822D01*
X31275017Y-10975328D02*
X31275017Y-11074388D01*
X31225487Y-11024858D02*
X31324547Y-11024858D01*
X31341326Y-12874171D02*
X31341326Y-12973231D01*
X31291796Y-12923701D02*
X31390856Y-12923701D01*
X31407635Y-14773013D02*
X31407635Y-14872073D01*
X31358105Y-14822543D02*
X31457165Y-14822543D01*
X31473944Y-16671856D02*
X31473944Y-16770916D01*
X31424414Y-16721386D02*
X31523474Y-16721386D01*
X31540253Y-18570698D02*
X31540253Y-18669758D01*
X31490723Y-18620228D02*
X31589783Y-18620228D01*
X32561320Y-11358353D02*
X32561320Y-11457413D01*
X32511790Y-11407883D02*
X32610850Y-11407883D01*
X32594480Y-13258064D02*
X32594480Y-13357124D01*
X32544950Y-13307594D02*
X32644010Y-13307594D01*
X32627639Y-15157774D02*
X32627639Y-15256834D01*
X32578109Y-15207304D02*
X32677169Y-15207304D01*
X32660799Y-17057485D02*
X32660799Y-17156545D01*
X32611269Y-17107015D02*
X32710329Y-17107015D01*
X32693958Y-18957196D02*
X32693958Y-19056256D01*
X32644428Y-19006726D02*
X32743488Y-19006726D01*
X33323204Y-11345054D02*
X33323204Y-11444114D01*
X33273674Y-11394584D02*
X33372734Y-11394584D01*
X33356364Y-13244765D02*
X33356364Y-13343825D01*
X33306834Y-13294295D02*
X33405894Y-13294295D01*
X33389523Y-15144475D02*
X33389523Y-15243535D01*
X33339993Y-15194005D02*
X33439053Y-15194005D01*
X33422683Y-17044186D02*
X33422683Y-17143246D01*
X33373153Y-17093716D02*
X33472213Y-17093716D01*
X33455842Y-18943897D02*
X33455842Y-19042957D01*
X33406312Y-18993427D02*
X33505372Y-18993427D01*
X34602627Y-11850470D02*
X34602627Y-11949530D01*
X34553097Y-11900000D02*
X34652157Y-11900000D01*
X34602627Y-13750470D02*
X34602627Y-13849530D01*
X34553097Y-13800000D02*
X34652157Y-13800000D01*
X34602627Y-15650470D02*
X34602627Y-15749530D01*
X34553097Y-15700000D02*
X34652157Y-15700000D01*
X34602627Y-17550470D02*
X34602627Y-17649530D01*
X34553097Y-17600000D02*
X34652157Y-17600000D01*
X34602627Y-19450470D02*
X34602627Y-19549530D01*
X34553097Y-19500000D02*
X34652157Y-19500000D01*
X35364627Y-11850470D02*
X35364627Y-11949530D01*
X35315097Y-11900000D02*
X35414157Y-11900000D01*
X35364627Y-13750470D02*
X35364627Y-13849530D01*
X35315097Y-13800000D02*
X35414157Y-13800000D01*
X35364627Y-15650470D02*
X35364627Y-15749530D01*
X35315097Y-15700000D02*
X35414157Y-15700000D01*
X35364627Y-17550470D02*
X35364627Y-17649530D01*
X35315097Y-17600000D02*
X35414157Y-17600000D01*
X35364627Y-19450470D02*
X35364627Y-19549530D01*
X35315097Y-19500000D02*
X35414157Y-19500000D01*
D13*
X22039580Y-12378644D02*
X22039580Y-12301413D01*
X21962349Y-12301413D01*
X21962349Y-12378644D01*
X22039580Y-12378644D01*
X22057298Y-12632025D02*
X22057298Y-12554794D01*
X21980067Y-12554794D01*
X21980067Y-12632025D01*
X22057298Y-12632025D01*
X22075016Y-12885406D02*
X22075016Y-12808175D01*
X21997785Y-12808175D01*
X21997785Y-12885406D01*
X22075016Y-12885406D01*
X22092734Y-13138788D02*
X22092734Y-13061557D01*
X22015503Y-13061557D01*
X22015503Y-13138788D01*
X22092734Y-13138788D01*
X22110453Y-13392169D02*
X22110453Y-13314938D01*
X22033222Y-13314938D01*
X22033222Y-13392169D01*
X22110453Y-13392169D01*
X22128171Y-13645550D02*
X22128171Y-13568319D01*
X22050940Y-13568319D01*
X22050940Y-13645550D01*
X22128171Y-13645550D01*
X22145889Y-13898932D02*
X22145889Y-13821701D01*
X22068658Y-13821701D01*
X22068658Y-13898932D01*
X22145889Y-13898932D01*
X22163607Y-14152313D02*
X22163607Y-14075082D01*
X22086376Y-14075082D01*
X22086376Y-14152313D01*
X22163607Y-14152313D01*
X22181325Y-14405694D02*
X22181325Y-14328463D01*
X22104094Y-14328463D01*
X22104094Y-14405694D01*
X22181325Y-14405694D01*
X22199043Y-14659075D02*
X22199043Y-14581844D01*
X22121812Y-14581844D01*
X22121812Y-14659075D01*
X22199043Y-14659075D01*
X22216761Y-14912457D02*
X22216761Y-14835226D01*
X22139530Y-14835226D01*
X22139530Y-14912457D01*
X22216761Y-14912457D01*
X22234480Y-15165838D02*
X22234480Y-15088607D01*
X22157249Y-15088607D01*
X22157249Y-15165838D01*
X22234480Y-15165838D01*
X22452425Y-14641357D02*
X22452425Y-14564126D01*
X22375194Y-14564126D01*
X22375194Y-14641357D01*
X22452425Y-14641357D01*
X22705806Y-14623639D02*
X22705806Y-14546408D01*
X22628575Y-14546408D01*
X22628575Y-14623639D01*
X22705806Y-14623639D01*
X22959187Y-14605921D02*
X22959187Y-14528690D01*
X22881956Y-14528690D01*
X22881956Y-14605921D01*
X22959187Y-14605921D01*
X23559868Y-12272335D02*
X23559868Y-12195104D01*
X23482637Y-12195104D01*
X23482637Y-12272335D01*
X23559868Y-12272335D01*
X23577586Y-12525716D02*
X23577586Y-12448485D01*
X23500355Y-12448485D01*
X23500355Y-12525716D01*
X23577586Y-12525716D01*
X23595304Y-12779098D02*
X23595304Y-12701867D01*
X23518073Y-12701867D01*
X23518073Y-12779098D01*
X23595304Y-12779098D01*
X23613022Y-13032479D02*
X23613022Y-12955248D01*
X23535791Y-12955248D01*
X23535791Y-13032479D01*
X23613022Y-13032479D01*
X23630740Y-13285860D02*
X23630740Y-13208629D01*
X23553509Y-13208629D01*
X23553509Y-13285860D01*
X23630740Y-13285860D01*
X23648458Y-13539241D02*
X23648458Y-13462010D01*
X23571227Y-13462010D01*
X23571227Y-13539241D01*
X23648458Y-13539241D01*
X23666176Y-13792623D02*
X23666176Y-13715392D01*
X23588945Y-13715392D01*
X23588945Y-13792623D01*
X23666176Y-13792623D01*
X23683895Y-14046004D02*
X23683895Y-13968773D01*
X23606664Y-13968773D01*
X23606664Y-14046004D01*
X23683895Y-14046004D01*
X23701613Y-14299385D02*
X23701613Y-14222154D01*
X23624382Y-14222154D01*
X23624382Y-14299385D01*
X23701613Y-14299385D01*
X23719331Y-14552766D02*
X23719331Y-14475535D01*
X23642100Y-14475535D01*
X23642100Y-14552766D01*
X23719331Y-14552766D01*
X23737049Y-14806148D02*
X23737049Y-14728917D01*
X23659818Y-14728917D01*
X23659818Y-14806148D01*
X23737049Y-14806148D01*
X23754767Y-15059529D02*
X23754767Y-14982298D01*
X23677536Y-14982298D01*
X23677536Y-15059529D01*
X23754767Y-15059529D01*
D14*
X24400952Y-19895849D02*
X24510952Y-19785849D01*
X24400952Y-19675849D01*
X24290952Y-19785849D01*
X24400952Y-19895849D01*
X25948914Y-13544299D02*
X26058914Y-13434299D01*
X25948914Y-13324299D01*
X25838914Y-13434299D01*
X25948914Y-13544299D01*
X28235405Y-16710492D02*
X28345405Y-16600492D01*
X28235405Y-16490492D01*
X28125405Y-16600492D01*
X28235405Y-16710492D01*
X34083627Y-13360000D02*
X34193627Y-13250000D01*
X34083627Y-13140000D01*
X33973627Y-13250000D01*
X34083627Y-13360000D01*
X34083627Y-19060000D02*
X34193627Y-18950000D01*
X34083627Y-18840000D01*
X33973627Y-18950000D01*
X34083627Y-19060000D01*
D11*
X21900081Y-22660330D02*
X21900081Y-22460330D01*
X21900081Y-22460330D02*
X21947700Y-22460330D01*
X21947700Y-22460330D02*
X21976271Y-22469854D01*
X21976271Y-22469854D02*
X21995319Y-22488901D01*
X21995319Y-22488901D02*
X22004843Y-22507949D01*
X22004843Y-22507949D02*
X22014366Y-22546044D01*
X22014366Y-22546044D02*
X22014366Y-22574616D01*
X22014366Y-22574616D02*
X22004843Y-22612711D01*
X22004843Y-22612711D02*
X21995319Y-22631758D01*
X21995319Y-22631758D02*
X21976271Y-22650806D01*
X21976271Y-22650806D02*
X21947700Y-22660330D01*
X21947700Y-22660330D02*
X21900081Y-22660330D01*
X22100081Y-22660330D02*
X22100081Y-22526996D01*
X22100081Y-22565092D02*
X22109605Y-22546044D01*
X22109605Y-22546044D02*
X22119128Y-22536520D01*
X22119128Y-22536520D02*
X22138176Y-22526996D01*
X22138176Y-22526996D02*
X22157224Y-22526996D01*
X22223890Y-22660330D02*
X22223890Y-22526996D01*
X22223890Y-22460330D02*
X22214366Y-22469854D01*
X22214366Y-22469854D02*
X22223890Y-22479377D01*
X22223890Y-22479377D02*
X22233414Y-22469854D01*
X22233414Y-22469854D02*
X22223890Y-22460330D01*
X22223890Y-22460330D02*
X22223890Y-22479377D01*
X22347700Y-22660330D02*
X22328652Y-22650806D01*
X22328652Y-22650806D02*
X22319128Y-22631758D01*
X22319128Y-22631758D02*
X22319128Y-22460330D01*
X22452462Y-22660330D02*
X22433414Y-22650806D01*
X22433414Y-22650806D02*
X22423890Y-22631758D01*
X22423890Y-22631758D02*
X22423890Y-22460330D01*
X22681033Y-22660330D02*
X22681033Y-22460330D01*
X22681033Y-22460330D02*
X22747700Y-22603187D01*
X22747700Y-22603187D02*
X22814366Y-22460330D01*
X22814366Y-22460330D02*
X22814366Y-22660330D01*
X22995319Y-22660330D02*
X22995319Y-22555568D01*
X22995319Y-22555568D02*
X22985795Y-22536520D01*
X22985795Y-22536520D02*
X22966747Y-22526996D01*
X22966747Y-22526996D02*
X22928652Y-22526996D01*
X22928652Y-22526996D02*
X22909604Y-22536520D01*
X22995319Y-22650806D02*
X22976271Y-22660330D01*
X22976271Y-22660330D02*
X22928652Y-22660330D01*
X22928652Y-22660330D02*
X22909604Y-22650806D01*
X22909604Y-22650806D02*
X22900081Y-22631758D01*
X22900081Y-22631758D02*
X22900081Y-22612711D01*
X22900081Y-22612711D02*
X22909604Y-22593663D01*
X22909604Y-22593663D02*
X22928652Y-22584139D01*
X22928652Y-22584139D02*
X22976271Y-22584139D01*
X22976271Y-22584139D02*
X22995319Y-22574616D01*
X23090557Y-22526996D02*
X23090557Y-22726996D01*
X23090557Y-22536520D02*
X23109604Y-22526996D01*
X23109604Y-22526996D02*
X23147700Y-22526996D01*
X23147700Y-22526996D02*
X23166747Y-22536520D01*
X23166747Y-22536520D02*
X23176271Y-22546044D01*
X23176271Y-22546044D02*
X23185795Y-22565092D01*
X23185795Y-22565092D02*
X23185795Y-22622235D01*
X23185795Y-22622235D02*
X23176271Y-22641282D01*
X23176271Y-22641282D02*
X23166747Y-22650806D01*
X23166747Y-22650806D02*
X23147700Y-22660330D01*
X23147700Y-22660330D02*
X23109604Y-22660330D01*
X23109604Y-22660330D02*
X23090557Y-22650806D01*
X23271509Y-22641282D02*
X23281033Y-22650806D01*
X23281033Y-22650806D02*
X23271509Y-22660330D01*
X23271509Y-22660330D02*
X23261985Y-22650806D01*
X23261985Y-22650806D02*
X23271509Y-22641282D01*
X23271509Y-22641282D02*
X23271509Y-22660330D01*
X23271509Y-22536520D02*
X23281033Y-22546044D01*
X23281033Y-22546044D02*
X23271509Y-22555568D01*
X23271509Y-22555568D02*
X23261985Y-22546044D01*
X23261985Y-22546044D02*
X23271509Y-22536520D01*
X23271509Y-22536520D02*
X23271509Y-22555568D01*
D12*
X21599304Y-22968846D02*
X21639304Y-23008846D01*
X21639304Y-22968846D02*
X21599304Y-23008846D01*
D11*
X21938176Y-22880330D02*
X21957224Y-22880330D01*
X21957224Y-22880330D02*
X21976271Y-22889854D01*
X21976271Y-22889854D02*
X21985795Y-22899377D01*
X21985795Y-22899377D02*
X21995319Y-22918425D01*
X21995319Y-22918425D02*
X22004843Y-22956520D01*
X22004843Y-22956520D02*
X22004843Y-23004139D01*
X22004843Y-23004139D02*
X21995319Y-23042235D01*
X21995319Y-23042235D02*
X21985795Y-23061282D01*
X21985795Y-23061282D02*
X21976271Y-23070806D01*
X21976271Y-23070806D02*
X21957224Y-23080330D01*
X21957224Y-23080330D02*
X21938176Y-23080330D01*
X21938176Y-23080330D02*
X21919128Y-23070806D01*
X21919128Y-23070806D02*
X21909605Y-23061282D01*
X21909605Y-23061282D02*
X21900081Y-23042235D01*
X21900081Y-23042235D02*
X21890557Y-23004139D01*
X21890557Y-23004139D02*
X21890557Y-22956520D01*
X21890557Y-22956520D02*
X21900081Y-22918425D01*
X21900081Y-22918425D02*
X21909605Y-22899377D01*
X21909605Y-22899377D02*
X21919128Y-22889854D01*
X21919128Y-22889854D02*
X21938176Y-22880330D01*
X22090557Y-23061282D02*
X22100081Y-23070806D01*
X22100081Y-23070806D02*
X22090557Y-23080330D01*
X22090557Y-23080330D02*
X22081033Y-23070806D01*
X22081033Y-23070806D02*
X22090557Y-23061282D01*
X22090557Y-23061282D02*
X22090557Y-23080330D01*
X22271509Y-22946996D02*
X22271509Y-23080330D01*
X22223890Y-22870806D02*
X22176271Y-23013663D01*
X22176271Y-23013663D02*
X22300081Y-23013663D01*
X22414366Y-22880330D02*
X22433414Y-22880330D01*
X22433414Y-22880330D02*
X22452462Y-22889854D01*
X22452462Y-22889854D02*
X22461985Y-22899377D01*
X22461985Y-22899377D02*
X22471509Y-22918425D01*
X22471509Y-22918425D02*
X22481033Y-22956520D01*
X22481033Y-22956520D02*
X22481033Y-23004139D01*
X22481033Y-23004139D02*
X22471509Y-23042235D01*
X22471509Y-23042235D02*
X22461985Y-23061282D01*
X22461985Y-23061282D02*
X22452462Y-23070806D01*
X22452462Y-23070806D02*
X22433414Y-23080330D01*
X22433414Y-23080330D02*
X22414366Y-23080330D01*
X22414366Y-23080330D02*
X22395319Y-23070806D01*
X22395319Y-23070806D02*
X22385795Y-23061282D01*
X22385795Y-23061282D02*
X22376271Y-23042235D01*
X22376271Y-23042235D02*
X22366747Y-23004139D01*
X22366747Y-23004139D02*
X22366747Y-22956520D01*
X22366747Y-22956520D02*
X22376271Y-22918425D01*
X22376271Y-22918425D02*
X22385795Y-22899377D01*
X22385795Y-22899377D02*
X22395319Y-22889854D01*
X22395319Y-22889854D02*
X22414366Y-22880330D01*
X22604843Y-22880330D02*
X22623890Y-22880330D01*
X22623890Y-22880330D02*
X22642938Y-22889854D01*
X22642938Y-22889854D02*
X22652462Y-22899377D01*
X22652462Y-22899377D02*
X22661985Y-22918425D01*
X22661985Y-22918425D02*
X22671509Y-22956520D01*
X22671509Y-22956520D02*
X22671509Y-23004139D01*
X22671509Y-23004139D02*
X22661985Y-23042235D01*
X22661985Y-23042235D02*
X22652462Y-23061282D01*
X22652462Y-23061282D02*
X22642938Y-23070806D01*
X22642938Y-23070806D02*
X22623890Y-23080330D01*
X22623890Y-23080330D02*
X22604843Y-23080330D01*
X22604843Y-23080330D02*
X22585795Y-23070806D01*
X22585795Y-23070806D02*
X22576271Y-23061282D01*
X22576271Y-23061282D02*
X22566747Y-23042235D01*
X22566747Y-23042235D02*
X22557224Y-23004139D01*
X22557224Y-23004139D02*
X22557224Y-22956520D01*
X22557224Y-22956520D02*
X22566747Y-22918425D01*
X22566747Y-22918425D02*
X22576271Y-22899377D01*
X22576271Y-22899377D02*
X22585795Y-22889854D01*
X22585795Y-22889854D02*
X22604843Y-22880330D01*
X22757224Y-23080330D02*
X22757224Y-22946996D01*
X22757224Y-22966044D02*
X22766747Y-22956520D01*
X22766747Y-22956520D02*
X22785795Y-22946996D01*
X22785795Y-22946996D02*
X22814366Y-22946996D01*
X22814366Y-22946996D02*
X22833414Y-22956520D01*
X22833414Y-22956520D02*
X22842938Y-22975568D01*
X22842938Y-22975568D02*
X22842938Y-23080330D01*
X22842938Y-22975568D02*
X22852462Y-22956520D01*
X22852462Y-22956520D02*
X22871509Y-22946996D01*
X22871509Y-22946996D02*
X22900081Y-22946996D01*
X22900081Y-22946996D02*
X22919128Y-22956520D01*
X22919128Y-22956520D02*
X22928652Y-22975568D01*
X22928652Y-22975568D02*
X22928652Y-23080330D01*
X23023890Y-23080330D02*
X23023890Y-22946996D01*
X23023890Y-22966044D02*
X23033414Y-22956520D01*
X23033414Y-22956520D02*
X23052462Y-22946996D01*
X23052462Y-22946996D02*
X23081033Y-22946996D01*
X23081033Y-22946996D02*
X23100081Y-22956520D01*
X23100081Y-22956520D02*
X23109605Y-22975568D01*
X23109605Y-22975568D02*
X23109605Y-23080330D01*
X23109605Y-22975568D02*
X23119128Y-22956520D01*
X23119128Y-22956520D02*
X23138176Y-22946996D01*
X23138176Y-22946996D02*
X23166747Y-22946996D01*
X23166747Y-22946996D02*
X23185795Y-22956520D01*
X23185795Y-22956520D02*
X23195319Y-22975568D01*
X23195319Y-22975568D02*
X23195319Y-23080330D01*
X23585795Y-22870806D02*
X23414367Y-23127949D01*
X23842938Y-22880330D02*
X23861986Y-22880330D01*
X23861986Y-22880330D02*
X23881033Y-22889854D01*
X23881033Y-22889854D02*
X23890557Y-22899377D01*
X23890557Y-22899377D02*
X23900081Y-22918425D01*
X23900081Y-22918425D02*
X23909605Y-22956520D01*
X23909605Y-22956520D02*
X23909605Y-23004139D01*
X23909605Y-23004139D02*
X23900081Y-23042235D01*
X23900081Y-23042235D02*
X23890557Y-23061282D01*
X23890557Y-23061282D02*
X23881033Y-23070806D01*
X23881033Y-23070806D02*
X23861986Y-23080330D01*
X23861986Y-23080330D02*
X23842938Y-23080330D01*
X23842938Y-23080330D02*
X23823890Y-23070806D01*
X23823890Y-23070806D02*
X23814367Y-23061282D01*
X23814367Y-23061282D02*
X23804843Y-23042235D01*
X23804843Y-23042235D02*
X23795319Y-23004139D01*
X23795319Y-23004139D02*
X23795319Y-22956520D01*
X23795319Y-22956520D02*
X23804843Y-22918425D01*
X23804843Y-22918425D02*
X23814367Y-22899377D01*
X23814367Y-22899377D02*
X23823890Y-22889854D01*
X23823890Y-22889854D02*
X23842938Y-22880330D01*
X23995319Y-23061282D02*
X24004843Y-23070806D01*
X24004843Y-23070806D02*
X23995319Y-23080330D01*
X23995319Y-23080330D02*
X23985795Y-23070806D01*
X23985795Y-23070806D02*
X23995319Y-23061282D01*
X23995319Y-23061282D02*
X23995319Y-23080330D01*
X24128652Y-22880330D02*
X24147700Y-22880330D01*
X24147700Y-22880330D02*
X24166748Y-22889854D01*
X24166748Y-22889854D02*
X24176271Y-22899377D01*
X24176271Y-22899377D02*
X24185795Y-22918425D01*
X24185795Y-22918425D02*
X24195319Y-22956520D01*
X24195319Y-22956520D02*
X24195319Y-23004139D01*
X24195319Y-23004139D02*
X24185795Y-23042235D01*
X24185795Y-23042235D02*
X24176271Y-23061282D01*
X24176271Y-23061282D02*
X24166748Y-23070806D01*
X24166748Y-23070806D02*
X24147700Y-23080330D01*
X24147700Y-23080330D02*
X24128652Y-23080330D01*
X24128652Y-23080330D02*
X24109605Y-23070806D01*
X24109605Y-23070806D02*
X24100081Y-23061282D01*
X24100081Y-23061282D02*
X24090557Y-23042235D01*
X24090557Y-23042235D02*
X24081033Y-23004139D01*
X24081033Y-23004139D02*
X24081033Y-22956520D01*
X24081033Y-22956520D02*
X24090557Y-22918425D01*
X24090557Y-22918425D02*
X24100081Y-22899377D01*
X24100081Y-22899377D02*
X24109605Y-22889854D01*
X24109605Y-22889854D02*
X24128652Y-22880330D01*
X24385795Y-23080330D02*
X24271509Y-23080330D01*
X24328652Y-23080330D02*
X24328652Y-22880330D01*
X24328652Y-22880330D02*
X24309605Y-22908901D01*
X24309605Y-22908901D02*
X24290557Y-22927949D01*
X24290557Y-22927949D02*
X24271509Y-22937473D01*
X24566748Y-22880330D02*
X24471509Y-22880330D01*
X24471509Y-22880330D02*
X24461986Y-22975568D01*
X24461986Y-22975568D02*
X24471509Y-22966044D01*
X24471509Y-22966044D02*
X24490557Y-22956520D01*
X24490557Y-22956520D02*
X24538176Y-22956520D01*
X24538176Y-22956520D02*
X24557224Y-22966044D01*
X24557224Y-22966044D02*
X24566748Y-22975568D01*
X24566748Y-22975568D02*
X24576271Y-22994616D01*
X24576271Y-22994616D02*
X24576271Y-23042235D01*
X24576271Y-23042235D02*
X24566748Y-23061282D01*
X24566748Y-23061282D02*
X24557224Y-23070806D01*
X24557224Y-23070806D02*
X24538176Y-23080330D01*
X24538176Y-23080330D02*
X24490557Y-23080330D01*
X24490557Y-23080330D02*
X24471509Y-23070806D01*
X24471509Y-23070806D02*
X24461986Y-23061282D01*
X24642938Y-22880330D02*
X24776271Y-22880330D01*
X24776271Y-22880330D02*
X24690557Y-23080330D01*
X24842938Y-22880330D02*
X24842938Y-22918425D01*
X24919129Y-22880330D02*
X24919129Y-22918425D01*
X25214367Y-23156520D02*
X25204843Y-23146996D01*
X25204843Y-23146996D02*
X25185795Y-23118425D01*
X25185795Y-23118425D02*
X25176271Y-23099377D01*
X25176271Y-23099377D02*
X25166748Y-23070806D01*
X25166748Y-23070806D02*
X25157224Y-23023187D01*
X25157224Y-23023187D02*
X25157224Y-22985092D01*
X25157224Y-22985092D02*
X25166748Y-22937473D01*
X25166748Y-22937473D02*
X25176271Y-22908901D01*
X25176271Y-22908901D02*
X25185795Y-22889854D01*
X25185795Y-22889854D02*
X25204843Y-22861282D01*
X25204843Y-22861282D02*
X25214367Y-22851758D01*
X25376271Y-22946996D02*
X25376271Y-23080330D01*
X25328652Y-22870806D02*
X25281033Y-23013663D01*
X25281033Y-23013663D02*
X25404843Y-23013663D01*
X25519129Y-22880330D02*
X25538176Y-22880330D01*
X25538176Y-22880330D02*
X25557224Y-22889854D01*
X25557224Y-22889854D02*
X25566748Y-22899377D01*
X25566748Y-22899377D02*
X25576271Y-22918425D01*
X25576271Y-22918425D02*
X25585795Y-22956520D01*
X25585795Y-22956520D02*
X25585795Y-23004139D01*
X25585795Y-23004139D02*
X25576271Y-23042235D01*
X25576271Y-23042235D02*
X25566748Y-23061282D01*
X25566748Y-23061282D02*
X25557224Y-23070806D01*
X25557224Y-23070806D02*
X25538176Y-23080330D01*
X25538176Y-23080330D02*
X25519129Y-23080330D01*
X25519129Y-23080330D02*
X25500081Y-23070806D01*
X25500081Y-23070806D02*
X25490557Y-23061282D01*
X25490557Y-23061282D02*
X25481033Y-23042235D01*
X25481033Y-23042235D02*
X25471510Y-23004139D01*
X25471510Y-23004139D02*
X25471510Y-22956520D01*
X25471510Y-22956520D02*
X25481033Y-22918425D01*
X25481033Y-22918425D02*
X25490557Y-22899377D01*
X25490557Y-22899377D02*
X25500081Y-22889854D01*
X25500081Y-22889854D02*
X25519129Y-22880330D01*
X25823891Y-23080330D02*
X25823891Y-22880330D01*
X25909605Y-23080330D02*
X25909605Y-22975568D01*
X25909605Y-22975568D02*
X25900081Y-22956520D01*
X25900081Y-22956520D02*
X25881033Y-22946996D01*
X25881033Y-22946996D02*
X25852462Y-22946996D01*
X25852462Y-22946996D02*
X25833414Y-22956520D01*
X25833414Y-22956520D02*
X25823891Y-22966044D01*
X26033414Y-23080330D02*
X26014367Y-23070806D01*
X26014367Y-23070806D02*
X26004843Y-23061282D01*
X26004843Y-23061282D02*
X25995319Y-23042235D01*
X25995319Y-23042235D02*
X25995319Y-22985092D01*
X25995319Y-22985092D02*
X26004843Y-22966044D01*
X26004843Y-22966044D02*
X26014367Y-22956520D01*
X26014367Y-22956520D02*
X26033414Y-22946996D01*
X26033414Y-22946996D02*
X26061986Y-22946996D01*
X26061986Y-22946996D02*
X26081033Y-22956520D01*
X26081033Y-22956520D02*
X26090557Y-22966044D01*
X26090557Y-22966044D02*
X26100081Y-22985092D01*
X26100081Y-22985092D02*
X26100081Y-23042235D01*
X26100081Y-23042235D02*
X26090557Y-23061282D01*
X26090557Y-23061282D02*
X26081033Y-23070806D01*
X26081033Y-23070806D02*
X26061986Y-23080330D01*
X26061986Y-23080330D02*
X26033414Y-23080330D01*
X26214367Y-23080330D02*
X26195319Y-23070806D01*
X26195319Y-23070806D02*
X26185795Y-23051758D01*
X26185795Y-23051758D02*
X26185795Y-22880330D01*
X26366748Y-23070806D02*
X26347700Y-23080330D01*
X26347700Y-23080330D02*
X26309605Y-23080330D01*
X26309605Y-23080330D02*
X26290557Y-23070806D01*
X26290557Y-23070806D02*
X26281033Y-23051758D01*
X26281033Y-23051758D02*
X26281033Y-22975568D01*
X26281033Y-22975568D02*
X26290557Y-22956520D01*
X26290557Y-22956520D02*
X26309605Y-22946996D01*
X26309605Y-22946996D02*
X26347700Y-22946996D01*
X26347700Y-22946996D02*
X26366748Y-22956520D01*
X26366748Y-22956520D02*
X26376272Y-22975568D01*
X26376272Y-22975568D02*
X26376272Y-22994616D01*
X26376272Y-22994616D02*
X26281033Y-23013663D01*
X26452462Y-23070806D02*
X26471510Y-23080330D01*
X26471510Y-23080330D02*
X26509605Y-23080330D01*
X26509605Y-23080330D02*
X26528653Y-23070806D01*
X26528653Y-23070806D02*
X26538176Y-23051758D01*
X26538176Y-23051758D02*
X26538176Y-23042235D01*
X26538176Y-23042235D02*
X26528653Y-23023187D01*
X26528653Y-23023187D02*
X26509605Y-23013663D01*
X26509605Y-23013663D02*
X26481033Y-23013663D01*
X26481033Y-23013663D02*
X26461986Y-23004139D01*
X26461986Y-23004139D02*
X26452462Y-22985092D01*
X26452462Y-22985092D02*
X26452462Y-22975568D01*
X26452462Y-22975568D02*
X26461986Y-22956520D01*
X26461986Y-22956520D02*
X26481033Y-22946996D01*
X26481033Y-22946996D02*
X26509605Y-22946996D01*
X26509605Y-22946996D02*
X26528653Y-22956520D01*
X26604843Y-23156520D02*
X26614367Y-23146996D01*
X26614367Y-23146996D02*
X26633414Y-23118425D01*
X26633414Y-23118425D02*
X26642938Y-23099377D01*
X26642938Y-23099377D02*
X26652462Y-23070806D01*
X26652462Y-23070806D02*
X26661986Y-23023187D01*
X26661986Y-23023187D02*
X26661986Y-22985092D01*
X26661986Y-22985092D02*
X26652462Y-22937473D01*
X26652462Y-22937473D02*
X26642938Y-22908901D01*
X26642938Y-22908901D02*
X26633414Y-22889854D01*
X26633414Y-22889854D02*
X26614367Y-22861282D01*
X26614367Y-22861282D02*
X26604843Y-22851758D01*
D12*
X21639304Y-23252846D02*
G75*
G02*
X21564304Y-23252846I-37500J0D01*
G01*
X21564304Y-23252846D02*
G75*
G02*
X21639304Y-23252846I37500J0D01*
G01*
D11*
X21938176Y-23144330D02*
X21957224Y-23144330D01*
X21957224Y-23144330D02*
X21976271Y-23153854D01*
X21976271Y-23153854D02*
X21985795Y-23163377D01*
X21985795Y-23163377D02*
X21995319Y-23182425D01*
X21995319Y-23182425D02*
X22004843Y-23220520D01*
X22004843Y-23220520D02*
X22004843Y-23268139D01*
X22004843Y-23268139D02*
X21995319Y-23306235D01*
X21995319Y-23306235D02*
X21985795Y-23325282D01*
X21985795Y-23325282D02*
X21976271Y-23334806D01*
X21976271Y-23334806D02*
X21957224Y-23344330D01*
X21957224Y-23344330D02*
X21938176Y-23344330D01*
X21938176Y-23344330D02*
X21919128Y-23334806D01*
X21919128Y-23334806D02*
X21909605Y-23325282D01*
X21909605Y-23325282D02*
X21900081Y-23306235D01*
X21900081Y-23306235D02*
X21890557Y-23268139D01*
X21890557Y-23268139D02*
X21890557Y-23220520D01*
X21890557Y-23220520D02*
X21900081Y-23182425D01*
X21900081Y-23182425D02*
X21909605Y-23163377D01*
X21909605Y-23163377D02*
X21919128Y-23153854D01*
X21919128Y-23153854D02*
X21938176Y-23144330D01*
X22090557Y-23325282D02*
X22100081Y-23334806D01*
X22100081Y-23334806D02*
X22090557Y-23344330D01*
X22090557Y-23344330D02*
X22081033Y-23334806D01*
X22081033Y-23334806D02*
X22090557Y-23325282D01*
X22090557Y-23325282D02*
X22090557Y-23344330D01*
X22166747Y-23144330D02*
X22300081Y-23144330D01*
X22300081Y-23144330D02*
X22214366Y-23344330D01*
X22471509Y-23144330D02*
X22376271Y-23144330D01*
X22376271Y-23144330D02*
X22366747Y-23239568D01*
X22366747Y-23239568D02*
X22376271Y-23230044D01*
X22376271Y-23230044D02*
X22395319Y-23220520D01*
X22395319Y-23220520D02*
X22442938Y-23220520D01*
X22442938Y-23220520D02*
X22461985Y-23230044D01*
X22461985Y-23230044D02*
X22471509Y-23239568D01*
X22471509Y-23239568D02*
X22481033Y-23258616D01*
X22481033Y-23258616D02*
X22481033Y-23306235D01*
X22481033Y-23306235D02*
X22471509Y-23325282D01*
X22471509Y-23325282D02*
X22461985Y-23334806D01*
X22461985Y-23334806D02*
X22442938Y-23344330D01*
X22442938Y-23344330D02*
X22395319Y-23344330D01*
X22395319Y-23344330D02*
X22376271Y-23334806D01*
X22376271Y-23334806D02*
X22366747Y-23325282D01*
X22604843Y-23144330D02*
X22623890Y-23144330D01*
X22623890Y-23144330D02*
X22642938Y-23153854D01*
X22642938Y-23153854D02*
X22652462Y-23163377D01*
X22652462Y-23163377D02*
X22661985Y-23182425D01*
X22661985Y-23182425D02*
X22671509Y-23220520D01*
X22671509Y-23220520D02*
X22671509Y-23268139D01*
X22671509Y-23268139D02*
X22661985Y-23306235D01*
X22661985Y-23306235D02*
X22652462Y-23325282D01*
X22652462Y-23325282D02*
X22642938Y-23334806D01*
X22642938Y-23334806D02*
X22623890Y-23344330D01*
X22623890Y-23344330D02*
X22604843Y-23344330D01*
X22604843Y-23344330D02*
X22585795Y-23334806D01*
X22585795Y-23334806D02*
X22576271Y-23325282D01*
X22576271Y-23325282D02*
X22566747Y-23306235D01*
X22566747Y-23306235D02*
X22557224Y-23268139D01*
X22557224Y-23268139D02*
X22557224Y-23220520D01*
X22557224Y-23220520D02*
X22566747Y-23182425D01*
X22566747Y-23182425D02*
X22576271Y-23163377D01*
X22576271Y-23163377D02*
X22585795Y-23153854D01*
X22585795Y-23153854D02*
X22604843Y-23144330D01*
X22757224Y-23344330D02*
X22757224Y-23210996D01*
X22757224Y-23230044D02*
X22766747Y-23220520D01*
X22766747Y-23220520D02*
X22785795Y-23210996D01*
X22785795Y-23210996D02*
X22814366Y-23210996D01*
X22814366Y-23210996D02*
X22833414Y-23220520D01*
X22833414Y-23220520D02*
X22842938Y-23239568D01*
X22842938Y-23239568D02*
X22842938Y-23344330D01*
X22842938Y-23239568D02*
X22852462Y-23220520D01*
X22852462Y-23220520D02*
X22871509Y-23210996D01*
X22871509Y-23210996D02*
X22900081Y-23210996D01*
X22900081Y-23210996D02*
X22919128Y-23220520D01*
X22919128Y-23220520D02*
X22928652Y-23239568D01*
X22928652Y-23239568D02*
X22928652Y-23344330D01*
X23023890Y-23344330D02*
X23023890Y-23210996D01*
X23023890Y-23230044D02*
X23033414Y-23220520D01*
X23033414Y-23220520D02*
X23052462Y-23210996D01*
X23052462Y-23210996D02*
X23081033Y-23210996D01*
X23081033Y-23210996D02*
X23100081Y-23220520D01*
X23100081Y-23220520D02*
X23109605Y-23239568D01*
X23109605Y-23239568D02*
X23109605Y-23344330D01*
X23109605Y-23239568D02*
X23119128Y-23220520D01*
X23119128Y-23220520D02*
X23138176Y-23210996D01*
X23138176Y-23210996D02*
X23166747Y-23210996D01*
X23166747Y-23210996D02*
X23185795Y-23220520D01*
X23185795Y-23220520D02*
X23195319Y-23239568D01*
X23195319Y-23239568D02*
X23195319Y-23344330D01*
X23585795Y-23134806D02*
X23414367Y-23391949D01*
X23842938Y-23144330D02*
X23861986Y-23144330D01*
X23861986Y-23144330D02*
X23881033Y-23153854D01*
X23881033Y-23153854D02*
X23890557Y-23163377D01*
X23890557Y-23163377D02*
X23900081Y-23182425D01*
X23900081Y-23182425D02*
X23909605Y-23220520D01*
X23909605Y-23220520D02*
X23909605Y-23268139D01*
X23909605Y-23268139D02*
X23900081Y-23306235D01*
X23900081Y-23306235D02*
X23890557Y-23325282D01*
X23890557Y-23325282D02*
X23881033Y-23334806D01*
X23881033Y-23334806D02*
X23861986Y-23344330D01*
X23861986Y-23344330D02*
X23842938Y-23344330D01*
X23842938Y-23344330D02*
X23823890Y-23334806D01*
X23823890Y-23334806D02*
X23814367Y-23325282D01*
X23814367Y-23325282D02*
X23804843Y-23306235D01*
X23804843Y-23306235D02*
X23795319Y-23268139D01*
X23795319Y-23268139D02*
X23795319Y-23220520D01*
X23795319Y-23220520D02*
X23804843Y-23182425D01*
X23804843Y-23182425D02*
X23814367Y-23163377D01*
X23814367Y-23163377D02*
X23823890Y-23153854D01*
X23823890Y-23153854D02*
X23842938Y-23144330D01*
X23995319Y-23325282D02*
X24004843Y-23334806D01*
X24004843Y-23334806D02*
X23995319Y-23344330D01*
X23995319Y-23344330D02*
X23985795Y-23334806D01*
X23985795Y-23334806D02*
X23995319Y-23325282D01*
X23995319Y-23325282D02*
X23995319Y-23344330D01*
X24128652Y-23144330D02*
X24147700Y-23144330D01*
X24147700Y-23144330D02*
X24166748Y-23153854D01*
X24166748Y-23153854D02*
X24176271Y-23163377D01*
X24176271Y-23163377D02*
X24185795Y-23182425D01*
X24185795Y-23182425D02*
X24195319Y-23220520D01*
X24195319Y-23220520D02*
X24195319Y-23268139D01*
X24195319Y-23268139D02*
X24185795Y-23306235D01*
X24185795Y-23306235D02*
X24176271Y-23325282D01*
X24176271Y-23325282D02*
X24166748Y-23334806D01*
X24166748Y-23334806D02*
X24147700Y-23344330D01*
X24147700Y-23344330D02*
X24128652Y-23344330D01*
X24128652Y-23344330D02*
X24109605Y-23334806D01*
X24109605Y-23334806D02*
X24100081Y-23325282D01*
X24100081Y-23325282D02*
X24090557Y-23306235D01*
X24090557Y-23306235D02*
X24081033Y-23268139D01*
X24081033Y-23268139D02*
X24081033Y-23220520D01*
X24081033Y-23220520D02*
X24090557Y-23182425D01*
X24090557Y-23182425D02*
X24100081Y-23163377D01*
X24100081Y-23163377D02*
X24109605Y-23153854D01*
X24109605Y-23153854D02*
X24128652Y-23144330D01*
X24271509Y-23163377D02*
X24281033Y-23153854D01*
X24281033Y-23153854D02*
X24300081Y-23144330D01*
X24300081Y-23144330D02*
X24347700Y-23144330D01*
X24347700Y-23144330D02*
X24366748Y-23153854D01*
X24366748Y-23153854D02*
X24376271Y-23163377D01*
X24376271Y-23163377D02*
X24385795Y-23182425D01*
X24385795Y-23182425D02*
X24385795Y-23201473D01*
X24385795Y-23201473D02*
X24376271Y-23230044D01*
X24376271Y-23230044D02*
X24261986Y-23344330D01*
X24261986Y-23344330D02*
X24385795Y-23344330D01*
X24481033Y-23344330D02*
X24519128Y-23344330D01*
X24519128Y-23344330D02*
X24538176Y-23334806D01*
X24538176Y-23334806D02*
X24547700Y-23325282D01*
X24547700Y-23325282D02*
X24566748Y-23296711D01*
X24566748Y-23296711D02*
X24576271Y-23258616D01*
X24576271Y-23258616D02*
X24576271Y-23182425D01*
X24576271Y-23182425D02*
X24566748Y-23163377D01*
X24566748Y-23163377D02*
X24557224Y-23153854D01*
X24557224Y-23153854D02*
X24538176Y-23144330D01*
X24538176Y-23144330D02*
X24500081Y-23144330D01*
X24500081Y-23144330D02*
X24481033Y-23153854D01*
X24481033Y-23153854D02*
X24471509Y-23163377D01*
X24471509Y-23163377D02*
X24461986Y-23182425D01*
X24461986Y-23182425D02*
X24461986Y-23230044D01*
X24461986Y-23230044D02*
X24471509Y-23249092D01*
X24471509Y-23249092D02*
X24481033Y-23258616D01*
X24481033Y-23258616D02*
X24500081Y-23268139D01*
X24500081Y-23268139D02*
X24538176Y-23268139D01*
X24538176Y-23268139D02*
X24557224Y-23258616D01*
X24557224Y-23258616D02*
X24566748Y-23249092D01*
X24566748Y-23249092D02*
X24576271Y-23230044D01*
X24757224Y-23144330D02*
X24661986Y-23144330D01*
X24661986Y-23144330D02*
X24652462Y-23239568D01*
X24652462Y-23239568D02*
X24661986Y-23230044D01*
X24661986Y-23230044D02*
X24681033Y-23220520D01*
X24681033Y-23220520D02*
X24728652Y-23220520D01*
X24728652Y-23220520D02*
X24747700Y-23230044D01*
X24747700Y-23230044D02*
X24757224Y-23239568D01*
X24757224Y-23239568D02*
X24766748Y-23258616D01*
X24766748Y-23258616D02*
X24766748Y-23306235D01*
X24766748Y-23306235D02*
X24757224Y-23325282D01*
X24757224Y-23325282D02*
X24747700Y-23334806D01*
X24747700Y-23334806D02*
X24728652Y-23344330D01*
X24728652Y-23344330D02*
X24681033Y-23344330D01*
X24681033Y-23344330D02*
X24661986Y-23334806D01*
X24661986Y-23334806D02*
X24652462Y-23325282D01*
X24842938Y-23144330D02*
X24842938Y-23182425D01*
X24919129Y-23144330D02*
X24919129Y-23182425D01*
X25214367Y-23420520D02*
X25204843Y-23410996D01*
X25204843Y-23410996D02*
X25185795Y-23382425D01*
X25185795Y-23382425D02*
X25176271Y-23363377D01*
X25176271Y-23363377D02*
X25166748Y-23334806D01*
X25166748Y-23334806D02*
X25157224Y-23287187D01*
X25157224Y-23287187D02*
X25157224Y-23249092D01*
X25157224Y-23249092D02*
X25166748Y-23201473D01*
X25166748Y-23201473D02*
X25176271Y-23172901D01*
X25176271Y-23172901D02*
X25185795Y-23153854D01*
X25185795Y-23153854D02*
X25204843Y-23125282D01*
X25204843Y-23125282D02*
X25214367Y-23115758D01*
X25281033Y-23163377D02*
X25290557Y-23153854D01*
X25290557Y-23153854D02*
X25309605Y-23144330D01*
X25309605Y-23144330D02*
X25357224Y-23144330D01*
X25357224Y-23144330D02*
X25376271Y-23153854D01*
X25376271Y-23153854D02*
X25385795Y-23163377D01*
X25385795Y-23163377D02*
X25395319Y-23182425D01*
X25395319Y-23182425D02*
X25395319Y-23201473D01*
X25395319Y-23201473D02*
X25385795Y-23230044D01*
X25385795Y-23230044D02*
X25271510Y-23344330D01*
X25271510Y-23344330D02*
X25395319Y-23344330D01*
X25633414Y-23344330D02*
X25633414Y-23144330D01*
X25719129Y-23344330D02*
X25719129Y-23239568D01*
X25719129Y-23239568D02*
X25709605Y-23220520D01*
X25709605Y-23220520D02*
X25690557Y-23210996D01*
X25690557Y-23210996D02*
X25661986Y-23210996D01*
X25661986Y-23210996D02*
X25642938Y-23220520D01*
X25642938Y-23220520D02*
X25633414Y-23230044D01*
X25842938Y-23344330D02*
X25823891Y-23334806D01*
X25823891Y-23334806D02*
X25814367Y-23325282D01*
X25814367Y-23325282D02*
X25804843Y-23306235D01*
X25804843Y-23306235D02*
X25804843Y-23249092D01*
X25804843Y-23249092D02*
X25814367Y-23230044D01*
X25814367Y-23230044D02*
X25823891Y-23220520D01*
X25823891Y-23220520D02*
X25842938Y-23210996D01*
X25842938Y-23210996D02*
X25871510Y-23210996D01*
X25871510Y-23210996D02*
X25890557Y-23220520D01*
X25890557Y-23220520D02*
X25900081Y-23230044D01*
X25900081Y-23230044D02*
X25909605Y-23249092D01*
X25909605Y-23249092D02*
X25909605Y-23306235D01*
X25909605Y-23306235D02*
X25900081Y-23325282D01*
X25900081Y-23325282D02*
X25890557Y-23334806D01*
X25890557Y-23334806D02*
X25871510Y-23344330D01*
X25871510Y-23344330D02*
X25842938Y-23344330D01*
X26023891Y-23344330D02*
X26004843Y-23334806D01*
X26004843Y-23334806D02*
X25995319Y-23315758D01*
X25995319Y-23315758D02*
X25995319Y-23144330D01*
X26176272Y-23334806D02*
X26157224Y-23344330D01*
X26157224Y-23344330D02*
X26119129Y-23344330D01*
X26119129Y-23344330D02*
X26100081Y-23334806D01*
X26100081Y-23334806D02*
X26090557Y-23315758D01*
X26090557Y-23315758D02*
X26090557Y-23239568D01*
X26090557Y-23239568D02*
X26100081Y-23220520D01*
X26100081Y-23220520D02*
X26119129Y-23210996D01*
X26119129Y-23210996D02*
X26157224Y-23210996D01*
X26157224Y-23210996D02*
X26176272Y-23220520D01*
X26176272Y-23220520D02*
X26185795Y-23239568D01*
X26185795Y-23239568D02*
X26185795Y-23258616D01*
X26185795Y-23258616D02*
X26090557Y-23277663D01*
X26261986Y-23334806D02*
X26281033Y-23344330D01*
X26281033Y-23344330D02*
X26319129Y-23344330D01*
X26319129Y-23344330D02*
X26338176Y-23334806D01*
X26338176Y-23334806D02*
X26347700Y-23315758D01*
X26347700Y-23315758D02*
X26347700Y-23306235D01*
X26347700Y-23306235D02*
X26338176Y-23287187D01*
X26338176Y-23287187D02*
X26319129Y-23277663D01*
X26319129Y-23277663D02*
X26290557Y-23277663D01*
X26290557Y-23277663D02*
X26271510Y-23268139D01*
X26271510Y-23268139D02*
X26261986Y-23249092D01*
X26261986Y-23249092D02*
X26261986Y-23239568D01*
X26261986Y-23239568D02*
X26271510Y-23220520D01*
X26271510Y-23220520D02*
X26290557Y-23210996D01*
X26290557Y-23210996D02*
X26319129Y-23210996D01*
X26319129Y-23210996D02*
X26338176Y-23220520D01*
X26414367Y-23420520D02*
X26423891Y-23410996D01*
X26423891Y-23410996D02*
X26442938Y-23382425D01*
X26442938Y-23382425D02*
X26452462Y-23363377D01*
X26452462Y-23363377D02*
X26461986Y-23334806D01*
X26461986Y-23334806D02*
X26471510Y-23287187D01*
X26471510Y-23287187D02*
X26471510Y-23249092D01*
X26471510Y-23249092D02*
X26461986Y-23201473D01*
X26461986Y-23201473D02*
X26452462Y-23172901D01*
X26452462Y-23172901D02*
X26442938Y-23153854D01*
X26442938Y-23153854D02*
X26423891Y-23125282D01*
X26423891Y-23125282D02*
X26414367Y-23115758D01*
D12*
X21589774Y-23467316D02*
X21589774Y-23566376D01*
X21540244Y-23516846D02*
X21639304Y-23516846D01*
D11*
X21938176Y-23408330D02*
X21957224Y-23408330D01*
X21957224Y-23408330D02*
X21976271Y-23417854D01*
X21976271Y-23417854D02*
X21985795Y-23427377D01*
X21985795Y-23427377D02*
X21995319Y-23446425D01*
X21995319Y-23446425D02*
X22004843Y-23484520D01*
X22004843Y-23484520D02*
X22004843Y-23532139D01*
X22004843Y-23532139D02*
X21995319Y-23570235D01*
X21995319Y-23570235D02*
X21985795Y-23589282D01*
X21985795Y-23589282D02*
X21976271Y-23598806D01*
X21976271Y-23598806D02*
X21957224Y-23608330D01*
X21957224Y-23608330D02*
X21938176Y-23608330D01*
X21938176Y-23608330D02*
X21919128Y-23598806D01*
X21919128Y-23598806D02*
X21909605Y-23589282D01*
X21909605Y-23589282D02*
X21900081Y-23570235D01*
X21900081Y-23570235D02*
X21890557Y-23532139D01*
X21890557Y-23532139D02*
X21890557Y-23484520D01*
X21890557Y-23484520D02*
X21900081Y-23446425D01*
X21900081Y-23446425D02*
X21909605Y-23427377D01*
X21909605Y-23427377D02*
X21919128Y-23417854D01*
X21919128Y-23417854D02*
X21938176Y-23408330D01*
X22090557Y-23589282D02*
X22100081Y-23598806D01*
X22100081Y-23598806D02*
X22090557Y-23608330D01*
X22090557Y-23608330D02*
X22081033Y-23598806D01*
X22081033Y-23598806D02*
X22090557Y-23589282D01*
X22090557Y-23589282D02*
X22090557Y-23608330D01*
X22195319Y-23608330D02*
X22233414Y-23608330D01*
X22233414Y-23608330D02*
X22252462Y-23598806D01*
X22252462Y-23598806D02*
X22261986Y-23589282D01*
X22261986Y-23589282D02*
X22281033Y-23560711D01*
X22281033Y-23560711D02*
X22290557Y-23522616D01*
X22290557Y-23522616D02*
X22290557Y-23446425D01*
X22290557Y-23446425D02*
X22281033Y-23427377D01*
X22281033Y-23427377D02*
X22271509Y-23417854D01*
X22271509Y-23417854D02*
X22252462Y-23408330D01*
X22252462Y-23408330D02*
X22214366Y-23408330D01*
X22214366Y-23408330D02*
X22195319Y-23417854D01*
X22195319Y-23417854D02*
X22185795Y-23427377D01*
X22185795Y-23427377D02*
X22176271Y-23446425D01*
X22176271Y-23446425D02*
X22176271Y-23494044D01*
X22176271Y-23494044D02*
X22185795Y-23513092D01*
X22185795Y-23513092D02*
X22195319Y-23522616D01*
X22195319Y-23522616D02*
X22214366Y-23532139D01*
X22214366Y-23532139D02*
X22252462Y-23532139D01*
X22252462Y-23532139D02*
X22271509Y-23522616D01*
X22271509Y-23522616D02*
X22281033Y-23513092D01*
X22281033Y-23513092D02*
X22290557Y-23494044D01*
X22385795Y-23608330D02*
X22423890Y-23608330D01*
X22423890Y-23608330D02*
X22442938Y-23598806D01*
X22442938Y-23598806D02*
X22452462Y-23589282D01*
X22452462Y-23589282D02*
X22471509Y-23560711D01*
X22471509Y-23560711D02*
X22481033Y-23522616D01*
X22481033Y-23522616D02*
X22481033Y-23446425D01*
X22481033Y-23446425D02*
X22471509Y-23427377D01*
X22471509Y-23427377D02*
X22461985Y-23417854D01*
X22461985Y-23417854D02*
X22442938Y-23408330D01*
X22442938Y-23408330D02*
X22404843Y-23408330D01*
X22404843Y-23408330D02*
X22385795Y-23417854D01*
X22385795Y-23417854D02*
X22376271Y-23427377D01*
X22376271Y-23427377D02*
X22366747Y-23446425D01*
X22366747Y-23446425D02*
X22366747Y-23494044D01*
X22366747Y-23494044D02*
X22376271Y-23513092D01*
X22376271Y-23513092D02*
X22385795Y-23522616D01*
X22385795Y-23522616D02*
X22404843Y-23532139D01*
X22404843Y-23532139D02*
X22442938Y-23532139D01*
X22442938Y-23532139D02*
X22461985Y-23522616D01*
X22461985Y-23522616D02*
X22471509Y-23513092D01*
X22471509Y-23513092D02*
X22481033Y-23494044D01*
X22671509Y-23608330D02*
X22557224Y-23608330D01*
X22614366Y-23608330D02*
X22614366Y-23408330D01*
X22614366Y-23408330D02*
X22595319Y-23436901D01*
X22595319Y-23436901D02*
X22576271Y-23455949D01*
X22576271Y-23455949D02*
X22557224Y-23465473D01*
X22757224Y-23608330D02*
X22757224Y-23474996D01*
X22757224Y-23494044D02*
X22766747Y-23484520D01*
X22766747Y-23484520D02*
X22785795Y-23474996D01*
X22785795Y-23474996D02*
X22814366Y-23474996D01*
X22814366Y-23474996D02*
X22833414Y-23484520D01*
X22833414Y-23484520D02*
X22842938Y-23503568D01*
X22842938Y-23503568D02*
X22842938Y-23608330D01*
X22842938Y-23503568D02*
X22852462Y-23484520D01*
X22852462Y-23484520D02*
X22871509Y-23474996D01*
X22871509Y-23474996D02*
X22900081Y-23474996D01*
X22900081Y-23474996D02*
X22919128Y-23484520D01*
X22919128Y-23484520D02*
X22928652Y-23503568D01*
X22928652Y-23503568D02*
X22928652Y-23608330D01*
X23023890Y-23608330D02*
X23023890Y-23474996D01*
X23023890Y-23494044D02*
X23033414Y-23484520D01*
X23033414Y-23484520D02*
X23052462Y-23474996D01*
X23052462Y-23474996D02*
X23081033Y-23474996D01*
X23081033Y-23474996D02*
X23100081Y-23484520D01*
X23100081Y-23484520D02*
X23109605Y-23503568D01*
X23109605Y-23503568D02*
X23109605Y-23608330D01*
X23109605Y-23503568D02*
X23119128Y-23484520D01*
X23119128Y-23484520D02*
X23138176Y-23474996D01*
X23138176Y-23474996D02*
X23166747Y-23474996D01*
X23166747Y-23474996D02*
X23185795Y-23484520D01*
X23185795Y-23484520D02*
X23195319Y-23503568D01*
X23195319Y-23503568D02*
X23195319Y-23608330D01*
X23585795Y-23398806D02*
X23414367Y-23655949D01*
X23842938Y-23408330D02*
X23861986Y-23408330D01*
X23861986Y-23408330D02*
X23881033Y-23417854D01*
X23881033Y-23417854D02*
X23890557Y-23427377D01*
X23890557Y-23427377D02*
X23900081Y-23446425D01*
X23900081Y-23446425D02*
X23909605Y-23484520D01*
X23909605Y-23484520D02*
X23909605Y-23532139D01*
X23909605Y-23532139D02*
X23900081Y-23570235D01*
X23900081Y-23570235D02*
X23890557Y-23589282D01*
X23890557Y-23589282D02*
X23881033Y-23598806D01*
X23881033Y-23598806D02*
X23861986Y-23608330D01*
X23861986Y-23608330D02*
X23842938Y-23608330D01*
X23842938Y-23608330D02*
X23823890Y-23598806D01*
X23823890Y-23598806D02*
X23814367Y-23589282D01*
X23814367Y-23589282D02*
X23804843Y-23570235D01*
X23804843Y-23570235D02*
X23795319Y-23532139D01*
X23795319Y-23532139D02*
X23795319Y-23484520D01*
X23795319Y-23484520D02*
X23804843Y-23446425D01*
X23804843Y-23446425D02*
X23814367Y-23427377D01*
X23814367Y-23427377D02*
X23823890Y-23417854D01*
X23823890Y-23417854D02*
X23842938Y-23408330D01*
X23995319Y-23589282D02*
X24004843Y-23598806D01*
X24004843Y-23598806D02*
X23995319Y-23608330D01*
X23995319Y-23608330D02*
X23985795Y-23598806D01*
X23985795Y-23598806D02*
X23995319Y-23589282D01*
X23995319Y-23589282D02*
X23995319Y-23608330D01*
X24128652Y-23408330D02*
X24147700Y-23408330D01*
X24147700Y-23408330D02*
X24166748Y-23417854D01*
X24166748Y-23417854D02*
X24176271Y-23427377D01*
X24176271Y-23427377D02*
X24185795Y-23446425D01*
X24185795Y-23446425D02*
X24195319Y-23484520D01*
X24195319Y-23484520D02*
X24195319Y-23532139D01*
X24195319Y-23532139D02*
X24185795Y-23570235D01*
X24185795Y-23570235D02*
X24176271Y-23589282D01*
X24176271Y-23589282D02*
X24166748Y-23598806D01*
X24166748Y-23598806D02*
X24147700Y-23608330D01*
X24147700Y-23608330D02*
X24128652Y-23608330D01*
X24128652Y-23608330D02*
X24109605Y-23598806D01*
X24109605Y-23598806D02*
X24100081Y-23589282D01*
X24100081Y-23589282D02*
X24090557Y-23570235D01*
X24090557Y-23570235D02*
X24081033Y-23532139D01*
X24081033Y-23532139D02*
X24081033Y-23484520D01*
X24081033Y-23484520D02*
X24090557Y-23446425D01*
X24090557Y-23446425D02*
X24100081Y-23427377D01*
X24100081Y-23427377D02*
X24109605Y-23417854D01*
X24109605Y-23417854D02*
X24128652Y-23408330D01*
X24261986Y-23408330D02*
X24385795Y-23408330D01*
X24385795Y-23408330D02*
X24319128Y-23484520D01*
X24319128Y-23484520D02*
X24347700Y-23484520D01*
X24347700Y-23484520D02*
X24366748Y-23494044D01*
X24366748Y-23494044D02*
X24376271Y-23503568D01*
X24376271Y-23503568D02*
X24385795Y-23522616D01*
X24385795Y-23522616D02*
X24385795Y-23570235D01*
X24385795Y-23570235D02*
X24376271Y-23589282D01*
X24376271Y-23589282D02*
X24366748Y-23598806D01*
X24366748Y-23598806D02*
X24347700Y-23608330D01*
X24347700Y-23608330D02*
X24290557Y-23608330D01*
X24290557Y-23608330D02*
X24271509Y-23598806D01*
X24271509Y-23598806D02*
X24261986Y-23589282D01*
X24481033Y-23608330D02*
X24519128Y-23608330D01*
X24519128Y-23608330D02*
X24538176Y-23598806D01*
X24538176Y-23598806D02*
X24547700Y-23589282D01*
X24547700Y-23589282D02*
X24566748Y-23560711D01*
X24566748Y-23560711D02*
X24576271Y-23522616D01*
X24576271Y-23522616D02*
X24576271Y-23446425D01*
X24576271Y-23446425D02*
X24566748Y-23427377D01*
X24566748Y-23427377D02*
X24557224Y-23417854D01*
X24557224Y-23417854D02*
X24538176Y-23408330D01*
X24538176Y-23408330D02*
X24500081Y-23408330D01*
X24500081Y-23408330D02*
X24481033Y-23417854D01*
X24481033Y-23417854D02*
X24471509Y-23427377D01*
X24471509Y-23427377D02*
X24461986Y-23446425D01*
X24461986Y-23446425D02*
X24461986Y-23494044D01*
X24461986Y-23494044D02*
X24471509Y-23513092D01*
X24471509Y-23513092D02*
X24481033Y-23522616D01*
X24481033Y-23522616D02*
X24500081Y-23532139D01*
X24500081Y-23532139D02*
X24538176Y-23532139D01*
X24538176Y-23532139D02*
X24557224Y-23522616D01*
X24557224Y-23522616D02*
X24566748Y-23513092D01*
X24566748Y-23513092D02*
X24576271Y-23494044D01*
X24700081Y-23408330D02*
X24719129Y-23408330D01*
X24719129Y-23408330D02*
X24738176Y-23417854D01*
X24738176Y-23417854D02*
X24747700Y-23427377D01*
X24747700Y-23427377D02*
X24757224Y-23446425D01*
X24757224Y-23446425D02*
X24766748Y-23484520D01*
X24766748Y-23484520D02*
X24766748Y-23532139D01*
X24766748Y-23532139D02*
X24757224Y-23570235D01*
X24757224Y-23570235D02*
X24747700Y-23589282D01*
X24747700Y-23589282D02*
X24738176Y-23598806D01*
X24738176Y-23598806D02*
X24719129Y-23608330D01*
X24719129Y-23608330D02*
X24700081Y-23608330D01*
X24700081Y-23608330D02*
X24681033Y-23598806D01*
X24681033Y-23598806D02*
X24671509Y-23589282D01*
X24671509Y-23589282D02*
X24661986Y-23570235D01*
X24661986Y-23570235D02*
X24652462Y-23532139D01*
X24652462Y-23532139D02*
X24652462Y-23484520D01*
X24652462Y-23484520D02*
X24661986Y-23446425D01*
X24661986Y-23446425D02*
X24671509Y-23427377D01*
X24671509Y-23427377D02*
X24681033Y-23417854D01*
X24681033Y-23417854D02*
X24700081Y-23408330D01*
X24842938Y-23408330D02*
X24842938Y-23446425D01*
X24919129Y-23408330D02*
X24919129Y-23446425D01*
X25214367Y-23684520D02*
X25204843Y-23674996D01*
X25204843Y-23674996D02*
X25185795Y-23646425D01*
X25185795Y-23646425D02*
X25176271Y-23627377D01*
X25176271Y-23627377D02*
X25166748Y-23598806D01*
X25166748Y-23598806D02*
X25157224Y-23551187D01*
X25157224Y-23551187D02*
X25157224Y-23513092D01*
X25157224Y-23513092D02*
X25166748Y-23465473D01*
X25166748Y-23465473D02*
X25176271Y-23436901D01*
X25176271Y-23436901D02*
X25185795Y-23417854D01*
X25185795Y-23417854D02*
X25204843Y-23389282D01*
X25204843Y-23389282D02*
X25214367Y-23379758D01*
X25376271Y-23408330D02*
X25338176Y-23408330D01*
X25338176Y-23408330D02*
X25319129Y-23417854D01*
X25319129Y-23417854D02*
X25309605Y-23427377D01*
X25309605Y-23427377D02*
X25290557Y-23455949D01*
X25290557Y-23455949D02*
X25281033Y-23494044D01*
X25281033Y-23494044D02*
X25281033Y-23570235D01*
X25281033Y-23570235D02*
X25290557Y-23589282D01*
X25290557Y-23589282D02*
X25300081Y-23598806D01*
X25300081Y-23598806D02*
X25319129Y-23608330D01*
X25319129Y-23608330D02*
X25357224Y-23608330D01*
X25357224Y-23608330D02*
X25376271Y-23598806D01*
X25376271Y-23598806D02*
X25385795Y-23589282D01*
X25385795Y-23589282D02*
X25395319Y-23570235D01*
X25395319Y-23570235D02*
X25395319Y-23522616D01*
X25395319Y-23522616D02*
X25385795Y-23503568D01*
X25385795Y-23503568D02*
X25376271Y-23494044D01*
X25376271Y-23494044D02*
X25357224Y-23484520D01*
X25357224Y-23484520D02*
X25319129Y-23484520D01*
X25319129Y-23484520D02*
X25300081Y-23494044D01*
X25300081Y-23494044D02*
X25290557Y-23503568D01*
X25290557Y-23503568D02*
X25281033Y-23522616D01*
X25519129Y-23408330D02*
X25538176Y-23408330D01*
X25538176Y-23408330D02*
X25557224Y-23417854D01*
X25557224Y-23417854D02*
X25566748Y-23427377D01*
X25566748Y-23427377D02*
X25576271Y-23446425D01*
X25576271Y-23446425D02*
X25585795Y-23484520D01*
X25585795Y-23484520D02*
X25585795Y-23532139D01*
X25585795Y-23532139D02*
X25576271Y-23570235D01*
X25576271Y-23570235D02*
X25566748Y-23589282D01*
X25566748Y-23589282D02*
X25557224Y-23598806D01*
X25557224Y-23598806D02*
X25538176Y-23608330D01*
X25538176Y-23608330D02*
X25519129Y-23608330D01*
X25519129Y-23608330D02*
X25500081Y-23598806D01*
X25500081Y-23598806D02*
X25490557Y-23589282D01*
X25490557Y-23589282D02*
X25481033Y-23570235D01*
X25481033Y-23570235D02*
X25471510Y-23532139D01*
X25471510Y-23532139D02*
X25471510Y-23484520D01*
X25471510Y-23484520D02*
X25481033Y-23446425D01*
X25481033Y-23446425D02*
X25490557Y-23427377D01*
X25490557Y-23427377D02*
X25500081Y-23417854D01*
X25500081Y-23417854D02*
X25519129Y-23408330D01*
X25823891Y-23608330D02*
X25823891Y-23408330D01*
X25909605Y-23608330D02*
X25909605Y-23503568D01*
X25909605Y-23503568D02*
X25900081Y-23484520D01*
X25900081Y-23484520D02*
X25881033Y-23474996D01*
X25881033Y-23474996D02*
X25852462Y-23474996D01*
X25852462Y-23474996D02*
X25833414Y-23484520D01*
X25833414Y-23484520D02*
X25823891Y-23494044D01*
X26033414Y-23608330D02*
X26014367Y-23598806D01*
X26014367Y-23598806D02*
X26004843Y-23589282D01*
X26004843Y-23589282D02*
X25995319Y-23570235D01*
X25995319Y-23570235D02*
X25995319Y-23513092D01*
X25995319Y-23513092D02*
X26004843Y-23494044D01*
X26004843Y-23494044D02*
X26014367Y-23484520D01*
X26014367Y-23484520D02*
X26033414Y-23474996D01*
X26033414Y-23474996D02*
X26061986Y-23474996D01*
X26061986Y-23474996D02*
X26081033Y-23484520D01*
X26081033Y-23484520D02*
X26090557Y-23494044D01*
X26090557Y-23494044D02*
X26100081Y-23513092D01*
X26100081Y-23513092D02*
X26100081Y-23570235D01*
X26100081Y-23570235D02*
X26090557Y-23589282D01*
X26090557Y-23589282D02*
X26081033Y-23598806D01*
X26081033Y-23598806D02*
X26061986Y-23608330D01*
X26061986Y-23608330D02*
X26033414Y-23608330D01*
X26214367Y-23608330D02*
X26195319Y-23598806D01*
X26195319Y-23598806D02*
X26185795Y-23579758D01*
X26185795Y-23579758D02*
X26185795Y-23408330D01*
X26366748Y-23598806D02*
X26347700Y-23608330D01*
X26347700Y-23608330D02*
X26309605Y-23608330D01*
X26309605Y-23608330D02*
X26290557Y-23598806D01*
X26290557Y-23598806D02*
X26281033Y-23579758D01*
X26281033Y-23579758D02*
X26281033Y-23503568D01*
X26281033Y-23503568D02*
X26290557Y-23484520D01*
X26290557Y-23484520D02*
X26309605Y-23474996D01*
X26309605Y-23474996D02*
X26347700Y-23474996D01*
X26347700Y-23474996D02*
X26366748Y-23484520D01*
X26366748Y-23484520D02*
X26376272Y-23503568D01*
X26376272Y-23503568D02*
X26376272Y-23522616D01*
X26376272Y-23522616D02*
X26281033Y-23541663D01*
X26452462Y-23598806D02*
X26471510Y-23608330D01*
X26471510Y-23608330D02*
X26509605Y-23608330D01*
X26509605Y-23608330D02*
X26528653Y-23598806D01*
X26528653Y-23598806D02*
X26538176Y-23579758D01*
X26538176Y-23579758D02*
X26538176Y-23570235D01*
X26538176Y-23570235D02*
X26528653Y-23551187D01*
X26528653Y-23551187D02*
X26509605Y-23541663D01*
X26509605Y-23541663D02*
X26481033Y-23541663D01*
X26481033Y-23541663D02*
X26461986Y-23532139D01*
X26461986Y-23532139D02*
X26452462Y-23513092D01*
X26452462Y-23513092D02*
X26452462Y-23503568D01*
X26452462Y-23503568D02*
X26461986Y-23484520D01*
X26461986Y-23484520D02*
X26481033Y-23474996D01*
X26481033Y-23474996D02*
X26509605Y-23474996D01*
X26509605Y-23474996D02*
X26528653Y-23484520D01*
X26604843Y-23684520D02*
X26614367Y-23674996D01*
X26614367Y-23674996D02*
X26633414Y-23646425D01*
X26633414Y-23646425D02*
X26642938Y-23627377D01*
X26642938Y-23627377D02*
X26652462Y-23598806D01*
X26652462Y-23598806D02*
X26661986Y-23551187D01*
X26661986Y-23551187D02*
X26661986Y-23513092D01*
X26661986Y-23513092D02*
X26652462Y-23465473D01*
X26652462Y-23465473D02*
X26642938Y-23436901D01*
X26642938Y-23436901D02*
X26633414Y-23417854D01*
X26633414Y-23417854D02*
X26614367Y-23389282D01*
X26614367Y-23389282D02*
X26604843Y-23379758D01*
D13*
X21623309Y-23819462D02*
X21623309Y-23742231D01*
X21546078Y-23742231D01*
X21546078Y-23819462D01*
X21623309Y-23819462D01*
D11*
X22004843Y-23872330D02*
X21890557Y-23872330D01*
X21947700Y-23872330D02*
X21947700Y-23672330D01*
X21947700Y-23672330D02*
X21928652Y-23700901D01*
X21928652Y-23700901D02*
X21909605Y-23719949D01*
X21909605Y-23719949D02*
X21890557Y-23729473D01*
X22090557Y-23853282D02*
X22100081Y-23862806D01*
X22100081Y-23862806D02*
X22090557Y-23872330D01*
X22090557Y-23872330D02*
X22081033Y-23862806D01*
X22081033Y-23862806D02*
X22090557Y-23853282D01*
X22090557Y-23853282D02*
X22090557Y-23872330D01*
X22223890Y-23672330D02*
X22242938Y-23672330D01*
X22242938Y-23672330D02*
X22261986Y-23681854D01*
X22261986Y-23681854D02*
X22271509Y-23691377D01*
X22271509Y-23691377D02*
X22281033Y-23710425D01*
X22281033Y-23710425D02*
X22290557Y-23748520D01*
X22290557Y-23748520D02*
X22290557Y-23796139D01*
X22290557Y-23796139D02*
X22281033Y-23834235D01*
X22281033Y-23834235D02*
X22271509Y-23853282D01*
X22271509Y-23853282D02*
X22261986Y-23862806D01*
X22261986Y-23862806D02*
X22242938Y-23872330D01*
X22242938Y-23872330D02*
X22223890Y-23872330D01*
X22223890Y-23872330D02*
X22204843Y-23862806D01*
X22204843Y-23862806D02*
X22195319Y-23853282D01*
X22195319Y-23853282D02*
X22185795Y-23834235D01*
X22185795Y-23834235D02*
X22176271Y-23796139D01*
X22176271Y-23796139D02*
X22176271Y-23748520D01*
X22176271Y-23748520D02*
X22185795Y-23710425D01*
X22185795Y-23710425D02*
X22195319Y-23691377D01*
X22195319Y-23691377D02*
X22204843Y-23681854D01*
X22204843Y-23681854D02*
X22223890Y-23672330D01*
X22385795Y-23872330D02*
X22423890Y-23872330D01*
X22423890Y-23872330D02*
X22442938Y-23862806D01*
X22442938Y-23862806D02*
X22452462Y-23853282D01*
X22452462Y-23853282D02*
X22471509Y-23824711D01*
X22471509Y-23824711D02*
X22481033Y-23786616D01*
X22481033Y-23786616D02*
X22481033Y-23710425D01*
X22481033Y-23710425D02*
X22471509Y-23691377D01*
X22471509Y-23691377D02*
X22461985Y-23681854D01*
X22461985Y-23681854D02*
X22442938Y-23672330D01*
X22442938Y-23672330D02*
X22404843Y-23672330D01*
X22404843Y-23672330D02*
X22385795Y-23681854D01*
X22385795Y-23681854D02*
X22376271Y-23691377D01*
X22376271Y-23691377D02*
X22366747Y-23710425D01*
X22366747Y-23710425D02*
X22366747Y-23758044D01*
X22366747Y-23758044D02*
X22376271Y-23777092D01*
X22376271Y-23777092D02*
X22385795Y-23786616D01*
X22385795Y-23786616D02*
X22404843Y-23796139D01*
X22404843Y-23796139D02*
X22442938Y-23796139D01*
X22442938Y-23796139D02*
X22461985Y-23786616D01*
X22461985Y-23786616D02*
X22471509Y-23777092D01*
X22471509Y-23777092D02*
X22481033Y-23758044D01*
X22557224Y-23691377D02*
X22566747Y-23681854D01*
X22566747Y-23681854D02*
X22585795Y-23672330D01*
X22585795Y-23672330D02*
X22633414Y-23672330D01*
X22633414Y-23672330D02*
X22652462Y-23681854D01*
X22652462Y-23681854D02*
X22661985Y-23691377D01*
X22661985Y-23691377D02*
X22671509Y-23710425D01*
X22671509Y-23710425D02*
X22671509Y-23729473D01*
X22671509Y-23729473D02*
X22661985Y-23758044D01*
X22661985Y-23758044D02*
X22547700Y-23872330D01*
X22547700Y-23872330D02*
X22671509Y-23872330D01*
X22757224Y-23872330D02*
X22757224Y-23738996D01*
X22757224Y-23758044D02*
X22766747Y-23748520D01*
X22766747Y-23748520D02*
X22785795Y-23738996D01*
X22785795Y-23738996D02*
X22814366Y-23738996D01*
X22814366Y-23738996D02*
X22833414Y-23748520D01*
X22833414Y-23748520D02*
X22842938Y-23767568D01*
X22842938Y-23767568D02*
X22842938Y-23872330D01*
X22842938Y-23767568D02*
X22852462Y-23748520D01*
X22852462Y-23748520D02*
X22871509Y-23738996D01*
X22871509Y-23738996D02*
X22900081Y-23738996D01*
X22900081Y-23738996D02*
X22919128Y-23748520D01*
X22919128Y-23748520D02*
X22928652Y-23767568D01*
X22928652Y-23767568D02*
X22928652Y-23872330D01*
X23023890Y-23872330D02*
X23023890Y-23738996D01*
X23023890Y-23758044D02*
X23033414Y-23748520D01*
X23033414Y-23748520D02*
X23052462Y-23738996D01*
X23052462Y-23738996D02*
X23081033Y-23738996D01*
X23081033Y-23738996D02*
X23100081Y-23748520D01*
X23100081Y-23748520D02*
X23109605Y-23767568D01*
X23109605Y-23767568D02*
X23109605Y-23872330D01*
X23109605Y-23767568D02*
X23119128Y-23748520D01*
X23119128Y-23748520D02*
X23138176Y-23738996D01*
X23138176Y-23738996D02*
X23166747Y-23738996D01*
X23166747Y-23738996D02*
X23185795Y-23748520D01*
X23185795Y-23748520D02*
X23195319Y-23767568D01*
X23195319Y-23767568D02*
X23195319Y-23872330D01*
X23585795Y-23662806D02*
X23414367Y-23919949D01*
X23842938Y-23672330D02*
X23861986Y-23672330D01*
X23861986Y-23672330D02*
X23881033Y-23681854D01*
X23881033Y-23681854D02*
X23890557Y-23691377D01*
X23890557Y-23691377D02*
X23900081Y-23710425D01*
X23900081Y-23710425D02*
X23909605Y-23748520D01*
X23909605Y-23748520D02*
X23909605Y-23796139D01*
X23909605Y-23796139D02*
X23900081Y-23834235D01*
X23900081Y-23834235D02*
X23890557Y-23853282D01*
X23890557Y-23853282D02*
X23881033Y-23862806D01*
X23881033Y-23862806D02*
X23861986Y-23872330D01*
X23861986Y-23872330D02*
X23842938Y-23872330D01*
X23842938Y-23872330D02*
X23823890Y-23862806D01*
X23823890Y-23862806D02*
X23814367Y-23853282D01*
X23814367Y-23853282D02*
X23804843Y-23834235D01*
X23804843Y-23834235D02*
X23795319Y-23796139D01*
X23795319Y-23796139D02*
X23795319Y-23748520D01*
X23795319Y-23748520D02*
X23804843Y-23710425D01*
X23804843Y-23710425D02*
X23814367Y-23691377D01*
X23814367Y-23691377D02*
X23823890Y-23681854D01*
X23823890Y-23681854D02*
X23842938Y-23672330D01*
X23995319Y-23853282D02*
X24004843Y-23862806D01*
X24004843Y-23862806D02*
X23995319Y-23872330D01*
X23995319Y-23872330D02*
X23985795Y-23862806D01*
X23985795Y-23862806D02*
X23995319Y-23853282D01*
X23995319Y-23853282D02*
X23995319Y-23872330D01*
X24128652Y-23672330D02*
X24147700Y-23672330D01*
X24147700Y-23672330D02*
X24166748Y-23681854D01*
X24166748Y-23681854D02*
X24176271Y-23691377D01*
X24176271Y-23691377D02*
X24185795Y-23710425D01*
X24185795Y-23710425D02*
X24195319Y-23748520D01*
X24195319Y-23748520D02*
X24195319Y-23796139D01*
X24195319Y-23796139D02*
X24185795Y-23834235D01*
X24185795Y-23834235D02*
X24176271Y-23853282D01*
X24176271Y-23853282D02*
X24166748Y-23862806D01*
X24166748Y-23862806D02*
X24147700Y-23872330D01*
X24147700Y-23872330D02*
X24128652Y-23872330D01*
X24128652Y-23872330D02*
X24109605Y-23862806D01*
X24109605Y-23862806D02*
X24100081Y-23853282D01*
X24100081Y-23853282D02*
X24090557Y-23834235D01*
X24090557Y-23834235D02*
X24081033Y-23796139D01*
X24081033Y-23796139D02*
X24081033Y-23748520D01*
X24081033Y-23748520D02*
X24090557Y-23710425D01*
X24090557Y-23710425D02*
X24100081Y-23691377D01*
X24100081Y-23691377D02*
X24109605Y-23681854D01*
X24109605Y-23681854D02*
X24128652Y-23672330D01*
X24366748Y-23738996D02*
X24366748Y-23872330D01*
X24319128Y-23662806D02*
X24271509Y-23805663D01*
X24271509Y-23805663D02*
X24395319Y-23805663D01*
X24452462Y-23672330D02*
X24576271Y-23672330D01*
X24576271Y-23672330D02*
X24509605Y-23748520D01*
X24509605Y-23748520D02*
X24538176Y-23748520D01*
X24538176Y-23748520D02*
X24557224Y-23758044D01*
X24557224Y-23758044D02*
X24566748Y-23767568D01*
X24566748Y-23767568D02*
X24576271Y-23786616D01*
X24576271Y-23786616D02*
X24576271Y-23834235D01*
X24576271Y-23834235D02*
X24566748Y-23853282D01*
X24566748Y-23853282D02*
X24557224Y-23862806D01*
X24557224Y-23862806D02*
X24538176Y-23872330D01*
X24538176Y-23872330D02*
X24481033Y-23872330D01*
X24481033Y-23872330D02*
X24461986Y-23862806D01*
X24461986Y-23862806D02*
X24452462Y-23853282D01*
X24700081Y-23672330D02*
X24719129Y-23672330D01*
X24719129Y-23672330D02*
X24738176Y-23681854D01*
X24738176Y-23681854D02*
X24747700Y-23691377D01*
X24747700Y-23691377D02*
X24757224Y-23710425D01*
X24757224Y-23710425D02*
X24766748Y-23748520D01*
X24766748Y-23748520D02*
X24766748Y-23796139D01*
X24766748Y-23796139D02*
X24757224Y-23834235D01*
X24757224Y-23834235D02*
X24747700Y-23853282D01*
X24747700Y-23853282D02*
X24738176Y-23862806D01*
X24738176Y-23862806D02*
X24719129Y-23872330D01*
X24719129Y-23872330D02*
X24700081Y-23872330D01*
X24700081Y-23872330D02*
X24681033Y-23862806D01*
X24681033Y-23862806D02*
X24671509Y-23853282D01*
X24671509Y-23853282D02*
X24661986Y-23834235D01*
X24661986Y-23834235D02*
X24652462Y-23796139D01*
X24652462Y-23796139D02*
X24652462Y-23748520D01*
X24652462Y-23748520D02*
X24661986Y-23710425D01*
X24661986Y-23710425D02*
X24671509Y-23691377D01*
X24671509Y-23691377D02*
X24681033Y-23681854D01*
X24681033Y-23681854D02*
X24700081Y-23672330D01*
X24842938Y-23672330D02*
X24842938Y-23710425D01*
X24919129Y-23672330D02*
X24919129Y-23710425D01*
X25214367Y-23948520D02*
X25204843Y-23938996D01*
X25204843Y-23938996D02*
X25185795Y-23910425D01*
X25185795Y-23910425D02*
X25176271Y-23891377D01*
X25176271Y-23891377D02*
X25166748Y-23862806D01*
X25166748Y-23862806D02*
X25157224Y-23815187D01*
X25157224Y-23815187D02*
X25157224Y-23777092D01*
X25157224Y-23777092D02*
X25166748Y-23729473D01*
X25166748Y-23729473D02*
X25176271Y-23700901D01*
X25176271Y-23700901D02*
X25185795Y-23681854D01*
X25185795Y-23681854D02*
X25204843Y-23653282D01*
X25204843Y-23653282D02*
X25214367Y-23643758D01*
X25281033Y-23691377D02*
X25290557Y-23681854D01*
X25290557Y-23681854D02*
X25309605Y-23672330D01*
X25309605Y-23672330D02*
X25357224Y-23672330D01*
X25357224Y-23672330D02*
X25376271Y-23681854D01*
X25376271Y-23681854D02*
X25385795Y-23691377D01*
X25385795Y-23691377D02*
X25395319Y-23710425D01*
X25395319Y-23710425D02*
X25395319Y-23729473D01*
X25395319Y-23729473D02*
X25385795Y-23758044D01*
X25385795Y-23758044D02*
X25271510Y-23872330D01*
X25271510Y-23872330D02*
X25395319Y-23872330D01*
X25461986Y-23672330D02*
X25595319Y-23672330D01*
X25595319Y-23672330D02*
X25509605Y-23872330D01*
X25823891Y-23872330D02*
X25823891Y-23672330D01*
X25909605Y-23872330D02*
X25909605Y-23767568D01*
X25909605Y-23767568D02*
X25900081Y-23748520D01*
X25900081Y-23748520D02*
X25881033Y-23738996D01*
X25881033Y-23738996D02*
X25852462Y-23738996D01*
X25852462Y-23738996D02*
X25833414Y-23748520D01*
X25833414Y-23748520D02*
X25823891Y-23758044D01*
X26033414Y-23872330D02*
X26014367Y-23862806D01*
X26014367Y-23862806D02*
X26004843Y-23853282D01*
X26004843Y-23853282D02*
X25995319Y-23834235D01*
X25995319Y-23834235D02*
X25995319Y-23777092D01*
X25995319Y-23777092D02*
X26004843Y-23758044D01*
X26004843Y-23758044D02*
X26014367Y-23748520D01*
X26014367Y-23748520D02*
X26033414Y-23738996D01*
X26033414Y-23738996D02*
X26061986Y-23738996D01*
X26061986Y-23738996D02*
X26081033Y-23748520D01*
X26081033Y-23748520D02*
X26090557Y-23758044D01*
X26090557Y-23758044D02*
X26100081Y-23777092D01*
X26100081Y-23777092D02*
X26100081Y-23834235D01*
X26100081Y-23834235D02*
X26090557Y-23853282D01*
X26090557Y-23853282D02*
X26081033Y-23862806D01*
X26081033Y-23862806D02*
X26061986Y-23872330D01*
X26061986Y-23872330D02*
X26033414Y-23872330D01*
X26214367Y-23872330D02*
X26195319Y-23862806D01*
X26195319Y-23862806D02*
X26185795Y-23843758D01*
X26185795Y-23843758D02*
X26185795Y-23672330D01*
X26366748Y-23862806D02*
X26347700Y-23872330D01*
X26347700Y-23872330D02*
X26309605Y-23872330D01*
X26309605Y-23872330D02*
X26290557Y-23862806D01*
X26290557Y-23862806D02*
X26281033Y-23843758D01*
X26281033Y-23843758D02*
X26281033Y-23767568D01*
X26281033Y-23767568D02*
X26290557Y-23748520D01*
X26290557Y-23748520D02*
X26309605Y-23738996D01*
X26309605Y-23738996D02*
X26347700Y-23738996D01*
X26347700Y-23738996D02*
X26366748Y-23748520D01*
X26366748Y-23748520D02*
X26376272Y-23767568D01*
X26376272Y-23767568D02*
X26376272Y-23786616D01*
X26376272Y-23786616D02*
X26281033Y-23805663D01*
X26452462Y-23862806D02*
X26471510Y-23872330D01*
X26471510Y-23872330D02*
X26509605Y-23872330D01*
X26509605Y-23872330D02*
X26528653Y-23862806D01*
X26528653Y-23862806D02*
X26538176Y-23843758D01*
X26538176Y-23843758D02*
X26538176Y-23834235D01*
X26538176Y-23834235D02*
X26528653Y-23815187D01*
X26528653Y-23815187D02*
X26509605Y-23805663D01*
X26509605Y-23805663D02*
X26481033Y-23805663D01*
X26481033Y-23805663D02*
X26461986Y-23796139D01*
X26461986Y-23796139D02*
X26452462Y-23777092D01*
X26452462Y-23777092D02*
X26452462Y-23767568D01*
X26452462Y-23767568D02*
X26461986Y-23748520D01*
X26461986Y-23748520D02*
X26481033Y-23738996D01*
X26481033Y-23738996D02*
X26509605Y-23738996D01*
X26509605Y-23738996D02*
X26528653Y-23748520D01*
X26604843Y-23948520D02*
X26614367Y-23938996D01*
X26614367Y-23938996D02*
X26633414Y-23910425D01*
X26633414Y-23910425D02*
X26642938Y-23891377D01*
X26642938Y-23891377D02*
X26652462Y-23862806D01*
X26652462Y-23862806D02*
X26661986Y-23815187D01*
X26661986Y-23815187D02*
X26661986Y-23777092D01*
X26661986Y-23777092D02*
X26652462Y-23729473D01*
X26652462Y-23729473D02*
X26642938Y-23700901D01*
X26642938Y-23700901D02*
X26633414Y-23681854D01*
X26633414Y-23681854D02*
X26614367Y-23653282D01*
X26614367Y-23653282D02*
X26604843Y-23643758D01*
X21539304Y-24144846D02*
X21639304Y-24044846D01*
X21539304Y-23944846D01*
X21439304Y-24044846D01*
X21539304Y-24144846D01*
X21890557Y-23955377D02*
X21900081Y-23945854D01*
X21900081Y-23945854D02*
X21919128Y-23936330D01*
X21919128Y-23936330D02*
X21966747Y-23936330D01*
X21966747Y-23936330D02*
X21985795Y-23945854D01*
X21985795Y-23945854D02*
X21995319Y-23955377D01*
X21995319Y-23955377D02*
X22004843Y-23974425D01*
X22004843Y-23974425D02*
X22004843Y-23993473D01*
X22004843Y-23993473D02*
X21995319Y-24022044D01*
X21995319Y-24022044D02*
X21881033Y-24136330D01*
X21881033Y-24136330D02*
X22004843Y-24136330D01*
X22090557Y-24117282D02*
X22100081Y-24126806D01*
X22100081Y-24126806D02*
X22090557Y-24136330D01*
X22090557Y-24136330D02*
X22081033Y-24126806D01*
X22081033Y-24126806D02*
X22090557Y-24117282D01*
X22090557Y-24117282D02*
X22090557Y-24136330D01*
X22176271Y-23955377D02*
X22185795Y-23945854D01*
X22185795Y-23945854D02*
X22204843Y-23936330D01*
X22204843Y-23936330D02*
X22252462Y-23936330D01*
X22252462Y-23936330D02*
X22271509Y-23945854D01*
X22271509Y-23945854D02*
X22281033Y-23955377D01*
X22281033Y-23955377D02*
X22290557Y-23974425D01*
X22290557Y-23974425D02*
X22290557Y-23993473D01*
X22290557Y-23993473D02*
X22281033Y-24022044D01*
X22281033Y-24022044D02*
X22166747Y-24136330D01*
X22166747Y-24136330D02*
X22290557Y-24136330D01*
X22414366Y-23936330D02*
X22433414Y-23936330D01*
X22433414Y-23936330D02*
X22452462Y-23945854D01*
X22452462Y-23945854D02*
X22461985Y-23955377D01*
X22461985Y-23955377D02*
X22471509Y-23974425D01*
X22471509Y-23974425D02*
X22481033Y-24012520D01*
X22481033Y-24012520D02*
X22481033Y-24060139D01*
X22481033Y-24060139D02*
X22471509Y-24098235D01*
X22471509Y-24098235D02*
X22461985Y-24117282D01*
X22461985Y-24117282D02*
X22452462Y-24126806D01*
X22452462Y-24126806D02*
X22433414Y-24136330D01*
X22433414Y-24136330D02*
X22414366Y-24136330D01*
X22414366Y-24136330D02*
X22395319Y-24126806D01*
X22395319Y-24126806D02*
X22385795Y-24117282D01*
X22385795Y-24117282D02*
X22376271Y-24098235D01*
X22376271Y-24098235D02*
X22366747Y-24060139D01*
X22366747Y-24060139D02*
X22366747Y-24012520D01*
X22366747Y-24012520D02*
X22376271Y-23974425D01*
X22376271Y-23974425D02*
X22385795Y-23955377D01*
X22385795Y-23955377D02*
X22395319Y-23945854D01*
X22395319Y-23945854D02*
X22414366Y-23936330D01*
X22604843Y-23936330D02*
X22623890Y-23936330D01*
X22623890Y-23936330D02*
X22642938Y-23945854D01*
X22642938Y-23945854D02*
X22652462Y-23955377D01*
X22652462Y-23955377D02*
X22661985Y-23974425D01*
X22661985Y-23974425D02*
X22671509Y-24012520D01*
X22671509Y-24012520D02*
X22671509Y-24060139D01*
X22671509Y-24060139D02*
X22661985Y-24098235D01*
X22661985Y-24098235D02*
X22652462Y-24117282D01*
X22652462Y-24117282D02*
X22642938Y-24126806D01*
X22642938Y-24126806D02*
X22623890Y-24136330D01*
X22623890Y-24136330D02*
X22604843Y-24136330D01*
X22604843Y-24136330D02*
X22585795Y-24126806D01*
X22585795Y-24126806D02*
X22576271Y-24117282D01*
X22576271Y-24117282D02*
X22566747Y-24098235D01*
X22566747Y-24098235D02*
X22557224Y-24060139D01*
X22557224Y-24060139D02*
X22557224Y-24012520D01*
X22557224Y-24012520D02*
X22566747Y-23974425D01*
X22566747Y-23974425D02*
X22576271Y-23955377D01*
X22576271Y-23955377D02*
X22585795Y-23945854D01*
X22585795Y-23945854D02*
X22604843Y-23936330D01*
X22757224Y-24136330D02*
X22757224Y-24002996D01*
X22757224Y-24022044D02*
X22766747Y-24012520D01*
X22766747Y-24012520D02*
X22785795Y-24002996D01*
X22785795Y-24002996D02*
X22814366Y-24002996D01*
X22814366Y-24002996D02*
X22833414Y-24012520D01*
X22833414Y-24012520D02*
X22842938Y-24031568D01*
X22842938Y-24031568D02*
X22842938Y-24136330D01*
X22842938Y-24031568D02*
X22852462Y-24012520D01*
X22852462Y-24012520D02*
X22871509Y-24002996D01*
X22871509Y-24002996D02*
X22900081Y-24002996D01*
X22900081Y-24002996D02*
X22919128Y-24012520D01*
X22919128Y-24012520D02*
X22928652Y-24031568D01*
X22928652Y-24031568D02*
X22928652Y-24136330D01*
X23023890Y-24136330D02*
X23023890Y-24002996D01*
X23023890Y-24022044D02*
X23033414Y-24012520D01*
X23033414Y-24012520D02*
X23052462Y-24002996D01*
X23052462Y-24002996D02*
X23081033Y-24002996D01*
X23081033Y-24002996D02*
X23100081Y-24012520D01*
X23100081Y-24012520D02*
X23109605Y-24031568D01*
X23109605Y-24031568D02*
X23109605Y-24136330D01*
X23109605Y-24031568D02*
X23119128Y-24012520D01*
X23119128Y-24012520D02*
X23138176Y-24002996D01*
X23138176Y-24002996D02*
X23166747Y-24002996D01*
X23166747Y-24002996D02*
X23185795Y-24012520D01*
X23185795Y-24012520D02*
X23195319Y-24031568D01*
X23195319Y-24031568D02*
X23195319Y-24136330D01*
X23585795Y-23926806D02*
X23414367Y-24183949D01*
X23842938Y-23936330D02*
X23861986Y-23936330D01*
X23861986Y-23936330D02*
X23881033Y-23945854D01*
X23881033Y-23945854D02*
X23890557Y-23955377D01*
X23890557Y-23955377D02*
X23900081Y-23974425D01*
X23900081Y-23974425D02*
X23909605Y-24012520D01*
X23909605Y-24012520D02*
X23909605Y-24060139D01*
X23909605Y-24060139D02*
X23900081Y-24098235D01*
X23900081Y-24098235D02*
X23890557Y-24117282D01*
X23890557Y-24117282D02*
X23881033Y-24126806D01*
X23881033Y-24126806D02*
X23861986Y-24136330D01*
X23861986Y-24136330D02*
X23842938Y-24136330D01*
X23842938Y-24136330D02*
X23823890Y-24126806D01*
X23823890Y-24126806D02*
X23814367Y-24117282D01*
X23814367Y-24117282D02*
X23804843Y-24098235D01*
X23804843Y-24098235D02*
X23795319Y-24060139D01*
X23795319Y-24060139D02*
X23795319Y-24012520D01*
X23795319Y-24012520D02*
X23804843Y-23974425D01*
X23804843Y-23974425D02*
X23814367Y-23955377D01*
X23814367Y-23955377D02*
X23823890Y-23945854D01*
X23823890Y-23945854D02*
X23842938Y-23936330D01*
X23995319Y-24117282D02*
X24004843Y-24126806D01*
X24004843Y-24126806D02*
X23995319Y-24136330D01*
X23995319Y-24136330D02*
X23985795Y-24126806D01*
X23985795Y-24126806D02*
X23995319Y-24117282D01*
X23995319Y-24117282D02*
X23995319Y-24136330D01*
X24128652Y-23936330D02*
X24147700Y-23936330D01*
X24147700Y-23936330D02*
X24166748Y-23945854D01*
X24166748Y-23945854D02*
X24176271Y-23955377D01*
X24176271Y-23955377D02*
X24185795Y-23974425D01*
X24185795Y-23974425D02*
X24195319Y-24012520D01*
X24195319Y-24012520D02*
X24195319Y-24060139D01*
X24195319Y-24060139D02*
X24185795Y-24098235D01*
X24185795Y-24098235D02*
X24176271Y-24117282D01*
X24176271Y-24117282D02*
X24166748Y-24126806D01*
X24166748Y-24126806D02*
X24147700Y-24136330D01*
X24147700Y-24136330D02*
X24128652Y-24136330D01*
X24128652Y-24136330D02*
X24109605Y-24126806D01*
X24109605Y-24126806D02*
X24100081Y-24117282D01*
X24100081Y-24117282D02*
X24090557Y-24098235D01*
X24090557Y-24098235D02*
X24081033Y-24060139D01*
X24081033Y-24060139D02*
X24081033Y-24012520D01*
X24081033Y-24012520D02*
X24090557Y-23974425D01*
X24090557Y-23974425D02*
X24100081Y-23955377D01*
X24100081Y-23955377D02*
X24109605Y-23945854D01*
X24109605Y-23945854D02*
X24128652Y-23936330D01*
X24309605Y-24022044D02*
X24290557Y-24012520D01*
X24290557Y-24012520D02*
X24281033Y-24002996D01*
X24281033Y-24002996D02*
X24271509Y-23983949D01*
X24271509Y-23983949D02*
X24271509Y-23974425D01*
X24271509Y-23974425D02*
X24281033Y-23955377D01*
X24281033Y-23955377D02*
X24290557Y-23945854D01*
X24290557Y-23945854D02*
X24309605Y-23936330D01*
X24309605Y-23936330D02*
X24347700Y-23936330D01*
X24347700Y-23936330D02*
X24366748Y-23945854D01*
X24366748Y-23945854D02*
X24376271Y-23955377D01*
X24376271Y-23955377D02*
X24385795Y-23974425D01*
X24385795Y-23974425D02*
X24385795Y-23983949D01*
X24385795Y-23983949D02*
X24376271Y-24002996D01*
X24376271Y-24002996D02*
X24366748Y-24012520D01*
X24366748Y-24012520D02*
X24347700Y-24022044D01*
X24347700Y-24022044D02*
X24309605Y-24022044D01*
X24309605Y-24022044D02*
X24290557Y-24031568D01*
X24290557Y-24031568D02*
X24281033Y-24041092D01*
X24281033Y-24041092D02*
X24271509Y-24060139D01*
X24271509Y-24060139D02*
X24271509Y-24098235D01*
X24271509Y-24098235D02*
X24281033Y-24117282D01*
X24281033Y-24117282D02*
X24290557Y-24126806D01*
X24290557Y-24126806D02*
X24309605Y-24136330D01*
X24309605Y-24136330D02*
X24347700Y-24136330D01*
X24347700Y-24136330D02*
X24366748Y-24126806D01*
X24366748Y-24126806D02*
X24376271Y-24117282D01*
X24376271Y-24117282D02*
X24385795Y-24098235D01*
X24385795Y-24098235D02*
X24385795Y-24060139D01*
X24385795Y-24060139D02*
X24376271Y-24041092D01*
X24376271Y-24041092D02*
X24366748Y-24031568D01*
X24366748Y-24031568D02*
X24347700Y-24022044D01*
X24557224Y-23936330D02*
X24519128Y-23936330D01*
X24519128Y-23936330D02*
X24500081Y-23945854D01*
X24500081Y-23945854D02*
X24490557Y-23955377D01*
X24490557Y-23955377D02*
X24471509Y-23983949D01*
X24471509Y-23983949D02*
X24461986Y-24022044D01*
X24461986Y-24022044D02*
X24461986Y-24098235D01*
X24461986Y-24098235D02*
X24471509Y-24117282D01*
X24471509Y-24117282D02*
X24481033Y-24126806D01*
X24481033Y-24126806D02*
X24500081Y-24136330D01*
X24500081Y-24136330D02*
X24538176Y-24136330D01*
X24538176Y-24136330D02*
X24557224Y-24126806D01*
X24557224Y-24126806D02*
X24566748Y-24117282D01*
X24566748Y-24117282D02*
X24576271Y-24098235D01*
X24576271Y-24098235D02*
X24576271Y-24050616D01*
X24576271Y-24050616D02*
X24566748Y-24031568D01*
X24566748Y-24031568D02*
X24557224Y-24022044D01*
X24557224Y-24022044D02*
X24538176Y-24012520D01*
X24538176Y-24012520D02*
X24500081Y-24012520D01*
X24500081Y-24012520D02*
X24481033Y-24022044D01*
X24481033Y-24022044D02*
X24471509Y-24031568D01*
X24471509Y-24031568D02*
X24461986Y-24050616D01*
X24747700Y-23936330D02*
X24709605Y-23936330D01*
X24709605Y-23936330D02*
X24690557Y-23945854D01*
X24690557Y-23945854D02*
X24681033Y-23955377D01*
X24681033Y-23955377D02*
X24661986Y-23983949D01*
X24661986Y-23983949D02*
X24652462Y-24022044D01*
X24652462Y-24022044D02*
X24652462Y-24098235D01*
X24652462Y-24098235D02*
X24661986Y-24117282D01*
X24661986Y-24117282D02*
X24671509Y-24126806D01*
X24671509Y-24126806D02*
X24690557Y-24136330D01*
X24690557Y-24136330D02*
X24728652Y-24136330D01*
X24728652Y-24136330D02*
X24747700Y-24126806D01*
X24747700Y-24126806D02*
X24757224Y-24117282D01*
X24757224Y-24117282D02*
X24766748Y-24098235D01*
X24766748Y-24098235D02*
X24766748Y-24050616D01*
X24766748Y-24050616D02*
X24757224Y-24031568D01*
X24757224Y-24031568D02*
X24747700Y-24022044D01*
X24747700Y-24022044D02*
X24728652Y-24012520D01*
X24728652Y-24012520D02*
X24690557Y-24012520D01*
X24690557Y-24012520D02*
X24671509Y-24022044D01*
X24671509Y-24022044D02*
X24661986Y-24031568D01*
X24661986Y-24031568D02*
X24652462Y-24050616D01*
X24842938Y-23936330D02*
X24842938Y-23974425D01*
X24919129Y-23936330D02*
X24919129Y-23974425D01*
X25214367Y-24212520D02*
X25204843Y-24202996D01*
X25204843Y-24202996D02*
X25185795Y-24174425D01*
X25185795Y-24174425D02*
X25176271Y-24155377D01*
X25176271Y-24155377D02*
X25166748Y-24126806D01*
X25166748Y-24126806D02*
X25157224Y-24079187D01*
X25157224Y-24079187D02*
X25157224Y-24041092D01*
X25157224Y-24041092D02*
X25166748Y-23993473D01*
X25166748Y-23993473D02*
X25176271Y-23964901D01*
X25176271Y-23964901D02*
X25185795Y-23945854D01*
X25185795Y-23945854D02*
X25204843Y-23917282D01*
X25204843Y-23917282D02*
X25214367Y-23907758D01*
X25385795Y-23936330D02*
X25290557Y-23936330D01*
X25290557Y-23936330D02*
X25281033Y-24031568D01*
X25281033Y-24031568D02*
X25290557Y-24022044D01*
X25290557Y-24022044D02*
X25309605Y-24012520D01*
X25309605Y-24012520D02*
X25357224Y-24012520D01*
X25357224Y-24012520D02*
X25376271Y-24022044D01*
X25376271Y-24022044D02*
X25385795Y-24031568D01*
X25385795Y-24031568D02*
X25395319Y-24050616D01*
X25395319Y-24050616D02*
X25395319Y-24098235D01*
X25395319Y-24098235D02*
X25385795Y-24117282D01*
X25385795Y-24117282D02*
X25376271Y-24126806D01*
X25376271Y-24126806D02*
X25357224Y-24136330D01*
X25357224Y-24136330D02*
X25309605Y-24136330D01*
X25309605Y-24136330D02*
X25290557Y-24126806D01*
X25290557Y-24126806D02*
X25281033Y-24117282D01*
X25633414Y-24136330D02*
X25633414Y-23936330D01*
X25719129Y-24136330D02*
X25719129Y-24031568D01*
X25719129Y-24031568D02*
X25709605Y-24012520D01*
X25709605Y-24012520D02*
X25690557Y-24002996D01*
X25690557Y-24002996D02*
X25661986Y-24002996D01*
X25661986Y-24002996D02*
X25642938Y-24012520D01*
X25642938Y-24012520D02*
X25633414Y-24022044D01*
X25842938Y-24136330D02*
X25823891Y-24126806D01*
X25823891Y-24126806D02*
X25814367Y-24117282D01*
X25814367Y-24117282D02*
X25804843Y-24098235D01*
X25804843Y-24098235D02*
X25804843Y-24041092D01*
X25804843Y-24041092D02*
X25814367Y-24022044D01*
X25814367Y-24022044D02*
X25823891Y-24012520D01*
X25823891Y-24012520D02*
X25842938Y-24002996D01*
X25842938Y-24002996D02*
X25871510Y-24002996D01*
X25871510Y-24002996D02*
X25890557Y-24012520D01*
X25890557Y-24012520D02*
X25900081Y-24022044D01*
X25900081Y-24022044D02*
X25909605Y-24041092D01*
X25909605Y-24041092D02*
X25909605Y-24098235D01*
X25909605Y-24098235D02*
X25900081Y-24117282D01*
X25900081Y-24117282D02*
X25890557Y-24126806D01*
X25890557Y-24126806D02*
X25871510Y-24136330D01*
X25871510Y-24136330D02*
X25842938Y-24136330D01*
X26023891Y-24136330D02*
X26004843Y-24126806D01*
X26004843Y-24126806D02*
X25995319Y-24107758D01*
X25995319Y-24107758D02*
X25995319Y-23936330D01*
X26176272Y-24126806D02*
X26157224Y-24136330D01*
X26157224Y-24136330D02*
X26119129Y-24136330D01*
X26119129Y-24136330D02*
X26100081Y-24126806D01*
X26100081Y-24126806D02*
X26090557Y-24107758D01*
X26090557Y-24107758D02*
X26090557Y-24031568D01*
X26090557Y-24031568D02*
X26100081Y-24012520D01*
X26100081Y-24012520D02*
X26119129Y-24002996D01*
X26119129Y-24002996D02*
X26157224Y-24002996D01*
X26157224Y-24002996D02*
X26176272Y-24012520D01*
X26176272Y-24012520D02*
X26185795Y-24031568D01*
X26185795Y-24031568D02*
X26185795Y-24050616D01*
X26185795Y-24050616D02*
X26090557Y-24069663D01*
X26261986Y-24126806D02*
X26281033Y-24136330D01*
X26281033Y-24136330D02*
X26319129Y-24136330D01*
X26319129Y-24136330D02*
X26338176Y-24126806D01*
X26338176Y-24126806D02*
X26347700Y-24107758D01*
X26347700Y-24107758D02*
X26347700Y-24098235D01*
X26347700Y-24098235D02*
X26338176Y-24079187D01*
X26338176Y-24079187D02*
X26319129Y-24069663D01*
X26319129Y-24069663D02*
X26290557Y-24069663D01*
X26290557Y-24069663D02*
X26271510Y-24060139D01*
X26271510Y-24060139D02*
X26261986Y-24041092D01*
X26261986Y-24041092D02*
X26261986Y-24031568D01*
X26261986Y-24031568D02*
X26271510Y-24012520D01*
X26271510Y-24012520D02*
X26290557Y-24002996D01*
X26290557Y-24002996D02*
X26319129Y-24002996D01*
X26319129Y-24002996D02*
X26338176Y-24012520D01*
X26414367Y-24212520D02*
X26423891Y-24202996D01*
X26423891Y-24202996D02*
X26442938Y-24174425D01*
X26442938Y-24174425D02*
X26452462Y-24155377D01*
X26452462Y-24155377D02*
X26461986Y-24126806D01*
X26461986Y-24126806D02*
X26471510Y-24079187D01*
X26471510Y-24079187D02*
X26471510Y-24041092D01*
X26471510Y-24041092D02*
X26461986Y-23993473D01*
X26461986Y-23993473D02*
X26452462Y-23964901D01*
X26452462Y-23964901D02*
X26442938Y-23945854D01*
X26442938Y-23945854D02*
X26423891Y-23917282D01*
X26423891Y-23917282D02*
X26414367Y-23907758D01*
M02*
