%TF.GenerationSoftware,KiCad,Pcbnew,8.0.4*%
%TF.CreationDate,2024-08-23T21:58:39-04:00*%
%TF.ProjectId,right,72696768-742e-46b6-9963-61645f706362,v1.0.0*%
%TF.SameCoordinates,Original*%
%TF.FileFunction,Paste,Bot*%
%TF.FilePolarity,Positive*%
%FSLAX46Y46*%
G04 Gerber Fmt 4.6, Leading zero omitted, Abs format (unit mm)*
G04 Created by KiCad (PCBNEW 8.0.4) date 2024-08-23 21:58:39*
%MOMM*%
%LPD*%
G01*
G04 APERTURE LIST*
G04 Aperture macros list*
%AMRotRect*
0 Rectangle, with rotation*
0 The origin of the aperture is its center*
0 $1 length*
0 $2 width*
0 $3 Rotation angle, in degrees counterclockwise*
0 Add horizontal line*
21,1,$1,$2,0,0,$3*%
G04 Aperture macros list end*
%ADD10RotRect,0.900000X0.900000X109.000000*%
%ADD11RotRect,0.900000X1.250000X109.000000*%
%ADD12RotRect,2.600000X2.600000X182.000000*%
%ADD13RotRect,0.900000X1.200000X1.000000*%
%ADD14RotRect,0.900000X1.200000X3.000000*%
%ADD15RotRect,0.900000X1.200000X4.000000*%
%ADD16RotRect,2.600000X2.600000X184.000000*%
%ADD17RotRect,2.600000X2.600000X183.000000*%
%ADD18R,0.900000X1.200000*%
%ADD19RotRect,0.900000X1.200000X2.000000*%
%ADD20RotRect,0.900000X1.200000X19.000000*%
%ADD21R,2.600000X2.600000*%
%ADD22RotRect,2.600000X2.600000X199.000000*%
%ADD23RotRect,2.600000X2.600000X181.000000*%
%ADD24RotRect,1.550000X1.000000X109.000000*%
G04 APERTURE END LIST*
D10*
%TO.C,T1*%
X223529671Y-163874580D03*
X225609812Y-163158330D03*
X221120466Y-156877742D03*
X223200607Y-156161492D03*
D11*
X226059618Y-161469899D03*
X225082914Y-158633343D03*
X224594562Y-157215065D03*
%TD*%
D12*
%TO.C,S13*%
X313923827Y-159187434D03*
X302304084Y-157391863D03*
%TD*%
D13*
%TO.C,D10*%
X327772873Y-114041133D03*
X331072371Y-113983541D03*
%TD*%
D14*
%TO.C,D16*%
X290976205Y-190086674D03*
X294271683Y-189913966D03*
%TD*%
D15*
%TO.C,D21*%
X270853206Y-177154559D03*
X274145168Y-176924363D03*
%TD*%
%TO.C,D25*%
X251899489Y-178479932D03*
X255191451Y-178249736D03*
%TD*%
D14*
%TO.C,D17*%
X289981822Y-171112713D03*
X293277300Y-170940005D03*
%TD*%
D13*
%TO.C,D6*%
X329099256Y-190029558D03*
X332398754Y-189971966D03*
%TD*%
D16*
%TO.C,S23*%
X273879296Y-149826902D03*
X262203967Y-148437948D03*
%TD*%
D17*
%TO.C,S19*%
X293484385Y-143842029D03*
X281835074Y-142249525D03*
%TD*%
D18*
%TO.C,D4*%
X348186267Y-138000000D03*
X351486267Y-138000000D03*
%TD*%
D19*
%TO.C,D15*%
X307293497Y-110439132D03*
X310591487Y-110323964D03*
%TD*%
D20*
%TO.C,D29*%
X263214153Y-200341337D03*
X266334365Y-199266963D03*
%TD*%
D21*
%TO.C,S3*%
X353111267Y-167950000D03*
X341561267Y-165750000D03*
%TD*%
D20*
%TO.C,D30*%
X245249300Y-206527132D03*
X248369512Y-205452758D03*
%TD*%
D22*
%TO.C,S29*%
X271435803Y-209091343D03*
X259798813Y-210771514D03*
%TD*%
D23*
%TO.C,S10*%
X332888227Y-124903512D03*
X321301591Y-122905423D03*
%TD*%
D21*
%TO.C,S1*%
X353111267Y-205950000D03*
X341561267Y-203750000D03*
%TD*%
D16*
%TO.C,S28*%
X253600206Y-132198558D03*
X241924877Y-130809604D03*
%TD*%
D14*
%TO.C,D20*%
X286998672Y-114190829D03*
X290294150Y-114018121D03*
%TD*%
%TO.C,D18*%
X288987439Y-152138752D03*
X292282917Y-151966044D03*
%TD*%
D15*
%TO.C,D27*%
X249248743Y-140572498D03*
X252540705Y-140342302D03*
%TD*%
%TO.C,D24*%
X266877087Y-120293408D03*
X270169049Y-120063212D03*
%TD*%
D19*
%TO.C,D11*%
X309945859Y-186392835D03*
X313243849Y-186277667D03*
%TD*%
%TO.C,D14*%
X307956587Y-129427558D03*
X311254577Y-129312390D03*
%TD*%
D17*
%TO.C,S17*%
X295473152Y-181789952D03*
X283823841Y-180197448D03*
%TD*%
D16*
%TO.C,S22*%
X275204669Y-168780619D03*
X263529340Y-167391665D03*
%TD*%
D13*
%TO.C,D8*%
X328436064Y-152035345D03*
X331735562Y-151977753D03*
%TD*%
D18*
%TO.C,D5*%
X348186267Y-119000000D03*
X351486267Y-119000000D03*
%TD*%
%TO.C,D1*%
X348186267Y-195000000D03*
X351486267Y-195000000D03*
%TD*%
D23*
%TO.C,S7*%
X333883014Y-181894831D03*
X322296378Y-179896742D03*
%TD*%
D22*
%TO.C,S30*%
X253470950Y-215277137D03*
X241833960Y-216957308D03*
%TD*%
D21*
%TO.C,S4*%
X353111267Y-148950000D03*
X341561267Y-146750000D03*
%TD*%
D16*
%TO.C,S24*%
X272553923Y-130873185D03*
X260878594Y-129484231D03*
%TD*%
%TO.C,S21*%
X276530042Y-187734336D03*
X264854713Y-186345382D03*
%TD*%
D13*
%TO.C,D7*%
X328767660Y-171032451D03*
X332067158Y-170974859D03*
%TD*%
D18*
%TO.C,D2*%
X348186267Y-176000000D03*
X351486267Y-176000000D03*
%TD*%
D24*
%TO.C,B1*%
X225609161Y-171910365D03*
X223899928Y-166946393D03*
X227216542Y-171356899D03*
X225507309Y-166392927D03*
%TD*%
D21*
%TO.C,S2*%
X353111267Y-186950000D03*
X341561267Y-184750000D03*
%TD*%
D23*
%TO.C,S9*%
X333219823Y-143900618D03*
X321633187Y-141902529D03*
%TD*%
D12*
%TO.C,S15*%
X312597646Y-121210582D03*
X300977903Y-119415011D03*
%TD*%
D16*
%TO.C,S27*%
X254925579Y-151152275D03*
X243250250Y-149763321D03*
%TD*%
D17*
%TO.C,S16*%
X296467535Y-200763913D03*
X284818224Y-199171409D03*
%TD*%
D23*
%TO.C,S8*%
X333551418Y-162897725D03*
X321964782Y-160899636D03*
%TD*%
D19*
%TO.C,D12*%
X309282768Y-167404409D03*
X312580758Y-167289241D03*
%TD*%
D17*
%TO.C,S18*%
X294478768Y-162815990D03*
X282829457Y-161223486D03*
%TD*%
D12*
%TO.C,S14*%
X313260737Y-140199008D03*
X301640994Y-138403437D03*
%TD*%
D15*
%TO.C,D26*%
X250574116Y-159526215D03*
X253866078Y-159296019D03*
%TD*%
D18*
%TO.C,D3*%
X348186267Y-157000000D03*
X351486267Y-157000000D03*
%TD*%
D12*
%TO.C,S11*%
X315250008Y-197164285D03*
X303630265Y-195368714D03*
%TD*%
D17*
%TO.C,S20*%
X292490002Y-124868068D03*
X280840691Y-123275564D03*
%TD*%
D23*
%TO.C,S6*%
X334214610Y-200891937D03*
X322627974Y-198893848D03*
%TD*%
D12*
%TO.C,S12*%
X314586918Y-178175859D03*
X302967175Y-176380288D03*
%TD*%
D19*
%TO.C,D13*%
X308619678Y-148415983D03*
X311917668Y-148300815D03*
%TD*%
D15*
%TO.C,D22*%
X269527833Y-158200842D03*
X272819795Y-157970646D03*
%TD*%
%TO.C,D28*%
X247923370Y-121618781D03*
X251215332Y-121388585D03*
%TD*%
D16*
%TO.C,S26*%
X256250952Y-170105992D03*
X244575623Y-168717038D03*
%TD*%
D21*
%TO.C,S5*%
X353111267Y-129950000D03*
X341561267Y-127750000D03*
%TD*%
D13*
%TO.C,D9*%
X328104469Y-133038239D03*
X331403967Y-132980647D03*
%TD*%
D16*
%TO.C,S25*%
X257576325Y-189059709D03*
X245900996Y-187670755D03*
%TD*%
D15*
%TO.C,D23*%
X268202460Y-139247125D03*
X271494422Y-139016929D03*
%TD*%
D14*
%TO.C,D19*%
X287993055Y-133164791D03*
X291288533Y-132992083D03*
%TD*%
M02*
