%TF.GenerationSoftware,KiCad,Pcbnew,8.0.4*%
%TF.CreationDate,2024-08-23T21:58:39-04:00*%
%TF.ProjectId,right,72696768-742e-46b6-9963-61645f706362,v1.0.0*%
%TF.SameCoordinates,Original*%
%TF.FileFunction,Copper,L1,Top*%
%TF.FilePolarity,Positive*%
%FSLAX46Y46*%
G04 Gerber Fmt 4.6, Leading zero omitted, Abs format (unit mm)*
G04 Created by KiCad (PCBNEW 8.0.4) date 2024-08-23 21:58:39*
%MOMM*%
%LPD*%
G01*
G04 APERTURE LIST*
G04 Aperture macros list*
%AMHorizOval*
0 Thick line with rounded ends*
0 $1 width*
0 $2 $3 position (X,Y) of the first rounded end (center of the circle)*
0 $4 $5 position (X,Y) of the second rounded end (center of the circle)*
0 Add line between two ends*
20,1,$1,$2,$3,$4,$5,0*
0 Add two circle primitives to create the rounded ends*
1,1,$1,$2,$3*
1,1,$1,$4,$5*%
%AMRotRect*
0 Rectangle, with rotation*
0 The origin of the aperture is its center*
0 $1 length*
0 $2 width*
0 $3 Rotation angle, in degrees counterclockwise*
0 Add horizontal line*
21,1,$1,$2,0,0,$3*%
G04 Aperture macros list end*
%TA.AperFunction,WasherPad*%
%ADD10C,1.000000*%
%TD*%
%TA.AperFunction,ComponentPad*%
%ADD11C,1.752600*%
%TD*%
%TA.AperFunction,ComponentPad*%
%ADD12RotRect,1.778000X1.778000X1.000000*%
%TD*%
%TA.AperFunction,SMDPad,CuDef*%
%ADD13RotRect,0.900000X1.200000X1.000000*%
%TD*%
%TA.AperFunction,ComponentPad*%
%ADD14C,1.905000*%
%TD*%
%TA.AperFunction,ComponentPad*%
%ADD15RotRect,1.778000X1.778000X3.000000*%
%TD*%
%TA.AperFunction,SMDPad,CuDef*%
%ADD16RotRect,0.900000X1.200000X3.000000*%
%TD*%
%TA.AperFunction,ComponentPad*%
%ADD17C,0.700000*%
%TD*%
%TA.AperFunction,ComponentPad*%
%ADD18C,4.400000*%
%TD*%
%TA.AperFunction,ComponentPad*%
%ADD19RotRect,1.778000X1.778000X4.000000*%
%TD*%
%TA.AperFunction,SMDPad,CuDef*%
%ADD20RotRect,0.900000X1.200000X4.000000*%
%TD*%
%TA.AperFunction,ComponentPad*%
%ADD21R,1.778000X1.778000*%
%TD*%
%TA.AperFunction,SMDPad,CuDef*%
%ADD22R,0.900000X1.200000*%
%TD*%
%TA.AperFunction,ComponentPad*%
%ADD23RotRect,1.778000X1.778000X2.000000*%
%TD*%
%TA.AperFunction,SMDPad,CuDef*%
%ADD24RotRect,0.900000X1.200000X2.000000*%
%TD*%
%TA.AperFunction,ComponentPad*%
%ADD25RotRect,1.778000X1.778000X19.000000*%
%TD*%
%TA.AperFunction,SMDPad,CuDef*%
%ADD26RotRect,0.900000X1.200000X19.000000*%
%TD*%
%TA.AperFunction,ComponentPad*%
%ADD27RotRect,1.200000X1.700000X109.000000*%
%TD*%
%TA.AperFunction,ComponentPad*%
%ADD28HorizOval,1.200000X0.236380X0.081392X-0.236380X-0.081392X0*%
%TD*%
%TA.AperFunction,Conductor*%
%ADD29C,0.250000*%
%TD*%
G04 APERTURE END LIST*
D10*
%TO.P,T1,*%
%TO.N,*%
X223853491Y-161436314D03*
X222876787Y-158599758D03*
%TD*%
D11*
%TO.P,MCU1,1*%
%TO.N,P006*%
X220009645Y-123400285D03*
%TO.P,MCU1,2*%
%TO.N,P008*%
X220186826Y-125934097D03*
%TO.P,MCU1,3*%
%TO.N,GND*%
X220364008Y-128467910D03*
%TO.P,MCU1,4*%
X220541189Y-131001723D03*
%TO.P,MCU1,5*%
%TO.N,P017*%
X220718371Y-133535535D03*
%TO.P,MCU1,6*%
%TO.N,P020*%
X220895552Y-136069348D03*
%TO.P,MCU1,7*%
%TO.N,P022*%
X221072734Y-138603161D03*
%TO.P,MCU1,8*%
%TO.N,P024*%
X221249915Y-141136973D03*
%TO.P,MCU1,9*%
%TO.N,P100*%
X221427097Y-143670786D03*
%TO.P,MCU1,10*%
%TO.N,P011*%
X221604278Y-146204599D03*
%TO.P,MCU1,11*%
%TO.N,P104*%
X221781459Y-148738411D03*
%TO.P,MCU1,12*%
%TO.N,P106*%
X221958641Y-151272224D03*
%TO.P,MCU1,13*%
%TO.N,P009*%
X237161517Y-150209135D03*
%TO.P,MCU1,14*%
%TO.N,P010*%
X236984336Y-147675323D03*
%TO.P,MCU1,15*%
%TO.N,P111*%
X236807154Y-145141510D03*
%TO.P,MCU1,16*%
%TO.N,P113*%
X236629973Y-142607697D03*
%TO.P,MCU1,17*%
%TO.N,P115*%
X236452791Y-140073885D03*
%TO.P,MCU1,18*%
%TO.N,P002*%
X236275610Y-137540072D03*
%TO.P,MCU1,19*%
%TO.N,P029*%
X236098428Y-135006259D03*
%TO.P,MCU1,20*%
%TO.N,P031*%
X235921247Y-132472447D03*
%TO.P,MCU1,21*%
%TO.N,VCC*%
X235744065Y-129938634D03*
%TO.P,MCU1,22*%
%TO.N,RST*%
X235566884Y-127404821D03*
%TO.P,MCU1,23*%
%TO.N,GND*%
X235389703Y-124871009D03*
%TO.P,MCU1,24*%
%TO.N,RAW*%
X235212521Y-122337196D03*
%TO.P,MCU1,31*%
%TO.N,P101*%
X224138091Y-146027417D03*
%TO.P,MCU1,32*%
%TO.N,P102*%
X226671903Y-145850236D03*
%TO.P,MCU1,33*%
%TO.N,P107*%
X229205716Y-145673054D03*
%TD*%
D12*
%TO.P,D10,1*%
%TO.N,P031*%
X325613202Y-114078831D03*
D13*
X327772873Y-114041133D03*
%TO.P,D10,2*%
%TO.N,mirror_pinky_num*%
X331072371Y-113983541D03*
D14*
X333232042Y-113945843D03*
%TD*%
D15*
%TO.P,D16,1*%
%TO.N,P113*%
X288819165Y-190199720D03*
D16*
X290976205Y-190086674D03*
%TO.P,D16,2*%
%TO.N,mirror_middle_mod*%
X294271683Y-189913966D03*
D14*
X296428723Y-189800920D03*
%TD*%
D17*
%TO.P,_3,1*%
%TO.N,N/C*%
X280706308Y-166091274D03*
X281127858Y-164900855D03*
X281249982Y-167231109D03*
X282267693Y-164357181D03*
D18*
X282354047Y-166004920D03*
D17*
X282440401Y-167652659D03*
X283458112Y-164778731D03*
X283580236Y-167108985D03*
X284001786Y-165918566D03*
%TD*%
D19*
%TO.P,D21,1*%
%TO.N,P115*%
X268698468Y-177305233D03*
D20*
X270853206Y-177154559D03*
%TO.P,D21,2*%
%TO.N,mirror_index_bottom*%
X274145168Y-176924363D03*
D14*
X276299906Y-176773689D03*
%TD*%
D19*
%TO.P,D25,1*%
%TO.N,P115*%
X249744751Y-178630606D03*
D20*
X251899489Y-178479932D03*
%TO.P,D25,2*%
%TO.N,mirror_inner_bottom*%
X255191451Y-178249736D03*
D14*
X257346189Y-178099062D03*
%TD*%
D15*
%TO.P,D17,1*%
%TO.N,P115*%
X287824782Y-171225759D03*
D16*
X289981822Y-171112713D03*
%TO.P,D17,2*%
%TO.N,mirror_middle_bottom*%
X293277300Y-170940005D03*
D14*
X295434340Y-170826959D03*
%TD*%
D12*
%TO.P,D6,1*%
%TO.N,P113*%
X326939585Y-190067256D03*
D13*
X329099256Y-190029558D03*
%TO.P,D6,2*%
%TO.N,mirror_pinky_mod*%
X332398754Y-189971966D03*
D14*
X334558425Y-189934268D03*
%TD*%
D21*
%TO.P,D4,1*%
%TO.N,P029*%
X346026267Y-138000000D03*
D22*
X348186267Y-138000000D03*
%TO.P,D4,2*%
%TO.N,mirror_outer_top*%
X351486267Y-138000000D03*
D14*
X353646267Y-138000000D03*
%TD*%
D23*
%TO.P,D15,1*%
%TO.N,P031*%
X305134813Y-110514515D03*
D24*
X307293497Y-110439132D03*
%TO.P,D15,2*%
%TO.N,mirror_ring_num*%
X310591487Y-110323964D03*
D14*
X312750171Y-110248581D03*
%TD*%
D25*
%TO.P,D29,1*%
%TO.N,P113*%
X261171833Y-201044565D03*
D26*
X263214153Y-200341337D03*
%TO.P,D29,2*%
%TO.N,mirror_space_thumb*%
X266334365Y-199266963D03*
D14*
X268376685Y-198563735D03*
%TD*%
D17*
%TO.P,_2,1*%
%TO.N,N/C*%
X339186267Y-189500000D03*
X339669541Y-188333274D03*
X339669541Y-190666726D03*
X340836267Y-187850000D03*
D18*
X340836267Y-189500000D03*
D17*
X340836267Y-191150000D03*
X342002993Y-188333274D03*
X342002993Y-190666726D03*
X342486267Y-189500000D03*
%TD*%
D25*
%TO.P,D30,1*%
%TO.N,P113*%
X243206980Y-207230360D03*
D26*
X245249300Y-206527132D03*
%TO.P,D30,2*%
%TO.N,mirror_mod_thumb*%
X248369512Y-205452758D03*
D14*
X250411832Y-204749530D03*
%TD*%
D15*
%TO.P,D20,1*%
%TO.N,P031*%
X284841632Y-114303875D03*
D16*
X286998672Y-114190829D03*
%TO.P,D20,2*%
%TO.N,mirror_middle_num*%
X290294150Y-114018121D03*
D14*
X292451190Y-113905075D03*
%TD*%
D15*
%TO.P,D18,1*%
%TO.N,P002*%
X286830399Y-152251798D03*
D16*
X288987439Y-152138752D03*
%TO.P,D18,2*%
%TO.N,mirror_middle_home*%
X292282917Y-151966044D03*
D14*
X294439957Y-151852998D03*
%TD*%
D19*
%TO.P,D27,1*%
%TO.N,P029*%
X247094005Y-140723172D03*
D20*
X249248743Y-140572498D03*
%TO.P,D27,2*%
%TO.N,mirror_inner_top*%
X252540705Y-140342302D03*
D14*
X254695443Y-140191628D03*
%TD*%
D19*
%TO.P,D24,1*%
%TO.N,P031*%
X264722349Y-120444082D03*
D20*
X266877087Y-120293408D03*
%TO.P,D24,2*%
%TO.N,mirror_index_num*%
X270169049Y-120063212D03*
D14*
X272323787Y-119912538D03*
%TD*%
D17*
%TO.P,_1,1*%
%TO.N,N/C*%
X339186267Y-132500000D03*
X339669541Y-131333274D03*
X339669541Y-133666726D03*
X340836267Y-130850000D03*
D18*
X340836267Y-132500000D03*
D17*
X340836267Y-134150000D03*
X342002993Y-131333274D03*
X342002993Y-133666726D03*
X342486267Y-132500000D03*
%TD*%
D23*
%TO.P,D11,1*%
%TO.N,P113*%
X307787175Y-186468218D03*
D24*
X309945859Y-186392835D03*
%TO.P,D11,2*%
%TO.N,mirror_ring_mod*%
X313243849Y-186277667D03*
D14*
X315402533Y-186202284D03*
%TD*%
D23*
%TO.P,D14,1*%
%TO.N,P029*%
X305797903Y-129502941D03*
D24*
X307956587Y-129427558D03*
%TO.P,D14,2*%
%TO.N,mirror_ring_top*%
X311254577Y-129312390D03*
D14*
X313413261Y-129237007D03*
%TD*%
D17*
%TO.P,_5,1*%
%TO.N,N/C*%
X242449414Y-198395672D03*
X242526510Y-197135173D03*
X243286208Y-199341495D03*
X244546707Y-199418591D03*
D18*
X244009520Y-197858485D03*
D17*
X243472333Y-196298379D03*
X244732832Y-196375475D03*
X245492530Y-198581797D03*
X245569626Y-197321298D03*
%TD*%
D12*
%TO.P,D8,1*%
%TO.N,P002*%
X326276393Y-152073043D03*
D13*
X328436064Y-152035345D03*
%TO.P,D8,2*%
%TO.N,mirror_pinky_home*%
X331735562Y-151977753D03*
D14*
X333895233Y-151940055D03*
%TD*%
D21*
%TO.P,D5,1*%
%TO.N,P031*%
X346026267Y-119000000D03*
D22*
X348186267Y-119000000D03*
%TO.P,D5,2*%
%TO.N,mirror_outer_num*%
X351486267Y-119000000D03*
D14*
X353646267Y-119000000D03*
%TD*%
D21*
%TO.P,D1,1*%
%TO.N,P113*%
X346026267Y-195000000D03*
D22*
X348186267Y-195000000D03*
%TO.P,D1,2*%
%TO.N,mirror_outer_mod*%
X351486267Y-195000000D03*
D14*
X353646267Y-195000000D03*
%TD*%
D12*
%TO.P,D7,1*%
%TO.N,P115*%
X326607989Y-171070149D03*
D13*
X328767660Y-171032451D03*
%TO.P,D7,2*%
%TO.N,mirror_pinky_bottom*%
X332067158Y-170974859D03*
D14*
X334226829Y-170937161D03*
%TD*%
D21*
%TO.P,D2,1*%
%TO.N,P115*%
X346026267Y-176000000D03*
D22*
X348186267Y-176000000D03*
%TO.P,D2,2*%
%TO.N,mirror_outer_bottom*%
X351486267Y-176000000D03*
D14*
X353646267Y-176000000D03*
%TD*%
D17*
%TO.P,_4,1*%
%TO.N,N/C*%
X257843159Y-134458088D03*
X258243869Y-133260493D03*
X258406643Y-135588261D03*
X259374042Y-132697009D03*
D18*
X259489140Y-134342990D03*
D17*
X259604238Y-135988971D03*
X260571637Y-133097719D03*
X260734411Y-135425487D03*
X261135121Y-134227892D03*
%TD*%
D27*
%TO.P,JST1,1*%
%TO.N,pos*%
X232158839Y-163441609D03*
D28*
%TO.P,JST1,2*%
%TO.N,GND*%
X231507703Y-161550571D03*
%TD*%
D23*
%TO.P,D12,1*%
%TO.N,P115*%
X307124084Y-167479792D03*
D24*
X309282768Y-167404409D03*
%TO.P,D12,2*%
%TO.N,mirror_ring_bottom*%
X312580758Y-167289241D03*
D14*
X314739442Y-167213858D03*
%TD*%
D19*
%TO.P,D26,1*%
%TO.N,P002*%
X248419378Y-159676889D03*
D20*
X250574116Y-159526215D03*
%TO.P,D26,2*%
%TO.N,mirror_inner_home*%
X253866078Y-159296019D03*
D14*
X256020816Y-159145345D03*
%TD*%
D21*
%TO.P,D3,1*%
%TO.N,P002*%
X346026267Y-157000000D03*
D22*
X348186267Y-157000000D03*
%TO.P,D3,2*%
%TO.N,mirror_outer_home*%
X351486267Y-157000000D03*
D14*
X353646267Y-157000000D03*
%TD*%
D23*
%TO.P,D13,1*%
%TO.N,P002*%
X306460994Y-148491366D03*
D24*
X308619678Y-148415983D03*
%TO.P,D13,2*%
%TO.N,mirror_ring_home*%
X311917668Y-148300815D03*
D14*
X314076352Y-148225432D03*
%TD*%
D19*
%TO.P,D22,1*%
%TO.N,P002*%
X267373095Y-158351516D03*
D20*
X269527833Y-158200842D03*
%TO.P,D22,2*%
%TO.N,mirror_index_home*%
X272819795Y-157970646D03*
D14*
X274974533Y-157819972D03*
%TD*%
D19*
%TO.P,D28,1*%
%TO.N,P031*%
X245768632Y-121769455D03*
D20*
X247923370Y-121618781D03*
%TO.P,D28,2*%
%TO.N,mirror_inner_num*%
X251215332Y-121388585D03*
D14*
X253370070Y-121237911D03*
%TD*%
D12*
%TO.P,D9,1*%
%TO.N,P029*%
X325944798Y-133075937D03*
D13*
X328104469Y-133038239D03*
%TO.P,D9,2*%
%TO.N,mirror_pinky_top*%
X331403967Y-132980647D03*
D14*
X333563638Y-132942949D03*
%TD*%
D19*
%TO.P,D23,1*%
%TO.N,P029*%
X266047722Y-139397799D03*
D20*
X268202460Y-139247125D03*
%TO.P,D23,2*%
%TO.N,mirror_index_top*%
X271494422Y-139016929D03*
D14*
X273649160Y-138866255D03*
%TD*%
D15*
%TO.P,D19,1*%
%TO.N,P029*%
X285836015Y-133277837D03*
D16*
X287993055Y-133164791D03*
%TO.P,D19,2*%
%TO.N,mirror_middle_top*%
X291288533Y-132992083D03*
D14*
X293445573Y-132879037D03*
%TD*%
D29*
%TO.N,mirror_outer_mod*%
X351486267Y-195000000D02*
X353646267Y-195000000D01*
%TO.N,mirror_outer_bottom*%
X353646267Y-176000000D02*
X351486267Y-176000000D01*
%TO.N,mirror_outer_home*%
X351486267Y-157000000D02*
X353646267Y-157000000D01*
%TO.N,mirror_outer_top*%
X353646267Y-138000000D02*
X351486267Y-138000000D01*
%TO.N,mirror_outer_num*%
X351486267Y-119000000D02*
X353646267Y-119000000D01*
%TO.N,mirror_pinky_mod*%
X334520727Y-189971966D02*
X334558425Y-189934268D01*
X332398754Y-189971966D02*
X334520727Y-189971966D01*
%TO.N,mirror_pinky_bottom*%
X332104856Y-170937161D02*
X332067158Y-170974859D01*
X334226829Y-170937161D02*
X332104856Y-170937161D01*
%TO.N,mirror_pinky_home*%
X331735562Y-151977753D02*
X333857535Y-151977753D01*
X333857535Y-151977753D02*
X333895233Y-151940055D01*
%TO.N,mirror_pinky_top*%
X331441665Y-132942949D02*
X331403967Y-132980647D01*
X333563638Y-132942949D02*
X331441665Y-132942949D01*
%TO.N,mirror_pinky_num*%
X333194344Y-113983541D02*
X333232042Y-113945843D01*
X331072371Y-113983541D02*
X333194344Y-113983541D01*
%TO.N,mirror_ring_mod*%
X315327150Y-186277667D02*
X315402533Y-186202284D01*
X313243849Y-186277667D02*
X315327150Y-186277667D01*
%TO.N,mirror_ring_bottom*%
X312656141Y-167213858D02*
X312580758Y-167289241D01*
X314739442Y-167213858D02*
X312656141Y-167213858D01*
%TO.N,mirror_ring_home*%
X311917668Y-148300815D02*
X314000969Y-148300815D01*
X314000969Y-148300815D02*
X314076352Y-148225432D01*
%TO.N,mirror_ring_top*%
X311329960Y-129237007D02*
X311254577Y-129312390D01*
X313413261Y-129237007D02*
X311329960Y-129237007D01*
%TO.N,mirror_ring_num*%
X310591487Y-110323964D02*
X312674788Y-110323964D01*
X312674788Y-110323964D02*
X312750171Y-110248581D01*
%TO.N,mirror_middle_mod*%
X294271683Y-189913966D02*
X296315677Y-189913966D01*
X296315677Y-189913966D02*
X296428723Y-189800920D01*
%TO.N,mirror_middle_bottom*%
X295434340Y-170826959D02*
X293390346Y-170826959D01*
X293390346Y-170826959D02*
X293277300Y-170940005D01*
%TO.N,mirror_middle_home*%
X294326911Y-151966044D02*
X294439957Y-151852998D01*
X292282917Y-151966044D02*
X294326911Y-151966044D01*
%TO.N,mirror_middle_top*%
X291401579Y-132879037D02*
X291288533Y-132992083D01*
X293445573Y-132879037D02*
X291401579Y-132879037D01*
%TO.N,mirror_middle_num*%
X292338144Y-114018121D02*
X292451190Y-113905075D01*
X290294150Y-114018121D02*
X292338144Y-114018121D01*
%TO.N,mirror_index_bottom*%
X274295842Y-176773689D02*
X274145168Y-176924363D01*
X276299906Y-176773689D02*
X274295842Y-176773689D01*
%TO.N,mirror_index_home*%
X272819795Y-157970646D02*
X274823859Y-157970646D01*
X274823859Y-157970646D02*
X274974533Y-157819972D01*
%TO.N,mirror_index_top*%
X273649160Y-138866255D02*
X271645096Y-138866255D01*
X271645096Y-138866255D02*
X271494422Y-139016929D01*
%TO.N,mirror_index_num*%
X270169049Y-120063212D02*
X272173113Y-120063212D01*
X272173113Y-120063212D02*
X272323787Y-119912538D01*
%TO.N,mirror_inner_bottom*%
X257346189Y-178099062D02*
X255342125Y-178099062D01*
X255342125Y-178099062D02*
X255191451Y-178249736D01*
%TO.N,mirror_inner_home*%
X255870142Y-159296019D02*
X256020816Y-159145345D01*
X253866078Y-159296019D02*
X255870142Y-159296019D01*
%TO.N,mirror_inner_top*%
X254695443Y-140191628D02*
X252691379Y-140191628D01*
X252691379Y-140191628D02*
X252540705Y-140342302D01*
%TO.N,mirror_inner_num*%
X253219396Y-121388585D02*
X253370070Y-121237911D01*
X251215332Y-121388585D02*
X253219396Y-121388585D01*
%TO.N,mirror_space_thumb*%
X267673457Y-199266963D02*
X268376685Y-198563735D01*
X266334365Y-199266963D02*
X267673457Y-199266963D01*
%TO.N,mirror_mod_thumb*%
X248369512Y-205452758D02*
X249708604Y-205452758D01*
X249708604Y-205452758D02*
X250411832Y-204749530D01*
%TO.N,P031*%
X346026267Y-119000000D02*
X348186267Y-119000000D01*
X284841632Y-114303875D02*
X286885626Y-114303875D01*
X326757714Y-115223343D02*
X342249610Y-115223343D01*
X264722349Y-120444082D02*
X270862556Y-114303875D01*
X264238678Y-119960411D02*
X264722349Y-120444082D01*
X325613202Y-114078831D02*
X327735175Y-114078831D01*
X264722349Y-120444082D02*
X266726413Y-120444082D01*
X307820298Y-113200000D02*
X324734371Y-113200000D01*
X245768632Y-122625062D02*
X235921247Y-132472447D01*
X305134813Y-110514515D02*
X307820298Y-113200000D01*
X284841632Y-114303875D02*
X288630992Y-110514515D01*
X327735175Y-114078831D02*
X327772873Y-114041133D01*
X247577676Y-119960411D02*
X264238678Y-119960411D01*
X325613202Y-114078831D02*
X326757714Y-115223343D01*
X324734371Y-113200000D02*
X325613202Y-114078831D01*
X305134813Y-110514515D02*
X307218114Y-110514515D01*
X266726413Y-120444082D02*
X266877087Y-120293408D01*
X286885626Y-114303875D02*
X286998672Y-114190829D01*
X245768632Y-121769455D02*
X245768632Y-122625062D01*
X288630992Y-110514515D02*
X305134813Y-110514515D01*
X270862556Y-114303875D02*
X284841632Y-114303875D01*
X245768632Y-121769455D02*
X247577676Y-119960411D01*
X307218114Y-110514515D02*
X307293497Y-110439132D01*
X245768632Y-121769455D02*
X247772696Y-121769455D01*
X342249610Y-115223343D02*
X346026267Y-119000000D01*
X247772696Y-121769455D02*
X247923370Y-121618781D01*
%TO.N,P029*%
X247094005Y-140723172D02*
X241815341Y-140723172D01*
X307956587Y-129427558D02*
X305873286Y-129427558D01*
X305873286Y-129427558D02*
X305797903Y-129502941D01*
X268202460Y-139247125D02*
X266198396Y-139247125D01*
X301144307Y-134156537D02*
X286714715Y-134156537D01*
X328104469Y-133038239D02*
X325982496Y-133038239D01*
X305797903Y-129502941D02*
X301144307Y-134156537D01*
X325982496Y-133038239D02*
X325944798Y-133075937D01*
X249248743Y-140572498D02*
X247244679Y-140572498D01*
X247839961Y-141469128D02*
X247094005Y-140723172D01*
X285949061Y-133164791D02*
X285836015Y-133277837D01*
X263976393Y-141469128D02*
X247839961Y-141469128D01*
X266198396Y-139247125D02*
X266047722Y-139397799D01*
X346026267Y-138000000D02*
X343945448Y-135919181D01*
X241815341Y-140723172D02*
X236098428Y-135006259D01*
X285836015Y-133277837D02*
X272167684Y-133277837D01*
X348186267Y-138000000D02*
X346026267Y-138000000D01*
X343945448Y-135919181D02*
X328788042Y-135919181D01*
X325944798Y-133075937D02*
X325146289Y-132277428D01*
X286714715Y-134156537D02*
X285836015Y-133277837D01*
X247244679Y-140572498D02*
X247094005Y-140723172D01*
X266047722Y-139397799D02*
X263976393Y-141469128D01*
X287993055Y-133164791D02*
X285949061Y-133164791D01*
X308572390Y-132277428D02*
X305797903Y-129502941D01*
X328788042Y-135919181D02*
X325944798Y-133075937D01*
X272167684Y-133277837D02*
X266047722Y-139397799D01*
X325146289Y-132277428D02*
X308572390Y-132277428D01*
%TO.N,P002*%
X267373095Y-158351516D02*
X273472813Y-152251798D01*
X342243822Y-153217555D02*
X346026267Y-157000000D01*
X250423442Y-159676889D02*
X250574116Y-159526215D01*
X326276393Y-152073043D02*
X327420905Y-153217555D01*
X286830399Y-152251798D02*
X290590831Y-148491366D01*
X265301766Y-160422845D02*
X267373095Y-158351516D01*
X288874393Y-152251798D02*
X288987439Y-152138752D01*
X248419378Y-159676889D02*
X249142489Y-160400000D01*
X273472813Y-152251798D02*
X286830399Y-152251798D01*
X306460994Y-148491366D02*
X308544295Y-148491366D01*
X346026267Y-157000000D02*
X348186267Y-157000000D01*
X328398366Y-152073043D02*
X328436064Y-152035345D01*
X323706282Y-149502932D02*
X326276393Y-152073043D01*
X326276393Y-152073043D02*
X328398366Y-152073043D01*
X255491658Y-160422845D02*
X265301766Y-160422845D01*
X248419378Y-159676889D02*
X244531004Y-155788515D01*
X327420905Y-153217555D02*
X342243822Y-153217555D01*
X286830399Y-152251798D02*
X288874393Y-152251798D01*
X290590831Y-148491366D02*
X306460994Y-148491366D01*
X306460994Y-148491366D02*
X307472560Y-149502932D01*
X267373095Y-158351516D02*
X269377159Y-158351516D01*
X308544295Y-148491366D02*
X308619678Y-148415983D01*
X269377159Y-158351516D02*
X269527833Y-158200842D01*
X244531004Y-145795466D02*
X236275610Y-137540072D01*
X248419378Y-159676889D02*
X250423442Y-159676889D01*
X249142489Y-160400000D02*
X255468813Y-160400000D01*
X244531004Y-155788515D02*
X244531004Y-145795466D01*
X255468813Y-160400000D02*
X255491658Y-160422845D01*
X307472560Y-149502932D02*
X323706282Y-149502932D01*
%TO.N,P115*%
X326645687Y-171032451D02*
X326607989Y-171070149D01*
X291570749Y-167479792D02*
X287824782Y-171225759D01*
X346026267Y-176000000D02*
X339685928Y-169659661D01*
X307199467Y-167404409D02*
X307124084Y-167479792D01*
X309282768Y-167404409D02*
X307199467Y-167404409D01*
X328018477Y-169659661D02*
X326607989Y-171070149D01*
X287937828Y-171112713D02*
X287824782Y-171225759D01*
X268214797Y-176821562D02*
X251553795Y-176821562D01*
X244081004Y-172966859D02*
X244081004Y-147702098D01*
X307124084Y-167479792D02*
X291570749Y-167479792D01*
X251899489Y-178479932D02*
X249895425Y-178479932D01*
X325792119Y-170254279D02*
X309898571Y-170254279D01*
X249744751Y-178630606D02*
X244081004Y-172966859D01*
X268849142Y-177154559D02*
X268698468Y-177305233D01*
X348186267Y-176000000D02*
X346026267Y-176000000D01*
X274777942Y-171225759D02*
X268698468Y-177305233D01*
X326607989Y-171070149D02*
X325792119Y-170254279D01*
X328767660Y-171032451D02*
X326645687Y-171032451D01*
X251553795Y-176821562D02*
X249744751Y-178630606D01*
X339685928Y-169659661D02*
X328018477Y-169659661D01*
X244081004Y-147702098D02*
X236452791Y-140073885D01*
X287824782Y-171225759D02*
X274777942Y-171225759D01*
X249895425Y-178479932D02*
X249744751Y-178630606D01*
X309898571Y-170254279D02*
X307124084Y-167479792D01*
X289981822Y-171112713D02*
X287937828Y-171112713D01*
X268698468Y-177305233D02*
X268214797Y-176821562D01*
X270853206Y-177154559D02*
X268849142Y-177154559D01*
%TO.N,P113*%
X325272329Y-188400000D02*
X326939585Y-190067256D01*
X346026267Y-195000000D02*
X348186267Y-195000000D01*
X332469378Y-193678112D02*
X344704379Y-193678112D01*
X243631004Y-149608728D02*
X236629973Y-142607697D01*
X246534520Y-176056771D02*
X243631004Y-173153255D01*
X249392775Y-201044565D02*
X261171833Y-201044565D01*
X292550667Y-186468218D02*
X307787175Y-186468218D01*
X243206980Y-207230360D02*
X246534520Y-203902820D01*
X307787175Y-186468218D02*
X309718957Y-188400000D01*
X328858522Y-190067256D02*
X332469378Y-193678112D01*
X272016678Y-190199720D02*
X288819165Y-190199720D01*
X309718957Y-188400000D02*
X325272329Y-188400000D01*
X262510925Y-201044565D02*
X263214153Y-200341337D01*
X326939585Y-190067256D02*
X328858522Y-190067256D01*
X288819165Y-190199720D02*
X292550667Y-186468218D01*
X288819165Y-190199720D02*
X290863159Y-190199720D01*
X243206980Y-207230360D02*
X249392775Y-201044565D01*
X344704379Y-193678112D02*
X346026267Y-195000000D01*
X326939585Y-190067256D02*
X329061558Y-190067256D01*
X243631004Y-173153255D02*
X243631004Y-149608728D01*
X246534520Y-203902820D02*
X246534520Y-176056771D01*
X290863159Y-190199720D02*
X290976205Y-190086674D01*
X329061558Y-190067256D02*
X329099256Y-190029558D01*
X307787175Y-186468218D02*
X309870476Y-186468218D01*
X261171833Y-201044565D02*
X262510925Y-201044565D01*
X261171833Y-201044565D02*
X272016678Y-190199720D01*
X309870476Y-186468218D02*
X309945859Y-186392835D01*
X243206980Y-207230360D02*
X244546072Y-207230360D01*
X244546072Y-207230360D02*
X245249300Y-206527132D01*
%TD*%
M02*
