%TF.GenerationSoftware,KiCad,Pcbnew,8.0.4*%
%TF.CreationDate,2024-08-23T21:58:54-04:00*%
%TF.ProjectId,right,72696768-742e-46b6-9963-61645f706362,v1.0.0*%
%TF.SameCoordinates,Original*%
%TF.FileFunction,Drillmap*%
%TF.FilePolarity,Positive*%
%FSLAX45Y45*%
G04 Gerber Fmt 4.5, Leading zero omitted, Abs format (unit mm)*
G04 Created by KiCad (PCBNEW 8.0.4) date 2024-08-23 21:58:54*
%MOMM*%
%LPD*%
G01*
G04 APERTURE LIST*
%ADD10C,0.150000*%
%ADD11C,0.200000*%
%ADD12C,0.100000*%
%ADD13C,0.170180*%
%ADD14C,0.300000*%
%ADD15C,0.342900*%
G04 APERTURE END LIST*
D10*
X27975600Y-21103864D02*
G75*
G02*
X28071334Y-21087526I97670J-283656D01*
G01*
X23462120Y-20437990D02*
G75*
G02*
X23461502Y-20436178I282450J97250D01*
G01*
X31922013Y-10241801D02*
G75*
G02*
X32010571Y-10251961I10467J-299819D01*
G01*
X21917943Y-15858663D02*
X23461502Y-20436178D01*
X31922013Y-10241801D02*
X29796985Y-10316009D01*
X35861715Y-11290175D02*
G75*
G02*
X36083625Y-11579834I-78085J-289655D01*
G01*
X24429156Y-22325003D02*
G75*
G02*
X24047837Y-22139015I-97666J283653D01*
G01*
X21647535Y-12131174D02*
X21902946Y-15783732D01*
X23843992Y-11673234D02*
G75*
G02*
X23797974Y-11680067I-66942J292444D01*
G01*
X36083627Y-20750000D02*
G75*
G02*
X35783627Y-21049997I-299997J0D01*
G01*
X23797974Y-11680068D02*
X21925877Y-11810977D01*
X33884596Y-21050000D02*
X35783627Y-21050000D01*
X35861715Y-11290176D02*
X32010571Y-10251960D01*
X21647535Y-12131174D02*
G75*
G02*
X21925877Y-11810984I299266J20924D01*
G01*
X24429156Y-22325003D02*
X27975600Y-21103864D01*
X28071334Y-21087526D02*
X33882659Y-21050006D01*
X33882659Y-21050006D02*
G75*
G02*
X33884596Y-21050000I1951J-302514D01*
G01*
X29740510Y-10323391D02*
X23843992Y-11673234D01*
X29740510Y-10323391D02*
G75*
G02*
X29796985Y-10316010I66940J-292429D01*
G01*
X21917943Y-15858663D02*
G75*
G02*
X21902947Y-15783732I284268J95854D01*
G01*
X36083627Y-20750000D02*
X36083627Y-11579834D01*
X23462120Y-20437990D02*
X24047830Y-22139018D01*
D11*
D12*
X22388315Y-16922430D02*
X22463315Y-16997430D01*
X22463315Y-16922430D02*
X22388315Y-16997430D01*
X22648332Y-16832899D02*
X22723332Y-16907899D01*
X22723332Y-16832899D02*
X22648332Y-16907899D01*
X22332679Y-15859976D02*
G75*
G02*
X22242679Y-15859976I-45000J0D01*
G01*
X22242679Y-15859976D02*
G75*
G02*
X22332679Y-15859976I45000J0D01*
G01*
X22430349Y-16143631D02*
G75*
G02*
X22340349Y-16143631I-45000J0D01*
G01*
X22340349Y-16143631D02*
G75*
G02*
X22430349Y-16143631I45000J0D01*
G01*
D13*
X24323689Y-21165726D02*
X24323689Y-21335906D01*
X24238599Y-21250816D02*
X24408779Y-21250816D01*
X24443153Y-12602426D02*
X24443153Y-12772606D01*
X24358063Y-12687516D02*
X24528243Y-12687516D01*
X24575690Y-14497798D02*
X24575690Y-14667978D01*
X24490600Y-14582888D02*
X24660780Y-14582888D01*
X24708228Y-16393170D02*
X24708228Y-16563350D01*
X24623138Y-16478260D02*
X24793318Y-16478260D01*
X24840765Y-18288542D02*
X24840765Y-18458722D01*
X24755675Y-18373632D02*
X24925855Y-18373632D01*
X25363760Y-20807601D02*
X25363760Y-20977781D01*
X25278670Y-20892691D02*
X25448850Y-20892691D01*
X25540473Y-12525694D02*
X25540473Y-12695874D01*
X25455383Y-12610784D02*
X25625563Y-12610784D01*
X25673011Y-14421066D02*
X25673011Y-14591246D01*
X25587921Y-14506156D02*
X25758101Y-14506156D01*
X25805548Y-16316438D02*
X25805548Y-16486618D01*
X25720458Y-16401528D02*
X25890638Y-16401528D01*
X25938085Y-18211809D02*
X25938085Y-18381989D01*
X25852995Y-18296899D02*
X26023175Y-18296899D01*
X26120175Y-20547147D02*
X26120175Y-20717327D01*
X26035085Y-20632237D02*
X26205265Y-20632237D01*
X26338525Y-12469889D02*
X26338525Y-12640069D01*
X26253435Y-12554979D02*
X26423615Y-12554979D01*
X26471062Y-14365261D02*
X26471062Y-14535441D01*
X26385972Y-14450351D02*
X26556152Y-14450351D01*
X26603599Y-16260633D02*
X26603599Y-16430813D01*
X26518509Y-16345723D02*
X26688689Y-16345723D01*
X26736137Y-18156004D02*
X26736137Y-18326184D01*
X26651047Y-18241094D02*
X26821227Y-18241094D01*
X27160245Y-20189022D02*
X27160245Y-20359202D01*
X27075155Y-20274112D02*
X27245335Y-20274112D01*
X27435845Y-12393157D02*
X27435845Y-12563337D01*
X27350755Y-12478247D02*
X27520935Y-12478247D01*
X27568382Y-14288529D02*
X27568382Y-14458709D01*
X27483292Y-14373619D02*
X27653472Y-14373619D01*
X27700920Y-16183900D02*
X27700920Y-16354080D01*
X27615830Y-16268990D02*
X27786010Y-16268990D01*
X27833457Y-18079272D02*
X27833457Y-18249452D01*
X27748367Y-18164362D02*
X27918547Y-18164362D01*
X28341563Y-11853457D02*
X28341563Y-12023637D01*
X28256473Y-11938547D02*
X28426653Y-11938547D01*
X28441001Y-13750853D02*
X28441001Y-13921033D01*
X28355911Y-13835943D02*
X28526091Y-13835943D01*
X28540439Y-15648249D02*
X28540439Y-15818429D01*
X28455349Y-15733339D02*
X28625529Y-15733339D01*
X28639878Y-17545646D02*
X28639878Y-17715826D01*
X28554788Y-17630736D02*
X28724968Y-17630736D01*
X28739316Y-19443042D02*
X28739316Y-19613222D01*
X28654226Y-19528132D02*
X28824406Y-19528132D01*
X29440055Y-11795887D02*
X29440055Y-11966067D01*
X29354965Y-11880977D02*
X29525145Y-11880977D01*
X29539494Y-13693284D02*
X29539494Y-13863464D01*
X29454404Y-13778374D02*
X29624584Y-13778374D01*
X29638932Y-15590680D02*
X29638932Y-15760860D01*
X29553842Y-15675770D02*
X29724022Y-15675770D01*
X29738370Y-17488076D02*
X29738370Y-17658256D01*
X29653280Y-17573166D02*
X29823460Y-17573166D01*
X29837809Y-19385472D02*
X29837809Y-19555652D01*
X29752719Y-19470562D02*
X29922899Y-19470562D01*
X30362034Y-11471955D02*
X30362034Y-11642135D01*
X30276944Y-11557045D02*
X30447124Y-11557045D01*
X30428343Y-13370797D02*
X30428343Y-13540977D01*
X30343253Y-13455887D02*
X30513433Y-13455887D01*
X30494652Y-15269640D02*
X30494652Y-15439820D01*
X30409562Y-15354730D02*
X30579742Y-15354730D01*
X30560961Y-17168483D02*
X30560961Y-17338663D01*
X30475871Y-17253573D02*
X30646051Y-17253573D01*
X30627270Y-19067325D02*
X30627270Y-19237505D01*
X30542180Y-19152415D02*
X30712360Y-19152415D01*
X31461364Y-11433565D02*
X31461364Y-11603745D01*
X31376274Y-11518655D02*
X31546454Y-11518655D01*
X31527673Y-13332408D02*
X31527673Y-13502588D01*
X31442583Y-13417498D02*
X31612763Y-13417498D01*
X31593982Y-15231251D02*
X31593982Y-15401431D01*
X31508892Y-15316341D02*
X31679072Y-15316341D01*
X31660291Y-17130093D02*
X31660291Y-17300273D01*
X31575201Y-17215183D02*
X31745381Y-17215183D01*
X31726600Y-19028936D02*
X31726600Y-19199116D01*
X31641510Y-19114026D02*
X31811690Y-19114026D01*
X32401072Y-11825666D02*
X32401072Y-11995846D01*
X32315982Y-11910756D02*
X32486162Y-11910756D01*
X32434232Y-13725377D02*
X32434232Y-13895557D01*
X32349142Y-13810467D02*
X32519322Y-13810467D01*
X32467391Y-15625088D02*
X32467391Y-15795268D01*
X32382301Y-15710178D02*
X32552481Y-15710178D01*
X32500551Y-17524798D02*
X32500551Y-17694978D01*
X32415461Y-17609888D02*
X32585641Y-17609888D01*
X32533710Y-19424509D02*
X32533710Y-19594689D01*
X32448620Y-19509599D02*
X32618800Y-19509599D01*
X33500905Y-11806469D02*
X33500905Y-11976649D01*
X33415815Y-11891559D02*
X33585995Y-11891559D01*
X33534064Y-13706179D02*
X33534064Y-13876359D01*
X33448974Y-13791269D02*
X33619154Y-13791269D01*
X33567224Y-15605890D02*
X33567224Y-15776070D01*
X33482134Y-15690980D02*
X33652314Y-15690980D01*
X33600383Y-17505601D02*
X33600383Y-17675781D01*
X33515293Y-17590691D02*
X33685473Y-17590691D01*
X33633543Y-19405311D02*
X33633543Y-19575491D01*
X33548453Y-19490401D02*
X33718633Y-19490401D01*
X34433627Y-12314910D02*
X34433627Y-12485090D01*
X34348537Y-12400000D02*
X34518717Y-12400000D01*
X34433627Y-14214910D02*
X34433627Y-14385090D01*
X34348537Y-14300000D02*
X34518717Y-14300000D01*
X34433627Y-16114910D02*
X34433627Y-16285090D01*
X34348537Y-16200000D02*
X34518717Y-16200000D01*
X34433627Y-18014910D02*
X34433627Y-18185090D01*
X34348537Y-18100000D02*
X34518717Y-18100000D01*
X34433627Y-19914910D02*
X34433627Y-20085090D01*
X34348537Y-20000000D02*
X34518717Y-20000000D01*
X35533627Y-12314910D02*
X35533627Y-12485090D01*
X35448537Y-12400000D02*
X35618717Y-12400000D01*
X35533627Y-14214910D02*
X35533627Y-14385090D01*
X35448537Y-14300000D02*
X35618717Y-14300000D01*
X35533627Y-16114910D02*
X35533627Y-16285090D01*
X35448537Y-16200000D02*
X35618717Y-16200000D01*
X35533627Y-18014910D02*
X35533627Y-18185090D01*
X35448537Y-18100000D02*
X35618717Y-18100000D01*
X35533627Y-19914910D02*
X35533627Y-20085090D01*
X35448537Y-20000000D02*
X35618717Y-20000000D01*
D14*
X24599120Y-21695174D02*
X24599120Y-21483040D01*
X24386986Y-21483040D01*
X24386986Y-21695174D01*
X24599120Y-21695174D01*
X24625257Y-13164182D02*
X24625257Y-12952048D01*
X24413123Y-12952048D01*
X24413123Y-13164182D01*
X24625257Y-13164182D01*
X24757794Y-15059554D02*
X24757794Y-14847420D01*
X24545660Y-14847420D01*
X24545660Y-15059554D01*
X24757794Y-15059554D01*
X24890332Y-16954926D02*
X24890332Y-16742792D01*
X24678198Y-16742792D01*
X24678198Y-16954926D01*
X24890332Y-16954926D01*
X25022869Y-18850297D02*
X25022869Y-18638163D01*
X24810735Y-18638163D01*
X24810735Y-18850297D01*
X25022869Y-18850297D01*
X25139385Y-13348768D02*
X25139385Y-13136634D01*
X24927251Y-13136634D01*
X24927251Y-13348768D01*
X25139385Y-13348768D01*
X25143505Y-21740404D02*
X25143505Y-21528270D01*
X24931371Y-21528270D01*
X24931371Y-21740404D01*
X25143505Y-21740404D01*
X25271923Y-15244140D02*
X25271923Y-15032006D01*
X25059789Y-15032006D01*
X25059789Y-15244140D01*
X25271923Y-15244140D01*
X25404460Y-17139511D02*
X25404460Y-16927377D01*
X25192326Y-16927377D01*
X25192326Y-17139511D01*
X25404460Y-17139511D01*
X25536997Y-19034883D02*
X25536997Y-18822749D01*
X25324863Y-18822749D01*
X25324863Y-19034883D01*
X25536997Y-19034883D01*
X26395606Y-21076595D02*
X26395606Y-20864461D01*
X26183472Y-20864461D01*
X26183472Y-21076595D01*
X26395606Y-21076595D01*
X26520629Y-13031645D02*
X26520629Y-12819511D01*
X26308495Y-12819511D01*
X26308495Y-13031645D01*
X26520629Y-13031645D01*
X26653166Y-14927017D02*
X26653166Y-14714883D01*
X26441032Y-14714883D01*
X26441032Y-14927017D01*
X26653166Y-14927017D01*
X26785703Y-16822388D02*
X26785703Y-16610254D01*
X26573569Y-16610254D01*
X26573569Y-16822388D01*
X26785703Y-16822388D01*
X26918241Y-18717760D02*
X26918241Y-18505626D01*
X26706107Y-18505626D01*
X26706107Y-18717760D01*
X26918241Y-18717760D01*
X26939990Y-21121825D02*
X26939990Y-20909691D01*
X26727856Y-20909691D01*
X26727856Y-21121825D01*
X26939990Y-21121825D01*
X27034757Y-13216231D02*
X27034757Y-13004097D01*
X26822623Y-13004097D01*
X26822623Y-13216231D01*
X27034757Y-13216231D01*
X27167294Y-15111602D02*
X27167294Y-14899468D01*
X26955160Y-14899468D01*
X26955160Y-15111602D01*
X27167294Y-15111602D01*
X27299832Y-17006974D02*
X27299832Y-16794840D01*
X27087698Y-16794840D01*
X27087698Y-17006974D01*
X27299832Y-17006974D01*
X27432369Y-18902346D02*
X27432369Y-18690212D01*
X27220235Y-18690212D01*
X27220235Y-18902346D01*
X27432369Y-18902346D01*
X28517187Y-12416483D02*
X28517187Y-12204349D01*
X28305053Y-12204349D01*
X28305053Y-12416483D01*
X28517187Y-12416483D01*
X28616626Y-14313879D02*
X28616626Y-14101745D01*
X28404492Y-14101745D01*
X28404492Y-14313879D01*
X28616626Y-14313879D01*
X28716064Y-16211276D02*
X28716064Y-15999142D01*
X28503930Y-15999142D01*
X28503930Y-16211276D01*
X28716064Y-16211276D01*
X28815502Y-18108672D02*
X28815502Y-17896538D01*
X28603368Y-17896538D01*
X28603368Y-18108672D01*
X28815502Y-18108672D01*
X28914941Y-20006068D02*
X28914941Y-19793934D01*
X28702807Y-19793934D01*
X28702807Y-20006068D01*
X28914941Y-20006068D01*
X29028016Y-12610014D02*
X29028016Y-12397880D01*
X28815882Y-12397880D01*
X28815882Y-12610014D01*
X29028016Y-12610014D01*
X29127454Y-14507410D02*
X29127454Y-14295276D01*
X28915320Y-14295276D01*
X28915320Y-14507410D01*
X29127454Y-14507410D01*
X29226893Y-16404806D02*
X29226893Y-16192672D01*
X29014759Y-16192672D01*
X29014759Y-16404806D01*
X29226893Y-16404806D01*
X29326331Y-18302202D02*
X29326331Y-18090068D01*
X29114197Y-18090068D01*
X29114197Y-18302202D01*
X29326331Y-18302202D01*
X29425769Y-20199598D02*
X29425769Y-19987464D01*
X29213635Y-19987464D01*
X29213635Y-20199598D01*
X29425769Y-20199598D01*
X30531158Y-12036138D02*
X30531158Y-11824004D01*
X30319024Y-11824004D01*
X30319024Y-12036138D01*
X30531158Y-12036138D01*
X30597467Y-13934981D02*
X30597467Y-13722847D01*
X30385333Y-13722847D01*
X30385333Y-13934981D01*
X30597467Y-13934981D01*
X30663776Y-15833824D02*
X30663776Y-15621690D01*
X30451642Y-15621690D01*
X30451642Y-15833824D01*
X30663776Y-15833824D01*
X30730085Y-17732666D02*
X30730085Y-17520532D01*
X30517951Y-17520532D01*
X30517951Y-17732666D01*
X30730085Y-17732666D01*
X30796394Y-19631509D02*
X30796394Y-19419375D01*
X30584260Y-19419375D01*
X30584260Y-19631509D01*
X30796394Y-19631509D01*
X31038531Y-12238555D02*
X31038531Y-12026421D01*
X30826397Y-12026421D01*
X30826397Y-12238555D01*
X31038531Y-12238555D01*
X31104840Y-14137397D02*
X31104840Y-13925263D01*
X30892706Y-13925263D01*
X30892706Y-14137397D01*
X31104840Y-14137397D01*
X31171149Y-16036240D02*
X31171149Y-15824106D01*
X30959015Y-15824106D01*
X30959015Y-16036240D01*
X31171149Y-16036240D01*
X31237458Y-17935082D02*
X31237458Y-17722948D01*
X31025324Y-17722948D01*
X31025324Y-17935082D01*
X31237458Y-17935082D01*
X31303767Y-19833925D02*
X31303767Y-19621791D01*
X31091633Y-19621791D01*
X31091633Y-19833925D01*
X31303767Y-19833925D01*
X32563676Y-12390894D02*
X32563676Y-12178760D01*
X32351542Y-12178760D01*
X32351542Y-12390894D01*
X32563676Y-12390894D01*
X32596836Y-14290604D02*
X32596836Y-14078470D01*
X32384702Y-14078470D01*
X32384702Y-14290604D01*
X32596836Y-14290604D01*
X32629995Y-16190315D02*
X32629995Y-15978181D01*
X32417861Y-15978181D01*
X32417861Y-16190315D01*
X32629995Y-16190315D01*
X32663155Y-18090026D02*
X32663155Y-17877892D01*
X32451021Y-17877892D01*
X32451021Y-18090026D01*
X32663155Y-18090026D01*
X32696314Y-19989736D02*
X32696314Y-19777602D01*
X32484180Y-19777602D01*
X32484180Y-19989736D01*
X32696314Y-19989736D01*
X33067440Y-12602134D02*
X33067440Y-12390000D01*
X32855306Y-12390000D01*
X32855306Y-12602134D01*
X33067440Y-12602134D01*
X33100599Y-14501844D02*
X33100599Y-14289710D01*
X32888465Y-14289710D01*
X32888465Y-14501844D01*
X33100599Y-14501844D01*
X33133759Y-16401555D02*
X33133759Y-16189421D01*
X32921625Y-16189421D01*
X32921625Y-16401555D01*
X33133759Y-16401555D01*
X33166918Y-18301266D02*
X33166918Y-18089132D01*
X32954784Y-18089132D01*
X32954784Y-18301266D01*
X33166918Y-18301266D01*
X33200078Y-20200976D02*
X33200078Y-19988842D01*
X32987944Y-19988842D01*
X32987944Y-20200976D01*
X33200078Y-20200976D01*
X34589694Y-12881067D02*
X34589694Y-12668933D01*
X34377560Y-12668933D01*
X34377560Y-12881067D01*
X34589694Y-12881067D01*
X34589694Y-14781067D02*
X34589694Y-14568933D01*
X34377560Y-14568933D01*
X34377560Y-14781067D01*
X34589694Y-14781067D01*
X34589694Y-16681067D02*
X34589694Y-16468933D01*
X34377560Y-16468933D01*
X34377560Y-16681067D01*
X34589694Y-16681067D01*
X34589694Y-18581067D02*
X34589694Y-18368933D01*
X34377560Y-18368933D01*
X34377560Y-18581067D01*
X34589694Y-18581067D01*
X34589694Y-20481067D02*
X34589694Y-20268933D01*
X34377560Y-20268933D01*
X34377560Y-20481067D01*
X34589694Y-20481067D01*
X35089694Y-13101067D02*
X35089694Y-12888933D01*
X34877560Y-12888933D01*
X34877560Y-13101067D01*
X35089694Y-13101067D01*
X35089694Y-15001067D02*
X35089694Y-14788933D01*
X34877560Y-14788933D01*
X34877560Y-15001067D01*
X35089694Y-15001067D01*
X35089694Y-16901067D02*
X35089694Y-16688933D01*
X34877560Y-16688933D01*
X34877560Y-16901067D01*
X35089694Y-16901067D01*
X35089694Y-18801067D02*
X35089694Y-18588933D01*
X34877560Y-18588933D01*
X34877560Y-18801067D01*
X35089694Y-18801067D01*
X35089694Y-20701067D02*
X35089694Y-20488933D01*
X34877560Y-20488933D01*
X34877560Y-20701067D01*
X35089694Y-20701067D01*
D15*
X24843725Y-21243204D02*
X25015175Y-21071754D01*
X24843725Y-20900304D01*
X24672275Y-21071754D01*
X24843725Y-21243204D01*
X24991813Y-12820600D02*
X25163263Y-12649150D01*
X24991813Y-12477700D01*
X24820363Y-12649150D01*
X24991813Y-12820600D01*
X25124351Y-14715972D02*
X25295801Y-14544522D01*
X25124351Y-14373072D01*
X24952901Y-14544522D01*
X25124351Y-14715972D01*
X25256888Y-16611344D02*
X25428338Y-16439894D01*
X25256888Y-16268444D01*
X25085438Y-16439894D01*
X25256888Y-16611344D01*
X25389425Y-18506716D02*
X25560875Y-18335266D01*
X25389425Y-18163816D01*
X25217975Y-18335266D01*
X25389425Y-18506716D01*
X26640210Y-20624624D02*
X26811660Y-20453174D01*
X26640210Y-20281724D01*
X26468760Y-20453174D01*
X26640210Y-20624624D01*
X26887185Y-12688063D02*
X27058635Y-12516613D01*
X26887185Y-12345163D01*
X26715735Y-12516613D01*
X26887185Y-12688063D01*
X27019722Y-14583435D02*
X27191172Y-14411985D01*
X27019722Y-14240535D01*
X26848272Y-14411985D01*
X27019722Y-14583435D01*
X27152260Y-16478806D02*
X27323710Y-16307356D01*
X27152260Y-16135906D01*
X26980810Y-16307356D01*
X27152260Y-16478806D01*
X27284797Y-18374178D02*
X27456247Y-18202728D01*
X27284797Y-18031278D01*
X27113347Y-18202728D01*
X27284797Y-18374178D01*
X28890809Y-12081212D02*
X29062259Y-11909762D01*
X28890809Y-11738312D01*
X28719359Y-11909762D01*
X28890809Y-12081212D01*
X28990247Y-13978608D02*
X29161697Y-13807158D01*
X28990247Y-13635708D01*
X28818797Y-13807158D01*
X28990247Y-13978608D01*
X29089686Y-15876004D02*
X29261136Y-15704554D01*
X29089686Y-15533104D01*
X28918236Y-15704554D01*
X29089686Y-15876004D01*
X29189124Y-17773401D02*
X29360574Y-17601951D01*
X29189124Y-17430501D01*
X29017674Y-17601951D01*
X29189124Y-17773401D01*
X29288562Y-19670797D02*
X29460012Y-19499347D01*
X29288562Y-19327897D01*
X29117112Y-19499347D01*
X29288562Y-19670797D01*
X30911699Y-11709300D02*
X31083149Y-11537850D01*
X30911699Y-11366400D01*
X30740249Y-11537850D01*
X30911699Y-11709300D01*
X30978008Y-13608143D02*
X31149458Y-13436693D01*
X30978008Y-13265243D01*
X30806558Y-13436693D01*
X30978008Y-13608143D01*
X31044317Y-15506985D02*
X31215767Y-15335535D01*
X31044317Y-15164085D01*
X30872867Y-15335535D01*
X31044317Y-15506985D01*
X31110626Y-17405828D02*
X31282076Y-17234378D01*
X31110626Y-17062928D01*
X30939176Y-17234378D01*
X31110626Y-17405828D01*
X31176935Y-19304671D02*
X31348385Y-19133221D01*
X31176935Y-18961771D01*
X31005485Y-19133221D01*
X31176935Y-19304671D01*
X32950988Y-12072607D02*
X33122438Y-11901157D01*
X32950988Y-11729707D01*
X32779538Y-11901157D01*
X32950988Y-12072607D01*
X32984148Y-13972318D02*
X33155598Y-13800868D01*
X32984148Y-13629418D01*
X32812698Y-13800868D01*
X32984148Y-13972318D01*
X33017307Y-15872029D02*
X33188757Y-15700579D01*
X33017307Y-15529129D01*
X32845857Y-15700579D01*
X33017307Y-15872029D01*
X33050467Y-17771739D02*
X33221917Y-17600289D01*
X33050467Y-17428839D01*
X32879017Y-17600289D01*
X33050467Y-17771739D01*
X33083627Y-19671450D02*
X33255077Y-19500000D01*
X33083627Y-19328550D01*
X32912177Y-19500000D01*
X33083627Y-19671450D01*
X34983627Y-12571450D02*
X35155077Y-12400000D01*
X34983627Y-12228550D01*
X34812177Y-12400000D01*
X34983627Y-12571450D01*
X34983627Y-14471450D02*
X35155077Y-14300000D01*
X34983627Y-14128550D01*
X34812177Y-14300000D01*
X34983627Y-14471450D01*
X34983627Y-16371450D02*
X35155077Y-16200000D01*
X34983627Y-16028550D01*
X34812177Y-16200000D01*
X34983627Y-16371450D01*
X34983627Y-18271450D02*
X35155077Y-18100000D01*
X34983627Y-17928550D01*
X34812177Y-18100000D01*
X34983627Y-18271450D01*
X34983627Y-20171450D02*
X35155077Y-20000000D01*
X34983627Y-19828550D01*
X34812177Y-20000000D01*
X34983627Y-20171450D01*
D11*
X21900081Y-22660330D02*
X21900081Y-22460330D01*
X21900081Y-22460330D02*
X21947700Y-22460330D01*
X21947700Y-22460330D02*
X21976271Y-22469854D01*
X21976271Y-22469854D02*
X21995319Y-22488901D01*
X21995319Y-22488901D02*
X22004843Y-22507949D01*
X22004843Y-22507949D02*
X22014366Y-22546044D01*
X22014366Y-22546044D02*
X22014366Y-22574616D01*
X22014366Y-22574616D02*
X22004843Y-22612711D01*
X22004843Y-22612711D02*
X21995319Y-22631758D01*
X21995319Y-22631758D02*
X21976271Y-22650806D01*
X21976271Y-22650806D02*
X21947700Y-22660330D01*
X21947700Y-22660330D02*
X21900081Y-22660330D01*
X22100081Y-22660330D02*
X22100081Y-22526996D01*
X22100081Y-22565092D02*
X22109605Y-22546044D01*
X22109605Y-22546044D02*
X22119128Y-22536520D01*
X22119128Y-22536520D02*
X22138176Y-22526996D01*
X22138176Y-22526996D02*
X22157224Y-22526996D01*
X22223890Y-22660330D02*
X22223890Y-22526996D01*
X22223890Y-22460330D02*
X22214366Y-22469854D01*
X22214366Y-22469854D02*
X22223890Y-22479377D01*
X22223890Y-22479377D02*
X22233414Y-22469854D01*
X22233414Y-22469854D02*
X22223890Y-22460330D01*
X22223890Y-22460330D02*
X22223890Y-22479377D01*
X22347700Y-22660330D02*
X22328652Y-22650806D01*
X22328652Y-22650806D02*
X22319128Y-22631758D01*
X22319128Y-22631758D02*
X22319128Y-22460330D01*
X22452462Y-22660330D02*
X22433414Y-22650806D01*
X22433414Y-22650806D02*
X22423890Y-22631758D01*
X22423890Y-22631758D02*
X22423890Y-22460330D01*
X22681033Y-22660330D02*
X22681033Y-22460330D01*
X22681033Y-22460330D02*
X22747700Y-22603187D01*
X22747700Y-22603187D02*
X22814366Y-22460330D01*
X22814366Y-22460330D02*
X22814366Y-22660330D01*
X22995319Y-22660330D02*
X22995319Y-22555568D01*
X22995319Y-22555568D02*
X22985795Y-22536520D01*
X22985795Y-22536520D02*
X22966747Y-22526996D01*
X22966747Y-22526996D02*
X22928652Y-22526996D01*
X22928652Y-22526996D02*
X22909604Y-22536520D01*
X22995319Y-22650806D02*
X22976271Y-22660330D01*
X22976271Y-22660330D02*
X22928652Y-22660330D01*
X22928652Y-22660330D02*
X22909604Y-22650806D01*
X22909604Y-22650806D02*
X22900081Y-22631758D01*
X22900081Y-22631758D02*
X22900081Y-22612711D01*
X22900081Y-22612711D02*
X22909604Y-22593663D01*
X22909604Y-22593663D02*
X22928652Y-22584139D01*
X22928652Y-22584139D02*
X22976271Y-22584139D01*
X22976271Y-22584139D02*
X22995319Y-22574616D01*
X23090557Y-22526996D02*
X23090557Y-22726996D01*
X23090557Y-22536520D02*
X23109604Y-22526996D01*
X23109604Y-22526996D02*
X23147700Y-22526996D01*
X23147700Y-22526996D02*
X23166747Y-22536520D01*
X23166747Y-22536520D02*
X23176271Y-22546044D01*
X23176271Y-22546044D02*
X23185795Y-22565092D01*
X23185795Y-22565092D02*
X23185795Y-22622235D01*
X23185795Y-22622235D02*
X23176271Y-22641282D01*
X23176271Y-22641282D02*
X23166747Y-22650806D01*
X23166747Y-22650806D02*
X23147700Y-22660330D01*
X23147700Y-22660330D02*
X23109604Y-22660330D01*
X23109604Y-22660330D02*
X23090557Y-22650806D01*
X23271509Y-22641282D02*
X23281033Y-22650806D01*
X23281033Y-22650806D02*
X23271509Y-22660330D01*
X23271509Y-22660330D02*
X23261985Y-22650806D01*
X23261985Y-22650806D02*
X23271509Y-22641282D01*
X23271509Y-22641282D02*
X23271509Y-22660330D01*
X23271509Y-22536520D02*
X23281033Y-22546044D01*
X23281033Y-22546044D02*
X23271509Y-22555568D01*
X23271509Y-22555568D02*
X23261985Y-22546044D01*
X23261985Y-22546044D02*
X23271509Y-22536520D01*
X23271509Y-22536520D02*
X23271509Y-22555568D01*
D12*
X21564304Y-22951346D02*
X21639304Y-23026346D01*
X21639304Y-22951346D02*
X21564304Y-23026346D01*
D11*
X21938176Y-22880330D02*
X21957224Y-22880330D01*
X21957224Y-22880330D02*
X21976271Y-22889854D01*
X21976271Y-22889854D02*
X21985795Y-22899377D01*
X21985795Y-22899377D02*
X21995319Y-22918425D01*
X21995319Y-22918425D02*
X22004843Y-22956520D01*
X22004843Y-22956520D02*
X22004843Y-23004139D01*
X22004843Y-23004139D02*
X21995319Y-23042235D01*
X21995319Y-23042235D02*
X21985795Y-23061282D01*
X21985795Y-23061282D02*
X21976271Y-23070806D01*
X21976271Y-23070806D02*
X21957224Y-23080330D01*
X21957224Y-23080330D02*
X21938176Y-23080330D01*
X21938176Y-23080330D02*
X21919128Y-23070806D01*
X21919128Y-23070806D02*
X21909605Y-23061282D01*
X21909605Y-23061282D02*
X21900081Y-23042235D01*
X21900081Y-23042235D02*
X21890557Y-23004139D01*
X21890557Y-23004139D02*
X21890557Y-22956520D01*
X21890557Y-22956520D02*
X21900081Y-22918425D01*
X21900081Y-22918425D02*
X21909605Y-22899377D01*
X21909605Y-22899377D02*
X21919128Y-22889854D01*
X21919128Y-22889854D02*
X21938176Y-22880330D01*
X22090557Y-23061282D02*
X22100081Y-23070806D01*
X22100081Y-23070806D02*
X22090557Y-23080330D01*
X22090557Y-23080330D02*
X22081033Y-23070806D01*
X22081033Y-23070806D02*
X22090557Y-23061282D01*
X22090557Y-23061282D02*
X22090557Y-23080330D01*
X22166747Y-22880330D02*
X22300081Y-22880330D01*
X22300081Y-22880330D02*
X22214366Y-23080330D01*
X22471509Y-22880330D02*
X22376271Y-22880330D01*
X22376271Y-22880330D02*
X22366747Y-22975568D01*
X22366747Y-22975568D02*
X22376271Y-22966044D01*
X22376271Y-22966044D02*
X22395319Y-22956520D01*
X22395319Y-22956520D02*
X22442938Y-22956520D01*
X22442938Y-22956520D02*
X22461985Y-22966044D01*
X22461985Y-22966044D02*
X22471509Y-22975568D01*
X22471509Y-22975568D02*
X22481033Y-22994616D01*
X22481033Y-22994616D02*
X22481033Y-23042235D01*
X22481033Y-23042235D02*
X22471509Y-23061282D01*
X22471509Y-23061282D02*
X22461985Y-23070806D01*
X22461985Y-23070806D02*
X22442938Y-23080330D01*
X22442938Y-23080330D02*
X22395319Y-23080330D01*
X22395319Y-23080330D02*
X22376271Y-23070806D01*
X22376271Y-23070806D02*
X22366747Y-23061282D01*
X22604843Y-22880330D02*
X22623890Y-22880330D01*
X22623890Y-22880330D02*
X22642938Y-22889854D01*
X22642938Y-22889854D02*
X22652462Y-22899377D01*
X22652462Y-22899377D02*
X22661985Y-22918425D01*
X22661985Y-22918425D02*
X22671509Y-22956520D01*
X22671509Y-22956520D02*
X22671509Y-23004139D01*
X22671509Y-23004139D02*
X22661985Y-23042235D01*
X22661985Y-23042235D02*
X22652462Y-23061282D01*
X22652462Y-23061282D02*
X22642938Y-23070806D01*
X22642938Y-23070806D02*
X22623890Y-23080330D01*
X22623890Y-23080330D02*
X22604843Y-23080330D01*
X22604843Y-23080330D02*
X22585795Y-23070806D01*
X22585795Y-23070806D02*
X22576271Y-23061282D01*
X22576271Y-23061282D02*
X22566747Y-23042235D01*
X22566747Y-23042235D02*
X22557224Y-23004139D01*
X22557224Y-23004139D02*
X22557224Y-22956520D01*
X22557224Y-22956520D02*
X22566747Y-22918425D01*
X22566747Y-22918425D02*
X22576271Y-22899377D01*
X22576271Y-22899377D02*
X22585795Y-22889854D01*
X22585795Y-22889854D02*
X22604843Y-22880330D01*
X22757224Y-23080330D02*
X22757224Y-22946996D01*
X22757224Y-22966044D02*
X22766747Y-22956520D01*
X22766747Y-22956520D02*
X22785795Y-22946996D01*
X22785795Y-22946996D02*
X22814366Y-22946996D01*
X22814366Y-22946996D02*
X22833414Y-22956520D01*
X22833414Y-22956520D02*
X22842938Y-22975568D01*
X22842938Y-22975568D02*
X22842938Y-23080330D01*
X22842938Y-22975568D02*
X22852462Y-22956520D01*
X22852462Y-22956520D02*
X22871509Y-22946996D01*
X22871509Y-22946996D02*
X22900081Y-22946996D01*
X22900081Y-22946996D02*
X22919128Y-22956520D01*
X22919128Y-22956520D02*
X22928652Y-22975568D01*
X22928652Y-22975568D02*
X22928652Y-23080330D01*
X23023890Y-23080330D02*
X23023890Y-22946996D01*
X23023890Y-22966044D02*
X23033414Y-22956520D01*
X23033414Y-22956520D02*
X23052462Y-22946996D01*
X23052462Y-22946996D02*
X23081033Y-22946996D01*
X23081033Y-22946996D02*
X23100081Y-22956520D01*
X23100081Y-22956520D02*
X23109605Y-22975568D01*
X23109605Y-22975568D02*
X23109605Y-23080330D01*
X23109605Y-22975568D02*
X23119128Y-22956520D01*
X23119128Y-22956520D02*
X23138176Y-22946996D01*
X23138176Y-22946996D02*
X23166747Y-22946996D01*
X23166747Y-22946996D02*
X23185795Y-22956520D01*
X23185795Y-22956520D02*
X23195319Y-22975568D01*
X23195319Y-22975568D02*
X23195319Y-23080330D01*
X23585795Y-22870806D02*
X23414367Y-23127949D01*
X23842938Y-22880330D02*
X23861986Y-22880330D01*
X23861986Y-22880330D02*
X23881033Y-22889854D01*
X23881033Y-22889854D02*
X23890557Y-22899377D01*
X23890557Y-22899377D02*
X23900081Y-22918425D01*
X23900081Y-22918425D02*
X23909605Y-22956520D01*
X23909605Y-22956520D02*
X23909605Y-23004139D01*
X23909605Y-23004139D02*
X23900081Y-23042235D01*
X23900081Y-23042235D02*
X23890557Y-23061282D01*
X23890557Y-23061282D02*
X23881033Y-23070806D01*
X23881033Y-23070806D02*
X23861986Y-23080330D01*
X23861986Y-23080330D02*
X23842938Y-23080330D01*
X23842938Y-23080330D02*
X23823890Y-23070806D01*
X23823890Y-23070806D02*
X23814367Y-23061282D01*
X23814367Y-23061282D02*
X23804843Y-23042235D01*
X23804843Y-23042235D02*
X23795319Y-23004139D01*
X23795319Y-23004139D02*
X23795319Y-22956520D01*
X23795319Y-22956520D02*
X23804843Y-22918425D01*
X23804843Y-22918425D02*
X23814367Y-22899377D01*
X23814367Y-22899377D02*
X23823890Y-22889854D01*
X23823890Y-22889854D02*
X23842938Y-22880330D01*
X23995319Y-23061282D02*
X24004843Y-23070806D01*
X24004843Y-23070806D02*
X23995319Y-23080330D01*
X23995319Y-23080330D02*
X23985795Y-23070806D01*
X23985795Y-23070806D02*
X23995319Y-23061282D01*
X23995319Y-23061282D02*
X23995319Y-23080330D01*
X24128652Y-22880330D02*
X24147700Y-22880330D01*
X24147700Y-22880330D02*
X24166748Y-22889854D01*
X24166748Y-22889854D02*
X24176271Y-22899377D01*
X24176271Y-22899377D02*
X24185795Y-22918425D01*
X24185795Y-22918425D02*
X24195319Y-22956520D01*
X24195319Y-22956520D02*
X24195319Y-23004139D01*
X24195319Y-23004139D02*
X24185795Y-23042235D01*
X24185795Y-23042235D02*
X24176271Y-23061282D01*
X24176271Y-23061282D02*
X24166748Y-23070806D01*
X24166748Y-23070806D02*
X24147700Y-23080330D01*
X24147700Y-23080330D02*
X24128652Y-23080330D01*
X24128652Y-23080330D02*
X24109605Y-23070806D01*
X24109605Y-23070806D02*
X24100081Y-23061282D01*
X24100081Y-23061282D02*
X24090557Y-23042235D01*
X24090557Y-23042235D02*
X24081033Y-23004139D01*
X24081033Y-23004139D02*
X24081033Y-22956520D01*
X24081033Y-22956520D02*
X24090557Y-22918425D01*
X24090557Y-22918425D02*
X24100081Y-22899377D01*
X24100081Y-22899377D02*
X24109605Y-22889854D01*
X24109605Y-22889854D02*
X24128652Y-22880330D01*
X24271509Y-22899377D02*
X24281033Y-22889854D01*
X24281033Y-22889854D02*
X24300081Y-22880330D01*
X24300081Y-22880330D02*
X24347700Y-22880330D01*
X24347700Y-22880330D02*
X24366748Y-22889854D01*
X24366748Y-22889854D02*
X24376271Y-22899377D01*
X24376271Y-22899377D02*
X24385795Y-22918425D01*
X24385795Y-22918425D02*
X24385795Y-22937473D01*
X24385795Y-22937473D02*
X24376271Y-22966044D01*
X24376271Y-22966044D02*
X24261986Y-23080330D01*
X24261986Y-23080330D02*
X24385795Y-23080330D01*
X24481033Y-23080330D02*
X24519128Y-23080330D01*
X24519128Y-23080330D02*
X24538176Y-23070806D01*
X24538176Y-23070806D02*
X24547700Y-23061282D01*
X24547700Y-23061282D02*
X24566748Y-23032711D01*
X24566748Y-23032711D02*
X24576271Y-22994616D01*
X24576271Y-22994616D02*
X24576271Y-22918425D01*
X24576271Y-22918425D02*
X24566748Y-22899377D01*
X24566748Y-22899377D02*
X24557224Y-22889854D01*
X24557224Y-22889854D02*
X24538176Y-22880330D01*
X24538176Y-22880330D02*
X24500081Y-22880330D01*
X24500081Y-22880330D02*
X24481033Y-22889854D01*
X24481033Y-22889854D02*
X24471509Y-22899377D01*
X24471509Y-22899377D02*
X24461986Y-22918425D01*
X24461986Y-22918425D02*
X24461986Y-22966044D01*
X24461986Y-22966044D02*
X24471509Y-22985092D01*
X24471509Y-22985092D02*
X24481033Y-22994616D01*
X24481033Y-22994616D02*
X24500081Y-23004139D01*
X24500081Y-23004139D02*
X24538176Y-23004139D01*
X24538176Y-23004139D02*
X24557224Y-22994616D01*
X24557224Y-22994616D02*
X24566748Y-22985092D01*
X24566748Y-22985092D02*
X24576271Y-22966044D01*
X24757224Y-22880330D02*
X24661986Y-22880330D01*
X24661986Y-22880330D02*
X24652462Y-22975568D01*
X24652462Y-22975568D02*
X24661986Y-22966044D01*
X24661986Y-22966044D02*
X24681033Y-22956520D01*
X24681033Y-22956520D02*
X24728652Y-22956520D01*
X24728652Y-22956520D02*
X24747700Y-22966044D01*
X24747700Y-22966044D02*
X24757224Y-22975568D01*
X24757224Y-22975568D02*
X24766748Y-22994616D01*
X24766748Y-22994616D02*
X24766748Y-23042235D01*
X24766748Y-23042235D02*
X24757224Y-23061282D01*
X24757224Y-23061282D02*
X24747700Y-23070806D01*
X24747700Y-23070806D02*
X24728652Y-23080330D01*
X24728652Y-23080330D02*
X24681033Y-23080330D01*
X24681033Y-23080330D02*
X24661986Y-23070806D01*
X24661986Y-23070806D02*
X24652462Y-23061282D01*
X24842938Y-22880330D02*
X24842938Y-22918425D01*
X24919129Y-22880330D02*
X24919129Y-22918425D01*
X25214367Y-23156520D02*
X25204843Y-23146996D01*
X25204843Y-23146996D02*
X25185795Y-23118425D01*
X25185795Y-23118425D02*
X25176271Y-23099377D01*
X25176271Y-23099377D02*
X25166748Y-23070806D01*
X25166748Y-23070806D02*
X25157224Y-23023187D01*
X25157224Y-23023187D02*
X25157224Y-22985092D01*
X25157224Y-22985092D02*
X25166748Y-22937473D01*
X25166748Y-22937473D02*
X25176271Y-22908901D01*
X25176271Y-22908901D02*
X25185795Y-22889854D01*
X25185795Y-22889854D02*
X25204843Y-22861282D01*
X25204843Y-22861282D02*
X25214367Y-22851758D01*
X25281033Y-22899377D02*
X25290557Y-22889854D01*
X25290557Y-22889854D02*
X25309605Y-22880330D01*
X25309605Y-22880330D02*
X25357224Y-22880330D01*
X25357224Y-22880330D02*
X25376271Y-22889854D01*
X25376271Y-22889854D02*
X25385795Y-22899377D01*
X25385795Y-22899377D02*
X25395319Y-22918425D01*
X25395319Y-22918425D02*
X25395319Y-22937473D01*
X25395319Y-22937473D02*
X25385795Y-22966044D01*
X25385795Y-22966044D02*
X25271510Y-23080330D01*
X25271510Y-23080330D02*
X25395319Y-23080330D01*
X25633414Y-23080330D02*
X25633414Y-22880330D01*
X25719129Y-23080330D02*
X25719129Y-22975568D01*
X25719129Y-22975568D02*
X25709605Y-22956520D01*
X25709605Y-22956520D02*
X25690557Y-22946996D01*
X25690557Y-22946996D02*
X25661986Y-22946996D01*
X25661986Y-22946996D02*
X25642938Y-22956520D01*
X25642938Y-22956520D02*
X25633414Y-22966044D01*
X25842938Y-23080330D02*
X25823891Y-23070806D01*
X25823891Y-23070806D02*
X25814367Y-23061282D01*
X25814367Y-23061282D02*
X25804843Y-23042235D01*
X25804843Y-23042235D02*
X25804843Y-22985092D01*
X25804843Y-22985092D02*
X25814367Y-22966044D01*
X25814367Y-22966044D02*
X25823891Y-22956520D01*
X25823891Y-22956520D02*
X25842938Y-22946996D01*
X25842938Y-22946996D02*
X25871510Y-22946996D01*
X25871510Y-22946996D02*
X25890557Y-22956520D01*
X25890557Y-22956520D02*
X25900081Y-22966044D01*
X25900081Y-22966044D02*
X25909605Y-22985092D01*
X25909605Y-22985092D02*
X25909605Y-23042235D01*
X25909605Y-23042235D02*
X25900081Y-23061282D01*
X25900081Y-23061282D02*
X25890557Y-23070806D01*
X25890557Y-23070806D02*
X25871510Y-23080330D01*
X25871510Y-23080330D02*
X25842938Y-23080330D01*
X26023891Y-23080330D02*
X26004843Y-23070806D01*
X26004843Y-23070806D02*
X25995319Y-23051758D01*
X25995319Y-23051758D02*
X25995319Y-22880330D01*
X26176272Y-23070806D02*
X26157224Y-23080330D01*
X26157224Y-23080330D02*
X26119129Y-23080330D01*
X26119129Y-23080330D02*
X26100081Y-23070806D01*
X26100081Y-23070806D02*
X26090557Y-23051758D01*
X26090557Y-23051758D02*
X26090557Y-22975568D01*
X26090557Y-22975568D02*
X26100081Y-22956520D01*
X26100081Y-22956520D02*
X26119129Y-22946996D01*
X26119129Y-22946996D02*
X26157224Y-22946996D01*
X26157224Y-22946996D02*
X26176272Y-22956520D01*
X26176272Y-22956520D02*
X26185795Y-22975568D01*
X26185795Y-22975568D02*
X26185795Y-22994616D01*
X26185795Y-22994616D02*
X26090557Y-23013663D01*
X26261986Y-23070806D02*
X26281033Y-23080330D01*
X26281033Y-23080330D02*
X26319129Y-23080330D01*
X26319129Y-23080330D02*
X26338176Y-23070806D01*
X26338176Y-23070806D02*
X26347700Y-23051758D01*
X26347700Y-23051758D02*
X26347700Y-23042235D01*
X26347700Y-23042235D02*
X26338176Y-23023187D01*
X26338176Y-23023187D02*
X26319129Y-23013663D01*
X26319129Y-23013663D02*
X26290557Y-23013663D01*
X26290557Y-23013663D02*
X26271510Y-23004139D01*
X26271510Y-23004139D02*
X26261986Y-22985092D01*
X26261986Y-22985092D02*
X26261986Y-22975568D01*
X26261986Y-22975568D02*
X26271510Y-22956520D01*
X26271510Y-22956520D02*
X26290557Y-22946996D01*
X26290557Y-22946996D02*
X26319129Y-22946996D01*
X26319129Y-22946996D02*
X26338176Y-22956520D01*
X26414367Y-23156520D02*
X26423891Y-23146996D01*
X26423891Y-23146996D02*
X26442938Y-23118425D01*
X26442938Y-23118425D02*
X26452462Y-23099377D01*
X26452462Y-23099377D02*
X26461986Y-23070806D01*
X26461986Y-23070806D02*
X26471510Y-23023187D01*
X26471510Y-23023187D02*
X26471510Y-22985092D01*
X26471510Y-22985092D02*
X26461986Y-22937473D01*
X26461986Y-22937473D02*
X26452462Y-22908901D01*
X26452462Y-22908901D02*
X26442938Y-22889854D01*
X26442938Y-22889854D02*
X26423891Y-22861282D01*
X26423891Y-22861282D02*
X26414367Y-22851758D01*
X26776272Y-23156520D02*
X26766748Y-23146996D01*
X26766748Y-23146996D02*
X26747700Y-23118425D01*
X26747700Y-23118425D02*
X26738176Y-23099377D01*
X26738176Y-23099377D02*
X26728653Y-23070806D01*
X26728653Y-23070806D02*
X26719129Y-23023187D01*
X26719129Y-23023187D02*
X26719129Y-22985092D01*
X26719129Y-22985092D02*
X26728653Y-22937473D01*
X26728653Y-22937473D02*
X26738176Y-22908901D01*
X26738176Y-22908901D02*
X26747700Y-22889854D01*
X26747700Y-22889854D02*
X26766748Y-22861282D01*
X26766748Y-22861282D02*
X26776272Y-22851758D01*
X26852462Y-22946996D02*
X26852462Y-23080330D01*
X26852462Y-22966044D02*
X26861986Y-22956520D01*
X26861986Y-22956520D02*
X26881033Y-22946996D01*
X26881033Y-22946996D02*
X26909605Y-22946996D01*
X26909605Y-22946996D02*
X26928653Y-22956520D01*
X26928653Y-22956520D02*
X26938176Y-22975568D01*
X26938176Y-22975568D02*
X26938176Y-23080330D01*
X27061986Y-23080330D02*
X27042938Y-23070806D01*
X27042938Y-23070806D02*
X27033414Y-23061282D01*
X27033414Y-23061282D02*
X27023891Y-23042235D01*
X27023891Y-23042235D02*
X27023891Y-22985092D01*
X27023891Y-22985092D02*
X27033414Y-22966044D01*
X27033414Y-22966044D02*
X27042938Y-22956520D01*
X27042938Y-22956520D02*
X27061986Y-22946996D01*
X27061986Y-22946996D02*
X27090557Y-22946996D01*
X27090557Y-22946996D02*
X27109605Y-22956520D01*
X27109605Y-22956520D02*
X27119129Y-22966044D01*
X27119129Y-22966044D02*
X27128653Y-22985092D01*
X27128653Y-22985092D02*
X27128653Y-23042235D01*
X27128653Y-23042235D02*
X27119129Y-23061282D01*
X27119129Y-23061282D02*
X27109605Y-23070806D01*
X27109605Y-23070806D02*
X27090557Y-23080330D01*
X27090557Y-23080330D02*
X27061986Y-23080330D01*
X27185795Y-22946996D02*
X27261986Y-22946996D01*
X27214367Y-22880330D02*
X27214367Y-23051758D01*
X27214367Y-23051758D02*
X27223891Y-23070806D01*
X27223891Y-23070806D02*
X27242938Y-23080330D01*
X27242938Y-23080330D02*
X27261986Y-23080330D01*
X27481034Y-22946996D02*
X27481034Y-23146996D01*
X27481034Y-22956520D02*
X27500081Y-22946996D01*
X27500081Y-22946996D02*
X27538176Y-22946996D01*
X27538176Y-22946996D02*
X27557224Y-22956520D01*
X27557224Y-22956520D02*
X27566748Y-22966044D01*
X27566748Y-22966044D02*
X27576272Y-22985092D01*
X27576272Y-22985092D02*
X27576272Y-23042235D01*
X27576272Y-23042235D02*
X27566748Y-23061282D01*
X27566748Y-23061282D02*
X27557224Y-23070806D01*
X27557224Y-23070806D02*
X27538176Y-23080330D01*
X27538176Y-23080330D02*
X27500081Y-23080330D01*
X27500081Y-23080330D02*
X27481034Y-23070806D01*
X27690557Y-23080330D02*
X27671510Y-23070806D01*
X27671510Y-23070806D02*
X27661986Y-23051758D01*
X27661986Y-23051758D02*
X27661986Y-22880330D01*
X27852462Y-23080330D02*
X27852462Y-22975568D01*
X27852462Y-22975568D02*
X27842938Y-22956520D01*
X27842938Y-22956520D02*
X27823891Y-22946996D01*
X27823891Y-22946996D02*
X27785795Y-22946996D01*
X27785795Y-22946996D02*
X27766748Y-22956520D01*
X27852462Y-23070806D02*
X27833415Y-23080330D01*
X27833415Y-23080330D02*
X27785795Y-23080330D01*
X27785795Y-23080330D02*
X27766748Y-23070806D01*
X27766748Y-23070806D02*
X27757224Y-23051758D01*
X27757224Y-23051758D02*
X27757224Y-23032711D01*
X27757224Y-23032711D02*
X27766748Y-23013663D01*
X27766748Y-23013663D02*
X27785795Y-23004139D01*
X27785795Y-23004139D02*
X27833415Y-23004139D01*
X27833415Y-23004139D02*
X27852462Y-22994616D01*
X27919129Y-22946996D02*
X27995319Y-22946996D01*
X27947700Y-22880330D02*
X27947700Y-23051758D01*
X27947700Y-23051758D02*
X27957224Y-23070806D01*
X27957224Y-23070806D02*
X27976272Y-23080330D01*
X27976272Y-23080330D02*
X27995319Y-23080330D01*
X28138176Y-23070806D02*
X28119129Y-23080330D01*
X28119129Y-23080330D02*
X28081034Y-23080330D01*
X28081034Y-23080330D02*
X28061986Y-23070806D01*
X28061986Y-23070806D02*
X28052462Y-23051758D01*
X28052462Y-23051758D02*
X28052462Y-22975568D01*
X28052462Y-22975568D02*
X28061986Y-22956520D01*
X28061986Y-22956520D02*
X28081034Y-22946996D01*
X28081034Y-22946996D02*
X28119129Y-22946996D01*
X28119129Y-22946996D02*
X28138176Y-22956520D01*
X28138176Y-22956520D02*
X28147700Y-22975568D01*
X28147700Y-22975568D02*
X28147700Y-22994616D01*
X28147700Y-22994616D02*
X28052462Y-23013663D01*
X28319129Y-23080330D02*
X28319129Y-22880330D01*
X28319129Y-23070806D02*
X28300081Y-23080330D01*
X28300081Y-23080330D02*
X28261986Y-23080330D01*
X28261986Y-23080330D02*
X28242938Y-23070806D01*
X28242938Y-23070806D02*
X28233415Y-23061282D01*
X28233415Y-23061282D02*
X28223891Y-23042235D01*
X28223891Y-23042235D02*
X28223891Y-22985092D01*
X28223891Y-22985092D02*
X28233415Y-22966044D01*
X28233415Y-22966044D02*
X28242938Y-22956520D01*
X28242938Y-22956520D02*
X28261986Y-22946996D01*
X28261986Y-22946996D02*
X28300081Y-22946996D01*
X28300081Y-22946996D02*
X28319129Y-22956520D01*
X28395319Y-23156520D02*
X28404843Y-23146996D01*
X28404843Y-23146996D02*
X28423891Y-23118425D01*
X28423891Y-23118425D02*
X28433415Y-23099377D01*
X28433415Y-23099377D02*
X28442938Y-23070806D01*
X28442938Y-23070806D02*
X28452462Y-23023187D01*
X28452462Y-23023187D02*
X28452462Y-22985092D01*
X28452462Y-22985092D02*
X28442938Y-22937473D01*
X28442938Y-22937473D02*
X28433415Y-22908901D01*
X28433415Y-22908901D02*
X28423891Y-22889854D01*
X28423891Y-22889854D02*
X28404843Y-22861282D01*
X28404843Y-22861282D02*
X28395319Y-22851758D01*
D12*
X21639304Y-23252846D02*
G75*
G02*
X21549304Y-23252846I-45000J0D01*
G01*
X21549304Y-23252846D02*
G75*
G02*
X21639304Y-23252846I45000J0D01*
G01*
D11*
X21938176Y-23144330D02*
X21957224Y-23144330D01*
X21957224Y-23144330D02*
X21976271Y-23153854D01*
X21976271Y-23153854D02*
X21985795Y-23163377D01*
X21985795Y-23163377D02*
X21995319Y-23182425D01*
X21995319Y-23182425D02*
X22004843Y-23220520D01*
X22004843Y-23220520D02*
X22004843Y-23268139D01*
X22004843Y-23268139D02*
X21995319Y-23306235D01*
X21995319Y-23306235D02*
X21985795Y-23325282D01*
X21985795Y-23325282D02*
X21976271Y-23334806D01*
X21976271Y-23334806D02*
X21957224Y-23344330D01*
X21957224Y-23344330D02*
X21938176Y-23344330D01*
X21938176Y-23344330D02*
X21919128Y-23334806D01*
X21919128Y-23334806D02*
X21909605Y-23325282D01*
X21909605Y-23325282D02*
X21900081Y-23306235D01*
X21900081Y-23306235D02*
X21890557Y-23268139D01*
X21890557Y-23268139D02*
X21890557Y-23220520D01*
X21890557Y-23220520D02*
X21900081Y-23182425D01*
X21900081Y-23182425D02*
X21909605Y-23163377D01*
X21909605Y-23163377D02*
X21919128Y-23153854D01*
X21919128Y-23153854D02*
X21938176Y-23144330D01*
X22090557Y-23325282D02*
X22100081Y-23334806D01*
X22100081Y-23334806D02*
X22090557Y-23344330D01*
X22090557Y-23344330D02*
X22081033Y-23334806D01*
X22081033Y-23334806D02*
X22090557Y-23325282D01*
X22090557Y-23325282D02*
X22090557Y-23344330D01*
X22195319Y-23344330D02*
X22233414Y-23344330D01*
X22233414Y-23344330D02*
X22252462Y-23334806D01*
X22252462Y-23334806D02*
X22261986Y-23325282D01*
X22261986Y-23325282D02*
X22281033Y-23296711D01*
X22281033Y-23296711D02*
X22290557Y-23258616D01*
X22290557Y-23258616D02*
X22290557Y-23182425D01*
X22290557Y-23182425D02*
X22281033Y-23163377D01*
X22281033Y-23163377D02*
X22271509Y-23153854D01*
X22271509Y-23153854D02*
X22252462Y-23144330D01*
X22252462Y-23144330D02*
X22214366Y-23144330D01*
X22214366Y-23144330D02*
X22195319Y-23153854D01*
X22195319Y-23153854D02*
X22185795Y-23163377D01*
X22185795Y-23163377D02*
X22176271Y-23182425D01*
X22176271Y-23182425D02*
X22176271Y-23230044D01*
X22176271Y-23230044D02*
X22185795Y-23249092D01*
X22185795Y-23249092D02*
X22195319Y-23258616D01*
X22195319Y-23258616D02*
X22214366Y-23268139D01*
X22214366Y-23268139D02*
X22252462Y-23268139D01*
X22252462Y-23268139D02*
X22271509Y-23258616D01*
X22271509Y-23258616D02*
X22281033Y-23249092D01*
X22281033Y-23249092D02*
X22290557Y-23230044D01*
X22414366Y-23144330D02*
X22433414Y-23144330D01*
X22433414Y-23144330D02*
X22452462Y-23153854D01*
X22452462Y-23153854D02*
X22461985Y-23163377D01*
X22461985Y-23163377D02*
X22471509Y-23182425D01*
X22471509Y-23182425D02*
X22481033Y-23220520D01*
X22481033Y-23220520D02*
X22481033Y-23268139D01*
X22481033Y-23268139D02*
X22471509Y-23306235D01*
X22471509Y-23306235D02*
X22461985Y-23325282D01*
X22461985Y-23325282D02*
X22452462Y-23334806D01*
X22452462Y-23334806D02*
X22433414Y-23344330D01*
X22433414Y-23344330D02*
X22414366Y-23344330D01*
X22414366Y-23344330D02*
X22395319Y-23334806D01*
X22395319Y-23334806D02*
X22385795Y-23325282D01*
X22385795Y-23325282D02*
X22376271Y-23306235D01*
X22376271Y-23306235D02*
X22366747Y-23268139D01*
X22366747Y-23268139D02*
X22366747Y-23220520D01*
X22366747Y-23220520D02*
X22376271Y-23182425D01*
X22376271Y-23182425D02*
X22385795Y-23163377D01*
X22385795Y-23163377D02*
X22395319Y-23153854D01*
X22395319Y-23153854D02*
X22414366Y-23144330D01*
X22604843Y-23144330D02*
X22623890Y-23144330D01*
X22623890Y-23144330D02*
X22642938Y-23153854D01*
X22642938Y-23153854D02*
X22652462Y-23163377D01*
X22652462Y-23163377D02*
X22661985Y-23182425D01*
X22661985Y-23182425D02*
X22671509Y-23220520D01*
X22671509Y-23220520D02*
X22671509Y-23268139D01*
X22671509Y-23268139D02*
X22661985Y-23306235D01*
X22661985Y-23306235D02*
X22652462Y-23325282D01*
X22652462Y-23325282D02*
X22642938Y-23334806D01*
X22642938Y-23334806D02*
X22623890Y-23344330D01*
X22623890Y-23344330D02*
X22604843Y-23344330D01*
X22604843Y-23344330D02*
X22585795Y-23334806D01*
X22585795Y-23334806D02*
X22576271Y-23325282D01*
X22576271Y-23325282D02*
X22566747Y-23306235D01*
X22566747Y-23306235D02*
X22557224Y-23268139D01*
X22557224Y-23268139D02*
X22557224Y-23220520D01*
X22557224Y-23220520D02*
X22566747Y-23182425D01*
X22566747Y-23182425D02*
X22576271Y-23163377D01*
X22576271Y-23163377D02*
X22585795Y-23153854D01*
X22585795Y-23153854D02*
X22604843Y-23144330D01*
X22757224Y-23344330D02*
X22757224Y-23210996D01*
X22757224Y-23230044D02*
X22766747Y-23220520D01*
X22766747Y-23220520D02*
X22785795Y-23210996D01*
X22785795Y-23210996D02*
X22814366Y-23210996D01*
X22814366Y-23210996D02*
X22833414Y-23220520D01*
X22833414Y-23220520D02*
X22842938Y-23239568D01*
X22842938Y-23239568D02*
X22842938Y-23344330D01*
X22842938Y-23239568D02*
X22852462Y-23220520D01*
X22852462Y-23220520D02*
X22871509Y-23210996D01*
X22871509Y-23210996D02*
X22900081Y-23210996D01*
X22900081Y-23210996D02*
X22919128Y-23220520D01*
X22919128Y-23220520D02*
X22928652Y-23239568D01*
X22928652Y-23239568D02*
X22928652Y-23344330D01*
X23023890Y-23344330D02*
X23023890Y-23210996D01*
X23023890Y-23230044D02*
X23033414Y-23220520D01*
X23033414Y-23220520D02*
X23052462Y-23210996D01*
X23052462Y-23210996D02*
X23081033Y-23210996D01*
X23081033Y-23210996D02*
X23100081Y-23220520D01*
X23100081Y-23220520D02*
X23109605Y-23239568D01*
X23109605Y-23239568D02*
X23109605Y-23344330D01*
X23109605Y-23239568D02*
X23119128Y-23220520D01*
X23119128Y-23220520D02*
X23138176Y-23210996D01*
X23138176Y-23210996D02*
X23166747Y-23210996D01*
X23166747Y-23210996D02*
X23185795Y-23220520D01*
X23185795Y-23220520D02*
X23195319Y-23239568D01*
X23195319Y-23239568D02*
X23195319Y-23344330D01*
X23585795Y-23134806D02*
X23414367Y-23391949D01*
X23842938Y-23144330D02*
X23861986Y-23144330D01*
X23861986Y-23144330D02*
X23881033Y-23153854D01*
X23881033Y-23153854D02*
X23890557Y-23163377D01*
X23890557Y-23163377D02*
X23900081Y-23182425D01*
X23900081Y-23182425D02*
X23909605Y-23220520D01*
X23909605Y-23220520D02*
X23909605Y-23268139D01*
X23909605Y-23268139D02*
X23900081Y-23306235D01*
X23900081Y-23306235D02*
X23890557Y-23325282D01*
X23890557Y-23325282D02*
X23881033Y-23334806D01*
X23881033Y-23334806D02*
X23861986Y-23344330D01*
X23861986Y-23344330D02*
X23842938Y-23344330D01*
X23842938Y-23344330D02*
X23823890Y-23334806D01*
X23823890Y-23334806D02*
X23814367Y-23325282D01*
X23814367Y-23325282D02*
X23804843Y-23306235D01*
X23804843Y-23306235D02*
X23795319Y-23268139D01*
X23795319Y-23268139D02*
X23795319Y-23220520D01*
X23795319Y-23220520D02*
X23804843Y-23182425D01*
X23804843Y-23182425D02*
X23814367Y-23163377D01*
X23814367Y-23163377D02*
X23823890Y-23153854D01*
X23823890Y-23153854D02*
X23842938Y-23144330D01*
X23995319Y-23325282D02*
X24004843Y-23334806D01*
X24004843Y-23334806D02*
X23995319Y-23344330D01*
X23995319Y-23344330D02*
X23985795Y-23334806D01*
X23985795Y-23334806D02*
X23995319Y-23325282D01*
X23995319Y-23325282D02*
X23995319Y-23344330D01*
X24128652Y-23144330D02*
X24147700Y-23144330D01*
X24147700Y-23144330D02*
X24166748Y-23153854D01*
X24166748Y-23153854D02*
X24176271Y-23163377D01*
X24176271Y-23163377D02*
X24185795Y-23182425D01*
X24185795Y-23182425D02*
X24195319Y-23220520D01*
X24195319Y-23220520D02*
X24195319Y-23268139D01*
X24195319Y-23268139D02*
X24185795Y-23306235D01*
X24185795Y-23306235D02*
X24176271Y-23325282D01*
X24176271Y-23325282D02*
X24166748Y-23334806D01*
X24166748Y-23334806D02*
X24147700Y-23344330D01*
X24147700Y-23344330D02*
X24128652Y-23344330D01*
X24128652Y-23344330D02*
X24109605Y-23334806D01*
X24109605Y-23334806D02*
X24100081Y-23325282D01*
X24100081Y-23325282D02*
X24090557Y-23306235D01*
X24090557Y-23306235D02*
X24081033Y-23268139D01*
X24081033Y-23268139D02*
X24081033Y-23220520D01*
X24081033Y-23220520D02*
X24090557Y-23182425D01*
X24090557Y-23182425D02*
X24100081Y-23163377D01*
X24100081Y-23163377D02*
X24109605Y-23153854D01*
X24109605Y-23153854D02*
X24128652Y-23144330D01*
X24261986Y-23144330D02*
X24385795Y-23144330D01*
X24385795Y-23144330D02*
X24319128Y-23220520D01*
X24319128Y-23220520D02*
X24347700Y-23220520D01*
X24347700Y-23220520D02*
X24366748Y-23230044D01*
X24366748Y-23230044D02*
X24376271Y-23239568D01*
X24376271Y-23239568D02*
X24385795Y-23258616D01*
X24385795Y-23258616D02*
X24385795Y-23306235D01*
X24385795Y-23306235D02*
X24376271Y-23325282D01*
X24376271Y-23325282D02*
X24366748Y-23334806D01*
X24366748Y-23334806D02*
X24347700Y-23344330D01*
X24347700Y-23344330D02*
X24290557Y-23344330D01*
X24290557Y-23344330D02*
X24271509Y-23334806D01*
X24271509Y-23334806D02*
X24261986Y-23325282D01*
X24566748Y-23144330D02*
X24471509Y-23144330D01*
X24471509Y-23144330D02*
X24461986Y-23239568D01*
X24461986Y-23239568D02*
X24471509Y-23230044D01*
X24471509Y-23230044D02*
X24490557Y-23220520D01*
X24490557Y-23220520D02*
X24538176Y-23220520D01*
X24538176Y-23220520D02*
X24557224Y-23230044D01*
X24557224Y-23230044D02*
X24566748Y-23239568D01*
X24566748Y-23239568D02*
X24576271Y-23258616D01*
X24576271Y-23258616D02*
X24576271Y-23306235D01*
X24576271Y-23306235D02*
X24566748Y-23325282D01*
X24566748Y-23325282D02*
X24557224Y-23334806D01*
X24557224Y-23334806D02*
X24538176Y-23344330D01*
X24538176Y-23344330D02*
X24490557Y-23344330D01*
X24490557Y-23344330D02*
X24471509Y-23334806D01*
X24471509Y-23334806D02*
X24461986Y-23325282D01*
X24747700Y-23210996D02*
X24747700Y-23344330D01*
X24700081Y-23134806D02*
X24652462Y-23277663D01*
X24652462Y-23277663D02*
X24776271Y-23277663D01*
X24842938Y-23144330D02*
X24842938Y-23182425D01*
X24919129Y-23144330D02*
X24919129Y-23182425D01*
X25214367Y-23420520D02*
X25204843Y-23410996D01*
X25204843Y-23410996D02*
X25185795Y-23382425D01*
X25185795Y-23382425D02*
X25176271Y-23363377D01*
X25176271Y-23363377D02*
X25166748Y-23334806D01*
X25166748Y-23334806D02*
X25157224Y-23287187D01*
X25157224Y-23287187D02*
X25157224Y-23249092D01*
X25157224Y-23249092D02*
X25166748Y-23201473D01*
X25166748Y-23201473D02*
X25176271Y-23172901D01*
X25176271Y-23172901D02*
X25185795Y-23153854D01*
X25185795Y-23153854D02*
X25204843Y-23125282D01*
X25204843Y-23125282D02*
X25214367Y-23115758D01*
X25281033Y-23163377D02*
X25290557Y-23153854D01*
X25290557Y-23153854D02*
X25309605Y-23144330D01*
X25309605Y-23144330D02*
X25357224Y-23144330D01*
X25357224Y-23144330D02*
X25376271Y-23153854D01*
X25376271Y-23153854D02*
X25385795Y-23163377D01*
X25385795Y-23163377D02*
X25395319Y-23182425D01*
X25395319Y-23182425D02*
X25395319Y-23201473D01*
X25395319Y-23201473D02*
X25385795Y-23230044D01*
X25385795Y-23230044D02*
X25271510Y-23344330D01*
X25271510Y-23344330D02*
X25395319Y-23344330D01*
X25633414Y-23344330D02*
X25633414Y-23144330D01*
X25719129Y-23344330D02*
X25719129Y-23239568D01*
X25719129Y-23239568D02*
X25709605Y-23220520D01*
X25709605Y-23220520D02*
X25690557Y-23210996D01*
X25690557Y-23210996D02*
X25661986Y-23210996D01*
X25661986Y-23210996D02*
X25642938Y-23220520D01*
X25642938Y-23220520D02*
X25633414Y-23230044D01*
X25842938Y-23344330D02*
X25823891Y-23334806D01*
X25823891Y-23334806D02*
X25814367Y-23325282D01*
X25814367Y-23325282D02*
X25804843Y-23306235D01*
X25804843Y-23306235D02*
X25804843Y-23249092D01*
X25804843Y-23249092D02*
X25814367Y-23230044D01*
X25814367Y-23230044D02*
X25823891Y-23220520D01*
X25823891Y-23220520D02*
X25842938Y-23210996D01*
X25842938Y-23210996D02*
X25871510Y-23210996D01*
X25871510Y-23210996D02*
X25890557Y-23220520D01*
X25890557Y-23220520D02*
X25900081Y-23230044D01*
X25900081Y-23230044D02*
X25909605Y-23249092D01*
X25909605Y-23249092D02*
X25909605Y-23306235D01*
X25909605Y-23306235D02*
X25900081Y-23325282D01*
X25900081Y-23325282D02*
X25890557Y-23334806D01*
X25890557Y-23334806D02*
X25871510Y-23344330D01*
X25871510Y-23344330D02*
X25842938Y-23344330D01*
X26023891Y-23344330D02*
X26004843Y-23334806D01*
X26004843Y-23334806D02*
X25995319Y-23315758D01*
X25995319Y-23315758D02*
X25995319Y-23144330D01*
X26176272Y-23334806D02*
X26157224Y-23344330D01*
X26157224Y-23344330D02*
X26119129Y-23344330D01*
X26119129Y-23344330D02*
X26100081Y-23334806D01*
X26100081Y-23334806D02*
X26090557Y-23315758D01*
X26090557Y-23315758D02*
X26090557Y-23239568D01*
X26090557Y-23239568D02*
X26100081Y-23220520D01*
X26100081Y-23220520D02*
X26119129Y-23210996D01*
X26119129Y-23210996D02*
X26157224Y-23210996D01*
X26157224Y-23210996D02*
X26176272Y-23220520D01*
X26176272Y-23220520D02*
X26185795Y-23239568D01*
X26185795Y-23239568D02*
X26185795Y-23258616D01*
X26185795Y-23258616D02*
X26090557Y-23277663D01*
X26261986Y-23334806D02*
X26281033Y-23344330D01*
X26281033Y-23344330D02*
X26319129Y-23344330D01*
X26319129Y-23344330D02*
X26338176Y-23334806D01*
X26338176Y-23334806D02*
X26347700Y-23315758D01*
X26347700Y-23315758D02*
X26347700Y-23306235D01*
X26347700Y-23306235D02*
X26338176Y-23287187D01*
X26338176Y-23287187D02*
X26319129Y-23277663D01*
X26319129Y-23277663D02*
X26290557Y-23277663D01*
X26290557Y-23277663D02*
X26271510Y-23268139D01*
X26271510Y-23268139D02*
X26261986Y-23249092D01*
X26261986Y-23249092D02*
X26261986Y-23239568D01*
X26261986Y-23239568D02*
X26271510Y-23220520D01*
X26271510Y-23220520D02*
X26290557Y-23210996D01*
X26290557Y-23210996D02*
X26319129Y-23210996D01*
X26319129Y-23210996D02*
X26338176Y-23220520D01*
X26414367Y-23420520D02*
X26423891Y-23410996D01*
X26423891Y-23410996D02*
X26442938Y-23382425D01*
X26442938Y-23382425D02*
X26452462Y-23363377D01*
X26452462Y-23363377D02*
X26461986Y-23334806D01*
X26461986Y-23334806D02*
X26471510Y-23287187D01*
X26471510Y-23287187D02*
X26471510Y-23249092D01*
X26471510Y-23249092D02*
X26461986Y-23201473D01*
X26461986Y-23201473D02*
X26452462Y-23172901D01*
X26452462Y-23172901D02*
X26442938Y-23153854D01*
X26442938Y-23153854D02*
X26423891Y-23125282D01*
X26423891Y-23125282D02*
X26414367Y-23115758D01*
X26776272Y-23420520D02*
X26766748Y-23410996D01*
X26766748Y-23410996D02*
X26747700Y-23382425D01*
X26747700Y-23382425D02*
X26738176Y-23363377D01*
X26738176Y-23363377D02*
X26728653Y-23334806D01*
X26728653Y-23334806D02*
X26719129Y-23287187D01*
X26719129Y-23287187D02*
X26719129Y-23249092D01*
X26719129Y-23249092D02*
X26728653Y-23201473D01*
X26728653Y-23201473D02*
X26738176Y-23172901D01*
X26738176Y-23172901D02*
X26747700Y-23153854D01*
X26747700Y-23153854D02*
X26766748Y-23125282D01*
X26766748Y-23125282D02*
X26776272Y-23115758D01*
X26852462Y-23210996D02*
X26852462Y-23344330D01*
X26852462Y-23230044D02*
X26861986Y-23220520D01*
X26861986Y-23220520D02*
X26881033Y-23210996D01*
X26881033Y-23210996D02*
X26909605Y-23210996D01*
X26909605Y-23210996D02*
X26928653Y-23220520D01*
X26928653Y-23220520D02*
X26938176Y-23239568D01*
X26938176Y-23239568D02*
X26938176Y-23344330D01*
X27061986Y-23344330D02*
X27042938Y-23334806D01*
X27042938Y-23334806D02*
X27033414Y-23325282D01*
X27033414Y-23325282D02*
X27023891Y-23306235D01*
X27023891Y-23306235D02*
X27023891Y-23249092D01*
X27023891Y-23249092D02*
X27033414Y-23230044D01*
X27033414Y-23230044D02*
X27042938Y-23220520D01*
X27042938Y-23220520D02*
X27061986Y-23210996D01*
X27061986Y-23210996D02*
X27090557Y-23210996D01*
X27090557Y-23210996D02*
X27109605Y-23220520D01*
X27109605Y-23220520D02*
X27119129Y-23230044D01*
X27119129Y-23230044D02*
X27128653Y-23249092D01*
X27128653Y-23249092D02*
X27128653Y-23306235D01*
X27128653Y-23306235D02*
X27119129Y-23325282D01*
X27119129Y-23325282D02*
X27109605Y-23334806D01*
X27109605Y-23334806D02*
X27090557Y-23344330D01*
X27090557Y-23344330D02*
X27061986Y-23344330D01*
X27185795Y-23210996D02*
X27261986Y-23210996D01*
X27214367Y-23144330D02*
X27214367Y-23315758D01*
X27214367Y-23315758D02*
X27223891Y-23334806D01*
X27223891Y-23334806D02*
X27242938Y-23344330D01*
X27242938Y-23344330D02*
X27261986Y-23344330D01*
X27481034Y-23210996D02*
X27481034Y-23410996D01*
X27481034Y-23220520D02*
X27500081Y-23210996D01*
X27500081Y-23210996D02*
X27538176Y-23210996D01*
X27538176Y-23210996D02*
X27557224Y-23220520D01*
X27557224Y-23220520D02*
X27566748Y-23230044D01*
X27566748Y-23230044D02*
X27576272Y-23249092D01*
X27576272Y-23249092D02*
X27576272Y-23306235D01*
X27576272Y-23306235D02*
X27566748Y-23325282D01*
X27566748Y-23325282D02*
X27557224Y-23334806D01*
X27557224Y-23334806D02*
X27538176Y-23344330D01*
X27538176Y-23344330D02*
X27500081Y-23344330D01*
X27500081Y-23344330D02*
X27481034Y-23334806D01*
X27690557Y-23344330D02*
X27671510Y-23334806D01*
X27671510Y-23334806D02*
X27661986Y-23315758D01*
X27661986Y-23315758D02*
X27661986Y-23144330D01*
X27852462Y-23344330D02*
X27852462Y-23239568D01*
X27852462Y-23239568D02*
X27842938Y-23220520D01*
X27842938Y-23220520D02*
X27823891Y-23210996D01*
X27823891Y-23210996D02*
X27785795Y-23210996D01*
X27785795Y-23210996D02*
X27766748Y-23220520D01*
X27852462Y-23334806D02*
X27833415Y-23344330D01*
X27833415Y-23344330D02*
X27785795Y-23344330D01*
X27785795Y-23344330D02*
X27766748Y-23334806D01*
X27766748Y-23334806D02*
X27757224Y-23315758D01*
X27757224Y-23315758D02*
X27757224Y-23296711D01*
X27757224Y-23296711D02*
X27766748Y-23277663D01*
X27766748Y-23277663D02*
X27785795Y-23268139D01*
X27785795Y-23268139D02*
X27833415Y-23268139D01*
X27833415Y-23268139D02*
X27852462Y-23258616D01*
X27919129Y-23210996D02*
X27995319Y-23210996D01*
X27947700Y-23144330D02*
X27947700Y-23315758D01*
X27947700Y-23315758D02*
X27957224Y-23334806D01*
X27957224Y-23334806D02*
X27976272Y-23344330D01*
X27976272Y-23344330D02*
X27995319Y-23344330D01*
X28138176Y-23334806D02*
X28119129Y-23344330D01*
X28119129Y-23344330D02*
X28081034Y-23344330D01*
X28081034Y-23344330D02*
X28061986Y-23334806D01*
X28061986Y-23334806D02*
X28052462Y-23315758D01*
X28052462Y-23315758D02*
X28052462Y-23239568D01*
X28052462Y-23239568D02*
X28061986Y-23220520D01*
X28061986Y-23220520D02*
X28081034Y-23210996D01*
X28081034Y-23210996D02*
X28119129Y-23210996D01*
X28119129Y-23210996D02*
X28138176Y-23220520D01*
X28138176Y-23220520D02*
X28147700Y-23239568D01*
X28147700Y-23239568D02*
X28147700Y-23258616D01*
X28147700Y-23258616D02*
X28052462Y-23277663D01*
X28319129Y-23344330D02*
X28319129Y-23144330D01*
X28319129Y-23334806D02*
X28300081Y-23344330D01*
X28300081Y-23344330D02*
X28261986Y-23344330D01*
X28261986Y-23344330D02*
X28242938Y-23334806D01*
X28242938Y-23334806D02*
X28233415Y-23325282D01*
X28233415Y-23325282D02*
X28223891Y-23306235D01*
X28223891Y-23306235D02*
X28223891Y-23249092D01*
X28223891Y-23249092D02*
X28233415Y-23230044D01*
X28233415Y-23230044D02*
X28242938Y-23220520D01*
X28242938Y-23220520D02*
X28261986Y-23210996D01*
X28261986Y-23210996D02*
X28300081Y-23210996D01*
X28300081Y-23210996D02*
X28319129Y-23220520D01*
X28395319Y-23420520D02*
X28404843Y-23410996D01*
X28404843Y-23410996D02*
X28423891Y-23382425D01*
X28423891Y-23382425D02*
X28433415Y-23363377D01*
X28433415Y-23363377D02*
X28442938Y-23334806D01*
X28442938Y-23334806D02*
X28452462Y-23287187D01*
X28452462Y-23287187D02*
X28452462Y-23249092D01*
X28452462Y-23249092D02*
X28442938Y-23201473D01*
X28442938Y-23201473D02*
X28433415Y-23172901D01*
X28433415Y-23172901D02*
X28423891Y-23153854D01*
X28423891Y-23153854D02*
X28404843Y-23125282D01*
X28404843Y-23125282D02*
X28395319Y-23115758D01*
D13*
X21554214Y-23431756D02*
X21554214Y-23601936D01*
X21469124Y-23516846D02*
X21639304Y-23516846D01*
D11*
X22004843Y-23608330D02*
X21890557Y-23608330D01*
X21947700Y-23608330D02*
X21947700Y-23408330D01*
X21947700Y-23408330D02*
X21928652Y-23436901D01*
X21928652Y-23436901D02*
X21909605Y-23455949D01*
X21909605Y-23455949D02*
X21890557Y-23465473D01*
X22090557Y-23589282D02*
X22100081Y-23598806D01*
X22100081Y-23598806D02*
X22090557Y-23608330D01*
X22090557Y-23608330D02*
X22081033Y-23598806D01*
X22081033Y-23598806D02*
X22090557Y-23589282D01*
X22090557Y-23589282D02*
X22090557Y-23608330D01*
X22166747Y-23408330D02*
X22300081Y-23408330D01*
X22300081Y-23408330D02*
X22214366Y-23608330D01*
X22414366Y-23408330D02*
X22433414Y-23408330D01*
X22433414Y-23408330D02*
X22452462Y-23417854D01*
X22452462Y-23417854D02*
X22461985Y-23427377D01*
X22461985Y-23427377D02*
X22471509Y-23446425D01*
X22471509Y-23446425D02*
X22481033Y-23484520D01*
X22481033Y-23484520D02*
X22481033Y-23532139D01*
X22481033Y-23532139D02*
X22471509Y-23570235D01*
X22471509Y-23570235D02*
X22461985Y-23589282D01*
X22461985Y-23589282D02*
X22452462Y-23598806D01*
X22452462Y-23598806D02*
X22433414Y-23608330D01*
X22433414Y-23608330D02*
X22414366Y-23608330D01*
X22414366Y-23608330D02*
X22395319Y-23598806D01*
X22395319Y-23598806D02*
X22385795Y-23589282D01*
X22385795Y-23589282D02*
X22376271Y-23570235D01*
X22376271Y-23570235D02*
X22366747Y-23532139D01*
X22366747Y-23532139D02*
X22366747Y-23484520D01*
X22366747Y-23484520D02*
X22376271Y-23446425D01*
X22376271Y-23446425D02*
X22385795Y-23427377D01*
X22385795Y-23427377D02*
X22395319Y-23417854D01*
X22395319Y-23417854D02*
X22414366Y-23408330D01*
X22557224Y-23427377D02*
X22566747Y-23417854D01*
X22566747Y-23417854D02*
X22585795Y-23408330D01*
X22585795Y-23408330D02*
X22633414Y-23408330D01*
X22633414Y-23408330D02*
X22652462Y-23417854D01*
X22652462Y-23417854D02*
X22661985Y-23427377D01*
X22661985Y-23427377D02*
X22671509Y-23446425D01*
X22671509Y-23446425D02*
X22671509Y-23465473D01*
X22671509Y-23465473D02*
X22661985Y-23494044D01*
X22661985Y-23494044D02*
X22547700Y-23608330D01*
X22547700Y-23608330D02*
X22671509Y-23608330D01*
X22757224Y-23608330D02*
X22757224Y-23474996D01*
X22757224Y-23494044D02*
X22766747Y-23484520D01*
X22766747Y-23484520D02*
X22785795Y-23474996D01*
X22785795Y-23474996D02*
X22814366Y-23474996D01*
X22814366Y-23474996D02*
X22833414Y-23484520D01*
X22833414Y-23484520D02*
X22842938Y-23503568D01*
X22842938Y-23503568D02*
X22842938Y-23608330D01*
X22842938Y-23503568D02*
X22852462Y-23484520D01*
X22852462Y-23484520D02*
X22871509Y-23474996D01*
X22871509Y-23474996D02*
X22900081Y-23474996D01*
X22900081Y-23474996D02*
X22919128Y-23484520D01*
X22919128Y-23484520D02*
X22928652Y-23503568D01*
X22928652Y-23503568D02*
X22928652Y-23608330D01*
X23023890Y-23608330D02*
X23023890Y-23474996D01*
X23023890Y-23494044D02*
X23033414Y-23484520D01*
X23033414Y-23484520D02*
X23052462Y-23474996D01*
X23052462Y-23474996D02*
X23081033Y-23474996D01*
X23081033Y-23474996D02*
X23100081Y-23484520D01*
X23100081Y-23484520D02*
X23109605Y-23503568D01*
X23109605Y-23503568D02*
X23109605Y-23608330D01*
X23109605Y-23503568D02*
X23119128Y-23484520D01*
X23119128Y-23484520D02*
X23138176Y-23474996D01*
X23138176Y-23474996D02*
X23166747Y-23474996D01*
X23166747Y-23474996D02*
X23185795Y-23484520D01*
X23185795Y-23484520D02*
X23195319Y-23503568D01*
X23195319Y-23503568D02*
X23195319Y-23608330D01*
X23585795Y-23398806D02*
X23414367Y-23655949D01*
X23842938Y-23408330D02*
X23861986Y-23408330D01*
X23861986Y-23408330D02*
X23881033Y-23417854D01*
X23881033Y-23417854D02*
X23890557Y-23427377D01*
X23890557Y-23427377D02*
X23900081Y-23446425D01*
X23900081Y-23446425D02*
X23909605Y-23484520D01*
X23909605Y-23484520D02*
X23909605Y-23532139D01*
X23909605Y-23532139D02*
X23900081Y-23570235D01*
X23900081Y-23570235D02*
X23890557Y-23589282D01*
X23890557Y-23589282D02*
X23881033Y-23598806D01*
X23881033Y-23598806D02*
X23861986Y-23608330D01*
X23861986Y-23608330D02*
X23842938Y-23608330D01*
X23842938Y-23608330D02*
X23823890Y-23598806D01*
X23823890Y-23598806D02*
X23814367Y-23589282D01*
X23814367Y-23589282D02*
X23804843Y-23570235D01*
X23804843Y-23570235D02*
X23795319Y-23532139D01*
X23795319Y-23532139D02*
X23795319Y-23484520D01*
X23795319Y-23484520D02*
X23804843Y-23446425D01*
X23804843Y-23446425D02*
X23814367Y-23427377D01*
X23814367Y-23427377D02*
X23823890Y-23417854D01*
X23823890Y-23417854D02*
X23842938Y-23408330D01*
X23995319Y-23589282D02*
X24004843Y-23598806D01*
X24004843Y-23598806D02*
X23995319Y-23608330D01*
X23995319Y-23608330D02*
X23985795Y-23598806D01*
X23985795Y-23598806D02*
X23995319Y-23589282D01*
X23995319Y-23589282D02*
X23995319Y-23608330D01*
X24128652Y-23408330D02*
X24147700Y-23408330D01*
X24147700Y-23408330D02*
X24166748Y-23417854D01*
X24166748Y-23417854D02*
X24176271Y-23427377D01*
X24176271Y-23427377D02*
X24185795Y-23446425D01*
X24185795Y-23446425D02*
X24195319Y-23484520D01*
X24195319Y-23484520D02*
X24195319Y-23532139D01*
X24195319Y-23532139D02*
X24185795Y-23570235D01*
X24185795Y-23570235D02*
X24176271Y-23589282D01*
X24176271Y-23589282D02*
X24166748Y-23598806D01*
X24166748Y-23598806D02*
X24147700Y-23608330D01*
X24147700Y-23608330D02*
X24128652Y-23608330D01*
X24128652Y-23608330D02*
X24109605Y-23598806D01*
X24109605Y-23598806D02*
X24100081Y-23589282D01*
X24100081Y-23589282D02*
X24090557Y-23570235D01*
X24090557Y-23570235D02*
X24081033Y-23532139D01*
X24081033Y-23532139D02*
X24081033Y-23484520D01*
X24081033Y-23484520D02*
X24090557Y-23446425D01*
X24090557Y-23446425D02*
X24100081Y-23427377D01*
X24100081Y-23427377D02*
X24109605Y-23417854D01*
X24109605Y-23417854D02*
X24128652Y-23408330D01*
X24366748Y-23408330D02*
X24328652Y-23408330D01*
X24328652Y-23408330D02*
X24309605Y-23417854D01*
X24309605Y-23417854D02*
X24300081Y-23427377D01*
X24300081Y-23427377D02*
X24281033Y-23455949D01*
X24281033Y-23455949D02*
X24271509Y-23494044D01*
X24271509Y-23494044D02*
X24271509Y-23570235D01*
X24271509Y-23570235D02*
X24281033Y-23589282D01*
X24281033Y-23589282D02*
X24290557Y-23598806D01*
X24290557Y-23598806D02*
X24309605Y-23608330D01*
X24309605Y-23608330D02*
X24347700Y-23608330D01*
X24347700Y-23608330D02*
X24366748Y-23598806D01*
X24366748Y-23598806D02*
X24376271Y-23589282D01*
X24376271Y-23589282D02*
X24385795Y-23570235D01*
X24385795Y-23570235D02*
X24385795Y-23522616D01*
X24385795Y-23522616D02*
X24376271Y-23503568D01*
X24376271Y-23503568D02*
X24366748Y-23494044D01*
X24366748Y-23494044D02*
X24347700Y-23484520D01*
X24347700Y-23484520D02*
X24309605Y-23484520D01*
X24309605Y-23484520D02*
X24290557Y-23494044D01*
X24290557Y-23494044D02*
X24281033Y-23503568D01*
X24281033Y-23503568D02*
X24271509Y-23522616D01*
X24452462Y-23408330D02*
X24585795Y-23408330D01*
X24585795Y-23408330D02*
X24500081Y-23608330D01*
X24700081Y-23408330D02*
X24719129Y-23408330D01*
X24719129Y-23408330D02*
X24738176Y-23417854D01*
X24738176Y-23417854D02*
X24747700Y-23427377D01*
X24747700Y-23427377D02*
X24757224Y-23446425D01*
X24757224Y-23446425D02*
X24766748Y-23484520D01*
X24766748Y-23484520D02*
X24766748Y-23532139D01*
X24766748Y-23532139D02*
X24757224Y-23570235D01*
X24757224Y-23570235D02*
X24747700Y-23589282D01*
X24747700Y-23589282D02*
X24738176Y-23598806D01*
X24738176Y-23598806D02*
X24719129Y-23608330D01*
X24719129Y-23608330D02*
X24700081Y-23608330D01*
X24700081Y-23608330D02*
X24681033Y-23598806D01*
X24681033Y-23598806D02*
X24671509Y-23589282D01*
X24671509Y-23589282D02*
X24661986Y-23570235D01*
X24661986Y-23570235D02*
X24652462Y-23532139D01*
X24652462Y-23532139D02*
X24652462Y-23484520D01*
X24652462Y-23484520D02*
X24661986Y-23446425D01*
X24661986Y-23446425D02*
X24671509Y-23427377D01*
X24671509Y-23427377D02*
X24681033Y-23417854D01*
X24681033Y-23417854D02*
X24700081Y-23408330D01*
X24842938Y-23408330D02*
X24842938Y-23446425D01*
X24919129Y-23408330D02*
X24919129Y-23446425D01*
X25214367Y-23684520D02*
X25204843Y-23674996D01*
X25204843Y-23674996D02*
X25185795Y-23646425D01*
X25185795Y-23646425D02*
X25176271Y-23627377D01*
X25176271Y-23627377D02*
X25166748Y-23598806D01*
X25166748Y-23598806D02*
X25157224Y-23551187D01*
X25157224Y-23551187D02*
X25157224Y-23513092D01*
X25157224Y-23513092D02*
X25166748Y-23465473D01*
X25166748Y-23465473D02*
X25176271Y-23436901D01*
X25176271Y-23436901D02*
X25185795Y-23417854D01*
X25185795Y-23417854D02*
X25204843Y-23389282D01*
X25204843Y-23389282D02*
X25214367Y-23379758D01*
X25376271Y-23408330D02*
X25338176Y-23408330D01*
X25338176Y-23408330D02*
X25319129Y-23417854D01*
X25319129Y-23417854D02*
X25309605Y-23427377D01*
X25309605Y-23427377D02*
X25290557Y-23455949D01*
X25290557Y-23455949D02*
X25281033Y-23494044D01*
X25281033Y-23494044D02*
X25281033Y-23570235D01*
X25281033Y-23570235D02*
X25290557Y-23589282D01*
X25290557Y-23589282D02*
X25300081Y-23598806D01*
X25300081Y-23598806D02*
X25319129Y-23608330D01*
X25319129Y-23608330D02*
X25357224Y-23608330D01*
X25357224Y-23608330D02*
X25376271Y-23598806D01*
X25376271Y-23598806D02*
X25385795Y-23589282D01*
X25385795Y-23589282D02*
X25395319Y-23570235D01*
X25395319Y-23570235D02*
X25395319Y-23522616D01*
X25395319Y-23522616D02*
X25385795Y-23503568D01*
X25385795Y-23503568D02*
X25376271Y-23494044D01*
X25376271Y-23494044D02*
X25357224Y-23484520D01*
X25357224Y-23484520D02*
X25319129Y-23484520D01*
X25319129Y-23484520D02*
X25300081Y-23494044D01*
X25300081Y-23494044D02*
X25290557Y-23503568D01*
X25290557Y-23503568D02*
X25281033Y-23522616D01*
X25519129Y-23408330D02*
X25538176Y-23408330D01*
X25538176Y-23408330D02*
X25557224Y-23417854D01*
X25557224Y-23417854D02*
X25566748Y-23427377D01*
X25566748Y-23427377D02*
X25576271Y-23446425D01*
X25576271Y-23446425D02*
X25585795Y-23484520D01*
X25585795Y-23484520D02*
X25585795Y-23532139D01*
X25585795Y-23532139D02*
X25576271Y-23570235D01*
X25576271Y-23570235D02*
X25566748Y-23589282D01*
X25566748Y-23589282D02*
X25557224Y-23598806D01*
X25557224Y-23598806D02*
X25538176Y-23608330D01*
X25538176Y-23608330D02*
X25519129Y-23608330D01*
X25519129Y-23608330D02*
X25500081Y-23598806D01*
X25500081Y-23598806D02*
X25490557Y-23589282D01*
X25490557Y-23589282D02*
X25481033Y-23570235D01*
X25481033Y-23570235D02*
X25471510Y-23532139D01*
X25471510Y-23532139D02*
X25471510Y-23484520D01*
X25471510Y-23484520D02*
X25481033Y-23446425D01*
X25481033Y-23446425D02*
X25490557Y-23427377D01*
X25490557Y-23427377D02*
X25500081Y-23417854D01*
X25500081Y-23417854D02*
X25519129Y-23408330D01*
X25823891Y-23608330D02*
X25823891Y-23408330D01*
X25909605Y-23608330D02*
X25909605Y-23503568D01*
X25909605Y-23503568D02*
X25900081Y-23484520D01*
X25900081Y-23484520D02*
X25881033Y-23474996D01*
X25881033Y-23474996D02*
X25852462Y-23474996D01*
X25852462Y-23474996D02*
X25833414Y-23484520D01*
X25833414Y-23484520D02*
X25823891Y-23494044D01*
X26033414Y-23608330D02*
X26014367Y-23598806D01*
X26014367Y-23598806D02*
X26004843Y-23589282D01*
X26004843Y-23589282D02*
X25995319Y-23570235D01*
X25995319Y-23570235D02*
X25995319Y-23513092D01*
X25995319Y-23513092D02*
X26004843Y-23494044D01*
X26004843Y-23494044D02*
X26014367Y-23484520D01*
X26014367Y-23484520D02*
X26033414Y-23474996D01*
X26033414Y-23474996D02*
X26061986Y-23474996D01*
X26061986Y-23474996D02*
X26081033Y-23484520D01*
X26081033Y-23484520D02*
X26090557Y-23494044D01*
X26090557Y-23494044D02*
X26100081Y-23513092D01*
X26100081Y-23513092D02*
X26100081Y-23570235D01*
X26100081Y-23570235D02*
X26090557Y-23589282D01*
X26090557Y-23589282D02*
X26081033Y-23598806D01*
X26081033Y-23598806D02*
X26061986Y-23608330D01*
X26061986Y-23608330D02*
X26033414Y-23608330D01*
X26214367Y-23608330D02*
X26195319Y-23598806D01*
X26195319Y-23598806D02*
X26185795Y-23579758D01*
X26185795Y-23579758D02*
X26185795Y-23408330D01*
X26366748Y-23598806D02*
X26347700Y-23608330D01*
X26347700Y-23608330D02*
X26309605Y-23608330D01*
X26309605Y-23608330D02*
X26290557Y-23598806D01*
X26290557Y-23598806D02*
X26281033Y-23579758D01*
X26281033Y-23579758D02*
X26281033Y-23503568D01*
X26281033Y-23503568D02*
X26290557Y-23484520D01*
X26290557Y-23484520D02*
X26309605Y-23474996D01*
X26309605Y-23474996D02*
X26347700Y-23474996D01*
X26347700Y-23474996D02*
X26366748Y-23484520D01*
X26366748Y-23484520D02*
X26376272Y-23503568D01*
X26376272Y-23503568D02*
X26376272Y-23522616D01*
X26376272Y-23522616D02*
X26281033Y-23541663D01*
X26452462Y-23598806D02*
X26471510Y-23608330D01*
X26471510Y-23608330D02*
X26509605Y-23608330D01*
X26509605Y-23608330D02*
X26528653Y-23598806D01*
X26528653Y-23598806D02*
X26538176Y-23579758D01*
X26538176Y-23579758D02*
X26538176Y-23570235D01*
X26538176Y-23570235D02*
X26528653Y-23551187D01*
X26528653Y-23551187D02*
X26509605Y-23541663D01*
X26509605Y-23541663D02*
X26481033Y-23541663D01*
X26481033Y-23541663D02*
X26461986Y-23532139D01*
X26461986Y-23532139D02*
X26452462Y-23513092D01*
X26452462Y-23513092D02*
X26452462Y-23503568D01*
X26452462Y-23503568D02*
X26461986Y-23484520D01*
X26461986Y-23484520D02*
X26481033Y-23474996D01*
X26481033Y-23474996D02*
X26509605Y-23474996D01*
X26509605Y-23474996D02*
X26528653Y-23484520D01*
X26604843Y-23684520D02*
X26614367Y-23674996D01*
X26614367Y-23674996D02*
X26633414Y-23646425D01*
X26633414Y-23646425D02*
X26642938Y-23627377D01*
X26642938Y-23627377D02*
X26652462Y-23598806D01*
X26652462Y-23598806D02*
X26661986Y-23551187D01*
X26661986Y-23551187D02*
X26661986Y-23513092D01*
X26661986Y-23513092D02*
X26652462Y-23465473D01*
X26652462Y-23465473D02*
X26642938Y-23436901D01*
X26642938Y-23436901D02*
X26633414Y-23417854D01*
X26633414Y-23417854D02*
X26614367Y-23389282D01*
X26614367Y-23389282D02*
X26604843Y-23379758D01*
X26966748Y-23684520D02*
X26957224Y-23674996D01*
X26957224Y-23674996D02*
X26938176Y-23646425D01*
X26938176Y-23646425D02*
X26928653Y-23627377D01*
X26928653Y-23627377D02*
X26919129Y-23598806D01*
X26919129Y-23598806D02*
X26909605Y-23551187D01*
X26909605Y-23551187D02*
X26909605Y-23513092D01*
X26909605Y-23513092D02*
X26919129Y-23465473D01*
X26919129Y-23465473D02*
X26928653Y-23436901D01*
X26928653Y-23436901D02*
X26938176Y-23417854D01*
X26938176Y-23417854D02*
X26957224Y-23389282D01*
X26957224Y-23389282D02*
X26966748Y-23379758D01*
X27042938Y-23474996D02*
X27042938Y-23608330D01*
X27042938Y-23494044D02*
X27052462Y-23484520D01*
X27052462Y-23484520D02*
X27071510Y-23474996D01*
X27071510Y-23474996D02*
X27100081Y-23474996D01*
X27100081Y-23474996D02*
X27119129Y-23484520D01*
X27119129Y-23484520D02*
X27128653Y-23503568D01*
X27128653Y-23503568D02*
X27128653Y-23608330D01*
X27252462Y-23608330D02*
X27233414Y-23598806D01*
X27233414Y-23598806D02*
X27223891Y-23589282D01*
X27223891Y-23589282D02*
X27214367Y-23570235D01*
X27214367Y-23570235D02*
X27214367Y-23513092D01*
X27214367Y-23513092D02*
X27223891Y-23494044D01*
X27223891Y-23494044D02*
X27233414Y-23484520D01*
X27233414Y-23484520D02*
X27252462Y-23474996D01*
X27252462Y-23474996D02*
X27281034Y-23474996D01*
X27281034Y-23474996D02*
X27300081Y-23484520D01*
X27300081Y-23484520D02*
X27309605Y-23494044D01*
X27309605Y-23494044D02*
X27319129Y-23513092D01*
X27319129Y-23513092D02*
X27319129Y-23570235D01*
X27319129Y-23570235D02*
X27309605Y-23589282D01*
X27309605Y-23589282D02*
X27300081Y-23598806D01*
X27300081Y-23598806D02*
X27281034Y-23608330D01*
X27281034Y-23608330D02*
X27252462Y-23608330D01*
X27376272Y-23474996D02*
X27452462Y-23474996D01*
X27404843Y-23408330D02*
X27404843Y-23579758D01*
X27404843Y-23579758D02*
X27414367Y-23598806D01*
X27414367Y-23598806D02*
X27433414Y-23608330D01*
X27433414Y-23608330D02*
X27452462Y-23608330D01*
X27671510Y-23474996D02*
X27671510Y-23674996D01*
X27671510Y-23484520D02*
X27690557Y-23474996D01*
X27690557Y-23474996D02*
X27728653Y-23474996D01*
X27728653Y-23474996D02*
X27747700Y-23484520D01*
X27747700Y-23484520D02*
X27757224Y-23494044D01*
X27757224Y-23494044D02*
X27766748Y-23513092D01*
X27766748Y-23513092D02*
X27766748Y-23570235D01*
X27766748Y-23570235D02*
X27757224Y-23589282D01*
X27757224Y-23589282D02*
X27747700Y-23598806D01*
X27747700Y-23598806D02*
X27728653Y-23608330D01*
X27728653Y-23608330D02*
X27690557Y-23608330D01*
X27690557Y-23608330D02*
X27671510Y-23598806D01*
X27881034Y-23608330D02*
X27861986Y-23598806D01*
X27861986Y-23598806D02*
X27852462Y-23579758D01*
X27852462Y-23579758D02*
X27852462Y-23408330D01*
X28042938Y-23608330D02*
X28042938Y-23503568D01*
X28042938Y-23503568D02*
X28033415Y-23484520D01*
X28033415Y-23484520D02*
X28014367Y-23474996D01*
X28014367Y-23474996D02*
X27976272Y-23474996D01*
X27976272Y-23474996D02*
X27957224Y-23484520D01*
X28042938Y-23598806D02*
X28023891Y-23608330D01*
X28023891Y-23608330D02*
X27976272Y-23608330D01*
X27976272Y-23608330D02*
X27957224Y-23598806D01*
X27957224Y-23598806D02*
X27947700Y-23579758D01*
X27947700Y-23579758D02*
X27947700Y-23560711D01*
X27947700Y-23560711D02*
X27957224Y-23541663D01*
X27957224Y-23541663D02*
X27976272Y-23532139D01*
X27976272Y-23532139D02*
X28023891Y-23532139D01*
X28023891Y-23532139D02*
X28042938Y-23522616D01*
X28109605Y-23474996D02*
X28185795Y-23474996D01*
X28138176Y-23408330D02*
X28138176Y-23579758D01*
X28138176Y-23579758D02*
X28147700Y-23598806D01*
X28147700Y-23598806D02*
X28166748Y-23608330D01*
X28166748Y-23608330D02*
X28185795Y-23608330D01*
X28328653Y-23598806D02*
X28309605Y-23608330D01*
X28309605Y-23608330D02*
X28271510Y-23608330D01*
X28271510Y-23608330D02*
X28252462Y-23598806D01*
X28252462Y-23598806D02*
X28242938Y-23579758D01*
X28242938Y-23579758D02*
X28242938Y-23503568D01*
X28242938Y-23503568D02*
X28252462Y-23484520D01*
X28252462Y-23484520D02*
X28271510Y-23474996D01*
X28271510Y-23474996D02*
X28309605Y-23474996D01*
X28309605Y-23474996D02*
X28328653Y-23484520D01*
X28328653Y-23484520D02*
X28338176Y-23503568D01*
X28338176Y-23503568D02*
X28338176Y-23522616D01*
X28338176Y-23522616D02*
X28242938Y-23541663D01*
X28509605Y-23608330D02*
X28509605Y-23408330D01*
X28509605Y-23598806D02*
X28490557Y-23608330D01*
X28490557Y-23608330D02*
X28452462Y-23608330D01*
X28452462Y-23608330D02*
X28433415Y-23598806D01*
X28433415Y-23598806D02*
X28423891Y-23589282D01*
X28423891Y-23589282D02*
X28414367Y-23570235D01*
X28414367Y-23570235D02*
X28414367Y-23513092D01*
X28414367Y-23513092D02*
X28423891Y-23494044D01*
X28423891Y-23494044D02*
X28433415Y-23484520D01*
X28433415Y-23484520D02*
X28452462Y-23474996D01*
X28452462Y-23474996D02*
X28490557Y-23474996D01*
X28490557Y-23474996D02*
X28509605Y-23484520D01*
X28585796Y-23684520D02*
X28595319Y-23674996D01*
X28595319Y-23674996D02*
X28614367Y-23646425D01*
X28614367Y-23646425D02*
X28623891Y-23627377D01*
X28623891Y-23627377D02*
X28633415Y-23598806D01*
X28633415Y-23598806D02*
X28642938Y-23551187D01*
X28642938Y-23551187D02*
X28642938Y-23513092D01*
X28642938Y-23513092D02*
X28633415Y-23465473D01*
X28633415Y-23465473D02*
X28623891Y-23436901D01*
X28623891Y-23436901D02*
X28614367Y-23417854D01*
X28614367Y-23417854D02*
X28595319Y-23389282D01*
X28595319Y-23389282D02*
X28585796Y-23379758D01*
X21610015Y-23877737D02*
X21610015Y-23736315D01*
X21468593Y-23736315D01*
X21468593Y-23877737D01*
X21610015Y-23877737D01*
X21881033Y-23698510D02*
X22004843Y-23698510D01*
X22004843Y-23698510D02*
X21938176Y-23774700D01*
X21938176Y-23774700D02*
X21966747Y-23774700D01*
X21966747Y-23774700D02*
X21985795Y-23784224D01*
X21985795Y-23784224D02*
X21995319Y-23793748D01*
X21995319Y-23793748D02*
X22004843Y-23812796D01*
X22004843Y-23812796D02*
X22004843Y-23860415D01*
X22004843Y-23860415D02*
X21995319Y-23879462D01*
X21995319Y-23879462D02*
X21985795Y-23888986D01*
X21985795Y-23888986D02*
X21966747Y-23898510D01*
X21966747Y-23898510D02*
X21909605Y-23898510D01*
X21909605Y-23898510D02*
X21890557Y-23888986D01*
X21890557Y-23888986D02*
X21881033Y-23879462D01*
X22090557Y-23879462D02*
X22100081Y-23888986D01*
X22100081Y-23888986D02*
X22090557Y-23898510D01*
X22090557Y-23898510D02*
X22081033Y-23888986D01*
X22081033Y-23888986D02*
X22090557Y-23879462D01*
X22090557Y-23879462D02*
X22090557Y-23898510D01*
X22223890Y-23698510D02*
X22242938Y-23698510D01*
X22242938Y-23698510D02*
X22261986Y-23708034D01*
X22261986Y-23708034D02*
X22271509Y-23717557D01*
X22271509Y-23717557D02*
X22281033Y-23736605D01*
X22281033Y-23736605D02*
X22290557Y-23774700D01*
X22290557Y-23774700D02*
X22290557Y-23822319D01*
X22290557Y-23822319D02*
X22281033Y-23860415D01*
X22281033Y-23860415D02*
X22271509Y-23879462D01*
X22271509Y-23879462D02*
X22261986Y-23888986D01*
X22261986Y-23888986D02*
X22242938Y-23898510D01*
X22242938Y-23898510D02*
X22223890Y-23898510D01*
X22223890Y-23898510D02*
X22204843Y-23888986D01*
X22204843Y-23888986D02*
X22195319Y-23879462D01*
X22195319Y-23879462D02*
X22185795Y-23860415D01*
X22185795Y-23860415D02*
X22176271Y-23822319D01*
X22176271Y-23822319D02*
X22176271Y-23774700D01*
X22176271Y-23774700D02*
X22185795Y-23736605D01*
X22185795Y-23736605D02*
X22195319Y-23717557D01*
X22195319Y-23717557D02*
X22204843Y-23708034D01*
X22204843Y-23708034D02*
X22223890Y-23698510D01*
X22414366Y-23698510D02*
X22433414Y-23698510D01*
X22433414Y-23698510D02*
X22452462Y-23708034D01*
X22452462Y-23708034D02*
X22461985Y-23717557D01*
X22461985Y-23717557D02*
X22471509Y-23736605D01*
X22471509Y-23736605D02*
X22481033Y-23774700D01*
X22481033Y-23774700D02*
X22481033Y-23822319D01*
X22481033Y-23822319D02*
X22471509Y-23860415D01*
X22471509Y-23860415D02*
X22461985Y-23879462D01*
X22461985Y-23879462D02*
X22452462Y-23888986D01*
X22452462Y-23888986D02*
X22433414Y-23898510D01*
X22433414Y-23898510D02*
X22414366Y-23898510D01*
X22414366Y-23898510D02*
X22395319Y-23888986D01*
X22395319Y-23888986D02*
X22385795Y-23879462D01*
X22385795Y-23879462D02*
X22376271Y-23860415D01*
X22376271Y-23860415D02*
X22366747Y-23822319D01*
X22366747Y-23822319D02*
X22366747Y-23774700D01*
X22366747Y-23774700D02*
X22376271Y-23736605D01*
X22376271Y-23736605D02*
X22385795Y-23717557D01*
X22385795Y-23717557D02*
X22395319Y-23708034D01*
X22395319Y-23708034D02*
X22414366Y-23698510D01*
X22604843Y-23698510D02*
X22623890Y-23698510D01*
X22623890Y-23698510D02*
X22642938Y-23708034D01*
X22642938Y-23708034D02*
X22652462Y-23717557D01*
X22652462Y-23717557D02*
X22661985Y-23736605D01*
X22661985Y-23736605D02*
X22671509Y-23774700D01*
X22671509Y-23774700D02*
X22671509Y-23822319D01*
X22671509Y-23822319D02*
X22661985Y-23860415D01*
X22661985Y-23860415D02*
X22652462Y-23879462D01*
X22652462Y-23879462D02*
X22642938Y-23888986D01*
X22642938Y-23888986D02*
X22623890Y-23898510D01*
X22623890Y-23898510D02*
X22604843Y-23898510D01*
X22604843Y-23898510D02*
X22585795Y-23888986D01*
X22585795Y-23888986D02*
X22576271Y-23879462D01*
X22576271Y-23879462D02*
X22566747Y-23860415D01*
X22566747Y-23860415D02*
X22557224Y-23822319D01*
X22557224Y-23822319D02*
X22557224Y-23774700D01*
X22557224Y-23774700D02*
X22566747Y-23736605D01*
X22566747Y-23736605D02*
X22576271Y-23717557D01*
X22576271Y-23717557D02*
X22585795Y-23708034D01*
X22585795Y-23708034D02*
X22604843Y-23698510D01*
X22757224Y-23898510D02*
X22757224Y-23765176D01*
X22757224Y-23784224D02*
X22766747Y-23774700D01*
X22766747Y-23774700D02*
X22785795Y-23765176D01*
X22785795Y-23765176D02*
X22814366Y-23765176D01*
X22814366Y-23765176D02*
X22833414Y-23774700D01*
X22833414Y-23774700D02*
X22842938Y-23793748D01*
X22842938Y-23793748D02*
X22842938Y-23898510D01*
X22842938Y-23793748D02*
X22852462Y-23774700D01*
X22852462Y-23774700D02*
X22871509Y-23765176D01*
X22871509Y-23765176D02*
X22900081Y-23765176D01*
X22900081Y-23765176D02*
X22919128Y-23774700D01*
X22919128Y-23774700D02*
X22928652Y-23793748D01*
X22928652Y-23793748D02*
X22928652Y-23898510D01*
X23023890Y-23898510D02*
X23023890Y-23765176D01*
X23023890Y-23784224D02*
X23033414Y-23774700D01*
X23033414Y-23774700D02*
X23052462Y-23765176D01*
X23052462Y-23765176D02*
X23081033Y-23765176D01*
X23081033Y-23765176D02*
X23100081Y-23774700D01*
X23100081Y-23774700D02*
X23109605Y-23793748D01*
X23109605Y-23793748D02*
X23109605Y-23898510D01*
X23109605Y-23793748D02*
X23119128Y-23774700D01*
X23119128Y-23774700D02*
X23138176Y-23765176D01*
X23138176Y-23765176D02*
X23166747Y-23765176D01*
X23166747Y-23765176D02*
X23185795Y-23774700D01*
X23185795Y-23774700D02*
X23195319Y-23793748D01*
X23195319Y-23793748D02*
X23195319Y-23898510D01*
X23585795Y-23688986D02*
X23414367Y-23946129D01*
X23842938Y-23698510D02*
X23861986Y-23698510D01*
X23861986Y-23698510D02*
X23881033Y-23708034D01*
X23881033Y-23708034D02*
X23890557Y-23717557D01*
X23890557Y-23717557D02*
X23900081Y-23736605D01*
X23900081Y-23736605D02*
X23909605Y-23774700D01*
X23909605Y-23774700D02*
X23909605Y-23822319D01*
X23909605Y-23822319D02*
X23900081Y-23860415D01*
X23900081Y-23860415D02*
X23890557Y-23879462D01*
X23890557Y-23879462D02*
X23881033Y-23888986D01*
X23881033Y-23888986D02*
X23861986Y-23898510D01*
X23861986Y-23898510D02*
X23842938Y-23898510D01*
X23842938Y-23898510D02*
X23823890Y-23888986D01*
X23823890Y-23888986D02*
X23814367Y-23879462D01*
X23814367Y-23879462D02*
X23804843Y-23860415D01*
X23804843Y-23860415D02*
X23795319Y-23822319D01*
X23795319Y-23822319D02*
X23795319Y-23774700D01*
X23795319Y-23774700D02*
X23804843Y-23736605D01*
X23804843Y-23736605D02*
X23814367Y-23717557D01*
X23814367Y-23717557D02*
X23823890Y-23708034D01*
X23823890Y-23708034D02*
X23842938Y-23698510D01*
X23995319Y-23879462D02*
X24004843Y-23888986D01*
X24004843Y-23888986D02*
X23995319Y-23898510D01*
X23995319Y-23898510D02*
X23985795Y-23888986D01*
X23985795Y-23888986D02*
X23995319Y-23879462D01*
X23995319Y-23879462D02*
X23995319Y-23898510D01*
X24195319Y-23898510D02*
X24081033Y-23898510D01*
X24138176Y-23898510D02*
X24138176Y-23698510D01*
X24138176Y-23698510D02*
X24119128Y-23727081D01*
X24119128Y-23727081D02*
X24100081Y-23746129D01*
X24100081Y-23746129D02*
X24081033Y-23755653D01*
X24385795Y-23898510D02*
X24271509Y-23898510D01*
X24328652Y-23898510D02*
X24328652Y-23698510D01*
X24328652Y-23698510D02*
X24309605Y-23727081D01*
X24309605Y-23727081D02*
X24290557Y-23746129D01*
X24290557Y-23746129D02*
X24271509Y-23755653D01*
X24500081Y-23784224D02*
X24481033Y-23774700D01*
X24481033Y-23774700D02*
X24471509Y-23765176D01*
X24471509Y-23765176D02*
X24461986Y-23746129D01*
X24461986Y-23746129D02*
X24461986Y-23736605D01*
X24461986Y-23736605D02*
X24471509Y-23717557D01*
X24471509Y-23717557D02*
X24481033Y-23708034D01*
X24481033Y-23708034D02*
X24500081Y-23698510D01*
X24500081Y-23698510D02*
X24538176Y-23698510D01*
X24538176Y-23698510D02*
X24557224Y-23708034D01*
X24557224Y-23708034D02*
X24566748Y-23717557D01*
X24566748Y-23717557D02*
X24576271Y-23736605D01*
X24576271Y-23736605D02*
X24576271Y-23746129D01*
X24576271Y-23746129D02*
X24566748Y-23765176D01*
X24566748Y-23765176D02*
X24557224Y-23774700D01*
X24557224Y-23774700D02*
X24538176Y-23784224D01*
X24538176Y-23784224D02*
X24500081Y-23784224D01*
X24500081Y-23784224D02*
X24481033Y-23793748D01*
X24481033Y-23793748D02*
X24471509Y-23803272D01*
X24471509Y-23803272D02*
X24461986Y-23822319D01*
X24461986Y-23822319D02*
X24461986Y-23860415D01*
X24461986Y-23860415D02*
X24471509Y-23879462D01*
X24471509Y-23879462D02*
X24481033Y-23888986D01*
X24481033Y-23888986D02*
X24500081Y-23898510D01*
X24500081Y-23898510D02*
X24538176Y-23898510D01*
X24538176Y-23898510D02*
X24557224Y-23888986D01*
X24557224Y-23888986D02*
X24566748Y-23879462D01*
X24566748Y-23879462D02*
X24576271Y-23860415D01*
X24576271Y-23860415D02*
X24576271Y-23822319D01*
X24576271Y-23822319D02*
X24566748Y-23803272D01*
X24566748Y-23803272D02*
X24557224Y-23793748D01*
X24557224Y-23793748D02*
X24538176Y-23784224D01*
X24766748Y-23898510D02*
X24652462Y-23898510D01*
X24709605Y-23898510D02*
X24709605Y-23698510D01*
X24709605Y-23698510D02*
X24690557Y-23727081D01*
X24690557Y-23727081D02*
X24671509Y-23746129D01*
X24671509Y-23746129D02*
X24652462Y-23755653D01*
X24842938Y-23698510D02*
X24842938Y-23736605D01*
X24919129Y-23698510D02*
X24919129Y-23736605D01*
X25214367Y-23974700D02*
X25204843Y-23965176D01*
X25204843Y-23965176D02*
X25185795Y-23936605D01*
X25185795Y-23936605D02*
X25176271Y-23917557D01*
X25176271Y-23917557D02*
X25166748Y-23888986D01*
X25166748Y-23888986D02*
X25157224Y-23841367D01*
X25157224Y-23841367D02*
X25157224Y-23803272D01*
X25157224Y-23803272D02*
X25166748Y-23755653D01*
X25166748Y-23755653D02*
X25176271Y-23727081D01*
X25176271Y-23727081D02*
X25185795Y-23708034D01*
X25185795Y-23708034D02*
X25204843Y-23679462D01*
X25204843Y-23679462D02*
X25214367Y-23669938D01*
X25376271Y-23698510D02*
X25338176Y-23698510D01*
X25338176Y-23698510D02*
X25319129Y-23708034D01*
X25319129Y-23708034D02*
X25309605Y-23717557D01*
X25309605Y-23717557D02*
X25290557Y-23746129D01*
X25290557Y-23746129D02*
X25281033Y-23784224D01*
X25281033Y-23784224D02*
X25281033Y-23860415D01*
X25281033Y-23860415D02*
X25290557Y-23879462D01*
X25290557Y-23879462D02*
X25300081Y-23888986D01*
X25300081Y-23888986D02*
X25319129Y-23898510D01*
X25319129Y-23898510D02*
X25357224Y-23898510D01*
X25357224Y-23898510D02*
X25376271Y-23888986D01*
X25376271Y-23888986D02*
X25385795Y-23879462D01*
X25385795Y-23879462D02*
X25395319Y-23860415D01*
X25395319Y-23860415D02*
X25395319Y-23812796D01*
X25395319Y-23812796D02*
X25385795Y-23793748D01*
X25385795Y-23793748D02*
X25376271Y-23784224D01*
X25376271Y-23784224D02*
X25357224Y-23774700D01*
X25357224Y-23774700D02*
X25319129Y-23774700D01*
X25319129Y-23774700D02*
X25300081Y-23784224D01*
X25300081Y-23784224D02*
X25290557Y-23793748D01*
X25290557Y-23793748D02*
X25281033Y-23812796D01*
X25519129Y-23698510D02*
X25538176Y-23698510D01*
X25538176Y-23698510D02*
X25557224Y-23708034D01*
X25557224Y-23708034D02*
X25566748Y-23717557D01*
X25566748Y-23717557D02*
X25576271Y-23736605D01*
X25576271Y-23736605D02*
X25585795Y-23774700D01*
X25585795Y-23774700D02*
X25585795Y-23822319D01*
X25585795Y-23822319D02*
X25576271Y-23860415D01*
X25576271Y-23860415D02*
X25566748Y-23879462D01*
X25566748Y-23879462D02*
X25557224Y-23888986D01*
X25557224Y-23888986D02*
X25538176Y-23898510D01*
X25538176Y-23898510D02*
X25519129Y-23898510D01*
X25519129Y-23898510D02*
X25500081Y-23888986D01*
X25500081Y-23888986D02*
X25490557Y-23879462D01*
X25490557Y-23879462D02*
X25481033Y-23860415D01*
X25481033Y-23860415D02*
X25471510Y-23822319D01*
X25471510Y-23822319D02*
X25471510Y-23774700D01*
X25471510Y-23774700D02*
X25481033Y-23736605D01*
X25481033Y-23736605D02*
X25490557Y-23717557D01*
X25490557Y-23717557D02*
X25500081Y-23708034D01*
X25500081Y-23708034D02*
X25519129Y-23698510D01*
X25823891Y-23898510D02*
X25823891Y-23698510D01*
X25909605Y-23898510D02*
X25909605Y-23793748D01*
X25909605Y-23793748D02*
X25900081Y-23774700D01*
X25900081Y-23774700D02*
X25881033Y-23765176D01*
X25881033Y-23765176D02*
X25852462Y-23765176D01*
X25852462Y-23765176D02*
X25833414Y-23774700D01*
X25833414Y-23774700D02*
X25823891Y-23784224D01*
X26033414Y-23898510D02*
X26014367Y-23888986D01*
X26014367Y-23888986D02*
X26004843Y-23879462D01*
X26004843Y-23879462D02*
X25995319Y-23860415D01*
X25995319Y-23860415D02*
X25995319Y-23803272D01*
X25995319Y-23803272D02*
X26004843Y-23784224D01*
X26004843Y-23784224D02*
X26014367Y-23774700D01*
X26014367Y-23774700D02*
X26033414Y-23765176D01*
X26033414Y-23765176D02*
X26061986Y-23765176D01*
X26061986Y-23765176D02*
X26081033Y-23774700D01*
X26081033Y-23774700D02*
X26090557Y-23784224D01*
X26090557Y-23784224D02*
X26100081Y-23803272D01*
X26100081Y-23803272D02*
X26100081Y-23860415D01*
X26100081Y-23860415D02*
X26090557Y-23879462D01*
X26090557Y-23879462D02*
X26081033Y-23888986D01*
X26081033Y-23888986D02*
X26061986Y-23898510D01*
X26061986Y-23898510D02*
X26033414Y-23898510D01*
X26214367Y-23898510D02*
X26195319Y-23888986D01*
X26195319Y-23888986D02*
X26185795Y-23869938D01*
X26185795Y-23869938D02*
X26185795Y-23698510D01*
X26366748Y-23888986D02*
X26347700Y-23898510D01*
X26347700Y-23898510D02*
X26309605Y-23898510D01*
X26309605Y-23898510D02*
X26290557Y-23888986D01*
X26290557Y-23888986D02*
X26281033Y-23869938D01*
X26281033Y-23869938D02*
X26281033Y-23793748D01*
X26281033Y-23793748D02*
X26290557Y-23774700D01*
X26290557Y-23774700D02*
X26309605Y-23765176D01*
X26309605Y-23765176D02*
X26347700Y-23765176D01*
X26347700Y-23765176D02*
X26366748Y-23774700D01*
X26366748Y-23774700D02*
X26376272Y-23793748D01*
X26376272Y-23793748D02*
X26376272Y-23812796D01*
X26376272Y-23812796D02*
X26281033Y-23831843D01*
X26452462Y-23888986D02*
X26471510Y-23898510D01*
X26471510Y-23898510D02*
X26509605Y-23898510D01*
X26509605Y-23898510D02*
X26528653Y-23888986D01*
X26528653Y-23888986D02*
X26538176Y-23869938D01*
X26538176Y-23869938D02*
X26538176Y-23860415D01*
X26538176Y-23860415D02*
X26528653Y-23841367D01*
X26528653Y-23841367D02*
X26509605Y-23831843D01*
X26509605Y-23831843D02*
X26481033Y-23831843D01*
X26481033Y-23831843D02*
X26461986Y-23822319D01*
X26461986Y-23822319D02*
X26452462Y-23803272D01*
X26452462Y-23803272D02*
X26452462Y-23793748D01*
X26452462Y-23793748D02*
X26461986Y-23774700D01*
X26461986Y-23774700D02*
X26481033Y-23765176D01*
X26481033Y-23765176D02*
X26509605Y-23765176D01*
X26509605Y-23765176D02*
X26528653Y-23774700D01*
X26604843Y-23974700D02*
X26614367Y-23965176D01*
X26614367Y-23965176D02*
X26633414Y-23936605D01*
X26633414Y-23936605D02*
X26642938Y-23917557D01*
X26642938Y-23917557D02*
X26652462Y-23888986D01*
X26652462Y-23888986D02*
X26661986Y-23841367D01*
X26661986Y-23841367D02*
X26661986Y-23803272D01*
X26661986Y-23803272D02*
X26652462Y-23755653D01*
X26652462Y-23755653D02*
X26642938Y-23727081D01*
X26642938Y-23727081D02*
X26633414Y-23708034D01*
X26633414Y-23708034D02*
X26614367Y-23679462D01*
X26614367Y-23679462D02*
X26604843Y-23669938D01*
X26966748Y-23974700D02*
X26957224Y-23965176D01*
X26957224Y-23965176D02*
X26938176Y-23936605D01*
X26938176Y-23936605D02*
X26928653Y-23917557D01*
X26928653Y-23917557D02*
X26919129Y-23888986D01*
X26919129Y-23888986D02*
X26909605Y-23841367D01*
X26909605Y-23841367D02*
X26909605Y-23803272D01*
X26909605Y-23803272D02*
X26919129Y-23755653D01*
X26919129Y-23755653D02*
X26928653Y-23727081D01*
X26928653Y-23727081D02*
X26938176Y-23708034D01*
X26938176Y-23708034D02*
X26957224Y-23679462D01*
X26957224Y-23679462D02*
X26966748Y-23669938D01*
X27042938Y-23765176D02*
X27042938Y-23898510D01*
X27042938Y-23784224D02*
X27052462Y-23774700D01*
X27052462Y-23774700D02*
X27071510Y-23765176D01*
X27071510Y-23765176D02*
X27100081Y-23765176D01*
X27100081Y-23765176D02*
X27119129Y-23774700D01*
X27119129Y-23774700D02*
X27128653Y-23793748D01*
X27128653Y-23793748D02*
X27128653Y-23898510D01*
X27252462Y-23898510D02*
X27233414Y-23888986D01*
X27233414Y-23888986D02*
X27223891Y-23879462D01*
X27223891Y-23879462D02*
X27214367Y-23860415D01*
X27214367Y-23860415D02*
X27214367Y-23803272D01*
X27214367Y-23803272D02*
X27223891Y-23784224D01*
X27223891Y-23784224D02*
X27233414Y-23774700D01*
X27233414Y-23774700D02*
X27252462Y-23765176D01*
X27252462Y-23765176D02*
X27281034Y-23765176D01*
X27281034Y-23765176D02*
X27300081Y-23774700D01*
X27300081Y-23774700D02*
X27309605Y-23784224D01*
X27309605Y-23784224D02*
X27319129Y-23803272D01*
X27319129Y-23803272D02*
X27319129Y-23860415D01*
X27319129Y-23860415D02*
X27309605Y-23879462D01*
X27309605Y-23879462D02*
X27300081Y-23888986D01*
X27300081Y-23888986D02*
X27281034Y-23898510D01*
X27281034Y-23898510D02*
X27252462Y-23898510D01*
X27376272Y-23765176D02*
X27452462Y-23765176D01*
X27404843Y-23698510D02*
X27404843Y-23869938D01*
X27404843Y-23869938D02*
X27414367Y-23888986D01*
X27414367Y-23888986D02*
X27433414Y-23898510D01*
X27433414Y-23898510D02*
X27452462Y-23898510D01*
X27671510Y-23765176D02*
X27671510Y-23965176D01*
X27671510Y-23774700D02*
X27690557Y-23765176D01*
X27690557Y-23765176D02*
X27728653Y-23765176D01*
X27728653Y-23765176D02*
X27747700Y-23774700D01*
X27747700Y-23774700D02*
X27757224Y-23784224D01*
X27757224Y-23784224D02*
X27766748Y-23803272D01*
X27766748Y-23803272D02*
X27766748Y-23860415D01*
X27766748Y-23860415D02*
X27757224Y-23879462D01*
X27757224Y-23879462D02*
X27747700Y-23888986D01*
X27747700Y-23888986D02*
X27728653Y-23898510D01*
X27728653Y-23898510D02*
X27690557Y-23898510D01*
X27690557Y-23898510D02*
X27671510Y-23888986D01*
X27881034Y-23898510D02*
X27861986Y-23888986D01*
X27861986Y-23888986D02*
X27852462Y-23869938D01*
X27852462Y-23869938D02*
X27852462Y-23698510D01*
X28042938Y-23898510D02*
X28042938Y-23793748D01*
X28042938Y-23793748D02*
X28033415Y-23774700D01*
X28033415Y-23774700D02*
X28014367Y-23765176D01*
X28014367Y-23765176D02*
X27976272Y-23765176D01*
X27976272Y-23765176D02*
X27957224Y-23774700D01*
X28042938Y-23888986D02*
X28023891Y-23898510D01*
X28023891Y-23898510D02*
X27976272Y-23898510D01*
X27976272Y-23898510D02*
X27957224Y-23888986D01*
X27957224Y-23888986D02*
X27947700Y-23869938D01*
X27947700Y-23869938D02*
X27947700Y-23850891D01*
X27947700Y-23850891D02*
X27957224Y-23831843D01*
X27957224Y-23831843D02*
X27976272Y-23822319D01*
X27976272Y-23822319D02*
X28023891Y-23822319D01*
X28023891Y-23822319D02*
X28042938Y-23812796D01*
X28109605Y-23765176D02*
X28185795Y-23765176D01*
X28138176Y-23698510D02*
X28138176Y-23869938D01*
X28138176Y-23869938D02*
X28147700Y-23888986D01*
X28147700Y-23888986D02*
X28166748Y-23898510D01*
X28166748Y-23898510D02*
X28185795Y-23898510D01*
X28328653Y-23888986D02*
X28309605Y-23898510D01*
X28309605Y-23898510D02*
X28271510Y-23898510D01*
X28271510Y-23898510D02*
X28252462Y-23888986D01*
X28252462Y-23888986D02*
X28242938Y-23869938D01*
X28242938Y-23869938D02*
X28242938Y-23793748D01*
X28242938Y-23793748D02*
X28252462Y-23774700D01*
X28252462Y-23774700D02*
X28271510Y-23765176D01*
X28271510Y-23765176D02*
X28309605Y-23765176D01*
X28309605Y-23765176D02*
X28328653Y-23774700D01*
X28328653Y-23774700D02*
X28338176Y-23793748D01*
X28338176Y-23793748D02*
X28338176Y-23812796D01*
X28338176Y-23812796D02*
X28242938Y-23831843D01*
X28509605Y-23898510D02*
X28509605Y-23698510D01*
X28509605Y-23888986D02*
X28490557Y-23898510D01*
X28490557Y-23898510D02*
X28452462Y-23898510D01*
X28452462Y-23898510D02*
X28433415Y-23888986D01*
X28433415Y-23888986D02*
X28423891Y-23879462D01*
X28423891Y-23879462D02*
X28414367Y-23860415D01*
X28414367Y-23860415D02*
X28414367Y-23803272D01*
X28414367Y-23803272D02*
X28423891Y-23784224D01*
X28423891Y-23784224D02*
X28433415Y-23774700D01*
X28433415Y-23774700D02*
X28452462Y-23765176D01*
X28452462Y-23765176D02*
X28490557Y-23765176D01*
X28490557Y-23765176D02*
X28509605Y-23774700D01*
X28585796Y-23974700D02*
X28595319Y-23965176D01*
X28595319Y-23965176D02*
X28614367Y-23936605D01*
X28614367Y-23936605D02*
X28623891Y-23917557D01*
X28623891Y-23917557D02*
X28633415Y-23888986D01*
X28633415Y-23888986D02*
X28642938Y-23841367D01*
X28642938Y-23841367D02*
X28642938Y-23803272D01*
X28642938Y-23803272D02*
X28633415Y-23755653D01*
X28633415Y-23755653D02*
X28623891Y-23727081D01*
X28623891Y-23727081D02*
X28614367Y-23708034D01*
X28614367Y-23708034D02*
X28595319Y-23679462D01*
X28595319Y-23679462D02*
X28585796Y-23669938D01*
X21539304Y-24227026D02*
X21639304Y-24127026D01*
X21539304Y-24027026D01*
X21439304Y-24127026D01*
X21539304Y-24227026D01*
X21881033Y-24018510D02*
X22004843Y-24018510D01*
X22004843Y-24018510D02*
X21938176Y-24094700D01*
X21938176Y-24094700D02*
X21966747Y-24094700D01*
X21966747Y-24094700D02*
X21985795Y-24104224D01*
X21985795Y-24104224D02*
X21995319Y-24113748D01*
X21995319Y-24113748D02*
X22004843Y-24132796D01*
X22004843Y-24132796D02*
X22004843Y-24180415D01*
X22004843Y-24180415D02*
X21995319Y-24199462D01*
X21995319Y-24199462D02*
X21985795Y-24208986D01*
X21985795Y-24208986D02*
X21966747Y-24218510D01*
X21966747Y-24218510D02*
X21909605Y-24218510D01*
X21909605Y-24218510D02*
X21890557Y-24208986D01*
X21890557Y-24208986D02*
X21881033Y-24199462D01*
X22090557Y-24199462D02*
X22100081Y-24208986D01*
X22100081Y-24208986D02*
X22090557Y-24218510D01*
X22090557Y-24218510D02*
X22081033Y-24208986D01*
X22081033Y-24208986D02*
X22090557Y-24199462D01*
X22090557Y-24199462D02*
X22090557Y-24218510D01*
X22271509Y-24085176D02*
X22271509Y-24218510D01*
X22223890Y-24008986D02*
X22176271Y-24151843D01*
X22176271Y-24151843D02*
X22300081Y-24151843D01*
X22366747Y-24037557D02*
X22376271Y-24028034D01*
X22376271Y-24028034D02*
X22395319Y-24018510D01*
X22395319Y-24018510D02*
X22442938Y-24018510D01*
X22442938Y-24018510D02*
X22461985Y-24028034D01*
X22461985Y-24028034D02*
X22471509Y-24037557D01*
X22471509Y-24037557D02*
X22481033Y-24056605D01*
X22481033Y-24056605D02*
X22481033Y-24075653D01*
X22481033Y-24075653D02*
X22471509Y-24104224D01*
X22471509Y-24104224D02*
X22357224Y-24218510D01*
X22357224Y-24218510D02*
X22481033Y-24218510D01*
X22576271Y-24218510D02*
X22614366Y-24218510D01*
X22614366Y-24218510D02*
X22633414Y-24208986D01*
X22633414Y-24208986D02*
X22642938Y-24199462D01*
X22642938Y-24199462D02*
X22661985Y-24170891D01*
X22661985Y-24170891D02*
X22671509Y-24132796D01*
X22671509Y-24132796D02*
X22671509Y-24056605D01*
X22671509Y-24056605D02*
X22661985Y-24037557D01*
X22661985Y-24037557D02*
X22652462Y-24028034D01*
X22652462Y-24028034D02*
X22633414Y-24018510D01*
X22633414Y-24018510D02*
X22595319Y-24018510D01*
X22595319Y-24018510D02*
X22576271Y-24028034D01*
X22576271Y-24028034D02*
X22566747Y-24037557D01*
X22566747Y-24037557D02*
X22557224Y-24056605D01*
X22557224Y-24056605D02*
X22557224Y-24104224D01*
X22557224Y-24104224D02*
X22566747Y-24123272D01*
X22566747Y-24123272D02*
X22576271Y-24132796D01*
X22576271Y-24132796D02*
X22595319Y-24142319D01*
X22595319Y-24142319D02*
X22633414Y-24142319D01*
X22633414Y-24142319D02*
X22652462Y-24132796D01*
X22652462Y-24132796D02*
X22661985Y-24123272D01*
X22661985Y-24123272D02*
X22671509Y-24104224D01*
X22757224Y-24218510D02*
X22757224Y-24085176D01*
X22757224Y-24104224D02*
X22766747Y-24094700D01*
X22766747Y-24094700D02*
X22785795Y-24085176D01*
X22785795Y-24085176D02*
X22814366Y-24085176D01*
X22814366Y-24085176D02*
X22833414Y-24094700D01*
X22833414Y-24094700D02*
X22842938Y-24113748D01*
X22842938Y-24113748D02*
X22842938Y-24218510D01*
X22842938Y-24113748D02*
X22852462Y-24094700D01*
X22852462Y-24094700D02*
X22871509Y-24085176D01*
X22871509Y-24085176D02*
X22900081Y-24085176D01*
X22900081Y-24085176D02*
X22919128Y-24094700D01*
X22919128Y-24094700D02*
X22928652Y-24113748D01*
X22928652Y-24113748D02*
X22928652Y-24218510D01*
X23023890Y-24218510D02*
X23023890Y-24085176D01*
X23023890Y-24104224D02*
X23033414Y-24094700D01*
X23033414Y-24094700D02*
X23052462Y-24085176D01*
X23052462Y-24085176D02*
X23081033Y-24085176D01*
X23081033Y-24085176D02*
X23100081Y-24094700D01*
X23100081Y-24094700D02*
X23109605Y-24113748D01*
X23109605Y-24113748D02*
X23109605Y-24218510D01*
X23109605Y-24113748D02*
X23119128Y-24094700D01*
X23119128Y-24094700D02*
X23138176Y-24085176D01*
X23138176Y-24085176D02*
X23166747Y-24085176D01*
X23166747Y-24085176D02*
X23185795Y-24094700D01*
X23185795Y-24094700D02*
X23195319Y-24113748D01*
X23195319Y-24113748D02*
X23195319Y-24218510D01*
X23585795Y-24008986D02*
X23414367Y-24266129D01*
X23842938Y-24018510D02*
X23861986Y-24018510D01*
X23861986Y-24018510D02*
X23881033Y-24028034D01*
X23881033Y-24028034D02*
X23890557Y-24037557D01*
X23890557Y-24037557D02*
X23900081Y-24056605D01*
X23900081Y-24056605D02*
X23909605Y-24094700D01*
X23909605Y-24094700D02*
X23909605Y-24142319D01*
X23909605Y-24142319D02*
X23900081Y-24180415D01*
X23900081Y-24180415D02*
X23890557Y-24199462D01*
X23890557Y-24199462D02*
X23881033Y-24208986D01*
X23881033Y-24208986D02*
X23861986Y-24218510D01*
X23861986Y-24218510D02*
X23842938Y-24218510D01*
X23842938Y-24218510D02*
X23823890Y-24208986D01*
X23823890Y-24208986D02*
X23814367Y-24199462D01*
X23814367Y-24199462D02*
X23804843Y-24180415D01*
X23804843Y-24180415D02*
X23795319Y-24142319D01*
X23795319Y-24142319D02*
X23795319Y-24094700D01*
X23795319Y-24094700D02*
X23804843Y-24056605D01*
X23804843Y-24056605D02*
X23814367Y-24037557D01*
X23814367Y-24037557D02*
X23823890Y-24028034D01*
X23823890Y-24028034D02*
X23842938Y-24018510D01*
X23995319Y-24199462D02*
X24004843Y-24208986D01*
X24004843Y-24208986D02*
X23995319Y-24218510D01*
X23995319Y-24218510D02*
X23985795Y-24208986D01*
X23985795Y-24208986D02*
X23995319Y-24199462D01*
X23995319Y-24199462D02*
X23995319Y-24218510D01*
X24195319Y-24218510D02*
X24081033Y-24218510D01*
X24138176Y-24218510D02*
X24138176Y-24018510D01*
X24138176Y-24018510D02*
X24119128Y-24047081D01*
X24119128Y-24047081D02*
X24100081Y-24066129D01*
X24100081Y-24066129D02*
X24081033Y-24075653D01*
X24261986Y-24018510D02*
X24385795Y-24018510D01*
X24385795Y-24018510D02*
X24319128Y-24094700D01*
X24319128Y-24094700D02*
X24347700Y-24094700D01*
X24347700Y-24094700D02*
X24366748Y-24104224D01*
X24366748Y-24104224D02*
X24376271Y-24113748D01*
X24376271Y-24113748D02*
X24385795Y-24132796D01*
X24385795Y-24132796D02*
X24385795Y-24180415D01*
X24385795Y-24180415D02*
X24376271Y-24199462D01*
X24376271Y-24199462D02*
X24366748Y-24208986D01*
X24366748Y-24208986D02*
X24347700Y-24218510D01*
X24347700Y-24218510D02*
X24290557Y-24218510D01*
X24290557Y-24218510D02*
X24271509Y-24208986D01*
X24271509Y-24208986D02*
X24261986Y-24199462D01*
X24566748Y-24018510D02*
X24471509Y-24018510D01*
X24471509Y-24018510D02*
X24461986Y-24113748D01*
X24461986Y-24113748D02*
X24471509Y-24104224D01*
X24471509Y-24104224D02*
X24490557Y-24094700D01*
X24490557Y-24094700D02*
X24538176Y-24094700D01*
X24538176Y-24094700D02*
X24557224Y-24104224D01*
X24557224Y-24104224D02*
X24566748Y-24113748D01*
X24566748Y-24113748D02*
X24576271Y-24132796D01*
X24576271Y-24132796D02*
X24576271Y-24180415D01*
X24576271Y-24180415D02*
X24566748Y-24199462D01*
X24566748Y-24199462D02*
X24557224Y-24208986D01*
X24557224Y-24208986D02*
X24538176Y-24218510D01*
X24538176Y-24218510D02*
X24490557Y-24218510D01*
X24490557Y-24218510D02*
X24471509Y-24208986D01*
X24471509Y-24208986D02*
X24461986Y-24199462D01*
X24700081Y-24018510D02*
X24719129Y-24018510D01*
X24719129Y-24018510D02*
X24738176Y-24028034D01*
X24738176Y-24028034D02*
X24747700Y-24037557D01*
X24747700Y-24037557D02*
X24757224Y-24056605D01*
X24757224Y-24056605D02*
X24766748Y-24094700D01*
X24766748Y-24094700D02*
X24766748Y-24142319D01*
X24766748Y-24142319D02*
X24757224Y-24180415D01*
X24757224Y-24180415D02*
X24747700Y-24199462D01*
X24747700Y-24199462D02*
X24738176Y-24208986D01*
X24738176Y-24208986D02*
X24719129Y-24218510D01*
X24719129Y-24218510D02*
X24700081Y-24218510D01*
X24700081Y-24218510D02*
X24681033Y-24208986D01*
X24681033Y-24208986D02*
X24671509Y-24199462D01*
X24671509Y-24199462D02*
X24661986Y-24180415D01*
X24661986Y-24180415D02*
X24652462Y-24142319D01*
X24652462Y-24142319D02*
X24652462Y-24094700D01*
X24652462Y-24094700D02*
X24661986Y-24056605D01*
X24661986Y-24056605D02*
X24671509Y-24037557D01*
X24671509Y-24037557D02*
X24681033Y-24028034D01*
X24681033Y-24028034D02*
X24700081Y-24018510D01*
X24842938Y-24018510D02*
X24842938Y-24056605D01*
X24919129Y-24018510D02*
X24919129Y-24056605D01*
X25214367Y-24294700D02*
X25204843Y-24285176D01*
X25204843Y-24285176D02*
X25185795Y-24256605D01*
X25185795Y-24256605D02*
X25176271Y-24237557D01*
X25176271Y-24237557D02*
X25166748Y-24208986D01*
X25166748Y-24208986D02*
X25157224Y-24161367D01*
X25157224Y-24161367D02*
X25157224Y-24123272D01*
X25157224Y-24123272D02*
X25166748Y-24075653D01*
X25166748Y-24075653D02*
X25176271Y-24047081D01*
X25176271Y-24047081D02*
X25185795Y-24028034D01*
X25185795Y-24028034D02*
X25204843Y-23999462D01*
X25204843Y-23999462D02*
X25214367Y-23989938D01*
X25271510Y-24018510D02*
X25395319Y-24018510D01*
X25395319Y-24018510D02*
X25328652Y-24094700D01*
X25328652Y-24094700D02*
X25357224Y-24094700D01*
X25357224Y-24094700D02*
X25376271Y-24104224D01*
X25376271Y-24104224D02*
X25385795Y-24113748D01*
X25385795Y-24113748D02*
X25395319Y-24132796D01*
X25395319Y-24132796D02*
X25395319Y-24180415D01*
X25395319Y-24180415D02*
X25385795Y-24199462D01*
X25385795Y-24199462D02*
X25376271Y-24208986D01*
X25376271Y-24208986D02*
X25357224Y-24218510D01*
X25357224Y-24218510D02*
X25300081Y-24218510D01*
X25300081Y-24218510D02*
X25281033Y-24208986D01*
X25281033Y-24208986D02*
X25271510Y-24199462D01*
X25519129Y-24018510D02*
X25538176Y-24018510D01*
X25538176Y-24018510D02*
X25557224Y-24028034D01*
X25557224Y-24028034D02*
X25566748Y-24037557D01*
X25566748Y-24037557D02*
X25576271Y-24056605D01*
X25576271Y-24056605D02*
X25585795Y-24094700D01*
X25585795Y-24094700D02*
X25585795Y-24142319D01*
X25585795Y-24142319D02*
X25576271Y-24180415D01*
X25576271Y-24180415D02*
X25566748Y-24199462D01*
X25566748Y-24199462D02*
X25557224Y-24208986D01*
X25557224Y-24208986D02*
X25538176Y-24218510D01*
X25538176Y-24218510D02*
X25519129Y-24218510D01*
X25519129Y-24218510D02*
X25500081Y-24208986D01*
X25500081Y-24208986D02*
X25490557Y-24199462D01*
X25490557Y-24199462D02*
X25481033Y-24180415D01*
X25481033Y-24180415D02*
X25471510Y-24142319D01*
X25471510Y-24142319D02*
X25471510Y-24094700D01*
X25471510Y-24094700D02*
X25481033Y-24056605D01*
X25481033Y-24056605D02*
X25490557Y-24037557D01*
X25490557Y-24037557D02*
X25500081Y-24028034D01*
X25500081Y-24028034D02*
X25519129Y-24018510D01*
X25823891Y-24218510D02*
X25823891Y-24018510D01*
X25909605Y-24218510D02*
X25909605Y-24113748D01*
X25909605Y-24113748D02*
X25900081Y-24094700D01*
X25900081Y-24094700D02*
X25881033Y-24085176D01*
X25881033Y-24085176D02*
X25852462Y-24085176D01*
X25852462Y-24085176D02*
X25833414Y-24094700D01*
X25833414Y-24094700D02*
X25823891Y-24104224D01*
X26033414Y-24218510D02*
X26014367Y-24208986D01*
X26014367Y-24208986D02*
X26004843Y-24199462D01*
X26004843Y-24199462D02*
X25995319Y-24180415D01*
X25995319Y-24180415D02*
X25995319Y-24123272D01*
X25995319Y-24123272D02*
X26004843Y-24104224D01*
X26004843Y-24104224D02*
X26014367Y-24094700D01*
X26014367Y-24094700D02*
X26033414Y-24085176D01*
X26033414Y-24085176D02*
X26061986Y-24085176D01*
X26061986Y-24085176D02*
X26081033Y-24094700D01*
X26081033Y-24094700D02*
X26090557Y-24104224D01*
X26090557Y-24104224D02*
X26100081Y-24123272D01*
X26100081Y-24123272D02*
X26100081Y-24180415D01*
X26100081Y-24180415D02*
X26090557Y-24199462D01*
X26090557Y-24199462D02*
X26081033Y-24208986D01*
X26081033Y-24208986D02*
X26061986Y-24218510D01*
X26061986Y-24218510D02*
X26033414Y-24218510D01*
X26214367Y-24218510D02*
X26195319Y-24208986D01*
X26195319Y-24208986D02*
X26185795Y-24189938D01*
X26185795Y-24189938D02*
X26185795Y-24018510D01*
X26366748Y-24208986D02*
X26347700Y-24218510D01*
X26347700Y-24218510D02*
X26309605Y-24218510D01*
X26309605Y-24218510D02*
X26290557Y-24208986D01*
X26290557Y-24208986D02*
X26281033Y-24189938D01*
X26281033Y-24189938D02*
X26281033Y-24113748D01*
X26281033Y-24113748D02*
X26290557Y-24094700D01*
X26290557Y-24094700D02*
X26309605Y-24085176D01*
X26309605Y-24085176D02*
X26347700Y-24085176D01*
X26347700Y-24085176D02*
X26366748Y-24094700D01*
X26366748Y-24094700D02*
X26376272Y-24113748D01*
X26376272Y-24113748D02*
X26376272Y-24132796D01*
X26376272Y-24132796D02*
X26281033Y-24151843D01*
X26452462Y-24208986D02*
X26471510Y-24218510D01*
X26471510Y-24218510D02*
X26509605Y-24218510D01*
X26509605Y-24218510D02*
X26528653Y-24208986D01*
X26528653Y-24208986D02*
X26538176Y-24189938D01*
X26538176Y-24189938D02*
X26538176Y-24180415D01*
X26538176Y-24180415D02*
X26528653Y-24161367D01*
X26528653Y-24161367D02*
X26509605Y-24151843D01*
X26509605Y-24151843D02*
X26481033Y-24151843D01*
X26481033Y-24151843D02*
X26461986Y-24142319D01*
X26461986Y-24142319D02*
X26452462Y-24123272D01*
X26452462Y-24123272D02*
X26452462Y-24113748D01*
X26452462Y-24113748D02*
X26461986Y-24094700D01*
X26461986Y-24094700D02*
X26481033Y-24085176D01*
X26481033Y-24085176D02*
X26509605Y-24085176D01*
X26509605Y-24085176D02*
X26528653Y-24094700D01*
X26604843Y-24294700D02*
X26614367Y-24285176D01*
X26614367Y-24285176D02*
X26633414Y-24256605D01*
X26633414Y-24256605D02*
X26642938Y-24237557D01*
X26642938Y-24237557D02*
X26652462Y-24208986D01*
X26652462Y-24208986D02*
X26661986Y-24161367D01*
X26661986Y-24161367D02*
X26661986Y-24123272D01*
X26661986Y-24123272D02*
X26652462Y-24075653D01*
X26652462Y-24075653D02*
X26642938Y-24047081D01*
X26642938Y-24047081D02*
X26633414Y-24028034D01*
X26633414Y-24028034D02*
X26614367Y-23999462D01*
X26614367Y-23999462D02*
X26604843Y-23989938D01*
X26966748Y-24294700D02*
X26957224Y-24285176D01*
X26957224Y-24285176D02*
X26938176Y-24256605D01*
X26938176Y-24256605D02*
X26928653Y-24237557D01*
X26928653Y-24237557D02*
X26919129Y-24208986D01*
X26919129Y-24208986D02*
X26909605Y-24161367D01*
X26909605Y-24161367D02*
X26909605Y-24123272D01*
X26909605Y-24123272D02*
X26919129Y-24075653D01*
X26919129Y-24075653D02*
X26928653Y-24047081D01*
X26928653Y-24047081D02*
X26938176Y-24028034D01*
X26938176Y-24028034D02*
X26957224Y-23999462D01*
X26957224Y-23999462D02*
X26966748Y-23989938D01*
X27042938Y-24085176D02*
X27042938Y-24218510D01*
X27042938Y-24104224D02*
X27052462Y-24094700D01*
X27052462Y-24094700D02*
X27071510Y-24085176D01*
X27071510Y-24085176D02*
X27100081Y-24085176D01*
X27100081Y-24085176D02*
X27119129Y-24094700D01*
X27119129Y-24094700D02*
X27128653Y-24113748D01*
X27128653Y-24113748D02*
X27128653Y-24218510D01*
X27252462Y-24218510D02*
X27233414Y-24208986D01*
X27233414Y-24208986D02*
X27223891Y-24199462D01*
X27223891Y-24199462D02*
X27214367Y-24180415D01*
X27214367Y-24180415D02*
X27214367Y-24123272D01*
X27214367Y-24123272D02*
X27223891Y-24104224D01*
X27223891Y-24104224D02*
X27233414Y-24094700D01*
X27233414Y-24094700D02*
X27252462Y-24085176D01*
X27252462Y-24085176D02*
X27281034Y-24085176D01*
X27281034Y-24085176D02*
X27300081Y-24094700D01*
X27300081Y-24094700D02*
X27309605Y-24104224D01*
X27309605Y-24104224D02*
X27319129Y-24123272D01*
X27319129Y-24123272D02*
X27319129Y-24180415D01*
X27319129Y-24180415D02*
X27309605Y-24199462D01*
X27309605Y-24199462D02*
X27300081Y-24208986D01*
X27300081Y-24208986D02*
X27281034Y-24218510D01*
X27281034Y-24218510D02*
X27252462Y-24218510D01*
X27376272Y-24085176D02*
X27452462Y-24085176D01*
X27404843Y-24018510D02*
X27404843Y-24189938D01*
X27404843Y-24189938D02*
X27414367Y-24208986D01*
X27414367Y-24208986D02*
X27433414Y-24218510D01*
X27433414Y-24218510D02*
X27452462Y-24218510D01*
X27671510Y-24085176D02*
X27671510Y-24285176D01*
X27671510Y-24094700D02*
X27690557Y-24085176D01*
X27690557Y-24085176D02*
X27728653Y-24085176D01*
X27728653Y-24085176D02*
X27747700Y-24094700D01*
X27747700Y-24094700D02*
X27757224Y-24104224D01*
X27757224Y-24104224D02*
X27766748Y-24123272D01*
X27766748Y-24123272D02*
X27766748Y-24180415D01*
X27766748Y-24180415D02*
X27757224Y-24199462D01*
X27757224Y-24199462D02*
X27747700Y-24208986D01*
X27747700Y-24208986D02*
X27728653Y-24218510D01*
X27728653Y-24218510D02*
X27690557Y-24218510D01*
X27690557Y-24218510D02*
X27671510Y-24208986D01*
X27881034Y-24218510D02*
X27861986Y-24208986D01*
X27861986Y-24208986D02*
X27852462Y-24189938D01*
X27852462Y-24189938D02*
X27852462Y-24018510D01*
X28042938Y-24218510D02*
X28042938Y-24113748D01*
X28042938Y-24113748D02*
X28033415Y-24094700D01*
X28033415Y-24094700D02*
X28014367Y-24085176D01*
X28014367Y-24085176D02*
X27976272Y-24085176D01*
X27976272Y-24085176D02*
X27957224Y-24094700D01*
X28042938Y-24208986D02*
X28023891Y-24218510D01*
X28023891Y-24218510D02*
X27976272Y-24218510D01*
X27976272Y-24218510D02*
X27957224Y-24208986D01*
X27957224Y-24208986D02*
X27947700Y-24189938D01*
X27947700Y-24189938D02*
X27947700Y-24170891D01*
X27947700Y-24170891D02*
X27957224Y-24151843D01*
X27957224Y-24151843D02*
X27976272Y-24142319D01*
X27976272Y-24142319D02*
X28023891Y-24142319D01*
X28023891Y-24142319D02*
X28042938Y-24132796D01*
X28109605Y-24085176D02*
X28185795Y-24085176D01*
X28138176Y-24018510D02*
X28138176Y-24189938D01*
X28138176Y-24189938D02*
X28147700Y-24208986D01*
X28147700Y-24208986D02*
X28166748Y-24218510D01*
X28166748Y-24218510D02*
X28185795Y-24218510D01*
X28328653Y-24208986D02*
X28309605Y-24218510D01*
X28309605Y-24218510D02*
X28271510Y-24218510D01*
X28271510Y-24218510D02*
X28252462Y-24208986D01*
X28252462Y-24208986D02*
X28242938Y-24189938D01*
X28242938Y-24189938D02*
X28242938Y-24113748D01*
X28242938Y-24113748D02*
X28252462Y-24094700D01*
X28252462Y-24094700D02*
X28271510Y-24085176D01*
X28271510Y-24085176D02*
X28309605Y-24085176D01*
X28309605Y-24085176D02*
X28328653Y-24094700D01*
X28328653Y-24094700D02*
X28338176Y-24113748D01*
X28338176Y-24113748D02*
X28338176Y-24132796D01*
X28338176Y-24132796D02*
X28242938Y-24151843D01*
X28509605Y-24218510D02*
X28509605Y-24018510D01*
X28509605Y-24208986D02*
X28490557Y-24218510D01*
X28490557Y-24218510D02*
X28452462Y-24218510D01*
X28452462Y-24218510D02*
X28433415Y-24208986D01*
X28433415Y-24208986D02*
X28423891Y-24199462D01*
X28423891Y-24199462D02*
X28414367Y-24180415D01*
X28414367Y-24180415D02*
X28414367Y-24123272D01*
X28414367Y-24123272D02*
X28423891Y-24104224D01*
X28423891Y-24104224D02*
X28433415Y-24094700D01*
X28433415Y-24094700D02*
X28452462Y-24085176D01*
X28452462Y-24085176D02*
X28490557Y-24085176D01*
X28490557Y-24085176D02*
X28509605Y-24094700D01*
X28585796Y-24294700D02*
X28595319Y-24285176D01*
X28595319Y-24285176D02*
X28614367Y-24256605D01*
X28614367Y-24256605D02*
X28623891Y-24237557D01*
X28623891Y-24237557D02*
X28633415Y-24208986D01*
X28633415Y-24208986D02*
X28642938Y-24161367D01*
X28642938Y-24161367D02*
X28642938Y-24123272D01*
X28642938Y-24123272D02*
X28633415Y-24075653D01*
X28633415Y-24075653D02*
X28623891Y-24047081D01*
X28623891Y-24047081D02*
X28614367Y-24028034D01*
X28614367Y-24028034D02*
X28595319Y-23999462D01*
X28595319Y-23999462D02*
X28585796Y-23989938D01*
M02*
