0
SECTION
2
HEADER
9
$INSUNITS
70
4
0
ENDSEC
0
SECTION
2
TABLES
0
TABLE
2
LTYPE
0
LTYPE
72
65
70
64
2
CONTINUOUS
3
______
73
0
40
0
0
ENDTAB
0
TABLE
2
LAYER
0
ENDTAB
0
ENDSEC
0
SECTION
2
ENTITIES
0
LINE
8
0
10
43.05
20
-206.95
11
56.95
21
-206.95
0
LINE
8
0
10
56.95
20
-206.95
11
56.95
21
-193.05
0
LINE
8
0
10
56.95
20
-193.05
11
43.05
21
-193.05
0
LINE
8
0
10
43.05
20
-193.05
11
43.05
21
-206.95
0
LINE
8
0
10
43.05
20
-187.95
11
56.95
21
-187.95
0
LINE
8
0
10
56.95
20
-187.95
11
56.95
21
-174.05
0
LINE
8
0
10
56.95
20
-174.05
11
43.05
21
-174.05
0
LINE
8
0
10
43.05
20
-174.05
11
43.05
21
-187.95
0
LINE
8
0
10
43.05
20
-168.95
11
56.95
21
-168.95
0
LINE
8
0
10
56.95
20
-168.95
11
56.95
21
-155.05
0
LINE
8
0
10
56.95
20
-155.05
11
43.05
21
-155.05
0
LINE
8
0
10
43.05
20
-155.05
11
43.05
21
-168.95
0
LINE
8
0
10
43.05
20
-149.95
11
56.95
21
-149.95
0
LINE
8
0
10
56.95
20
-149.95
11
56.95
21
-136.05
0
LINE
8
0
10
56.95
20
-136.05
11
43.05
21
-136.05
0
LINE
8
0
10
43.05
20
-136.05
11
43.05
21
-149.95
0
LINE
8
0
10
43.05
20
-130.95
11
56.95
21
-130.95
0
LINE
8
0
10
56.95
20
-130.95
11
56.95
21
-117.05
0
LINE
8
0
10
56.95
20
-117.05
11
43.05
21
-117.05
0
LINE
8
0
10
43.05
20
-117.05
11
43.05
21
-130.95
0
LINE
8
0
10
61.9297643
20
-201.8276473
11
75.8276473
21
-202.0702357
0
LINE
8
0
10
75.8276473
20
-202.0702357
11
76.0702357
21
-188.1723527
0
LINE
8
0
10
76.0702357
20
-188.1723527
11
62.1723527
21
-187.9297643
0
LINE
8
0
10
62.1723527
20
-187.9297643
11
61.9297643
21
-201.8276473
0
LINE
8
0
10
62.26136
20
-182.8305411
11
76.159243
21
-183.0731295
0
LINE
8
0
10
76.159243
20
-183.0731295
11
76.4018314
21
-169.1752465
0
LINE
8
0
10
76.4018314
20
-169.1752465
11
62.5039484
21
-168.9326581
0
LINE
8
0
10
62.5039484
20
-168.9326581
11
62.26136
21
-182.8305411
0
LINE
8
0
10
62.5929557
20
-163.8334349
11
76.4908387
21
-164.0760233
0
LINE
8
0
10
76.4908387
20
-164.0760233
11
76.7334271
21
-150.1781403
0
LINE
8
0
10
76.7334271
20
-150.1781403
11
62.8355441
21
-149.9355519
0
LINE
8
0
10
62.8355441
20
-149.9355519
11
62.5929557
21
-163.8334349
0
LINE
8
0
10
62.9245514
20
-144.8363287
11
76.8224344
21
-145.0789171
0
LINE
8
0
10
76.8224344
20
-145.0789171
11
77.0650228
21
-131.1810341
0
LINE
8
0
10
77.0650228
20
-131.1810341
11
63.1671398
21
-130.9384457
0
LINE
8
0
10
63.1671398
20
-130.9384457
11
62.9245514
21
-144.8363287
0
LINE
8
0
10
63.2561471
20
-125.8392225
11
77.1540301
21
-126.0818109
0
LINE
8
0
10
77.1540301
20
-126.0818109
11
77.3966185
21
-112.1839279
0
LINE
8
0
10
77.3966185
20
-112.1839279
11
63.4987355
21
-111.9413395
0
LINE
8
0
10
63.4987355
20
-111.9413395
11
63.2561471
21
-125.8392225
0
LINE
8
0
10
80.8785981
20
-198.0354196
11
94.7701305
21
-198.5205226
0
LINE
8
0
10
94.7701305
20
-198.5205226
11
95.2552335
21
-184.6289902
0
LINE
8
0
10
95.2552335
20
-184.6289902
11
81.3637011
21
-184.1438872
0
LINE
8
0
10
81.3637011
20
-184.1438872
11
80.8785981
21
-198.0354196
0
LINE
8
0
10
81.5416885
20
-179.0469939
11
95.4332209
21
-179.5320969
0
LINE
8
0
10
95.4332209
20
-179.5320969
11
95.9183239
21
-165.6405645
0
LINE
8
0
10
95.9183239
20
-165.6405645
11
82.0267915
21
-165.1554615
0
LINE
8
0
10
82.0267915
20
-165.1554615
11
81.5416885
21
-179.0469939
0
LINE
8
0
10
82.2047789
20
-160.0585682
11
96.0963113
21
-160.5436712
0
LINE
8
0
10
96.0963113
20
-160.5436712
11
96.5814143
21
-146.6521388
0
LINE
8
0
10
96.5814143
20
-146.6521388
11
82.6898819
21
-146.1670358
0
LINE
8
0
10
82.6898819
20
-146.1670358
11
82.2047789
21
-160.0585682
0
LINE
8
0
10
82.8678693
20
-141.0701425
11
96.7594017
21
-141.5552455
0
LINE
8
0
10
96.7594017
20
-141.5552455
11
97.2445047
21
-127.6637131
0
LINE
8
0
10
97.2445047
20
-127.6637131
11
83.3529723
21
-127.1786101
0
LINE
8
0
10
83.3529723
20
-127.1786101
11
82.8678693
21
-141.0701425
0
LINE
8
0
10
83.5309597
20
-122.0817168
11
97.4224921
21
-122.5668198
0
LINE
8
0
10
97.4224921
20
-122.5668198
11
97.9075951
21
-108.6752874
0
LINE
8
0
10
97.9075951
20
-108.6752874
11
84.0160627
21
-108.1901844
0
LINE
8
0
10
84.0160627
20
-108.1901844
11
83.5309597
21
-122.0817168
0
LINE
8
0
10
99.6464328
20
-201.5702082
11
113.5273834
21
-202.297678
0
LINE
8
0
10
113.5273834
20
-202.297678
11
114.2548532
21
-188.4167274
0
LINE
8
0
10
114.2548532
20
-188.4167274
11
100.3739026
21
-187.6892576
0
LINE
8
0
10
100.3739026
20
-187.6892576
11
99.6464328
21
-201.5702082
0
LINE
8
0
10
100.640816
20
-182.596247
11
114.5217666
21
-183.3237168
0
LINE
8
0
10
114.5217666
20
-183.3237168
11
115.2492364
21
-169.4427662
0
LINE
8
0
10
115.2492364
20
-169.4427662
11
101.3682858
21
-168.7152964
0
LINE
8
0
10
101.3682858
20
-168.7152964
11
100.640816
21
-182.596247
0
LINE
8
0
10
101.6351992
20
-163.6222858
11
115.5161498
21
-164.3497556
0
LINE
8
0
10
115.5161498
20
-164.3497556
11
116.2436196
21
-150.468805
0
LINE
8
0
10
116.2436196
20
-150.468805
11
102.362669
21
-149.7413352
0
LINE
8
0
10
102.362669
20
-149.7413352
11
101.6351992
21
-163.6222858
0
LINE
8
0
10
102.6295824
20
-144.6483246
11
116.510533
21
-145.3757944
0
LINE
8
0
10
116.510533
20
-145.3757944
11
117.2380028
21
-131.4948438
0
LINE
8
0
10
117.2380028
20
-131.4948438
11
103.3570522
21
-130.767374
0
LINE
8
0
10
103.3570522
20
-130.767374
11
102.6295824
21
-144.6483246
0
LINE
8
0
10
103.6239656
20
-125.6743634
11
117.5049162
21
-126.4018332
0
LINE
8
0
10
117.5049162
20
-126.4018332
11
118.232386
21
-112.5208826
0
LINE
8
0
10
118.232386
20
-112.5208826
11
104.3514354
21
-111.7934128
0
LINE
8
0
10
104.3514354
20
-111.7934128
11
103.6239656
21
-125.6743634
0
LINE
8
0
10
119.5704198
20
-188.4755444
11
133.4365601
21
-189.4451593
0
LINE
8
0
10
133.4365601
20
-189.4451593
11
134.406175
21
-175.579019
0
LINE
8
0
10
134.406175
20
-175.579019
11
120.5400347
21
-174.6094041
0
LINE
8
0
10
120.5400347
20
-174.6094041
11
119.5704198
21
-188.4755444
0
LINE
8
0
10
120.8957928
20
-169.5218274
11
134.7619331
21
-170.4914423
0
LINE
8
0
10
134.7619331
20
-170.4914423
11
135.731548
21
-156.625302
0
LINE
8
0
10
135.731548
20
-156.625302
11
121.8654077
21
-155.6556871
0
LINE
8
0
10
121.8654077
20
-155.6556871
11
120.8957928
21
-169.5218274
0
LINE
8
0
10
122.2211658
20
-150.5681104
11
136.0873061
21
-151.5377253
0
LINE
8
0
10
136.0873061
20
-151.5377253
11
137.056921
21
-137.671585
0
LINE
8
0
10
137.056921
20
-137.671585
11
123.1907807
21
-136.7019701
0
LINE
8
0
10
123.1907807
20
-136.7019701
11
122.2211658
21
-150.5681104
0
LINE
8
0
10
123.5465388
20
-131.6143934
11
137.4126791
21
-132.5840083
0
LINE
8
0
10
137.4126791
20
-132.5840083
11
138.382294
21
-118.717868
0
LINE
8
0
10
138.382294
20
-118.717868
11
124.5161537
21
-117.7482531
0
LINE
8
0
10
124.5161537
20
-117.7482531
11
123.5465388
21
-131.6143934
0
LINE
8
0
10
138.5241368
20
-189.8009174
11
152.3902771
21
-190.7705323
0
LINE
8
0
10
152.3902771
20
-190.7705323
11
153.359892
21
-176.904392
0
LINE
8
0
10
153.359892
20
-176.904392
11
139.4937517
21
-175.9347771
0
LINE
8
0
10
139.4937517
20
-175.9347771
11
138.5241368
21
-189.8009174
0
LINE
8
0
10
139.8495098
20
-170.8472004
11
153.7156501
21
-171.8168153
0
LINE
8
0
10
153.7156501
20
-171.8168153
11
154.685265
21
-157.950675
0
LINE
8
0
10
154.685265
20
-157.950675
11
140.8191247
21
-156.9810601
0
LINE
8
0
10
140.8191247
20
-156.9810601
11
139.8495098
21
-170.8472004
0
LINE
8
0
10
141.1748828
20
-151.8934834
11
155.0410231
21
-152.8630983
0
LINE
8
0
10
155.0410231
20
-152.8630983
11
156.010638
21
-138.996958
0
LINE
8
0
10
156.010638
20
-138.996958
11
142.1444977
21
-138.0273431
0
LINE
8
0
10
142.1444977
20
-138.0273431
11
141.1748828
21
-151.8934834
0
LINE
8
0
10
142.5002558
20
-132.9397664
11
156.3663961
21
-133.9093813
0
LINE
8
0
10
156.3663961
20
-133.9093813
11
157.336011
21
-120.043241
0
LINE
8
0
10
157.336011
20
-120.043241
11
143.4698707
21
-119.0736261
0
LINE
8
0
10
143.4698707
20
-119.0736261
11
142.5002558
21
-132.9397664
0
LINE
8
0
10
124.6001146
20
-208.840398
11
137.7428228
21
-213.3657954
0
LINE
8
0
10
137.7428228
20
-213.3657954
11
142.2682202
21
-200.2230872
0
LINE
8
0
10
142.2682202
20
-200.2230872
11
129.125512
21
-195.6976898
0
LINE
8
0
10
129.125512
20
-195.6976898
11
124.6001146
21
-208.840398
0
LINE
8
0
10
142.5649676
20
-215.0261929
11
155.7076758
21
-219.5515903
0
LINE
8
0
10
155.7076758
20
-219.5515903
11
160.2330732
21
-206.4088821
0
LINE
8
0
10
160.2330732
20
-206.4088821
11
147.090365
21
-201.8834847
0
LINE
8
0
10
147.090365
20
-201.8834847
11
142.5649676
21
-215.0261929
0
LINE
8
0
10
342.8862668
20
-206.95
11
356.7862668
21
-206.95
0
LINE
8
0
10
356.7862668
20
-206.95
11
356.7862668
21
-193.05
0
LINE
8
0
10
356.7862668
20
-193.05
11
342.8862668
21
-193.05
0
LINE
8
0
10
342.8862668
20
-193.05
11
342.8862668
21
-206.95
0
LINE
8
0
10
342.8862668
20
-187.95
11
356.7862668
21
-187.95
0
LINE
8
0
10
356.7862668
20
-187.95
11
356.7862668
21
-174.05
0
LINE
8
0
10
356.7862668
20
-174.05
11
342.8862668
21
-174.05
0
LINE
8
0
10
342.8862668
20
-174.05
11
342.8862668
21
-187.95
0
LINE
8
0
10
342.8862668
20
-168.95
11
356.7862668
21
-168.95
0
LINE
8
0
10
356.7862668
20
-168.95
11
356.7862668
21
-155.05
0
LINE
8
0
10
356.7862668
20
-155.05
11
342.8862668
21
-155.05
0
LINE
8
0
10
342.8862668
20
-155.05
11
342.8862668
21
-168.95
0
LINE
8
0
10
342.8862668
20
-149.95
11
356.7862668
21
-149.95
0
LINE
8
0
10
356.7862668
20
-149.95
11
356.7862668
21
-136.05
0
LINE
8
0
10
356.7862668
20
-136.05
11
342.8862668
21
-136.05
0
LINE
8
0
10
342.8862668
20
-136.05
11
342.8862668
21
-149.95
0
LINE
8
0
10
342.8862668
20
-130.95
11
356.7862668
21
-130.95
0
LINE
8
0
10
356.7862668
20
-130.95
11
356.7862668
21
-117.05
0
LINE
8
0
10
356.7862668
20
-117.05
11
342.8862668
21
-117.05
0
LINE
8
0
10
342.8862668
20
-117.05
11
342.8862668
21
-130.95
0
LINE
8
0
10
324.0086195
20
-202.0702357
11
337.9065025
21
-201.8276473
0
LINE
8
0
10
337.9065025
20
-201.8276473
11
337.6639141
21
-187.9297643
0
LINE
8
0
10
337.6639141
20
-187.9297643
11
323.7660311
21
-188.1723527
0
LINE
8
0
10
323.7660311
20
-188.1723527
11
324.0086195
21
-202.0702357
0
LINE
8
0
10
323.6770238
20
-183.0731295
11
337.5749068
21
-182.8305411
0
LINE
8
0
10
337.5749068
20
-182.8305411
11
337.3323184
21
-168.9326581
0
LINE
8
0
10
337.3323184
20
-168.9326581
11
323.4344354
21
-169.1752465
0
LINE
8
0
10
323.4344354
20
-169.1752465
11
323.6770238
21
-183.0731295
0
LINE
8
0
10
323.3454281
20
-164.0760233
11
337.2433111
21
-163.8334349
0
LINE
8
0
10
337.2433111
20
-163.8334349
11
337.0007227
21
-149.9355519
0
LINE
8
0
10
337.0007227
20
-149.9355519
11
323.1028397
21
-150.1781403
0
LINE
8
0
10
323.1028397
20
-150.1781403
11
323.3454281
21
-164.0760233
0
LINE
8
0
10
323.0138324
20
-145.0789171
11
336.9117154
21
-144.8363287
0
LINE
8
0
10
336.9117154
20
-144.8363287
11
336.669127
21
-130.9384457
0
LINE
8
0
10
336.669127
20
-130.9384457
11
322.771244
21
-131.1810341
0
LINE
8
0
10
322.771244
20
-131.1810341
11
323.0138324
21
-145.0789171
0
LINE
8
0
10
322.6822367
20
-126.0818109
11
336.5801197
21
-125.8392225
0
LINE
8
0
10
336.5801197
20
-125.8392225
11
336.3375313
21
-111.9413395
0
LINE
8
0
10
336.3375313
20
-111.9413395
11
322.4396483
21
-112.1839279
0
LINE
8
0
10
322.4396483
20
-112.1839279
11
322.6822367
21
-126.0818109
0
LINE
8
0
10
305.0661363
20
-198.5205226
11
318.9576687
21
-198.0354196
0
LINE
8
0
10
318.9576687
20
-198.0354196
11
318.4725657
21
-184.1438872
0
LINE
8
0
10
318.4725657
20
-184.1438872
11
304.5810333
21
-184.6289902
0
LINE
8
0
10
304.5810333
20
-184.6289902
11
305.0661363
21
-198.5205226
0
LINE
8
0
10
304.4030459
20
-179.5320969
11
318.2945783
21
-179.0469939
0
LINE
8
0
10
318.2945783
20
-179.0469939
11
317.8094753
21
-165.1554615
0
LINE
8
0
10
317.8094753
20
-165.1554615
11
303.9179429
21
-165.6405645
0
LINE
8
0
10
303.9179429
20
-165.6405645
11
304.4030459
21
-179.5320969
0
LINE
8
0
10
303.7399555
20
-160.5436712
11
317.6314879
21
-160.0585682
0
LINE
8
0
10
317.6314879
20
-160.0585682
11
317.1463849
21
-146.1670358
0
LINE
8
0
10
317.1463849
20
-146.1670358
11
303.2548525
21
-146.6521388
0
LINE
8
0
10
303.2548525
20
-146.6521388
11
303.7399555
21
-160.5436712
0
LINE
8
0
10
303.0768651
20
-141.5552455
11
316.9683975
21
-141.0701425
0
LINE
8
0
10
316.9683975
20
-141.0701425
11
316.4832945
21
-127.1786101
0
LINE
8
0
10
316.4832945
20
-127.1786101
11
302.5917621
21
-127.6637131
0
LINE
8
0
10
302.5917621
20
-127.6637131
11
303.0768651
21
-141.5552455
0
LINE
8
0
10
302.4137747
20
-122.5668198
11
316.3053071
21
-122.0817168
0
LINE
8
0
10
316.3053071
20
-122.0817168
11
315.8202041
21
-108.1901844
0
LINE
8
0
10
315.8202041
20
-108.1901844
11
301.9286717
21
-108.6752874
0
LINE
8
0
10
301.9286717
20
-108.6752874
11
302.4137747
21
-122.5668198
0
LINE
8
0
10
286.3088834
20
-202.297678
11
300.189834
21
-201.5702082
0
LINE
8
0
10
300.189834
20
-201.5702082
11
299.4623642
21
-187.6892576
0
LINE
8
0
10
299.4623642
20
-187.6892576
11
285.5814136
21
-188.4167274
0
LINE
8
0
10
285.5814136
20
-188.4167274
11
286.3088834
21
-202.297678
0
LINE
8
0
10
285.3145002
20
-183.3237168
11
299.1954508
21
-182.596247
0
LINE
8
0
10
299.1954508
20
-182.596247
11
298.467981
21
-168.7152964
0
LINE
8
0
10
298.467981
20
-168.7152964
11
284.5870304
21
-169.4427662
0
LINE
8
0
10
284.5870304
20
-169.4427662
11
285.3145002
21
-183.3237168
0
LINE
8
0
10
284.320117
20
-164.3497556
11
298.2010676
21
-163.6222858
0
LINE
8
0
10
298.2010676
20
-163.6222858
11
297.4735978
21
-149.7413352
0
LINE
8
0
10
297.4735978
20
-149.7413352
11
283.5926472
21
-150.468805
0
LINE
8
0
10
283.5926472
20
-150.468805
11
284.320117
21
-164.3497556
0
LINE
8
0
10
283.3257338
20
-145.3757944
11
297.2066844
21
-144.6483246
0
LINE
8
0
10
297.2066844
20
-144.6483246
11
296.4792146
21
-130.767374
0
LINE
8
0
10
296.4792146
20
-130.767374
11
282.598264
21
-131.4948438
0
LINE
8
0
10
282.598264
20
-131.4948438
11
283.3257338
21
-145.3757944
0
LINE
8
0
10
282.3313506
20
-126.4018332
11
296.2123012
21
-125.6743634
0
LINE
8
0
10
296.2123012
20
-125.6743634
11
295.4848314
21
-111.7934128
0
LINE
8
0
10
295.4848314
20
-111.7934128
11
281.6038808
21
-112.5208826
0
LINE
8
0
10
281.6038808
20
-112.5208826
11
282.3313506
21
-126.4018332
0
LINE
8
0
10
266.3997067
20
-189.4451593
11
280.265847
21
-188.4755444
0
LINE
8
0
10
280.265847
20
-188.4755444
11
279.2962321
21
-174.6094041
0
LINE
8
0
10
279.2962321
20
-174.6094041
11
265.4300918
21
-175.579019
0
LINE
8
0
10
265.4300918
20
-175.579019
11
266.3997067
21
-189.4451593
0
LINE
8
0
10
265.0743337
20
-170.4914423
11
278.940474
21
-169.5218274
0
LINE
8
0
10
278.940474
20
-169.5218274
11
277.9708591
21
-155.6556871
0
LINE
8
0
10
277.9708591
20
-155.6556871
11
264.1047188
21
-156.625302
0
LINE
8
0
10
264.1047188
20
-156.625302
11
265.0743337
21
-170.4914423
0
LINE
8
0
10
263.7489607
20
-151.5377253
11
277.615101
21
-150.5681104
0
LINE
8
0
10
277.615101
20
-150.5681104
11
276.6454861
21
-136.7019701
0
LINE
8
0
10
276.6454861
20
-136.7019701
11
262.7793458
21
-137.671585
0
LINE
8
0
10
262.7793458
20
-137.671585
11
263.7489607
21
-151.5377253
0
LINE
8
0
10
262.4235877
20
-132.5840083
11
276.289728
21
-131.6143934
0
LINE
8
0
10
276.289728
20
-131.6143934
11
275.3201131
21
-117.7482531
0
LINE
8
0
10
275.3201131
20
-117.7482531
11
261.4539728
21
-118.717868
0
LINE
8
0
10
261.4539728
20
-118.717868
11
262.4235877
21
-132.5840083
0
LINE
8
0
10
247.4459897
20
-190.7705323
11
261.31213
21
-189.8009174
0
LINE
8
0
10
261.31213
20
-189.8009174
11
260.3425151
21
-175.9347771
0
LINE
8
0
10
260.3425151
20
-175.9347771
11
246.4763748
21
-176.904392
0
LINE
8
0
10
246.4763748
20
-176.904392
11
247.4459897
21
-190.7705323
0
LINE
8
0
10
246.1206167
20
-171.8168153
11
259.986757
21
-170.8472004
0
LINE
8
0
10
259.986757
20
-170.8472004
11
259.0171421
21
-156.9810601
0
LINE
8
0
10
259.0171421
20
-156.9810601
11
245.1510018
21
-157.950675
0
LINE
8
0
10
245.1510018
20
-157.950675
11
246.1206167
21
-171.8168153
0
LINE
8
0
10
244.7952437
20
-152.8630983
11
258.661384
21
-151.8934834
0
LINE
8
0
10
258.661384
20
-151.8934834
11
257.6917691
21
-138.0273431
0
LINE
8
0
10
257.6917691
20
-138.0273431
11
243.8256288
21
-138.996958
0
LINE
8
0
10
243.8256288
20
-138.996958
11
244.7952437
21
-152.8630983
0
LINE
8
0
10
243.4698707
20
-133.9093813
11
257.336011
21
-132.9397664
0
LINE
8
0
10
257.336011
20
-132.9397664
11
256.3663961
21
-119.0736261
0
LINE
8
0
10
256.3663961
20
-119.0736261
11
242.5002558
21
-120.043241
0
LINE
8
0
10
242.5002558
20
-120.043241
11
243.4698707
21
-133.9093813
0
LINE
8
0
10
262.093444
20
-213.3657954
11
275.2361522
21
-208.840398
0
LINE
8
0
10
275.2361522
20
-208.840398
11
270.7107548
21
-195.6976898
0
LINE
8
0
10
270.7107548
20
-195.6976898
11
257.5680466
21
-200.2230872
0
LINE
8
0
10
257.5680466
20
-200.2230872
11
262.093444
21
-213.3657954
0
LINE
8
0
10
244.128591
20
-219.5515903
11
257.2712992
21
-215.0261929
0
LINE
8
0
10
257.2712992
20
-215.0261929
11
252.7459018
21
-201.8834847
0
LINE
8
0
10
252.7459018
20
-201.8834847
11
239.6031936
21
-206.4088821
0
LINE
8
0
10
239.6031936
20
-206.4088821
11
244.128591
21
-219.5515903
0
ENDSEC
0
EOF