0
SECTION
2
HEADER
9
$INSUNITS
70
4
0
ENDSEC
0
SECTION
2
TABLES
0
TABLE
2
LTYPE
0
LTYPE
72
65
70
64
2
CONTINUOUS
3
______
73
0
40
0
0
ENDTAB
0
TABLE
2
LAYER
0
ENDTAB
0
ENDSEC
0
SECTION
2
ENTITIES
0
LINE
8
0
10
39
20
-207.5
11
39
21
-115.7983441
0
LINE
8
0
10
41.2191192
20
-112.9017556
11
79.7305529
21
-102.5195962
0
LINE
8
0
10
80.6161322
20
-102.4180122
11
101.8664157
21
-103.1600884
0
LINE
8
0
10
102.431166
20
-103.2339083
11
161.3963481
21
-116.732338
0
LINE
8
0
10
161.8565275
20
-116.8006776
11
180.5774979
21
-118.1097754
0
LINE
8
0
10
183.3609206
20
-121.3117371
11
180.8068029
21
-157.8373224
0
LINE
8
0
10
180.6568418
20
-158.5866354
11
165.2212457
21
-204.3617814
0
LINE
8
0
10
165.2150703
20
-204.3799035
11
159.3579635
21
-221.3901766
0
LINE
8
0
10
155.5447033
20
-223.2500277
11
120.0802661
21
-211.0386428
0
LINE
8
0
10
119.1229302
20
-210.875261
11
61.0096804
21
-210.5000625
0
LINE
8
0
10
60.9903118
20
-210.5
11
42
21
-210.5
0
ARC
8
0
10
42
20
-115.7983441
40
3
50
105.0874842
51
180
0
ARC
8
0
10
80.5114337
20
-105.4161847
40
3
50
87.9999998
51
105.0874842
0
ARC
8
0
10
101.7617172
20
-106.1582609
40
3
50
77.1059081
51
87.9999998
0
ARC
8
0
10
162.0657969
20
-113.8079854
40
3
50
257.1059081
51
265.9999987
0
ARC
8
0
10
180.3682284
20
-121.1024676
40
3
50
355.9999987
51
85.9999987
0
ARC
8
0
10
177.8141107
20
-157.6280529
40
3
50
341.3656474
51
355.9999987
0
ARC
8
0
10
162.3785147
20
-203.4031989
40
3
50
340.999998
51
341.3656474
0
ARC
8
0
10
156.5214079
20
-220.413472
40
3
50
250.999998
51
340.999998
0
ARC
8
0
10
119.1035616
20
-213.8751985
40
3
50
70.999998
51
89.6300844
0
ARC
8
0
10
60.9903118
20
-213.5
40
3
50
89.6300844
51
90
0
ARC
8
0
10
42
20
-207.5
40
3
50
180
51
270
0
LINE
8
0
10
360.8362668
20
-207.5
11
360.8362668
21
-115.7983441
0
LINE
8
0
10
358.6171476
20
-112.9017556
11
320.1057139
21
-102.5195962
0
LINE
8
0
10
319.2201346
20
-102.4180122
11
297.9698511
21
-103.1600884
0
LINE
8
0
10
297.4051008
20
-103.2339083
11
238.4399187
21
-116.732338
0
LINE
8
0
10
237.9797393
20
-116.8006776
11
219.2587689
21
-118.1097754
0
LINE
8
0
10
216.4753462
20
-121.3117371
11
219.0294639
21
-157.8373224
0
LINE
8
0
10
219.179425
20
-158.5866354
11
234.6150211
21
-204.3617814
0
LINE
8
0
10
234.6211965
20
-204.3799035
11
240.4783033
21
-221.3901766
0
LINE
8
0
10
244.2915635
20
-223.2500277
11
279.7560007
21
-211.0386428
0
LINE
8
0
10
280.7133366
20
-210.875261
11
338.8265864
21
-210.5000625
0
LINE
8
0
10
338.845955
20
-210.5
11
357.8362668
21
-210.5
0
ARC
8
0
10
357.8362668
20
-115.7983441
40
3
50
0
51
74.9125158
0
ARC
8
0
10
319.3248331
20
-105.4161847
40
3
50
74.9125158
51
92.0000002
0
ARC
8
0
10
298.0745496
20
-106.1582609
40
3
50
92.0000002
51
102.8940919
0
ARC
8
0
10
237.7704699
20
-113.8079854
40
3
50
274.0000013
51
282.8940919
0
ARC
8
0
10
219.4680384
20
-121.1024676
40
3
50
94.0000013
51
184.0000013
0
ARC
8
0
10
222.0221561
20
-157.6280529
40
3
50
184.0000013
51
198.6343526
0
ARC
8
0
10
237.4577521
20
-203.4031989
40
3
50
198.6343526
51
199.000002
0
ARC
8
0
10
243.3148589
20
-220.413472
40
3
50
199.000002
51
289.000002
0
ARC
8
0
10
280.7327052
20
-213.8751985
40
3
50
90.3699156
51
109.000002
0
ARC
8
0
10
338.845955
20
-213.5
40
3
50
90
51
90.3699156
0
ARC
8
0
10
357.8362668
20
-207.5
40
3
50
270
51
0
0
LINE
8
0
10
41.25
20
-208.25
11
58.75
21
-208.25
0
LINE
8
0
10
58.75
20
-208.25
11
58.75
21
-191.75
0
LINE
8
0
10
58.75
20
-191.75
11
41.25
21
-191.75
0
LINE
8
0
10
41.25
20
-191.75
11
41.25
21
-208.25
0
LINE
8
0
10
41.25
20
-189.25
11
58.75
21
-189.25
0
LINE
8
0
10
58.75
20
-189.25
11
58.75
21
-172.75
0
LINE
8
0
10
58.75
20
-172.75
11
41.25
21
-172.75
0
LINE
8
0
10
41.25
20
-172.75
11
41.25
21
-189.25
0
LINE
8
0
10
41.25
20
-170.25
11
58.75
21
-170.25
0
LINE
8
0
10
58.75
20
-170.25
11
58.75
21
-153.75
0
LINE
8
0
10
58.75
20
-153.75
11
41.25
21
-153.75
0
LINE
8
0
10
41.25
20
-153.75
11
41.25
21
-170.25
0
LINE
8
0
10
41.25
20
-151.25
11
58.75
21
-151.25
0
LINE
8
0
10
58.75
20
-151.25
11
58.75
21
-134.75
0
LINE
8
0
10
58.75
20
-134.75
11
41.25
21
-134.75
0
LINE
8
0
10
41.25
20
-134.75
11
41.25
21
-151.25
0
LINE
8
0
10
41.25
20
-132.25
11
58.75
21
-132.25
0
LINE
8
0
10
58.75
20
-132.25
11
58.75
21
-115.75
0
LINE
8
0
10
58.75
20
-115.75
11
41.25
21
-115.75
0
LINE
8
0
10
41.25
20
-115.75
11
41.25
21
-132.25
0
LINE
8
0
10
60.1073503
20
-203.0960349
11
77.604685
21
-203.401452
0
LINE
8
0
10
77.604685
20
-203.401452
11
77.8926497
21
-186.9039651
0
LINE
8
0
10
77.8926497
20
-186.9039651
11
60.395315
21
-186.598548
0
LINE
8
0
10
60.395315
20
-186.598548
11
60.1073503
21
-203.0960349
0
LINE
8
0
10
60.438946
20
-184.0989287
11
77.9362807
21
-184.4043458
0
LINE
8
0
10
77.9362807
20
-184.4043458
11
78.2242454
21
-167.9068589
0
LINE
8
0
10
78.2242454
20
-167.9068589
11
60.7269107
21
-167.6014418
0
LINE
8
0
10
60.7269107
20
-167.6014418
11
60.438946
21
-184.0989287
0
LINE
8
0
10
60.7705417
20
-165.1018225
11
78.2678764
21
-165.4072396
0
LINE
8
0
10
78.2678764
20
-165.4072396
11
78.5558411
21
-148.9097527
0
LINE
8
0
10
78.5558411
20
-148.9097527
11
61.0585064
21
-148.6043356
0
LINE
8
0
10
61.0585064
20
-148.6043356
11
60.7705417
21
-165.1018225
0
LINE
8
0
10
61.1021374
20
-146.1047163
11
78.5994721
21
-146.4101334
0
LINE
8
0
10
78.5994721
20
-146.4101334
11
78.8874368
21
-129.9126465
0
LINE
8
0
10
78.8874368
20
-129.9126465
11
61.3901021
21
-129.6072294
0
LINE
8
0
10
61.3901021
20
-129.6072294
11
61.1021374
21
-146.1047163
0
LINE
8
0
10
61.4337331
20
-127.1076101
11
78.9310678
21
-127.4130272
0
LINE
8
0
10
78.9310678
20
-127.4130272
11
79.2190325
21
-110.9155403
0
LINE
8
0
10
79.2190325
20
-110.9155403
11
61.7216978
21
-110.6101232
0
LINE
8
0
10
61.7216978
20
-110.6101232
11
61.4337331
21
-127.1076101
0
LINE
8
0
10
79.0343252
20
-199.2718086
11
96.5236647
21
-199.8825498
0
LINE
8
0
10
96.5236647
20
-199.8825498
11
97.0995064
21
-183.3926012
0
LINE
8
0
10
97.0995064
20
-183.3926012
11
79.6101669
21
-182.78186
0
LINE
8
0
10
79.6101669
20
-182.78186
11
79.0343252
21
-199.2718086
0
LINE
8
0
10
79.6974156
20
-180.2833829
11
97.1867551
21
-180.8941241
0
LINE
8
0
10
97.1867551
20
-180.8941241
11
97.7625968
21
-164.4041755
0
LINE
8
0
10
97.7625968
20
-164.4041755
11
80.2732573
21
-163.7934343
0
LINE
8
0
10
80.2732573
20
-163.7934343
11
79.6974156
21
-180.2833829
0
LINE
8
0
10
80.360506
20
-161.2949572
11
97.8498455
21
-161.9056984
0
LINE
8
0
10
97.8498455
20
-161.9056984
11
98.4256872
21
-145.4157498
0
LINE
8
0
10
98.4256872
20
-145.4157498
11
80.9363477
21
-144.8050086
0
LINE
8
0
10
80.9363477
20
-144.8050086
11
80.360506
21
-161.2949572
0
LINE
8
0
10
81.0235964
20
-142.3065315
11
98.5129359
21
-142.9172727
0
LINE
8
0
10
98.5129359
20
-142.9172727
11
99.0887776
21
-126.4273241
0
LINE
8
0
10
99.0887776
20
-126.4273241
11
81.5994381
21
-125.8165829
0
LINE
8
0
10
81.5994381
20
-125.8165829
11
81.0235964
21
-142.3065315
0
LINE
8
0
10
81.6866868
20
-123.3181058
11
99.1760263
21
-123.928847
0
LINE
8
0
10
99.1760263
20
-123.928847
11
99.751868
21
-107.4388984
0
LINE
8
0
10
99.751868
20
-107.4388984
11
82.2625285
21
-106.8281572
0
LINE
8
0
10
82.2625285
20
-106.8281572
11
81.6866868
21
-123.3181058
0
LINE
8
0
10
97.7808629
20
-202.7742218
11
115.2568798
21
-203.6901011
0
LINE
8
0
10
115.2568798
20
-203.6901011
11
116.1204231
21
-187.2127138
0
LINE
8
0
10
116.1204231
20
-187.2127138
11
98.6444062
21
-186.2968345
0
LINE
8
0
10
98.6444062
20
-186.2968345
11
97.7808629
21
-202.7742218
0
LINE
8
0
10
98.7752461
20
-183.8002606
11
116.251263
21
-184.7161399
0
LINE
8
0
10
116.251263
20
-184.7161399
11
117.1148063
21
-168.2387526
0
LINE
8
0
10
117.1148063
20
-168.2387526
11
99.6387894
21
-167.3228733
0
LINE
8
0
10
99.6387894
20
-167.3228733
11
98.7752461
21
-183.8002606
0
LINE
8
0
10
99.7696293
20
-164.8262994
11
117.2456462
21
-165.7421787
0
LINE
8
0
10
117.2456462
20
-165.7421787
11
118.1091895
21
-149.2647914
0
LINE
8
0
10
118.1091895
20
-149.2647914
11
100.6331726
21
-148.3489121
0
LINE
8
0
10
100.6331726
20
-148.3489121
11
99.7696293
21
-164.8262994
0
LINE
8
0
10
100.7640125
20
-145.8523382
11
118.2400294
21
-146.7682175
0
LINE
8
0
10
118.2400294
20
-146.7682175
11
119.1035727
21
-130.2908302
0
LINE
8
0
10
119.1035727
20
-130.2908302
11
101.6275558
21
-129.3749509
0
LINE
8
0
10
101.6275558
20
-129.3749509
11
100.7640125
21
-145.8523382
0
LINE
8
0
10
101.7583957
20
-126.878377
11
119.2344126
21
-127.7942563
0
LINE
8
0
10
119.2344126
20
-127.7942563
11
120.0979559
21
-111.316869
0
LINE
8
0
10
120.0979559
20
-111.316869
11
102.621939
21
-110.4009897
0
LINE
8
0
10
102.621939
20
-110.4009897
11
101.7583957
21
-126.878377
0
LINE
8
0
10
117.6841211
20
-189.646816
11
135.1414919
21
-190.8675543
0
LINE
8
0
10
135.1414919
20
-190.8675543
11
136.2924737
21
-174.4077474
0
LINE
8
0
10
136.2924737
20
-174.4077474
11
118.8351029
21
-173.1870091
0
LINE
8
0
10
118.8351029
20
-173.1870091
11
117.6841211
21
-189.646816
0
LINE
8
0
10
119.0094941
20
-170.693099
11
136.4668649
21
-171.9138373
0
LINE
8
0
10
136.4668649
20
-171.9138373
11
137.6178467
21
-155.4540304
0
LINE
8
0
10
137.6178467
20
-155.4540304
11
120.1604759
21
-154.2332921
0
LINE
8
0
10
120.1604759
20
-154.2332921
11
119.0094941
21
-170.693099
0
LINE
8
0
10
120.3348671
20
-151.739382
11
137.7922379
21
-152.9601203
0
LINE
8
0
10
137.7922379
20
-152.9601203
11
138.9432197
21
-136.5003134
0
LINE
8
0
10
138.9432197
20
-136.5003134
11
121.4858489
21
-135.2795751
0
LINE
8
0
10
121.4858489
20
-135.2795751
11
120.3348671
21
-151.739382
0
LINE
8
0
10
121.6602401
20
-132.785665
11
139.1176109
21
-134.0064033
0
LINE
8
0
10
139.1176109
20
-134.0064033
11
140.2685927
21
-117.5465964
0
LINE
8
0
10
140.2685927
20
-117.5465964
11
122.8112219
21
-116.3258581
0
LINE
8
0
10
122.8112219
20
-116.3258581
11
121.6602401
21
-132.785665
0
LINE
8
0
10
136.6378381
20
-190.972189
11
154.0952089
21
-192.1929273
0
LINE
8
0
10
154.0952089
20
-192.1929273
11
155.2461907
21
-175.7331204
0
LINE
8
0
10
155.2461907
20
-175.7331204
11
137.7888199
21
-174.5123821
0
LINE
8
0
10
137.7888199
20
-174.5123821
11
136.6378381
21
-190.972189
0
LINE
8
0
10
137.9632111
20
-172.018472
11
155.4205819
21
-173.2392103
0
LINE
8
0
10
155.4205819
20
-173.2392103
11
156.5715637
21
-156.7794034
0
LINE
8
0
10
156.5715637
20
-156.7794034
11
139.1141929
21
-155.5586651
0
LINE
8
0
10
139.1141929
20
-155.5586651
11
137.9632111
21
-172.018472
0
LINE
8
0
10
139.2885841
20
-153.064755
11
156.7459549
21
-154.2854933
0
LINE
8
0
10
156.7459549
20
-154.2854933
11
157.8969367
21
-137.8256864
0
LINE
8
0
10
157.8969367
20
-137.8256864
11
140.4395659
21
-136.6049481
0
LINE
8
0
10
140.4395659
20
-136.6049481
11
139.2885841
21
-153.064755
0
LINE
8
0
10
140.6139571
20
-134.111038
11
158.0713279
21
-135.3317763
0
LINE
8
0
10
158.0713279
20
-135.3317763
11
159.2223097
21
-118.8719694
0
LINE
8
0
10
159.2223097
20
-118.8719694
11
141.7649389
21
-117.6512311
0
LINE
8
0
10
141.7649389
20
-117.6512311
11
140.6139571
21
-134.111038
0
LINE
8
0
10
122.4749426
20
-209.4835495
11
139.0215177
21
-215.1809922
0
LINE
8
0
10
139.0215177
20
-215.1809922
11
144.3933922
21
-199.5799357
0
LINE
8
0
10
144.3933922
20
-199.5799357
11
127.8468171
21
-193.882493
0
LINE
8
0
10
127.8468171
20
-193.882493
11
122.4749426
21
-209.4835495
0
LINE
8
0
10
140.4397956
20
-215.6693444
11
156.9863707
21
-221.3667871
0
LINE
8
0
10
156.9863707
20
-221.3667871
11
162.3582452
21
-205.7657306
0
LINE
8
0
10
162.3582452
20
-205.7657306
11
145.8116701
21
-200.0682879
0
LINE
8
0
10
145.8116701
20
-200.0682879
11
140.4397956
21
-215.6693444
0
LINE
8
0
10
341.0862668
20
-208.25
11
358.5862668
21
-208.25
0
LINE
8
0
10
358.5862668
20
-208.25
11
358.5862668
21
-191.75
0
LINE
8
0
10
358.5862668
20
-191.75
11
341.0862668
21
-191.75
0
LINE
8
0
10
341.0862668
20
-191.75
11
341.0862668
21
-208.25
0
LINE
8
0
10
341.0862668
20
-189.25
11
358.5862668
21
-189.25
0
LINE
8
0
10
358.5862668
20
-189.25
11
358.5862668
21
-172.75
0
LINE
8
0
10
358.5862668
20
-172.75
11
341.0862668
21
-172.75
0
LINE
8
0
10
341.0862668
20
-172.75
11
341.0862668
21
-189.25
0
LINE
8
0
10
341.0862668
20
-170.25
11
358.5862668
21
-170.25
0
LINE
8
0
10
358.5862668
20
-170.25
11
358.5862668
21
-153.75
0
LINE
8
0
10
358.5862668
20
-153.75
11
341.0862668
21
-153.75
0
LINE
8
0
10
341.0862668
20
-153.75
11
341.0862668
21
-170.25
0
LINE
8
0
10
341.0862668
20
-151.25
11
358.5862668
21
-151.25
0
LINE
8
0
10
358.5862668
20
-151.25
11
358.5862668
21
-134.75
0
LINE
8
0
10
358.5862668
20
-134.75
11
341.0862668
21
-134.75
0
LINE
8
0
10
341.0862668
20
-134.75
11
341.0862668
21
-151.25
0
LINE
8
0
10
341.0862668
20
-132.25
11
358.5862668
21
-132.25
0
LINE
8
0
10
358.5862668
20
-132.25
11
358.5862668
21
-115.75
0
LINE
8
0
10
358.5862668
20
-115.75
11
341.0862668
21
-115.75
0
LINE
8
0
10
341.0862668
20
-115.75
11
341.0862668
21
-132.25
0
LINE
8
0
10
322.2315818
20
-203.401452
11
339.7289165
21
-203.0960349
0
LINE
8
0
10
339.7289165
20
-203.0960349
11
339.4409518
21
-186.598548
0
LINE
8
0
10
339.4409518
20
-186.598548
11
321.9436171
21
-186.9039651
0
LINE
8
0
10
321.9436171
20
-186.9039651
11
322.2315818
21
-203.401452
0
LINE
8
0
10
321.8999861
20
-184.4043458
11
339.3973208
21
-184.0989287
0
LINE
8
0
10
339.3973208
20
-184.0989287
11
339.1093561
21
-167.6014418
0
LINE
8
0
10
339.1093561
20
-167.6014418
11
321.6120214
21
-167.9068589
0
LINE
8
0
10
321.6120214
20
-167.9068589
11
321.8999861
21
-184.4043458
0
LINE
8
0
10
321.5683904
20
-165.4072396
11
339.0657251
21
-165.1018225
0
LINE
8
0
10
339.0657251
20
-165.1018225
11
338.7777604
21
-148.6043356
0
LINE
8
0
10
338.7777604
20
-148.6043356
11
321.2804257
21
-148.9097527
0
LINE
8
0
10
321.2804257
20
-148.9097527
11
321.5683904
21
-165.4072396
0
LINE
8
0
10
321.2367947
20
-146.4101334
11
338.7341294
21
-146.1047163
0
LINE
8
0
10
338.7341294
20
-146.1047163
11
338.4461647
21
-129.6072294
0
LINE
8
0
10
338.4461647
20
-129.6072294
11
320.94883
21
-129.9126465
0
LINE
8
0
10
320.94883
20
-129.9126465
11
321.2367947
21
-146.4101334
0
LINE
8
0
10
320.905199
20
-127.4130272
11
338.4025337
21
-127.1076101
0
LINE
8
0
10
338.4025337
20
-127.1076101
11
338.114569
21
-110.6101232
0
LINE
8
0
10
338.114569
20
-110.6101232
11
320.6172343
21
-110.9155403
0
LINE
8
0
10
320.6172343
20
-110.9155403
11
320.905199
21
-127.4130272
0
LINE
8
0
10
303.3126021
20
-199.8825498
11
320.8019416
21
-199.2718086
0
LINE
8
0
10
320.8019416
20
-199.2718086
11
320.2260999
21
-182.78186
0
LINE
8
0
10
320.2260999
20
-182.78186
11
302.7367604
21
-183.3926012
0
LINE
8
0
10
302.7367604
20
-183.3926012
11
303.3126021
21
-199.8825498
0
LINE
8
0
10
302.6495117
20
-180.8941241
11
320.1388512
21
-180.2833829
0
LINE
8
0
10
320.1388512
20
-180.2833829
11
319.5630095
21
-163.7934343
0
LINE
8
0
10
319.5630095
20
-163.7934343
11
302.07367
21
-164.4041755
0
LINE
8
0
10
302.07367
20
-164.4041755
11
302.6495117
21
-180.8941241
0
LINE
8
0
10
301.9864213
20
-161.9056984
11
319.4757608
21
-161.2949572
0
LINE
8
0
10
319.4757608
20
-161.2949572
11
318.8999191
21
-144.8050086
0
LINE
8
0
10
318.8999191
20
-144.8050086
11
301.4105796
21
-145.4157498
0
LINE
8
0
10
301.4105796
20
-145.4157498
11
301.9864213
21
-161.9056984
0
LINE
8
0
10
301.3233309
20
-142.9172727
11
318.8126704
21
-142.3065315
0
LINE
8
0
10
318.8126704
20
-142.3065315
11
318.2368287
21
-125.8165829
0
LINE
8
0
10
318.2368287
20
-125.8165829
11
300.7474892
21
-126.4273241
0
LINE
8
0
10
300.7474892
20
-126.4273241
11
301.3233309
21
-142.9172727
0
LINE
8
0
10
300.6602405
20
-123.928847
11
318.14958
21
-123.3181058
0
LINE
8
0
10
318.14958
20
-123.3181058
11
317.5737383
21
-106.8281572
0
LINE
8
0
10
317.5737383
20
-106.8281572
11
300.0843988
21
-107.4388984
0
LINE
8
0
10
300.0843988
20
-107.4388984
11
300.6602405
21
-123.928847
0
LINE
8
0
10
284.579387
20
-203.6901011
11
302.0554039
21
-202.7742218
0
LINE
8
0
10
302.0554039
20
-202.7742218
11
301.1918606
21
-186.2968345
0
LINE
8
0
10
301.1918606
20
-186.2968345
11
283.7158437
21
-187.2127138
0
LINE
8
0
10
283.7158437
20
-187.2127138
11
284.579387
21
-203.6901011
0
LINE
8
0
10
283.5850038
20
-184.7161399
11
301.0610207
21
-183.8002606
0
LINE
8
0
10
301.0610207
20
-183.8002606
11
300.1974774
21
-167.3228733
0
LINE
8
0
10
300.1974774
20
-167.3228733
11
282.7214605
21
-168.2387526
0
LINE
8
0
10
282.7214605
20
-168.2387526
11
283.5850038
21
-184.7161399
0
LINE
8
0
10
282.5906206
20
-165.7421787
11
300.0666375
21
-164.8262994
0
LINE
8
0
10
300.0666375
20
-164.8262994
11
299.2030942
21
-148.3489121
0
LINE
8
0
10
299.2030942
20
-148.3489121
11
281.7270773
21
-149.2647914
0
LINE
8
0
10
281.7270773
20
-149.2647914
11
282.5906206
21
-165.7421787
0
LINE
8
0
10
281.5962374
20
-146.7682175
11
299.0722543
21
-145.8523382
0
LINE
8
0
10
299.0722543
20
-145.8523382
11
298.208711
21
-129.3749509
0
LINE
8
0
10
298.208711
20
-129.3749509
11
280.7326941
21
-130.2908302
0
LINE
8
0
10
280.7326941
20
-130.2908302
11
281.5962374
21
-146.7682175
0
LINE
8
0
10
280.6018542
20
-127.7942563
11
298.0778711
21
-126.878377
0
LINE
8
0
10
298.0778711
20
-126.878377
11
297.2143278
21
-110.4009897
0
LINE
8
0
10
297.2143278
20
-110.4009897
11
279.7383109
21
-111.316869
0
LINE
8
0
10
279.7383109
20
-111.316869
11
280.6018542
21
-127.7942563
0
LINE
8
0
10
264.6947749
20
-190.8675543
11
282.1521457
21
-189.646816
0
LINE
8
0
10
282.1521457
20
-189.646816
11
281.0011639
21
-173.1870091
0
LINE
8
0
10
281.0011639
20
-173.1870091
11
263.5437931
21
-174.4077474
0
LINE
8
0
10
263.5437931
20
-174.4077474
11
264.6947749
21
-190.8675543
0
LINE
8
0
10
263.3694019
20
-171.9138373
11
280.8267727
21
-170.693099
0
LINE
8
0
10
280.8267727
20
-170.693099
11
279.6757909
21
-154.2332921
0
LINE
8
0
10
279.6757909
20
-154.2332921
11
262.2184201
21
-155.4540304
0
LINE
8
0
10
262.2184201
20
-155.4540304
11
263.3694019
21
-171.9138373
0
LINE
8
0
10
262.0440289
20
-152.9601203
11
279.5013997
21
-151.739382
0
LINE
8
0
10
279.5013997
20
-151.739382
11
278.3504179
21
-135.2795751
0
LINE
8
0
10
278.3504179
20
-135.2795751
11
260.8930471
21
-136.5003134
0
LINE
8
0
10
260.8930471
20
-136.5003134
11
262.0440289
21
-152.9601203
0
LINE
8
0
10
260.7186559
20
-134.0064033
11
278.1760267
21
-132.785665
0
LINE
8
0
10
278.1760267
20
-132.785665
11
277.0250449
21
-116.3258581
0
LINE
8
0
10
277.0250449
20
-116.3258581
11
259.5676741
21
-117.5465964
0
LINE
8
0
10
259.5676741
20
-117.5465964
11
260.7186559
21
-134.0064033
0
LINE
8
0
10
245.7410579
20
-192.1929273
11
263.1984287
21
-190.972189
0
LINE
8
0
10
263.1984287
20
-190.972189
11
262.0474469
21
-174.5123821
0
LINE
8
0
10
262.0474469
20
-174.5123821
11
244.5900761
21
-175.7331204
0
LINE
8
0
10
244.5900761
20
-175.7331204
11
245.7410579
21
-192.1929273
0
LINE
8
0
10
244.4156849
20
-173.2392103
11
261.8730557
21
-172.018472
0
LINE
8
0
10
261.8730557
20
-172.018472
11
260.7220739
21
-155.5586651
0
LINE
8
0
10
260.7220739
20
-155.5586651
11
243.2647031
21
-156.7794034
0
LINE
8
0
10
243.2647031
20
-156.7794034
11
244.4156849
21
-173.2392103
0
LINE
8
0
10
243.0903119
20
-154.2854933
11
260.5476827
21
-153.064755
0
LINE
8
0
10
260.5476827
20
-153.064755
11
259.3967009
21
-136.6049481
0
LINE
8
0
10
259.3967009
20
-136.6049481
11
241.9393301
21
-137.8256864
0
LINE
8
0
10
241.9393301
20
-137.8256864
11
243.0903119
21
-154.2854933
0
LINE
8
0
10
241.7649389
20
-135.3317763
11
259.2223097
21
-134.111038
0
LINE
8
0
10
259.2223097
20
-134.111038
11
258.0713279
21
-117.6512311
0
LINE
8
0
10
258.0713279
20
-117.6512311
11
240.6139571
21
-118.8719694
0
LINE
8
0
10
240.6139571
20
-118.8719694
11
241.7649389
21
-135.3317763
0
LINE
8
0
10
260.8147491
20
-215.1809922
11
277.3613242
21
-209.4835495
0
LINE
8
0
10
277.3613242
20
-209.4835495
11
271.9894497
21
-193.882493
0
LINE
8
0
10
271.9894497
20
-193.882493
11
255.4428746
21
-199.5799357
0
LINE
8
0
10
255.4428746
20
-199.5799357
11
260.8147491
21
-215.1809922
0
LINE
8
0
10
242.8498961
20
-221.3667871
11
259.3964712
21
-215.6693444
0
LINE
8
0
10
259.3964712
20
-215.6693444
11
254.0245967
21
-200.0682879
0
LINE
8
0
10
254.0245967
20
-200.0682879
11
237.4780216
21
-205.7657306
0
LINE
8
0
10
237.4780216
20
-205.7657306
11
242.8498961
21
-221.3667871
0
ENDSEC
0
EOF