0
SECTION
2
HEADER
9
$INSUNITS
70
4
0
ENDSEC
0
SECTION
2
TABLES
0
TABLE
2
LTYPE
0
LTYPE
72
65
70
64
2
CONTINUOUS
3
______
73
0
40
0
0
ENDTAB
0
TABLE
2
LAYER
0
ENDTAB
0
ENDSEC
0
SECTION
2
ENTITIES
0
LINE
8
0
10
39
20
-210.5
11
61
21
-210.5
0
LINE
8
0
10
61
20
-210.5
11
61
21
-205.3619589
0
LINE
8
0
10
39
20
-210.5
11
39
21
-113.5
0
LINE
8
0
10
59.4209121
20
-113.5
11
39
21
-113.5
0
LINE
8
0
10
61
20
-205.3619589
11
79.8150744
21
-205.6903773
0
LINE
8
0
10
79.8150744
20
-205.6903773
11
79.8872932
21
-201.5529664
0
LINE
8
0
10
79.9465627
20
-108.6778966
11
59.5113084
21
-108.3211979
0
LINE
8
0
10
59.5113084
20
-108.3211979
11
59.4209121
21
-113.5
0
LINE
8
0
10
79.8872932
20
-201.5529664
11
95.5630899
21
-202.1003772
0
LINE
8
0
10
101.979656
20
-108.1142413
11
102.0790212
21
-105.2687929
0
LINE
8
0
10
102.0790212
20
-105.2687929
11
80.092423
21
-104.501004
0
LINE
8
0
10
80.092423
20
-104.501004
11
79.9465627
21
-108.6778966
0
LINE
8
0
10
95.4161906
20
-204.9033824
11
117.3860403
21
-206.0547734
0
LINE
8
0
10
117.3860403
20
-206.0547734
11
118.1261197
21
-191.9332178
0
LINE
8
0
10
95.5630899
20
-202.1003772
11
95.4161906
21
-204.9033824
0
LINE
8
0
10
122.2089462
20
-114.0282487
11
122.4626282
21
-109.1877084
0
LINE
8
0
10
122.4626282
20
-109.1877084
11
101.979656
21
-108.1142413
0
LINE
8
0
10
118.1261197
20
-191.9332178
11
125.9499791
21
-192.4803153
0
LINE
8
0
10
131.8923908
20
-192.8958492
11
156.182776
21
-194.5943984
0
LINE
8
0
10
122.2089462
20
-114.0282487
11
161.6237809
21
-116.7844024
0
LINE
8
0
10
156.182776
20
-194.5943984
11
161.6237809
21
-116.7844024
0
LINE
8
0
10
119.6149974
20
-210.8784379
11
158.3812591
21
-224.2267322
0
LINE
8
0
10
131.8923908
20
-192.8958492
11
165.2181904
21
-204.3708422
0
LINE
8
0
10
125.9499791
20
-192.4803153
11
119.6149974
21
-210.8784379
0
LINE
8
0
10
158.3812591
20
-224.2267322
11
165.2181904
21
-204.3708422
0
LINE
8
0
10
338.8362668
20
-210.5
11
360.8362668
21
-210.5
0
LINE
8
0
10
360.8362668
20
-210.5
11
360.8362668
21
-113.5
0
LINE
8
0
10
338.8362668
20
-205.3619589
11
338.8362668
21
-210.5
0
LINE
8
0
10
360.8362668
20
-113.5
11
340.4153547
21
-113.5
0
LINE
8
0
10
320.0211924
20
-205.6903773
11
338.8362668
21
-205.3619589
0
LINE
8
0
10
319.9489736
20
-201.5529664
11
320.0211924
21
-205.6903773
0
LINE
8
0
10
340.4153547
20
-113.5
11
340.3249584
21
-108.3211979
0
LINE
8
0
10
340.3249584
20
-108.3211979
11
319.8897041
21
-108.6778966
0
LINE
8
0
10
304.2731769
20
-202.1003772
11
319.9489736
21
-201.5529664
0
LINE
8
0
10
319.8897041
20
-108.6778966
11
319.7438438
21
-104.501004
0
LINE
8
0
10
319.7438438
20
-104.501004
11
297.7572456
21
-105.2687929
0
LINE
8
0
10
297.7572456
20
-105.2687929
11
297.8566108
21
-108.1142413
0
LINE
8
0
10
282.4502265
20
-206.0547734
11
304.4200762
21
-204.9033824
0
LINE
8
0
10
304.4200762
20
-204.9033824
11
304.2731769
21
-202.1003772
0
LINE
8
0
10
281.7101471
20
-191.9332178
11
282.4502265
21
-206.0547734
0
LINE
8
0
10
297.8566108
20
-108.1142413
11
277.3736386
21
-109.1877084
0
LINE
8
0
10
277.3736386
20
-109.1877084
11
277.6273206
21
-114.0282487
0
LINE
8
0
10
243.6534908
20
-194.5943984
11
267.943876
21
-192.8958492
0
LINE
8
0
10
273.8862877
20
-192.4803153
11
281.7101471
21
-191.9332178
0
LINE
8
0
10
238.2124859
20
-116.7844024
11
277.6273206
21
-114.0282487
0
LINE
8
0
10
238.2124859
20
-116.7844024
11
243.6534908
21
-194.5943984
0
LINE
8
0
10
241.4550077
20
-224.2267322
11
280.2212694
21
-210.8784379
0
LINE
8
0
10
280.2212694
20
-210.8784379
11
273.8862877
21
-192.4803153
0
LINE
8
0
10
234.6180764
20
-204.3708422
11
267.943876
21
-192.8958492
0
LINE
8
0
10
234.6180764
20
-204.3708422
11
241.4550077
21
-224.2267322
0
ENDSEC
0
EOF