solid csg.js
facet normal 0 0 -1
outer loop
vertex 319.5182094810856 -102.4224232941319 0
vertex 319.8143776427569 -102.45639511131677 0
vertex 320.1057139000002 -102.51959620000004 0
endloop
endfacet
facet normal 0 0 -1
outer loop
vertex 319.5182094810856 -102.4224232941319 0
vertex 320.1057139000002 -102.51959620000004 0
vertex 358.6171484000003 -112.90176205000007 0
endloop
endfacet
facet normal 0 0 -1
outer loop
vertex 319.5182094810856 -102.4224232941319 0
vertex 358.6171484000003 -112.90176205000007 0
vertex 359.07803753456704 -113.06741517649931 0
endloop
endfacet
facet normal 0 0 -1
outer loop
vertex 319.5182094810856 -102.4224232941319 0
vertex 359.07803753456704 -113.06741517649931 0
vertex 359.5058321760785 -113.3058506968715 0
endloop
endfacet
facet normal 0 0 -1
outer loop
vertex 319.5182094810856 -102.4224232941319 0
vertex 359.5058321760785 -113.3058506968715 0
vertex 359.8891311337662 -113.61071404612224 0
endloop
endfacet
facet normal 0 0 -1
outer loop
vertex 319.5182094810856 -102.4224232941319 0
vertex 359.8891311337662 -113.61071404612224 0
vertex 360.2177190750535 -113.97388028563492 0
endloop
endfacet
facet normal 0 0 -1
outer loop
vertex 319.5182094810856 -102.4224232941319 0
vertex 360.2177190750535 -113.97388028563492 0
vertex 360.48283877523664 -114.38567064158822 0
endloop
endfacet
facet normal 0 0 -1
outer loop
vertex 319.5182094810856 -102.4224232941319 0
vertex 360.48283877523664 -114.38567064158822 0
vertex 360.67742450701354 -114.83511045476652 0
endloop
endfacet
facet normal 0 0 -1
outer loop
vertex 319.5182094810856 -102.4224232941319 0
vertex 360.67742450701354 -114.83511045476652 0
vertex 360.79629034977347 -115.31022166712219 0
endloop
endfacet
facet normal 0 0 -1
outer loop
vertex 319.5182094810856 -102.4224232941319 0
vertex 360.79629034977347 -115.31022166712219 0
vertex 360.8362668 -115.79834409999887 0
endloop
endfacet
facet normal 0 0 -1
outer loop
vertex 319.5182094810856 -102.4224232941319 0
vertex 360.8362668 -115.79834409999887 0
vertex 360.8362668162962 -116.73233799999993 0
endloop
endfacet
facet normal 0 0 -1
outer loop
vertex 319.5182094810856 -102.4224232941319 0
vertex 360.8362668162962 -116.73233799999993 0
vertex 238.43991870000042 -116.73233799999993 0
endloop
endfacet
facet normal 0 0 -1
outer loop
vertex 319.5182094810856 -102.4224232941319 0
vertex 238.43991870000042 -116.73233799999993 0
vertex 297.4050955500001 -103.23390919999997 0
endloop
endfacet
facet normal 0 0 -1
outer loop
vertex 319.5182094810856 -102.4224232941319 0
vertex 297.4050955500001 -103.23390919999997 0
vertex 297.6857197012655 -103.1835660771155 0
endloop
endfacet
facet normal 0 0 -1
outer loop
vertex 319.5182094810856 -102.4224232941319 0
vertex 297.6857197012655 -103.1835660771155 0
vertex 297.96985110000014 -103.16008839999999 0
endloop
endfacet
facet normal 0 0 -1
outer loop
vertex 319.5182094810856 -102.4224232941319 0
vertex 297.96985110000014 -103.16008839999999 0
vertex 319.22013195000017 -102.4180131 0
endloop
endfacet
facet normal 0 0 -1
outer loop
vertex 360.8362668162962 -116.73233799999993 0
vertex 360.8362668170483 -116.77544278442842 0
vertex 238.21115608047035 -116.77544278442842 0
endloop
endfacet
facet normal 0 0 -1
outer loop
vertex 360.8362668162962 -116.73233799999993 0
vertex 238.21115608047035 -116.77544278442842 0
vertex 238.43991870000042 -116.73233799999993 0
endloop
endfacet
facet normal 0 0 -1
outer loop
vertex 360.8362668170483 -116.77544278442842 0
vertex 360.8362668174886 -116.800679 0
vertex 237.97973935 -116.800679 0
endloop
endfacet
facet normal 0 0 -1
outer loop
vertex 360.8362668170483 -116.77544278442842 0
vertex 237.97973935 -116.800679 0
vertex 238.21115608047035 -116.77544278442842 0
endloop
endfacet
facet normal 0 0 -1
outer loop
vertex 357.8362667999996 -210.50000000000003 0
vertex 338.845963199999 -210.50000000000003 0
vertex 358.16324493132794 -210.4713932081492 0
endloop
endfacet
facet normal 0 0 -1
outer loop
vertex 360.8362668174886 -116.800679 0
vertex 360.8362684 -207.5 0
vertex 360.7906916590366 -208.02094453300072 0
endloop
endfacet
facet normal 0 0 -1
outer loop
vertex 360.8362668174886 -116.800679 0
vertex 360.7906916590366 -208.02094453300072 0
vertex 360.65534626235785 -208.5260604299766 0
endloop
endfacet
facet normal 0 0 -1
outer loop
vertex 360.8362668174886 -116.800679 0
vertex 360.65534626235785 -208.5260604299766 0
vertex 360.4343446113532 -209.0000000000001 0
endloop
endfacet
facet normal 0 0 -1
outer loop
vertex 360.8362668174886 -116.800679 0
vertex 360.4343446113532 -209.0000000000001 0
vertex 360.13440172935685 -209.42836282905964 0
endloop
endfacet
facet normal 0 0 -1
outer loop
vertex 360.8362668174886 -116.800679 0
vertex 360.13440172935685 -209.42836282905964 0
vertex 359.76463122905943 -209.79813332935709 0
endloop
endfacet
facet normal 0 0 -1
outer loop
vertex 360.8362668174886 -116.800679 0
vertex 359.76463122905943 -209.79813332935709 0
vertex 359.3362684000001 -210.09807621135326 0
endloop
endfacet
facet normal 0 0 -1
outer loop
vertex 360.8362668174886 -116.800679 0
vertex 359.3362684000001 -210.09807621135326 0
vertex 358.86232882997706 -210.31907786235772 0
endloop
endfacet
facet normal 0 0 -1
outer loop
vertex 360.8362668174886 -116.800679 0
vertex 358.86232882997706 -210.31907786235772 0
vertex 358.3572129330009 -210.45442325903662 0
endloop
endfacet
facet normal 0 0 -1
outer loop
vertex 360.8362668174886 -116.800679 0
vertex 358.3572129330009 -210.45442325903662 0
vertex 358.16324493132794 -210.4713932081492 0
endloop
endfacet
facet normal 0 0 -1
outer loop
vertex 360.8362668174886 -116.800679 0
vertex 358.16324493132794 -210.4713932081492 0
vertex 338.845963199999 -210.50000000000003 0
endloop
endfacet
facet normal 0 0 -1
outer loop
vertex 360.8362668174886 -116.800679 0
vertex 338.845963199999 -210.50000000000003 0
vertex 338.8362731515614 -210.50001560053417 0
endloop
endfacet
facet normal 0 0 -1
outer loop
vertex 360.8362668174886 -116.800679 0
vertex 338.8362731515614 -210.50001560053417 0
vertex 236.72852332506648 -210.50001560053417 0
endloop
endfacet
facet normal 0 0 -1
outer loop
vertex 360.8362668174886 -116.800679 0
vertex 236.72852332506648 -210.50001560053417 0
vertex 234.62120054999912 -204.3799006999975 0
endloop
endfacet
facet normal 0 0 -1
outer loop
vertex 360.8362668174886 -116.800679 0
vertex 234.62120054999912 -204.3799006999975 0
vertex 234.61809609557292 -204.37084562982588 0
endloop
endfacet
facet normal 0 0 -1
outer loop
vertex 360.8362668174886 -116.800679 0
vertex 234.61809609557292 -204.37084562982588 0
vertex 234.61502109999597 -204.36178139998808 0
endloop
endfacet
facet normal 0 0 -1
outer loop
vertex 360.8362668174886 -116.800679 0
vertex 234.61502109999597 -204.36178139998808 0
vertex 219.1794269499998 -158.58664119999932 0
endloop
endfacet
facet normal 0 0 -1
outer loop
vertex 360.8362668174886 -116.800679 0
vertex 219.1794269499998 -158.58664119999932 0
vertex 219.1082093630385 -158.34143118626065 0
endloop
endfacet
facet normal 0 0 -1
outer loop
vertex 360.8362668174886 -116.800679 0
vertex 219.1082093630385 -158.34143118626065 0
vertex 219.05810169582858 -158.091053237516 0
endloop
endfacet
facet normal 0 0 -1
outer loop
vertex 360.8362668174886 -116.800679 0
vertex 219.05810169582858 -158.091053237516 0
vertex 219.0294639000001 -157.83732240000117 0
endloop
endfacet
facet normal 0 0 -1
outer loop
vertex 360.8362668174886 -116.800679 0
vertex 219.0294639000001 -157.83732240000117 0
vertex 216.47534945 -121.31173770000004 0
endloop
endfacet
facet normal 0 0 -1
outer loop
vertex 360.8362668174886 -116.800679 0
vertex 216.47534945 -121.31173770000004 0
vertex 216.4844761059004 -120.78888335840817 0
endloop
endfacet
facet normal 0 0 -1
outer loop
vertex 360.8362668174886 -116.800679 0
vertex 216.4844761059004 -120.78888335840817 0
vertex 216.58425673094567 -120.27555716071802 0
endloop
endfacet
facet normal 0 0 -1
outer loop
vertex 360.8362668174886 -116.800679 0
vertex 216.58425673094567 -120.27555716071802 0
vertex 216.77165954673896 -119.78735623589098 0
endloop
endfacet
facet normal 0 0 -1
outer loop
vertex 360.8362668174886 -116.800679 0
vertex 216.77165954673896 -119.78735623589098 0
vertex 217.04099042370188 -119.33911429554686 0
endloop
endfacet
facet normal 0 0 -1
outer loop
vertex 360.8362668174886 -116.800679 0
vertex 217.04099042370188 -119.33911429554686 0
vertex 217.38406589401242 -118.94445091994581 0
endloop
endfacet
facet normal 0 0 -1
outer loop
vertex 360.8362668174886 -116.800679 0
vertex 217.38406589401242 -118.94445091994581 0
vertex 217.790461801689 -118.61535773467313 0
endloop
endfacet
facet normal 0 0 -1
outer loop
vertex 360.8362668174886 -116.800679 0
vertex 217.790461801689 -118.61535773467313 0
vertex 218.2478300347327 -118.36183405181116 0
endloop
endfacet
facet normal 0 0 -1
outer loop
vertex 360.8362668174886 -116.800679 0
vertex 218.2478300347327 -118.36183405181116 0
vertex 218.74227371559135 -118.19158304644453 0
endloop
endfacet
facet normal 0 0 -1
outer loop
vertex 360.8362668174886 -116.800679 0
vertex 218.74227371559135 -118.19158304644453 0
vertex 219.25876889999992 -118.1097754 0
endloop
endfacet
facet normal 0 0 -1
outer loop
vertex 360.8362668174886 -116.800679 0
vertex 219.25876889999992 -118.1097754 0
vertex 237.97973935 -116.800679 0
endloop
endfacet
facet normal 0 0 -1
outer loop
vertex 338.8362731515614 -210.50001560053417 0
vertex 280.71334034999995 -210.87526139999997 0
vertex 236.85773070635162 -210.87526139999997 0
endloop
endfacet
facet normal 0 0 -1
outer loop
vertex 338.8362731515614 -210.50001560053417 0
vertex 236.85773070635162 -210.87526139999997 0
vertex 236.72852332506648 -210.50001560053417 0
endloop
endfacet
facet normal 0 0 -1
outer loop
vertex 280.71334034999995 -210.87526139999997 0
vertex 280.38893937312287 -210.89495919164813 0
vertex 236.8645131942025 -210.89495919164813 0
endloop
endfacet
facet normal 0 0 -1
outer loop
vertex 280.71334034999995 -210.87526139999997 0
vertex 236.8645131942025 -210.89495919164813 0
vertex 236.85773070635162 -210.87526139999997 0
endloop
endfacet
facet normal 0 0 -1
outer loop
vertex 280.38893937312287 -210.89495919164813 0
vertex 280.06857276565944 -210.9496330758767 0
vertex 236.88333890635147 -210.9496330758767 0
endloop
endfacet
facet normal 0 0 -1
outer loop
vertex 280.38893937312287 -210.89495919164813 0
vertex 236.88333890635147 -210.9496330758767 0
vertex 236.8645131942025 -210.89495919164813 0
endloop
endfacet
facet normal 0 0 -1
outer loop
vertex 280.06857276565944 -210.9496330758767 0
vertex 279.756000700001 -211.03864279999968 0
vertex 236.91398738630573 -211.03864279999968 0
endloop
endfacet
facet normal 0 0 -1
outer loop
vertex 280.06857276565944 -210.9496330758767 0
vertex 236.91398738630573 -211.03864279999968 0
vertex 236.88333890635147 -210.9496330758767 0
endloop
endfacet
facet normal 0 0 -1
outer loop
vertex 279.756000700001 -211.03864279999968 0
vertex 244.29156165000123 -223.25003329999964 0
vertex 243.83580109122087 -223.36790046266447 0
endloop
endfacet
facet normal 0 0 -1
outer loop
vertex 279.756000700001 -211.03864279999968 0
vertex 243.83580109122087 -223.36790046266447 0
vertex 243.3672132068924 -223.41301974494402 0
endloop
endfacet
facet normal 0 0 -1
outer loop
vertex 279.756000700001 -211.03864279999968 0
vertex 243.3672132068924 -223.41301974494402 0
vertex 242.89733621116778 -223.38428015793184 0
endloop
endfacet
facet normal 0 0 -1
outer loop
vertex 279.756000700001 -211.03864279999968 0
vertex 242.89733621116778 -223.38428015793184 0
vertex 242.43774006047065 -223.28238936719222 0
endloop
endfacet
facet normal 0 0 -1
outer loop
vertex 279.756000700001 -211.03864279999968 0
vertex 242.43774006047065 -223.28238936719222 0
vertex 241.9997415621462 -223.10985626764807 0
endloop
endfacet
facet normal 0 0 -1
outer loop
vertex 279.756000700001 -211.03864279999968 0
vertex 241.9997415621462 -223.10985626764807 0
vertex 241.59412571649287 -222.87092920612517 0
endloop
endfacet
facet normal 0 0 -1
outer loop
vertex 279.756000700001 -211.03864279999968 0
vertex 241.59412571649287 -222.87092920612517 0
vertex 241.23088015368157 -222.57149137272535 0
endloop
endfacet
facet normal 0 0 -1
outer loop
vertex 279.756000700001 -211.03864279999968 0
vertex 241.23088015368157 -222.57149137272535 0
vertex 240.9189492046147 -222.21891593684379 0
endloop
endfacet
facet normal 0 0 -1
outer loop
vertex 279.756000700001 -211.03864279999968 0
vertex 240.9189492046147 -222.21891593684379 0
vertex 240.66601366133074 -221.82188449486898 0
endloop
endfacet
facet normal 0 0 -1
outer loop
vertex 279.756000700001 -211.03864279999968 0
vertex 240.66601366133074 -221.82188449486898 0
vertex 240.47830329999988 -221.39017659999973 0
endloop
endfacet
facet normal 0 0 -1
outer loop
vertex 279.756000700001 -211.03864279999968 0
vertex 240.47830329999988 -221.39017659999973 0
vertex 236.91398738630573 -211.03864279999968 0
endloop
endfacet
facet normal 0 0 1
outer loop
vertex 243.835801091221 -223.3679004626645 1
vertex 244.29156165000023 -223.25003329999993 1
vertex 279.7560007000009 -211.03864279999968 1
endloop
endfacet
facet normal 0 0 1
outer loop
vertex 243.835801091221 -223.3679004626645 1
vertex 279.7560007000009 -211.03864279999968 1
vertex 236.9139873863057 -211.03864279999968 1
endloop
endfacet
facet normal 0 0 1
outer loop
vertex 243.835801091221 -223.3679004626645 1
vertex 236.9139873863057 -211.03864279999968 1
vertex 240.47830330000005 -221.39017660000016 1
endloop
endfacet
facet normal 0 0 1
outer loop
vertex 243.835801091221 -223.3679004626645 1
vertex 240.47830330000005 -221.39017660000016 1
vertex 240.6660136613307 -221.8218844948689 1
endloop
endfacet
facet normal 0 0 1
outer loop
vertex 243.835801091221 -223.3679004626645 1
vertex 240.6660136613307 -221.8218844948689 1
vertex 240.9189492046147 -222.21891593684373 1
endloop
endfacet
facet normal 0 0 1
outer loop
vertex 243.835801091221 -223.3679004626645 1
vertex 240.9189492046147 -222.21891593684373 1
vertex 241.23088015368177 -222.57149137272552 1
endloop
endfacet
facet normal 0 0 1
outer loop
vertex 243.835801091221 -223.3679004626645 1
vertex 241.23088015368177 -222.57149137272552 1
vertex 241.59412571649287 -222.8709292061252 1
endloop
endfacet
facet normal 0 0 1
outer loop
vertex 243.835801091221 -223.3679004626645 1
vertex 241.59412571649287 -222.8709292061252 1
vertex 241.99974156214606 -223.109856267648 1
endloop
endfacet
facet normal 0 0 1
outer loop
vertex 243.835801091221 -223.3679004626645 1
vertex 241.99974156214606 -223.109856267648 1
vertex 242.43774006047053 -223.2823893671922 1
endloop
endfacet
facet normal 0 0 1
outer loop
vertex 243.835801091221 -223.3679004626645 1
vertex 242.43774006047053 -223.2823893671922 1
vertex 242.89733621116773 -223.38428015793184 1
endloop
endfacet
facet normal 0 0 1
outer loop
vertex 243.835801091221 -223.3679004626645 1
vertex 242.89733621116773 -223.38428015793184 1
vertex 243.36721320689256 -223.41301974494402 1
endloop
endfacet
facet normal 0 0 1
outer loop
vertex 279.7560007000009 -211.03864279999968 1
vertex 280.06857276565927 -210.94963307587676 1
vertex 236.8833389063515 -210.94963307587676 1
endloop
endfacet
facet normal 0 0 1
outer loop
vertex 279.7560007000009 -211.03864279999968 1
vertex 236.8833389063515 -210.94963307587676 1
vertex 236.9139873863057 -211.03864279999968 1
endloop
endfacet
facet normal 0 0 1
outer loop
vertex 280.06857276565927 -210.94963307587676 1
vertex 280.38893937312275 -210.89495919164816 1
vertex 236.8645131942025 -210.89495919164816 1
endloop
endfacet
facet normal 0 0 1
outer loop
vertex 280.06857276565927 -210.94963307587676 1
vertex 236.8645131942025 -210.89495919164816 1
vertex 236.8833389063515 -210.94963307587676 1
endloop
endfacet
facet normal 0 0 1
outer loop
vertex 280.38893937312275 -210.89495919164816 1
vertex 280.7133403500005 -210.87526139999997 1
vertex 236.85773070635162 -210.87526139999997 1
endloop
endfacet
facet normal 0 0 1
outer loop
vertex 280.38893937312275 -210.89495919164816 1
vertex 236.85773070635162 -210.87526139999997 1
vertex 236.8645131942025 -210.89495919164816 1
endloop
endfacet
facet normal 0 0 1
outer loop
vertex 280.7133403500005 -210.87526139999997 1
vertex 338.8362731515561 -210.50001560053417 1
vertex 236.72852332506645 -210.50001560053417 1
endloop
endfacet
facet normal 0 0 1
outer loop
vertex 280.7133403500005 -210.87526139999997 1
vertex 236.72852332506645 -210.50001560053417 1
vertex 236.85773070635162 -210.87526139999997 1
endloop
endfacet
facet normal 0 0 1
outer loop
vertex 338.8362731515561 -210.50001560053417 1
vertex 357.83626680000015 -210.5 1
vertex 358.3572129330011 -210.4544232590366 1
endloop
endfacet
facet normal 0 0 1
outer loop
vertex 338.8362731515561 -210.50001560053417 1
vertex 358.3572129330011 -210.4544232590366 1
vertex 358.86232882997695 -210.31907786235774 1
endloop
endfacet
facet normal 0 0 1
outer loop
vertex 338.8362731515561 -210.50001560053417 1
vertex 358.86232882997695 -210.31907786235774 1
vertex 359.3362684 -210.09807621135332 1
endloop
endfacet
facet normal 0 0 1
outer loop
vertex 338.8362731515561 -210.50001560053417 1
vertex 359.3362684 -210.09807621135332 1
vertex 359.7646312290595 -209.79813332935706 1
endloop
endfacet
facet normal 0 0 1
outer loop
vertex 338.8362731515561 -210.50001560053417 1
vertex 359.7646312290595 -209.79813332935706 1
vertex 360.1344017293568 -209.4283628290597 1
endloop
endfacet
facet normal 0 0 1
outer loop
vertex 338.8362731515561 -210.50001560053417 1
vertex 360.1344017293568 -209.4283628290597 1
vertex 360.4343446113531 -209.00000000000028 1
endloop
endfacet
facet normal 0 0 1
outer loop
vertex 338.8362731515561 -210.50001560053417 1
vertex 360.4343446113531 -209.00000000000028 1
vertex 360.65534626235785 -208.5260604299766 1
endloop
endfacet
facet normal 0 0 1
outer loop
vertex 338.8362731515561 -210.50001560053417 1
vertex 360.65534626235785 -208.5260604299766 1
vertex 360.79069165903667 -208.0209445330008 1
endloop
endfacet
facet normal 0 0 1
outer loop
vertex 338.8362731515561 -210.50001560053417 1
vertex 360.79069165903667 -208.0209445330008 1
vertex 360.83626839999994 -207.50000000000082 1
endloop
endfacet
facet normal 0 0 1
outer loop
vertex 338.8362731515561 -210.50001560053417 1
vertex 360.83626839999994 -207.50000000000082 1
vertex 360.8362668174886 -116.80067900000004 1
endloop
endfacet
facet normal 0 0 1
outer loop
vertex 338.8362731515561 -210.50001560053417 1
vertex 360.8362668174886 -116.80067900000004 1
vertex 237.97973934999948 -116.80067900000004 1
endloop
endfacet
facet normal 0 0 1
outer loop
vertex 338.8362731515561 -210.50001560053417 1
vertex 237.97973934999948 -116.80067900000004 1
vertex 219.25876890000015 -118.10977539999999 1
endloop
endfacet
facet normal 0 0 1
outer loop
vertex 338.8362731515561 -210.50001560053417 1
vertex 219.25876890000015 -118.10977539999999 1
vertex 218.74227371559127 -118.19158304644456 1
endloop
endfacet
facet normal 0 0 1
outer loop
vertex 338.8362731515561 -210.50001560053417 1
vertex 218.74227371559127 -118.19158304644456 1
vertex 218.24783003473283 -118.36183405181112 1
endloop
endfacet
facet normal 0 0 1
outer loop
vertex 338.8362731515561 -210.50001560053417 1
vertex 218.24783003473283 -118.36183405181112 1
vertex 217.7904618016889 -118.61535773467321 1
endloop
endfacet
facet normal 0 0 1
outer loop
vertex 338.8362731515561 -210.50001560053417 1
vertex 217.7904618016889 -118.61535773467321 1
vertex 217.3840658940123 -118.94445091994591 1
endloop
endfacet
facet normal 0 0 1
outer loop
vertex 338.8362731515561 -210.50001560053417 1
vertex 217.3840658940123 -118.94445091994591 1
vertex 217.04099042370197 -119.33911429554672 1
endloop
endfacet
facet normal 0 0 1
outer loop
vertex 338.8362731515561 -210.50001560053417 1
vertex 217.04099042370197 -119.33911429554672 1
vertex 216.77165954673896 -119.787356235891 1
endloop
endfacet
facet normal 0 0 1
outer loop
vertex 338.8362731515561 -210.50001560053417 1
vertex 216.77165954673896 -119.787356235891 1
vertex 216.58425673094567 -120.27555716071807 1
endloop
endfacet
facet normal 0 0 1
outer loop
vertex 338.8362731515561 -210.50001560053417 1
vertex 216.58425673094567 -120.27555716071807 1
vertex 216.4844761059004 -120.78888335840796 1
endloop
endfacet
facet normal 0 0 1
outer loop
vertex 338.8362731515561 -210.50001560053417 1
vertex 216.4844761059004 -120.78888335840796 1
vertex 216.47534945 -121.31173769999974 1
endloop
endfacet
facet normal 0 0 1
outer loop
vertex 338.8362731515561 -210.50001560053417 1
vertex 216.47534945 -121.31173769999974 1
vertex 219.02946389999997 -157.8373223999999 1
endloop
endfacet
facet normal 0 0 1
outer loop
vertex 338.8362731515561 -210.50001560053417 1
vertex 219.02946389999997 -157.8373223999999 1
vertex 219.05810169582858 -158.09105323751604 1
endloop
endfacet
facet normal 0 0 1
outer loop
vertex 338.8362731515561 -210.50001560053417 1
vertex 219.05810169582858 -158.09105323751604 1
vertex 219.10820936303847 -158.34143118626054 1
endloop
endfacet
facet normal 0 0 1
outer loop
vertex 338.8362731515561 -210.50001560053417 1
vertex 219.10820936303847 -158.34143118626054 1
vertex 219.17942694999996 -158.58664119999986 1
endloop
endfacet
facet normal 0 0 1
outer loop
vertex 338.8362731515561 -210.50001560053417 1
vertex 219.17942694999996 -158.58664119999986 1
vertex 234.61502109999117 -204.36178139997392 1
endloop
endfacet
facet normal 0 0 1
outer loop
vertex 338.8362731515561 -210.50001560053417 1
vertex 234.61502109999117 -204.36178139997392 1
vertex 234.61809609557372 -204.37084562982818 1
endloop
endfacet
facet normal 0 0 1
outer loop
vertex 338.8362731515561 -210.50001560053417 1
vertex 234.61809609557372 -204.37084562982818 1
vertex 234.62120055000642 -204.3799007000188 1
endloop
endfacet
facet normal 0 0 1
outer loop
vertex 338.8362731515561 -210.50001560053417 1
vertex 234.62120055000642 -204.3799007000188 1
vertex 236.72852332506645 -210.50001560053417 1
endloop
endfacet
facet normal 0 0 1
outer loop
vertex 360.8362668174886 -116.80067900000004 1
vertex 360.8362668170483 -116.77544278442839 1
vertex 238.2111560804705 -116.77544278442839 1
endloop
endfacet
facet normal 0 0 1
outer loop
vertex 360.8362668174886 -116.80067900000004 1
vertex 238.2111560804705 -116.77544278442839 1
vertex 237.97973934999948 -116.80067900000004 1
endloop
endfacet
facet normal 0 0 1
outer loop
vertex 360.8362668170483 -116.77544278442839 1
vertex 360.8362668162962 -116.73233799999977 1
vertex 238.43991870000121 -116.73233799999977 1
endloop
endfacet
facet normal 0 0 1
outer loop
vertex 360.8362668170483 -116.77544278442839 1
vertex 238.43991870000121 -116.73233799999977 1
vertex 238.2111560804705 -116.77544278442839 1
endloop
endfacet
facet normal 0 0 1
outer loop
vertex 360.8362668162962 -116.73233799999977 1
vertex 360.8362668 -115.79834409999943 1
vertex 360.7962903497734 -115.31022166712214 1
endloop
endfacet
facet normal 0 0 1
outer loop
vertex 360.8362668162962 -116.73233799999977 1
vertex 360.7962903497734 -115.31022166712214 1
vertex 360.6774245070135 -114.83511045476645 1
endloop
endfacet
facet normal 0 0 1
outer loop
vertex 360.8362668162962 -116.73233799999977 1
vertex 360.6774245070135 -114.83511045476645 1
vertex 360.4828387752365 -114.38567064158792 1
endloop
endfacet
facet normal 0 0 1
outer loop
vertex 360.8362668162962 -116.73233799999977 1
vertex 360.4828387752365 -114.38567064158792 1
vertex 360.2177190750534 -113.9738802856348 1
endloop
endfacet
facet normal 0 0 1
outer loop
vertex 360.8362668162962 -116.73233799999977 1
vertex 360.2177190750534 -113.9738802856348 1
vertex 359.8891311337665 -113.61071404612251 1
endloop
endfacet
facet normal 0 0 1
outer loop
vertex 360.8362668162962 -116.73233799999977 1
vertex 359.8891311337665 -113.61071404612251 1
vertex 359.5058321760783 -113.30585069687136 1
endloop
endfacet
facet normal 0 0 1
outer loop
vertex 360.8362668162962 -116.73233799999977 1
vertex 359.5058321760783 -113.30585069687136 1
vertex 359.0780375345671 -113.06741517649935 1
endloop
endfacet
facet normal 0 0 1
outer loop
vertex 360.8362668162962 -116.73233799999977 1
vertex 359.0780375345671 -113.06741517649935 1
vertex 358.61714839999996 -112.90176204999997 1
endloop
endfacet
facet normal 0 0 1
outer loop
vertex 360.8362668162962 -116.73233799999977 1
vertex 358.61714839999996 -112.90176204999997 1
vertex 320.10571390000024 -102.51959620000004 1
endloop
endfacet
facet normal 0 0 1
outer loop
vertex 360.8362668162962 -116.73233799999977 1
vertex 320.10571390000024 -102.51959620000004 1
vertex 319.8143776427568 -102.45639511131675 1
endloop
endfacet
facet normal 0 0 1
outer loop
vertex 360.8362668162962 -116.73233799999977 1
vertex 319.8143776427568 -102.45639511131675 1
vertex 319.51820948108553 -102.42242329413189 1
endloop
endfacet
facet normal 0 0 1
outer loop
vertex 360.8362668162962 -116.73233799999977 1
vertex 319.51820948108553 -102.42242329413189 1
vertex 319.22013195000045 -102.4180131 1
endloop
endfacet
facet normal 0 0 1
outer loop
vertex 360.8362668162962 -116.73233799999977 1
vertex 319.22013195000045 -102.4180131 1
vertex 297.96985110000014 -103.1600884 1
endloop
endfacet
facet normal 0 0 1
outer loop
vertex 360.8362668162962 -116.73233799999977 1
vertex 297.96985110000014 -103.1600884 1
vertex 297.6857197012655 -103.1835660771155 1
endloop
endfacet
facet normal 0 0 1
outer loop
vertex 360.8362668162962 -116.73233799999977 1
vertex 297.6857197012655 -103.1835660771155 1
vertex 297.4050955500005 -103.2339091999999 1
endloop
endfacet
facet normal 0 0 1
outer loop
vertex 360.8362668162962 -116.73233799999977 1
vertex 297.4050955500005 -103.2339091999999 1
vertex 238.43991870000121 -116.73233799999977 1
endloop
endfacet
facet normal 0 0 1
outer loop
vertex 360.8362668 -115.79834409999943 1
vertex 360.8362668162962 -116.73233799999977 1
vertex 360.8362668170483 -116.77544278442839 1
endloop
endfacet
facet normal 0 0 1
outer loop
vertex 360.8362668 -115.79834409999943 1
vertex 360.8362668170483 -116.77544278442839 1
vertex 360.8362668174886 -116.80067900000004 1
endloop
endfacet
facet normal 0 0 1
outer loop
vertex 360.8362668 -115.79834409999943 1
vertex 360.8362668174886 -116.80067900000004 1
vertex 360.83626839999994 -207.50000000000082 1
endloop
endfacet
facet normal 0 0 1
outer loop
vertex 360.8362668 -115.79834409999943 1
vertex 360.83626839999994 -207.50000000000082 1
vertex 360.8362684 -207.5 0
endloop
endfacet
facet normal 0 0 1
outer loop
vertex 360.8362668 -115.79834409999943 1
vertex 360.8362684 -207.5 0
vertex 360.8362668174886 -116.800679 0
endloop
endfacet
facet normal 0 0 1
outer loop
vertex 360.8362668 -115.79834409999943 1
vertex 360.8362668174886 -116.800679 0
vertex 360.8362668170483 -116.77544278442842 0
endloop
endfacet
facet normal 0 0 1
outer loop
vertex 360.8362668 -115.79834409999943 1
vertex 360.8362668170483 -116.77544278442842 0
vertex 360.8362668162962 -116.73233799999993 0
endloop
endfacet
facet normal 0 0 1
outer loop
vertex 360.8362668 -115.79834409999943 1
vertex 360.8362668162962 -116.73233799999993 0
vertex 360.8362668 -115.79834409999887 0
endloop
endfacet
facet normal 0.9966631023249624 0.0816251215250645 0
outer loop
vertex 360.7962903497734 -115.31022166712214 1
vertex 360.8362668 -115.79834409999943 1
vertex 360.8362668 -115.79834409999887 0
endloop
endfacet
facet normal 0.9966631023249624 0.0816251215250645 0
outer loop
vertex 360.7962903497734 -115.31022166712214 1
vertex 360.8362668 -115.79834409999887 0
vertex 360.79629034977347 -115.31022166712219 0
endloop
endfacet
facet normal 0.9701001882731732 0.24270480982533943 0
outer loop
vertex 360.6774245070135 -114.83511045476645 1
vertex 360.7962903497734 -115.31022166712214 1
vertex 360.79629034977347 -115.31022166712219 0
endloop
endfacet
facet normal 0.9701001882731732 0.24270480982533943 0
outer loop
vertex 360.6774245070135 -114.83511045476645 1
vertex 360.79629034977347 -115.31022166712219 0
vertex 360.67742450701354 -114.83511045476652 0
endloop
endfacet
facet normal 0.9176833466424645 0.3973125662436141 0
outer loop
vertex 360.4828387752365 -114.38567064158792 1
vertex 360.6774245070135 -114.83511045476645 1
vertex 360.67742450701354 -114.83511045476652 0
endloop
endfacet
facet normal 0.9176833466424645 0.3973125662436141 0
outer loop
vertex 360.4828387752365 -114.38567064158792 1
vertex 360.67742450701354 -114.83511045476652 0
vertex 360.48283877523664 -114.38567064158822 0
endloop
endfacet
facet normal 0.8408092493934046 0.5413315122311831 0
outer loop
vertex 360.2177190750534 -113.9738802856348 1
vertex 360.4828387752365 -114.38567064158792 1
vertex 360.48283877523664 -114.38567064158822 0
endloop
endfacet
facet normal 0.8408092493934046 0.5413315122311831 0
outer loop
vertex 360.2177190750534 -113.9738802856348 1
vertex 360.48283877523664 -114.38567064158822 0
vertex 360.2177190750535 -113.97388028563492 0
endloop
endfacet
facet normal 0.7415266745208358 0.6709233868140763 0
outer loop
vertex 359.8891311337665 -113.61071404612251 1
vertex 360.2177190750534 -113.9738802856348 1
vertex 360.2177190750535 -113.97388028563492 0
endloop
endfacet
facet normal 0.7415266745208358 0.6709233868140763 0
outer loop
vertex 359.8891311337665 -113.61071404612251 1
vertex 360.2177190750535 -113.97388028563492 0
vertex 359.8891311337662 -113.61071404612224 0
endloop
endfacet
facet normal 0.6224816102308455 0.7826344261048156 0
outer loop
vertex 359.5058321760783 -113.30585069687136 1
vertex 359.8891311337665 -113.61071404612251 1
vertex 359.8891311337662 -113.61071404612224 0
endloop
endfacet
facet normal 0.6224816102308455 0.7826344261048156 0
outer loop
vertex 359.5058321760783 -113.30585069687136 1
vertex 359.8891311337662 -113.61071404612224 0
vertex 359.5058321760785 -113.3058506968715 0
endloop
endfacet
facet normal 0.48684673648769045 0.8734874098527612 0
outer loop
vertex 359.0780375345671 -113.06741517649935 1
vertex 359.5058321760783 -113.30585069687136 1
vertex 359.5058321760785 -113.3058506968715 0
endloop
endfacet
facet normal 0.48684673648769045 0.8734874098527612 0
outer loop
vertex 359.0780375345671 -113.06741517649935 1
vertex 359.5058321760785 -113.3058506968715 0
vertex 359.07803753456704 -113.06741517649931 0
endloop
endfacet
facet normal 0.33823686965485855 0.9410610075898811 0
outer loop
vertex 358.61714839999996 -112.90176204999997 1
vertex 359.0780375345671 -113.06741517649935 1
vertex 359.07803753456704 -113.06741517649931 0
endloop
endfacet
facet normal 0.33823686965485855 0.9410610075898811 0
outer loop
vertex 358.61714839999996 -112.90176204999997 1
vertex 359.07803753456704 -113.06741517649931 0
vertex 358.6171484000003 -112.90176205000007 0
endloop
endfacet
facet normal 0.26029378438465756 0.9655294639785539 0
outer loop
vertex 320.10571390000024 -102.51959620000004 1
vertex 358.61714839999996 -112.90176204999997 1
vertex 358.6171484000003 -112.90176205000007 0
endloop
endfacet
facet normal 0.26029378438465756 0.9655294639785539 0
outer loop
vertex 320.10571390000024 -102.51959620000004 1
vertex 358.6171484000003 -112.90176205000007 0
vertex 320.1057139000002 -102.51959620000004 0
endloop
endfacet
facet normal 0.21200400033896818 0.9772687981513966 0
outer loop
vertex 319.8143776427568 -102.45639511131675 1
vertex 320.10571390000024 -102.51959620000004 1
vertex 320.1057139000002 -102.51959620000004 0
endloop
endfacet
facet normal 0.21200400033896818 0.9772687981513966 0
outer loop
vertex 319.8143776427568 -102.45639511131675 1
vertex 320.1057139000002 -102.51959620000004 0
vertex 319.8143776427569 -102.45639511131677 0
endloop
endfacet
facet normal 0.11395726259682709 0.9934856527909388 0
outer loop
vertex 319.51820948108553 -102.42242329413189 1
vertex 319.8143776427568 -102.45639511131675 1
vertex 319.8143776427569 -102.45639511131677 0
endloop
endfacet
facet normal 0.11395726259682709 0.9934856527909388 0
outer loop
vertex 319.51820948108553 -102.42242329413189 1
vertex 319.8143776427569 -102.45639511131677 0
vertex 319.5182094810856 -102.4224232941319 0
endloop
endfacet
facet normal 0.014793840672638225 0.9998905651510832 0
outer loop
vertex 319.22013195000045 -102.4180131 1
vertex 319.51820948108553 -102.42242329413189 1
vertex 319.5182094810856 -102.4224232941319 0
endloop
endfacet
facet normal 0.014793840672638225 0.9998905651510832 0
outer loop
vertex 319.22013195000045 -102.4180131 1
vertex 319.5182094810856 -102.4224232941319 0
vertex 319.22013195000017 -102.4180131 0
endloop
endfacet
facet normal -0.034899456344049895 0.9993908284284432 0
outer loop
vertex 297.96985110000014 -103.1600884 1
vertex 319.22013195000045 -102.4180131 1
vertex 319.22013195000017 -102.4180131 0
endloop
endfacet
facet normal -0.034899456344049895 0.9993908284284432 0
outer loop
vertex 297.96985110000014 -103.1600884 1
vertex 319.22013195000017 -102.4180131 0
vertex 297.96985110000014 -103.16008839999999 0
endloop
endfacet
facet normal -0.08234899957767547 0.9966035532088756 0
outer loop
vertex 297.6857197012655 -103.1835660771155 1
vertex 297.96985110000014 -103.1600884 1
vertex 297.96985110000014 -103.16008839999999 0
endloop
endfacet
facet normal -0.08234899957767547 0.9966035532088756 0
outer loop
vertex 297.6857197012655 -103.1835660771155 1
vertex 297.96985110000014 -103.16008839999999 0
vertex 297.6857197012655 -103.1835660771155 0
endloop
endfacet
facet normal -0.17657804283143694 0.9842866425944321 0
outer loop
vertex 297.4050955500005 -103.2339091999999 1
vertex 297.6857197012655 -103.1835660771155 1
vertex 297.6857197012655 -103.1835660771155 0
endloop
endfacet
facet normal -0.17657804283143694 0.9842866425944321 0
outer loop
vertex 297.4050955500005 -103.2339091999999 1
vertex 297.6857197012655 -103.1835660771155 0
vertex 297.4050955500001 -103.23390919999997 0
endloop
endfacet
facet normal -0.223149593968713 0.9747842113573643 0
outer loop
vertex 238.43991870000121 -116.73233799999977 1
vertex 297.4050955500005 -103.2339091999999 1
vertex 297.4050955500001 -103.23390919999997 0
endloop
endfacet
facet normal -0.223149593968713 0.9747842113573643 0
outer loop
vertex 238.43991870000121 -116.73233799999977 1
vertex 297.4050955500001 -103.23390919999997 0
vertex 238.43991870000042 -116.73233799999993 0
endloop
endfacet
facet normal -0.18516737303147582 0.9827069980236339 0
outer loop
vertex 238.2111560804705 -116.77544278442839 1
vertex 238.43991870000121 -116.73233799999977 1
vertex 238.43991870000042 -116.73233799999993 0
endloop
endfacet
facet normal -0.18516737303147582 0.9827069980236339 0
outer loop
vertex 238.2111560804705 -116.77544278442839 1
vertex 238.43991870000042 -116.73233799999993 0
vertex 238.21115608047035 -116.77544278442842 0
endloop
endfacet
facet normal -0.10840825906674909 0.9941064577630088 0
outer loop
vertex 237.97973934999948 -116.80067900000004 1
vertex 238.2111560804705 -116.77544278442839 1
vertex 238.21115608047035 -116.77544278442842 0
endloop
endfacet
facet normal -0.10840825906674909 0.9941064577630088 0
outer loop
vertex 237.97973934999948 -116.80067900000004 1
vertex 238.21115608047035 -116.77544278442842 0
vertex 237.97973935 -116.800679 0
endloop
endfacet
facet normal -0.06975640056435851 0.9975640553770494 0
outer loop
vertex 219.25876890000015 -118.10977539999999 1
vertex 237.97973934999948 -116.80067900000004 1
vertex 237.97973935 -116.800679 0
endloop
endfacet
facet normal -0.06975640056435851 0.9975640553770494 0
outer loop
vertex 219.25876890000015 -118.10977539999999 1
vertex 237.97973935 -116.800679 0
vertex 219.25876889999992 -118.1097754 0
endloop
endfacet
facet normal -0.15643977372448611 0.9876874997675286 0
outer loop
vertex 218.74227371559127 -118.19158304644456 1
vertex 219.25876890000015 -118.10977539999999 1
vertex 219.25876889999992 -118.1097754 0
endloop
endfacet
facet normal -0.15643977372448611 0.9876874997675286 0
outer loop
vertex 218.74227371559127 -118.19158304644456 1
vertex 219.25876889999992 -118.1097754 0
vertex 218.74227371559135 -118.19158304644453 0
endloop
endfacet
facet normal -0.3255688260379924 0.9455183443552239 0
outer loop
vertex 218.24783003473283 -118.36183405181112 1
vertex 218.74227371559127 -118.19158304644456 1
vertex 218.74227371559135 -118.19158304644453 0
endloop
endfacet
facet normal -0.3255688260379924 0.9455183443552239 0
outer loop
vertex 218.24783003473283 -118.36183405181112 1
vertex 218.74227371559135 -118.19158304644453 0
vertex 218.2478300347327 -118.36183405181116 0
endloop
endfacet
facet normal -0.4848101050825487 0.8746194383901196 0
outer loop
vertex 217.7904618016889 -118.61535773467321 1
vertex 218.24783003473283 -118.36183405181112 1
vertex 218.2478300347327 -118.36183405181116 0
endloop
endfacet
facet normal -0.4848101050825487 0.8746194383901196 0
outer loop
vertex 217.7904618016889 -118.61535773467321 1
vertex 218.2478300347327 -118.36183405181116 0
vertex 217.790461801689 -118.61535773467313 0
endloop
endfacet
facet normal -0.6293207006657724 0.7771457107348283 0
outer loop
vertex 217.3840658940123 -118.94445091994591 1
vertex 217.7904618016889 -118.61535773467321 1
vertex 217.790461801689 -118.61535773467313 0
endloop
endfacet
facet normal -0.6293207006657724 0.7771457107348283 0
outer loop
vertex 217.3840658940123 -118.94445091994591 1
vertex 217.790461801689 -118.61535773467313 0
vertex 217.38406589401242 -118.94445091994581 0
endloop
endfacet
facet normal -0.7547097392927891 0.6560588460013406 0
outer loop
vertex 217.04099042370197 -119.33911429554672 1
vertex 217.3840658940123 -118.94445091994591 1
vertex 217.38406589401242 -118.94445091994581 0
endloop
endfacet
facet normal -0.7547097392927891 0.6560588460013406 0
outer loop
vertex 217.04099042370197 -119.33911429554672 1
vertex 217.38406589401242 -118.94445091994581 0
vertex 217.04099042370188 -119.33911429554686 0
endloop
endfacet
facet normal -0.8571673452656541 0.5150380007438587 0
outer loop
vertex 216.77165954673896 -119.787356235891 1
vertex 217.04099042370197 -119.33911429554672 1
vertex 217.04099042370188 -119.33911429554686 0
endloop
endfacet
facet normal -0.8571673452656541 0.5150380007438587 0
outer loop
vertex 216.77165954673896 -119.787356235891 1
vertex 217.04099042370188 -119.33911429554686 0
vertex 216.77165954673896 -119.78735623589098 0
endloop
endfacet
facet normal -0.9335804016216186 0.358368014348403 0
outer loop
vertex 216.58425673094567 -120.27555716071807 1
vertex 216.77165954673896 -119.787356235891 1
vertex 216.77165954673896 -119.78735623589098 0
endloop
endfacet
facet normal -0.9335804016216186 0.358368014348403 0
outer loop
vertex 216.58425673094567 -120.27555716071807 1
vertex 216.77165954673896 -119.78735623589098 0
vertex 216.58425673094567 -120.27555716071802 0
endloop
endfacet
facet normal -0.9816271404484909 0.1908092165879799 0
outer loop
vertex 216.4844761059004 -120.78888335840796 1
vertex 216.58425673094567 -120.27555716071807 1
vertex 216.58425673094567 -120.27555716071802 0
endloop
endfacet
facet normal -0.9816271404484909 0.1908092165879799 0
outer loop
vertex 216.4844761059004 -120.78888335840796 1
vertex 216.58425673094567 -120.27555716071802 0
vertex 216.4844761059004 -120.78888335840817 0
endloop
endfacet
facet normal -0.999847688501889 0.017452787669299138 0
outer loop
vertex 216.47534945 -121.31173769999974 1
vertex 216.4844761059004 -120.78888335840796 1
vertex 216.4844761059004 -120.78888335840817 0
endloop
endfacet
facet normal -0.999847688501889 0.017452787669299138 0
outer loop
vertex 216.47534945 -121.31173769999974 1
vertex 216.4844761059004 -120.78888335840817 0
vertex 216.47534945 -121.31173770000004 0
endloop
endfacet
facet normal -0.9975640564220996 -0.06975638561942787 0
outer loop
vertex 219.02946389999997 -157.8373223999999 1
vertex 216.47534945 -121.31173769999974 1
vertex 216.47534945 -121.31173770000004 0
endloop
endfacet
facet normal -0.9975640564220996 -0.06975638561942787 0
outer loop
vertex 219.02946389999997 -157.8373223999999 1
vertex 216.47534945 -121.31173770000004 0
vertex 219.0294639000001 -157.83732240000117 0
endloop
endfacet
facet normal -0.9936907552536719 -0.11215472760159192 0
outer loop
vertex 219.05810169582858 -158.09105323751604 1
vertex 219.02946389999997 -157.8373223999999 1
vertex 219.0294639000001 -157.83732240000117 0
endloop
endfacet
facet normal -0.9936907552536719 -0.11215472760159192 0
outer loop
vertex 219.05810169582858 -158.09105323751604 1
vertex 219.0294639000001 -157.83732240000117 0
vertex 219.05810169582858 -158.091053237516 0
endloop
endfacet
facet normal -0.9805565095714445 -0.1962369270475509 0
outer loop
vertex 219.10820936303847 -158.34143118626054 1
vertex 219.05810169582858 -158.09105323751604 1
vertex 219.05810169582858 -158.091053237516 0
endloop
endfacet
facet normal -0.9805565095714445 -0.1962369270475509 0
outer loop
vertex 219.10820936303847 -158.34143118626054 1
vertex 219.05810169582858 -158.091053237516 0
vertex 219.1082093630385 -158.34143118626065 0
endloop
endfacet
facet normal -0.9603172978690474 -0.27890981949994414 0
outer loop
vertex 219.17942694999996 -158.58664119999986 1
vertex 219.10820936303847 -158.34143118626054 1
vertex 219.1082093630385 -158.34143118626065 0
endloop
endfacet
facet normal -0.9603172978690474 -0.27890981949994414 0
outer loop
vertex 219.17942694999996 -158.58664119999986 1
vertex 219.1082093630385 -158.34143118626065 0
vertex 219.1794269499998 -158.58664119999932 0
endloop
endfacet
facet normal -0.947577016727181 -0.31952745949357125 0
outer loop
vertex 234.61502109999117 -204.36178139997392 1
vertex 219.17942694999996 -158.58664119999986 1
vertex 219.1794269499998 -158.58664119999932 0
endloop
endfacet
facet normal -0.947577016727181 -0.31952745949357125 0
outer loop
vertex 234.61502109999117 -204.36178139997392 1
vertex 219.1794269499998 -158.58664119999932 0
vertex 234.61502109999597 -204.36178139998808 0
endloop
endfacet
facet normal -0.9469904013540663 -0.321261855412784 0
outer loop
vertex 234.61809609557372 -204.37084562982818 1
vertex 234.61502109999117 -204.36178139997392 1
vertex 234.61502109999597 -204.36178139998808 0
endloop
endfacet
facet normal -0.9469904013540663 -0.321261855412784 0
outer loop
vertex 234.61809609557372 -204.37084562982818 1
vertex 234.61502109999597 -204.36178139998808 0
vertex 234.61809609557292 -204.37084562982588 0
endloop
endfacet
facet normal -0.9459504668079781 -0.3243111381771653 0
outer loop
vertex 234.62120055000642 -204.3799007000188 1
vertex 234.61809609557372 -204.37084562982818 1
vertex 234.61809609557292 -204.37084562982588 0
endloop
endfacet
facet normal -0.9459504668079781 -0.3243111381771653 0
outer loop
vertex 234.62120055000642 -204.3799007000188 1
vertex 234.61809609557292 -204.37084562982588 0
vertex 234.62120054999912 -204.3799006999975 0
endloop
endfacet
facet normal 0 0 -1
outer loop
vertex 240.47830330000005 -221.39017660000016 1
vertex 236.9139873863057 -211.03864279999968 1
vertex 236.8833389063515 -210.94963307587676 1
endloop
endfacet
facet normal 0 0 -1
outer loop
vertex 240.47830330000005 -221.39017660000016 1
vertex 236.8833389063515 -210.94963307587676 1
vertex 236.8645131942025 -210.89495919164816 1
endloop
endfacet
facet normal 0 0 -1
outer loop
vertex 240.47830330000005 -221.39017660000016 1
vertex 236.8645131942025 -210.89495919164816 1
vertex 236.85773070635162 -210.87526139999997 1
endloop
endfacet
facet normal 0 0 -1
outer loop
vertex 240.47830330000005 -221.39017660000016 1
vertex 236.85773070635162 -210.87526139999997 1
vertex 236.72852332506645 -210.50001560053417 1
endloop
endfacet
facet normal 0 0 -1
outer loop
vertex 240.47830330000005 -221.39017660000016 1
vertex 236.72852332506645 -210.50001560053417 1
vertex 234.62120055000642 -204.3799007000188 1
endloop
endfacet
facet normal 0 0 -1
outer loop
vertex 240.47830330000005 -221.39017660000016 1
vertex 234.62120055000642 -204.3799007000188 1
vertex 234.62120054999912 -204.3799006999975 0
endloop
endfacet
facet normal 0 0 -1
outer loop
vertex 240.47830330000005 -221.39017660000016 1
vertex 234.62120054999912 -204.3799006999975 0
vertex 236.72852332506648 -210.50001560053417 0
endloop
endfacet
facet normal 0 0 -1
outer loop
vertex 240.47830330000005 -221.39017660000016 1
vertex 236.72852332506648 -210.50001560053417 0
vertex 236.85773070635162 -210.87526139999997 0
endloop
endfacet
facet normal 0 0 -1
outer loop
vertex 240.47830330000005 -221.39017660000016 1
vertex 236.85773070635162 -210.87526139999997 0
vertex 236.8645131942025 -210.89495919164813 0
endloop
endfacet
facet normal 0 0 -1
outer loop
vertex 240.47830330000005 -221.39017660000016 1
vertex 236.8645131942025 -210.89495919164813 0
vertex 236.88333890635147 -210.9496330758767 0
endloop
endfacet
facet normal 0 0 -1
outer loop
vertex 240.47830330000005 -221.39017660000016 1
vertex 236.88333890635147 -210.9496330758767 0
vertex 236.91398738630573 -211.03864279999968 0
endloop
endfacet
facet normal 0 0 -1
outer loop
vertex 240.47830330000005 -221.39017660000016 1
vertex 236.91398738630573 -211.03864279999968 0
vertex 240.47830329999988 -221.39017659999973 0
endloop
endfacet
facet normal -0.9170612968421645 -0.3987462574547469 0
outer loop
vertex 240.6660136613307 -221.8218844948689 1
vertex 240.47830330000005 -221.39017660000016 1
vertex 240.47830329999988 -221.39017659999973 0
endloop
endfacet
facet normal -0.9170612968421645 -0.3987462574547469 0
outer loop
vertex 240.6660136613307 -221.8218844948689 1
vertex 240.47830329999988 -221.39017659999973 0
vertex 240.66601366133074 -221.82188449486898 0
endloop
endfacet
facet normal -0.8433927751792458 -0.5372975216539254 0
outer loop
vertex 240.9189492046147 -222.21891593684373 1
vertex 240.6660136613307 -221.8218844948689 1
vertex 240.66601366133074 -221.82188449486898 0
endloop
endfacet
facet normal -0.8433927751792458 -0.5372975216539254 0
outer loop
vertex 240.9189492046147 -222.21891593684373 1
vertex 240.66601366133074 -221.82188449486898 0
vertex 240.9189492046147 -222.21891593684379 0
endloop
endfacet
facet normal -0.7489572459279792 -0.6626183243557158 0
outer loop
vertex 241.23088015368177 -222.57149137272552 1
vertex 240.9189492046147 -222.21891593684373 1
vertex 240.9189492046147 -222.21891593684379 0
endloop
endfacet
facet normal -0.7489572459279792 -0.6626183243557158 0
outer loop
vertex 241.23088015368177 -222.57149137272552 1
vertex 240.9189492046147 -222.21891593684379 0
vertex 241.23088015368157 -222.57149137272535 0
endloop
endfacet
facet normal -0.6360798632179459 -0.7716232290494106 0
outer loop
vertex 241.59412571649287 -222.8709292061252 1
vertex 241.23088015368177 -222.57149137272552 1
vertex 241.23088015368157 -222.57149137272535 0
endloop
endfacet
facet normal -0.6360798632179459 -0.7716232290494106 0
outer loop
vertex 241.59412571649287 -222.8709292061252 1
vertex 241.23088015368157 -222.57149137272535 0
vertex 241.59412571649287 -222.87092920612517 0
endloop
endfacet
facet normal -0.5075400489212718 -0.8616281673326337 0
outer loop
vertex 241.99974156214606 -223.109856267648 1
vertex 241.59412571649287 -222.8709292061252 1
vertex 241.59412571649287 -222.87092920612517 0
endloop
endfacet
facet normal -0.5075400489212718 -0.8616281673326337 0
outer loop
vertex 241.99974156214606 -223.109856267648 1
vertex 241.59412571649287 -222.87092920612517 0
vertex 241.9997415621462 -223.10985626764807 0
endloop
endfacet
facet normal -0.3665028868018971 -0.9304169140583569 0
outer loop
vertex 242.43774006047053 -223.2823893671922 1
vertex 241.99974156214606 -223.109856267648 1
vertex 241.9997415621462 -223.10985626764807 0
endloop
endfacet
facet normal -0.3665028868018971 -0.9304169140583569 0
outer loop
vertex 242.43774006047053 -223.2823893671922 1
vertex 241.9997415621462 -223.10985626764807 0
vertex 242.43774006047065 -223.28238936719222 0
endloop
endfacet
facet normal -0.21644118747781327 -0.9762956582732477 0
outer loop
vertex 242.89733621116773 -223.38428015793184 1
vertex 242.43774006047053 -223.2823893671922 1
vertex 242.43774006047065 -223.28238936719222 0
endloop
endfacet
facet normal -0.21644118747781327 -0.9762956582732477 0
outer loop
vertex 242.89733621116773 -223.38428015793184 1
vertex 242.43774006047065 -223.28238936719222 0
vertex 242.89733621116778 -223.38428015793184 0
endloop
endfacet
facet normal -0.06104997611058137 -0.998134710556094 0
outer loop
vertex 243.36721320689256 -223.41301974494402 1
vertex 242.89733621116773 -223.38428015793184 1
vertex 242.89733621116778 -223.38428015793184 0
endloop
endfacet
facet normal -0.06104997611058137 -0.998134710556094 0
outer loop
vertex 243.36721320689256 -223.41301974494402 1
vertex 242.89733621116778 -223.38428015793184 0
vertex 243.3672132068924 -223.41301974494402 0
endloop
endfacet
facet normal 0.09584449157620147 -0.9953963197814726 0
outer loop
vertex 243.835801091221 -223.3679004626645 1
vertex 243.36721320689256 -223.41301974494402 1
vertex 243.3672132068924 -223.41301974494402 0
endloop
endfacet
facet normal 0.09584449157620147 -0.9953963197814726 0
outer loop
vertex 243.835801091221 -223.3679004626645 1
vertex 243.3672132068924 -223.41301974494402 0
vertex 243.83580109122087 -223.36790046266447 0
endloop
endfacet
facet normal 0.2503789446186599 -0.968147914366212 0
outer loop
vertex 244.29156165000023 -223.25003329999993 1
vertex 243.835801091221 -223.3679004626645 1
vertex 243.83580109122087 -223.36790046266447 0
endloop
endfacet
facet normal 0.2503789446186599 -0.968147914366212 0
outer loop
vertex 244.29156165000023 -223.25003329999993 1
vertex 243.83580109122087 -223.36790046266447 0
vertex 244.29156165000123 -223.25003329999964 0
endloop
endfacet
facet normal 0.3255682699443661 -0.9455185358338737 0
outer loop
vertex 279.7560007000009 -211.03864279999968 1
vertex 244.29156165000023 -223.25003329999993 1
vertex 244.29156165000123 -223.25003329999964 0
endloop
endfacet
facet normal 0.3255682699443661 -0.9455185358338737 0
outer loop
vertex 279.7560007000009 -211.03864279999968 1
vertex 244.29156165000123 -223.25003329999964 0
vertex 279.756000700001 -211.03864279999968 0
endloop
endfacet
facet normal 0.27387733540052883 -0.9617646308499321 0
outer loop
vertex 280.06857276565927 -210.94963307587676 1
vertex 279.7560007000009 -211.03864279999968 1
vertex 279.756000700001 -211.03864279999968 0
endloop
endfacet
facet normal 0.27387733540052883 -0.9617646308499321 0
outer loop
vertex 280.06857276565927 -210.94963307587676 1
vertex 279.756000700001 -211.03864279999968 0
vertex 280.06857276565944 -210.9496330758767 0
endloop
endfacet
facet normal 0.16822813498893688 -0.9857480888128286 0
outer loop
vertex 280.38893937312275 -210.89495919164816 1
vertex 280.06857276565927 -210.94963307587676 1
vertex 280.06857276565944 -210.9496330758767 0
endloop
endfacet
facet normal 0.16822813498893688 -0.9857480888128286 0
outer loop
vertex 280.38893937312275 -210.89495919164816 1
vertex 280.06857276565944 -210.9496330758767 0
vertex 280.38893937312287 -210.89495919164813 0
endloop
endfacet
facet normal 0.06060887751286262 -0.9981615921115332 0
outer loop
vertex 280.7133403500005 -210.87526139999997 1
vertex 280.38893937312275 -210.89495919164816 1
vertex 280.38893937312287 -210.89495919164813 0
endloop
endfacet
facet normal 0.06060887751286262 -0.9981615921115332 0
outer loop
vertex 280.7133403500005 -210.87526139999997 1
vertex 280.38893937312287 -210.89495919164813 0
vertex 280.71334034999995 -210.87526139999997 0
endloop
endfacet
facet normal 0.006456205870250642 -0.9999791584856961 0
outer loop
vertex 338.82658639999994 -210.50006249999637 1
vertex 280.7133403500005 -210.87526139999997 1
vertex 280.71334034999995 -210.87526139999997 0
endloop
endfacet
facet normal 0.006456205870250642 -0.9999791584856961 0
outer loop
vertex 338.82658639999994 -210.50006249999637 1
vertex 280.71334034999995 -210.87526139999997 0
vertex 338.82658639999994 -210.50006249999637 0
endloop
endfacet
facet normal 0.004841552495179258 -0.9999882796160346 0
outer loop
vertex 338.8362731515561 -210.50001560053417 1
vertex 338.82658639999994 -210.50006249999637 1
vertex 338.82658639999994 -210.50006249999637 0
endloop
endfacet
facet normal 0.004841552495179258 -0.9999882796160346 0
outer loop
vertex 338.8362731515561 -210.50001560053417 1
vertex 338.82658639999994 -210.50006249999637 0
vertex 338.8362731515614 -210.50001560053417 0
endloop
endfacet
facet normal 0.0014809542500415773 -0.9999989033866534 0
outer loop
vertex 338.8459632 -210.50000125000153 1.0000000000000004
vertex 338.8362731515561 -210.50001560053417 1
vertex 338.8362731515614 -210.50001560053417 0
endloop
endfacet
facet normal 0.0014809542500415773 -0.9999989033866534 0
outer loop
vertex 338.8459632 -210.50000125000153 1.0000000000000004
vertex 338.8362731515614 -210.50001560053417 0
vertex 338.845963199999 -210.50000000000003 0
endloop
endfacet
facet normal 6.582305900337815e-8 -0.9999999999999979 0
outer loop
vertex 357.83626680000015 -210.5 1
vertex 338.8459632 -210.50000125000153 1.0000000000000004
vertex 338.845963199999 -210.50000000000003 0
endloop
endfacet
facet normal 6.582305900337815e-8 -0.9999999999999979 0
outer loop
vertex 357.83626680000015 -210.5 1
vertex 338.845963199999 -210.50000000000003 0
vertex 357.8362667999996 -210.50000000000003 0
endloop
endfacet
facet normal 0.08715547709658565 -0.9961947213331671 -2.1230569661068622e-14
outer loop
vertex 358.3572129330011 -210.4544232590366 1
vertex 357.83626680000015 -210.5 1
vertex 357.8362667999996 -210.50000000000003 0
endloop
endfacet
facet normal 0.08715547709658565 -0.9961947213331671 -2.1230569661068622e-14
outer loop
vertex 358.3572129330011 -210.4544232590366 1
vertex 357.8362667999996 -210.50000000000003 0
vertex 358.16324493132794 -210.4713932081492 0
endloop
endfacet
facet normal 0.08715547709658565 -0.9961947213331671 -2.1230569661068622e-14
outer loop
vertex 358.3572129330011 -210.4544232590366 1
vertex 358.16324493132794 -210.4713932081492 0
vertex 358.3572129330009 -210.45442325903662 0
endloop
endfacet
facet normal 0.25881904510254033 -0.965925826289063 0
outer loop
vertex 358.86232882997695 -210.31907786235774 1
vertex 358.3572129330011 -210.4544232590366 1
vertex 358.3572129330009 -210.45442325903662 0
endloop
endfacet
facet normal 0.25881904510254033 -0.965925826289063 0
outer loop
vertex 358.86232882997695 -210.31907786235774 1
vertex 358.3572129330009 -210.45442325903662 0
vertex 358.86232882997706 -210.31907786235772 0
endloop
endfacet
facet normal 0.4226182617406892 -0.9063077870366548 0
outer loop
vertex 359.3362684 -210.09807621135332 1
vertex 358.86232882997695 -210.31907786235774 1
vertex 358.86232882997706 -210.31907786235772 0
endloop
endfacet
facet normal 0.4226182617406892 -0.9063077870366548 0
outer loop
vertex 359.3362684 -210.09807621135332 1
vertex 358.86232882997706 -210.31907786235772 0
vertex 359.3362684000001 -210.09807621135326 0
endloop
endfacet
facet normal 0.5735764363510598 -0.8191520442889821 0
outer loop
vertex 359.7646312290595 -209.79813332935706 1
vertex 359.3362684 -210.09807621135332 1
vertex 359.3362684000001 -210.09807621135326 0
endloop
endfacet
facet normal 0.5735764363510598 -0.8191520442889821 0
outer loop
vertex 359.7646312290595 -209.79813332935706 1
vertex 359.3362684000001 -210.09807621135326 0
vertex 359.76463122905943 -209.79813332935709 0
endloop
endfacet
facet normal 0.7071067811866044 -0.7071067811864907 0
outer loop
vertex 360.1344017293568 -209.4283628290597 1
vertex 359.7646312290595 -209.79813332935706 1
vertex 359.76463122905943 -209.79813332935709 0
endloop
endfacet
facet normal 0.7071067811866044 -0.7071067811864907 0
outer loop
vertex 360.1344017293568 -209.4283628290597 1
vertex 359.76463122905943 -209.79813332935709 0
vertex 360.13440172935685 -209.42836282905964 0
endloop
endfacet
facet normal 0.8191520442889462 -0.5735764363511116 0
outer loop
vertex 360.4343446113531 -209.00000000000028 1
vertex 360.1344017293568 -209.4283628290597 1
vertex 360.13440172935685 -209.42836282905964 0
endloop
endfacet
facet normal 0.8191520442889462 -0.5735764363511116 0
outer loop
vertex 360.4343446113531 -209.00000000000028 1
vertex 360.13440172935685 -209.42836282905964 0
vertex 360.4343446113532 -209.0000000000001 0
endloop
endfacet
facet normal 0.9063077870366011 -0.42261826174080436 0
outer loop
vertex 360.65534626235785 -208.5260604299766 1
vertex 360.4343446113531 -209.00000000000028 1
vertex 360.4343446113532 -209.0000000000001 0
endloop
endfacet
facet normal 0.9063077870366011 -0.42261826174080436 0
outer loop
vertex 360.65534626235785 -208.5260604299766 1
vertex 360.4343446113532 -209.0000000000001 0
vertex 360.65534626235785 -208.5260604299766 0
endloop
endfacet
facet normal 0.9659258262890784 -0.2588190451024838 0
outer loop
vertex 360.79069165903667 -208.0209445330008 1
vertex 360.65534626235785 -208.5260604299766 1
vertex 360.65534626235785 -208.5260604299766 0
endloop
endfacet
facet normal 0.9659258262890784 -0.2588190451024838 0
outer loop
vertex 360.79069165903667 -208.0209445330008 1
vertex 360.65534626235785 -208.5260604299766 0
vertex 360.7906916590366 -208.02094453300072 0
endloop
endfacet
facet normal 0.996194698091746 -0.08715574274765432 0
outer loop
vertex 360.83626839999994 -207.50000000000082 1
vertex 360.79069165903667 -208.0209445330008 1
vertex 360.7906916590366 -208.02094453300072 0
endloop
endfacet
facet normal 0.996194698091746 -0.08715574274765432 0
outer loop
vertex 360.83626839999994 -207.50000000000082 1
vertex 360.7906916590366 -208.02094453300072 0
vertex 360.8362684 -207.5 0
endloop
endfacet
endsolid csg.js
