solid csg.js
facet normal 0 0 -1
outer loop
vertex 101.86641569999979 -103.1600884 0
vertex 102.15054869873477 -103.18356607711553 0
vertex 102.43117285000004 -103.23390919999999 0
endloop
endfacet
facet normal 0 0 -1
outer loop
vertex 101.86641569999979 -103.1600884 0
vertex 102.43117285000004 -103.23390919999999 0
vertex 161.3963481000005 -116.7323380000001 0
endloop
endfacet
facet normal 0 0 -1
outer loop
vertex 101.86641569999979 -103.1600884 0
vertex 161.3963481000005 -116.7323380000001 0
vertex 39 -116.7323380000001 0
endloop
endfacet
facet normal 0 0 -1
outer loop
vertex 101.86641569999979 -103.1600884 0
vertex 39 -116.7323380000001 0
vertex 39 -115.79834409999997 0
endloop
endfacet
facet normal 0 0 -1
outer loop
vertex 101.86641569999979 -103.1600884 0
vertex 39 -115.79834409999997 0
vertex 39.03997805022662 -115.31022166712184 0
endloop
endfacet
facet normal 0 0 -1
outer loop
vertex 101.86641569999979 -103.1600884 0
vertex 39.03997805022662 -115.31022166712184 0
vertex 39.15884389298657 -114.83511045476632 0
endloop
endfacet
facet normal 0 0 -1
outer loop
vertex 101.86641569999979 -103.1600884 0
vertex 39.15884389298657 -114.83511045476632 0
vertex 39.35342962476355 -114.38567064158792 0
endloop
endfacet
facet normal 0 0 -1
outer loop
vertex 101.86641569999979 -103.1600884 0
vertex 39.35342962476355 -114.38567064158792 0
vertex 39.61854932494656 -113.9738802856349 0
endloop
endfacet
facet normal 0 0 -1
outer loop
vertex 101.86641569999979 -103.1600884 0
vertex 39.61854932494656 -113.9738802856349 0
vertex 39.94713726623368 -113.61071404612234 0
endloop
endfacet
facet normal 0 0 -1
outer loop
vertex 101.86641569999979 -103.1600884 0
vertex 39.94713726623368 -113.61071404612234 0
vertex 40.33043622392151 -113.3058506968715 0
endloop
endfacet
facet normal 0 0 -1
outer loop
vertex 101.86641569999979 -103.1600884 0
vertex 40.33043622392151 -113.3058506968715 0
vertex 40.75823086543292 -113.06741517649935 0
endloop
endfacet
facet normal 0 0 -1
outer loop
vertex 101.86641569999979 -103.1600884 0
vertex 40.75823086543292 -113.06741517649935 0
vertex 41.21911999999975 -112.90176205000009 0
endloop
endfacet
facet normal 0 0 -1
outer loop
vertex 101.86641569999979 -103.1600884 0
vertex 41.21911999999975 -112.90176205000009 0
vertex 79.73055290000008 -102.5195962 0
endloop
endfacet
facet normal 0 0 -1
outer loop
vertex 101.86641569999979 -103.1600884 0
vertex 79.73055290000008 -102.5195962 0
vertex 80.02188575724321 -102.45639511131675 0
endloop
endfacet
facet normal 0 0 -1
outer loop
vertex 101.86641569999979 -103.1600884 0
vertex 80.02188575724321 -102.45639511131675 0
vertex 80.31805391891419 -102.42242329413193 0
endloop
endfacet
facet normal 0 0 -1
outer loop
vertex 101.86641569999979 -103.1600884 0
vertex 80.31805391891419 -102.42242329413193 0
vertex 80.6161314499999 -102.41801310000002 0
endloop
endfacet
facet normal 0 0 -1
outer loop
vertex 161.3963481000005 -116.7323380000001 0
vertex 161.62511231952956 -116.7754427844284 0
vertex 39 -116.7754427844284 0
endloop
endfacet
facet normal 0 0 -1
outer loop
vertex 161.3963481000005 -116.7323380000001 0
vertex 39 -116.7754427844284 0
vertex 39 -116.7323380000001 0
endloop
endfacet
facet normal 0 0 -1
outer loop
vertex 161.62511231952956 -116.7754427844284 0
vertex 161.85652905000035 -116.80067900000003 0
vertex 39 -116.80067900000003 0
endloop
endfacet
facet normal 0 0 -1
outer loop
vertex 161.62511231952956 -116.7754427844284 0
vertex 39 -116.80067900000003 0
vertex 39 -116.7754427844284 0
endloop
endfacet
facet normal 0 0 -1
outer loop
vertex 161.85652905000035 -116.80067900000003 0
vertex 180.57749789999997 -118.1097754 0
vertex 181.09399468440873 -118.19158304644456 0
endloop
endfacet
facet normal 0 0 -1
outer loop
vertex 161.85652905000035 -116.80067900000003 0
vertex 181.09399468440873 -118.19158304644456 0
vertex 181.5884383652673 -118.36183405181116 0
endloop
endfacet
facet normal 0 0 -1
outer loop
vertex 161.85652905000035 -116.80067900000003 0
vertex 181.5884383652673 -118.36183405181116 0
vertex 182.04580659831092 -118.61535773467308 0
endloop
endfacet
facet normal 0 0 -1
outer loop
vertex 161.85652905000035 -116.80067900000003 0
vertex 182.04580659831092 -118.61535773467308 0
vertex 182.4522025059877 -118.94445091994594 0
endloop
endfacet
facet normal 0 0 -1
outer loop
vertex 161.85652905000035 -116.80067900000003 0
vertex 182.4522025059877 -118.94445091994594 0
vertex 182.79527797629802 -119.33911429554671 0
endloop
endfacet
facet normal 0 0 -1
outer loop
vertex 161.85652905000035 -116.80067900000003 0
vertex 182.79527797629802 -119.33911429554671 0
vertex 183.06460885326098 -119.7873562358909 0
endloop
endfacet
facet normal 0 0 -1
outer loop
vertex 161.85652905000035 -116.80067900000003 0
vertex 183.06460885326098 -119.7873562358909 0
vertex 183.25201166905435 -120.27555716071817 0
endloop
endfacet
facet normal 0 0 -1
outer loop
vertex 161.85652905000035 -116.80067900000003 0
vertex 183.25201166905435 -120.27555716071817 0
vertex 183.3517922940996 -120.78888335840827 0
endloop
endfacet
facet normal 0 0 -1
outer loop
vertex 161.85652905000035 -116.80067900000003 0
vertex 183.3517922940996 -120.78888335840827 0
vertex 183.36091894999998 -121.31173770000011 0
endloop
endfacet
facet normal 0 0 -1
outer loop
vertex 161.85652905000035 -116.80067900000003 0
vertex 183.36091894999998 -121.31173770000011 0
vertex 180.80680290000004 -157.83732239999995 0
endloop
endfacet
facet normal 0 0 -1
outer loop
vertex 161.85652905000035 -116.80067900000003 0
vertex 180.80680290000004 -157.83732239999995 0
vertex 180.77816670417144 -158.0910532375157 0
endloop
endfacet
facet normal 0 0 -1
outer loop
vertex 161.85652905000035 -116.80067900000003 0
vertex 180.77816670417144 -158.0910532375157 0
vertex 180.7280590369615 -158.34143118626054 0
endloop
endfacet
facet normal 0 0 -1
outer loop
vertex 161.85652905000035 -116.80067900000003 0
vertex 180.7280590369615 -158.34143118626054 0
vertex 180.65684144999983 -158.58664120000043 0
endloop
endfacet
facet normal 0 0 -1
outer loop
vertex 161.85652905000035 -116.80067900000003 0
vertex 180.65684144999983 -158.58664120000043 0
vertex 165.22124570000435 -204.36178139998725 0
endloop
endfacet
facet normal 0 0 -1
outer loop
vertex 161.85652905000035 -116.80067900000003 0
vertex 165.22124570000435 -204.36178139998725 0
vertex 165.21817230442875 -204.370845629821 0
endloop
endfacet
facet normal 0 0 -1
outer loop
vertex 161.85652905000035 -116.80067900000003 0
vertex 165.21817230442875 -204.370845629821 0
vertex 165.21506784999812 -204.37990070000558 0
endloop
endfacet
facet normal 0 0 -1
outer loop
vertex 161.85652905000035 -116.80067900000003 0
vertex 165.21506784999812 -204.37990070000558 0
vertex 163.10774449927064 -210.5000156005342 0
endloop
endfacet
facet normal 0 0 -1
outer loop
vertex 161.85652905000035 -116.80067900000003 0
vertex 163.10774449927064 -210.5000156005342 0
vertex 60.999995248450524 -210.5000156005342 0
endloop
endfacet
facet normal 0 0 -1
outer loop
vertex 161.85652905000035 -116.80067900000003 0
vertex 60.999995248450524 -210.5000156005342 0
vertex 41.99999999999946 -210.5 0
endloop
endfacet
facet normal 0 0 -1
outer loop
vertex 161.85652905000035 -116.80067900000003 0
vertex 41.99999999999946 -210.5 0
vertex 41.479055466999355 -210.45442325903667 0
endloop
endfacet
facet normal 0 0 -1
outer loop
vertex 161.85652905000035 -116.80067900000003 0
vertex 41.479055466999355 -210.45442325903667 0
vertex 40.97393957002305 -210.31907786235774 0
endloop
endfacet
facet normal 0 0 -1
outer loop
vertex 161.85652905000035 -116.80067900000003 0
vertex 40.97393957002305 -210.31907786235774 0
vertex 40.49999999999994 -210.0980762113533 0
endloop
endfacet
facet normal 0 0 -1
outer loop
vertex 161.85652905000035 -116.80067900000003 0
vertex 40.49999999999994 -210.0980762113533 0
vertex 40.07163717094028 -209.7981333293569 0
endloop
endfacet
facet normal 0 0 -1
outer loop
vertex 161.85652905000035 -116.80067900000003 0
vertex 40.07163717094028 -209.7981333293569 0
vertex 39.70186667064311 -209.4283628290597 0
endloop
endfacet
facet normal 0 0 -1
outer loop
vertex 161.85652905000035 -116.80067900000003 0
vertex 39.70186667064311 -209.4283628290597 0
vertex 39.4019237886467 -209.00000000000003 0
endloop
endfacet
facet normal 0 0 -1
outer loop
vertex 161.85652905000035 -116.80067900000003 0
vertex 39.4019237886467 -209.00000000000003 0
vertex 39.180922137642284 -208.526060429977 0
endloop
endfacet
facet normal 0 0 -1
outer loop
vertex 161.85652905000035 -116.80067900000003 0
vertex 39.180922137642284 -208.526060429977 0
vertex 39.045576740963384 -208.02094453300083 0
endloop
endfacet
facet normal 0 0 -1
outer loop
vertex 161.85652905000035 -116.80067900000003 0
vertex 39.045576740963384 -208.02094453300083 0
vertex 39 -207.49999999999994 0
endloop
endfacet
facet normal 0 0 -1
outer loop
vertex 161.85652905000035 -116.80067900000003 0
vertex 39 -207.49999999999994 0
vertex 39 -116.80067900000003 0
endloop
endfacet
facet normal 0 0 -1
outer loop
vertex 163.10774449927064 -210.5000156005342 0
vertex 162.9785370826896 -210.87526139999997 0
vertex 119.12292805 -210.87526139999997 0
endloop
endfacet
facet normal 0 0 -1
outer loop
vertex 163.10774449927064 -210.5000156005342 0
vertex 119.12292805 -210.87526139999997 0
vertex 60.999995248450524 -210.5000156005342 0
endloop
endfacet
facet normal 0 0 -1
outer loop
vertex 162.9785370826896 -210.87526139999997 0
vertex 162.97175459298597 -210.8949591916481 0
vertex 119.44732902687682 -210.8949591916481 0
endloop
endfacet
facet normal 0 0 -1
outer loop
vertex 162.9785370826896 -210.87526139999997 0
vertex 119.44732902687682 -210.8949591916481 0
vertex 119.12292805 -210.87526139999997 0
endloop
endfacet
facet normal 0 0 -1
outer loop
vertex 162.97175459298597 -210.8949591916481 0
vertex 162.95292887569428 -210.9496330758767 0
vertex 119.76769563434038 -210.9496330758767 0
endloop
endfacet
facet normal 0 0 -1
outer loop
vertex 162.97175459298597 -210.8949591916481 0
vertex 119.76769563434038 -210.9496330758767 0
vertex 119.44732902687682 -210.8949591916481 0
endloop
endfacet
facet normal 0 0 -1
outer loop
vertex 162.95292887569428 -210.9496330758767 0
vertex 162.92228038736752 -211.03864280000022 0
vertex 120.08026610000077 -211.03864280000022 0
endloop
endfacet
facet normal 0 0 -1
outer loop
vertex 162.95292887569428 -210.9496330758767 0
vertex 120.08026610000077 -211.03864280000022 0
vertex 119.76769563434038 -210.9496330758767 0
endloop
endfacet
facet normal 0 0 -1
outer loop
vertex 162.92228038736752 -211.03864280000022 0
vertex 159.35796349999987 -221.3901766000003 0
vertex 159.1702497386693 -221.82188449486887 0
endloop
endfacet
facet normal 0 0 -1
outer loop
vertex 162.92228038736752 -211.03864280000022 0
vertex 159.1702497386693 -221.82188449486887 0
vertex 158.91731419538525 -222.21891593684379 0
endloop
endfacet
facet normal 0 0 -1
outer loop
vertex 162.92228038736752 -211.03864280000022 0
vertex 158.91731419538525 -222.21891593684379 0
vertex 158.6053832463183 -222.57149137272546 0
endloop
endfacet
facet normal 0 0 -1
outer loop
vertex 162.92228038736752 -211.03864280000022 0
vertex 158.6053832463183 -222.57149137272546 0
vertex 158.24213768350737 -222.870929206125 0
endloop
endfacet
facet normal 0 0 -1
outer loop
vertex 162.92228038736752 -211.03864280000022 0
vertex 158.24213768350737 -222.870929206125 0
vertex 157.8365218378539 -223.10985626764798 0
endloop
endfacet
facet normal 0 0 -1
outer loop
vertex 162.92228038736752 -211.03864280000022 0
vertex 157.8365218378539 -223.10985626764798 0
vertex 157.39852333952936 -223.2823893671922 0
endloop
endfacet
facet normal 0 0 -1
outer loop
vertex 162.92228038736752 -211.03864280000022 0
vertex 157.39852333952936 -223.2823893671922 0
vertex 156.9389271888319 -223.3842801579319 0
endloop
endfacet
facet normal 0 0 -1
outer loop
vertex 162.92228038736752 -211.03864280000022 0
vertex 156.9389271888319 -223.3842801579319 0
vertex 156.46905019310765 -223.41301974494405 0
endloop
endfacet
facet normal 0 0 -1
outer loop
vertex 162.92228038736752 -211.03864280000022 0
vertex 156.46905019310765 -223.41301974494405 0
vertex 156.00046230877902 -223.3679004626645 0
endloop
endfacet
facet normal 0 0 -1
outer loop
vertex 162.92228038736752 -211.03864280000022 0
vertex 156.00046230877902 -223.3679004626645 0
vertex 155.54470175 -223.25003329999998 0
endloop
endfacet
facet normal 0 0 -1
outer loop
vertex 162.92228038736752 -211.03864280000022 0
vertex 155.54470175 -223.25003329999998 0
vertex 120.08026610000077 -211.03864280000022 0
endloop
endfacet
facet normal 0 0 1
outer loop
vertex 156.93892718883194 -223.3842801579319 1
vertex 157.39852333952936 -223.28238936719222 1
vertex 157.8365218378539 -223.10985626764804 1
endloop
endfacet
facet normal 0 0 1
outer loop
vertex 156.93892718883194 -223.3842801579319 1
vertex 157.8365218378539 -223.10985626764804 1
vertex 158.24213768350734 -222.87092920612508 1
endloop
endfacet
facet normal 0 0 1
outer loop
vertex 156.93892718883194 -223.3842801579319 1
vertex 158.24213768350734 -222.87092920612508 1
vertex 158.60538324631833 -222.57149137272552 1
endloop
endfacet
facet normal 0 0 1
outer loop
vertex 156.93892718883194 -223.3842801579319 1
vertex 158.60538324631833 -222.57149137272552 1
vertex 158.9173141953852 -222.21891593684393 1
endloop
endfacet
facet normal 0 0 1
outer loop
vertex 156.93892718883194 -223.3842801579319 1
vertex 158.9173141953852 -222.21891593684393 1
vertex 159.17024973866936 -221.8218844948688 1
endloop
endfacet
facet normal 0 0 1
outer loop
vertex 156.93892718883194 -223.3842801579319 1
vertex 159.17024973866936 -221.8218844948688 1
vertex 159.35796349999993 -221.3901766000002 1
endloop
endfacet
facet normal 0 0 1
outer loop
vertex 156.93892718883194 -223.3842801579319 1
vertex 159.35796349999993 -221.3901766000002 1
vertex 162.92228038736752 -211.03864280000028 1
endloop
endfacet
facet normal 0 0 1
outer loop
vertex 156.93892718883194 -223.3842801579319 1
vertex 162.92228038736752 -211.03864280000028 1
vertex 120.08026610000093 -211.03864280000028 1
endloop
endfacet
facet normal 0 0 1
outer loop
vertex 156.93892718883194 -223.3842801579319 1
vertex 120.08026610000093 -211.03864280000028 1
vertex 155.54470174999992 -223.25003329999996 1
endloop
endfacet
facet normal 0 0 1
outer loop
vertex 156.93892718883194 -223.3842801579319 1
vertex 155.54470174999992 -223.25003329999996 1
vertex 156.00046230877905 -223.3679004626645 1
endloop
endfacet
facet normal 0 0 1
outer loop
vertex 156.93892718883194 -223.3842801579319 1
vertex 156.00046230877905 -223.3679004626645 1
vertex 156.46905019310765 -223.41301974494405 1
endloop
endfacet
facet normal 0 0 1
outer loop
vertex 162.92228038736752 -211.03864280000028 1
vertex 162.95292887569428 -210.94963307587673 1
vertex 119.7676956343404 -210.94963307587673 1
endloop
endfacet
facet normal 0 0 1
outer loop
vertex 162.92228038736752 -211.03864280000028 1
vertex 119.7676956343404 -210.94963307587673 1
vertex 120.08026610000093 -211.03864280000028 1
endloop
endfacet
facet normal 0 0 1
outer loop
vertex 162.95292887569428 -210.94963307587673 1
vertex 162.97175459298597 -210.89495919164804 1
vertex 119.44732902687643 -210.89495919164804 1
endloop
endfacet
facet normal 0 0 1
outer loop
vertex 162.95292887569428 -210.94963307587673 1
vertex 119.44732902687643 -210.89495919164804 1
vertex 119.7676956343404 -210.94963307587673 1
endloop
endfacet
facet normal 0 0 1
outer loop
vertex 162.97175459298597 -210.89495919164804 1
vertex 162.9785370826896 -210.87526139999997 1
vertex 119.12292805000052 -210.87526139999997 1
endloop
endfacet
facet normal 0 0 1
outer loop
vertex 162.97175459298597 -210.89495919164804 1
vertex 119.12292805000052 -210.87526139999997 1
vertex 119.44732902687643 -210.89495919164804 1
endloop
endfacet
facet normal 0 0 1
outer loop
vertex 162.9785370826896 -210.87526139999997 1
vertex 163.10774449927064 -210.50001560053423 1
vertex 60.999995248459584 -210.50001560053423 1
endloop
endfacet
facet normal 0 0 1
outer loop
vertex 162.9785370826896 -210.87526139999997 1
vertex 60.999995248459584 -210.50001560053423 1
vertex 119.12292805000052 -210.87526139999997 1
endloop
endfacet
facet normal 0 0 1
outer loop
vertex 163.10774449927064 -210.50001560053423 1
vertex 165.21506785000253 -204.3799006999927 1
vertex 165.21817230442667 -204.37084562982702 1
endloop
endfacet
facet normal 0 0 1
outer loop
vertex 163.10774449927064 -210.50001560053423 1
vertex 165.21817230442667 -204.37084562982702 1
vertex 165.22124570000364 -204.36178139998924 1
endloop
endfacet
facet normal 0 0 1
outer loop
vertex 163.10774449927064 -210.50001560053423 1
vertex 165.22124570000364 -204.36178139998924 1
vertex 180.6568414499999 -158.58664120000026 1
endloop
endfacet
facet normal 0 0 1
outer loop
vertex 163.10774449927064 -210.50001560053423 1
vertex 180.6568414499999 -158.58664120000026 1
vertex 180.72805903696158 -158.34143118626025 1
endloop
endfacet
facet normal 0 0 1
outer loop
vertex 163.10774449927064 -210.50001560053423 1
vertex 180.72805903696158 -158.34143118626025 1
vertex 180.77816670417135 -158.09105323751635 1
endloop
endfacet
facet normal 0 0 1
outer loop
vertex 163.10774449927064 -210.50001560053423 1
vertex 180.77816670417135 -158.09105323751635 1
vertex 180.8068029 -157.83732240000003 1
endloop
endfacet
facet normal 0 0 1
outer loop
vertex 163.10774449927064 -210.50001560053423 1
vertex 180.8068029 -157.83732240000003 1
vertex 183.36091894999998 -121.31173770000021 1
endloop
endfacet
facet normal 0 0 1
outer loop
vertex 163.10774449927064 -210.50001560053423 1
vertex 183.36091894999998 -121.31173770000021 1
vertex 183.3517922940996 -120.78888335840821 1
endloop
endfacet
facet normal 0 0 1
outer loop
vertex 163.10774449927064 -210.50001560053423 1
vertex 183.3517922940996 -120.78888335840821 1
vertex 183.25201166905433 -120.2755571607181 1
endloop
endfacet
facet normal 0 0 1
outer loop
vertex 163.10774449927064 -210.50001560053423 1
vertex 183.25201166905433 -120.2755571607181 1
vertex 183.06460885326103 -119.78735623589101 1
endloop
endfacet
facet normal 0 0 1
outer loop
vertex 163.10774449927064 -210.50001560053423 1
vertex 183.06460885326103 -119.78735623589101 1
vertex 182.79527797629802 -119.33911429554675 1
endloop
endfacet
facet normal 0 0 1
outer loop
vertex 163.10774449927064 -210.50001560053423 1
vertex 182.79527797629802 -119.33911429554675 1
vertex 182.45220250598766 -118.9444509199459 1
endloop
endfacet
facet normal 0 0 1
outer loop
vertex 163.10774449927064 -210.50001560053423 1
vertex 182.45220250598766 -118.9444509199459 1
vertex 182.04580659831092 -118.6153577346731 1
endloop
endfacet
facet normal 0 0 1
outer loop
vertex 163.10774449927064 -210.50001560053423 1
vertex 182.04580659831092 -118.6153577346731 1
vertex 181.58843836526722 -118.36183405181112 1
endloop
endfacet
facet normal 0 0 1
outer loop
vertex 163.10774449927064 -210.50001560053423 1
vertex 181.58843836526722 -118.36183405181112 1
vertex 181.09399468440884 -118.19158304644459 1
endloop
endfacet
facet normal 0 0 1
outer loop
vertex 163.10774449927064 -210.50001560053423 1
vertex 181.09399468440884 -118.19158304644459 1
vertex 180.5774978999999 -118.1097754 1
endloop
endfacet
facet normal 0 0 1
outer loop
vertex 163.10774449927064 -210.50001560053423 1
vertex 180.5774978999999 -118.1097754 1
vertex 161.85652904999995 -116.800679 1
endloop
endfacet
facet normal 0 0 1
outer loop
vertex 163.10774449927064 -210.50001560053423 1
vertex 161.85652904999995 -116.800679 1
vertex 39 -116.800679 1
endloop
endfacet
facet normal 0 0 1
outer loop
vertex 163.10774449927064 -210.50001560053423 1
vertex 39 -116.800679 1
vertex 39 -207.5000000000001 1
endloop
endfacet
facet normal 0 0 1
outer loop
vertex 163.10774449927064 -210.50001560053423 1
vertex 39 -207.5000000000001 1
vertex 39.045576740963355 -208.02094453300074 1
endloop
endfacet
facet normal 0 0 1
outer loop
vertex 163.10774449927064 -210.50001560053423 1
vertex 39.045576740963355 -208.02094453300074 1
vertex 39.180922137642284 -208.526060429977 1
endloop
endfacet
facet normal 0 0 1
outer loop
vertex 163.10774449927064 -210.50001560053423 1
vertex 39.180922137642284 -208.526060429977 1
vertex 39.40192378864667 -208.99999999999997 1
endloop
endfacet
facet normal 0 0 1
outer loop
vertex 163.10774449927064 -210.50001560053423 1
vertex 39.40192378864667 -208.99999999999997 1
vertex 39.7018666706431 -209.42836282905967 1
endloop
endfacet
facet normal 0 0 1
outer loop
vertex 163.10774449927064 -210.50001560053423 1
vertex 39.7018666706431 -209.42836282905967 1
vertex 40.071637170940306 -209.7981333293569 1
endloop
endfacet
facet normal 0 0 1
outer loop
vertex 163.10774449927064 -210.50001560053423 1
vertex 40.071637170940306 -209.7981333293569 1
vertex 40.50000000000004 -210.09807621135334 1
endloop
endfacet
facet normal 0 0 1
outer loop
vertex 163.10774449927064 -210.50001560053423 1
vertex 40.50000000000004 -210.09807621135334 1
vertex 40.97393957002291 -210.3190778623577 1
endloop
endfacet
facet normal 0 0 1
outer loop
vertex 163.10774449927064 -210.50001560053423 1
vertex 40.97393957002291 -210.3190778623577 1
vertex 41.47905546699937 -210.45442325903664 1
endloop
endfacet
facet normal 0 0 1
outer loop
vertex 163.10774449927064 -210.50001560053423 1
vertex 41.47905546699937 -210.45442325903664 1
vertex 41.9999999999996 -210.49999999999997 1
endloop
endfacet
facet normal 0 0 1
outer loop
vertex 163.10774449927064 -210.50001560053423 1
vertex 41.9999999999996 -210.49999999999997 1
vertex 60.999995248459584 -210.50001560053423 1
endloop
endfacet
facet normal 0 0 1
outer loop
vertex 161.85652904999995 -116.800679 1
vertex 161.62511231952956 -116.7754427844284 1
vertex 39 -116.7754427844284 1
endloop
endfacet
facet normal 0 0 1
outer loop
vertex 161.85652904999995 -116.800679 1
vertex 39 -116.7754427844284 1
vertex 39 -116.800679 1
endloop
endfacet
facet normal 0 0 1
outer loop
vertex 161.62511231952956 -116.7754427844284 1
vertex 161.39634810000015 -116.73233800000003 1
vertex 39 -116.73233800000003 1
endloop
endfacet
facet normal 0 0 1
outer loop
vertex 161.62511231952956 -116.7754427844284 1
vertex 39 -116.73233800000003 1
vertex 39 -116.7754427844284 1
endloop
endfacet
facet normal 0 0 1
outer loop
vertex 161.39634810000015 -116.73233800000003 1
vertex 102.4311728499998 -103.23390919999993 1
vertex 102.15054869873487 -103.18356607711553 1
endloop
endfacet
facet normal 0 0 1
outer loop
vertex 161.39634810000015 -116.73233800000003 1
vertex 102.15054869873487 -103.18356607711553 1
vertex 101.86641569999995 -103.1600884 1
endloop
endfacet
facet normal 0 0 1
outer loop
vertex 161.39634810000015 -116.73233800000003 1
vertex 101.86641569999995 -103.1600884 1
vertex 80.61613144999976 -102.41801310000001 1
endloop
endfacet
facet normal 0 0 1
outer loop
vertex 161.39634810000015 -116.73233800000003 1
vertex 80.61613144999976 -102.41801310000001 1
vertex 80.31805391891423 -102.42242329413192 1
endloop
endfacet
facet normal 0 0 1
outer loop
vertex 161.39634810000015 -116.73233800000003 1
vertex 80.31805391891423 -102.42242329413192 1
vertex 80.02188575724344 -102.45639511131672 1
endloop
endfacet
facet normal 0 0 1
outer loop
vertex 161.39634810000015 -116.73233800000003 1
vertex 80.02188575724344 -102.45639511131672 1
vertex 79.73055289999961 -102.51959620000011 1
endloop
endfacet
facet normal 0 0 1
outer loop
vertex 161.39634810000015 -116.73233800000003 1
vertex 79.73055289999961 -102.51959620000011 1
vertex 41.219119999999876 -112.90176205000004 1
endloop
endfacet
facet normal 0 0 1
outer loop
vertex 161.39634810000015 -116.73233800000003 1
vertex 41.219119999999876 -112.90176205000004 1
vertex 40.75823086543289 -113.06741517649937 1
endloop
endfacet
facet normal 0 0 1
outer loop
vertex 161.39634810000015 -116.73233800000003 1
vertex 40.75823086543289 -113.06741517649937 1
vertex 40.33043622392151 -113.30585069687149 1
endloop
endfacet
facet normal 0 0 1
outer loop
vertex 161.39634810000015 -116.73233800000003 1
vertex 40.33043622392151 -113.30585069687149 1
vertex 39.94713726623365 -113.61071404612237 1
endloop
endfacet
facet normal 0 0 1
outer loop
vertex 161.39634810000015 -116.73233800000003 1
vertex 39.94713726623365 -113.61071404612237 1
vertex 39.6185493249466 -113.97388028563483 1
endloop
endfacet
facet normal 0 0 1
outer loop
vertex 161.39634810000015 -116.73233800000003 1
vertex 39.6185493249466 -113.97388028563483 1
vertex 39.35342962476355 -114.38567064158792 1
endloop
endfacet
facet normal 0 0 1
outer loop
vertex 161.39634810000015 -116.73233800000003 1
vertex 39.35342962476355 -114.38567064158792 1
vertex 39.15884389298657 -114.8351104547663 1
endloop
endfacet
facet normal 0 0 1
outer loop
vertex 161.39634810000015 -116.73233800000003 1
vertex 39.15884389298657 -114.8351104547663 1
vertex 39.03997805022662 -115.31022166712185 1
endloop
endfacet
facet normal 0 0 1
outer loop
vertex 161.39634810000015 -116.73233800000003 1
vertex 39.03997805022662 -115.31022166712185 1
vertex 39 -115.79834409999998 1
endloop
endfacet
facet normal 0 0 1
outer loop
vertex 161.39634810000015 -116.73233800000003 1
vertex 39 -115.79834409999998 1
vertex 39 -116.73233800000003 1
endloop
endfacet
facet normal -0.996194698091746 -0.08715574274765459 0
outer loop
vertex 39.045576740963355 -208.02094453300074 1
vertex 39 -207.5000000000001 1
vertex 39 -207.49999999999994 0
endloop
endfacet
facet normal -0.996194698091746 -0.08715574274765459 0
outer loop
vertex 39.045576740963355 -208.02094453300074 1
vertex 39 -207.49999999999994 0
vertex 39.045576740963384 -208.02094453300083 0
endloop
endfacet
facet normal -0.9659258262890666 -0.2588190451025269 0
outer loop
vertex 39.180922137642284 -208.526060429977 1
vertex 39.045576740963355 -208.02094453300074 1
vertex 39.045576740963384 -208.02094453300083 0
endloop
endfacet
facet normal -0.9659258262890666 -0.2588190451025269 0
outer loop
vertex 39.180922137642284 -208.526060429977 1
vertex 39.045576740963384 -208.02094453300083 0
vertex 39.180922137642284 -208.526060429977 0
endloop
endfacet
facet normal -0.9063077870366557 -0.42261826174068745 0
outer loop
vertex 39.40192378864667 -208.99999999999997 1
vertex 39.180922137642284 -208.526060429977 1
vertex 39.180922137642284 -208.526060429977 0
endloop
endfacet
facet normal -0.9063077870366557 -0.42261826174068745 0
outer loop
vertex 39.40192378864667 -208.99999999999997 1
vertex 39.180922137642284 -208.526060429977 0
vertex 39.4019237886467 -209.00000000000003 0
endloop
endfacet
facet normal -0.8191520442890026 -0.5735764363510308 0
outer loop
vertex 39.7018666706431 -209.42836282905967 1
vertex 39.40192378864667 -208.99999999999997 1
vertex 39.4019237886467 -209.00000000000003 0
endloop
endfacet
facet normal -0.8191520442890026 -0.5735764363510308 0
outer loop
vertex 39.7018666706431 -209.42836282905967 1
vertex 39.4019237886467 -209.00000000000003 0
vertex 39.70186667064311 -209.4283628290597 0
endloop
endfacet
facet normal -0.7071067811865619 -0.7071067811865335 0
outer loop
vertex 40.071637170940306 -209.7981333293569 1
vertex 39.7018666706431 -209.42836282905967 1
vertex 39.70186667064311 -209.4283628290597 0
endloop
endfacet
facet normal -0.7071067811865619 -0.7071067811865335 0
outer loop
vertex 40.071637170940306 -209.7981333293569 1
vertex 39.70186667064311 -209.4283628290597 0
vertex 40.07163717094028 -209.7981333293569 0
endloop
endfacet
facet normal -0.5735764363510437 -0.8191520442889936 0
outer loop
vertex 40.50000000000004 -210.09807621135334 1
vertex 40.071637170940306 -209.7981333293569 1
vertex 40.07163717094028 -209.7981333293569 0
endloop
endfacet
facet normal -0.5735764363510437 -0.8191520442889936 0
outer loop
vertex 40.50000000000004 -210.09807621135334 1
vertex 40.07163717094028 -209.7981333293569 0
vertex 40.49999999999994 -210.0980762113533 0
endloop
endfacet
facet normal -0.42261826174069467 -0.9063077870366523 0
outer loop
vertex 40.97393957002291 -210.3190778623577 1
vertex 40.50000000000004 -210.09807621135334 1
vertex 40.49999999999994 -210.0980762113533 0
endloop
endfacet
facet normal -0.42261826174069467 -0.9063077870366523 0
outer loop
vertex 40.97393957002291 -210.3190778623577 1
vertex 40.49999999999994 -210.0980762113533 0
vertex 40.97393957002305 -210.31907786235774 0
endloop
endfacet
facet normal -0.25881904510251214 -0.9659258262890708 0
outer loop
vertex 41.47905546699937 -210.45442325903664 1
vertex 40.97393957002291 -210.3190778623577 1
vertex 40.97393957002305 -210.31907786235774 0
endloop
endfacet
facet normal -0.25881904510251214 -0.9659258262890708 0
outer loop
vertex 41.47905546699937 -210.45442325903664 1
vertex 40.97393957002305 -210.31907786235774 0
vertex 41.479055466999355 -210.45442325903667 0
endloop
endfacet
facet normal -0.08715574274768315 -0.9961946980917434 0
outer loop
vertex 41.9999999999996 -210.49999999999997 1
vertex 41.47905546699937 -210.45442325903664 1
vertex 41.479055466999355 -210.45442325903667 0
endloop
endfacet
facet normal -0.08715574274768315 -0.9961946980917434 0
outer loop
vertex 41.9999999999996 -210.49999999999997 1
vertex 41.479055466999355 -210.45442325903667 0
vertex 41.99999999999946 -210.5 0
endloop
endfacet
facet normal -6.582305900337815e-8 -0.9999999999999979 0
outer loop
vertex 60.990305200000016 -210.50000124999985 1.0000000000000004
vertex 41.9999999999996 -210.49999999999997 1
vertex 41.99999999999946 -210.5 0
endloop
endfacet
facet normal -6.582305900337815e-8 -0.9999999999999979 0
outer loop
vertex 60.990305200000016 -210.50000124999985 1.0000000000000004
vertex 41.99999999999946 -210.5 0
vertex 60.990305200000016 -210.50000124999985 0
endloop
endfacet
facet normal -0.0014809542500415773 -0.9999989033866533 0
outer loop
vertex 60.999995248459584 -210.50001560053423 1
vertex 60.990305200000016 -210.50000124999985 1.0000000000000004
vertex 60.990305200000016 -210.50000124999985 0
endloop
endfacet
facet normal -0.0014809542500415773 -0.9999989033866533 0
outer loop
vertex 60.999995248459584 -210.50001560053423 1
vertex 60.990305200000016 -210.50000124999985 0
vertex 60.999995248450524 -210.5000156005342 0
endloop
endfacet
facet normal -0.004842352307377951 -0.9999882757433365 0
outer loop
vertex 61.009680400000015 -210.5000624999978 1
vertex 60.999995248459584 -210.50001560053423 1
vertex 60.999995248450524 -210.5000156005342 0
endloop
endfacet
facet normal -0.004842352307377951 -0.9999882757433365 0
outer loop
vertex 61.009680400000015 -210.5000624999978 1
vertex 60.999995248450524 -210.5000156005342 0
vertex 61.009680400000015 -210.5000624999978 0
endloop
endfacet
facet normal -0.006456205692529695 -0.9999791584868436 0
outer loop
vertex 119.12292805000052 -210.87526139999997 1
vertex 61.009680400000015 -210.5000624999978 1
vertex 61.009680400000015 -210.5000624999978 0
endloop
endfacet
facet normal -0.006456205692529695 -0.9999791584868436 0
outer loop
vertex 119.12292805000052 -210.87526139999997 1
vertex 61.009680400000015 -210.5000624999978 0
vertex 119.12292805 -210.87526139999997 0
endloop
endfacet
facet normal -0.06060887751286262 -0.9981615921115332 0
outer loop
vertex 119.44732902687643 -210.89495919164804 1
vertex 119.12292805000052 -210.87526139999997 1
vertex 119.12292805 -210.87526139999997 0
endloop
endfacet
facet normal -0.06060887751286262 -0.9981615921115332 0
outer loop
vertex 119.44732902687643 -210.89495919164804 1
vertex 119.12292805 -210.87526139999997 0
vertex 119.44732902687682 -210.8949591916481 0
endloop
endfacet
facet normal -0.16822813498893685 -0.9857480888128286 0
outer loop
vertex 119.7676956343404 -210.94963307587673 1
vertex 119.44732902687643 -210.89495919164804 1
vertex 119.44732902687682 -210.8949591916481 0
endloop
endfacet
facet normal -0.16822813498893685 -0.9857480888128286 0
outer loop
vertex 119.7676956343404 -210.94963307587673 1
vertex 119.44732902687682 -210.8949591916481 0
vertex 119.76769563434038 -210.9496330758767 0
endloop
endfacet
facet normal -0.2738786321781107 -0.9617642615715387 0
outer loop
vertex 120.08026610000093 -211.03864280000028 1
vertex 119.7676956343404 -210.94963307587673 1
vertex 119.76769563434038 -210.9496330758767 0
endloop
endfacet
facet normal -0.2738786321781107 -0.9617642615715387 0
outer loop
vertex 120.08026610000093 -211.03864280000028 1
vertex 119.76769563434038 -210.9496330758767 0
vertex 120.08026610000077 -211.03864280000022 0
endloop
endfacet
facet normal -0.3255682978484627 -0.9455185262257184 0
outer loop
vertex 155.54470174999992 -223.25003329999996 1
vertex 120.08026610000093 -211.03864280000028 1
vertex 120.08026610000077 -211.03864280000022 0
endloop
endfacet
facet normal -0.3255682978484627 -0.9455185262257184 0
outer loop
vertex 155.54470174999992 -223.25003329999996 1
vertex 120.08026610000077 -211.03864280000022 0
vertex 155.54470175 -223.25003329999998 0
endloop
endfacet
facet normal -0.2503789446186315 -0.9681479143662193 0
outer loop
vertex 156.00046230877905 -223.3679004626645 1
vertex 155.54470174999992 -223.25003329999996 1
vertex 155.54470175 -223.25003329999998 0
endloop
endfacet
facet normal -0.2503789446186315 -0.9681479143662193 0
outer loop
vertex 156.00046230877905 -223.3679004626645 1
vertex 155.54470175 -223.25003329999998 0
vertex 156.00046230877902 -223.3679004626645 0
endloop
endfacet
facet normal -0.09584449157622994 -0.9953963197814697 0
outer loop
vertex 156.46905019310765 -223.41301974494405 1
vertex 156.00046230877905 -223.3679004626645 1
vertex 156.00046230877902 -223.3679004626645 0
endloop
endfacet
facet normal -0.09584449157622994 -0.9953963197814697 0
outer loop
vertex 156.46905019310765 -223.41301974494405 1
vertex 156.00046230877902 -223.3679004626645 0
vertex 156.46905019310765 -223.41301974494405 0
endloop
endfacet
facet normal 0.06104997611058137 -0.998134710556094 0
outer loop
vertex 156.93892718883194 -223.3842801579319 1
vertex 156.46905019310765 -223.41301974494405 1
vertex 156.46905019310765 -223.41301974494405 0
endloop
endfacet
facet normal 0.06104997611058137 -0.998134710556094 0
outer loop
vertex 156.93892718883194 -223.3842801579319 1
vertex 156.46905019310765 -223.41301974494405 0
vertex 156.9389271888319 -223.3842801579319 0
endloop
endfacet
facet normal 0.21644118747781327 -0.9762956582732477 0
outer loop
vertex 157.39852333952936 -223.28238936719222 1
vertex 156.93892718883194 -223.3842801579319 1
vertex 156.9389271888319 -223.3842801579319 0
endloop
endfacet
facet normal 0.21644118747781327 -0.9762956582732477 0
outer loop
vertex 157.39852333952936 -223.28238936719222 1
vertex 156.9389271888319 -223.3842801579319 0
vertex 157.39852333952936 -223.2823893671922 0
endloop
endfacet
facet normal 0.3665028868018971 -0.9304169140583569 0
outer loop
vertex 157.8365218378539 -223.10985626764804 1
vertex 157.39852333952936 -223.28238936719222 1
vertex 157.39852333952936 -223.2823893671922 0
endloop
endfacet
facet normal 0.3665028868018971 -0.9304169140583569 0
outer loop
vertex 157.8365218378539 -223.10985626764804 1
vertex 157.39852333952936 -223.2823893671922 0
vertex 157.8365218378539 -223.10985626764798 0
endloop
endfacet
facet normal 0.5075400489212687 -0.8616281673326356 0
outer loop
vertex 158.24213768350734 -222.87092920612508 1
vertex 157.8365218378539 -223.10985626764804 1
vertex 157.8365218378539 -223.10985626764798 0
endloop
endfacet
facet normal 0.5075400489212687 -0.8616281673326356 0
outer loop
vertex 158.24213768350734 -222.87092920612508 1
vertex 157.8365218378539 -223.10985626764798 0
vertex 158.24213768350737 -222.870929206125 0
endloop
endfacet
facet normal 0.6360798632179602 -0.7716232290493988 0
outer loop
vertex 158.60538324631833 -222.57149137272552 1
vertex 158.24213768350734 -222.87092920612508 1
vertex 158.24213768350737 -222.870929206125 0
endloop
endfacet
facet normal 0.6360798632179602 -0.7716232290493988 0
outer loop
vertex 158.60538324631833 -222.57149137272552 1
vertex 158.24213768350737 -222.870929206125 0
vertex 158.6053832463183 -222.57149137272546 0
endloop
endfacet
facet normal 0.7489572459279931 -0.6626183243557 0
outer loop
vertex 158.9173141953852 -222.21891593684393 1
vertex 158.60538324631833 -222.57149137272552 1
vertex 158.6053832463183 -222.57149137272546 0
endloop
endfacet
facet normal 0.7489572459279931 -0.6626183243557 0
outer loop
vertex 158.9173141953852 -222.21891593684393 1
vertex 158.6053832463183 -222.57149137272546 0
vertex 158.91731419538525 -222.21891593684379 0
endloop
endfacet
facet normal 0.8433927751792308 -0.5372975216539487 0
outer loop
vertex 159.17024973866936 -221.8218844948688 1
vertex 158.9173141953852 -222.21891593684393 1
vertex 158.91731419538525 -222.21891593684379 0
endloop
endfacet
facet normal 0.8433927751792308 -0.5372975216539487 0
outer loop
vertex 159.17024973866936 -221.8218844948688 1
vertex 158.91731419538525 -222.21891593684379 0
vertex 159.1702497386693 -221.82188449486887 0
endloop
endfacet
facet normal 0.9170586557452629 -0.39875233155768697 0
outer loop
vertex 159.35796349999993 -221.3901766000002 1
vertex 159.17024973866936 -221.8218844948688 1
vertex 159.1702497386693 -221.82188449486887 0
endloop
endfacet
facet normal 0.9170586557452629 -0.39875233155768697 0
outer loop
vertex 159.35796349999993 -221.3901766000002 1
vertex 159.1702497386693 -221.82188449486887 0
vertex 159.35796349999987 -221.3901766000003 0
endloop
endfacet
facet normal 0 0 1
outer loop
vertex 165.21506785000253 -204.3799006999927 1
vertex 163.10774449927064 -210.50001560053423 1
vertex 162.9785370826896 -210.87526139999997 1
endloop
endfacet
facet normal 0 0 1
outer loop
vertex 165.21506785000253 -204.3799006999927 1
vertex 162.9785370826896 -210.87526139999997 1
vertex 162.97175459298597 -210.89495919164804 1
endloop
endfacet
facet normal 0 0 1
outer loop
vertex 165.21506785000253 -204.3799006999927 1
vertex 162.97175459298597 -210.89495919164804 1
vertex 162.95292887569428 -210.94963307587673 1
endloop
endfacet
facet normal 0 0 1
outer loop
vertex 165.21506785000253 -204.3799006999927 1
vertex 162.95292887569428 -210.94963307587673 1
vertex 162.92228038736752 -211.03864280000028 1
endloop
endfacet
facet normal 0 0 1
outer loop
vertex 165.21506785000253 -204.3799006999927 1
vertex 162.92228038736752 -211.03864280000028 1
vertex 159.35796349999993 -221.3901766000002 1
endloop
endfacet
facet normal 0 0 1
outer loop
vertex 165.21506785000253 -204.3799006999927 1
vertex 159.35796349999993 -221.3901766000002 1
vertex 159.35796349999987 -221.3901766000003 0
endloop
endfacet
facet normal 0 0 1
outer loop
vertex 165.21506785000253 -204.3799006999927 1
vertex 159.35796349999987 -221.3901766000003 0
vertex 162.92228038736752 -211.03864280000022 0
endloop
endfacet
facet normal 0 0 1
outer loop
vertex 165.21506785000253 -204.3799006999927 1
vertex 162.92228038736752 -211.03864280000022 0
vertex 162.95292887569428 -210.9496330758767 0
endloop
endfacet
facet normal 0 0 1
outer loop
vertex 165.21506785000253 -204.3799006999927 1
vertex 162.95292887569428 -210.9496330758767 0
vertex 162.97175459298597 -210.8949591916481 0
endloop
endfacet
facet normal 0 0 1
outer loop
vertex 165.21506785000253 -204.3799006999927 1
vertex 162.97175459298597 -210.8949591916481 0
vertex 162.9785370826896 -210.87526139999997 0
endloop
endfacet
facet normal 0 0 1
outer loop
vertex 165.21506785000253 -204.3799006999927 1
vertex 162.9785370826896 -210.87526139999997 0
vertex 163.10774449927064 -210.5000156005342 0
endloop
endfacet
facet normal 0 0 1
outer loop
vertex 165.21506785000253 -204.3799006999927 1
vertex 163.10774449927064 -210.5000156005342 0
vertex 165.21506784999812 -204.37990070000558 0
endloop
endfacet
facet normal 0.9459504668079585 -0.3243111381772227 0
outer loop
vertex 165.21817230442667 -204.37084562982702 1
vertex 165.21506785000253 -204.3799006999927 1
vertex 165.21506784999812 -204.37990070000558 0
endloop
endfacet
facet normal 0.9459504668079585 -0.3243111381772227 0
outer loop
vertex 165.21817230442667 -204.37084562982702 1
vertex 165.21506784999812 -204.37990070000558 0
vertex 165.21817230442875 -204.370845629821 0
endloop
endfacet
facet normal 0.947041247889159 -0.3211119349954851 0
outer loop
vertex 165.22124570000364 -204.36178139998924 1
vertex 165.21817230442667 -204.37084562982702 1
vertex 165.21817230442875 -204.370845629821 0
endloop
endfacet
facet normal 0.947041247889159 -0.3211119349954851 0
outer loop
vertex 165.22124570000364 -204.36178139998924 1
vertex 165.21817230442875 -204.370845629821 0
vertex 165.22124570000435 -204.36178139998725 0
endloop
endfacet
facet normal 0.9475770066988856 -0.3195274892330554 0
outer loop
vertex 180.6568414499999 -158.58664120000026 1
vertex 165.22124570000364 -204.36178139998924 1
vertex 165.22124570000435 -204.36178139998725 0
endloop
endfacet
facet normal 0.9475770066988856 -0.3195274892330554 0
outer loop
vertex 180.6568414499999 -158.58664120000026 1
vertex 165.22124570000435 -204.36178139998725 0
vertex 180.65684144999983 -158.58664120000043 0
endloop
endfacet
facet normal 0.9603172978690474 -0.27890981949994414 0
outer loop
vertex 180.72805903696158 -158.34143118626025 1
vertex 180.6568414499999 -158.58664120000026 1
vertex 180.65684144999983 -158.58664120000043 0
endloop
endfacet
facet normal 0.9603172978690474 -0.27890981949994414 0
outer loop
vertex 180.72805903696158 -158.34143118626025 1
vertex 180.65684144999983 -158.58664120000043 0
vertex 180.7280590369615 -158.34143118626054 0
endloop
endfacet
facet normal 0.9805565095714445 -0.1962369270475509 0
outer loop
vertex 180.77816670417135 -158.09105323751635 1
vertex 180.72805903696158 -158.34143118626025 1
vertex 180.7280590369615 -158.34143118626054 0
endloop
endfacet
facet normal 0.9805565095714445 -0.1962369270475509 0
outer loop
vertex 180.77816670417135 -158.09105323751635 1
vertex 180.7280590369615 -158.34143118626054 0
vertex 180.77816670417144 -158.0910532375157 0
endloop
endfacet
facet normal 0.9936914535747274 -0.11214854030501455 0
outer loop
vertex 180.8068029 -157.83732240000003 1
vertex 180.77816670417135 -158.09105323751635 1
vertex 180.77816670417144 -158.0910532375157 0
endloop
endfacet
facet normal 0.9936914535747274 -0.11214854030501455 0
outer loop
vertex 180.8068029 -157.83732240000003 1
vertex 180.77816670417144 -158.0910532375157 0
vertex 180.80680290000004 -157.83732239999995 0
endloop
endfacet
facet normal 0.9975640533812922 -0.06975642910504117 0
outer loop
vertex 183.36091894999998 -121.31173770000021 1
vertex 180.8068029 -157.83732240000003 1
vertex 180.80680290000004 -157.83732239999995 0
endloop
endfacet
facet normal 0.9975640533812922 -0.06975642910504117 0
outer loop
vertex 183.36091894999998 -121.31173770000021 1
vertex 180.80680290000004 -157.83732239999995 0
vertex 183.36091894999998 -121.31173770000011 0
endloop
endfacet
facet normal 0.9998476885018894 0.017452787669270716 0
outer loop
vertex 183.3517922940996 -120.78888335840821 1
vertex 183.36091894999998 -121.31173770000021 1
vertex 183.36091894999998 -121.31173770000011 0
endloop
endfacet
facet normal 0.9998476885018894 0.017452787669270716 0
outer loop
vertex 183.3517922940996 -120.78888335840821 1
vertex 183.36091894999998 -121.31173770000011 0
vertex 183.3517922940996 -120.78888335840827 0
endloop
endfacet
facet normal 0.9816271404484911 0.19080921658797925 0
outer loop
vertex 183.25201166905433 -120.2755571607181 1
vertex 183.3517922940996 -120.78888335840821 1
vertex 183.3517922940996 -120.78888335840827 0
endloop
endfacet
facet normal 0.9816271404484911 0.19080921658797925 0
outer loop
vertex 183.25201166905433 -120.2755571607181 1
vertex 183.3517922940996 -120.78888335840827 0
vertex 183.25201166905435 -120.27555716071817 0
endloop
endfacet
facet normal 0.9335804016216206 0.35836801434839827 0
outer loop
vertex 183.06460885326103 -119.78735623589101 1
vertex 183.25201166905433 -120.2755571607181 1
vertex 183.25201166905435 -120.27555716071817 0
endloop
endfacet
facet normal 0.9335804016216206 0.35836801434839827 0
outer loop
vertex 183.06460885326103 -119.78735623589101 1
vertex 183.25201166905435 -120.27555716071817 0
vertex 183.06460885326098 -119.7873562358909 0
endloop
endfacet
facet normal 0.8571673452656723 0.5150380007438286 0
outer loop
vertex 182.79527797629802 -119.33911429554675 1
vertex 183.06460885326103 -119.78735623589101 1
vertex 183.06460885326098 -119.7873562358909 0
endloop
endfacet
facet normal 0.8571673452656723 0.5150380007438286 0
outer loop
vertex 182.79527797629802 -119.33911429554675 1
vertex 183.06460885326098 -119.7873562358909 0
vertex 182.79527797629802 -119.33911429554671 0
endloop
endfacet
facet normal 0.7547097392927891 0.6560588460013406 0
outer loop
vertex 182.45220250598766 -118.9444509199459 1
vertex 182.79527797629802 -119.33911429554675 1
vertex 182.79527797629802 -119.33911429554671 0
endloop
endfacet
facet normal 0.7547097392927891 0.6560588460013406 0
outer loop
vertex 182.45220250598766 -118.9444509199459 1
vertex 182.79527797629802 -119.33911429554671 0
vertex 182.4522025059877 -118.94445091994594 0
endloop
endfacet
facet normal 0.6293207006657507 0.7771457107348457 0
outer loop
vertex 182.04580659831092 -118.6153577346731 1
vertex 182.45220250598766 -118.9444509199459 1
vertex 182.4522025059877 -118.94445091994594 0
endloop
endfacet
facet normal 0.6293207006657507 0.7771457107348457 0
outer loop
vertex 182.04580659831092 -118.6153577346731 1
vertex 182.4522025059877 -118.94445091994594 0
vertex 182.04580659831092 -118.61535773467308 0
endloop
endfacet
facet normal 0.4848101050825484 0.8746194383901198 0
outer loop
vertex 181.58843836526722 -118.36183405181112 1
vertex 182.04580659831092 -118.6153577346731 1
vertex 182.04580659831092 -118.61535773467308 0
endloop
endfacet
facet normal 0.4848101050825484 0.8746194383901198 0
outer loop
vertex 181.58843836526722 -118.36183405181112 1
vertex 182.04580659831092 -118.61535773467308 0
vertex 181.5884383652673 -118.36183405181116 0
endloop
endfacet
facet normal 0.32556882603800835 0.9455183443552182 0
outer loop
vertex 181.09399468440884 -118.19158304644459 1
vertex 181.58843836526722 -118.36183405181112 1
vertex 181.5884383652673 -118.36183405181116 0
endloop
endfacet
facet normal 0.32556882603800835 0.9455183443552182 0
outer loop
vertex 181.09399468440884 -118.19158304644459 1
vertex 181.5884383652673 -118.36183405181116 0
vertex 181.09399468440873 -118.19158304644456 0
endloop
endfacet
facet normal 0.1564393009666958 0.9876875746474953 0
outer loop
vertex 180.5774978999999 -118.1097754 1
vertex 181.09399468440884 -118.19158304644459 1
vertex 181.09399468440873 -118.19158304644456 0
endloop
endfacet
facet normal 0.1564393009666958 0.9876875746474953 0
outer loop
vertex 180.5774978999999 -118.1097754 1
vertex 181.09399468440873 -118.19158304644456 0
vertex 180.57749789999997 -118.1097754 0
endloop
endfacet
facet normal 0.06975640649712032 0.9975640549621907 0
outer loop
vertex 161.85652904999995 -116.800679 1
vertex 180.5774978999999 -118.1097754 1
vertex 180.57749789999997 -118.1097754 0
endloop
endfacet
facet normal 0.06975640649712032 0.9975640549621907 0
outer loop
vertex 161.85652904999995 -116.800679 1
vertex 180.57749789999997 -118.1097754 0
vertex 161.85652905000035 -116.80067900000003 0
endloop
endfacet
facet normal 0.10840825906674927 0.9941064577630087 0
outer loop
vertex 161.62511231952956 -116.7754427844284 1
vertex 161.85652904999995 -116.800679 1
vertex 161.85652905000035 -116.80067900000003 0
endloop
endfacet
facet normal 0.10840825906674927 0.9941064577630087 0
outer loop
vertex 161.62511231952956 -116.7754427844284 1
vertex 161.85652905000035 -116.80067900000003 0
vertex 161.62511231952956 -116.7754427844284 0
endloop
endfacet
facet normal 0.18516612235610813 0.9827072336823428 0
outer loop
vertex 161.39634810000015 -116.73233800000003 1
vertex 161.62511231952956 -116.7754427844284 1
vertex 161.62511231952956 -116.7754427844284 0
endloop
endfacet
facet normal 0.18516612235610813 0.9827072336823428 0
outer loop
vertex 161.39634810000015 -116.73233800000003 1
vertex 161.62511231952956 -116.7754427844284 0
vertex 161.3963481000005 -116.7323380000001 0
endloop
endfacet
facet normal 0.22314959972229056 0.9747842100402435 0
outer loop
vertex 102.4311728499998 -103.23390919999993 1
vertex 161.39634810000015 -116.73233800000003 1
vertex 161.3963481000005 -116.7323380000001 0
endloop
endfacet
facet normal 0.22314959972229056 0.9747842100402435 0
outer loop
vertex 102.4311728499998 -103.23390919999993 1
vertex 161.3963481000005 -116.7323380000001 0
vertex 102.43117285000004 -103.23390919999999 0
endloop
endfacet
facet normal 0.1765780428314513 0.9842866425944294 0
outer loop
vertex 102.15054869873487 -103.18356607711553 1
vertex 102.4311728499998 -103.23390919999993 1
vertex 102.43117285000004 -103.23390919999999 0
endloop
endfacet
facet normal 0.1765780428314513 0.9842866425944294 0
outer loop
vertex 102.15054869873487 -103.18356607711553 1
vertex 102.43117285000004 -103.23390919999999 0
vertex 102.15054869873477 -103.18356607711553 0
endloop
endfacet
facet normal 0.08234853900141557 0.996603591266022 0
outer loop
vertex 101.86641569999995 -103.1600884 1
vertex 102.15054869873487 -103.18356607711553 1
vertex 102.15054869873477 -103.18356607711553 0
endloop
endfacet
facet normal 0.08234853900141557 0.996603591266022 0
outer loop
vertex 101.86641569999995 -103.1600884 1
vertex 102.15054869873477 -103.18356607711553 0
vertex 101.86641569999979 -103.1600884 0
endloop
endfacet
facet normal 0.03489945076701417 0.9993908286231972 0
outer loop
vertex 80.61613144999976 -102.41801310000001 1
vertex 101.86641569999995 -103.1600884 1
vertex 101.86641569999979 -103.1600884 0
endloop
endfacet
facet normal 0.03489945076701417 0.9993908286231972 0
outer loop
vertex 80.61613144999976 -102.41801310000001 1
vertex 101.86641569999979 -103.1600884 0
vertex 80.6161314499999 -102.41801310000002 0
endloop
endfacet
facet normal -0.01479384067265244 0.999890565151083 0
outer loop
vertex 80.31805391891423 -102.42242329413192 1
vertex 80.61613144999976 -102.41801310000001 1
vertex 80.6161314499999 -102.41801310000002 0
endloop
endfacet
facet normal -0.01479384067265244 0.999890565151083 0
outer loop
vertex 80.31805391891423 -102.42242329413192 1
vertex 80.6161314499999 -102.41801310000002 0
vertex 80.31805391891419 -102.42242329413193 0
endloop
endfacet
facet normal -0.11395726259682698 0.9934856527909388 0
outer loop
vertex 80.02188575724344 -102.45639511131672 1
vertex 80.31805391891423 -102.42242329413192 1
vertex 80.31805391891419 -102.42242329413193 0
endloop
endfacet
facet normal -0.11395726259682698 0.9934856527909388 0
outer loop
vertex 80.02188575724344 -102.45639511131672 1
vertex 80.31805391891419 -102.42242329413193 0
vertex 80.02188575724321 -102.45639511131675 0
endloop
endfacet
facet normal -0.21200636332540035 0.9772682855334753 0
outer loop
vertex 79.73055289999961 -102.51959620000011 1
vertex 80.02188575724344 -102.45639511131672 1
vertex 80.02188575724321 -102.45639511131675 0
endloop
endfacet
facet normal -0.21200636332540035 0.9772682855334753 0
outer loop
vertex 79.73055289999961 -102.51959620000011 1
vertex 80.02188575724321 -102.45639511131675 0
vertex 79.73055290000008 -102.5195962 0
endloop
endfacet
facet normal -0.2602937944661656 0.9655294612607145 0
outer loop
vertex 41.219119999999876 -112.90176205000004 1
vertex 79.73055289999961 -102.51959620000011 1
vertex 79.73055290000008 -102.5195962 0
endloop
endfacet
facet normal -0.2602937944661656 0.9655294612607145 0
outer loop
vertex 41.219119999999876 -112.90176205000004 1
vertex 79.73055290000008 -102.5195962 0
vertex 41.21911999999975 -112.90176205000009 0
endloop
endfacet
facet normal -0.33823686965484867 0.9410610075898846 0
outer loop
vertex 40.75823086543289 -113.06741517649937 1
vertex 41.219119999999876 -112.90176205000004 1
vertex 41.21911999999975 -112.90176205000009 0
endloop
endfacet
facet normal -0.33823686965484867 0.9410610075898846 0
outer loop
vertex 40.75823086543289 -113.06741517649937 1
vertex 41.21911999999975 -112.90176205000009 0
vertex 40.75823086543292 -113.06741517649935 0
endloop
endfacet
facet normal -0.4868467364877073 0.8734874098527518 0
outer loop
vertex 40.33043622392151 -113.30585069687149 1
vertex 40.75823086543289 -113.06741517649937 1
vertex 40.75823086543292 -113.06741517649935 0
endloop
endfacet
facet normal -0.4868467364877073 0.8734874098527518 0
outer loop
vertex 40.33043622392151 -113.30585069687149 1
vertex 40.75823086543292 -113.06741517649935 0
vertex 40.33043622392151 -113.3058506968715 0
endloop
endfacet
facet normal -0.6224816102308522 0.78263442610481 0
outer loop
vertex 39.94713726623365 -113.61071404612237 1
vertex 40.33043622392151 -113.30585069687149 1
vertex 40.33043622392151 -113.3058506968715 0
endloop
endfacet
facet normal -0.6224816102308522 0.78263442610481 0
outer loop
vertex 39.94713726623365 -113.61071404612237 1
vertex 40.33043622392151 -113.3058506968715 0
vertex 39.94713726623368 -113.61071404612234 0
endloop
endfacet
facet normal -0.7415266745208492 0.6709233868140614 0
outer loop
vertex 39.6185493249466 -113.97388028563483 1
vertex 39.94713726623365 -113.61071404612237 1
vertex 39.94713726623368 -113.61071404612234 0
endloop
endfacet
facet normal -0.7415266745208492 0.6709233868140614 0
outer loop
vertex 39.6185493249466 -113.97388028563483 1
vertex 39.94713726623368 -113.61071404612234 0
vertex 39.61854932494656 -113.9738802856349 0
endloop
endfacet
facet normal -0.8408092493933961 0.5413315122311964 0
outer loop
vertex 39.35342962476355 -114.38567064158792 1
vertex 39.6185493249466 -113.97388028563483 1
vertex 39.61854932494656 -113.9738802856349 0
endloop
endfacet
facet normal -0.8408092493933961 0.5413315122311964 0
outer loop
vertex 39.35342962476355 -114.38567064158792 1
vertex 39.61854932494656 -113.9738802856349 0
vertex 39.35342962476355 -114.38567064158792 0
endloop
endfacet
facet normal -0.9176833466424462 0.39731256624365646 0
outer loop
vertex 39.15884389298657 -114.8351104547663 1
vertex 39.35342962476355 -114.38567064158792 1
vertex 39.35342962476355 -114.38567064158792 0
endloop
endfacet
facet normal -0.9176833466424462 0.39731256624365646 0
outer loop
vertex 39.15884389298657 -114.8351104547663 1
vertex 39.35342962476355 -114.38567064158792 0
vertex 39.15884389298657 -114.83511045476632 0
endloop
endfacet
facet normal -0.9701001882731534 0.24270480982541884 0
outer loop
vertex 39.03997805022662 -115.31022166712185 1
vertex 39.15884389298657 -114.8351104547663 1
vertex 39.15884389298657 -114.83511045476632 0
endloop
endfacet
facet normal -0.9701001882731534 0.24270480982541884 0
outer loop
vertex 39.03997805022662 -115.31022166712185 1
vertex 39.15884389298657 -114.83511045476632 0
vertex 39.03997805022662 -115.31022166712184 0
endloop
endfacet
facet normal -0.9966628365461613 0.08162836668560661 0
outer loop
vertex 39 -115.79834409999998 1
vertex 39.03997805022662 -115.31022166712185 1
vertex 39.03997805022662 -115.31022166712184 0
endloop
endfacet
facet normal -0.9966628365461613 0.08162836668560661 0
outer loop
vertex 39 -115.79834409999998 1
vertex 39.03997805022662 -115.31022166712184 0
vertex 39 -115.79834409999997 0
endloop
endfacet
facet normal -1 0 0
outer loop
vertex 39 -116.800679 1
vertex 39 -116.7754427844284 1
vertex 39 -116.73233800000003 1
endloop
endfacet
facet normal -1 0 0
outer loop
vertex 39 -116.800679 1
vertex 39 -116.73233800000003 1
vertex 39 -115.79834409999998 1
endloop
endfacet
facet normal -1 0 0
outer loop
vertex 39 -116.800679 1
vertex 39 -115.79834409999998 1
vertex 39 -115.79834409999997 0
endloop
endfacet
facet normal -1 0 0
outer loop
vertex 39 -116.800679 1
vertex 39 -115.79834409999997 0
vertex 39 -116.7323380000001 0
endloop
endfacet
facet normal -1 0 0
outer loop
vertex 39 -116.800679 1
vertex 39 -116.7323380000001 0
vertex 39 -116.7754427844284 0
endloop
endfacet
facet normal -1 0 0
outer loop
vertex 39 -116.800679 1
vertex 39 -116.7754427844284 0
vertex 39 -116.80067900000003 0
endloop
endfacet
facet normal -1 0 0
outer loop
vertex 39 -116.800679 1
vertex 39 -116.80067900000003 0
vertex 39 -207.49999999999994 0
endloop
endfacet
facet normal -1 0 0
outer loop
vertex 39 -116.800679 1
vertex 39 -207.49999999999994 0
vertex 39 -207.5000000000001 1
endloop
endfacet
endsolid csg.js
