solid csg.js
facet normal 0 0 -1
outer loop
vertex 103.9378337999994 -100.83096109999997 0
vertex 104.13483307134959 -100.8443422405947 0
vertex 104.3305223028376 -100.87065356607981 0
endloop
endfacet
facet normal 0 0 -1
outer loop
vertex 103.9378337999994 -100.83096109999997 0
vertex 104.3305223028376 -100.87065356607981 0
vertex 104.5240569000006 -100.90978055000012 0
endloop
endfacet
facet normal 0 0 -1
outer loop
vertex 103.9378337999994 -100.83096109999997 0
vertex 104.5240569000006 -100.90978055000012 0
vertex 163.5205819000004 -114.87249760000009 0
endloop
endfacet
facet normal 0 0 -1
outer loop
vertex 103.9378337999994 -100.83096109999997 0
vertex 163.5205819000004 -114.87249760000009 0
vertex 37 -114.87249760000009 0
endloop
endfacet
facet normal 0 0 -1
outer loop
vertex 103.9378337999994 -100.83096109999997 0
vertex 37 -114.87249760000009 0
vertex 37 -113.77453890000005 0
endloop
endfacet
facet normal 0 0 -1
outer loop
vertex 103.9378337999994 -100.83096109999997 0
vertex 37 -113.77453890000005 0
vertex 37.039367062281016 -113.29013330261735 0
endloop
endfacet
facet normal 0 0 -1
outer loop
vertex 103.9378337999994 -100.83096109999997 0
vertex 37.039367062281016 -113.29013330261735 0
vertex 37.15643398897345 -112.81844016519699 0
endloop
endfacet
facet normal 0 0 -1
outer loop
vertex 103.9378337999994 -100.83096109999997 0
vertex 37.15643398897345 -112.81844016519699 0
vertex 37.34812843557445 -112.37183931392488 0
endloop
endfacet
facet normal 0 0 -1
outer loop
vertex 103.9378337999994 -100.83096109999997 0
vertex 37.34812843557445 -112.37183931392488 0
vertex 37.60941950739958 -111.96205149443863 0
endloop
endfacet
facet normal 0 0 -1
outer loop
vertex 103.9378337999994 -100.83096109999997 0
vertex 37.60941950739958 -111.96205149443863 0
vertex 37.933449792104824 -111.59983131856688 0
endloop
endfacet
facet normal 0 0 -1
outer loop
vertex 103.9378337999994 -100.83096109999997 0
vertex 37.933449792104824 -111.59983131856688 0
vertex 38.311715327964194 -111.29468501661393 0
endloop
endfacet
facet normal 0 0 -1
outer loop
vertex 103.9378337999994 -100.83096109999997 0
vertex 38.311715327964194 -111.29468501661393 0
vertex 38.73428878475295 -111.05462095259703 0
endloop
endfacet
facet normal 0 0 -1
outer loop
vertex 103.9378337999994 -100.83096109999997 0
vertex 38.73428878475295 -111.05462095259703 0
vertex 39.19008000000012 -110.88593944999995 0
endloop
endfacet
facet normal 0 0 -1
outer loop
vertex 103.9378337999994 -100.83096109999997 0
vertex 39.19008000000012 -110.88593944999995 0
vertex 77.80189170000007 -100.05978199999998 0
endloop
endfacet
facet normal 0 0 -1
outer loop
vertex 103.9378337999994 -100.83096109999997 0
vertex 77.80189170000007 -100.05978199999998 0
vertex 78.10246621673409 -99.99194046714437 0
endloop
endfacet
facet normal 0 0 -1
outer loop
vertex 103.9378337999994 -100.83096109999997 0
vertex 78.10246621673409 -99.99194046714437 0
vertex 78.40841545532335 -99.95528489700092 0
endloop
endfacet
facet normal 0 0 -1
outer loop
vertex 103.9378337999994 -100.83096109999997 0
vertex 78.40841545532335 -99.95528489700092 0
vertex 78.71651085000013 -99.95020599999998 0
endloop
endfacet
facet normal 0 0 -1
outer loop
vertex 163.5205819000004 -114.87249760000009 0
vertex 163.75991965027103 -114.91896290181813 0
vertex 37 -114.91896290181813 0
endloop
endfacet
facet normal 0 0 -1
outer loop
vertex 163.5205819000004 -114.87249760000009 0
vertex 37 -114.91896290181813 0
vertex 37 -114.87249760000009 0
endloop
endfacet
facet normal 0 0 -1
outer loop
vertex 163.75991965027103 -114.91896290181813 0
vertex 164.00224095000019 -114.94583880000002 0
vertex 37 -114.94583880000002 0
endloop
endfacet
facet normal 0 0 -1
outer loop
vertex 163.75991965027103 -114.91896290181813 0
vertex 37 -114.94583880000002 0
vertex 37 -114.91896290181813 0
endloop
endfacet
facet normal 0 0 -1
outer loop
vertex 164.00224095000019 -114.94583880000002 0
vertex 186.70239520000015 -116.53318610000001 0
vertex 187.2188933344087 -116.61499339644455 0
endloop
endfacet
facet normal 0 0 -1
outer loop
vertex 164.00224095000019 -114.94583880000002 0
vertex 187.2188933344087 -116.61499339644455 0
vertex 187.7133370152674 -116.78524440181118 0
endloop
endfacet
facet normal 0 0 -1
outer loop
vertex 164.00224095000019 -114.94583880000002 0
vertex 187.7133370152674 -116.78524440181118 0
vertex 188.17070524831098 -117.0387680846731 0
endloop
endfacet
facet normal 0 0 -1
outer loop
vertex 164.00224095000019 -114.94583880000002 0
vertex 188.17070524831098 -117.0387680846731 0
vertex 188.57710115598758 -117.36786126994579 0
endloop
endfacet
facet normal 0 0 -1
outer loop
vertex 164.00224095000019 -114.94583880000002 0
vertex 188.57710115598758 -117.36786126994579 0
vertex 188.92017662629803 -117.76252464554675 0
endloop
endfacet
facet normal 0 0 -1
outer loop
vertex 164.00224095000019 -114.94583880000002 0
vertex 188.92017662629803 -117.76252464554675 0
vertex 189.18950750326104 -118.21076658589101 0
endloop
endfacet
facet normal 0 0 -1
outer loop
vertex 164.00224095000019 -114.94583880000002 0
vertex 189.18950750326104 -118.21076658589101 0
vertex 189.37691031905436 -118.69896751071812 0
endloop
endfacet
facet normal 0 0 -1
outer loop
vertex 164.00224095000019 -114.94583880000002 0
vertex 189.37691031905436 -118.69896751071812 0
vertex 189.47669094409957 -119.21229370840807 0
endloop
endfacet
facet normal 0 0 -1
outer loop
vertex 164.00224095000019 -114.94583880000002 0
vertex 189.47669094409957 -119.21229370840807 0
vertex 189.48581759999996 -119.73514805000006 0
endloop
endfacet
facet normal 0 0 -1
outer loop
vertex 164.00224095000019 -114.94583880000002 0
vertex 189.48581759999996 -119.73514805000006 0
vertex 186.66258599999995 -160.1092444000006 0
endloop
endfacet
facet normal 0 0 -1
outer loop
vertex 164.00224095000019 -114.94583880000002 0
vertex 186.66258599999995 -160.1092444000006 0
vertex 186.61825236212331 -160.45420122271221 0
endloop
endfacet
facet normal 0 0 -1
outer loop
vertex 164.00224095000019 -114.94583880000002 0
vertex 186.61825236212331 -160.45420122271221 0
vertex 186.53429624342786 -160.79170656100138 0
endloop
endfacet
facet normal 0 0 -1
outer loop
vertex 164.00224095000019 -114.94583880000002 0
vertex 186.53429624342786 -160.79170656100138 0
vertex 186.41184299999986 -161.11722720000034 0
endloop
endfacet
facet normal 0 0 -1
outer loop
vertex 164.00224095000019 -114.94583880000002 0
vertex 186.41184299999986 -161.11722720000034 0
vertex 167.81285329999912 -203.01270520000207 0
endloop
endfacet
facet normal 0 0 -1
outer loop
vertex 164.00224095000019 -114.94583880000002 0
vertex 167.81285329999912 -203.01270520000207 0
vertex 37 -203.01270520000207 0
endloop
endfacet
facet normal 0 0 -1
outer loop
vertex 164.00224095000019 -114.94583880000002 0
vertex 37 -203.01270520000207 0
vertex 37 -114.94583880000002 0
endloop
endfacet
facet normal 0 0 -1
outer loop
vertex 167.81285329999912 -203.01270520000207 0
vertex 167.76295949206622 -203.13196323626272 0
vertex 37 -203.13196323626272 0
endloop
endfacet
facet normal 0 0 -1
outer loop
vertex 167.81285329999912 -203.01270520000207 0
vertex 37 -203.13196323626272 0
vertex 37 -203.01270520000207 0
endloop
endfacet
facet normal 0 0 -1
outer loop
vertex 167.76295949206622 -203.13196323626272 0
vertex 167.71825164999953 -203.25326260000134 0
vertex 37 -203.25326260000134 0
endloop
endfacet
facet normal 0 0 -1
outer loop
vertex 167.76295949206622 -203.13196323626272 0
vertex 37 -203.25326260000134 0
vertex 37 -203.13196323626272 0
endloop
endfacet
facet normal 0 0 -1
outer loop
vertex 167.71825164999953 -203.25326260000134 0
vertex 164.66451001325063 -212.12196429999997 0
vertex 116.55991884999895 -212.12196429999997 0
endloop
endfacet
facet normal 0 0 -1
outer loop
vertex 167.71825164999953 -203.25326260000134 0
vertex 116.55991884999895 -212.12196429999997 0
vertex 38.55122817142046 -212.12196429999997 0
endloop
endfacet
facet normal 0 0 -1
outer loop
vertex 167.71825164999953 -203.25326260000134 0
vertex 38.55122817142046 -212.12196429999997 0
vertex 38.4999999999999 -212.0980762113533 0
endloop
endfacet
facet normal 0 0 -1
outer loop
vertex 167.71825164999953 -203.25326260000134 0
vertex 38.4999999999999 -212.0980762113533 0
vertex 38.07163717094038 -211.79813332935697 0
endloop
endfacet
facet normal 0 0 -1
outer loop
vertex 167.71825164999953 -203.25326260000134 0
vertex 38.07163717094038 -211.79813332935697 0
vertex 37.7018666706431 -211.42836282905967 0
endloop
endfacet
facet normal 0 0 -1
outer loop
vertex 167.71825164999953 -203.25326260000134 0
vertex 37.7018666706431 -211.42836282905967 0
vertex 37.40192378864667 -211 0
endloop
endfacet
facet normal 0 0 -1
outer loop
vertex 167.71825164999953 -203.25326260000134 0
vertex 37.40192378864667 -211 0
vertex 37.1809221376423 -210.52606042997706 0
endloop
endfacet
facet normal 0 0 -1
outer loop
vertex 167.71825164999953 -203.25326260000134 0
vertex 37.1809221376423 -210.52606042997706 0
vertex 37.04557674096337 -210.0209445330008 0
endloop
endfacet
facet normal 0 0 -1
outer loop
vertex 167.71825164999953 -203.25326260000134 0
vertex 37.04557674096337 -210.0209445330008 0
vertex 37 -209.5 0
endloop
endfacet
facet normal 0 0 -1
outer loop
vertex 167.71825164999953 -203.25326260000134 0
vertex 37 -209.5 0
vertex 37 -203.25326260000134 0
endloop
endfacet
facet normal 0 0 -1
outer loop
vertex 164.66451001325063 -212.12196429999997 0
vertex 164.65875731549377 -212.1386713323703 0
vertex 116.89799708991306 -212.1386713323703 0
endloop
endfacet
facet normal 0 0 -1
outer loop
vertex 164.66451001325063 -212.12196429999997 0
vertex 116.89799708991306 -212.1386713323703 0
vertex 116.55991884999895 -212.12196429999997 0
endloop
endfacet
facet normal 0 0 -1
outer loop
vertex 164.65875731549377 -212.1386713323703 0
vertex 164.6399276073953 -212.19335672625357 0
vertex 117.23204129197143 -212.19335672625357 0
endloop
endfacet
facet normal 0 0 -1
outer loop
vertex 164.65875731549377 -212.1386713323703 0
vertex 117.23204129197143 -212.19335672625357 0
vertex 116.89799708991306 -212.1386713323703 0
endloop
endfacet
facet normal 0 0 -1
outer loop
vertex 164.6399276073953 -212.19335672625357 0
vertex 164.60825912312671 -212.28532859999999 0
vertex 117.55779769999984 -212.28532859999999 0
endloop
endfacet
facet normal 0 0 -1
outer loop
vertex 164.6399276073953 -212.19335672625357 0
vertex 117.55779769999984 -212.28532859999999 0
vertex 117.23204129197143 -212.19335672625357 0
endloop
endfacet
facet normal 0 0 -1
outer loop
vertex 116.55991884999895 -212.12196429999997 0
vertex 63.010583299966136 -212.4999253000002 0
vertex 62.999996720606504 -212.49998134154154 0
endloop
endfacet
facet normal 0 0 -1
outer loop
vertex 116.55991884999895 -212.12196429999997 0
vertex 62.999996720606504 -212.49998134154154 0
vertex 62.98940665000329 -212.50000264999997 0
endloop
endfacet
facet normal 0 0 -1
outer loop
vertex 116.55991884999895 -212.12196429999997 0
vertex 62.98940665000329 -212.50000264999997 0
vertex 40.00000000000007 -212.5 0
endloop
endfacet
facet normal 0 0 -1
outer loop
vertex 116.55991884999895 -212.12196429999997 0
vertex 40.00000000000007 -212.5 0
vertex 39.479055466998986 -212.4544232590366 0
endloop
endfacet
facet normal 0 0 -1
outer loop
vertex 116.55991884999895 -212.12196429999997 0
vertex 39.479055466998986 -212.4544232590366 0
vertex 38.973939570023006 -212.31907786235774 0
endloop
endfacet
facet normal 0 0 -1
outer loop
vertex 116.55991884999895 -212.12196429999997 0
vertex 38.973939570023006 -212.31907786235774 0
vertex 38.55122817142046 -212.12196429999997 0
endloop
endfacet
facet normal 0 0 -1
outer loop
vertex 164.60825912312671 -212.28532859999999 0
vertex 160.5978643999999 -223.93235010000015 0
vertex 160.38516427804439 -224.41007798584576 0
endloop
endfacet
facet normal 0 0 -1
outer loop
vertex 164.60825912312671 -212.28532859999999 0
vertex 160.38516427804439 -224.41007798584576 0
vertex 160.09274211421481 -224.84360870856133 0
endloop
endfacet
facet normal 0 0 -1
outer loop
vertex 164.60825912312671 -212.28532859999999 0
vertex 160.09274211421481 -224.84360870856133 0
vertex 159.72948078081225 -225.21977464680123 0
endloop
endfacet
facet normal 0 0 -1
outer loop
vertex 164.60825912312671 -212.28532859999999 0
vertex 159.72948078081225 -225.21977464680123 0
vertex 159.30641775587625 -225.52714622383706 0
endloop
endfacet
facet normal 0 0 -1
outer loop
vertex 164.60825912312671 -212.28532859999999 0
vertex 159.30641775587625 -225.52714622383706 0
vertex 158.83640755602602 -225.75638413840082 0
endloop
endfacet
facet normal 0 0 -1
outer loop
vertex 164.60825912312671 -212.28532859999999 0
vertex 158.83640755602602 -225.75638413840082 0
vertex 158.33373115966933 -225.9005231337615 0
endloop
endfacet
facet normal 0 0 -1
outer loop
vertex 164.60825912312671 -212.28532859999999 0
vertex 158.33373115966933 -225.9005231337615 0
vertex 157.81366208803226 -225.9551836328769 0
endloop
endfacet
facet normal 0 0 -1
outer loop
vertex 164.60825912312671 -212.28532859999999 0
vertex 157.81366208803226 -225.9551836328769 0
vertex 157.29200232835964 -225.9187048092205 0
endloop
endfacet
facet normal 0 0 -1
outer loop
vertex 164.60825912312671 -212.28532859999999 0
vertex 157.29200232835964 -225.9187048092205 0
vertex 156.78460219999974 -225.7921950499999 0
endloop
endfacet
facet normal 0 0 -1
outer loop
vertex 164.60825912312671 -212.28532859999999 0
vertex 156.78460219999974 -225.7921950499999 0
vertex 117.55779769999984 -212.28532859999999 0
endloop
endfacet
facet normal 0 0 1
outer loop
vertex 158.3337311596698 -225.9005231337614 1
vertex 158.83640755602582 -225.7563841384009 1
vertex 159.30641775587623 -225.52714622383704 1
endloop
endfacet
facet normal 0 0 1
outer loop
vertex 158.3337311596698 -225.9005231337614 1
vertex 159.30641775587623 -225.52714622383704 1
vertex 159.72948078081234 -225.2197746468011 1
endloop
endfacet
facet normal 0 0 1
outer loop
vertex 158.3337311596698 -225.9005231337614 1
vertex 159.72948078081234 -225.2197746468011 1
vertex 160.0927421142149 -224.84360870856122 1
endloop
endfacet
facet normal 0 0 1
outer loop
vertex 158.3337311596698 -225.9005231337614 1
vertex 160.0927421142149 -224.84360870856122 1
vertex 160.38516427804433 -224.41007798584585 1
endloop
endfacet
facet normal 0 0 1
outer loop
vertex 158.3337311596698 -225.9005231337614 1
vertex 160.38516427804433 -224.41007798584585 1
vertex 160.59786440000008 -223.93235009999978 1
endloop
endfacet
facet normal 0 0 1
outer loop
vertex 158.3337311596698 -225.9005231337614 1
vertex 160.59786440000008 -223.93235009999978 1
vertex 164.60825912312666 -212.28532860000007 1
endloop
endfacet
facet normal 0 0 1
outer loop
vertex 158.3337311596698 -225.9005231337614 1
vertex 164.60825912312666 -212.28532860000007 1
vertex 117.55779770000015 -212.28532860000007 1
endloop
endfacet
facet normal 0 0 1
outer loop
vertex 158.3337311596698 -225.9005231337614 1
vertex 117.55779770000015 -212.28532860000007 1
vertex 156.78460219999957 -225.79219504999983 1
endloop
endfacet
facet normal 0 0 1
outer loop
vertex 158.3337311596698 -225.9005231337614 1
vertex 156.78460219999957 -225.79219504999983 1
vertex 157.29200232835967 -225.91870480922046 1
endloop
endfacet
facet normal 0 0 1
outer loop
vertex 158.3337311596698 -225.9005231337614 1
vertex 157.29200232835967 -225.91870480922046 1
vertex 157.81366208803217 -225.95518363287684 1
endloop
endfacet
facet normal 0 0 1
outer loop
vertex 164.60825912312666 -212.28532860000007 1
vertex 164.63992760739526 -212.19335672625363 1
vertex 117.23204129197178 -212.19335672625363 1
endloop
endfacet
facet normal 0 0 1
outer loop
vertex 164.60825912312666 -212.28532860000007 1
vertex 117.23204129197178 -212.19335672625363 1
vertex 117.55779770000015 -212.28532860000007 1
endloop
endfacet
facet normal 0 0 1
outer loop
vertex 164.63992760739526 -212.19335672625363 1
vertex 164.65875731549372 -212.13867133237036 1
vertex 116.89799708991347 -212.13867133237036 1
endloop
endfacet
facet normal 0 0 1
outer loop
vertex 164.63992760739526 -212.19335672625363 1
vertex 116.89799708991347 -212.13867133237036 1
vertex 117.23204129197178 -212.19335672625363 1
endloop
endfacet
facet normal 0 0 1
outer loop
vertex 62.99999672060545 -212.4999813415415 1
vertex 63.0105832999903 -212.49992530000006 1
vertex 116.55991884999759 -212.1219643 1
endloop
endfacet
facet normal 0 0 1
outer loop
vertex 62.99999672060545 -212.4999813415415 1
vertex 116.55991884999759 -212.1219643 1
vertex 38.55122817142053 -212.1219643 1
endloop
endfacet
facet normal 0 0 1
outer loop
vertex 62.99999672060545 -212.4999813415415 1
vertex 38.55122817142053 -212.1219643 1
vertex 38.973939570022836 -212.31907786235766 1
endloop
endfacet
facet normal 0 0 1
outer loop
vertex 62.99999672060545 -212.4999813415415 1
vertex 38.973939570022836 -212.31907786235766 1
vertex 39.47905546699933 -212.45442325903664 1
endloop
endfacet
facet normal 0 0 1
outer loop
vertex 62.99999672060545 -212.4999813415415 1
vertex 39.47905546699933 -212.45442325903664 1
vertex 39.99999999999977 -212.5 1
endloop
endfacet
facet normal 0 0 1
outer loop
vertex 62.99999672060545 -212.4999813415415 1
vertex 39.99999999999977 -212.5 1
vertex 62.98940664998565 -212.50000264999997 1
endloop
endfacet
facet normal 0 0 1
outer loop
vertex 164.65875731549372 -212.13867133237036 1
vertex 164.6645100132506 -212.1219643 1
vertex 116.55991884999759 -212.1219643 1
endloop
endfacet
facet normal 0 0 1
outer loop
vertex 164.65875731549372 -212.13867133237036 1
vertex 116.55991884999759 -212.1219643 1
vertex 116.89799708991347 -212.13867133237036 1
endloop
endfacet
facet normal 0 0 1
outer loop
vertex 116.55991884999759 -212.1219643 1
vertex 164.6645100132506 -212.1219643 1
vertex 167.7182516499998 -203.25326260000062 1
endloop
endfacet
facet normal 0 0 1
outer loop
vertex 116.55991884999759 -212.1219643 1
vertex 167.7182516499998 -203.25326260000062 1
vertex 37 -203.25326260000062 1
endloop
endfacet
facet normal 0 0 1
outer loop
vertex 116.55991884999759 -212.1219643 1
vertex 37 -203.25326260000062 1
vertex 37 -209.50000000000006 1
endloop
endfacet
facet normal 0 0 1
outer loop
vertex 116.55991884999759 -212.1219643 1
vertex 37 -209.50000000000006 1
vertex 37.04557674096337 -210.02094453300077 1
endloop
endfacet
facet normal 0 0 1
outer loop
vertex 116.55991884999759 -212.1219643 1
vertex 37.04557674096337 -210.02094453300077 1
vertex 37.180922137642284 -210.52606042997704 1
endloop
endfacet
facet normal 0 0 1
outer loop
vertex 116.55991884999759 -212.1219643 1
vertex 37.180922137642284 -210.52606042997704 1
vertex 37.40192378864667 -210.99999999999997 1
endloop
endfacet
facet normal 0 0 1
outer loop
vertex 116.55991884999759 -212.1219643 1
vertex 37.40192378864667 -210.99999999999997 1
vertex 37.70186667064307 -211.42836282905964 1
endloop
endfacet
facet normal 0 0 1
outer loop
vertex 116.55991884999759 -212.1219643 1
vertex 37.70186667064307 -211.42836282905964 1
vertex 38.07163717094029 -211.79813332935686 1
endloop
endfacet
facet normal 0 0 1
outer loop
vertex 116.55991884999759 -212.1219643 1
vertex 38.07163717094029 -211.79813332935686 1
vertex 38.50000000000021 -212.09807621135343 1
endloop
endfacet
facet normal 0 0 1
outer loop
vertex 116.55991884999759 -212.1219643 1
vertex 38.50000000000021 -212.09807621135343 1
vertex 38.55122817142053 -212.1219643 1
endloop
endfacet
facet normal 0 0 1
outer loop
vertex 167.7182516499998 -203.25326260000062 1
vertex 167.76295949206633 -203.1319632362624 1
vertex 37 -203.1319632362624 1
endloop
endfacet
facet normal 0 0 1
outer loop
vertex 167.7182516499998 -203.25326260000062 1
vertex 37 -203.1319632362624 1
vertex 37 -203.25326260000062 1
endloop
endfacet
facet normal 0 0 1
outer loop
vertex 167.76295949206633 -203.1319632362624 1
vertex 167.81285329999903 -203.01270520000222 1
vertex 37 -203.01270520000222 1
endloop
endfacet
facet normal 0 0 1
outer loop
vertex 167.76295949206633 -203.1319632362624 1
vertex 37 -203.01270520000222 1
vertex 37 -203.1319632362624 1
endloop
endfacet
facet normal 0 0 1
outer loop
vertex 167.81285329999903 -203.01270520000222 1
vertex 186.4118429999998 -161.11722720000054 1
vertex 186.5342962434279 -160.79170656100135 1
endloop
endfacet
facet normal 0 0 1
outer loop
vertex 167.81285329999903 -203.01270520000222 1
vertex 186.5342962434279 -160.79170656100135 1
vertex 186.6182523621233 -160.45420122271236 1
endloop
endfacet
facet normal 0 0 1
outer loop
vertex 167.81285329999903 -203.01270520000222 1
vertex 186.6182523621233 -160.45420122271236 1
vertex 186.662586 -160.1092444000002 1
endloop
endfacet
facet normal 0 0 1
outer loop
vertex 167.81285329999903 -203.01270520000222 1
vertex 186.662586 -160.1092444000002 1
vertex 189.4858176 -119.73514804999985 1
endloop
endfacet
facet normal 0 0 1
outer loop
vertex 167.81285329999903 -203.01270520000222 1
vertex 189.4858176 -119.73514804999985 1
vertex 189.4766909440996 -119.21229370840813 1
endloop
endfacet
facet normal 0 0 1
outer loop
vertex 167.81285329999903 -203.01270520000222 1
vertex 189.4766909440996 -119.21229370840813 1
vertex 189.37691031905445 -118.69896751071846 1
endloop
endfacet
facet normal 0 0 1
outer loop
vertex 167.81285329999903 -203.01270520000222 1
vertex 189.37691031905445 -118.69896751071846 1
vertex 189.18950750326098 -118.21076658589092 1
endloop
endfacet
facet normal 0 0 1
outer loop
vertex 167.81285329999903 -203.01270520000222 1
vertex 189.18950750326098 -118.21076658589092 1
vertex 188.92017662629803 -117.76252464554676 1
endloop
endfacet
facet normal 0 0 1
outer loop
vertex 167.81285329999903 -203.01270520000222 1
vertex 188.92017662629803 -117.76252464554676 1
vertex 188.57710115598758 -117.3678612699458 1
endloop
endfacet
facet normal 0 0 1
outer loop
vertex 167.81285329999903 -203.01270520000222 1
vertex 188.57710115598758 -117.3678612699458 1
vertex 188.1707052483109 -117.03876808467305 1
endloop
endfacet
facet normal 0 0 1
outer loop
vertex 167.81285329999903 -203.01270520000222 1
vertex 188.1707052483109 -117.03876808467305 1
vertex 187.71333701526737 -116.78524440181117 1
endloop
endfacet
facet normal 0 0 1
outer loop
vertex 167.81285329999903 -203.01270520000222 1
vertex 187.71333701526737 -116.78524440181117 1
vertex 187.21889333440876 -116.61499339644456 1
endloop
endfacet
facet normal 0 0 1
outer loop
vertex 167.81285329999903 -203.01270520000222 1
vertex 187.21889333440876 -116.61499339644456 1
vertex 186.70239520000007 -116.5331861 1
endloop
endfacet
facet normal 0 0 1
outer loop
vertex 167.81285329999903 -203.01270520000222 1
vertex 186.70239520000007 -116.5331861 1
vertex 164.00224095000027 -114.94583880000002 1
endloop
endfacet
facet normal 0 0 1
outer loop
vertex 167.81285329999903 -203.01270520000222 1
vertex 164.00224095000027 -114.94583880000002 1
vertex 37 -114.94583880000002 1
endloop
endfacet
facet normal 0 0 1
outer loop
vertex 167.81285329999903 -203.01270520000222 1
vertex 37 -114.94583880000002 1
vertex 37 -203.01270520000222 1
endloop
endfacet
facet normal 0 0 1
outer loop
vertex 164.00224095000027 -114.94583880000002 1
vertex 163.75991965027103 -114.91896290181813 1
vertex 37 -114.91896290181813 1
endloop
endfacet
facet normal 0 0 1
outer loop
vertex 164.00224095000027 -114.94583880000002 1
vertex 37 -114.91896290181813 1
vertex 37 -114.94583880000002 1
endloop
endfacet
facet normal 0 0 1
outer loop
vertex 163.75991965027103 -114.91896290181813 1
vertex 163.52058190000028 -114.87249760000006 1
vertex 37 -114.87249760000006 1
endloop
endfacet
facet normal 0 0 1
outer loop
vertex 163.75991965027103 -114.91896290181813 1
vertex 37 -114.87249760000006 1
vertex 37 -114.91896290181813 1
endloop
endfacet
facet normal 0 0 1
outer loop
vertex 163.52058190000028 -114.87249760000006 1
vertex 104.52405690000015 -100.90978055000002 1
vertex 104.33052230283766 -100.87065356607982 1
endloop
endfacet
facet normal 0 0 1
outer loop
vertex 163.52058190000028 -114.87249760000006 1
vertex 104.33052230283766 -100.87065356607982 1
vertex 104.1348330713493 -100.84434224059467 1
endloop
endfacet
facet normal 0 0 1
outer loop
vertex 163.52058190000028 -114.87249760000006 1
vertex 104.1348330713493 -100.84434224059467 1
vertex 103.93783379999975 -100.83096109999998 1
endloop
endfacet
facet normal 0 0 1
outer loop
vertex 163.52058190000028 -114.87249760000006 1
vertex 103.93783379999975 -100.83096109999998 1
vertex 78.7165108499999 -99.950206 1
endloop
endfacet
facet normal 0 0 1
outer loop
vertex 163.52058190000028 -114.87249760000006 1
vertex 78.7165108499999 -99.950206 1
vertex 78.40841545532328 -99.95528489700094 1
endloop
endfacet
facet normal 0 0 1
outer loop
vertex 163.52058190000028 -114.87249760000006 1
vertex 78.40841545532328 -99.95528489700094 1
vertex 78.10246621673402 -99.99194046714439 1
endloop
endfacet
facet normal 0 0 1
outer loop
vertex 163.52058190000028 -114.87249760000006 1
vertex 78.10246621673402 -99.99194046714439 1
vertex 77.8018916999999 -100.05978200000001 1
endloop
endfacet
facet normal 0 0 1
outer loop
vertex 163.52058190000028 -114.87249760000006 1
vertex 77.8018916999999 -100.05978200000001 1
vertex 39.19008000000029 -110.88593944999988 1
endloop
endfacet
facet normal 0 0 1
outer loop
vertex 163.52058190000028 -114.87249760000006 1
vertex 39.19008000000029 -110.88593944999988 1
vertex 38.73428878475302 -111.054620952597 1
endloop
endfacet
facet normal 0 0 1
outer loop
vertex 163.52058190000028 -114.87249760000006 1
vertex 38.73428878475302 -111.054620952597 1
vertex 38.31171532796414 -111.29468501661398 1
endloop
endfacet
facet normal 0 0 1
outer loop
vertex 163.52058190000028 -114.87249760000006 1
vertex 38.31171532796414 -111.29468501661398 1
vertex 37.93344979210481 -111.5998313185669 1
endloop
endfacet
facet normal 0 0 1
outer loop
vertex 163.52058190000028 -114.87249760000006 1
vertex 37.93344979210481 -111.5998313185669 1
vertex 37.60941950739955 -111.96205149443865 1
endloop
endfacet
facet normal 0 0 1
outer loop
vertex 163.52058190000028 -114.87249760000006 1
vertex 37.60941950739955 -111.96205149443865 1
vertex 37.348128435574495 -112.37183931392481 1
endloop
endfacet
facet normal 0 0 1
outer loop
vertex 163.52058190000028 -114.87249760000006 1
vertex 37.348128435574495 -112.37183931392481 1
vertex 37.15643398897343 -112.81844016519706 1
endloop
endfacet
facet normal 0 0 1
outer loop
vertex 163.52058190000028 -114.87249760000006 1
vertex 37.15643398897343 -112.81844016519706 1
vertex 37.039367062281016 -113.29013330261736 1
endloop
endfacet
facet normal 0 0 1
outer loop
vertex 163.52058190000028 -114.87249760000006 1
vertex 37.039367062281016 -113.29013330261736 1
vertex 37 -113.77453889999998 1
endloop
endfacet
facet normal 0 0 1
outer loop
vertex 163.52058190000028 -114.87249760000006 1
vertex 37 -113.77453889999998 1
vertex 37 -114.87249760000006 1
endloop
endfacet
facet normal -0.9961946980917459 -0.08715574274765459 0
outer loop
vertex 37.04557674096337 -210.02094453300077 1
vertex 37 -209.50000000000006 1
vertex 37 -209.5 0
endloop
endfacet
facet normal -0.9961946980917459 -0.08715574274765459 0
outer loop
vertex 37.04557674096337 -210.02094453300077 1
vertex 37 -209.5 0
vertex 37.04557674096337 -210.0209445330008 0
endloop
endfacet
facet normal -0.9659258262890629 -0.25881904510254117 0
outer loop
vertex 37.180922137642284 -210.52606042997704 1
vertex 37.04557674096337 -210.02094453300077 1
vertex 37.04557674096337 -210.0209445330008 0
endloop
endfacet
facet normal -0.9659258262890629 -0.25881904510254117 0
outer loop
vertex 37.180922137642284 -210.52606042997704 1
vertex 37.04557674096337 -210.0209445330008 0
vertex 37.1809221376423 -210.52606042997706 0
endloop
endfacet
facet normal -0.9063077870366489 -0.42261826174070183 0
outer loop
vertex 37.40192378864667 -210.99999999999997 1
vertex 37.180922137642284 -210.52606042997704 1
vertex 37.1809221376423 -210.52606042997706 0
endloop
endfacet
facet normal -0.9063077870366489 -0.42261826174070183 0
outer loop
vertex 37.40192378864667 -210.99999999999997 1
vertex 37.1809221376423 -210.52606042997706 0
vertex 37.40192378864667 -211 0
endloop
endfacet
facet normal -0.8191520442889821 -0.5735764363510599 0
outer loop
vertex 37.70186667064307 -211.42836282905964 1
vertex 37.40192378864667 -210.99999999999997 1
vertex 37.40192378864667 -211 0
endloop
endfacet
facet normal -0.8191520442889821 -0.5735764363510599 0
outer loop
vertex 37.70186667064307 -211.42836282905964 1
vertex 37.40192378864667 -211 0
vertex 37.7018666706431 -211.42836282905967 0
endloop
endfacet
facet normal -0.7071067811865546 -0.7071067811865404 0
outer loop
vertex 38.07163717094029 -211.79813332935686 1
vertex 37.70186667064307 -211.42836282905964 1
vertex 37.7018666706431 -211.42836282905967 0
endloop
endfacet
facet normal -0.7071067811865546 -0.7071067811865404 0
outer loop
vertex 38.07163717094029 -211.79813332935686 1
vertex 37.7018666706431 -211.42836282905967 0
vertex 38.07163717094038 -211.79813332935697 0
endloop
endfacet
facet normal -0.5735764363510341 -0.8191520442890001 0
outer loop
vertex 38.50000000000021 -212.09807621135343 1
vertex 38.07163717094029 -211.79813332935686 1
vertex 38.07163717094038 -211.79813332935697 0
endloop
endfacet
facet normal -0.5735764363510341 -0.8191520442890001 0
outer loop
vertex 38.50000000000021 -212.09807621135343 1
vertex 38.07163717094038 -211.79813332935697 0
vertex 38.4999999999999 -212.0980762113533 0
endloop
endfacet
facet normal 0 0 -1
outer loop
vertex 38.973939570022836 -212.31907786235766 1
vertex 38.55122817142053 -212.1219643 1
vertex 38.50000000000021 -212.09807621135343 1
endloop
endfacet
facet normal 0 0 -1
outer loop
vertex 38.973939570022836 -212.31907786235766 1
vertex 38.50000000000021 -212.09807621135343 1
vertex 38.4999999999999 -212.0980762113533 0
endloop
endfacet
facet normal 0 0 -1
outer loop
vertex 38.973939570022836 -212.31907786235766 1
vertex 38.4999999999999 -212.0980762113533 0
vertex 38.55122817142046 -212.12196429999997 0
endloop
endfacet
facet normal 0 0 -1
outer loop
vertex 38.973939570022836 -212.31907786235766 1
vertex 38.55122817142046 -212.12196429999997 0
vertex 38.973939570023006 -212.31907786235774 0
endloop
endfacet
facet normal -0.25881904510254033 -0.965925826289063 0
outer loop
vertex 39.47905546699933 -212.45442325903664 1
vertex 38.973939570022836 -212.31907786235766 1
vertex 38.973939570023006 -212.31907786235774 0
endloop
endfacet
facet normal -0.25881904510254033 -0.965925826289063 0
outer loop
vertex 39.47905546699933 -212.45442325903664 1
vertex 38.973939570023006 -212.31907786235774 0
vertex 39.479055466998986 -212.4544232590366 0
endloop
endfacet
facet normal -0.08715574274765463 -0.9961946980917459 0
outer loop
vertex 39.99999999999977 -212.5 1
vertex 39.47905546699933 -212.45442325903664 1
vertex 39.479055466998986 -212.4544232590366 0
endloop
endfacet
facet normal -0.08715574274765463 -0.9961946980917459 0
outer loop
vertex 39.99999999999977 -212.5 1
vertex 39.479055466998986 -212.4544232590366 0
vertex 40.00000000000007 -212.5 0
endloop
endfacet
facet normal -1.1527049537107815e-7 -0.9999999999999933 0
outer loop
vertex 62.98940664998565 -212.50000264999997 1
vertex 39.99999999999977 -212.5 1
vertex 40.00000000000007 -212.5 0
endloop
endfacet
facet normal -1.1527049537107815e-7 -0.9999999999999933 0
outer loop
vertex 62.98940664998565 -212.50000264999997 1
vertex 40.00000000000007 -212.5 0
vertex 62.98940665000329 -212.50000264999997 0
endloop
endfacet
facet normal 0.0020121126758851915 -0.999997975699241 0
outer loop
vertex 62.99999672060545 -212.4999813415415 1
vertex 62.98940664998565 -212.50000264999997 1
vertex 62.98940665000329 -212.50000264999997 0
endloop
endfacet
facet normal 0.0020121126758851915 -0.999997975699241 0
outer loop
vertex 62.99999672060545 -212.4999813415415 1
vertex 62.98940665000329 -212.50000264999997 0
vertex 62.999996720606504 -212.49998134154154 0
endloop
endfacet
facet normal 0.005293565960073465 -0.999985988981559 0
outer loop
vertex 63.0105832999903 -212.49992530000006 1
vertex 62.99999672060545 -212.4999813415415 1
vertex 62.999996720606504 -212.49998134154154 0
endloop
endfacet
facet normal 0.005293565960073465 -0.999985988981559 0
outer loop
vertex 63.0105832999903 -212.49992530000006 1
vertex 62.999996720606504 -212.49998134154154 0
vertex 63.010583299966136 -212.4999253000002 0
endloop
endfacet
facet normal 0.007058007010726897 -0.999975091958313 0
outer loop
vertex 116.55991884999759 -212.1219643 1
vertex 63.0105832999903 -212.49992530000006 1
vertex 63.010583299966136 -212.4999253000002 0
endloop
endfacet
facet normal 0.007058007010726897 -0.999975091958313 0
outer loop
vertex 116.55991884999759 -212.1219643 1
vertex 63.010583299966136 -212.4999253000002 0
vertex 116.55991884999895 -212.12196429999997 0
endloop
endfacet
facet normal -0.049357419472471506 -0.9987811798101818 0
outer loop
vertex 116.89799708991347 -212.13867133237036 1
vertex 116.55991884999759 -212.1219643 1
vertex 116.55991884999895 -212.12196429999997 0
endloop
endfacet
facet normal -0.049357419472471506 -0.9987811798101818 0
outer loop
vertex 116.89799708991347 -212.13867133237036 1
vertex 116.55991884999895 -212.12196429999997 0
vertex 116.89799708991306 -212.1386713323703 0
endloop
endfacet
facet normal -0.1615565149513146 -0.9868634619220562 0
outer loop
vertex 117.23204129197178 -212.19335672625363 1
vertex 116.89799708991347 -212.13867133237036 1
vertex 116.89799708991306 -212.1386713323703 0
endloop
endfacet
facet normal -0.1615565149513146 -0.9868634619220562 0
outer loop
vertex 117.23204129197178 -212.19335672625363 1
vertex 116.89799708991306 -212.1386713323703 0
vertex 117.23204129197143 -212.19335672625357 0
endloop
endfacet
facet normal -0.27171154191336144 -0.9623787393698304 0
outer loop
vertex 117.55779770000015 -212.28532860000007 1
vertex 117.23204129197178 -212.19335672625363 1
vertex 117.23204129197143 -212.19335672625357 0
endloop
endfacet
facet normal -0.27171154191336144 -0.9623787393698304 0
outer loop
vertex 117.55779770000015 -212.28532860000007 1
vertex 117.23204129197143 -212.19335672625357 0
vertex 117.55779769999984 -212.28532859999999 0
endloop
endfacet
facet normal -0.325568035496587 -0.9455186165607175 0
outer loop
vertex 156.78460219999957 -225.79219504999983 1
vertex 117.55779770000015 -212.28532860000007 1
vertex 117.55779769999984 -212.28532859999999 0
endloop
endfacet
facet normal -0.325568035496587 -0.9455186165607175 0
outer loop
vertex 156.78460219999957 -225.79219504999983 1
vertex 117.55779769999984 -212.28532859999999 0
vertex 156.78460219999974 -225.7921950499999 0
endloop
endfacet
facet normal -0.2419231532911688 -0.9702954126974206 0
outer loop
vertex 157.29200232835967 -225.91870480922046 1
vertex 156.78460219999957 -225.79219504999983 1
vertex 156.78460219999974 -225.7921950499999 0
endloop
endfacet
facet normal -0.2419231532911688 -0.9702954126974206 0
outer loop
vertex 157.29200232835967 -225.91870480922046 1
vertex 156.78460219999974 -225.7921950499999 0
vertex 157.29200232835964 -225.9187048092205 0
endloop
endfacet
facet normal -0.06975803370181664 -0.9975639411757304 0
outer loop
vertex 157.81366208803217 -225.95518363287684 1
vertex 157.29200232835967 -225.91870480922046 1
vertex 157.29200232835964 -225.9187048092205 0
endloop
endfacet
facet normal -0.06975803370181664 -0.9975639411757304 0
outer loop
vertex 157.81366208803217 -225.95518363287684 1
vertex 157.29200232835964 -225.9187048092205 0
vertex 157.81366208803226 -225.9551836328769 0
endloop
endfacet
facet normal 0.10452664195989307 -0.9945220867937465 0
outer loop
vertex 158.3337311596698 -225.9005231337614 1
vertex 157.81366208803217 -225.95518363287684 1
vertex 157.81366208803226 -225.9551836328769 0
endloop
endfacet
facet normal 0.10452664195989307 -0.9945220867937465 0
outer loop
vertex 158.3337311596698 -225.9005231337614 1
vertex 157.81366208803226 -225.9551836328769 0
vertex 158.33373115966933 -225.9005231337615 0
endloop
endfacet
facet normal 0.27563533821194314 -0.9612622744749676 0
outer loop
vertex 158.83640755602582 -225.7563841384009 1
vertex 158.3337311596698 -225.9005231337614 1
vertex 158.33373115966933 -225.9005231337615 0
endloop
endfacet
facet normal 0.27563533821194314 -0.9612622744749676 0
outer loop
vertex 158.83640755602582 -225.7563841384009 1
vertex 158.33373115966933 -225.9005231337615 0
vertex 158.83640755602602 -225.75638413840082 0
endloop
endfacet
facet normal 0.43836901980472087 -0.8987950836956378 0
outer loop
vertex 159.30641775587623 -225.52714622383704 1
vertex 158.83640755602582 -225.7563841384009 1
vertex 158.83640755602602 -225.75638413840082 0
endloop
endfacet
facet normal 0.43836901980472087 -0.8987950836956378 0
outer loop
vertex 159.30641775587623 -225.52714622383704 1
vertex 158.83640755602602 -225.75638413840082 0
vertex 159.30641775587625 -225.52714622383706 0
endloop
endfacet
facet normal 0.5877831212924267 -0.8090185426328202 0
outer loop
vertex 159.72948078081234 -225.2197746468011 1
vertex 159.30641775587623 -225.52714622383704 1
vertex 159.30641775587625 -225.52714622383706 0
endloop
endfacet
facet normal 0.5877831212924267 -0.8090185426328202 0
outer loop
vertex 159.72948078081234 -225.2197746468011 1
vertex 159.30641775587625 -225.52714622383706 0
vertex 159.72948078081225 -225.21977464680123 0
endloop
endfacet
facet normal 0.719337784693184 -0.6946604577149202 0
outer loop
vertex 160.0927421142149 -224.84360870856122 1
vertex 159.72948078081234 -225.2197746468011 1
vertex 159.72948078081225 -225.21977464680123 0
endloop
endfacet
facet normal 0.719337784693184 -0.6946604577149202 0
outer loop
vertex 160.0927421142149 -224.84360870856122 1
vertex 159.72948078081225 -225.21977464680123 0
vertex 160.09274211421481 -224.84360870856133 0
endloop
endfacet
facet normal 0.8290358003544583 -0.5591955308571793 0
outer loop
vertex 160.38516427804433 -224.41007798584585 1
vertex 160.0927421142149 -224.84360870856122 1
vertex 160.09274211421481 -224.84360870856133 0
endloop
endfacet
facet normal 0.8290358003544583 -0.5591955308571793 0
outer loop
vertex 160.38516427804433 -224.41007798584585 1
vertex 160.09274211421481 -224.84360870856133 0
vertex 160.38516427804439 -224.41007798584576 0
endloop
endfacet
facet normal 0.9135440625469309 -0.406739776497516 0
outer loop
vertex 160.59786440000008 -223.93235009999978 1
vertex 160.38516427804433 -224.41007798584585 1
vertex 160.38516427804439 -224.41007798584576 0
endloop
endfacet
facet normal 0.9135440625469309 -0.406739776497516 0
outer loop
vertex 160.59786440000008 -223.93235009999978 1
vertex 160.38516427804439 -224.41007798584576 0
vertex 160.5978643999999 -223.93235010000015 0
endloop
endfacet
facet normal 0 0 -1
outer loop
vertex 167.7182516499998 -203.25326260000062 1
vertex 164.6645100132506 -212.1219643 1
vertex 164.65875731549372 -212.13867133237036 1
endloop
endfacet
facet normal 0 0 -1
outer loop
vertex 167.7182516499998 -203.25326260000062 1
vertex 164.65875731549372 -212.13867133237036 1
vertex 164.63992760739526 -212.19335672625363 1
endloop
endfacet
facet normal 0 0 -1
outer loop
vertex 167.7182516499998 -203.25326260000062 1
vertex 164.63992760739526 -212.19335672625363 1
vertex 164.60825912312666 -212.28532860000007 1
endloop
endfacet
facet normal 0 0 -1
outer loop
vertex 167.7182516499998 -203.25326260000062 1
vertex 164.60825912312666 -212.28532860000007 1
vertex 160.59786440000008 -223.93235009999978 1
endloop
endfacet
facet normal 0 0 -1
outer loop
vertex 167.7182516499998 -203.25326260000062 1
vertex 160.59786440000008 -223.93235009999978 1
vertex 160.5978643999999 -223.93235010000015 0
endloop
endfacet
facet normal 0 0 -1
outer loop
vertex 167.7182516499998 -203.25326260000062 1
vertex 160.5978643999999 -223.93235010000015 0
vertex 164.60825912312671 -212.28532859999999 0
endloop
endfacet
facet normal 0 0 -1
outer loop
vertex 167.7182516499998 -203.25326260000062 1
vertex 164.60825912312671 -212.28532859999999 0
vertex 164.6399276073953 -212.19335672625357 0
endloop
endfacet
facet normal 0 0 -1
outer loop
vertex 167.7182516499998 -203.25326260000062 1
vertex 164.6399276073953 -212.19335672625357 0
vertex 164.65875731549377 -212.1386713323703 0
endloop
endfacet
facet normal 0 0 -1
outer loop
vertex 167.7182516499998 -203.25326260000062 1
vertex 164.65875731549377 -212.1386713323703 0
vertex 164.66451001325063 -212.12196429999997 0
endloop
endfacet
facet normal 0 0 -1
outer loop
vertex 167.7182516499998 -203.25326260000062 1
vertex 164.66451001325063 -212.12196429999997 0
vertex 167.71825164999953 -203.25326260000134 0
endloop
endfacet
facet normal 0.9382964286211979 -0.345832057560755 0
outer loop
vertex 167.76295949206633 -203.1319632362624 1
vertex 167.7182516499998 -203.25326260000062 1
vertex 167.71825164999953 -203.25326260000134 0
endloop
endfacet
facet normal 0.9382964286211979 -0.345832057560755 0
outer loop
vertex 167.76295949206633 -203.1319632362624 1
vertex 167.71825164999953 -203.25326260000134 0
vertex 167.76295949206622 -203.13196323626272 0
endloop
endfacet
facet normal 0.9225185609141648 -0.38595272348936527 0
outer loop
vertex 167.81285329999903 -203.01270520000222 1
vertex 167.76295949206633 -203.1319632362624 1
vertex 167.76295949206622 -203.13196323626272 0
endloop
endfacet
facet normal 0.9225185609141648 -0.38595272348936527 0
outer loop
vertex 167.81285329999903 -203.01270520000222 1
vertex 167.76295949206622 -203.13196323626272 0
vertex 167.81285329999912 -203.01270520000207 0
endloop
endfacet
facet normal 0.9139832985862094 -0.4057518082590293 0
outer loop
vertex 186.4118429999998 -161.11722720000054 1
vertex 167.81285329999903 -203.01270520000222 1
vertex 167.81285329999912 -203.01270520000207 0
endloop
endfacet
facet normal 0.9139832985862094 -0.4057518082590293 0
outer loop
vertex 186.4118429999998 -161.11722720000054 1
vertex 167.81285329999912 -203.01270520000207 0
vertex 186.41184299999986 -161.11722720000034 0
endloop
endfacet
facet normal 0.9359666258424698 -0.3520887321529364 0
outer loop
vertex 186.5342962434279 -160.79170656100135 1
vertex 186.4118429999998 -161.11722720000054 1
vertex 186.41184299999986 -161.11722720000034 0
endloop
endfacet
facet normal 0.9359666258424698 -0.3520887321529364 0
outer loop
vertex 186.5342962434279 -160.79170656100135 1
vertex 186.41184299999986 -161.11722720000034 0
vertex 186.53429624342786 -160.79170656100138 0
endloop
endfacet
facet normal 0.9704261261407982 -0.24139828852616965 0
outer loop
vertex 186.6182523621233 -160.45420122271236 1
vertex 186.5342962434279 -160.79170656100135 1
vertex 186.53429624342786 -160.79170656100138 0
endloop
endfacet
facet normal 0.9704261261407982 -0.24139828852616965 0
outer loop
vertex 186.6182523621233 -160.45420122271236 1
vertex 186.53429624342786 -160.79170656100138 0
vertex 186.61825236212331 -160.45420122271221 0
endloop
endfacet
facet normal 0.9918423031146264 -0.12747096042735956 0
outer loop
vertex 186.662586 -160.1092444000002 1
vertex 186.6182523621233 -160.45420122271236 1
vertex 186.61825236212331 -160.45420122271221 0
endloop
endfacet
facet normal 0.9918423031146264 -0.12747096042735956 0
outer loop
vertex 186.662586 -160.1092444000002 1
vertex 186.61825236212331 -160.45420122271221 0
vertex 186.66258599999995 -160.1092444000006 0
endloop
endfacet
facet normal 0.9975640506773777 -0.06975646777283374 0
outer loop
vertex 189.4858176 -119.73514804999985 1
vertex 186.662586 -160.1092444000002 1
vertex 186.66258599999995 -160.1092444000006 0
endloop
endfacet
facet normal 0.9975640506773777 -0.06975646777283374 0
outer loop
vertex 189.4858176 -119.73514804999985 1
vertex 186.66258599999995 -160.1092444000006 0
vertex 189.48581759999996 -119.73514805000006 0
endloop
endfacet
facet normal 0.9998476885018894 0.017452787669270716 0
outer loop
vertex 189.4766909440996 -119.21229370840813 1
vertex 189.4858176 -119.73514804999985 1
vertex 189.48581759999996 -119.73514805000006 0
endloop
endfacet
facet normal 0.9998476885018894 0.017452787669270716 0
outer loop
vertex 189.4766909440996 -119.21229370840813 1
vertex 189.48581759999996 -119.73514805000006 0
vertex 189.47669094409957 -119.21229370840807 0
endloop
endfacet
facet normal 0.9816271404484912 0.19080921658797925 0
outer loop
vertex 189.37691031905445 -118.69896751071846 1
vertex 189.4766909440996 -119.21229370840813 1
vertex 189.47669094409957 -119.21229370840807 0
endloop
endfacet
facet normal 0.9816271404484912 0.19080921658797925 0
outer loop
vertex 189.37691031905445 -118.69896751071846 1
vertex 189.47669094409957 -119.21229370840807 0
vertex 189.37691031905436 -118.69896751071812 0
endloop
endfacet
facet normal 0.93358040162163 0.35836801434837345 0
outer loop
vertex 189.18950750326098 -118.21076658589092 1
vertex 189.37691031905445 -118.69896751071846 1
vertex 189.37691031905436 -118.69896751071812 0
endloop
endfacet
facet normal 0.93358040162163 0.35836801434837345 0
outer loop
vertex 189.18950750326098 -118.21076658589092 1
vertex 189.37691031905436 -118.69896751071812 0
vertex 189.18950750326104 -118.21076658589101 0
endloop
endfacet
facet normal 0.8571673452656642 0.5150380007438421 0
outer loop
vertex 188.92017662629803 -117.76252464554676 1
vertex 189.18950750326098 -118.21076658589092 1
vertex 189.18950750326104 -118.21076658589101 0
endloop
endfacet
facet normal 0.8571673452656642 0.5150380007438421 0
outer loop
vertex 188.92017662629803 -117.76252464554676 1
vertex 189.18950750326104 -118.21076658589101 0
vertex 188.92017662629803 -117.76252464554675 0
endloop
endfacet
facet normal 0.7547097392927891 0.6560588460013406 0
outer loop
vertex 188.57710115598758 -117.3678612699458 1
vertex 188.92017662629803 -117.76252464554676 1
vertex 188.92017662629803 -117.76252464554675 0
endloop
endfacet
facet normal 0.7547097392927891 0.6560588460013406 0
outer loop
vertex 188.57710115598758 -117.3678612699458 1
vertex 188.92017662629803 -117.76252464554675 0
vertex 188.57710115598758 -117.36786126994579 0
endloop
endfacet
facet normal 0.6293207006657409 0.7771457107348537 0
outer loop
vertex 188.1707052483109 -117.03876808467305 1
vertex 188.57710115598758 -117.3678612699458 1
vertex 188.57710115598758 -117.36786126994579 0
endloop
endfacet
facet normal 0.6293207006657409 0.7771457107348537 0
outer loop
vertex 188.1707052483109 -117.03876808467305 1
vertex 188.57710115598758 -117.36786126994579 0
vertex 188.17070524831098 -117.0387680846731 0
endloop
endfacet
facet normal 0.48481010508253625 0.8746194383901265 0
outer loop
vertex 187.71333701526737 -116.78524440181117 1
vertex 188.1707052483109 -117.03876808467305 1
vertex 188.17070524831098 -117.0387680846731 0
endloop
endfacet
facet normal 0.48481010508253625 0.8746194383901265 0
outer loop
vertex 187.71333701526737 -116.78524440181117 1
vertex 188.17070524831098 -117.0387680846731 0
vertex 187.7133370152674 -116.78524440181118 0
endloop
endfacet
facet normal 0.32556882603798715 0.9455183443552255 0
outer loop
vertex 187.21889333440876 -116.61499339644456 1
vertex 187.71333701526737 -116.78524440181117 1
vertex 187.7133370152674 -116.78524440181118 0
endloop
endfacet
facet normal 0.32556882603798715 0.9455183443552255 0
outer loop
vertex 187.21889333440876 -116.61499339644456 1
vertex 187.7133370152674 -116.78524440181118 0
vertex 187.2188933344087 -116.61499339644455 0
endloop
endfacet
facet normal 0.1564382491621644 0.9876877412416724 0
outer loop
vertex 186.70239520000007 -116.5331861 1
vertex 187.21889333440876 -116.61499339644456 1
vertex 187.2188933344087 -116.61499339644455 0
endloop
endfacet
facet normal 0.1564382491621644 0.9876877412416724 0
outer loop
vertex 186.70239520000007 -116.5331861 1
vertex 187.2188933344087 -116.61499339644455 0
vertex 186.70239520000015 -116.53318610000001 0
endloop
endfacet
facet normal 0.06975638115034145 0.997564056734608 0
outer loop
vertex 164.00224095000027 -114.94583880000002 1
vertex 186.70239520000007 -116.5331861 1
vertex 186.70239520000015 -116.53318610000001 0
endloop
endfacet
facet normal 0.06975638115034145 0.997564056734608 0
outer loop
vertex 164.00224095000027 -114.94583880000002 1
vertex 186.70239520000015 -116.53318610000001 0
vertex 164.00224095000019 -114.94583880000002 0
endloop
endfacet
facet normal 0.11023424958558785 0.993905634463505 0
outer loop
vertex 163.75991965027103 -114.91896290181813 1
vertex 164.00224095000027 -114.94583880000002 1
vertex 164.00224095000019 -114.94583880000002 0
endloop
endfacet
facet normal 0.11023424958558785 0.993905634463505 0
outer loop
vertex 163.75991965027103 -114.91896290181813 1
vertex 164.00224095000019 -114.94583880000002 0
vertex 163.75991965027103 -114.91896290181813 0
endloop
endfacet
facet normal 0.19058274558588542 0.981671134894444 0
outer loop
vertex 163.52058190000028 -114.87249760000006 1
vertex 163.75991965027103 -114.91896290181813 1
vertex 163.75991965027103 -114.91896290181813 0
endloop
endfacet
facet normal 0.19058274558588542 0.981671134894444 0
outer loop
vertex 163.52058190000028 -114.87249760000006 1
vertex 163.75991965027103 -114.91896290181813 0
vertex 163.5205819000004 -114.87249760000009 0
endloop
endfacet
facet normal 0.2303079457543047 0.9731177986875136 0
outer loop
vertex 104.52405690000015 -100.90978055000002 1
vertex 163.52058190000028 -114.87249760000006 1
vertex 163.5205819000004 -114.87249760000009 0
endloop
endfacet
facet normal 0.2303079457543047 0.9731177986875136 0
outer loop
vertex 104.52405690000015 -100.90978055000002 1
vertex 163.5205819000004 -114.87249760000009 0
vertex 104.5240569000006 -100.90978055000012 0
endloop
endfacet
facet normal 0.19816132934803923 0.9801694177799152 0
outer loop
vertex 104.33052230283766 -100.87065356607982 1
vertex 104.52405690000015 -100.90978055000002 1
vertex 104.5240569000006 -100.90978055000012 0
endloop
endfacet
facet normal 0.19816132934803923 0.9801694177799152 0
outer loop
vertex 104.33052230283766 -100.87065356607982 1
vertex 104.5240569000006 -100.90978055000012 0
vertex 104.3305223028376 -100.87065356607981 0
endloop
endfacet
facet normal 0.13325553652938998 0.9910817130712606 0
outer loop
vertex 104.1348330713493 -100.84434224059467 1
vertex 104.33052230283766 -100.87065356607982 1
vertex 104.3305223028376 -100.87065356607981 0
endloop
endfacet
facet normal 0.13325553652938998 0.9910817130712606 0
outer loop
vertex 104.1348330713493 -100.84434224059467 1
vertex 104.3305223028376 -100.87065356607981 0
vertex 104.13483307134959 -100.8443422405947 0
endloop
endfacet
facet normal 0.06776866777688892 0.9977010612742405 0
outer loop
vertex 103.93783379999975 -100.83096109999998 1
vertex 104.1348330713493 -100.84434224059467 1
vertex 104.13483307134959 -100.8443422405947 0
endloop
endfacet
facet normal 0.06776866777688892 0.9977010612742405 0
outer loop
vertex 103.93783379999975 -100.83096109999998 1
vertex 104.13483307134959 -100.8443422405947 0
vertex 103.9378337999994 -100.83096109999997 0
endloop
endfacet
facet normal 0.0348997774977562 0.99939081721347 0
outer loop
vertex 78.7165108499999 -99.950206 1
vertex 103.93783379999975 -100.83096109999998 1
vertex 103.9378337999994 -100.83096109999997 0
endloop
endfacet
facet normal 0.0348997774977562 0.99939081721347 0
outer loop
vertex 78.7165108499999 -99.950206 1
vertex 103.9378337999994 -100.83096109999997 0
vertex 78.71651085000013 -99.95020599999998 0
endloop
endfacet
facet normal -0.016482580187840764 0.9998641530479786 0
outer loop
vertex 78.40841545532328 -99.95528489700094 1
vertex 78.7165108499999 -99.950206 1
vertex 78.71651085000013 -99.95020599999998 0
endloop
endfacet
facet normal -0.016482580187840764 0.9998641530479786 0
outer loop
vertex 78.40841545532328 -99.95528489700094 1
vertex 78.71651085000013 -99.95020599999998 0
vertex 78.40841545532335 -99.95528489700092 0
endloop
endfacet
facet normal -0.11895857980742619 0.9928992175896809 0
outer loop
vertex 78.10246621673402 -99.99194046714439 1
vertex 78.40841545532328 -99.95528489700094 1
vertex 78.40841545532335 -99.95528489700092 0
endloop
endfacet
facet normal -0.11895857980742619 0.9928992175896809 0
outer loop
vertex 78.10246621673402 -99.99194046714439 1
vertex 78.40841545532335 -99.95528489700092 0
vertex 78.10246621673409 -99.99194046714437 0
endloop
endfacet
facet normal -0.22016782581624753 0.975462007704732 0
outer loop
vertex 77.8018916999999 -100.05978200000001 1
vertex 78.10246621673402 -99.99194046714439 1
vertex 78.10246621673409 -99.99194046714437 0
endloop
endfacet
facet normal -0.22016782581624753 0.975462007704732 0
outer loop
vertex 77.8018916999999 -100.05978200000001 1
vertex 78.10246621673409 -99.99194046714437 0
vertex 77.80189170000007 -100.05978199999998 0
endloop
endfacet
facet normal -0.269973306683184 0.9628678069592667 0
outer loop
vertex 39.19008000000029 -110.88593944999988 1
vertex 77.8018916999999 -100.05978200000001 1
vertex 77.80189170000007 -100.05978199999998 0
endloop
endfacet
facet normal -0.269973306683184 0.9628678069592667 0
outer loop
vertex 39.19008000000029 -110.88593944999988 1
vertex 77.80189170000007 -100.05978199999998 0
vertex 39.19008000000012 -110.88593944999995 0
endloop
endfacet
facet normal -0.34707901722046597 0.9378358895911777 0
outer loop
vertex 38.73428878475302 -111.054620952597 1
vertex 39.19008000000029 -110.88593944999988 1
vertex 39.19008000000012 -110.88593944999995 0
endloop
endfacet
facet normal -0.34707901722046597 0.9378358895911777 0
outer loop
vertex 38.73428878475302 -111.054620952597 1
vertex 39.19008000000012 -110.88593944999995 0
vertex 38.73428878475295 -111.05462095259703 0
endloop
endfacet
facet normal -0.4939557576030914 0.8694870381614416 0
outer loop
vertex 38.31171532796414 -111.29468501661398 1
vertex 38.73428878475302 -111.054620952597 1
vertex 38.73428878475295 -111.05462095259703 0
endloop
endfacet
facet normal -0.4939557576030914 0.8694870381614416 0
outer loop
vertex 38.31171532796414 -111.29468501661398 1
vertex 38.73428878475295 -111.05462095259703 0
vertex 38.311715327964194 -111.29468501661393 0
endloop
endfacet
facet normal -0.6278689539738739 0.77831907122706 0
outer loop
vertex 37.93344979210481 -111.5998313185669 1
vertex 38.31171532796414 -111.29468501661398 1
vertex 38.311715327964194 -111.29468501661393 0
endloop
endfacet
facet normal -0.6278689539738739 0.77831907122706 0
outer loop
vertex 37.93344979210481 -111.5998313185669 1
vertex 38.311715327964194 -111.29468501661393 0
vertex 37.933449792104824 -111.59983131856688 0
endloop
endfacet
facet normal -0.7453041425611115 0.6667246321242725 0
outer loop
vertex 37.60941950739955 -111.96205149443865 1
vertex 37.93344979210481 -111.5998313185669 1
vertex 37.933449792104824 -111.59983131856688 0
endloop
endfacet
facet normal -0.7453041425611115 0.6667246321242725 0
outer loop
vertex 37.60941950739955 -111.96205149443865 1
vertex 37.933449792104824 -111.59983131856688 0
vertex 37.60941950739958 -111.96205149443863 0
endloop
endfacet
facet normal -0.843179314070762 0.5376324435180222 0
outer loop
vertex 37.348128435574495 -112.37183931392481 1
vertex 37.60941950739955 -111.96205149443865 1
vertex 37.60941950739958 -111.96205149443863 0
endloop
endfacet
facet normal -0.843179314070762 0.5376324435180222 0
outer loop
vertex 37.348128435574495 -112.37183931392481 1
vertex 37.60941950739958 -111.96205149443863 0
vertex 37.34812843557445 -112.37183931392488 0
endloop
endfacet
facet normal -0.9189257989934183 0.3944304450017872 0
outer loop
vertex 37.15643398897343 -112.81844016519706 1
vertex 37.348128435574495 -112.37183931392481 1
vertex 37.34812843557445 -112.37183931392488 0
endloop
endfacet
facet normal -0.9189257989934183 0.3944304450017872 0
outer loop
vertex 37.15643398897343 -112.81844016519706 1
vertex 37.34812843557445 -112.37183931392488 0
vertex 37.15643398897345 -112.81844016519699 0
endloop
endfacet
facet normal -0.9705556806464555 0.24087687885078418 0
outer loop
vertex 37.039367062281016 -113.29013330261736 1
vertex 37.15643398897343 -112.81844016519706 1
vertex 37.15643398897345 -112.81844016519699 0
endloop
endfacet
facet normal -0.9705556806464555 0.24087687885078418 0
outer loop
vertex 37.039367062281016 -113.29013330261736 1
vertex 37.15643398897345 -112.81844016519699 0
vertex 37.039367062281016 -113.29013330261735 0
endloop
endfacet
facet normal -0.9967139593146139 0.08100174879214704 0
outer loop
vertex 37 -113.77453889999998 1
vertex 37.039367062281016 -113.29013330261736 1
vertex 37.039367062281016 -113.29013330261735 0
endloop
endfacet
facet normal -0.9967139593146139 0.08100174879214704 0
outer loop
vertex 37 -113.77453889999998 1
vertex 37.039367062281016 -113.29013330261735 0
vertex 37 -113.77453890000005 0
endloop
endfacet
facet normal -1 0 0
outer loop
vertex 37 -203.25326260000062 1
vertex 37 -203.1319632362624 1
vertex 37 -203.01270520000222 1
endloop
endfacet
facet normal -1 0 0
outer loop
vertex 37 -203.25326260000062 1
vertex 37 -203.01270520000222 1
vertex 37 -114.94583880000002 1
endloop
endfacet
facet normal -1 0 0
outer loop
vertex 37 -203.25326260000062 1
vertex 37 -114.94583880000002 1
vertex 37 -114.91896290181813 1
endloop
endfacet
facet normal -1 0 0
outer loop
vertex 37 -203.25326260000062 1
vertex 37 -114.91896290181813 1
vertex 37 -114.87249760000006 1
endloop
endfacet
facet normal -1 0 0
outer loop
vertex 37 -203.25326260000062 1
vertex 37 -114.87249760000006 1
vertex 37 -113.77453889999998 1
endloop
endfacet
facet normal -1 0 0
outer loop
vertex 37 -203.25326260000062 1
vertex 37 -113.77453889999998 1
vertex 37 -113.77453890000005 0
endloop
endfacet
facet normal -1 0 0
outer loop
vertex 37 -203.25326260000062 1
vertex 37 -113.77453890000005 0
vertex 37 -114.87249760000009 0
endloop
endfacet
facet normal -1 0 0
outer loop
vertex 37 -203.25326260000062 1
vertex 37 -114.87249760000009 0
vertex 37 -114.91896290181813 0
endloop
endfacet
facet normal -1 0 0
outer loop
vertex 37 -203.25326260000062 1
vertex 37 -114.91896290181813 0
vertex 37 -114.94583880000002 0
endloop
endfacet
facet normal -1 0 0
outer loop
vertex 37 -203.25326260000062 1
vertex 37 -114.94583880000002 0
vertex 37 -203.01270520000207 0
endloop
endfacet
facet normal -1 0 0
outer loop
vertex 37 -203.25326260000062 1
vertex 37 -203.01270520000207 0
vertex 37 -203.13196323626272 0
endloop
endfacet
facet normal -1 0 0
outer loop
vertex 37 -203.25326260000062 1
vertex 37 -203.13196323626272 0
vertex 37 -203.25326260000134 0
endloop
endfacet
facet normal -1 0 0
outer loop
vertex 37 -203.25326260000062 1
vertex 37 -203.25326260000134 0
vertex 37 -209.5 0
endloop
endfacet
facet normal -1 0 0
outer loop
vertex 37 -203.25326260000062 1
vertex 37 -209.5 0
vertex 37 -209.50000000000006 1
endloop
endfacet
endsolid csg.js
