solid csg.js
facet normal 0 0 -1
outer loop
vertex 321.4278529446768 -99.95528489700094 0
vertex 321.7338021832659 -99.99194046714437 0
vertex 322.0343751000005 -100.05978200000011 0
endloop
endfacet
facet normal 0 0 -1
outer loop
vertex 321.4278529446768 -99.95528489700094 0
vertex 322.0343751000005 -100.05978200000011 0
vertex 360.6461883999999 -110.88593944999995 0
endloop
endfacet
facet normal 0 0 -1
outer loop
vertex 321.4278529446768 -99.95528489700094 0
vertex 360.6461883999999 -110.88593944999995 0
vertex 361.1019796152469 -111.05462095259696 0
endloop
endfacet
facet normal 0 0 -1
outer loop
vertex 321.4278529446768 -99.95528489700094 0
vertex 361.1019796152469 -111.05462095259696 0
vertex 361.52455307203576 -111.29468501661393 0
endloop
endfacet
facet normal 0 0 -1
outer loop
vertex 321.4278529446768 -99.95528489700094 0
vertex 361.52455307203576 -111.29468501661393 0
vertex 361.90281860789537 -111.59983131856708 0
endloop
endfacet
facet normal 0 0 -1
outer loop
vertex 321.4278529446768 -99.95528489700094 0
vertex 361.90281860789537 -111.59983131856708 0
vertex 362.2268488926003 -111.9620514944385 0
endloop
endfacet
facet normal 0 0 -1
outer loop
vertex 321.4278529446768 -99.95528489700094 0
vertex 362.2268488926003 -111.9620514944385 0
vertex 362.4881399644255 -112.37183931392494 0
endloop
endfacet
facet normal 0 0 -1
outer loop
vertex 321.4278529446768 -99.95528489700094 0
vertex 362.4881399644255 -112.37183931392494 0
vertex 362.67983441102643 -112.81844016519678 0
endloop
endfacet
facet normal 0 0 -1
outer loop
vertex 321.4278529446768 -99.95528489700094 0
vertex 362.67983441102643 -112.81844016519678 0
vertex 362.7969013377189 -113.29013330261746 0
endloop
endfacet
facet normal 0 0 -1
outer loop
vertex 321.4278529446768 -99.95528489700094 0
vertex 362.7969013377189 -113.29013330261746 0
vertex 362.8362668 -113.77453890000034 0
endloop
endfacet
facet normal 0 0 -1
outer loop
vertex 321.4278529446768 -99.95528489700094 0
vertex 362.8362668 -113.77453890000034 0
vertex 362.83626681835176 -114.87249760000006 0
endloop
endfacet
facet normal 0 0 -1
outer loop
vertex 321.4278529446768 -99.95528489700094 0
vertex 362.83626681835176 -114.87249760000006 0
vertex 236.31568489999975 -114.87249760000006 0
endloop
endfacet
facet normal 0 0 -1
outer loop
vertex 321.4278529446768 -99.95528489700094 0
vertex 236.31568489999975 -114.87249760000006 0
vertex 295.3122115000002 -100.90978054999994 0
endloop
endfacet
facet normal 0 0 -1
outer loop
vertex 321.4278529446768 -99.95528489700094 0
vertex 295.3122115000002 -100.90978054999994 0
vertex 295.50574609716205 -100.87065356607987 0
endloop
endfacet
facet normal 0 0 -1
outer loop
vertex 321.4278529446768 -99.95528489700094 0
vertex 295.50574609716205 -100.87065356607987 0
vertex 295.7014353286509 -100.84434224059464 0
endloop
endfacet
facet normal 0 0 -1
outer loop
vertex 321.4278529446768 -99.95528489700094 0
vertex 295.7014353286509 -100.84434224059464 0
vertex 295.8984330000001 -100.83096109999998 0
endloop
endfacet
facet normal 0 0 -1
outer loop
vertex 321.4278529446768 -99.95528489700094 0
vertex 295.8984330000001 -100.83096109999998 0
vertex 321.11975754999986 -99.950206 0
endloop
endfacet
facet normal 0 0 -1
outer loop
vertex 362.83626681835176 -114.87249760000006 0
vertex 362.8362668191284 -114.91896290181813 0
vertex 236.07634874972894 -114.91896290181813 0
endloop
endfacet
facet normal 0 0 -1
outer loop
vertex 362.83626681835176 -114.87249760000006 0
vertex 236.07634874972894 -114.91896290181813 0
vertex 236.31568489999975 -114.87249760000006 0
endloop
endfacet
facet normal 0 0 -1
outer loop
vertex 362.8362668191284 -114.91896290181813 0
vertex 362.83626681957765 -114.94583880000002 0
vertex 235.8340274499998 -114.94583880000002 0
endloop
endfacet
facet normal 0 0 -1
outer loop
vertex 362.8362668191284 -114.91896290181813 0
vertex 235.8340274499998 -114.94583880000002 0
vertex 236.07634874972894 -114.91896290181813 0
endloop
endfacet
facet normal 0 0 -1
outer loop
vertex 362.83626681957765 -114.94583880000002 0
vertex 362.83626829156833 -203.01270520000082 0
vertex 232.02341350000037 -203.01270520000082 0
endloop
endfacet
facet normal 0 0 -1
outer loop
vertex 362.83626681957765 -114.94583880000002 0
vertex 232.02341350000037 -203.01270520000082 0
vertex 213.42442040000032 -161.1172272000007 0
endloop
endfacet
facet normal 0 0 -1
outer loop
vertex 362.83626681957765 -114.94583880000002 0
vertex 213.42442040000032 -161.1172272000007 0
vertex 213.3019671565722 -160.79170656100143 0
endloop
endfacet
facet normal 0 0 -1
outer loop
vertex 362.83626681957765 -114.94583880000002 0
vertex 213.3019671565722 -160.79170656100143 0
vertex 213.21801103787672 -160.4542012227122 0
endloop
endfacet
facet normal 0 0 -1
outer loop
vertex 362.83626681957765 -114.94583880000002 0
vertex 213.21801103787672 -160.4542012227122 0
vertex 213.17368080000003 -160.1092444000003 0
endloop
endfacet
facet normal 0 0 -1
outer loop
vertex 362.83626681957765 -114.94583880000002 0
vertex 213.17368080000003 -160.1092444000003 0
vertex 210.3504508 -119.73514805000015 0
endloop
endfacet
facet normal 0 0 -1
outer loop
vertex 362.83626681957765 -114.94583880000002 0
vertex 210.3504508 -119.73514805000015 0
vertex 210.35957745590042 -119.21229370840807 0
endloop
endfacet
facet normal 0 0 -1
outer loop
vertex 362.83626681957765 -114.94583880000002 0
vertex 210.35957745590042 -119.21229370840807 0
vertex 210.45935808094566 -118.69896751071803 0
endloop
endfacet
facet normal 0 0 -1
outer loop
vertex 362.83626681957765 -114.94583880000002 0
vertex 210.45935808094566 -118.69896751071803 0
vertex 210.6467608967389 -118.21076658589112 0
endloop
endfacet
facet normal 0 0 -1
outer loop
vertex 362.83626681957765 -114.94583880000002 0
vertex 210.6467608967389 -118.21076658589112 0
vertex 210.91609177370188 -117.76252464554685 0
endloop
endfacet
facet normal 0 0 -1
outer loop
vertex 362.83626681957765 -114.94583880000002 0
vertex 210.91609177370188 -117.76252464554685 0
vertex 211.25916724401242 -117.3678612699458 0
endloop
endfacet
facet normal 0 0 -1
outer loop
vertex 362.83626681957765 -114.94583880000002 0
vertex 211.25916724401242 -117.3678612699458 0
vertex 211.66556315168907 -117.03876808467308 0
endloop
endfacet
facet normal 0 0 -1
outer loop
vertex 362.83626681957765 -114.94583880000002 0
vertex 211.66556315168907 -117.03876808467308 0
vertex 212.1229313847326 -116.7852444018112 0
endloop
endfacet
facet normal 0 0 -1
outer loop
vertex 362.83626681957765 -114.94583880000002 0
vertex 212.1229313847326 -116.7852444018112 0
vertex 212.61737506559123 -116.61499339644459 0
endloop
endfacet
facet normal 0 0 -1
outer loop
vertex 362.83626681957765 -114.94583880000002 0
vertex 212.61737506559123 -116.61499339644459 0
vertex 213.1338716000003 -116.53318609999997 0
endloop
endfacet
facet normal 0 0 -1
outer loop
vertex 362.83626681957765 -114.94583880000002 0
vertex 213.1338716000003 -116.53318609999997 0
vertex 235.8340274499998 -114.94583880000002 0
endloop
endfacet
facet normal 0 0 -1
outer loop
vertex 362.83626829156833 -203.01270520000082 0
vertex 362.83626829356166 -203.1319632362621 0
vertex 232.07330890793355 -203.1319632362621 0
endloop
endfacet
facet normal 0 0 -1
outer loop
vertex 362.83626829156833 -203.01270520000082 0
vertex 232.07330890793355 -203.1319632362621 0
vertex 232.02341350000037 -203.01270520000082 0
endloop
endfacet
facet normal 0 0 -1
outer loop
vertex 362.83626829356166 -203.1319632362621 0
vertex 362.83626829558915 -203.25326260000205 0
vertex 232.11801675000072 -203.25326260000205 0
endloop
endfacet
facet normal 0 0 -1
outer loop
vertex 362.83626829356166 -203.1319632362621 0
vertex 232.11801675000072 -203.25326260000205 0
vertex 232.07330890793355 -203.1319632362621 0
endloop
endfacet
facet normal 0 0 -1
outer loop
vertex 362.83626829558915 -203.25326260000205 0
vertex 362.8362684 -209.49999999999994 0
vertex 362.79069165903667 -210.0209445330006 0
endloop
endfacet
facet normal 0 0 -1
outer loop
vertex 362.83626829558915 -203.25326260000205 0
vertex 362.79069165903667 -210.0209445330006 0
vertex 362.6553462623578 -210.5260604299769 0
endloop
endfacet
facet normal 0 0 -1
outer loop
vertex 362.83626829558915 -203.25326260000205 0
vertex 362.6553462623578 -210.5260604299769 0
vertex 362.43434461135354 -210.99999999999966 0
endloop
endfacet
facet normal 0 0 -1
outer loop
vertex 362.83626829558915 -203.25326260000205 0
vertex 362.43434461135354 -210.99999999999966 0
vertex 362.13440172935674 -211.42836282905978 0
endloop
endfacet
facet normal 0 0 -1
outer loop
vertex 362.83626829558915 -203.25326260000205 0
vertex 362.13440172935674 -211.42836282905978 0
vertex 361.7646312290597 -211.79813332935683 0
endloop
endfacet
facet normal 0 0 -1
outer loop
vertex 362.83626829558915 -203.25326260000205 0
vertex 361.7646312290597 -211.79813332935683 0
vertex 361.3362683999996 -212.09807621135357 0
endloop
endfacet
facet normal 0 0 -1
outer loop
vertex 362.83626829558915 -203.25326260000205 0
vertex 361.3362683999996 -212.09807621135357 0
vertex 361.2850402285796 -212.1219643 0
endloop
endfacet
facet normal 0 0 -1
outer loop
vertex 362.83626829558915 -203.25326260000205 0
vertex 361.2850402285796 -212.1219643 0
vertex 283.2763495500004 -212.1219643 0
endloop
endfacet
facet normal 0 0 -1
outer loop
vertex 362.83626829558915 -203.25326260000205 0
vertex 283.2763495500004 -212.1219643 0
vertex 235.17175770055266 -212.1219643 0
endloop
endfacet
facet normal 0 0 -1
outer loop
vertex 362.83626829558915 -203.25326260000205 0
vertex 235.17175770055266 -212.1219643 0
vertex 232.11801675000072 -203.25326260000205 0
endloop
endfacet
facet normal 0 0 -1
outer loop
vertex 283.2763495500004 -212.1219643 0
vertex 282.93827131008686 -212.1386713323703 0
vertex 235.17751039701682 -212.1386713323703 0
endloop
endfacet
facet normal 0 0 -1
outer loop
vertex 283.2763495500004 -212.1219643 0
vertex 235.17751039701682 -212.1386713323703 0
vertex 235.17175770055266 -212.1219643 0
endloop
endfacet
facet normal 0 0 -1
outer loop
vertex 282.93827131008686 -212.1386713323703 0
vertex 282.60422710802834 -212.19335672625363 0
vertex 235.19634010088416 -212.19335672625363 0
endloop
endfacet
facet normal 0 0 -1
outer loop
vertex 282.93827131008686 -212.1386713323703 0
vertex 235.19634010088416 -212.19335672625363 0
vertex 235.17751039701682 -212.1386713323703 0
endloop
endfacet
facet normal 0 0 -1
outer loop
vertex 282.60422710802834 -212.19335672625363 0
vertex 282.2784690999996 -212.28532860000013 0
vertex 235.22800857803665 -212.28532860000013 0
endloop
endfacet
facet normal 0 0 -1
outer loop
vertex 282.60422710802834 -212.19335672625363 0
vertex 235.22800857803665 -212.28532860000013 0
vertex 235.19634010088416 -212.19335672625363 0
endloop
endfacet
facet normal 0 0 -1
outer loop
vertex 361.2850402285796 -212.1219643 0
vertex 360.8623288299771 -212.31907786235772 0
vertex 360.3572129330008 -212.45442325903662 0
endloop
endfacet
facet normal 0 0 -1
outer loop
vertex 361.2850402285796 -212.1219643 0
vertex 360.3572129330008 -212.45442325903662 0
vertex 359.8362668000001 -212.5 0
endloop
endfacet
facet normal 0 0 -1
outer loop
vertex 361.2850402285796 -212.1219643 0
vertex 359.8362668000001 -212.5 0
vertex 336.84686174999166 -212.50000264999997 0
endloop
endfacet
facet normal 0 0 -1
outer loop
vertex 361.2850402285796 -212.1219643 0
vertex 336.84686174999166 -212.50000264999997 0
vertex 336.83627167939596 -212.49998134154154 0
endloop
endfacet
facet normal 0 0 -1
outer loop
vertex 361.2850402285796 -212.1219643 0
vertex 336.83627167939596 -212.49998134154154 0
vertex 336.8256834999936 -212.49992529999997 0
endloop
endfacet
facet normal 0 0 -1
outer loop
vertex 361.2850402285796 -212.1219643 0
vertex 336.8256834999936 -212.49992529999997 0
vertex 283.2763495500004 -212.1219643 0
endloop
endfacet
facet normal 0 0 -1
outer loop
vertex 282.2784690999996 -212.28532860000013 0
vertex 243.0516611999998 -225.79219505 0
vertex 242.5442610716405 -225.91870480922043 0
endloop
endfacet
facet normal 0 0 -1
outer loop
vertex 282.2784690999996 -212.28532860000013 0
vertex 242.5442610716405 -225.91870480922043 0
vertex 242.02260131196772 -225.95518363287687 0
endloop
endfacet
facet normal 0 0 -1
outer loop
vertex 282.2784690999996 -212.28532860000013 0
vertex 242.02260131196772 -225.95518363287687 0
vertex 241.50253224033037 -225.90052313376142 0
endloop
endfacet
facet normal 0 0 -1
outer loop
vertex 282.2784690999996 -212.28532860000013 0
vertex 241.50253224033037 -225.90052313376142 0
vertex 240.99985584397416 -225.75638413840088 0
endloop
endfacet
facet normal 0 0 -1
outer loop
vertex 282.2784690999996 -212.28532860000013 0
vertex 240.99985584397416 -225.75638413840088 0
vertex 240.52984564412353 -225.52714622383692 0
endloop
endfacet
facet normal 0 0 -1
outer loop
vertex 282.2784690999996 -212.28532860000013 0
vertex 240.52984564412353 -225.52714622383692 0
vertex 240.10678261918773 -225.21977464680123 0
endloop
endfacet
facet normal 0 0 -1
outer loop
vertex 282.2784690999996 -212.28532860000013 0
vertex 240.10678261918773 -225.21977464680123 0
vertex 239.7435212857852 -224.8436087085613 0
endloop
endfacet
facet normal 0 0 -1
outer loop
vertex 282.2784690999996 -212.28532860000013 0
vertex 239.7435212857852 -224.8436087085613 0
vertex 239.45109912195554 -224.41007798584562 0
endloop
endfacet
facet normal 0 0 -1
outer loop
vertex 282.2784690999996 -212.28532860000013 0
vertex 239.45109912195554 -224.41007798584562 0
vertex 239.23840240000018 -223.9323501000004 0
endloop
endfacet
facet normal 0 0 -1
outer loop
vertex 282.2784690999996 -212.28532860000013 0
vertex 239.23840240000018 -223.9323501000004 0
vertex 235.22800857803665 -212.28532860000013 0
endloop
endfacet
facet normal 0 0 1
outer loop
vertex 242.54426107164056 -225.91870480922046 1
vertex 243.0516611999991 -225.7921950500002 1
vertex 282.2784690999989 -212.28532860000033 1
endloop
endfacet
facet normal 0 0 1
outer loop
vertex 242.54426107164056 -225.91870480922046 1
vertex 282.2784690999989 -212.28532860000033 1
vertex 235.2280085780367 -212.28532860000033 1
endloop
endfacet
facet normal 0 0 1
outer loop
vertex 242.54426107164056 -225.91870480922046 1
vertex 235.2280085780367 -212.28532860000033 1
vertex 239.23840240000013 -223.93235010000026 1
endloop
endfacet
facet normal 0 0 1
outer loop
vertex 242.54426107164056 -225.91870480922046 1
vertex 239.23840240000013 -223.93235010000026 1
vertex 239.45109912195554 -224.4100779858456 1
endloop
endfacet
facet normal 0 0 1
outer loop
vertex 242.54426107164056 -225.91870480922046 1
vertex 239.45109912195554 -224.4100779858456 1
vertex 239.74352128578522 -224.8436087085613 1
endloop
endfacet
facet normal 0 0 1
outer loop
vertex 242.54426107164056 -225.91870480922046 1
vertex 239.74352128578522 -224.8436087085613 1
vertex 240.10678261918787 -225.2197746468013 1
endloop
endfacet
facet normal 0 0 1
outer loop
vertex 242.54426107164056 -225.91870480922046 1
vertex 240.10678261918787 -225.2197746468013 1
vertex 240.5298456441235 -225.5271462238369 1
endloop
endfacet
facet normal 0 0 1
outer loop
vertex 242.54426107164056 -225.91870480922046 1
vertex 240.5298456441235 -225.5271462238369 1
vertex 240.99985584397427 -225.75638413840093 1
endloop
endfacet
facet normal 0 0 1
outer loop
vertex 242.54426107164056 -225.91870480922046 1
vertex 240.99985584397427 -225.75638413840093 1
vertex 241.50253224033037 -225.90052313376145 1
endloop
endfacet
facet normal 0 0 1
outer loop
vertex 242.54426107164056 -225.91870480922046 1
vertex 241.50253224033037 -225.90052313376145 1
vertex 242.02260131196778 -225.95518363287687 1
endloop
endfacet
facet normal 0 0 1
outer loop
vertex 282.2784690999989 -212.28532860000033 1
vertex 282.6042271080282 -212.19335672625365 1
vertex 235.19634010088416 -212.19335672625365 1
endloop
endfacet
facet normal 0 0 1
outer loop
vertex 282.2784690999989 -212.28532860000033 1
vertex 235.19634010088416 -212.19335672625365 1
vertex 235.2280085780367 -212.28532860000033 1
endloop
endfacet
facet normal 0 0 1
outer loop
vertex 282.6042271080282 -212.19335672625365 1
vertex 282.9382713100872 -212.13867133237025 1
vertex 235.17751039701682 -212.13867133237025 1
endloop
endfacet
facet normal 0 0 1
outer loop
vertex 282.6042271080282 -212.19335672625365 1
vertex 235.17751039701682 -212.13867133237025 1
vertex 235.19634010088416 -212.19335672625365 1
endloop
endfacet
facet normal 0 0 1
outer loop
vertex 282.9382713100872 -212.13867133237025 1
vertex 283.276349549999 -212.12196430000003 1
vertex 235.17175770055266 -212.12196430000003 1
endloop
endfacet
facet normal 0 0 1
outer loop
vertex 282.9382713100872 -212.13867133237025 1
vertex 235.17175770055266 -212.12196430000003 1
vertex 235.17751039701682 -212.13867133237025 1
endloop
endfacet
facet normal 0 0 1
outer loop
vertex 359.83626680000026 -212.5 1
vertex 360.3572129330009 -212.45442325903662 1
vertex 360.86232882997683 -212.31907786235777 1
endloop
endfacet
facet normal 0 0 1
outer loop
vertex 359.83626680000026 -212.5 1
vertex 360.86232882997683 -212.31907786235777 1
vertex 361.2850402285793 -212.12196430000003 1
endloop
endfacet
facet normal 0 0 1
outer loop
vertex 359.83626680000026 -212.5 1
vertex 361.2850402285793 -212.12196430000003 1
vertex 283.276349549999 -212.12196430000003 1
endloop
endfacet
facet normal 0 0 1
outer loop
vertex 359.83626680000026 -212.5 1
vertex 283.276349549999 -212.12196430000003 1
vertex 336.82568349998166 -212.4999252999999 1
endloop
endfacet
facet normal 0 0 1
outer loop
vertex 359.83626680000026 -212.5 1
vertex 336.82568349998166 -212.4999252999999 1
vertex 336.8362716794101 -212.49998134154157 1
endloop
endfacet
facet normal 0 0 1
outer loop
vertex 359.83626680000026 -212.5 1
vertex 336.8362716794101 -212.49998134154157 1
vertex 336.84686174999746 -212.50000264999997 1
endloop
endfacet
facet normal 0 0 1
outer loop
vertex 283.276349549999 -212.12196430000003 1
vertex 361.2850402285793 -212.12196430000003 1
vertex 361.33626839999977 -212.0980762113534 1
endloop
endfacet
facet normal 0 0 1
outer loop
vertex 283.276349549999 -212.12196430000003 1
vertex 361.33626839999977 -212.0980762113534 1
vertex 361.76463122905994 -211.79813332935666 1
endloop
endfacet
facet normal 0 0 1
outer loop
vertex 283.276349549999 -212.12196430000003 1
vertex 361.76463122905994 -211.79813332935666 1
vertex 362.13440172935674 -211.42836282905984 1
endloop
endfacet
facet normal 0 0 1
outer loop
vertex 283.276349549999 -212.12196430000003 1
vertex 362.13440172935674 -211.42836282905984 1
vertex 362.4343446113533 -210.99999999999991 1
endloop
endfacet
facet normal 0 0 1
outer loop
vertex 283.276349549999 -212.12196430000003 1
vertex 362.4343446113533 -210.99999999999991 1
vertex 362.6553462623578 -210.52606042997687 1
endloop
endfacet
facet normal 0 0 1
outer loop
vertex 283.276349549999 -212.12196430000003 1
vertex 362.6553462623578 -210.52606042997687 1
vertex 362.7906916590366 -210.02094453300097 1
endloop
endfacet
facet normal 0 0 1
outer loop
vertex 283.276349549999 -212.12196430000003 1
vertex 362.7906916590366 -210.02094453300097 1
vertex 362.8362684 -209.50000000000074 1
endloop
endfacet
facet normal 0 0 1
outer loop
vertex 283.276349549999 -212.12196430000003 1
vertex 362.8362684 -209.50000000000074 1
vertex 362.83626829558915 -203.2532626000012 1
endloop
endfacet
facet normal 0 0 1
outer loop
vertex 283.276349549999 -212.12196430000003 1
vertex 362.83626829558915 -203.2532626000012 1
vertex 232.11801675000046 -203.2532626000012 1
endloop
endfacet
facet normal 0 0 1
outer loop
vertex 283.276349549999 -212.12196430000003 1
vertex 232.11801675000046 -203.2532626000012 1
vertex 235.17175770055266 -212.12196430000003 1
endloop
endfacet
facet normal 0 0 1
outer loop
vertex 362.83626829558915 -203.2532626000012 1
vertex 362.83626829356166 -203.1319632362634 1
vertex 232.07330890793406 -203.1319632362634 1
endloop
endfacet
facet normal 0 0 1
outer loop
vertex 362.83626829558915 -203.2532626000012 1
vertex 232.07330890793406 -203.1319632362634 1
vertex 232.11801675000046 -203.2532626000012 1
endloop
endfacet
facet normal 0 0 1
outer loop
vertex 362.83626829356166 -203.1319632362634 1
vertex 362.83626829156833 -203.0127052000005 1
vertex 232.0234135000002 -203.0127052000005 1
endloop
endfacet
facet normal 0 0 1
outer loop
vertex 362.83626829356166 -203.1319632362634 1
vertex 232.0234135000002 -203.0127052000005 1
vertex 232.07330890793406 -203.1319632362634 1
endloop
endfacet
facet normal 0 0 1
outer loop
vertex 362.83626829156833 -203.0127052000005 1
vertex 362.83626681957765 -114.94583879999998 1
vertex 235.83402745000046 -114.94583879999998 1
endloop
endfacet
facet normal 0 0 1
outer loop
vertex 362.83626829156833 -203.0127052000005 1
vertex 235.83402745000046 -114.94583879999998 1
vertex 213.13387160000016 -116.53318609999998 1
endloop
endfacet
facet normal 0 0 1
outer loop
vertex 362.83626829156833 -203.0127052000005 1
vertex 213.13387160000016 -116.53318609999998 1
vertex 212.61737506559126 -116.61499339644458 1
endloop
endfacet
facet normal 0 0 1
outer loop
vertex 362.83626829156833 -203.0127052000005 1
vertex 212.61737506559126 -116.61499339644458 1
vertex 212.12293138473265 -116.78524440181118 1
endloop
endfacet
facet normal 0 0 1
outer loop
vertex 362.83626829156833 -203.0127052000005 1
vertex 212.12293138473265 -116.78524440181118 1
vertex 211.6655631516889 -117.03876808467318 1
endloop
endfacet
facet normal 0 0 1
outer loop
vertex 362.83626829156833 -203.0127052000005 1
vertex 211.6655631516889 -117.03876808467318 1
vertex 211.25916724401256 -117.36786126994565 1
endloop
endfacet
facet normal 0 0 1
outer loop
vertex 362.83626829156833 -203.0127052000005 1
vertex 211.25916724401256 -117.36786126994565 1
vertex 210.91609177370208 -117.7625246455466 1
endloop
endfacet
facet normal 0 0 1
outer loop
vertex 362.83626829156833 -203.0127052000005 1
vertex 210.91609177370208 -117.7625246455466 1
vertex 210.64676089673893 -118.2107665858911 1
endloop
endfacet
facet normal 0 0 1
outer loop
vertex 362.83626829156833 -203.0127052000005 1
vertex 210.64676089673893 -118.2107665858911 1
vertex 210.45935808094563 -118.69896751071815 1
endloop
endfacet
facet normal 0 0 1
outer loop
vertex 362.83626829156833 -203.0127052000005 1
vertex 210.45935808094563 -118.69896751071815 1
vertex 210.3595774559004 -119.21229370840815 1
endloop
endfacet
facet normal 0 0 1
outer loop
vertex 362.83626829156833 -203.0127052000005 1
vertex 210.3595774559004 -119.21229370840815 1
vertex 210.35045080000003 -119.73514805000015 1
endloop
endfacet
facet normal 0 0 1
outer loop
vertex 362.83626829156833 -203.0127052000005 1
vertex 210.35045080000003 -119.73514805000015 1
vertex 213.1736808 -160.1092443999998 1
endloop
endfacet
facet normal 0 0 1
outer loop
vertex 362.83626829156833 -203.0127052000005 1
vertex 213.1736808 -160.1092443999998 1
vertex 213.21801103787678 -160.45420122271244 1
endloop
endfacet
facet normal 0 0 1
outer loop
vertex 362.83626829156833 -203.0127052000005 1
vertex 213.21801103787678 -160.45420122271244 1
vertex 213.30196715657218 -160.79170656100146 1
endloop
endfacet
facet normal 0 0 1
outer loop
vertex 362.83626829156833 -203.0127052000005 1
vertex 213.30196715657218 -160.79170656100146 1
vertex 213.42442040000003 -161.11722720000012 1
endloop
endfacet
facet normal 0 0 1
outer loop
vertex 362.83626829156833 -203.0127052000005 1
vertex 213.42442040000003 -161.11722720000012 1
vertex 232.0234135000002 -203.0127052000005 1
endloop
endfacet
facet normal 0 0 1
outer loop
vertex 362.83626681957765 -114.94583879999998 1
vertex 362.8362668191284 -114.91896290181818 1
vertex 236.07634874972877 -114.91896290181818 1
endloop
endfacet
facet normal 0 0 1
outer loop
vertex 362.83626681957765 -114.94583879999998 1
vertex 236.07634874972877 -114.91896290181818 1
vertex 235.83402745000046 -114.94583879999998 1
endloop
endfacet
facet normal 0 0 1
outer loop
vertex 362.8362668191284 -114.91896290181818 1
vertex 362.83626681835176 -114.87249760000013 1
vertex 236.31568489999944 -114.87249760000013 1
endloop
endfacet
facet normal 0 0 1
outer loop
vertex 362.8362668191284 -114.91896290181818 1
vertex 236.31568489999944 -114.87249760000013 1
vertex 236.07634874972877 -114.91896290181818 1
endloop
endfacet
facet normal 0 0 1
outer loop
vertex 362.83626681835176 -114.87249760000013 1
vertex 362.8362668 -113.77453889999936 1
vertex 362.796901337719 -113.29013330261786 1
endloop
endfacet
facet normal 0 0 1
outer loop
vertex 362.83626681835176 -114.87249760000013 1
vertex 362.796901337719 -113.29013330261786 1
vertex 362.67983441102643 -112.81844016519682 1
endloop
endfacet
facet normal 0 0 1
outer loop
vertex 362.83626681835176 -114.87249760000013 1
vertex 362.67983441102643 -112.81844016519682 1
vertex 362.4881399644254 -112.37183931392465 1
endloop
endfacet
facet normal 0 0 1
outer loop
vertex 362.83626681835176 -114.87249760000013 1
vertex 362.4881399644254 -112.37183931392465 1
vertex 362.2268488926006 -111.96205149443888 1
endloop
endfacet
facet normal 0 0 1
outer loop
vertex 362.83626681835176 -114.87249760000013 1
vertex 362.2268488926006 -111.96205149443888 1
vertex 361.9028186078952 -111.59983131856697 1
endloop
endfacet
facet normal 0 0 1
outer loop
vertex 362.83626681835176 -114.87249760000013 1
vertex 361.9028186078952 -111.59983131856697 1
vertex 361.52455307203564 -111.29468501661385 1
endloop
endfacet
facet normal 0 0 1
outer loop
vertex 362.83626681835176 -114.87249760000013 1
vertex 361.52455307203564 -111.29468501661385 1
vertex 361.10197961524693 -111.05462095259699 1
endloop
endfacet
facet normal 0 0 1
outer loop
vertex 362.83626681835176 -114.87249760000013 1
vertex 361.10197961524693 -111.05462095259699 1
vertex 360.64618839999974 -110.8859394499999 1
endloop
endfacet
facet normal 0 0 1
outer loop
vertex 362.83626681835176 -114.87249760000013 1
vertex 360.64618839999974 -110.8859394499999 1
vertex 322.03437510000015 -100.05978200000004 1
endloop
endfacet
facet normal 0 0 1
outer loop
vertex 362.83626681835176 -114.87249760000013 1
vertex 322.03437510000015 -100.05978200000004 1
vertex 321.73380218326594 -99.99194046714439 1
endloop
endfacet
facet normal 0 0 1
outer loop
vertex 362.83626681835176 -114.87249760000013 1
vertex 321.73380218326594 -99.99194046714439 1
vertex 321.4278529446767 -99.95528489700094 1
endloop
endfacet
facet normal 0 0 1
outer loop
vertex 362.83626681835176 -114.87249760000013 1
vertex 321.4278529446767 -99.95528489700094 1
vertex 321.11975755 -99.950206 1
endloop
endfacet
facet normal 0 0 1
outer loop
vertex 362.83626681835176 -114.87249760000013 1
vertex 321.11975755 -99.950206 1
vertex 295.8984329999997 -100.83096110000001 1
endloop
endfacet
facet normal 0 0 1
outer loop
vertex 362.83626681835176 -114.87249760000013 1
vertex 295.8984329999997 -100.83096110000001 1
vertex 295.70143532865075 -100.84434224059466 1
endloop
endfacet
facet normal 0 0 1
outer loop
vertex 362.83626681835176 -114.87249760000013 1
vertex 295.70143532865075 -100.84434224059466 1
vertex 295.5057460971618 -100.8706535660799 1
endloop
endfacet
facet normal 0 0 1
outer loop
vertex 362.83626681835176 -114.87249760000013 1
vertex 295.5057460971618 -100.8706535660799 1
vertex 295.31221150000056 -100.90978054999985 1
endloop
endfacet
facet normal 0 0 1
outer loop
vertex 362.83626681835176 -114.87249760000013 1
vertex 295.31221150000056 -100.90978054999985 1
vertex 236.31568489999944 -114.87249760000013 1
endloop
endfacet
facet normal 0 0 1
outer loop
vertex 362.8362668 -113.77453889999936 1
vertex 362.83626681835176 -114.87249760000013 1
vertex 362.8362668191284 -114.91896290181818 1
endloop
endfacet
facet normal 0 0 1
outer loop
vertex 362.8362668 -113.77453889999936 1
vertex 362.8362668191284 -114.91896290181818 1
vertex 362.83626681957765 -114.94583879999998 1
endloop
endfacet
facet normal 0 0 1
outer loop
vertex 362.8362668 -113.77453889999936 1
vertex 362.83626681957765 -114.94583879999998 1
vertex 362.83626829156833 -203.0127052000005 1
endloop
endfacet
facet normal 0 0 1
outer loop
vertex 362.8362668 -113.77453889999936 1
vertex 362.83626829156833 -203.0127052000005 1
vertex 362.83626829356166 -203.1319632362634 1
endloop
endfacet
facet normal 0 0 1
outer loop
vertex 362.8362668 -113.77453889999936 1
vertex 362.83626829356166 -203.1319632362634 1
vertex 362.83626829558915 -203.2532626000012 1
endloop
endfacet
facet normal 0 0 1
outer loop
vertex 362.8362668 -113.77453889999936 1
vertex 362.83626829558915 -203.2532626000012 1
vertex 362.8362684 -209.50000000000074 1
endloop
endfacet
facet normal 0 0 1
outer loop
vertex 362.8362668 -113.77453889999936 1
vertex 362.8362684 -209.50000000000074 1
vertex 362.8362684 -209.49999999999994 0
endloop
endfacet
facet normal 0 0 1
outer loop
vertex 362.8362668 -113.77453889999936 1
vertex 362.8362684 -209.49999999999994 0
vertex 362.83626829558915 -203.25326260000205 0
endloop
endfacet
facet normal 0 0 1
outer loop
vertex 362.8362668 -113.77453889999936 1
vertex 362.83626829558915 -203.25326260000205 0
vertex 362.83626829356166 -203.1319632362621 0
endloop
endfacet
facet normal 0 0 1
outer loop
vertex 362.8362668 -113.77453889999936 1
vertex 362.83626829356166 -203.1319632362621 0
vertex 362.83626829156833 -203.01270520000082 0
endloop
endfacet
facet normal 0 0 1
outer loop
vertex 362.8362668 -113.77453889999936 1
vertex 362.83626829156833 -203.01270520000082 0
vertex 362.83626681957765 -114.94583880000002 0
endloop
endfacet
facet normal 0 0 1
outer loop
vertex 362.8362668 -113.77453889999936 1
vertex 362.83626681957765 -114.94583880000002 0
vertex 362.8362668191284 -114.91896290181813 0
endloop
endfacet
facet normal 0 0 1
outer loop
vertex 362.8362668 -113.77453889999936 1
vertex 362.8362668191284 -114.91896290181813 0
vertex 362.83626681835176 -114.87249760000006 0
endloop
endfacet
facet normal 0 0 1
outer loop
vertex 362.8362668 -113.77453889999936 1
vertex 362.83626681835176 -114.87249760000006 0
vertex 362.8362668 -113.77453890000034 0
endloop
endfacet
facet normal 0.9967142251040016 0.08099847822848016 0
outer loop
vertex 362.796901337719 -113.29013330261786 1
vertex 362.8362668 -113.77453889999936 1
vertex 362.8362668 -113.77453890000034 0
endloop
endfacet
facet normal 0.9967142251040016 0.08099847822848016 0
outer loop
vertex 362.796901337719 -113.29013330261786 1
vertex 362.8362668 -113.77453890000034 0
vertex 362.7969013377189 -113.29013330261746 0
endloop
endfacet
facet normal 0.9705556806464448 0.2408768788508277 0
outer loop
vertex 362.67983441102643 -112.81844016519682 1
vertex 362.796901337719 -113.29013330261786 1
vertex 362.7969013377189 -113.29013330261746 0
endloop
endfacet
facet normal 0.9705556806464448 0.2408768788508277 0
outer loop
vertex 362.67983441102643 -112.81844016519682 1
vertex 362.7969013377189 -113.29013330261746 0
vertex 362.67983441102643 -112.81844016519678 0
endloop
endfacet
facet normal 0.9189257989933995 0.3944304450018309 0
outer loop
vertex 362.4881399644254 -112.37183931392465 1
vertex 362.67983441102643 -112.81844016519682 1
vertex 362.67983441102643 -112.81844016519678 0
endloop
endfacet
facet normal 0.9189257989933995 0.3944304450018309 0
outer loop
vertex 362.4881399644254 -112.37183931392465 1
vertex 362.67983441102643 -112.81844016519678 0
vertex 362.4881399644255 -112.37183931392494 0
endloop
endfacet
facet normal 0.843179314070798 0.5376324435179658 0
outer loop
vertex 362.2268488926006 -111.96205149443888 1
vertex 362.4881399644254 -112.37183931392465 1
vertex 362.4881399644255 -112.37183931392494 0
endloop
endfacet
facet normal 0.843179314070798 0.5376324435179658 0
outer loop
vertex 362.2268488926006 -111.96205149443888 1
vertex 362.4881399644255 -112.37183931392494 0
vertex 362.2268488926003 -111.9620514944385 0
endloop
endfacet
facet normal 0.7453041425611115 0.6667246321242725 0
outer loop
vertex 361.9028186078952 -111.59983131856697 1
vertex 362.2268488926006 -111.96205149443888 1
vertex 362.2268488926003 -111.9620514944385 0
endloop
endfacet
facet normal 0.7453041425611115 0.6667246321242725 0
outer loop
vertex 361.9028186078952 -111.59983131856697 1
vertex 362.2268488926003 -111.9620514944385 0
vertex 361.90281860789537 -111.59983131856708 0
endloop
endfacet
facet normal 0.6278689539739136 0.778319071227028 0
outer loop
vertex 361.52455307203564 -111.29468501661385 1
vertex 361.9028186078952 -111.59983131856697 1
vertex 361.90281860789537 -111.59983131856708 0
endloop
endfacet
facet normal 0.6278689539739136 0.778319071227028 0
outer loop
vertex 361.52455307203564 -111.29468501661385 1
vertex 361.90281860789537 -111.59983131856708 0
vertex 361.52455307203576 -111.29468501661393 0
endloop
endfacet
facet normal 0.49395575760306076 0.869487038161459 0
outer loop
vertex 361.10197961524693 -111.05462095259699 1
vertex 361.52455307203564 -111.29468501661385 1
vertex 361.52455307203576 -111.29468501661393 0
endloop
endfacet
facet normal 0.49395575760306076 0.869487038161459 0
outer loop
vertex 361.10197961524693 -111.05462095259699 1
vertex 361.52455307203576 -111.29468501661393 0
vertex 361.1019796152469 -111.05462095259696 0
endloop
endfacet
facet normal 0.34707901722049783 0.9378358895911658 0
outer loop
vertex 360.64618839999974 -110.8859394499999 1
vertex 361.10197961524693 -111.05462095259699 1
vertex 361.1019796152469 -111.05462095259696 0
endloop
endfacet
facet normal 0.34707901722049783 0.9378358895911658 0
outer loop
vertex 360.64618839999974 -110.8859394499999 1
vertex 361.1019796152469 -111.05462095259696 0
vertex 360.6461883999999 -110.88593944999995 0
endloop
endfacet
facet normal 0.26997329631137745 0.9628678098673615 0
outer loop
vertex 322.03437510000015 -100.05978200000004 1
vertex 360.64618839999974 -110.8859394499999 1
vertex 360.6461883999999 -110.88593944999995 0
endloop
endfacet
facet normal 0.26997329631137745 0.9628678098673615 0
outer loop
vertex 322.03437510000015 -100.05978200000004 1
vertex 360.6461883999999 -110.88593944999995 0
vertex 322.0343751000005 -100.05978200000011 0
endloop
endfacet
facet normal 0.22016894099513717 0.9754617560012693 0
outer loop
vertex 321.73380218326594 -99.99194046714439 1
vertex 322.03437510000015 -100.05978200000004 1
vertex 322.0343751000005 -100.05978200000011 0
endloop
endfacet
facet normal 0.22016894099513717 0.9754617560012693 0
outer loop
vertex 321.73380218326594 -99.99194046714439 1
vertex 322.0343751000005 -100.05978200000011 0
vertex 321.7338021832659 -99.99194046714437 0
endloop
endfacet
facet normal 0.11895857980741907 0.9928992175896817 0
outer loop
vertex 321.4278529446767 -99.95528489700094 1
vertex 321.73380218326594 -99.99194046714439 1
vertex 321.7338021832659 -99.99194046714437 0
endloop
endfacet
facet normal 0.11895857980741907 0.9928992175896817 0
outer loop
vertex 321.4278529446767 -99.95528489700094 1
vertex 321.7338021832659 -99.99194046714437 0
vertex 321.4278529446768 -99.95528489700094 0
endloop
endfacet
facet normal 0.016482580187840767 0.9998641530479786 0
outer loop
vertex 321.11975755 -99.950206 1
vertex 321.4278529446767 -99.95528489700094 1
vertex 321.4278529446768 -99.95528489700094 0
endloop
endfacet
facet normal 0.016482580187840767 0.9998641530479786 0
outer loop
vertex 321.11975755 -99.950206 1
vertex 321.4278529446768 -99.95528489700094 0
vertex 321.11975754999986 -99.950206 0
endloop
endfacet
facet normal -0.034899775286461945 0.9993908172906906 0
outer loop
vertex 295.8984329999997 -100.83096110000001 1
vertex 321.11975755 -99.950206 1
vertex 321.11975754999986 -99.950206 0
endloop
endfacet
facet normal -0.034899775286461945 0.9993908172906906 0
outer loop
vertex 295.8984329999997 -100.83096110000001 1
vertex 321.11975754999986 -99.950206 0
vertex 295.8984330000001 -100.83096109999998 0
endloop
endfacet
facet normal -0.0677692156609595 0.9977010240591611 0
outer loop
vertex 295.70143532865075 -100.84434224059466 1
vertex 295.8984329999997 -100.83096110000001 1
vertex 295.8984330000001 -100.83096109999998 0
endloop
endfacet
facet normal -0.0677692156609595 0.9977010240591611 0
outer loop
vertex 295.70143532865075 -100.84434224059466 1
vertex 295.8984330000001 -100.83096109999998 0
vertex 295.7014353286509 -100.84434224059464 0
endloop
endfacet
facet normal -0.13325553652938998 0.9910817130712606 0
outer loop
vertex 295.5057460971618 -100.8706535660799 1
vertex 295.70143532865075 -100.84434224059466 1
vertex 295.7014353286509 -100.84434224059464 0
endloop
endfacet
facet normal -0.13325553652938998 0.9910817130712606 0
outer loop
vertex 295.5057460971618 -100.8706535660799 1
vertex 295.7014353286509 -100.84434224059464 0
vertex 295.50574609716205 -100.87065356607987 0
endloop
endfacet
facet normal -0.19816132934801126 0.980169417779921 0
outer loop
vertex 295.31221150000056 -100.90978054999985 1
vertex 295.5057460971618 -100.8706535660799 1
vertex 295.50574609716205 -100.87065356607987 0
endloop
endfacet
facet normal -0.19816132934801126 0.980169417779921 0
outer loop
vertex 295.31221150000056 -100.90978054999985 1
vertex 295.50574609716205 -100.87065356607987 0
vertex 295.3122115000002 -100.90978054999994 0
endloop
endfacet
facet normal -0.2303079398396056 0.9731178000873464 0
outer loop
vertex 236.31568489999944 -114.87249760000013 1
vertex 295.31221150000056 -100.90978054999985 1
vertex 295.3122115000002 -100.90978054999994 0
endloop
endfacet
facet normal -0.2303079398396056 0.9731178000873464 0
outer loop
vertex 236.31568489999944 -114.87249760000013 1
vertex 295.3122115000002 -100.90978054999994 0
vertex 236.31568489999975 -114.87249760000006 0
endloop
endfacet
facet normal -0.19058397338451996 0.9816708965274302 0
outer loop
vertex 236.07634874972877 -114.91896290181818 1
vertex 236.31568489999944 -114.87249760000013 1
vertex 236.31568489999975 -114.87249760000006 0
endloop
endfacet
facet normal -0.19058397338451996 0.9816708965274302 0
outer loop
vertex 236.07634874972877 -114.91896290181818 1
vertex 236.31568489999975 -114.87249760000006 0
vertex 236.07634874972894 -114.91896290181813 0
endloop
endfacet
facet normal -0.11023424958557364 0.9939056344635067 0
outer loop
vertex 235.83402745000046 -114.94583879999998 1
vertex 236.07634874972877 -114.91896290181818 1
vertex 236.07634874972894 -114.91896290181813 0
endloop
endfacet
facet normal -0.11023424958557364 0.9939056344635067 0
outer loop
vertex 235.83402745000046 -114.94583879999998 1
vertex 236.07634874972894 -114.91896290181813 0
vertex 235.8340274499998 -114.94583880000002 0
endloop
endfacet
facet normal -0.06975637625754415 0.9975640570767454 0
outer loop
vertex 213.13387160000016 -116.53318609999998 1
vertex 235.83402745000046 -114.94583879999998 1
vertex 235.8340274499998 -114.94583880000002 0
endloop
endfacet
facet normal -0.06975637625754415 0.9975640570767454 0
outer loop
vertex 213.13387160000016 -116.53318609999998 1
vertex 235.8340274499998 -114.94583880000002 0
vertex 213.1338716000003 -116.53318609999997 0
endloop
endfacet
facet normal -0.15643872191569105 0.987687666362897 0
outer loop
vertex 212.61737506559126 -116.61499339644458 1
vertex 213.13387160000016 -116.53318609999998 1
vertex 213.1338716000003 -116.53318609999997 0
endloop
endfacet
facet normal -0.15643872191569105 0.987687666362897 0
outer loop
vertex 212.61737506559126 -116.61499339644458 1
vertex 213.1338716000003 -116.53318609999997 0
vertex 212.61737506559123 -116.61499339644459 0
endloop
endfacet
facet normal -0.3255688260379946 0.945518344355223 0
outer loop
vertex 212.12293138473265 -116.78524440181118 1
vertex 212.61737506559126 -116.61499339644458 1
vertex 212.61737506559123 -116.61499339644459 0
endloop
endfacet
facet normal -0.3255688260379946 0.945518344355223 0
outer loop
vertex 212.12293138473265 -116.78524440181118 1
vertex 212.61737506559123 -116.61499339644459 0
vertex 212.1229313847326 -116.7852444018112 0
endloop
endfacet
facet normal -0.4848101050825209 0.874619438390135 0
outer loop
vertex 211.6655631516889 -117.03876808467318 1
vertex 212.12293138473265 -116.78524440181118 1
vertex 212.1229313847326 -116.7852444018112 0
endloop
endfacet
facet normal -0.4848101050825209 0.874619438390135 0
outer loop
vertex 211.6655631516889 -117.03876808467318 1
vertex 212.1229313847326 -116.7852444018112 0
vertex 211.66556315168907 -117.03876808467308 0
endloop
endfacet
facet normal -0.6293207006657724 0.7771457107348283 0
outer loop
vertex 211.25916724401256 -117.36786126994565 1
vertex 211.6655631516889 -117.03876808467318 1
vertex 211.66556315168907 -117.03876808467308 0
endloop
endfacet
facet normal -0.6293207006657724 0.7771457107348283 0
outer loop
vertex 211.25916724401256 -117.36786126994565 1
vertex 211.66556315168907 -117.03876808467308 0
vertex 211.25916724401242 -117.3678612699458 0
endloop
endfacet
facet normal -0.7547097392927767 0.6560588460013546 0
outer loop
vertex 210.91609177370208 -117.7625246455466 1
vertex 211.25916724401256 -117.36786126994565 1
vertex 211.25916724401242 -117.3678612699458 0
endloop
endfacet
facet normal -0.7547097392927767 0.6560588460013546 0
outer loop
vertex 210.91609177370208 -117.7625246455466 1
vertex 211.25916724401242 -117.3678612699458 0
vertex 210.91609177370188 -117.76252464554685 0
endloop
endfacet
facet normal -0.8571673452656541 0.5150380007438587 0
outer loop
vertex 210.64676089673893 -118.2107665858911 1
vertex 210.91609177370208 -117.7625246455466 1
vertex 210.91609177370188 -117.76252464554685 0
endloop
endfacet
facet normal -0.8571673452656541 0.5150380007438587 0
outer loop
vertex 210.64676089673893 -118.2107665858911 1
vertex 210.91609177370188 -117.76252464554685 0
vertex 210.6467608967389 -118.21076658589112 0
endloop
endfacet
facet normal -0.9335804016216206 0.35836801434839827 0
outer loop
vertex 210.45935808094563 -118.69896751071815 1
vertex 210.64676089673893 -118.2107665858911 1
vertex 210.6467608967389 -118.21076658589112 0
endloop
endfacet
facet normal -0.9335804016216206 0.35836801434839827 0
outer loop
vertex 210.45935808094563 -118.69896751071815 1
vertex 210.6467608967389 -118.21076658589112 0
vertex 210.45935808094566 -118.69896751071803 0
endloop
endfacet
facet normal -0.9816271404484909 0.1908092165879799 0
outer loop
vertex 210.3595774559004 -119.21229370840815 1
vertex 210.45935808094563 -118.69896751071815 1
vertex 210.45935808094566 -118.69896751071803 0
endloop
endfacet
facet normal -0.9816271404484909 0.1908092165879799 0
outer loop
vertex 210.3595774559004 -119.21229370840815 1
vertex 210.45935808094566 -118.69896751071803 0
vertex 210.35957745590042 -119.21229370840807 0
endloop
endfacet
facet normal -0.9998476885018894 0.017452787669270723 0
outer loop
vertex 210.35045080000003 -119.73514805000015 1
vertex 210.3595774559004 -119.21229370840815 1
vertex 210.35957745590042 -119.21229370840807 0
endloop
endfacet
facet normal -0.9998476885018894 0.017452787669270723 0
outer loop
vertex 210.35045080000003 -119.73514805000015 1
vertex 210.35957745590042 -119.21229370840807 0
vertex 210.3504508 -119.73514805000015 0
endloop
endfacet
facet normal -0.9975640534283269 -0.069756428432413 0
outer loop
vertex 213.1736808 -160.1092443999998 1
vertex 210.35045080000003 -119.73514805000015 1
vertex 210.3504508 -119.73514805000015 0
endloop
endfacet
facet normal -0.9975640534283269 -0.069756428432413 0
outer loop
vertex 213.1736808 -160.1092443999998 1
vertex 210.3504508 -119.73514805000015 0
vertex 213.17368080000003 -160.1092444000003 0
endloop
endfacet
facet normal -0.9918435390474001 -0.1274613433552643 0
outer loop
vertex 213.21801103787678 -160.45420122271244 1
vertex 213.1736808 -160.1092443999998 1
vertex 213.17368080000003 -160.1092444000003 0
endloop
endfacet
facet normal -0.9918435390474001 -0.1274613433552643 0
outer loop
vertex 213.21801103787678 -160.45420122271244 1
vertex 213.17368080000003 -160.1092444000003 0
vertex 213.21801103787672 -160.4542012227122 0
endloop
endfacet
facet normal -0.9704261261408118 -0.24139828852611445 0
outer loop
vertex 213.30196715657218 -160.79170656100146 1
vertex 213.21801103787678 -160.45420122271244 1
vertex 213.21801103787672 -160.4542012227122 0
endloop
endfacet
facet normal -0.9704261261408118 -0.24139828852611445 0
outer loop
vertex 213.30196715657218 -160.79170656100146 1
vertex 213.21801103787672 -160.4542012227122 0
vertex 213.3019671565722 -160.79170656100143 0
endloop
endfacet
facet normal -0.9359666258424698 -0.3520887321529364 0
outer loop
vertex 213.42442040000003 -161.11722720000012 1
vertex 213.30196715657218 -160.79170656100146 1
vertex 213.3019671565722 -160.79170656100143 0
endloop
endfacet
facet normal -0.9359666258424698 -0.3520887321529364 0
outer loop
vertex 213.42442040000003 -161.11722720000012 1
vertex 213.3019671565722 -160.79170656100143 0
vertex 213.42442040000032 -161.1172272000007 0
endloop
endfacet
facet normal -0.9139832710788546 -0.40575187022119474 0
outer loop
vertex 232.0234135000002 -203.0127052000005 1
vertex 213.42442040000003 -161.11722720000012 1
vertex 213.42442040000032 -161.1172272000007 0
endloop
endfacet
facet normal -0.9139832710788546 -0.40575187022119474 0
outer loop
vertex 232.0234135000002 -203.0127052000005 1
vertex 213.42442040000032 -161.1172272000007 0
vertex 232.02341350000037 -203.01270520000082 0
endloop
endfacet
facet normal -0.9225141541427682 -0.38596325654944535 0
outer loop
vertex 232.07330890793406 -203.1319632362634 1
vertex 232.0234135000002 -203.0127052000005 1
vertex 232.02341350000037 -203.01270520000082 0
endloop
endfacet
facet normal -0.9225141541427682 -0.38596325654944535 0
outer loop
vertex 232.07330890793406 -203.1319632362634 1
vertex 232.02341350000037 -203.01270520000082 0
vertex 232.07330890793355 -203.1319632362621 0
endloop
endfacet
facet normal -0.9382964286211869 -0.34583205756078467 0
outer loop
vertex 232.11801675000046 -203.2532626000012 1
vertex 232.07330890793406 -203.1319632362634 1
vertex 232.07330890793355 -203.1319632362621 0
endloop
endfacet
facet normal -0.9382964286211869 -0.34583205756078467 0
outer loop
vertex 232.11801675000046 -203.2532626000012 1
vertex 232.07330890793355 -203.1319632362621 0
vertex 232.11801675000072 -203.25326260000205 0
endloop
endfacet
facet normal 0 0 -1
outer loop
vertex 239.23840240000013 -223.93235010000026 1
vertex 235.2280085780367 -212.28532860000033 1
vertex 235.19634010088416 -212.19335672625365 1
endloop
endfacet
facet normal 0 0 -1
outer loop
vertex 239.23840240000013 -223.93235010000026 1
vertex 235.19634010088416 -212.19335672625365 1
vertex 235.17751039701682 -212.13867133237025 1
endloop
endfacet
facet normal 0 0 -1
outer loop
vertex 239.23840240000013 -223.93235010000026 1
vertex 235.17751039701682 -212.13867133237025 1
vertex 235.17175770055266 -212.12196430000003 1
endloop
endfacet
facet normal 0 0 -1
outer loop
vertex 239.23840240000013 -223.93235010000026 1
vertex 235.17175770055266 -212.12196430000003 1
vertex 232.11801675000046 -203.2532626000012 1
endloop
endfacet
facet normal 0 0 -1
outer loop
vertex 239.23840240000013 -223.93235010000026 1
vertex 232.11801675000046 -203.2532626000012 1
vertex 232.11801675000072 -203.25326260000205 0
endloop
endfacet
facet normal 0 0 -1
outer loop
vertex 239.23840240000013 -223.93235010000026 1
vertex 232.11801675000072 -203.25326260000205 0
vertex 235.17175770055266 -212.1219643 0
endloop
endfacet
facet normal 0 0 -1
outer loop
vertex 239.23840240000013 -223.93235010000026 1
vertex 235.17175770055266 -212.1219643 0
vertex 235.17751039701682 -212.1386713323703 0
endloop
endfacet
facet normal 0 0 -1
outer loop
vertex 239.23840240000013 -223.93235010000026 1
vertex 235.17751039701682 -212.1386713323703 0
vertex 235.19634010088416 -212.19335672625363 0
endloop
endfacet
facet normal 0 0 -1
outer loop
vertex 239.23840240000013 -223.93235010000026 1
vertex 235.19634010088416 -212.19335672625363 0
vertex 235.22800857803665 -212.28532860000013 0
endloop
endfacet
facet normal 0 0 -1
outer loop
vertex 239.23840240000013 -223.93235010000026 1
vertex 235.22800857803665 -212.28532860000013 0
vertex 239.23840240000018 -223.9323501000004 0
endloop
endfacet
facet normal -0.9135464784094631 -0.406734350388148 0
outer loop
vertex 239.45109912195554 -224.4100779858456 1
vertex 239.23840240000013 -223.93235010000026 1
vertex 239.23840240000018 -223.9323501000004 0
endloop
endfacet
facet normal -0.9135464784094631 -0.406734350388148 0
outer loop
vertex 239.45109912195554 -224.4100779858456 1
vertex 239.23840240000018 -223.9323501000004 0
vertex 239.45109912195554 -224.41007798584562 0
endloop
endfacet
facet normal -0.8290358003544441 -0.5591955308572006 0
outer loop
vertex 239.74352128578522 -224.8436087085613 1
vertex 239.45109912195554 -224.4100779858456 1
vertex 239.45109912195554 -224.41007798584562 0
endloop
endfacet
facet normal -0.8290358003544441 -0.5591955308572006 0
outer loop
vertex 239.74352128578522 -224.8436087085613 1
vertex 239.45109912195554 -224.41007798584562 0
vertex 239.7435212857852 -224.8436087085613 0
endloop
endfacet
facet normal -0.7193377846931971 -0.6946604577149068 0
outer loop
vertex 240.10678261918787 -225.2197746468013 1
vertex 239.74352128578522 -224.8436087085613 1
vertex 239.7435212857852 -224.8436087085613 0
endloop
endfacet
facet normal -0.7193377846931971 -0.6946604577149068 0
outer loop
vertex 240.10678261918787 -225.2197746468013 1
vertex 239.7435212857852 -224.8436087085613 0
vertex 240.10678261918773 -225.21977464680123 0
endloop
endfacet
facet normal -0.5877831212924255 -0.8090185426328211 0
outer loop
vertex 240.5298456441235 -225.5271462238369 1
vertex 240.10678261918787 -225.2197746468013 1
vertex 240.10678261918773 -225.21977464680123 0
endloop
endfacet
facet normal -0.5877831212924255 -0.8090185426328211 0
outer loop
vertex 240.5298456441235 -225.5271462238369 1
vertex 240.10678261918773 -225.21977464680123 0
vertex 240.52984564412353 -225.52714622383692 0
endloop
endfacet
facet normal -0.43836901980469506 -0.8987950836956503 0
outer loop
vertex 240.99985584397427 -225.75638413840093 1
vertex 240.5298456441235 -225.5271462238369 1
vertex 240.52984564412353 -225.52714622383692 0
endloop
endfacet
facet normal -0.43836901980469506 -0.8987950836956503 0
outer loop
vertex 240.99985584397427 -225.75638413840093 1
vertex 240.52984564412353 -225.52714622383692 0
vertex 240.99985584397416 -225.75638413840088 0
endloop
endfacet
facet normal -0.2756353382119413 -0.9612622744749681 0
outer loop
vertex 241.50253224033037 -225.90052313376145 1
vertex 240.99985584397427 -225.75638413840093 1
vertex 240.99985584397416 -225.75638413840088 0
endloop
endfacet
facet normal -0.2756353382119413 -0.9612622744749681 0
outer loop
vertex 241.50253224033037 -225.90052313376145 1
vertex 240.99985584397416 -225.75638413840088 0
vertex 241.50253224033037 -225.90052313376142 0
endloop
endfacet
facet normal -0.10452664195989307 -0.9945220867937465 0
outer loop
vertex 242.02260131196778 -225.95518363287687 1
vertex 241.50253224033037 -225.90052313376145 1
vertex 241.50253224033037 -225.90052313376142 0
endloop
endfacet
facet normal -0.10452664195989307 -0.9945220867937465 0
outer loop
vertex 242.02260131196778 -225.95518363287687 1
vertex 241.50253224033037 -225.90052313376142 0
vertex 242.02260131196772 -225.95518363287687 0
endloop
endfacet
facet normal 0.06975803370181664 -0.9975639411757304 0
outer loop
vertex 242.54426107164056 -225.91870480922046 1
vertex 242.02260131196778 -225.95518363287687 1
vertex 242.02260131196772 -225.95518363287687 0
endloop
endfacet
facet normal 0.06975803370181664 -0.9975639411757304 0
outer loop
vertex 242.54426107164056 -225.91870480922046 1
vertex 242.02260131196772 -225.95518363287687 0
vertex 242.5442610716405 -225.91870480922043 0
endloop
endfacet
facet normal 0.241923153291224 -0.9702954126974068 0
outer loop
vertex 243.0516611999991 -225.7921950500002 1
vertex 242.54426107164056 -225.91870480922046 1
vertex 242.5442610716405 -225.91870480922043 0
endloop
endfacet
facet normal 0.241923153291224 -0.9702954126974068 0
outer loop
vertex 243.0516611999991 -225.7921950500002 1
vertex 242.5442610716405 -225.91870480922043 0
vertex 243.0516611999998 -225.79219505 0
endloop
endfacet
facet normal 0.3255680102689088 -0.9455186252472998 0
outer loop
vertex 282.2784690999989 -212.28532860000033 1
vertex 243.0516611999991 -225.7921950500002 1
vertex 243.0516611999998 -225.79219505 0
endloop
endfacet
facet normal 0.3255680102689088 -0.9455186252472998 0
outer loop
vertex 282.2784690999989 -212.28532860000033 1
vertex 243.0516611999998 -225.79219505 0
vertex 282.2784690999996 -212.28532860000013 0
endloop
endfacet
facet normal 0.2717103058940907 -0.9623790883383427 0
outer loop
vertex 282.6042271080282 -212.19335672625365 1
vertex 282.2784690999989 -212.28532860000033 1
vertex 282.2784690999996 -212.28532860000013 0
endloop
endfacet
facet normal 0.2717103058940907 -0.9623790883383427 0
outer loop
vertex 282.6042271080282 -212.19335672625365 1
vertex 282.2784690999996 -212.28532860000013 0
vertex 282.60422710802834 -212.19335672625363 0
endloop
endfacet
facet normal 0.1615565149513434 -0.9868634619220515 0
outer loop
vertex 282.9382713100872 -212.13867133237025 1
vertex 282.6042271080282 -212.19335672625365 1
vertex 282.60422710802834 -212.19335672625363 0
endloop
endfacet
facet normal 0.1615565149513434 -0.9868634619220515 0
outer loop
vertex 282.9382713100872 -212.13867133237025 1
vertex 282.60422710802834 -212.19335672625363 0
vertex 282.93827131008686 -212.1386713323703 0
endloop
endfacet
facet normal 0.049357419472528384 -0.9987811798101789 0
outer loop
vertex 283.276349549999 -212.12196430000003 1
vertex 282.9382713100872 -212.13867133237025 1
vertex 282.93827131008686 -212.1386713323703 0
endloop
endfacet
facet normal 0.049357419472528384 -0.9987811798101789 0
outer loop
vertex 283.276349549999 -212.12196430000003 1
vertex 282.93827131008686 -212.1386713323703 0
vertex 283.2763495500004 -212.1219643 0
endloop
endfacet
facet normal -0.007058007221615981 -0.9999750919568247 0
outer loop
vertex 336.82568349998166 -212.4999252999999 1
vertex 283.276349549999 -212.12196430000003 1
vertex 283.2763495500004 -212.1219643 0
endloop
endfacet
facet normal -0.007058007221615981 -0.9999750919568247 0
outer loop
vertex 336.82568349998166 -212.4999252999999 1
vertex 283.2763495500004 -212.1219643 0
vertex 336.8256834999936 -212.49992529999997 0
endloop
endfacet
facet normal -0.005292766061643306 -0.9999859932156134 0
outer loop
vertex 336.8362716794101 -212.49998134154157 1
vertex 336.82568349998166 -212.4999252999999 1
vertex 336.8256834999936 -212.49992529999997 0
endloop
endfacet
facet normal -0.005292766061643306 -0.9999859932156134 0
outer loop
vertex 336.8362716794101 -212.49998134154157 1
vertex 336.8256834999936 -212.49992529999997 0
vertex 336.83627167939596 -212.49998134154154 0
endloop
endfacet
facet normal -0.0020121126758567702 -0.999997975699241 0
outer loop
vertex 336.84686174999746 -212.50000264999997 1
vertex 336.8362716794101 -212.49998134154157 1
vertex 336.83627167939596 -212.49998134154154 0
endloop
endfacet
facet normal -0.0020121126758567702 -0.999997975699241 0
outer loop
vertex 336.84686174999746 -212.50000264999997 1
vertex 336.83627167939596 -212.49998134154154 0
vertex 336.84686174999166 -212.50000264999997 0
endloop
endfacet
facet normal 1.1527049537107814e-7 -0.9999999999999933 0
outer loop
vertex 359.83626680000026 -212.5 1
vertex 336.84686174999746 -212.50000264999997 1
vertex 336.84686174999166 -212.50000264999997 0
endloop
endfacet
facet normal 1.1527049537107814e-7 -0.9999999999999933 0
outer loop
vertex 359.83626680000026 -212.5 1
vertex 336.84686174999166 -212.50000264999997 0
vertex 359.8362668000001 -212.5 0
endloop
endfacet
facet normal 0.0871554770965589 -0.9961947213331696 0
outer loop
vertex 360.3572129330009 -212.45442325903662 1
vertex 359.83626680000026 -212.5 1
vertex 359.8362668000001 -212.5 0
endloop
endfacet
facet normal 0.0871554770965589 -0.9961947213331696 0
outer loop
vertex 360.3572129330009 -212.45442325903662 1
vertex 359.8362668000001 -212.5 0
vertex 360.3572129330008 -212.45442325903662 0
endloop
endfacet
facet normal 0.25881904510254033 -0.965925826289063 0
outer loop
vertex 360.86232882997683 -212.31907786235777 1
vertex 360.3572129330009 -212.45442325903662 1
vertex 360.3572129330008 -212.45442325903662 0
endloop
endfacet
facet normal 0.25881904510254033 -0.965925826289063 0
outer loop
vertex 360.86232882997683 -212.31907786235777 1
vertex 360.3572129330008 -212.45442325903662 0
vertex 360.8623288299771 -212.31907786235772 0
endloop
endfacet
facet normal 0 0 1
outer loop
vertex 361.33626839999977 -212.0980762113534 1
vertex 361.2850402285793 -212.12196430000003 1
vertex 360.86232882997683 -212.31907786235777 1
endloop
endfacet
facet normal 0 0 1
outer loop
vertex 361.33626839999977 -212.0980762113534 1
vertex 360.86232882997683 -212.31907786235777 1
vertex 360.8623288299771 -212.31907786235772 0
endloop
endfacet
facet normal 0 0 1
outer loop
vertex 361.33626839999977 -212.0980762113534 1
vertex 360.8623288299771 -212.31907786235772 0
vertex 361.2850402285796 -212.1219643 0
endloop
endfacet
facet normal 0 0 1
outer loop
vertex 361.33626839999977 -212.0980762113534 1
vertex 361.2850402285796 -212.1219643 0
vertex 361.3362683999996 -212.09807621135357 0
endloop
endfacet
facet normal 0.5735764363510598 -0.8191520442889821 0
outer loop
vertex 361.76463122905994 -211.79813332935666 1
vertex 361.33626839999977 -212.0980762113534 1
vertex 361.3362683999996 -212.09807621135357 0
endloop
endfacet
facet normal 0.5735764363510598 -0.8191520442889821 0
outer loop
vertex 361.76463122905994 -211.79813332935666 1
vertex 361.3362683999996 -212.09807621135357 0
vertex 361.7646312290597 -211.79813332935683 0
endloop
endfacet
facet normal 0.7071067811865476 -0.7071067811865476 0
outer loop
vertex 362.13440172935674 -211.42836282905984 1
vertex 361.76463122905994 -211.79813332935666 1
vertex 361.7646312290597 -211.79813332935683 0
endloop
endfacet
facet normal 0.7071067811865476 -0.7071067811865476 0
outer loop
vertex 362.13440172935674 -211.42836282905984 1
vertex 361.7646312290597 -211.79813332935683 0
vertex 362.13440172935674 -211.42836282905978 0
endloop
endfacet
facet normal 0.8191520442889821 -0.5735764363510599 0
outer loop
vertex 362.4343446113533 -210.99999999999991 1
vertex 362.13440172935674 -211.42836282905984 1
vertex 362.13440172935674 -211.42836282905978 0
endloop
endfacet
facet normal 0.8191520442889821 -0.5735764363510599 0
outer loop
vertex 362.4343446113533 -210.99999999999991 1
vertex 362.13440172935674 -211.42836282905978 0
vertex 362.43434461135354 -210.99999999999966 0
endloop
endfacet
facet normal 0.9063077870366228 -0.4226182617407576 0
outer loop
vertex 362.6553462623578 -210.52606042997687 1
vertex 362.4343446113533 -210.99999999999991 1
vertex 362.43434461135354 -210.99999999999966 0
endloop
endfacet
facet normal 0.9063077870366228 -0.4226182617407576 0
outer loop
vertex 362.6553462623578 -210.52606042997687 1
vertex 362.43434461135354 -210.99999999999966 0
vertex 362.6553462623578 -210.5260604299769 0
endloop
endfacet
facet normal 0.965925826289063 -0.25881904510254033 0
outer loop
vertex 362.7906916590366 -210.02094453300097 1
vertex 362.6553462623578 -210.52606042997687 1
vertex 362.6553462623578 -210.5260604299769 0
endloop
endfacet
facet normal 0.965925826289063 -0.25881904510254033 0
outer loop
vertex 362.7906916590366 -210.02094453300097 1
vertex 362.6553462623578 -210.5260604299769 0
vertex 362.79069165903667 -210.0209445330006 0
endloop
endfacet
facet normal 0.996194698091746 -0.08715574274765432 0
outer loop
vertex 362.8362684 -209.50000000000074 1
vertex 362.7906916590366 -210.02094453300097 1
vertex 362.79069165903667 -210.0209445330006 0
endloop
endfacet
facet normal 0.996194698091746 -0.08715574274765432 0
outer loop
vertex 362.8362684 -209.50000000000074 1
vertex 362.79069165903667 -210.0209445330006 0
vertex 362.8362684 -209.49999999999994 0
endloop
endfacet
endsolid csg.js
